<svg width="249" height="204" viewBox="0 0 249 204" fill="none" xmlns="http://www.w3.org/2000/svg">
<mask id="mask0_656_233" style="mask-type:luminance" maskUnits="userSpaceOnUse" x="60" y="0" width="126" height="125">
<path d="M60.6504 0H185.65V125H60.6504V0Z" fill="white"/>
</mask>
<g mask="url(#mask0_656_233)">
<path fill-rule="evenodd" clip-rule="evenodd" d="M72.959 65.9399C74.1858 51.6586 80.8654 38.6188 91.375 29.8299L88.4288 30.0386C87.3808 30.1116 86.4824 29.2614 86.41 28.1348C86.3424 27.0081 87.1296 26.0327 88.1777 25.9597L97.1466 25.3234C98.4362 25.2347 99.4359 26.5335 99.1075 27.8792L96.9486 36.7619C96.683 37.8677 95.6397 38.504 94.6351 38.2224C93.6209 37.9355 93.0123 36.8193 93.2779 35.7292L94.0942 32.3857C84.0385 40.533 77.6439 52.8114 76.4896 66.2894C76.3978 67.343 75.5284 68.1045 74.5625 68.0106C73.5869 67.9115 72.8721 66.9883 72.959 65.9399ZM145.657 113.801C146.068 114.751 145.686 115.888 144.802 116.331C137.471 120.024 130.719 122.481 121.605 122.481C115.2 122.481 108.999 121.171 103.131 118.59L105.121 121.85C105.956 123.211 105.039 125.016 103.536 125.016C102.923 125.016 102.315 124.687 101.952 124.092L96.794 115.658C96.0889 114.506 96.6347 112.936 97.8711 112.565L106.357 110.02C107.366 109.717 108.415 110.354 108.695 111.439C108.975 112.529 108.386 113.65 107.376 113.958L104.159 114.923C109.694 117.406 115.548 118.673 121.605 118.673C130.067 118.673 136.398 116.357 143.3 112.878C144.189 112.435 145.242 112.847 145.657 113.801ZM146.266 28.938C146.836 28.0826 147.942 27.8792 148.739 28.4894C159.103 36.4177 166.078 48.3257 168.275 61.6315L169.734 58.4446C170.197 57.4327 171.332 57.0206 172.274 57.5161C173.216 58.0169 173.597 59.2374 173.139 60.2493L169.164 68.9338C168.589 70.1909 167.048 70.4621 166.131 69.4867L160.064 63.0294C159.316 62.2366 159.311 60.943 160.045 60.1398C160.784 59.3417 161.987 59.3313 162.73 60.1241L164.793 62.32C162.759 49.9895 156.297 38.9474 146.686 31.5981C145.889 30.9879 145.701 29.7986 146.266 28.938ZM128.502 58.4759L121.093 78.6146C120.726 79.6057 119.697 80.0699 118.794 79.6891C117.881 79.2979 117.441 78.1921 117.799 77.2115L125.213 57.0728C125.57 56.0922 126.599 55.6123 127.512 56.0035C128.42 56.3895 128.864 57.4953 128.502 58.4759ZM139.05 67.8437C139.05 68.4383 138.794 68.9964 138.354 69.3615L132.564 74.1237C131.791 74.76 130.68 74.6088 130.081 73.7638C129.487 72.9293 129.637 71.7348 130.414 71.0932L134.365 67.8437L130.414 64.5942C129.637 63.9526 129.487 62.7582 130.081 61.9236C130.675 61.0839 131.786 60.9274 132.564 61.5637L138.354 66.3311C138.794 66.691 139.05 67.2491 139.05 67.8437ZM115.891 64.5942L111.935 67.8437L115.891 71.0932C117.248 72.2147 116.451 74.5149 114.814 74.5149C114.437 74.5149 114.061 74.3897 113.737 74.1237L107.946 69.3615C107.024 68.5948 107.019 67.0926 107.946 66.3311L113.737 61.5637C114.515 60.9274 115.625 61.0839 116.219 61.9236C116.814 62.7582 116.664 63.9526 115.891 64.5942ZM145.087 81.0296V54.4961C145.087 53.8233 144.561 53.2547 143.938 53.2547H102.368C101.74 53.2547 101.213 53.8233 101.213 54.4961V81.1078C101.213 81.8276 101.774 82.4327 102.445 82.4327H143.783C144.503 82.4327 145.087 81.8016 145.087 81.0296ZM127.251 90.7156H119.05V86.2455H127.251V90.7156ZM148.632 54.4961C148.632 51.7108 146.526 49.4419 143.938 49.4419H102.368C99.7789 49.4419 97.6682 51.7108 97.6682 54.4961V81.1078C97.6682 83.9401 99.8127 86.2455 102.445 86.2455H115.258V90.7156H108.854C107.806 90.7156 106.956 91.6284 106.956 92.7603C106.956 93.8869 107.806 94.7997 108.854 94.7997H137.446C138.495 94.7997 139.345 93.8869 139.345 92.7603C139.345 91.6284 138.495 90.7156 137.446 90.7156H131.042V86.2455H143.783C146.454 86.2455 148.632 83.9036 148.632 81.0296V54.4961ZM89.2596 107.542V106.197C89.2596 102.17 87.1972 98.6595 84.1545 96.8078C87.7333 92.3169 84.763 85.3275 79.257 85.3275C73.7462 85.3275 70.7807 92.3169 74.3596 96.8078C71.312 98.6595 69.2497 102.17 69.2497 106.197V107.542C66.1683 104.574 64.2219 100.266 64.2219 95.4725C64.2219 86.5481 70.9643 79.2875 79.257 79.2875C87.545 79.2875 94.2874 86.5481 94.2874 95.4725C94.2874 100.266 92.341 104.574 89.2596 107.542ZM76.335 92.2804C76.335 94.0121 77.6439 95.4256 79.257 95.4256C80.8654 95.4256 82.1742 94.0121 82.1742 92.2804C82.1742 90.5487 80.8654 89.1404 79.257 89.1404C77.6439 89.1404 76.335 90.5487 76.335 92.2804ZM72.7948 110.088C76.8711 112.184 81.643 112.19 85.7193 110.088V106.197C85.7193 102.358 82.8214 99.2332 79.257 99.2332C75.6927 99.2332 72.7948 102.358 72.7948 106.197V110.088ZM79.257 75.4746C69.013 75.4746 60.6816 84.446 60.6816 95.4725C60.6816 106.499 69.013 115.476 79.257 115.476C89.4962 115.476 97.8324 106.499 97.8324 95.4725C97.8324 84.446 89.4962 75.4746 79.257 75.4746ZM177.051 107.542V106.197C177.051 102.17 174.988 98.6595 171.946 96.8078C175.529 92.3169 172.554 85.3275 167.048 85.3275C161.542 85.3275 158.567 92.3169 162.146 96.8078C159.108 98.6595 157.041 102.17 157.041 106.197V107.542C153.96 104.574 152.013 100.266 152.013 95.4725C152.013 86.5481 158.756 79.2875 167.048 79.2875C175.336 79.2875 182.079 86.5481 182.079 95.4725C182.079 100.266 180.132 104.574 177.051 107.542ZM164.131 92.2804C164.131 94.0121 165.44 95.4256 167.048 95.4256C168.657 95.4256 169.965 94.0121 169.965 92.2804C169.965 90.5487 168.657 89.1404 167.048 89.1404C165.44 89.1404 164.131 90.5487 164.131 92.2804ZM160.581 110.088C164.662 112.184 169.429 112.19 173.511 110.088V106.197C173.511 102.358 170.613 99.2332 167.048 99.2332C163.484 99.2332 160.581 102.358 160.581 106.197V110.088ZM167.048 75.4746C177.287 75.4746 185.619 84.446 185.619 95.4725C185.619 106.499 177.287 115.476 167.048 115.476C156.804 115.476 148.473 106.499 148.473 95.4725C148.473 84.446 156.804 75.4746 167.048 75.4746ZM123.15 3.82848C131.438 3.82848 138.185 11.0891 138.185 20.0135C138.185 24.807 136.239 29.1206 133.153 32.0832V30.7375C133.153 26.7108 131.095 23.2005 128.048 21.3488C131.627 16.8631 128.666 9.86853 123.15 9.86853C117.639 9.86853 114.674 16.8631 118.253 21.3488C115.21 23.2005 113.148 26.7108 113.148 30.7375V32.0832C110.061 29.1154 108.12 24.807 108.12 20.0135C108.12 11.0891 114.862 3.82848 123.15 3.82848ZM120.233 16.8214C120.233 18.5531 121.542 19.9666 123.15 19.9666C124.759 19.9666 126.067 18.5531 126.067 16.8214C126.067 15.0897 124.759 13.6814 123.15 13.6814C121.542 13.6814 120.233 15.0897 120.233 16.8214ZM116.688 34.6286C120.769 36.7306 125.531 36.7306 129.613 34.6286V30.7375C129.613 26.8986 126.715 23.7794 123.15 23.7794C119.591 23.7794 116.688 26.8986 116.688 30.7375V34.6286ZM123.15 40.0115C133.394 40.0115 141.726 31.0453 141.726 20.0135C141.726 8.98704 133.394 0.015625 123.15 0.015625C112.911 0.015625 104.58 8.98704 104.58 20.0135C104.58 31.0453 112.911 40.0115 123.15 40.0115Z" fill="#E9E2D1"/>
</g>
<path d="M0 158.914H10.125V161.655H3.1875V165.013H9.58333V167.774H3.1875V173.158H0V158.914Z" fill="#E9E2D1"/>
<path d="M15.4531 173.356C14.8385 173.356 14.2865 173.277 13.7865 173.118C13.2969 172.949 12.8802 172.716 12.5365 172.423C12.2031 172.12 11.9427 171.762 11.7656 171.35C11.599 170.943 11.5156 170.491 11.5156 169.999C11.5156 169.512 11.6042 169.065 11.7865 168.668C11.9635 168.261 12.2448 167.908 12.6198 167.615C12.9948 167.312 13.4427 167.074 13.974 166.9C14.5156 166.731 15.151 166.642 15.8906 166.642H18.5573V166.145C18.5573 165.629 18.3802 165.246 18.0365 164.993C17.6875 164.745 17.2135 164.615 16.6198 164.615C16.2031 164.615 15.8385 164.71 15.5365 164.894C15.2448 165.067 15.0417 165.281 14.9323 165.529H11.9323C12.026 165.092 12.2031 164.675 12.4531 164.278C12.7031 163.88 13.0208 163.533 13.4115 163.225C13.8125 162.907 14.2865 162.659 14.8281 162.47C15.3698 162.271 16.0052 162.172 16.7448 162.172C18.2448 162.172 19.4167 162.52 20.2656 163.205C21.1094 163.895 21.5365 164.908 21.5365 166.244V173.158H18.974L18.6615 171.946H18.5573C18.4323 172.095 18.2865 172.254 18.1198 172.423C17.9531 172.582 17.7344 172.736 17.474 172.88C17.224 173.029 16.9323 173.138 16.599 173.217C16.2656 173.307 15.8802 173.356 15.4531 173.356ZM16.2031 171.012C16.8958 171.012 17.4583 170.828 17.8906 170.456C18.3333 170.088 18.5573 169.597 18.5573 168.986V168.688H15.9948C15.4531 168.688 15.0625 168.797 14.8281 169.006C14.6042 169.219 14.4948 169.483 14.4948 169.8C14.4948 170.158 14.625 170.451 14.8906 170.675C15.1667 170.903 15.6042 171.012 16.2031 171.012Z" fill="#E9E2D1"/>
<path d="M28.1439 173.356C27.321 173.356 26.6126 173.262 26.0189 173.078C25.4199 172.895 24.9199 172.636 24.5189 172.303C24.1126 171.976 23.8001 171.598 23.5814 171.171C23.373 170.749 23.2168 170.292 23.123 169.8H26.3314C26.3835 170.054 26.5658 170.287 26.873 170.496C27.1751 170.709 27.6022 170.814 28.1439 170.814C28.8783 170.814 29.3783 170.734 29.6439 170.575C29.9199 170.406 30.0605 170.213 30.0605 169.999C30.0605 169.736 29.8991 169.542 29.5814 169.423C29.2585 169.294 28.8574 169.18 28.373 169.085C27.8991 168.996 27.3783 168.897 26.8105 168.787C26.2533 168.683 25.7324 168.504 25.248 168.251C24.7585 168.003 24.3574 167.655 24.0397 167.218C23.7168 166.771 23.5605 166.175 23.5605 165.43C23.5605 164.968 23.6543 164.546 23.8522 164.159C24.0605 163.761 24.3522 163.419 24.7272 163.126C25.1126 162.837 25.5918 162.604 26.1647 162.43C26.7324 162.261 27.3939 162.172 28.1439 162.172C28.9355 162.172 29.623 162.266 30.2064 162.45C30.7897 162.624 31.2741 162.862 31.6647 163.165C32.0658 163.473 32.373 163.831 32.5814 164.238C32.8001 164.635 32.9616 165.067 33.0605 165.529H29.8522C29.7949 165.331 29.6439 165.147 29.3939 164.973C29.1543 164.804 28.7376 164.715 28.1439 164.715C27.6543 164.715 27.2793 164.789 27.0189 164.933C26.7689 165.067 26.6439 165.231 26.6439 165.43C26.6439 165.698 26.8001 165.897 27.123 166.026C27.4564 166.145 27.8574 166.254 28.3314 166.344C28.8158 166.438 29.3366 166.542 29.8939 166.662C30.4616 166.771 30.9876 166.95 31.4772 167.198C31.9616 167.436 32.3626 167.784 32.6855 168.231C33.0033 168.668 33.1647 169.259 33.1647 169.999C33.1647 170.436 33.0814 170.853 32.9147 171.251C32.748 171.648 32.4668 172.006 32.0814 172.323C31.7064 172.641 31.1908 172.895 30.5397 173.078C29.8991 173.262 29.1022 173.356 28.1439 173.356Z" fill="#E9E2D1"/>
<path d="M39.4408 173.157C38.2585 173.157 37.3783 172.889 36.7949 172.343C36.222 171.801 35.9408 171.022 35.9408 169.999V165.012H34.1074V162.37H35.9408L36.3574 159.529H38.9199V162.37H41.5866V165.012H38.9199V169.502C38.9199 169.81 39.0137 170.053 39.2116 170.237C39.4043 170.426 39.6595 170.515 39.9824 170.515H41.5866V173.157H39.4408Z" fill="#E9E2D1"/>
<path d="M48.7253 173.356C47.8763 173.356 47.1055 173.227 46.4128 172.979C45.7305 172.731 45.1471 172.373 44.6628 171.906C44.1888 171.429 43.819 170.848 43.5586 170.158C43.3086 169.458 43.1836 168.663 43.1836 167.774C43.1836 166.875 43.3086 166.081 43.5586 165.39C43.819 164.705 44.1888 164.119 44.6628 163.642C45.1471 163.165 45.7305 162.803 46.4128 162.549C47.1055 162.301 47.8763 162.172 48.7253 162.172C49.543 162.172 50.2878 162.306 50.9544 162.569C51.6315 162.837 52.2096 163.215 52.6836 163.702C53.1523 164.178 53.5169 164.75 53.7669 165.41C54.0273 166.061 54.1628 166.776 54.1628 167.556C54.1628 167.715 54.1523 167.864 54.1419 167.993C54.1263 168.127 54.1107 168.246 54.1003 168.35C54.0846 168.484 54.069 168.599 54.0586 168.688H46.2669C46.3919 169.299 46.6419 169.81 47.0169 170.218C47.4023 170.615 47.9753 170.814 48.7253 170.814C49.3086 170.814 49.7357 170.729 50.0169 170.555C50.293 170.372 50.5378 170.118 50.7461 169.8H53.9544C53.8294 170.267 53.6315 170.709 53.3711 171.131C53.1055 171.559 52.7565 171.941 52.3294 172.284C51.9128 172.616 51.4023 172.88 50.8086 173.078C50.2096 173.262 49.5169 173.356 48.7253 173.356ZM51.0794 166.542C51.0221 166.319 50.9336 166.1 50.8086 165.887C50.6836 165.663 50.5221 165.465 50.3294 165.291C50.1471 165.107 49.918 164.968 49.6419 164.874C49.3763 164.769 49.069 164.715 48.7253 164.715C48.0273 164.715 47.4857 164.894 47.1003 165.251C46.7096 165.599 46.4336 166.026 46.2669 166.542H51.0794Z" fill="#E9E2D1"/>
<path d="M56.1816 162.371H58.7441L59.0775 163.602H59.1816C59.4993 163.141 59.89 162.823 60.3483 162.649C60.8066 162.465 61.3066 162.371 61.8483 162.371H63.2233V165.132H62.0566C61.1504 165.132 60.4421 165.37 59.9316 165.847C59.4316 166.314 59.1816 166.955 59.1816 167.774V173.158H56.1816V162.371Z" fill="#E9E2D1"/>
<path d="M76.3503 173.356C75.2773 173.356 74.3086 173.197 73.4336 172.879C72.569 172.552 71.8346 172.075 71.2253 171.449C70.6107 170.828 70.1419 170.068 69.8086 169.164C69.4753 168.251 69.3086 167.213 69.3086 166.046C69.3086 164.883 69.4753 163.84 69.8086 162.927C70.1419 162.013 70.6107 161.248 71.2253 160.622C71.8346 160.001 72.569 159.53 73.4336 159.212C74.3086 158.884 75.2773 158.715 76.3503 158.715C77.2773 158.715 78.1055 158.834 78.8294 159.073C79.5482 159.301 80.1732 159.619 80.7044 160.026C81.2461 160.438 81.6888 160.93 82.0378 161.496C82.3971 162.067 82.668 162.698 82.8503 163.384H79.5378C79.4128 163.105 79.2565 162.857 79.0794 162.629C78.8971 162.39 78.6836 162.187 78.4336 162.013C78.1836 161.844 77.8815 161.71 77.5378 161.615C77.2044 161.511 76.8086 161.457 76.3503 161.457C75.793 161.457 75.2773 161.556 74.8086 161.755C74.3346 161.943 73.9232 162.226 73.5794 162.609C73.2461 162.981 72.9805 163.458 72.7878 164.039C72.6055 164.61 72.5169 165.281 72.5169 166.046C72.5169 166.8 72.6055 167.471 72.7878 168.052C72.9805 168.623 73.2461 169.1 73.5794 169.482C73.9232 169.855 74.3346 170.138 74.8086 170.337C75.2773 170.525 75.793 170.615 76.3503 170.615C76.8086 170.615 77.2044 170.57 77.5378 170.476C77.8815 170.386 78.1836 170.252 78.4336 170.078C78.6836 169.895 78.8971 169.691 79.0794 169.462C79.2565 169.224 79.4128 168.966 79.5378 168.688H82.8503C82.668 169.378 82.3971 170.009 82.0378 170.575C81.6888 171.146 81.2461 171.638 80.7044 172.045C80.1732 172.457 79.5482 172.78 78.8294 173.018C78.1055 173.242 77.2773 173.356 76.3503 173.356Z" fill="#E9E2D1"/>
<path d="M89.7819 173.356C88.9329 173.356 88.1621 173.227 87.4694 172.979C86.7871 172.731 86.2038 172.373 85.7194 171.906C85.2454 171.429 84.8757 170.848 84.6152 170.158C84.3652 169.458 84.2402 168.663 84.2402 167.774C84.2402 166.875 84.3652 166.081 84.6152 165.39C84.8757 164.705 85.2454 164.119 85.7194 163.642C86.2038 163.165 86.7871 162.803 87.4694 162.549C88.1621 162.301 88.9329 162.172 89.7819 162.172C90.6413 162.172 91.4121 162.301 92.0944 162.549C92.7715 162.803 93.3496 163.165 93.8236 163.642C94.3079 164.119 94.6777 164.705 94.9277 165.39C95.1882 166.081 95.3236 166.875 95.3236 167.774C95.3236 168.663 95.1882 169.458 94.9277 170.158C94.6777 170.848 94.3079 171.429 93.8236 171.906C93.3496 172.373 92.7715 172.731 92.0944 172.979C91.4121 173.227 90.6413 173.356 89.7819 173.356ZM89.7819 170.814C90.1257 170.814 90.4538 170.764 90.7611 170.655C91.0788 170.535 91.3548 170.352 91.5944 170.098C91.8288 169.85 92.0111 169.532 92.1361 169.145C92.2715 168.762 92.3444 168.306 92.3444 167.774C92.3444 167.248 92.2715 166.791 92.1361 166.403C92.0111 166.006 91.8288 165.683 91.5944 165.43C91.3548 165.182 91.0788 165.003 90.7611 164.894C90.4538 164.774 90.1257 164.715 89.7819 164.715C89.4486 164.715 89.1204 164.774 88.8027 164.894C88.4798 165.003 88.2038 165.182 87.9694 165.43C87.7454 165.683 87.5632 166.006 87.4277 166.403C87.2871 166.791 87.2194 167.248 87.2194 167.774C87.2194 168.306 87.2871 168.762 87.4277 169.145C87.5632 169.532 87.7454 169.85 87.9694 170.098C88.2038 170.352 88.4798 170.535 88.8027 170.655C89.1204 170.764 89.4486 170.814 89.7819 170.814Z" fill="#E9E2D1"/>
<path d="M97.3438 162.371H99.9063L100.24 163.602H100.344C100.661 163.14 101.036 162.788 101.469 162.549C101.896 162.301 102.411 162.172 103.01 162.172C103.495 162.172 103.911 162.232 104.26 162.351C104.604 162.47 104.906 162.624 105.156 162.808C105.406 162.982 105.599 163.175 105.74 163.384C105.891 163.582 106.01 163.756 106.094 163.9H106.198C106.292 163.756 106.427 163.582 106.594 163.384C106.76 163.175 106.979 162.982 107.26 162.808C107.552 162.624 107.885 162.47 108.26 162.351C108.646 162.232 109.099 162.172 109.615 162.172C110.224 162.172 110.786 162.271 111.302 162.47C111.813 162.669 112.25 162.957 112.615 163.324C112.974 163.682 113.26 164.129 113.469 164.655C113.677 165.187 113.781 165.783 113.781 166.443V173.158H110.802V166.86C110.802 166.478 110.745 166.155 110.635 165.887C110.536 165.609 110.406 165.385 110.24 165.211C110.073 165.043 109.87 164.913 109.635 164.834C109.396 164.755 109.141 164.715 108.865 164.715C108.391 164.715 107.969 164.894 107.594 165.251C107.229 165.599 107.052 166.135 107.052 166.86V173.158H104.073V166.86C104.073 166.478 104.021 166.155 103.927 165.887C103.828 165.609 103.688 165.385 103.51 165.211C103.344 165.043 103.141 164.913 102.906 164.834C102.667 164.755 102.417 164.715 102.156 164.715C101.667 164.715 101.245 164.908 100.885 165.291C100.521 165.663 100.344 166.185 100.344 166.86V173.158H97.3438V162.371Z" fill="#E9E2D1"/>
<path d="M116.219 162.371H118.781L119.115 163.602H119.219C119.536 163.14 119.911 162.788 120.344 162.549C120.771 162.301 121.286 162.172 121.885 162.172C122.37 162.172 122.786 162.232 123.135 162.351C123.479 162.47 123.781 162.624 124.031 162.808C124.281 162.982 124.474 163.175 124.615 163.384C124.766 163.582 124.885 163.756 124.969 163.9H125.073C125.167 163.756 125.302 163.582 125.469 163.384C125.635 163.175 125.854 162.982 126.135 162.808C126.427 162.624 126.76 162.47 127.135 162.351C127.521 162.232 127.974 162.172 128.49 162.172C129.099 162.172 129.661 162.271 130.177 162.47C130.688 162.669 131.125 162.957 131.49 163.324C131.849 163.682 132.135 164.129 132.344 164.655C132.552 165.187 132.656 165.783 132.656 166.443V173.158H129.677V166.86C129.677 166.478 129.62 166.155 129.51 165.887C129.411 165.609 129.281 165.385 129.115 165.211C128.948 165.043 128.745 164.913 128.51 164.834C128.271 164.755 128.016 164.715 127.74 164.715C127.266 164.715 126.844 164.894 126.469 165.251C126.104 165.599 125.927 166.135 125.927 166.86V173.158H122.948V166.86C122.948 166.478 122.896 166.155 122.802 165.887C122.703 165.609 122.563 165.385 122.385 165.211C122.219 165.043 122.016 164.913 121.781 164.834C121.542 164.755 121.292 164.715 121.031 164.715C120.542 164.715 120.12 164.908 119.76 165.291C119.396 165.663 119.219 166.185 119.219 166.86V173.158H116.219V162.371Z" fill="#E9E2D1"/>
<path d="M139.26 173.356C138.646 173.356 138.083 173.262 137.573 173.078C137.057 172.88 136.62 172.592 136.26 172.204C135.896 171.822 135.615 171.365 135.406 170.834C135.198 170.292 135.094 169.676 135.094 168.986V162.371H138.094V168.589C138.094 169.304 138.266 169.855 138.615 170.238C138.974 170.625 139.474 170.814 140.115 170.814C140.75 170.814 141.266 170.61 141.656 170.198C142.042 169.791 142.24 169.254 142.24 168.589V162.371H145.24V173.158H142.677L142.365 171.946H142.24C141.875 172.398 141.438 172.751 140.927 172.999C140.411 173.237 139.854 173.356 139.26 173.356Z" fill="#E9E2D1"/>
<path d="M147.783 162.371H150.346L150.679 163.602H150.783C151.143 163.14 151.58 162.788 152.096 162.549C152.606 162.301 153.163 162.172 153.762 162.172C154.372 162.172 154.934 162.271 155.45 162.47C155.96 162.669 156.398 162.962 156.762 163.344C157.122 163.717 157.408 164.173 157.617 164.715C157.825 165.246 157.929 165.857 157.929 166.542V173.158H154.929V166.96C154.929 166.235 154.747 165.678 154.387 165.291C154.038 164.908 153.544 164.715 152.908 164.715C152.268 164.715 151.752 164.928 151.367 165.351C150.976 165.763 150.783 166.299 150.783 166.96V173.158H147.783V162.371Z" fill="#E9E2D1"/>
<path d="M160.367 162.37H163.367V173.158H160.367V162.37ZM161.867 161.258C161.377 161.258 160.971 161.109 160.637 160.801C160.314 160.483 160.158 160.096 160.158 159.629C160.158 159.167 160.314 158.785 160.637 158.477C160.971 158.159 161.377 158 161.867 158C162.351 158 162.752 158.159 163.075 158.477C163.408 158.785 163.575 159.167 163.575 159.629C163.575 160.096 163.408 160.483 163.075 160.801C162.752 161.109 162.351 161.258 161.867 161.258Z" fill="#E9E2D1"/>
<path d="M170.932 173.356C170.083 173.356 169.312 173.227 168.62 172.979C167.937 172.731 167.354 172.373 166.87 171.906C166.396 171.429 166.026 170.848 165.766 170.158C165.516 169.458 165.391 168.663 165.391 167.774C165.391 166.875 165.516 166.081 165.766 165.39C166.026 164.705 166.396 164.119 166.87 163.642C167.354 163.165 167.937 162.803 168.62 162.549C169.312 162.301 170.083 162.172 170.932 162.172C171.724 162.172 172.417 162.281 173.016 162.49C173.609 162.703 174.12 162.986 174.536 163.344C174.964 163.702 175.312 164.119 175.578 164.596C175.839 165.062 176.036 165.544 176.161 166.046H173.182C172.958 165.639 172.672 165.311 172.328 165.072C171.995 164.834 171.526 164.715 170.932 164.715C170.182 164.715 169.562 164.973 169.078 165.49C168.604 165.996 168.37 166.756 168.37 167.774C168.37 168.782 168.604 169.542 169.078 170.059C169.562 170.565 170.182 170.814 170.932 170.814C171.526 170.814 171.995 170.694 172.328 170.456C172.672 170.218 172.958 169.9 173.182 169.502H176.161C176.036 170.019 175.839 170.511 175.578 170.972C175.312 171.424 174.964 171.827 174.536 172.184C174.12 172.542 173.609 172.83 173.016 173.039C172.417 173.247 171.724 173.356 170.932 173.356Z" fill="#E9E2D1"/>
<path d="M181.381 173.356C180.766 173.356 180.214 173.277 179.714 173.118C179.225 172.949 178.808 172.716 178.464 172.423C178.131 172.12 177.87 171.762 177.693 171.35C177.527 170.943 177.443 170.491 177.443 169.999C177.443 169.512 177.532 169.065 177.714 168.668C177.891 168.261 178.173 167.908 178.548 167.615C178.923 167.312 179.37 167.074 179.902 166.9C180.443 166.731 181.079 166.642 181.818 166.642H184.485V166.145C184.485 165.629 184.308 165.246 183.964 164.993C183.615 164.745 183.141 164.615 182.548 164.615C182.131 164.615 181.766 164.71 181.464 164.894C181.173 165.067 180.969 165.281 180.86 165.529H177.86C177.954 165.092 178.131 164.675 178.381 164.278C178.631 163.88 178.949 163.533 179.339 163.225C179.74 162.907 180.214 162.659 180.756 162.47C181.298 162.271 181.933 162.172 182.673 162.172C184.173 162.172 185.344 162.52 186.193 163.205C187.037 163.895 187.464 164.908 187.464 166.244V173.158H184.902L184.589 171.946H184.485C184.36 172.095 184.214 172.254 184.048 172.423C183.881 172.582 183.662 172.736 183.402 172.88C183.152 173.029 182.86 173.138 182.527 173.217C182.193 173.307 181.808 173.356 181.381 173.356ZM182.131 171.012C182.824 171.012 183.386 170.828 183.818 170.456C184.261 170.088 184.485 169.597 184.485 168.986V168.688H181.923C181.381 168.688 180.99 168.797 180.756 169.006C180.532 169.219 180.423 169.483 180.423 169.8C180.423 170.158 180.553 170.451 180.818 170.675C181.094 170.903 181.532 171.012 182.131 171.012Z" fill="#E9E2D1"/>
<path d="M194.384 173.157C193.202 173.157 192.322 172.889 191.738 172.343C191.165 171.801 190.884 171.022 190.884 169.999V165.012H189.051V162.37H190.884L191.301 159.529H193.863V162.37H196.53V165.012H193.863V169.502C193.863 169.81 193.957 170.053 194.155 170.237C194.348 170.426 194.603 170.515 194.926 170.515H196.53V173.157H194.384Z" fill="#E9E2D1"/>
<path d="M198.65 162.37H201.65V173.158H198.65V162.37ZM200.15 161.258C199.66 161.258 199.254 161.109 198.921 160.801C198.598 160.483 198.441 160.096 198.441 159.629C198.441 159.167 198.598 158.785 198.921 158.477C199.254 158.159 199.66 158 200.15 158C200.634 158 201.035 158.159 201.358 158.477C201.691 158.785 201.858 159.167 201.858 159.629C201.858 160.096 201.691 160.483 201.358 160.801C201.035 161.109 200.634 161.258 200.15 161.258Z" fill="#E9E2D1"/>
<path d="M209.215 173.356C208.367 173.356 207.596 173.227 206.903 172.979C206.221 172.731 205.637 172.373 205.153 171.906C204.679 171.429 204.309 170.848 204.049 170.158C203.799 169.458 203.674 168.663 203.674 167.774C203.674 166.875 203.799 166.081 204.049 165.39C204.309 164.705 204.679 164.119 205.153 163.642C205.637 163.165 206.221 162.803 206.903 162.549C207.596 162.301 208.367 162.172 209.215 162.172C210.075 162.172 210.846 162.301 211.528 162.549C212.205 162.803 212.783 163.165 213.257 163.642C213.742 164.119 214.111 164.705 214.361 165.39C214.622 166.081 214.757 166.875 214.757 167.774C214.757 168.663 214.622 169.458 214.361 170.158C214.111 170.848 213.742 171.429 213.257 171.906C212.783 172.373 212.205 172.731 211.528 172.979C210.846 173.227 210.075 173.356 209.215 173.356ZM209.215 170.814C209.559 170.814 209.887 170.764 210.195 170.655C210.512 170.535 210.788 170.352 211.028 170.098C211.262 169.85 211.445 169.532 211.57 169.145C211.705 168.762 211.778 168.306 211.778 167.774C211.778 167.248 211.705 166.791 211.57 166.403C211.445 166.006 211.262 165.683 211.028 165.43C210.788 165.182 210.512 165.003 210.195 164.894C209.887 164.774 209.559 164.715 209.215 164.715C208.882 164.715 208.554 164.774 208.236 164.894C207.913 165.003 207.637 165.182 207.403 165.43C207.179 165.683 206.997 166.006 206.861 166.403C206.721 166.791 206.653 167.248 206.653 167.774C206.653 168.306 206.721 168.762 206.861 169.145C206.997 169.532 207.179 169.85 207.403 170.098C207.637 170.352 207.913 170.535 208.236 170.655C208.554 170.764 208.882 170.814 209.215 170.814Z" fill="#E9E2D1"/>
<path d="M216.777 162.371H219.34L219.673 163.602H219.777C220.137 163.14 220.574 162.788 221.09 162.549C221.6 162.301 222.158 162.172 222.757 162.172C223.366 162.172 223.928 162.271 224.444 162.47C224.954 162.669 225.392 162.962 225.757 163.344C226.116 163.717 226.402 164.173 226.611 164.715C226.819 165.246 226.923 165.857 226.923 166.542V173.158H223.923V166.96C223.923 166.235 223.741 165.678 223.382 165.291C223.033 164.908 222.538 164.715 221.902 164.715C221.262 164.715 220.746 164.928 220.361 165.351C219.97 165.763 219.777 166.299 219.777 166.96V173.158H216.777V162.371Z" fill="#E9E2D1"/>
<path d="M238.225 173.356C237.475 173.356 236.808 173.262 236.225 173.078C235.652 172.894 235.162 172.631 234.745 172.283C234.339 171.926 234.037 171.519 233.829 171.052C233.631 170.575 233.537 170.058 233.537 169.502C233.537 168.842 233.693 168.221 234.016 167.635C234.35 167.039 234.86 166.542 235.558 166.145L236.412 165.628L235.766 165.013C235.391 164.67 235.084 164.268 234.85 163.801C234.61 163.324 234.495 162.783 234.495 162.172C234.495 161.71 234.589 161.273 234.787 160.861C234.995 160.453 235.287 160.086 235.662 159.768C236.037 159.45 236.48 159.202 236.995 159.013C237.521 158.814 238.105 158.715 238.745 158.715C240.146 158.715 241.209 159.043 241.933 159.689C242.652 160.324 243.016 161.154 243.016 162.172C243.016 162.743 242.881 163.294 242.62 163.821C242.37 164.352 241.896 164.824 241.204 165.231L240.35 165.728L242.808 168.072L244.308 166.641H247.933L244.62 169.8L248.141 173.157H244.412L242.808 171.628C242.568 171.817 242.298 172.005 241.995 172.204C241.704 172.403 241.37 172.591 240.995 172.76C240.62 172.934 240.204 173.073 239.745 173.177C239.287 173.297 238.777 173.356 238.225 173.356ZM238.433 170.813C238.917 170.813 239.36 170.729 239.766 170.555C240.183 170.371 240.558 170.118 240.891 169.8L238.225 167.257L237.579 167.675C236.938 168.072 236.62 168.608 236.62 169.284C236.62 169.75 236.771 170.118 237.079 170.396C237.381 170.674 237.834 170.813 238.433 170.813ZM239.287 163.602C239.495 163.443 239.688 163.279 239.87 163.105C240.048 162.937 240.141 162.688 240.141 162.37C240.141 162.028 240.016 161.745 239.766 161.516C239.516 161.278 239.173 161.159 238.745 161.159C238.329 161.159 237.995 161.278 237.745 161.516C237.495 161.755 237.37 162.072 237.37 162.47C237.37 162.738 237.438 162.956 237.579 163.125C237.714 163.299 237.896 163.493 238.12 163.701L238.537 164.099L239.287 163.602Z" fill="#E9E2D1"/>
<path d="M56.8346 203.043C55.7617 203.043 54.793 202.884 53.918 202.567C53.0534 202.239 52.319 201.762 51.7096 201.136C51.0951 200.515 50.6263 199.756 50.293 198.852C49.9596 197.938 49.793 196.9 49.793 195.733C49.793 194.571 49.9596 193.528 50.293 192.614C50.6263 191.7 51.0951 190.935 51.7096 190.309C52.319 189.689 53.0534 189.217 53.918 188.899C54.793 188.571 55.7617 188.402 56.8346 188.402C57.7617 188.402 58.5898 188.522 59.3138 188.76C60.0326 188.988 60.6576 189.306 61.1888 189.713C61.7305 190.126 62.1732 190.617 62.5221 191.184C62.8815 191.755 63.1523 192.385 63.3346 193.071H60.0221C59.8971 192.793 59.7409 192.544 59.5638 192.316C59.3815 192.077 59.168 191.874 58.918 191.7C58.668 191.531 58.3659 191.397 58.0221 191.303C57.6888 191.198 57.293 191.144 56.8346 191.144C56.2773 191.144 55.7617 191.243 55.293 191.442C54.819 191.631 54.4076 191.914 54.0638 192.296C53.7305 192.668 53.4648 193.145 53.2721 193.726C53.0898 194.297 53.0013 194.968 53.0013 195.733C53.0013 196.488 53.0898 197.158 53.2721 197.739C53.4648 198.31 53.7305 198.787 54.0638 199.17C54.4076 199.542 54.819 199.825 55.293 200.024C55.7617 200.212 56.2773 200.302 56.8346 200.302C57.293 200.302 57.6888 200.257 58.0221 200.163C58.3659 200.073 58.668 199.939 58.918 199.766C59.168 199.582 59.3815 199.378 59.5638 199.15C59.7409 198.911 59.8971 198.653 60.0221 198.375H63.3346C63.1523 199.065 62.8815 199.696 62.5221 200.262C62.1732 200.833 61.7305 201.325 61.1888 201.732C60.6576 202.144 60.0326 202.467 59.3138 202.706C58.5898 202.929 57.7617 203.043 56.8346 203.043Z" fill="#E9E2D1"/>
<path d="M70.2663 203.044C69.4173 203.044 68.6465 202.914 67.9538 202.666C67.2715 202.418 66.6882 202.06 66.2038 201.593C65.7298 201.117 65.36 200.535 65.0996 199.845C64.8496 199.145 64.7246 198.35 64.7246 197.461C64.7246 196.562 64.8496 195.768 65.0996 195.077C65.36 194.392 65.7298 193.806 66.2038 193.329C66.6882 192.852 67.2715 192.49 67.9538 192.237C68.6465 191.988 69.4173 191.859 70.2663 191.859C71.1257 191.859 71.8965 191.988 72.5788 192.237C73.2559 192.49 73.834 192.852 74.3079 193.329C74.7923 193.806 75.1621 194.392 75.4121 195.077C75.6725 195.768 75.8079 196.562 75.8079 197.461C75.8079 198.35 75.6725 199.145 75.4121 199.845C75.1621 200.535 74.7923 201.117 74.3079 201.593C73.834 202.06 73.2559 202.418 72.5788 202.666C71.8965 202.914 71.1257 203.044 70.2663 203.044ZM70.2663 200.501C70.61 200.501 70.9382 200.451 71.2454 200.342C71.5632 200.223 71.8392 200.039 72.0788 199.786C72.3132 199.537 72.4954 199.219 72.6204 198.832C72.7559 198.45 72.8288 197.993 72.8288 197.461C72.8288 196.935 72.7559 196.478 72.6204 196.091C72.4954 195.693 72.3132 195.37 72.0788 195.117C71.8392 194.869 71.5632 194.69 71.2454 194.581C70.9382 194.462 70.61 194.402 70.2663 194.402C69.9329 194.402 69.6048 194.462 69.2871 194.581C68.9642 194.69 68.6882 194.869 68.4538 195.117C68.2298 195.37 68.0475 195.693 67.9121 196.091C67.7715 196.478 67.7038 196.935 67.7038 197.461C67.7038 197.993 67.7715 198.45 67.9121 198.832C68.0475 199.219 68.2298 199.537 68.4538 199.786C68.6882 200.039 68.9642 200.223 69.2871 200.342C69.6048 200.451 69.9329 200.501 70.2663 200.501Z" fill="#E9E2D1"/>
<path d="M77.9531 188.601H80.9323V202.845H77.9531V188.601Z" fill="#E9E2D1"/>
<path d="M83.7109 188.601H86.6901V202.845H83.7109V188.601Z" fill="#E9E2D1"/>
<path d="M92.6582 203.044C92.0436 203.044 91.4915 202.964 90.9915 202.805C90.502 202.636 90.0853 202.403 89.7415 202.11C89.4082 201.807 89.1478 201.449 88.9707 201.037C88.804 200.63 88.7207 200.178 88.7207 199.686C88.7207 199.2 88.8092 198.753 88.9915 198.355C89.1686 197.948 89.4499 197.595 89.8249 197.302C90.1999 196.999 90.6478 196.761 91.179 196.587C91.7207 196.418 92.3561 196.329 93.0957 196.329H95.7624V195.832C95.7624 195.316 95.5853 194.933 95.2415 194.68C94.8926 194.432 94.4186 194.303 93.8249 194.303C93.4082 194.303 93.0436 194.397 92.7415 194.581C92.4499 194.755 92.2467 194.968 92.1374 195.216H89.1374C89.2311 194.779 89.4082 194.362 89.6582 193.965C89.9082 193.568 90.2259 193.22 90.6165 192.912C91.0176 192.594 91.4915 192.346 92.0332 192.157C92.5749 191.958 93.2103 191.859 93.9499 191.859C95.4499 191.859 96.6217 192.207 97.4707 192.892C98.3145 193.582 98.7415 194.596 98.7415 195.932V202.845H96.179L95.8665 201.633H95.7624C95.6374 201.782 95.4915 201.941 95.3249 202.11C95.1582 202.269 94.9395 202.423 94.679 202.567C94.429 202.716 94.1374 202.825 93.804 202.904C93.4707 202.994 93.0853 203.044 92.6582 203.044ZM93.4082 200.699C94.1009 200.699 94.6634 200.516 95.0957 200.143C95.5384 199.776 95.7624 199.284 95.7624 198.673V198.375H93.1999C92.6582 198.375 92.2676 198.484 92.0332 198.693C91.8092 198.906 91.6999 199.17 91.6999 199.488C91.6999 199.845 91.8301 200.138 92.0957 200.362C92.3717 200.59 92.8092 200.699 93.4082 200.699Z" fill="#E9E2D1"/>
<path d="M107.494 203.043C106.687 203.043 106.025 202.894 105.515 202.606C104.999 202.303 104.588 201.981 104.286 201.633H104.182L103.848 202.845H101.307V188.601H104.286V193.19H104.39C104.484 193.061 104.624 192.922 104.807 192.773C104.984 192.614 105.202 192.47 105.452 192.336C105.713 192.192 106.015 192.078 106.348 191.998C106.682 191.909 107.062 191.859 107.494 191.859C108.213 191.859 108.874 191.978 109.473 192.217C110.067 192.455 110.583 192.813 111.015 193.289C111.442 193.766 111.775 194.357 112.015 195.057C112.265 195.748 112.39 196.547 112.39 197.461C112.39 198.375 112.265 199.185 112.015 199.885C111.775 200.575 111.442 201.156 111.015 201.633C110.583 202.1 110.067 202.447 109.473 202.686C108.874 202.924 108.213 203.043 107.494 203.043ZM106.848 200.501C107.182 200.501 107.499 200.451 107.807 200.342C108.124 200.223 108.4 200.039 108.64 199.785C108.874 199.537 109.062 199.219 109.202 198.832C109.338 198.449 109.411 197.993 109.411 197.461C109.411 196.935 109.338 196.478 109.202 196.09C109.062 195.693 108.874 195.37 108.64 195.117C108.4 194.869 108.124 194.69 107.807 194.581C107.499 194.461 107.182 194.402 106.848 194.402C106.499 194.402 106.166 194.461 105.848 194.581C105.541 194.69 105.27 194.869 105.036 195.117C104.796 195.37 104.609 195.693 104.473 196.09C104.348 196.478 104.286 196.935 104.286 197.461C104.286 197.993 104.348 198.449 104.473 198.832C104.609 199.219 104.796 199.537 105.036 199.785C105.27 200.039 105.541 200.223 105.848 200.342C106.166 200.451 106.499 200.501 106.848 200.501Z" fill="#E9E2D1"/>
<path d="M119.424 203.044C118.576 203.044 117.805 202.914 117.112 202.666C116.43 202.418 115.846 202.06 115.362 201.593C114.888 201.117 114.518 200.535 114.258 199.845C114.008 199.145 113.883 198.35 113.883 197.461C113.883 196.562 114.008 195.768 114.258 195.077C114.518 194.392 114.888 193.806 115.362 193.329C115.846 192.852 116.43 192.49 117.112 192.237C117.805 191.988 118.576 191.859 119.424 191.859C120.284 191.859 121.055 191.988 121.737 192.237C122.414 192.49 122.992 192.852 123.466 193.329C123.951 193.806 124.32 194.392 124.57 195.077C124.831 195.768 124.966 196.562 124.966 197.461C124.966 198.35 124.831 199.145 124.57 199.845C124.32 200.535 123.951 201.117 123.466 201.593C122.992 202.06 122.414 202.418 121.737 202.666C121.055 202.914 120.284 203.044 119.424 203.044ZM119.424 200.501C119.768 200.501 120.096 200.451 120.404 200.342C120.721 200.223 120.997 200.039 121.237 199.786C121.471 199.537 121.654 199.219 121.779 198.832C121.914 198.45 121.987 197.993 121.987 197.461C121.987 196.935 121.914 196.478 121.779 196.091C121.654 195.693 121.471 195.37 121.237 195.117C120.997 194.869 120.721 194.69 120.404 194.581C120.096 194.462 119.768 194.402 119.424 194.402C119.091 194.402 118.763 194.462 118.445 194.581C118.122 194.69 117.846 194.869 117.612 195.117C117.388 195.37 117.206 195.693 117.07 196.091C116.93 196.478 116.862 196.935 116.862 197.461C116.862 197.993 116.93 198.45 117.07 198.832C117.206 199.219 117.388 199.537 117.612 199.786C117.846 200.039 118.122 200.223 118.445 200.342C118.763 200.451 119.091 200.501 119.424 200.501Z" fill="#E9E2D1"/>
<path d="M126.988 192.058H129.551L129.884 193.29H129.988C130.306 192.828 130.697 192.51 131.155 192.336C131.613 192.152 132.113 192.058 132.655 192.058H134.03V194.819H132.863C131.957 194.819 131.249 195.058 130.738 195.534C130.238 196.001 129.988 196.642 129.988 197.461V202.845H126.988V192.058Z" fill="#E9E2D1"/>
<path d="M138.938 203.044C138.323 203.044 137.771 202.964 137.271 202.805C136.781 202.636 136.365 202.403 136.021 202.11C135.688 201.807 135.427 201.449 135.25 201.037C135.083 200.63 135 200.178 135 199.686C135 199.2 135.089 198.753 135.271 198.355C135.448 197.948 135.729 197.595 136.104 197.302C136.479 196.999 136.927 196.761 137.458 196.587C138 196.418 138.635 196.329 139.375 196.329H142.042V195.832C142.042 195.316 141.865 194.933 141.521 194.68C141.172 194.432 140.698 194.303 140.104 194.303C139.688 194.303 139.323 194.397 139.021 194.581C138.729 194.755 138.526 194.968 138.417 195.216H135.417C135.51 194.779 135.688 194.362 135.938 193.965C136.188 193.568 136.505 193.22 136.896 192.912C137.297 192.594 137.771 192.346 138.313 192.157C138.854 191.958 139.49 191.859 140.229 191.859C141.729 191.859 142.901 192.207 143.75 192.892C144.594 193.582 145.021 194.596 145.021 195.932V202.845H142.458L142.146 201.633H142.042C141.917 201.782 141.771 201.941 141.604 202.11C141.438 202.269 141.219 202.423 140.958 202.567C140.708 202.716 140.417 202.825 140.083 202.904C139.75 202.994 139.365 203.044 138.938 203.044ZM139.688 200.699C140.38 200.699 140.943 200.516 141.375 200.143C141.818 199.776 142.042 199.284 142.042 198.673V198.375H139.479C138.938 198.375 138.547 198.484 138.313 198.693C138.089 198.906 137.979 199.17 137.979 199.488C137.979 199.845 138.109 200.138 138.375 200.362C138.651 200.59 139.089 200.699 139.688 200.699Z" fill="#E9E2D1"/>
<path d="M151.943 202.845C150.76 202.845 149.88 202.577 149.297 202.03C148.724 201.489 148.443 200.709 148.443 199.686V194.7H146.609V192.058H148.443L148.859 189.217H151.422V192.058H154.089V194.7H151.422V199.19C151.422 199.498 151.516 199.741 151.714 199.925C151.906 200.113 152.161 200.203 152.484 200.203H154.089V202.845H151.943Z" fill="#E9E2D1"/>
<path d="M156.206 192.058H159.206V202.845H156.206V192.058ZM157.706 190.945C157.217 190.945 156.811 190.796 156.477 190.488C156.154 190.17 155.998 189.783 155.998 189.316C155.998 188.854 156.154 188.472 156.477 188.164C156.811 187.846 157.217 187.687 157.706 187.687C158.191 187.687 158.592 187.846 158.915 188.164C159.248 188.472 159.415 188.854 159.415 189.316C159.415 189.783 159.248 190.17 158.915 190.488C158.592 190.796 158.191 190.945 157.706 190.945Z" fill="#E9E2D1"/>
<path d="M166.772 203.044C165.923 203.044 165.152 202.914 164.46 202.666C163.777 202.418 163.194 202.06 162.71 201.593C162.236 201.117 161.866 200.535 161.605 199.845C161.355 199.145 161.23 198.35 161.23 197.461C161.23 196.562 161.355 195.768 161.605 195.077C161.866 194.392 162.236 193.806 162.71 193.329C163.194 192.852 163.777 192.49 164.46 192.237C165.152 191.988 165.923 191.859 166.772 191.859C167.632 191.859 168.402 191.988 169.085 192.237C169.762 192.49 170.34 192.852 170.814 193.329C171.298 193.806 171.668 194.392 171.918 195.077C172.178 195.768 172.314 196.562 172.314 197.461C172.314 198.35 172.178 199.145 171.918 199.845C171.668 200.535 171.298 201.117 170.814 201.593C170.34 202.06 169.762 202.418 169.085 202.666C168.402 202.914 167.632 203.044 166.772 203.044ZM166.772 200.501C167.116 200.501 167.444 200.451 167.751 200.342C168.069 200.223 168.345 200.039 168.585 199.786C168.819 199.537 169.001 199.219 169.126 198.832C169.262 198.45 169.335 197.993 169.335 197.461C169.335 196.935 169.262 196.478 169.126 196.091C169.001 195.693 168.819 195.37 168.585 195.117C168.345 194.869 168.069 194.69 167.751 194.581C167.444 194.462 167.116 194.402 166.772 194.402C166.439 194.402 166.111 194.462 165.793 194.581C165.47 194.69 165.194 194.869 164.96 195.117C164.736 195.37 164.553 195.693 164.418 196.091C164.277 196.478 164.21 196.935 164.21 197.461C164.21 197.993 164.277 198.45 164.418 198.832C164.553 199.219 164.736 199.537 164.96 199.786C165.194 200.039 165.47 200.223 165.793 200.342C166.111 200.451 166.439 200.501 166.772 200.501Z" fill="#E9E2D1"/>
<path d="M174.336 192.058H176.898L177.232 193.289H177.336C177.695 192.828 178.133 192.475 178.648 192.237C179.159 191.988 179.716 191.859 180.315 191.859C180.924 191.859 181.487 191.958 182.003 192.157C182.513 192.356 182.951 192.649 183.315 193.031C183.674 193.404 183.961 193.861 184.169 194.402C184.378 194.933 184.482 195.544 184.482 196.23V202.845H181.482V196.647C181.482 195.922 181.299 195.365 180.94 194.978C180.591 194.596 180.096 194.402 179.461 194.402C178.82 194.402 178.305 194.615 177.919 195.038C177.529 195.45 177.336 195.986 177.336 196.647V202.845H174.336V192.058Z" fill="#E9E2D1"/>
<path d="M191.085 203.044C190.262 203.044 189.554 202.949 188.96 202.765C188.361 202.582 187.861 202.323 187.46 201.991C187.054 201.663 186.742 201.285 186.523 200.858C186.314 200.436 186.158 199.979 186.064 199.488H189.273C189.325 199.741 189.507 199.974 189.814 200.183C190.117 200.396 190.544 200.501 191.085 200.501C191.82 200.501 192.32 200.421 192.585 200.262C192.861 200.093 193.002 199.9 193.002 199.686C193.002 199.423 192.84 199.229 192.523 199.11C192.2 198.981 191.799 198.867 191.314 198.772C190.84 198.683 190.32 198.584 189.752 198.474C189.195 198.37 188.674 198.191 188.189 197.938C187.7 197.69 187.299 197.342 186.981 196.905C186.658 196.458 186.502 195.862 186.502 195.117C186.502 194.655 186.596 194.233 186.794 193.846C187.002 193.448 187.294 193.106 187.669 192.813C188.054 192.525 188.533 192.291 189.106 192.117C189.674 191.949 190.335 191.859 191.085 191.859C191.877 191.859 192.564 191.953 193.148 192.137C193.731 192.311 194.215 192.549 194.606 192.852C195.007 193.16 195.314 193.518 195.523 193.925C195.742 194.322 195.903 194.755 196.002 195.216H192.794C192.736 195.018 192.585 194.834 192.335 194.66C192.096 194.491 191.679 194.402 191.085 194.402C190.596 194.402 190.221 194.476 189.96 194.62C189.71 194.755 189.585 194.918 189.585 195.117C189.585 195.385 189.742 195.584 190.064 195.713C190.398 195.832 190.799 195.942 191.273 196.031C191.757 196.125 192.278 196.23 192.835 196.349C193.403 196.458 193.929 196.637 194.419 196.885C194.903 197.124 195.304 197.471 195.627 197.918C195.945 198.355 196.106 198.946 196.106 199.686C196.106 200.123 196.023 200.54 195.856 200.938C195.689 201.335 195.408 201.693 195.023 202.01C194.648 202.328 194.132 202.582 193.481 202.765C192.84 202.949 192.044 203.044 191.085 203.044Z" fill="#E9E2D1"/>
</svg>
