<svg width="248" height="177" viewBox="0 0 248 177" fill="none" xmlns="http://www.w3.org/2000/svg">
<mask id="mask0_656_234" style="mask-type:luminance" maskUnits="userSpaceOnUse" x="61" y="0" width="125" height="125">
<path d="M61 0H186V125H61V0Z" fill="white"/>
</mask>
<g mask="url(#mask0_656_234)">
<path d="M129.464 49.9991C130.314 49.5809 131.143 49.1177 131.946 48.6006C132.749 48.088 133.522 47.5259 134.261 46.9188C135.005 46.3117 135.714 45.6642 136.385 44.9717C137.06 44.2837 137.692 43.5553 138.286 42.7863C138.879 42.0219 139.43 41.2215 139.939 40.3941C140.447 39.5622 140.913 38.7033 141.327 37.8174C141.742 36.9316 142.109 36.0232 142.429 35.0924C142.75 34.1661 143.015 33.2218 143.233 32.2595C143.45 31.2972 143.617 30.3259 143.728 29.3456C143.843 28.3653 143.903 27.3805 143.908 26.3913C143.916 25.4065 143.869 24.4217 143.771 23.4369C143.673 22.4566 143.523 21.4808 143.318 20.5185C143.113 19.5517 142.861 18.6029 142.553 17.6676C142.25 16.7323 141.895 15.8194 141.49 14.9291C141.088 14.0342 140.639 13.1709 140.14 12.33C139.644 11.4936 139.106 10.6842 138.521 9.91075C137.94 9.13731 137.316 8.39985 136.654 7.69836C135.992 6.99687 135.291 6.33585 134.556 5.7153C133.826 5.09925 133.061 4.52367 132.266 3.99756C131.472 3.47144 130.647 2.99029 129.801 2.5586C128.955 2.13141 128.088 1.74919 127.2 1.42093C126.315 1.09717 125.41 0.822866 124.495 0.598031C123.577 0.377691 122.654 0.211312 121.719 0.10339C120.783 -0.00902755 119.843 -0.0629883 118.903 -0.0629883C117.964 -0.0629883 117.028 -0.00902755 116.092 0.10339C115.157 0.211312 114.23 0.377691 113.316 0.598031C112.397 0.822866 111.496 1.09717 110.607 1.42093C109.719 1.74919 108.856 2.13141 108.005 2.5586C107.16 2.99029 106.339 3.47144 105.545 3.99756C104.75 4.52367 103.986 5.09925 103.251 5.7153C102.516 6.33585 101.82 6.99687 101.157 7.69836C100.495 8.39985 99.8716 9.13731 99.2863 9.91075C98.7053 10.6842 98.1628 11.4936 97.6672 12.33C97.1716 13.1709 96.7231 14.0342 96.3172 14.9291C95.9157 15.8194 95.5611 16.7323 95.2535 17.6676C94.9502 18.6029 94.6939 19.5517 94.4931 20.5185C94.288 21.4808 94.1385 22.4566 94.036 23.4369C93.9377 24.4217 93.895 25.4065 93.8993 26.3913C93.9078 27.3805 93.9676 28.3653 94.0787 29.3456C94.194 30.3259 94.3564 31.2972 94.5743 32.2595C94.7921 33.2218 95.0613 34.1661 95.3774 35.0924C95.6978 36.0232 96.0652 36.9316 96.4839 37.8174C96.8982 38.7033 97.3596 39.5622 97.868 40.3941C98.3764 41.2215 98.9274 42.0219 99.5255 42.7863C100.119 43.5553 100.752 44.2837 101.422 44.9717C102.097 45.6642 102.802 46.3117 103.546 46.9188C104.289 47.5259 105.062 48.088 105.865 48.6006C106.668 49.1177 107.493 49.5809 108.347 49.9991C104.374 51.2851 100.717 53.2277 97.381 55.8358C94.0872 54.235 90.6269 53.4346 86.9957 53.4391C85.7483 53.4391 84.5094 53.5335 83.2748 53.7313C82.0401 53.9247 80.8269 54.2125 79.635 54.5992C78.4388 54.9859 77.2811 55.4581 76.1576 56.0292C75.034 56.5958 73.9532 57.2478 72.9194 57.9853C71.8898 58.7227 70.9158 59.5366 69.9973 60.4225C69.0831 61.3128 68.2372 62.2706 67.4555 63.2959C66.678 64.3166 65.9731 65.3959 65.3494 66.529C64.7214 67.6667 64.1788 68.8403 63.7217 70.059C63.2646 71.2776 62.8929 72.5277 62.6153 73.8047C62.3333 75.0818 62.1453 76.3724 62.0514 77.6809C61.9531 78.9895 61.9531 80.2935 62.0428 81.6021C62.1325 82.9106 62.3162 84.2012 62.5896 85.4782C62.863 86.7598 63.2304 88.0099 63.6833 89.2285C64.1361 90.4516 64.6701 91.6298 65.2938 92.7674C65.9133 93.9051 66.6139 94.9843 67.3871 96.0141C68.1603 97.0393 69.0062 98.0016 69.9204 98.8965V122.851C69.9204 123.219 70.0101 123.566 70.1896 123.885C70.3647 124.2 70.6082 124.451 70.9115 124.631C71.2148 124.843 71.5438 124.946 71.9069 124.942C72.2529 124.937 72.5733 124.847 72.8724 124.663L86.9957 116.339L101.123 124.663C101.422 124.852 101.743 124.942 102.089 124.942C102.448 124.942 102.781 124.843 103.084 124.631C103.383 124.451 103.622 124.2 103.798 123.88C103.968 123.561 104.054 123.219 104.05 122.851V98.8965C104.729 98.2265 105.374 97.5205 105.981 96.7785C106.587 96.0321 107.151 95.2541 107.677 94.4447C108.198 93.6353 108.676 92.7989 109.112 91.931C109.548 91.0632 109.932 90.1728 110.274 89.26C110.611 88.3516 110.902 87.4208 111.141 86.4765C111.385 85.5277 111.573 84.5699 111.709 83.6031C111.846 82.6318 111.936 81.6605 111.97 80.6802C112.004 79.7044 111.987 78.7242 111.914 77.7484C111.846 76.7726 111.722 75.8013 111.551 74.839C111.376 73.8767 111.154 72.9279 110.876 71.9926C110.603 71.0572 110.278 70.1399 109.907 69.2451C109.535 68.3457 109.116 67.4733 108.651 66.6235C108.185 65.7736 107.677 64.9552 107.125 64.1682C106.57 63.3768 105.976 62.6259 105.344 61.9064C104.712 61.1869 104.041 60.5079 103.336 59.8694C102.631 59.2263 101.892 58.6283 101.123 58.0752C103.751 56.2495 106.57 54.86 109.59 53.9112C112.611 52.9669 115.695 52.4992 118.848 52.5172C119.86 52.5172 120.873 52.5667 121.881 52.6611C122.893 52.7601 123.897 52.9084 124.893 53.1108C125.888 53.3087 126.875 53.556 127.849 53.8528C128.823 54.145 129.784 54.4913 130.728 54.8825C131.672 55.2737 132.595 55.7099 133.497 56.1956C134.402 56.6767 135.282 57.2028 136.141 57.7739C136.995 58.345 137.824 58.9565 138.627 59.6131C139.426 60.2651 140.199 60.9576 140.939 61.6861C141.678 62.4145 142.382 63.179 143.053 63.9794C143.724 64.7798 144.356 65.6117 144.95 66.4751C145.544 67.3384 146.099 68.2288 146.616 69.1461C147.133 70.0635 147.603 71.0033 148.034 71.9701C148.466 72.9324 148.85 73.9172 149.192 74.9199C149.534 75.9227 149.833 76.939 150.081 77.9732C150.333 79.0074 150.533 80.0507 150.692 81.1029C150.845 82.1552 150.956 83.2119 151.016 84.2776H122.24C121.975 84.2776 121.723 84.3271 121.479 84.435C121.236 84.5384 121.018 84.6913 120.834 84.8892C120.646 85.0825 120.501 85.3074 120.403 85.5637C120.3 85.82 120.249 86.0853 120.249 86.3641C120.249 86.6429 120.3 86.9082 120.403 87.1645C120.501 87.4208 120.646 87.6457 120.834 87.839C121.018 88.0369 121.236 88.1898 121.479 88.2932C121.723 88.4011 121.975 88.4506 122.24 88.4506H153.122C153.383 88.4506 153.635 88.3921 153.878 88.2842C154.122 88.1763 154.336 88.0279 154.519 87.83C154.707 87.6367 154.848 87.4118 154.951 87.16C155.053 86.9037 155.105 86.6384 155.109 86.3641C155.109 84.3406 154.951 82.3305 154.643 80.334C154.336 78.3374 153.883 76.3769 153.276 74.4568C152.669 72.5367 151.926 70.675 151.038 68.8808C150.149 67.0821 149.132 65.3734 147.987 63.7456C146.838 62.1222 145.578 60.6023 144.202 59.1859C142.822 57.7739 141.349 56.4788 139.777 55.3142C138.2 54.145 136.551 53.1153 134.821 52.2249C133.091 51.3346 131.305 50.5926 129.464 49.9991ZM97.8765 26.2564C97.8765 25.5369 97.9107 24.8129 97.9791 24.0934C98.0474 23.3739 98.1457 22.659 98.2824 21.9485C98.4148 21.2425 98.5814 20.541 98.7822 19.8485C98.983 19.156 99.2137 18.477 99.4785 17.807C99.7391 17.137 100.034 16.485 100.359 15.8464C100.683 15.2124 101.038 14.5918 101.422 13.9893C101.803 13.3867 102.213 12.8066 102.648 12.249C103.088 11.6915 103.55 11.1563 104.037 10.6437C104.524 10.1311 105.032 9.64544 105.566 9.18678C106.096 8.72811 106.651 8.30092 107.224 7.89622C107.796 7.49601 108.386 7.12278 108.992 6.78103C109.599 6.44378 110.223 6.1335 110.859 5.8547C111.496 5.5804 112.141 5.33758 112.799 5.12623C113.461 4.91489 114.127 4.73952 114.802 4.60012C115.477 4.46072 116.157 4.3528 116.844 4.28085C117.528 4.2089 118.216 4.17742 118.903 4.17742C119.591 4.17742 120.279 4.2089 120.967 4.28085C121.65 4.3528 122.33 4.46072 123.009 4.60012C123.684 4.73952 124.35 4.91489 125.008 5.12623C125.666 5.33758 126.315 5.5804 126.952 5.8547C127.588 6.1335 128.208 6.44378 128.819 6.78103C129.425 7.12278 130.015 7.49601 130.587 7.89622C131.16 8.30092 131.711 8.72811 132.245 9.18678C132.775 9.64544 133.287 10.1311 133.774 10.6437C134.261 11.1563 134.723 11.6915 135.158 12.249C135.594 12.8066 136.004 13.3867 136.389 13.9893C136.769 14.5918 137.124 15.2124 137.448 15.8464C137.773 16.485 138.068 17.137 138.333 17.807C138.593 18.477 138.828 19.156 139.025 19.8485C139.225 20.541 139.392 21.2425 139.529 21.9485C139.661 22.659 139.764 23.3739 139.832 24.0934C139.896 24.8129 139.93 25.5369 139.93 26.2564C139.93 26.9803 139.896 27.7043 139.832 28.4238C139.764 29.1432 139.661 29.8582 139.529 30.5642C139.392 31.2747 139.225 31.9762 139.025 32.6687C138.828 33.3612 138.593 34.0402 138.333 34.7102C138.068 35.3757 137.773 36.0322 137.448 36.6663C137.124 37.3048 136.769 37.9254 136.389 38.5279C136.004 39.126 135.594 39.7061 135.158 40.2681C134.723 40.8257 134.261 41.3609 133.774 41.8735C133.287 42.3861 132.775 42.8718 132.245 43.3304C131.711 43.7891 131.16 44.2163 130.587 44.621C130.015 45.0212 129.425 45.3944 128.819 45.7317C128.208 46.0734 127.588 46.3837 126.952 46.658C126.315 46.9368 125.666 47.1796 125.008 47.391C124.35 47.5978 123.684 47.7777 123.009 47.9171C122.33 48.0565 121.65 48.1644 120.967 48.2363C120.279 48.3038 119.591 48.3398 118.903 48.3398C118.216 48.3398 117.528 48.3038 116.844 48.2319C116.161 48.1599 115.477 48.052 114.802 47.9126C114.127 47.7687 113.461 47.5933 112.803 47.382C112.145 47.1706 111.5 46.9278 110.863 46.6535C110.227 46.3747 109.603 46.0644 108.997 45.7227C108.39 45.3854 107.8 45.0122 107.228 44.612C106.656 44.2073 106.104 43.7756 105.575 43.3169C105.041 42.8583 104.532 42.3771 104.045 41.8645C103.558 41.3519 103.097 40.8167 102.657 40.2592C102.221 39.7016 101.811 39.1215 101.431 38.5189C101.046 37.9164 100.692 37.3003 100.367 36.6618C100.042 36.0232 99.7477 35.3712 99.4871 34.7057C99.2222 34.0357 98.9915 33.3567 98.7907 32.6642C98.59 31.9717 98.4191 31.2747 98.2866 30.5642C98.1499 29.8537 98.0474 29.1432 97.9791 28.4238C97.9107 27.7043 97.8765 26.9803 97.8765 26.2564ZM99.9826 119.226L87.9612 112.103C87.6664 111.919 87.3417 111.829 86.9957 111.825C86.6497 111.82 86.3293 111.914 86.0345 112.103L73.8977 119.226V102.089L74.453 102.426L75.3288 102.948L76.9949 103.811L77.9006 104.176L79.0156 104.607L79.9212 104.913C80.5364 105.097 81.1473 105.282 81.7625 105.408H82.4075L84.0736 105.682H84.7443C85.5048 105.682 86.2395 105.682 86.9957 105.682C87.7561 105.682 88.4909 105.682 89.2214 105.682H89.8921C90.4646 105.624 91.0285 105.529 91.5881 105.408H92.2033C92.8185 105.408 93.4336 105.097 94.0445 104.913L94.9801 104.607L96.0951 104.176L96.9709 103.811L98.6669 102.948L99.4871 102.458L100.098 102.089L99.9826 119.226ZM99.0172 97.7588L97.9363 98.5277L97.381 98.865L96.2702 99.508L95.6551 99.8183L94.5144 100.308L93.8395 100.583C93.4593 100.583 93.079 100.862 92.6988 100.951L91.8829 101.199L90.9473 101.352H89.8622C89.5717 101.383 89.277 101.383 88.9865 101.352C88.3243 101.401 87.6621 101.401 86.9957 101.352C86.325 101.397 85.6543 101.397 84.9793 101.352C84.6888 101.383 84.394 101.383 84.1035 101.352H83.0483L81.9675 101.077L81.1772 100.862L80.0067 100.493L79.5111 100.308L78.3406 99.7868L77.7852 99.508L76.5848 98.865L76.0892 98.5277L74.9486 97.7588L74.5086 97.3901C74.1284 97.1158 73.7781 96.8055 73.4278 96.4997C72.8852 96.0141 72.364 95.5014 71.8727 94.9573C71.3772 94.4177 70.9115 93.8511 70.4715 93.2576C70.0315 92.6685 69.6257 92.0524 69.2454 91.4184C68.8652 90.7844 68.5149 90.1323 68.1988 89.4578C67.8827 88.7878 67.6007 88.0998 67.3487 87.3938C67.1009 86.6923 66.883 85.9819 66.7036 85.2534C66.5199 84.5294 66.3746 83.7965 66.2678 83.0545C66.1568 82.3125 66.0841 81.5706 66.0457 80.8196C66.0073 80.0732 66.003 79.3222 66.0372 78.5713C66.0713 77.8248 66.144 77.0783 66.2508 76.3364C66.3576 75.5944 66.4985 74.8615 66.678 74.1375C66.8531 73.409 67.0667 72.694 67.3145 71.9926C67.558 71.2866 67.8399 70.5986 68.1518 69.9241C68.4679 69.2496 68.8097 68.593 69.1856 67.959C69.5658 67.3205 69.9717 66.7044 70.4074 66.1108C70.8432 65.5173 71.3088 64.9507 71.8001 64.4066C72.2914 63.8625 72.804 63.3453 73.3466 62.8552C73.8891 62.3651 74.453 61.9064 75.0383 61.4792C75.6236 61.0475 76.2302 60.6518 76.8539 60.2876C77.4776 59.9233 78.1142 59.5951 78.7721 59.2983C79.4299 59.0015 80.0964 58.7407 80.7799 58.5159C81.4592 58.291 82.1512 58.1022 82.8476 57.9538C83.5482 57.8009 84.2531 57.6885 84.9622 57.612C85.6756 57.5356 86.3848 57.4951 87.0982 57.4951C87.8159 57.4951 88.5251 57.5356 89.2385 57.612C89.9477 57.6885 90.6525 57.8009 91.3532 57.9538C92.0495 58.1022 92.7416 58.291 93.4208 58.5159C94.1043 58.7407 94.7708 59.0015 95.4287 59.2983C96.0823 59.5951 96.7231 59.9233 97.3468 60.2876C97.9705 60.6518 98.5771 61.0475 99.1624 61.4792C99.7477 61.9064 100.312 62.3651 100.854 62.8552C101.392 63.3453 101.909 63.8625 102.401 64.4066C102.892 64.9507 103.358 65.5173 103.793 66.1108C104.229 66.7044 104.635 67.3205 105.011 67.959C105.391 68.593 105.733 69.2496 106.049 69.9241C106.361 70.5986 106.643 71.2866 106.886 71.9926C107.134 72.694 107.348 73.409 107.523 74.1375C107.702 74.8615 107.843 75.5944 107.95 76.3364C108.057 77.0783 108.125 77.8248 108.164 78.5713C108.198 79.3222 108.193 80.0732 108.155 80.8196C108.117 81.5706 108.044 82.3125 107.933 83.0545C107.826 83.7965 107.677 84.5294 107.497 85.2534C107.318 85.9819 107.1 86.6923 106.852 87.3938C106.6 88.0998 106.318 88.7878 106.002 89.4578C105.686 90.1323 105.335 90.7844 104.955 91.4184C104.575 92.0524 104.169 92.6685 103.729 93.2576C103.289 93.8511 102.824 94.4177 102.328 94.9573C101.837 95.5014 101.316 96.0141 100.773 96.4997L99.7477 97.3901L99.0172 97.7588Z" fill="#E9E2D1"/>
</g>
<path d="M88.3625 62.0323C87.333 62.0323 86.312 62.1403 85.2995 62.3471C84.287 62.5585 83.3045 62.8732 82.3518 63.2869C81.3991 63.7006 80.4935 64.2088 79.6348 64.8068C78.7761 65.4094 77.9815 66.0929 77.251 66.8573C76.5248 67.6218 75.8711 68.4537 75.2944 69.3575C74.722 70.2569 74.235 71.2057 73.8419 72.2039C73.4446 73.2067 73.1413 74.2365 72.9405 75.2977C72.7355 76.3589 72.6329 77.4336 72.6329 78.5173C72.6287 79.6011 72.7269 80.6713 72.9234 81.737C73.1242 82.7982 73.419 83.8325 73.812 84.8308C74.2008 85.8335 74.6835 86.7868 75.2517 87.6907C75.8241 88.5945 76.4735 89.4264 77.1997 90.1953C77.926 90.9643 78.7163 91.6523 79.5707 92.2593C80.4251 92.8619 81.3308 93.3745 82.2792 93.7927C83.2318 94.2154 84.2144 94.5302 85.2226 94.746C86.2351 94.9619 87.2561 95.0743 88.2856 95.0788C89.3195 95.0833 90.3405 94.9844 91.3529 94.7775C92.3654 94.5752 93.348 94.2649 94.3049 93.8557C95.2618 93.4465 96.1675 92.9473 97.0305 92.3493C97.8891 91.7512 98.688 91.0722 99.4228 90.3123C100.158 89.5523 100.811 88.7204 101.392 87.8256C101.969 86.9307 102.46 85.9819 102.862 84.9836C103.263 83.9854 103.567 82.9556 103.776 81.8944C103.981 80.8332 104.092 79.7629 104.101 78.6792C104.105 77.591 104.011 76.5073 103.814 75.4371C103.622 74.3669 103.327 73.3281 102.934 72.3164C102.541 71.3091 102.059 70.3513 101.486 69.4385C100.914 68.5301 100.264 67.6892 99.5339 66.9158C98.7991 66.1424 98.0045 65.4499 97.1415 64.8428C96.2829 64.2357 95.3729 63.7231 94.4117 63.3004C93.4548 62.8822 92.4679 62.5675 91.4469 62.3516C90.4302 62.1403 89.4006 62.0323 88.3625 62.0323ZM76.5803 78.6792C76.5803 77.8743 76.6529 77.0739 76.8024 76.2825C76.952 75.4911 77.1741 74.7221 77.4689 73.9757C77.7636 73.2337 78.1225 72.5232 78.5497 71.8532C78.9769 71.1832 79.4639 70.5626 80.0065 69.9916C80.549 69.4205 81.1385 68.9123 81.7793 68.4627C82.4159 68.0175 83.0909 67.6398 83.8 67.3295C84.5092 67.0192 85.2397 66.7854 85.9958 66.628C86.7477 66.4706 87.5081 66.3942 88.2771 66.3942C89.0461 66.3942 89.8065 66.4706 90.5583 66.628C91.3145 66.7854 92.045 67.0192 92.7542 67.3295C93.4633 67.6398 94.1383 68.0175 94.7748 68.4627C95.4156 68.9123 96.0052 69.4205 96.5477 69.9916C97.0903 70.5626 97.5773 71.1832 98.0045 71.8532C98.4317 72.5232 98.7905 73.2337 99.0853 73.9757C99.3801 74.7221 99.6022 75.4911 99.7517 76.2825C99.9013 77.0739 99.9739 77.8743 99.9739 78.6792C99.9739 79.4841 99.9013 80.2846 99.7517 81.076C99.6022 81.8674 99.3801 82.6363 99.0853 83.3828C98.7905 84.1248 98.4317 84.8352 98.0045 85.5053C97.5773 86.1753 97.0903 86.7958 96.5477 87.3669C96.0052 87.938 95.4156 88.4461 94.7748 88.8958C94.1383 89.341 93.4633 89.7187 92.7542 90.029C92.045 90.3392 91.3145 90.5731 90.5583 90.7305C89.8065 90.8878 89.0461 90.9643 88.2771 90.9643C87.5081 90.9643 86.7477 90.8878 85.9958 90.7305C85.2397 90.5731 84.5092 90.3392 83.8 90.029C83.0909 89.7187 82.4159 89.341 81.7793 88.8958C81.1385 88.4461 80.549 87.938 80.0065 87.3669C79.4639 86.7958 78.9769 86.1753 78.5497 85.5053C78.1225 84.8352 77.7636 84.1248 77.4689 83.3828C77.1741 82.6363 76.952 81.8674 76.8024 81.076C76.6529 80.2846 76.5803 79.4841 76.5803 78.6792Z" fill="#E9E2D1"/>
<path d="M93.1904 71.952C92.8828 71.7677 92.5496 71.6777 92.195 71.6777C91.8447 71.6867 91.5115 71.7812 91.2082 71.9655C90.9006 72.1544 90.6571 72.4017 90.4691 72.721L88.2477 76.8355C87.8589 76.3723 87.3719 76.1475 86.7867 76.161C86.6158 76.1655 86.4492 76.1924 86.2868 76.2374C86.1245 76.2869 85.9707 76.3588 85.8212 76.4488C85.6759 76.5387 85.5435 76.6511 85.4239 76.777C85.3085 76.9029 85.206 77.0423 85.1206 77.1997C85.0394 77.3526 84.9753 77.519 84.9283 77.6899C84.8856 77.8607 84.8643 78.0361 84.8643 78.216C84.8643 78.3913 84.8856 78.5667 84.9283 78.7421C84.9711 78.913 85.0351 79.0748 85.1206 79.2322L86.697 81.8134C86.8807 82.1101 87.1199 82.3395 87.4147 82.5103C87.7137 82.6812 88.0298 82.7622 88.363 82.7622C88.7176 82.7712 89.0508 82.6857 89.3584 82.5014C89.666 82.3215 89.9095 82.0697 90.0889 81.7504L93.9209 74.7175C94.0363 74.4792 94.1089 74.2319 94.1345 73.9666C94.1602 73.7013 94.1388 73.4405 94.0705 73.1841C94.0021 72.9278 93.891 72.694 93.7415 72.4826C93.5877 72.2713 93.404 72.0914 93.1904 71.952Z" fill="#E9E2D1"/>
<path d="M0 156H2.80272V168.581H8.81116V171.579H0V156Z" fill="#E9E2D1"/>
<path d="M14.7155 171.797C13.969 171.797 13.2912 171.655 12.6821 171.384C12.0822 171.112 11.5693 170.721 11.1434 170.21C10.7266 169.689 10.4015 169.053 10.1725 168.298C9.95268 167.532 9.84277 166.663 9.84277 165.691C9.84277 164.707 9.95268 163.838 10.1725 163.083C10.4015 162.334 10.7266 161.693 11.1434 161.171C11.5693 160.65 12.0822 160.253 12.6821 159.976C13.2912 159.704 13.969 159.563 14.7155 159.563C15.4711 159.563 16.1489 159.704 16.7488 159.976C17.3442 160.253 17.8525 160.65 18.2693 161.171C18.6952 161.693 19.0203 162.334 19.2401 163.083C19.4691 163.838 19.5882 164.707 19.5882 165.691C19.5882 166.663 19.4691 167.532 19.2401 168.298C19.0203 169.053 18.6952 169.689 18.2693 170.21C17.8525 170.721 17.3442 171.112 16.7488 171.384C16.1489 171.655 15.4711 171.797 14.7155 171.797ZM14.7155 169.015C15.0177 169.015 15.3062 168.961 15.5764 168.841C15.8558 168.711 16.0985 168.51 16.3092 168.233C16.5153 167.961 16.6755 167.614 16.7855 167.19C16.9045 166.772 16.9686 166.272 16.9686 165.691C16.9686 165.115 16.9045 164.615 16.7855 164.191C16.6755 163.757 16.5153 163.404 16.3092 163.127C16.0985 162.855 15.8558 162.66 15.5764 162.54C15.3062 162.41 15.0177 162.344 14.7155 162.344C14.4224 162.344 14.1339 162.41 13.8545 162.54C13.5706 162.66 13.3279 162.855 13.1218 163.127C12.9248 163.404 12.7646 163.757 12.6455 164.191C12.5218 164.615 12.4623 165.115 12.4623 165.691C12.4623 166.272 12.5218 166.772 12.6455 167.19C12.7646 167.614 12.9248 167.961 13.1218 168.233C13.3279 168.51 13.5706 168.711 13.8545 168.841C14.1339 168.961 14.4224 169.015 14.7155 169.015Z" fill="#E9E2D1"/>
<path d="M25.779 171.797C25.0325 171.797 24.3547 171.655 23.7456 171.384C23.1457 171.112 22.6328 170.721 22.2069 170.21C21.7901 169.689 21.465 169.053 21.236 168.298C21.0162 167.532 20.9062 166.663 20.9062 165.691C20.9062 164.707 21.0162 163.838 21.236 163.083C21.465 162.334 21.7901 161.693 22.2069 161.171C22.6328 160.65 23.1457 160.253 23.7456 159.976C24.3547 159.704 25.0325 159.563 25.779 159.563C26.4751 159.563 27.0841 159.683 27.6108 159.911C28.1329 160.144 28.5817 160.454 28.948 160.845C29.3236 161.236 29.6304 161.693 29.864 162.214C30.0929 162.725 30.267 163.252 30.3769 163.8H27.7573C27.5604 163.355 27.3085 162.996 27.0063 162.736C26.7132 162.475 26.301 162.344 25.779 162.344C25.1195 162.344 24.5745 162.627 24.1486 163.192C23.7319 163.746 23.5258 164.577 23.5258 165.691C23.5258 166.793 23.7319 167.625 24.1486 168.19C24.5745 168.744 25.1195 169.015 25.779 169.015C26.301 169.015 26.7132 168.885 27.0063 168.624C27.3085 168.363 27.5604 168.016 27.7573 167.581H30.3769C30.267 168.146 30.0929 168.684 29.864 169.189C29.6304 169.683 29.3236 170.123 28.948 170.515C28.5817 170.906 28.1329 171.221 27.6108 171.449C27.0841 171.677 26.4751 171.797 25.779 171.797Z" fill="#E9E2D1"/>
<path d="M34.9661 171.797C34.4257 171.797 33.9403 171.71 33.5006 171.536C33.0701 171.351 32.7038 171.096 32.4015 170.775C32.1084 170.444 31.8794 170.053 31.7237 169.602C31.5772 169.157 31.5039 168.662 31.5039 168.124C31.5039 167.592 31.5818 167.103 31.742 166.669C31.8978 166.223 32.1451 165.837 32.4748 165.517C32.8045 165.186 33.1984 164.925 33.6655 164.735C34.1418 164.55 34.7005 164.452 35.3508 164.452H37.6955V163.909C37.6955 163.344 37.5398 162.926 37.2376 162.649C36.9307 162.377 36.514 162.236 35.9919 162.236C35.6256 162.236 35.305 162.339 35.0394 162.54C34.7829 162.73 34.6043 162.964 34.5081 163.235H31.8703C31.9527 162.757 32.1084 162.301 32.3282 161.866C32.5481 161.432 32.8274 161.052 33.1709 160.715C33.5235 160.367 33.9403 160.095 34.4165 159.889C34.8928 159.672 35.4515 159.563 36.1018 159.563C37.4208 159.563 38.4512 159.943 39.1976 160.693C39.9395 161.448 40.3151 162.556 40.3151 164.018V171.579H38.0619L37.7871 170.254H37.6955C37.5856 170.417 37.4574 170.591 37.3108 170.775C37.1643 170.949 36.972 171.118 36.743 171.275C36.5232 171.438 36.2667 171.558 35.9736 171.645C35.6805 171.742 35.3416 171.797 34.9661 171.797ZM35.6256 169.233C36.2346 169.233 36.7292 169.032 37.1093 168.624C37.4986 168.222 37.6955 167.684 37.6955 167.016V166.69H35.4424C34.9661 166.69 34.6226 166.81 34.4165 167.038C34.2196 167.272 34.1234 167.559 34.1234 167.907C34.1234 168.298 34.2379 168.619 34.4715 168.863C34.7142 169.113 35.0989 169.233 35.6256 169.233Z" fill="#E9E2D1"/>
<path d="M42.5713 156H45.1908V171.579H42.5713V156Z" fill="#E9E2D1"/>
<path d="M56.526 171.797C55.8024 171.797 55.1338 171.693 54.5109 171.492C53.8881 171.291 53.3386 170.987 52.8623 170.58C52.3952 170.162 52.0196 169.645 51.7265 169.037C51.4426 168.418 51.2686 167.706 51.1953 166.908H53.998C54.0942 167.532 54.3644 168.027 54.804 168.385C55.2437 168.733 55.8161 168.907 56.526 168.907C57.4144 168.907 58.0464 168.733 58.4128 168.385C58.7883 168.037 58.9806 167.581 58.9806 167.016C58.9806 166.625 58.8707 166.321 58.6509 166.104C58.4403 165.875 58.1655 165.685 57.8266 165.539C57.4831 165.397 57.0938 165.278 56.6542 165.191C56.2237 165.093 55.7795 164.985 55.317 164.865C54.8498 164.735 54.401 164.577 53.9614 164.387C53.5218 164.186 53.1279 163.92 52.789 163.583C52.4593 163.252 52.1845 162.822 51.9647 162.301C51.754 161.779 51.6533 161.128 51.6533 160.345C51.6533 159.596 51.7723 158.933 52.0196 158.368C52.2761 157.803 52.6241 157.336 53.0638 156.956C53.5126 156.564 54.0347 156.277 54.6209 156.086C55.2162 155.885 55.8528 155.782 56.526 155.782C57.332 155.782 58.0327 155.902 58.6326 156.13C59.2279 156.363 59.7363 156.689 60.153 157.108C60.5652 157.515 60.8903 157.999 61.1239 158.564C61.3666 159.118 61.5269 159.71 61.6002 160.345H58.7791C58.6784 159.84 58.4494 159.433 58.083 159.129C57.7258 158.824 57.245 158.672 56.6359 158.672C55.9123 158.672 55.3902 158.841 55.0605 159.172C54.7308 159.509 54.5659 159.9 54.5659 160.345C54.5659 160.753 54.6667 161.079 54.8773 161.323C55.0971 161.557 55.3719 161.752 55.7016 161.91C56.0405 162.073 56.4344 162.209 56.874 162.323C57.3137 162.426 57.7579 162.551 58.2113 162.692C58.6738 162.822 59.1272 162.985 59.5668 163.17C60.0065 163.36 60.3912 163.621 60.7209 163.952C61.0598 164.273 61.3346 164.68 61.5452 165.169C61.765 165.664 61.875 166.277 61.875 167.016C61.875 167.684 61.7559 168.309 61.5269 168.885C61.2933 169.466 60.9499 169.971 60.5011 170.406C60.0614 170.841 59.5027 171.183 58.8341 171.427C58.1609 171.672 57.3915 171.797 56.526 171.797Z" fill="#E9E2D1"/>
<path d="M67.2223 171.797C66.6819 171.797 66.1873 171.693 65.7385 171.492C65.2851 171.275 64.9004 170.96 64.5844 170.536C64.2639 170.118 64.0166 169.618 63.8334 169.037C63.6502 168.445 63.5586 167.771 63.5586 167.016V159.78H66.1964V166.582C66.1964 167.364 66.3476 167.967 66.6544 168.385C66.9704 168.809 67.41 169.015 67.9733 169.015C68.532 169.015 68.9854 168.793 69.3289 168.342C69.6678 167.896 69.8418 167.31 69.8418 166.582V159.78H72.4797V171.579H70.2265L69.9517 170.254H69.8418C69.5212 170.748 69.1366 171.134 68.6878 171.406C68.2344 171.666 67.7444 171.797 67.2223 171.797Z" fill="#E9E2D1"/>
<path d="M74.7158 159.78H76.969L77.2621 161.128H77.3537C77.6193 160.736 77.9811 160.383 78.4345 160.063C78.8833 159.732 79.4603 159.563 80.1564 159.563C80.8021 159.563 81.3883 159.693 81.915 159.954C82.437 160.215 82.8904 160.606 83.2705 161.128C83.6461 161.649 83.9391 162.296 84.1498 163.062C84.3696 163.817 84.4795 164.691 84.4795 165.691C84.4795 166.69 84.3696 167.576 84.1498 168.342C83.9391 169.097 83.6461 169.732 83.2705 170.254C82.8904 170.764 82.437 171.145 81.915 171.406C81.3883 171.666 80.8021 171.797 80.1564 171.797C79.79 171.797 79.4603 171.742 79.1672 171.645C78.8741 171.558 78.6085 171.444 78.3795 171.297C78.1597 171.139 77.9673 170.982 77.8116 170.819C77.6513 170.645 77.5277 170.493 77.4453 170.363H77.3537V176.034H74.7158V159.78ZM79.6068 169.015C79.8999 169.015 80.1793 168.961 80.4495 168.841C80.7288 168.711 80.9716 168.51 81.1822 168.233C81.3883 167.961 81.5532 167.614 81.6768 167.19C81.7959 166.772 81.86 166.272 81.86 165.691C81.86 165.115 81.7959 164.615 81.6768 164.191C81.5532 163.757 81.3883 163.404 81.1822 163.127C80.9716 162.855 80.7288 162.66 80.4495 162.54C80.1793 162.41 79.8999 162.344 79.6068 162.344C79.3 162.344 79.0069 162.41 78.7276 162.54C78.4574 162.66 78.2192 162.855 78.0131 163.127C77.8025 163.404 77.6376 163.757 77.5185 164.191C77.4086 164.615 77.3537 165.115 77.3537 165.691C77.3537 166.272 77.4086 166.772 77.5185 167.19C77.6376 167.614 77.8025 167.961 78.0131 168.233C78.2192 168.51 78.4574 168.711 78.7276 168.841C79.0069 168.961 79.3 169.015 79.6068 169.015Z" fill="#E9E2D1"/>
<path d="M86.249 159.78H88.5022L88.7953 161.128H88.8869C89.1525 160.736 89.5143 160.383 89.9677 160.063C90.4165 159.732 90.9935 159.563 91.6896 159.563C92.3353 159.563 92.9215 159.693 93.4482 159.954C93.9702 160.215 94.4236 160.606 94.8037 161.128C95.1793 161.649 95.4724 162.296 95.683 163.062C95.9028 163.817 96.0127 164.691 96.0127 165.691C96.0127 166.69 95.9028 167.576 95.683 168.342C95.4724 169.097 95.1793 169.732 94.8037 170.254C94.4236 170.764 93.9702 171.145 93.4482 171.406C92.9215 171.666 92.3353 171.797 91.6896 171.797C91.3232 171.797 90.9935 171.742 90.7004 171.645C90.4073 171.558 90.1417 171.444 89.9127 171.297C89.6929 171.139 89.5005 170.982 89.3448 170.819C89.1846 170.645 89.0609 170.493 88.9785 170.363H88.8869V176.034H86.249V159.78ZM91.14 169.015C91.4331 169.015 91.7125 168.961 91.9827 168.841C92.262 168.711 92.5048 168.51 92.7154 168.233C92.9215 167.961 93.0864 167.614 93.21 167.19C93.3291 166.772 93.3932 166.272 93.3932 165.691C93.3932 165.115 93.3291 164.615 93.21 164.191C93.0864 163.757 92.9215 163.404 92.7154 163.127C92.5048 162.855 92.262 162.66 91.9827 162.54C91.7125 162.41 91.4331 162.344 91.14 162.344C90.8332 162.344 90.5401 162.41 90.2608 162.54C89.9906 162.66 89.7524 162.855 89.5463 163.127C89.3357 163.404 89.1708 163.757 89.0517 164.191C88.9418 164.615 88.8869 165.115 88.8869 165.691C88.8869 166.272 88.9418 166.772 89.0517 167.19C89.1708 167.614 89.3357 167.961 89.5463 168.233C89.7524 168.51 89.9906 168.711 90.2608 168.841C90.5401 168.961 90.8332 169.015 91.14 169.015Z" fill="#E9E2D1"/>
<path d="M102.197 171.797C101.45 171.797 100.773 171.655 100.164 171.384C99.5636 171.112 99.0507 170.721 98.6248 170.21C98.2081 169.689 97.8829 169.053 97.654 168.298C97.4341 167.532 97.3242 166.663 97.3242 165.691C97.3242 164.707 97.4341 163.838 97.654 163.083C97.8829 162.334 98.2081 161.693 98.6248 161.171C99.0507 160.65 99.5636 160.253 100.164 159.976C100.773 159.704 101.45 159.563 102.197 159.563C102.953 159.563 103.63 159.704 104.23 159.976C104.826 160.253 105.334 160.65 105.751 161.171C106.177 161.693 106.502 162.334 106.722 163.083C106.951 163.838 107.07 164.707 107.07 165.691C107.07 166.663 106.951 167.532 106.722 168.298C106.502 169.053 106.177 169.689 105.751 170.21C105.334 170.721 104.826 171.112 104.23 171.384C103.63 171.655 102.953 171.797 102.197 171.797ZM102.197 169.015C102.499 169.015 102.788 168.961 103.058 168.841C103.337 168.711 103.58 168.51 103.791 168.233C103.997 167.961 104.157 167.614 104.267 167.19C104.386 166.772 104.45 166.272 104.45 165.691C104.45 165.115 104.386 164.615 104.267 164.191C104.157 163.757 103.997 163.404 103.791 163.127C103.58 162.855 103.337 162.66 103.058 162.54C102.788 162.41 102.499 162.344 102.197 162.344C101.904 162.344 101.615 162.41 101.336 162.54C101.052 162.66 100.809 162.855 100.603 163.127C100.406 163.404 100.246 163.757 100.127 164.191C100.003 164.615 99.9438 165.115 99.9438 165.691C99.9438 166.272 100.003 166.772 100.127 167.19C100.246 167.614 100.406 167.961 100.603 168.233C100.809 168.51 101.052 168.711 101.336 168.841C101.615 168.961 101.904 169.015 102.197 169.015Z" fill="#E9E2D1"/>
<path d="M108.847 159.78H111.1L111.393 161.128H111.485C111.764 160.622 112.107 160.275 112.51 160.085C112.913 159.884 113.353 159.78 113.829 159.78H115.038V162.801H114.012C113.216 162.801 112.593 163.061 112.144 163.583C111.704 164.094 111.485 164.794 111.485 165.691V171.579H108.847V159.78Z" fill="#E9E2D1"/>
<path d="M120.38 171.579C119.34 171.579 118.566 171.286 118.054 170.688C117.55 170.096 117.302 169.243 117.302 168.124V162.67H115.69V159.78H117.302L117.669 156.673H119.922V159.78H122.267V162.67H119.922V167.581C119.922 167.918 120.004 168.184 120.178 168.385C120.348 168.592 120.572 168.689 120.856 168.689H122.267V171.579H120.38Z" fill="#E9E2D1"/>
<path d="M131.357 171.797C130.816 171.797 130.331 171.71 129.891 171.536C129.461 171.351 129.094 171.096 128.792 170.775C128.499 170.444 128.27 170.053 128.114 169.602C127.968 169.157 127.895 168.662 127.895 168.124C127.895 167.592 127.972 167.103 128.133 166.669C128.288 166.223 128.536 165.837 128.865 165.517C129.195 165.186 129.589 164.925 130.056 164.735C130.532 164.55 131.091 164.452 131.741 164.452H134.086V163.909C134.086 163.344 133.93 162.926 133.628 162.649C133.321 162.377 132.905 162.236 132.383 162.236C132.016 162.236 131.696 162.339 131.43 162.54C131.174 162.73 130.995 162.964 130.899 163.235H128.261C128.343 162.757 128.499 162.301 128.719 161.866C128.939 161.432 129.218 161.052 129.562 160.715C129.914 160.367 130.331 160.095 130.807 159.889C131.283 159.672 131.842 159.563 132.492 159.563C133.811 159.563 134.842 159.943 135.588 160.693C136.33 161.448 136.706 162.556 136.706 164.018V171.579H134.453L134.178 170.254H134.086C133.976 170.417 133.848 170.591 133.701 170.775C133.555 170.949 133.363 171.118 133.134 171.275C132.914 171.438 132.657 171.558 132.364 171.645C132.071 171.742 131.732 171.797 131.357 171.797ZM132.016 169.233C132.625 169.233 133.12 169.032 133.5 168.624C133.889 168.222 134.086 167.684 134.086 167.016V166.69H131.833C131.357 166.69 131.013 166.81 130.807 167.038C130.61 167.272 130.514 167.559 130.514 167.907C130.514 168.298 130.629 168.619 130.862 168.863C131.105 169.113 131.49 169.233 132.016 169.233Z" fill="#E9E2D1"/>
<path d="M138.852 159.78H141.105L141.398 161.128H141.489C141.805 160.622 142.19 160.237 142.643 159.976C143.092 159.704 143.582 159.563 144.109 159.563C144.645 159.563 145.139 159.672 145.593 159.889C146.042 160.106 146.426 160.427 146.747 160.845C147.063 161.253 147.315 161.752 147.498 162.344C147.681 162.926 147.773 163.594 147.773 164.344V171.579H145.135V164.8C145.135 164.007 144.974 163.398 144.659 162.975C144.352 162.556 143.917 162.344 143.358 162.344C142.795 162.344 142.341 162.578 142.002 163.04C141.659 163.491 141.489 164.077 141.489 164.8V171.579H138.852V159.78Z" fill="#E9E2D1"/>
<path d="M153.762 171.797C153.125 171.797 152.544 171.666 152.022 171.405C151.495 171.145 151.042 170.764 150.666 170.254C150.286 169.732 149.988 169.097 149.768 168.342C149.558 167.576 149.457 166.69 149.457 165.691C149.457 164.691 149.558 163.817 149.768 163.061C149.988 162.296 150.286 161.649 150.666 161.128C151.042 160.606 151.495 160.215 152.022 159.954C152.544 159.693 153.125 159.563 153.762 159.563C154.137 159.563 154.476 159.617 154.769 159.715C155.062 159.802 155.319 159.927 155.539 160.085C155.768 160.231 155.96 160.389 156.107 160.563C156.262 160.726 156.391 160.878 156.491 161.019H156.583V156H159.202V171.579H156.949L156.674 170.254H156.583C156.446 170.444 156.29 170.634 156.107 170.819C155.923 170.993 155.713 171.161 155.484 171.319C155.264 171.465 155.008 171.579 154.714 171.666C154.43 171.753 154.114 171.797 153.762 171.797ZM154.33 169.015C154.632 169.015 154.921 168.961 155.191 168.841C155.47 168.711 155.713 168.51 155.923 168.233C156.13 167.961 156.29 167.614 156.4 167.19C156.519 166.772 156.583 166.272 156.583 165.691C156.583 165.115 156.519 164.615 156.4 164.191C156.29 163.757 156.13 163.404 155.923 163.127C155.713 162.855 155.47 162.66 155.191 162.54C154.921 162.41 154.632 162.344 154.33 162.344C154.037 162.344 153.748 162.41 153.469 162.54C153.185 162.66 152.942 162.855 152.736 163.127C152.539 163.404 152.379 163.757 152.26 164.191C152.136 164.615 152.077 165.115 152.077 165.691C152.077 166.272 152.136 166.772 152.26 167.19C152.379 167.614 152.539 167.961 152.736 168.233C152.942 168.51 153.185 168.711 153.469 168.841C153.748 168.961 154.037 169.015 154.33 169.015Z" fill="#E9E2D1"/>
<path d="M166.057 156H174.959V158.998H168.859V162.344H174.593V165.126H168.859V168.581H175.143V171.579H166.057V156Z" fill="#E9E2D1"/>
<path d="M178.992 165.452L175.988 159.78H178.901L180.677 163.453L182.454 159.78H185.367L182.363 165.452L185.55 171.579H182.656L180.677 167.581L178.699 171.579H175.805L178.992 165.452Z" fill="#E9E2D1"/>
<path d="M186.48 159.78H188.734L189.027 161.128H189.118C189.384 160.736 189.746 160.383 190.199 160.063C190.648 159.732 191.225 159.563 191.921 159.563C192.567 159.563 193.153 159.693 193.68 159.954C194.202 160.215 194.655 160.606 195.035 161.128C195.411 161.649 195.704 162.296 195.914 163.062C196.134 163.817 196.244 164.691 196.244 165.691C196.244 166.69 196.134 167.576 195.914 168.342C195.704 169.097 195.411 169.732 195.035 170.254C194.655 170.764 194.202 171.145 193.68 171.406C193.153 171.666 192.567 171.797 191.921 171.797C191.555 171.797 191.225 171.742 190.932 171.645C190.639 171.558 190.373 171.444 190.144 171.297C189.924 171.139 189.732 170.982 189.576 170.819C189.416 170.645 189.292 170.493 189.21 170.363H189.118V176.034H186.48V159.78ZM191.371 169.015C191.665 169.015 191.944 168.961 192.214 168.841C192.493 168.711 192.736 168.51 192.947 168.233C193.153 167.961 193.318 167.614 193.441 167.19C193.561 166.772 193.625 166.272 193.625 165.691C193.625 165.115 193.561 164.615 193.441 164.191C193.318 163.757 193.153 163.404 192.947 163.127C192.736 162.855 192.493 162.66 192.214 162.54C191.944 162.41 191.665 162.344 191.371 162.344C191.065 162.344 190.772 162.41 190.492 162.54C190.222 162.66 189.984 162.855 189.778 163.127C189.567 163.404 189.402 163.757 189.283 164.191C189.173 164.615 189.118 165.115 189.118 165.691C189.118 166.272 189.173 166.772 189.283 167.19C189.402 167.614 189.567 167.961 189.778 168.233C189.984 168.51 190.222 168.711 190.492 168.841C190.772 168.961 191.065 169.015 191.371 169.015Z" fill="#E9E2D1"/>
<path d="M202.429 171.797C201.683 171.797 201.005 171.655 200.396 171.384C199.796 171.112 199.283 170.721 198.857 170.21C198.441 169.689 198.115 169.053 197.886 168.298C197.667 167.532 197.557 166.663 197.557 165.691C197.557 164.707 197.667 163.838 197.886 163.083C198.115 162.334 198.441 161.693 198.857 161.171C199.283 160.65 199.796 160.253 200.396 159.976C201.005 159.704 201.683 159.563 202.429 159.563C203.148 159.563 203.803 159.71 204.389 159.998C204.985 160.291 205.493 160.704 205.91 161.236C206.322 161.758 206.643 162.382 206.862 163.105C207.091 163.817 207.21 164.599 207.21 165.452C207.21 165.626 207.201 165.789 207.192 165.93C207.178 166.076 207.165 166.207 207.155 166.321C207.142 166.468 207.128 166.592 207.119 166.69H200.268C200.378 167.358 200.597 167.918 200.927 168.363C201.266 168.798 201.77 169.015 202.429 169.015C202.942 169.015 203.318 168.923 203.565 168.733C203.808 168.532 204.023 168.255 204.206 167.907H207.027C206.917 168.418 206.743 168.901 206.514 169.363C206.281 169.83 205.974 170.248 205.598 170.623C205.232 170.987 204.783 171.275 204.261 171.492C203.735 171.693 203.125 171.797 202.429 171.797ZM204.499 164.344C204.449 164.099 204.371 163.86 204.261 163.626C204.151 163.382 204.009 163.165 203.84 162.975C203.68 162.774 203.478 162.621 203.235 162.518C203.002 162.404 202.732 162.344 202.429 162.344C201.816 162.344 201.339 162.54 201.001 162.931C200.657 163.311 200.414 163.779 200.268 164.344H204.499Z" fill="#E9E2D1"/>
<path d="M208.988 159.78H211.241L211.535 161.128H211.626C211.905 160.622 212.249 160.275 212.652 160.085C213.055 159.884 213.495 159.78 213.971 159.78H215.18V162.801H214.154C213.357 162.801 212.734 163.061 212.286 163.583C211.846 164.094 211.626 164.794 211.626 165.691V171.579H208.988V159.78Z" fill="#E9E2D1"/>
<path d="M220.522 171.579C219.482 171.579 218.708 171.286 218.195 170.688C217.691 170.096 217.444 169.243 217.444 168.124V162.67H215.832V159.78H217.444L217.81 156.673H220.064V159.78H222.408V162.67H220.064V167.581C220.064 167.918 220.146 168.184 220.32 168.385C220.489 168.592 220.714 168.689 220.998 168.689H222.408V171.579H220.522Z" fill="#E9E2D1"/>
<path d="M224.271 159.78H226.909V171.579H224.271V159.78ZM225.59 158.564C225.16 158.564 224.802 158.401 224.509 158.064C224.225 157.716 224.088 157.292 224.088 156.782C224.088 156.277 224.225 155.858 224.509 155.522C224.802 155.174 225.16 155 225.59 155C226.016 155 226.369 155.174 226.652 155.522C226.946 155.858 227.092 156.277 227.092 156.782C227.092 157.292 226.946 157.716 226.652 158.064C226.369 158.401 226.016 158.564 225.59 158.564Z" fill="#E9E2D1"/>
<path d="M232.811 171.797C232.088 171.797 231.465 171.693 230.943 171.492C230.416 171.291 229.976 171.009 229.624 170.645C229.267 170.286 228.992 169.874 228.799 169.406C228.616 168.945 228.479 168.445 228.396 167.907H231.218C231.263 168.184 231.424 168.439 231.694 168.668C231.959 168.901 232.335 169.015 232.811 169.015C233.457 169.015 233.897 168.928 234.13 168.755C234.373 168.57 234.497 168.358 234.497 168.124C234.497 167.836 234.355 167.625 234.075 167.494C233.791 167.353 233.439 167.228 233.013 167.125C232.596 167.027 232.138 166.918 231.639 166.799C231.149 166.685 230.691 166.489 230.265 166.212C229.834 165.941 229.482 165.56 229.202 165.082C228.919 164.593 228.781 163.942 228.781 163.127C228.781 162.621 228.864 162.16 229.038 161.736C229.221 161.301 229.477 160.927 229.807 160.606C230.146 160.291 230.567 160.036 231.071 159.846C231.57 159.661 232.152 159.563 232.811 159.563C233.507 159.563 234.112 159.666 234.625 159.867C235.138 160.057 235.564 160.318 235.907 160.65C236.26 160.986 236.53 161.377 236.713 161.823C236.905 162.258 237.047 162.73 237.134 163.235H234.313C234.263 163.018 234.13 162.817 233.91 162.627C233.7 162.442 233.333 162.344 232.811 162.344C232.381 162.344 232.051 162.426 231.822 162.583C231.602 162.73 231.492 162.909 231.492 163.127C231.492 163.42 231.63 163.637 231.914 163.779C232.207 163.909 232.559 164.028 232.976 164.126C233.402 164.229 233.86 164.344 234.35 164.474C234.849 164.593 235.312 164.789 235.742 165.061C236.168 165.321 236.521 165.702 236.805 166.191C237.084 166.669 237.226 167.315 237.226 168.124C237.226 168.602 237.153 169.059 237.006 169.493C236.86 169.928 236.612 170.319 236.273 170.667C235.944 171.014 235.49 171.291 234.918 171.492C234.355 171.693 233.654 171.797 232.811 171.797Z" fill="#E9E2D1"/>
<path d="M243.218 171.797C242.472 171.797 241.794 171.655 241.185 171.384C240.585 171.112 240.072 170.721 239.646 170.21C239.23 169.689 238.904 169.053 238.675 168.298C238.456 167.532 238.346 166.663 238.346 165.691C238.346 164.707 238.456 163.838 238.675 163.083C238.904 162.334 239.23 161.693 239.646 161.171C240.072 160.65 240.585 160.253 241.185 159.976C241.794 159.704 242.472 159.563 243.218 159.563C243.937 159.563 244.592 159.71 245.178 159.998C245.774 160.291 246.282 160.704 246.699 161.236C247.111 161.758 247.432 162.382 247.651 163.105C247.88 163.817 248 164.599 248 165.452C248 165.626 247.99 165.789 247.981 165.93C247.967 166.076 247.954 166.207 247.945 166.321C247.931 166.468 247.917 166.592 247.908 166.69H241.057C241.167 167.358 241.387 167.918 241.716 168.363C242.055 168.798 242.559 169.015 243.218 169.015C243.731 169.015 244.107 168.923 244.354 168.733C244.597 168.532 244.812 168.255 244.995 167.907H247.816C247.706 168.418 247.532 168.901 247.303 169.363C247.07 169.83 246.763 170.248 246.387 170.623C246.021 170.987 245.572 171.275 245.05 171.492C244.524 171.693 243.915 171.797 243.218 171.797ZM245.288 164.344C245.238 164.099 245.16 163.86 245.05 163.626C244.94 163.382 244.798 163.165 244.629 162.975C244.469 162.774 244.267 162.621 244.024 162.518C243.791 162.404 243.521 162.344 243.218 162.344C242.605 162.344 242.128 162.54 241.79 162.931C241.446 163.311 241.203 163.779 241.057 164.344H245.288Z" fill="#E9E2D1"/>
</svg>
