<svg width="248" height="178" viewBox="0 0 248 178" fill="none" xmlns="http://www.w3.org/2000/svg">
<mask id="mask0_656_235" style="mask-type:luminance" maskUnits="userSpaceOnUse" x="64" y="0" width="125" height="125">
<path d="M64 0H189V125H64V0Z" fill="white"/>
</mask>
<g mask="url(#mask0_656_235)">
<path d="M151.352 76.4775C153.442 77.2288 155.341 78.3945 156.969 79.9635L161.014 78.5381C161.528 78.3669 162.097 78.6265 162.339 79.1514L165.568 85.1401C165.84 85.6041 165.732 86.2174 165.352 86.593L162.18 89.6205C162.395 90.7531 162.503 91.9132 162.503 93.1066C162.503 94.2722 162.395 95.4324 162.18 96.5981L165.352 99.6201C165.758 100.029 165.84 100.67 165.517 101.161L162.287 107.15C162.015 107.647 161.502 107.852 161.014 107.675L156.969 106.25C155.341 107.791 153.442 108.984 151.352 109.741L150.485 114.188C150.377 114.741 149.94 115.117 149.427 115.117H142.886C142.342 115.117 141.885 114.686 141.803 114.1L140.961 109.741C138.872 108.984 136.972 107.819 135.345 106.25L131.33 107.675C130.786 107.852 130.216 107.587 130 107.067L126.771 101.073C126.525 100.581 126.607 100.001 126.987 99.6201L130.134 96.5981C129.918 95.4324 129.81 94.2722 129.81 93.1066C129.81 91.9464 129.918 90.7807 130.134 89.6205L126.987 86.593C126.581 86.2174 126.499 85.5765 126.797 85.0848L130.052 79.063C130.324 78.5713 130.842 78.3669 131.33 78.5381L135.345 79.9635C136.972 78.4221 138.872 77.2288 140.961 76.4775L141.829 72.0246C141.937 71.4722 142.399 71.0965 142.886 71.0965H149.453C149.997 71.0965 150.459 71.5329 150.541 72.113L151.352 76.4775ZM153.252 79.9359C152.302 79.3558 151.27 78.8586 150.187 78.5381C149.807 78.4221 149.478 78.1017 149.371 77.6376L148.559 73.45H143.754L142.943 77.6376C142.861 78.0464 142.589 78.3945 142.183 78.5105C140.176 79.1514 137.84 80.4883 136.402 82.0573C136.13 82.3777 135.668 82.5214 135.263 82.3777L131.464 81.0408L129.076 85.4881L132.033 88.3388C132.331 88.5985 132.47 89.0349 132.362 89.4714C132.09 90.6647 131.951 91.8856 131.951 93.0789C131.951 94.2722 132.09 95.4656 132.331 96.6257C132.47 97.0346 132.362 97.5262 132.008 97.8467L129.025 100.697L131.412 105.145L135.211 103.808C135.591 103.692 135.997 103.78 136.295 104.067C137.814 105.642 140.011 107.067 142.075 107.675C142.455 107.791 142.804 108.111 142.886 108.575L143.703 112.763H148.503L149.319 108.575C149.401 108.172 149.668 107.819 150.079 107.703C152.086 107.067 154.417 105.725 155.855 104.156C156.127 103.835 156.589 103.692 156.994 103.835L160.793 105.172L163.181 100.725L160.198 97.8743C159.9 97.6146 159.762 97.1782 159.874 96.7418C160.141 95.5484 160.28 94.3606 160.28 93.1342C160.28 91.9464 160.141 90.7531 159.9 89.5874C159.762 89.1841 159.874 88.6869 160.224 88.3664L163.211 85.5157L160.824 81.0684L157.025 82.4054C156.645 82.5545 156.235 82.4385 155.937 82.1457C155.151 81.2728 154.227 80.5436 153.252 79.9359ZM146.141 82.9302C151.378 82.9302 155.613 87.4659 155.613 93.0789C155.613 98.6919 151.378 103.228 146.141 103.228C140.905 103.228 136.674 98.6919 136.674 93.0789C136.674 87.4935 140.936 82.9302 146.141 82.9302ZM151.327 87.5543C146.742 82.6374 138.846 86.129 138.846 93.0789C138.846 100.029 146.742 103.548 151.327 98.6035C154.176 95.5816 154.176 90.6094 151.327 87.5543ZM146.141 62.1135C146.932 62.1135 147.717 62.1411 148.477 62.1963V53.821L142.969 59.7268C142.532 60.1909 141.855 60.1909 141.449 59.7268L139.467 57.6054V62.9256C141.613 62.4007 143.862 62.1135 146.141 62.1135ZM150.675 62.4891C155.069 63.246 159.115 65.0194 162.611 67.6049V38.7056L150.675 51.4951V62.4891ZM164.782 69.3783C177.751 81.096 178.593 102.15 166.6 115.001C155.316 127.1 136.998 127.1 125.714 115.001C123.244 112.354 121.237 109.244 119.769 105.813C115.133 116.835 104.901 124.078 93.3957 124.078C77.4191 124.105 64.4766 110.205 64.4766 93.1066C64.4766 87.2063 66.0219 81.6816 68.6812 76.9968L65.2877 73.3339C64.8565 72.8699 64.8565 72.1406 65.2877 71.7042L71.4741 65.0746C71.9104 64.6106 72.5881 64.6106 72.9937 65.0746L76.0073 68.3065C79.6677 65.3675 83.9853 63.3344 88.7034 62.4891V59.0583C86.6447 59.0583 85.0429 59.2627 83.3847 57.517C80.2941 54.2022 82.5427 48.5892 86.8295 48.5892H99.885C100.943 48.5892 101.944 48.9704 102.76 49.6057L126.417 24.2533C126.853 23.7892 127.531 23.7892 127.962 24.2533L142.209 39.5178L165.029 15.0658L160.414 10.0937C159.844 9.48042 160.034 8.3755 160.983 8.14347L187.382 0.232215C188.198 0.000181752 188.958 0.784676 188.712 1.68519L181.308 30.0375C181.088 30.9104 180.087 31.1701 179.491 30.5624L174.85 25.5902L164.782 36.3798V69.3783ZM118.629 102.648C117.71 99.6477 117.222 96.4213 117.222 93.0789C117.222 89.7365 117.71 86.5378 118.629 83.5103C117.925 81.3888 117.001 79.3558 115.862 77.494C115.836 77.4664 115.81 77.4056 115.785 77.3448C114.265 74.8477 112.365 72.6102 110.194 70.7484C108.459 69.2955 107.016 68.2458 104.957 67.2016C94.6484 61.909 82.4657 64.2625 74.4876 72.7815C64.0402 83.9799 64.0402 102.123 74.4876 113.316C83.7389 123.232 98.3345 124.542 108.972 116.371C113.392 113.028 116.786 108.227 118.629 102.648ZM119.769 80.3723C120.693 78.1901 121.832 76.1239 123.188 74.2676V48.8212L114.152 58.5059V64.8426C114.532 64.699 114.994 64.7874 115.292 65.1078L121.478 71.7373C121.914 72.2014 121.914 72.9251 121.478 73.3616L118.09 76.9968C118.742 78.0741 119.281 79.2066 119.769 80.3723ZM125.359 71.5605C128.645 67.9253 132.711 65.163 137.296 63.594V55.3071L127.202 44.4899L125.334 46.4954V71.5605H125.359ZM165.08 72.8423L162.991 70.8037C159.222 67.5221 154.581 65.3398 149.509 64.6714C145.412 64.2018 142.671 64.4393 138.656 65.5995C134.287 66.9696 130.38 69.4943 127.259 72.8423C116.842 84.0075 116.786 102.15 127.259 113.376C137.706 124.569 154.638 124.569 165.08 113.376C175.528 102.178 175.528 84.0075 165.08 72.8423ZM94.4841 87.4935C97.6825 88.1952 99.5821 91.858 98.391 95.1728L101.754 97.4986C102.95 98.3107 101.779 100.289 100.588 99.4488L97.2256 97.123C93.8321 100.786 88.0514 98.1947 88.0514 93.1066C88.0514 90.3719 89.8688 88.046 92.3125 87.4935V80.0243C92.3125 78.5105 94.4841 78.5105 94.4841 80.0243V87.4935ZM95.6495 90.6923C93.6678 88.5708 90.223 90.0846 90.223 93.1066C90.223 96.134 93.6422 97.6423 95.6495 95.5208C96.8714 94.1839 96.8714 92.0016 95.6495 90.6923ZM92.3125 74.5549C92.3125 73.0135 94.4841 73.0135 94.4841 74.5549V75.9802C94.4841 77.494 92.3125 77.494 92.3125 75.9802V74.5549ZM108.915 101.366C110.137 102.123 109.054 104.156 107.832 103.371L106.667 102.648C105.445 101.891 106.503 99.8853 107.75 100.637L108.915 101.366ZM110.682 91.9464C112.093 91.9464 112.093 94.2722 110.682 94.2722H109.352C107.914 94.2722 107.914 91.9464 109.352 91.9464H110.682ZM107.832 82.8142C109.054 82.0573 110.137 84.0628 108.915 84.8196L107.75 85.5157C106.503 86.2726 105.445 84.2672 106.667 83.5103L107.832 82.8142ZM83.821 77.6376C83.1126 76.3283 84.9864 75.1681 85.6949 76.4775L86.3418 77.726C87.0503 79.0354 85.1764 80.1955 84.4731 78.8862L83.821 77.6376ZM77.876 84.8473C76.6285 84.0959 77.7169 82.0849 78.9644 82.8418L80.1298 83.5711C81.3516 84.3279 80.2941 86.3334 79.0465 85.5765L77.876 84.8473ZM76.1151 94.2722C74.6776 94.2722 74.6776 91.9464 76.1151 91.9464H77.4448C78.8823 91.9464 78.8823 94.2722 77.4448 94.2722H76.1151ZM78.9644 103.371C77.7425 104.128 76.6593 102.123 77.876 101.366L79.0465 100.67C80.2684 99.9129 81.3516 101.918 80.1298 102.675L78.9644 103.371ZM85.6949 109.714C84.9864 111.051 83.0869 109.885 83.821 108.548L84.4731 107.299C85.1764 105.99 87.0759 107.15 86.3418 108.459L85.6949 109.714ZM94.4841 111.631C94.4841 113.172 92.3125 113.172 92.3125 111.631V110.205C92.3125 108.664 94.4841 108.664 94.4841 110.205V111.631ZM102.976 108.548C103.679 109.885 101.81 111.051 101.102 109.714L100.424 108.459C99.7207 107.15 101.589 105.99 102.298 107.299L102.976 108.548ZM101.102 76.4775C101.81 75.135 103.679 76.3007 102.976 77.6376L102.324 78.8862C101.62 80.1955 99.7207 79.0354 100.455 77.726L101.102 76.4775ZM93.3957 69.6104C105.501 69.6104 115.292 80.1127 115.292 93.0789C115.292 106.045 105.501 116.542 93.3957 116.542C81.2952 116.542 71.5049 106.045 71.5049 93.0789C71.5049 80.1403 81.2952 69.6104 93.3957 69.6104ZM107.345 78.1348C99.6386 69.8755 87.1324 69.8755 79.4264 78.1348C71.7205 86.3886 71.7205 99.7637 79.4264 108.023C87.1324 116.282 99.6386 116.282 107.345 108.023C115.05 99.7969 115.05 86.3886 107.345 78.1348ZM69.9031 75.019C71.202 73.1019 72.6959 71.3561 74.349 69.7871L72.2595 67.5497L67.5928 72.5495L69.9031 75.019ZM90.9007 62.1963C92.5589 62.0527 94.212 62.0527 95.896 62.1963V59.0583H90.9007V62.1963ZM98.0625 62.4891C100.563 62.9256 102.95 63.7101 105.199 64.7874L126.443 42.0204C126.879 41.5508 127.557 41.5508 127.993 42.0204L142.234 57.2849L174.09 23.1152C174.521 22.6511 175.204 22.6511 175.635 23.1152L179.732 27.5073L186.109 3.02767L163.263 9.88925L167.36 14.2758C167.796 14.7454 167.796 15.4691 167.36 15.9332L143.025 42.0204C142.589 42.4845 141.911 42.4845 141.505 42.0204L127.259 26.7504L104.223 51.3791C105.989 54.8431 103.602 59.086 99.9363 59.086H98.0625V62.4891ZM107.262 65.8923C108.484 66.616 109.65 67.4005 110.764 68.3065L112.011 66.9641V60.8041L107.262 65.8923ZM112.442 69.7871C114.101 71.3561 115.595 73.1019 116.894 75.019L119.199 72.5495L114.532 67.5497L112.442 69.7871ZM99.9363 50.9427H86.886C84.4987 50.9427 83.2512 54.0586 84.9608 55.8872C85.4485 56.412 86.1262 56.7325 86.886 56.7325H99.9363C102.324 56.7325 103.571 53.6221 101.862 51.7879C101.348 51.2631 100.67 50.9427 99.9363 50.9427Z" fill="#E9E2D1"/>
</g>
<path d="M0 157.998H12.2958V160.992H3.87091V164.333H11.7898V167.109H3.87091V170.559H12.5488V173.553H0V157.998Z" fill="#E9E2D1"/>
<path d="M15.2617 161.773H18.3736L18.7784 163.118H18.9049C19.3414 162.613 19.8727 162.228 20.4988 161.968C21.1187 161.697 21.7955 161.556 22.5228 161.556C23.2629 161.556 23.946 161.664 24.5722 161.881C25.192 162.098 25.7233 162.418 26.1661 162.836C26.6025 163.243 26.9504 163.742 27.2034 164.333C27.4564 164.913 27.5829 165.58 27.5829 166.329V173.553H23.9397V166.784C23.9397 165.992 23.7183 165.385 23.2818 164.962C22.8581 164.544 22.2572 164.333 21.4855 164.333C20.7076 164.333 20.0814 164.566 19.6133 165.027C19.139 165.477 18.9049 166.063 18.9049 166.784V173.553H15.2617V161.773Z" fill="#E9E2D1"/>
<path d="M30.6836 157.998H34.3015V163.009H34.428C34.8834 162.565 35.3768 162.207 35.9207 161.946C36.4773 161.686 37.1414 161.556 37.9194 161.556C38.6594 161.556 39.3426 161.664 39.9687 161.881C40.5886 162.098 41.1199 162.418 41.5626 162.836C41.9991 163.242 42.3469 163.741 42.5999 164.333C42.8529 164.913 42.9794 165.58 42.9794 166.328V173.553H39.3615V166.784C39.3615 165.992 39.1402 165.385 38.7037 164.962C38.261 164.544 37.6538 164.333 36.8821 164.333C36.1041 164.333 35.478 164.566 35.0099 165.027C34.5355 165.477 34.3015 166.063 34.3015 166.784V173.553H30.6836V157.998Z" fill="#E9E2D1"/>
<path d="M49.9848 173.77C49.2385 173.77 48.568 173.683 47.9608 173.509C47.3663 173.325 46.8603 173.07 46.4428 172.75C46.038 172.419 45.7218 172.029 45.5067 171.579C45.3043 171.134 45.2031 170.64 45.2031 170.103C45.2031 169.572 45.3106 169.084 45.532 168.65C45.7471 168.205 46.0886 167.82 46.544 167.5C46.9994 167.169 47.5434 166.909 48.1885 166.719C48.8463 166.535 49.618 166.437 50.5161 166.437H53.7546V165.895C53.7546 165.331 53.5395 164.913 53.1221 164.636C52.6983 164.365 52.1227 164.224 51.4016 164.224C50.8956 164.224 50.4529 164.327 50.086 164.528C49.7318 164.718 49.4852 164.951 49.3523 165.222H45.7091C45.823 164.745 46.038 164.289 46.3416 163.855C46.6452 163.422 47.0311 163.042 47.5054 162.706C47.9925 162.359 48.568 162.087 49.2258 161.881C49.8836 161.664 50.6553 161.556 51.5534 161.556C53.3751 161.556 54.7982 161.936 55.8292 162.684C56.8538 163.438 57.3725 164.544 57.3725 166.003V173.553H54.2606L53.8811 172.229H53.7546C53.6028 172.392 53.4257 172.566 53.2233 172.75C53.0209 172.924 52.7552 173.092 52.439 173.249C52.1354 173.412 51.7811 173.531 51.3763 173.618C50.9715 173.715 50.5035 173.77 49.9848 173.77ZM50.8956 171.21C51.7369 171.21 52.42 171.009 52.945 170.602C53.4826 170.201 53.7546 169.664 53.7546 168.997V168.672H50.6426C49.9848 168.672 49.5105 168.791 49.2258 169.019C48.9539 169.252 48.821 169.539 48.821 169.886C48.821 170.277 48.9792 170.597 49.3017 170.841C49.637 171.09 50.1683 171.21 50.8956 171.21Z" fill="#E9E2D1"/>
<path d="M60.3301 161.773H63.442L63.8468 163.118H63.9733C64.4097 162.613 64.941 162.228 65.5672 161.968C66.187 161.697 66.8638 161.556 67.5912 161.556C68.3312 161.556 69.0143 161.664 69.6405 161.881C70.2604 162.098 70.7917 162.418 71.2344 162.836C71.6708 163.243 72.0187 163.741 72.2717 164.333C72.5247 164.913 72.6512 165.58 72.6512 166.329V173.553H69.008V166.784C69.008 165.992 68.7866 165.385 68.3502 164.962C67.9264 164.544 67.3256 164.333 66.5539 164.333C65.7759 164.333 65.1497 164.566 64.6817 165.027C64.2073 165.477 63.9733 166.063 63.9733 166.784V173.553H60.3301V161.773Z" fill="#E9E2D1"/>
<path d="M81.7113 173.77C80.6803 173.77 79.7442 173.629 78.903 173.358C78.0744 173.086 77.366 172.696 76.7778 172.186C76.2022 171.665 75.7531 171.031 75.4368 170.277C75.1332 169.512 74.9814 168.644 74.9814 167.674C74.9814 166.692 75.1332 165.824 75.4368 165.07C75.7531 164.322 76.2022 163.682 76.7778 163.161C77.366 162.641 78.0744 162.245 78.903 161.968C79.7442 161.697 80.6803 161.556 81.7113 161.556C82.6727 161.556 83.5139 161.675 84.2413 161.903C84.9623 162.136 85.5822 162.445 86.0882 162.836C86.6068 163.226 87.0306 163.682 87.3532 164.203C87.6694 164.712 87.9098 165.238 88.0616 165.786H84.4437C84.1717 165.342 83.8238 164.984 83.4064 164.723C83.0016 164.463 82.4323 164.333 81.7113 164.333C80.8005 164.333 80.0478 164.615 79.4596 165.179C78.884 165.732 78.5994 166.562 78.5994 167.674C78.5994 168.775 78.884 169.604 79.4596 170.168C80.0478 170.722 80.8005 170.993 81.7113 170.993C82.4323 170.993 83.0016 170.863 83.4064 170.602C83.8238 170.342 84.1717 169.995 84.4437 169.561H88.0616C87.9098 170.125 87.6694 170.662 87.3532 171.166C87.0306 171.66 86.6068 172.099 86.0882 172.49C85.5822 172.88 84.9623 173.195 84.2413 173.423C83.5139 173.65 82.6727 173.77 81.7113 173.77Z" fill="#E9E2D1"/>
<path d="M96.4769 173.77C95.4459 173.77 94.5098 173.629 93.6686 173.357C92.84 173.086 92.1316 172.696 91.5434 172.186C90.9678 171.665 90.5187 171.031 90.2025 170.277C89.8989 169.512 89.7471 168.644 89.7471 167.674C89.7471 166.692 89.8989 165.824 90.2025 165.07C90.5187 164.322 90.9678 163.682 91.5434 163.161C92.1316 162.64 92.84 162.245 93.6686 161.968C94.5098 161.697 95.4459 161.556 96.4769 161.556C97.4699 161.556 98.3744 161.702 99.184 161.99C100.006 162.283 100.708 162.695 101.284 163.226C101.853 163.747 102.296 164.371 102.6 165.092C102.916 165.802 103.08 166.583 103.08 167.435C103.08 167.608 103.068 167.771 103.055 167.912C103.036 168.059 103.017 168.189 103.004 168.303C102.985 168.449 102.966 168.574 102.954 168.671H93.4915C93.6433 169.339 93.9469 169.897 94.4023 170.342C94.8703 170.776 95.5661 170.993 96.4769 170.993C97.1853 170.993 97.7039 170.901 98.0455 170.711C98.3807 170.51 98.678 170.233 98.931 169.886H102.827C102.675 170.396 102.435 170.879 102.119 171.34C101.796 171.806 101.372 172.224 100.854 172.598C100.348 172.962 99.728 173.249 99.0069 173.466C98.2795 173.667 97.4383 173.77 96.4769 173.77ZM99.3358 166.329C99.2662 166.084 99.1587 165.846 99.0069 165.613C98.8551 165.369 98.659 165.152 98.425 164.962C98.2036 164.761 97.9253 164.609 97.5901 164.506C97.2675 164.392 96.8943 164.333 96.4769 164.333C95.6293 164.333 94.9715 164.528 94.5035 164.918C94.0291 165.298 93.6939 165.764 93.4915 166.329H99.3358Z" fill="#E9E2D1"/>
<path d="M110.838 173.77C109.959 173.77 109.156 173.639 108.435 173.379C107.707 173.119 107.081 172.739 106.562 172.229C106.037 171.709 105.626 171.074 105.323 170.32C105.032 169.556 104.893 168.671 104.893 167.674C104.893 166.676 105.032 165.802 105.323 165.049C105.626 164.284 106.037 163.638 106.562 163.118C107.081 162.597 107.707 162.207 108.435 161.946C109.156 161.686 109.959 161.556 110.838 161.556C111.357 161.556 111.825 161.61 112.23 161.708C112.634 161.794 112.989 161.919 113.292 162.076C113.608 162.223 113.874 162.38 114.077 162.554C114.292 162.716 114.469 162.868 114.608 163.009H114.734V157.998H118.352V173.553H115.24L114.861 172.229H114.734C114.545 172.419 114.33 172.609 114.077 172.793C113.824 172.967 113.533 173.135 113.216 173.292C112.913 173.439 112.559 173.553 112.154 173.639C111.762 173.726 111.325 173.77 110.838 173.77ZM111.622 170.993C112.04 170.993 112.438 170.939 112.812 170.819C113.197 170.689 113.533 170.488 113.824 170.212C114.108 169.941 114.33 169.593 114.481 169.17C114.646 168.753 114.734 168.254 114.734 167.674C114.734 167.099 114.646 166.6 114.481 166.177C114.33 165.743 114.108 165.39 113.824 165.114C113.533 164.842 113.197 164.647 112.812 164.528C112.438 164.398 112.04 164.333 111.622 164.333C111.218 164.333 110.819 164.398 110.433 164.528C110.041 164.647 109.706 164.842 109.421 165.114C109.149 165.39 108.928 165.743 108.763 166.177C108.593 166.6 108.51 167.099 108.51 167.674C108.51 168.254 108.593 168.753 108.763 169.17C108.928 169.593 109.149 169.941 109.421 170.212C109.706 170.488 110.041 170.689 110.433 170.819C110.819 170.939 111.218 170.993 111.622 170.993Z" fill="#E9E2D1"/>
<path d="M127.807 157.998H135.574C136.466 157.998 137.282 158.123 138.028 158.367C138.787 158.616 139.432 158.963 139.976 159.408C140.514 159.842 140.925 160.379 141.216 161.013C141.519 161.637 141.671 162.337 141.671 163.118C141.671 164.089 141.469 164.891 141.064 165.526C140.659 166.15 140.229 166.648 139.774 167.023C139.217 167.457 138.591 167.782 137.901 167.999L142.304 173.553H137.901L133.752 168.216H131.678V173.553H127.807V157.998ZM135.321 165.222C136.042 165.222 136.636 165.043 137.092 164.68C137.547 164.306 137.775 163.785 137.775 163.118C137.775 162.456 137.547 161.935 137.092 161.556C136.636 161.182 136.042 160.992 135.321 160.992H131.678V165.222H135.321Z" fill="#E9E2D1"/>
<path d="M150.596 173.77C149.565 173.77 148.629 173.629 147.788 173.357C146.959 173.086 146.251 172.696 145.663 172.186C145.087 171.665 144.638 171.031 144.322 170.277C144.018 169.512 143.866 168.644 143.866 167.674C143.866 166.692 144.018 165.824 144.322 165.07C144.638 164.322 145.087 163.682 145.663 163.161C146.251 162.64 146.959 162.245 147.788 161.968C148.629 161.697 149.565 161.556 150.596 161.556C151.589 161.556 152.494 161.702 153.303 161.99C154.125 162.283 154.827 162.695 155.403 163.226C155.972 163.747 156.415 164.371 156.719 165.092C157.035 165.802 157.199 166.583 157.199 167.435C157.199 167.608 157.187 167.771 157.174 167.912C157.155 168.059 157.136 168.189 157.123 168.303C157.104 168.449 157.086 168.574 157.073 168.671H147.611C147.762 169.339 148.066 169.897 148.521 170.342C148.989 170.776 149.685 170.993 150.596 170.993C151.304 170.993 151.823 170.901 152.165 170.711C152.5 170.51 152.797 170.233 153.05 169.886H156.946C156.795 170.396 156.554 170.879 156.238 171.34C155.915 171.806 155.492 172.224 154.973 172.598C154.467 172.962 153.847 173.249 153.126 173.466C152.399 173.667 151.557 173.77 150.596 173.77ZM153.455 166.329C153.385 166.084 153.278 165.846 153.126 165.613C152.974 165.369 152.778 165.152 152.544 164.962C152.323 164.761 152.044 164.609 151.709 164.506C151.387 164.392 151.013 164.333 150.596 164.333C149.748 164.333 149.091 164.528 148.623 164.918C148.148 165.298 147.813 165.764 147.611 166.329H153.455Z" fill="#E9E2D1"/>
<path d="M159.812 157.998H163.429V173.553H159.812V157.998Z" fill="#E9E2D1"/>
<path d="M166.643 161.773H170.286V173.553H166.643V161.773ZM168.464 160.558C167.87 160.558 167.376 160.395 166.972 160.059C166.579 159.712 166.39 159.289 166.39 158.779C166.39 158.275 166.579 157.857 166.972 157.521C167.376 157.174 167.87 157 168.464 157C169.052 157 169.54 157.174 169.932 157.521C170.336 157.857 170.539 158.275 170.539 158.779C170.539 159.289 170.336 159.712 169.932 160.059C169.54 160.395 169.052 160.558 168.464 160.558Z" fill="#E9E2D1"/>
<path d="M177.413 173.77C176.666 173.77 175.996 173.683 175.389 173.509C174.794 173.325 174.288 173.07 173.871 172.75C173.466 172.419 173.15 172.029 172.934 171.578C172.732 171.134 172.631 170.64 172.631 170.103C172.631 169.572 172.738 169.084 172.96 168.65C173.175 168.205 173.516 167.82 173.972 167.5C174.427 167.169 174.971 166.909 175.616 166.719C176.274 166.535 177.046 166.437 177.944 166.437H181.182V165.895C181.182 165.331 180.967 164.913 180.55 164.636C180.126 164.365 179.55 164.224 178.829 164.224C178.323 164.224 177.881 164.327 177.514 164.528C177.16 164.718 176.913 164.951 176.78 165.222H173.137C173.251 164.745 173.466 164.289 173.769 163.855C174.073 163.421 174.459 163.042 174.933 162.706C175.42 162.358 175.996 162.087 176.654 161.881C177.311 161.664 178.083 161.556 178.981 161.556C180.803 161.556 182.226 161.935 183.257 162.684C184.282 163.438 184.8 164.544 184.8 166.003V173.553H181.688L181.309 172.229H181.182C181.03 172.392 180.853 172.566 180.651 172.75C180.449 172.924 180.183 173.092 179.867 173.249C179.563 173.412 179.209 173.531 178.804 173.618C178.399 173.715 177.931 173.77 177.413 173.77ZM178.323 171.21C179.165 171.21 179.848 171.009 180.373 170.602C180.91 170.201 181.182 169.664 181.182 168.997V168.671H178.07C177.413 168.671 176.938 168.791 176.654 169.019C176.382 169.252 176.249 169.539 176.249 169.886C176.249 170.277 176.407 170.597 176.729 170.841C177.065 171.09 177.596 171.21 178.323 171.21Z" fill="#E9E2D1"/>
<path d="M195.42 173.77C194.44 173.77 193.637 173.607 193.017 173.292C192.391 172.961 191.891 172.609 191.524 172.229H191.398L190.993 173.553H187.906V157.998H191.524V163.009H191.651C191.765 162.868 191.935 162.716 192.157 162.554C192.372 162.38 192.637 162.223 192.941 162.076C193.257 161.919 193.624 161.794 194.029 161.708C194.434 161.61 194.895 161.556 195.42 161.556C196.293 161.556 197.097 161.686 197.824 161.946C198.545 162.207 199.171 162.597 199.696 163.118C200.215 163.638 200.62 164.284 200.91 165.049C201.214 165.802 201.366 166.676 201.366 167.674C201.366 168.671 201.214 169.556 200.91 170.32C200.62 171.074 200.215 171.709 199.696 172.229C199.171 172.739 198.545 173.119 197.824 173.379C197.097 173.639 196.293 173.77 195.42 173.77ZM194.636 170.993C195.041 170.993 195.427 170.939 195.8 170.819C196.186 170.689 196.521 170.488 196.812 170.212C197.097 169.941 197.324 169.593 197.495 169.17C197.659 168.753 197.748 168.254 197.748 167.674C197.748 167.099 197.659 166.6 197.495 166.177C197.324 165.743 197.097 165.39 196.812 165.114C196.521 164.842 196.186 164.647 195.8 164.528C195.427 164.398 195.041 164.333 194.636 164.333C194.212 164.333 193.807 164.398 193.422 164.528C193.048 164.647 192.72 164.842 192.435 165.114C192.144 165.39 191.916 165.743 191.752 166.177C191.6 166.6 191.524 167.099 191.524 167.674C191.524 168.254 191.6 168.753 191.752 169.17C191.916 169.593 192.144 169.941 192.435 170.212C192.72 170.488 193.048 170.689 193.422 170.819C193.807 170.939 194.212 170.993 194.636 170.993Z" fill="#E9E2D1"/>
<path d="M203.793 161.773H207.436V173.553H203.793V161.773ZM205.615 160.558C205.02 160.558 204.527 160.395 204.122 160.059C203.73 159.712 203.54 159.289 203.54 158.779C203.54 158.275 203.73 157.857 204.122 157.521C204.527 157.174 205.02 157 205.615 157C206.203 157 206.69 157.174 207.082 157.521C207.487 157.857 207.689 158.275 207.689 158.779C207.689 159.289 207.487 159.712 207.082 160.059C206.69 160.395 206.203 160.558 205.615 160.558Z" fill="#E9E2D1"/>
<path d="M210.696 157.998H214.314V173.553H210.696V157.998Z" fill="#E9E2D1"/>
<path d="M217.548 161.773H221.191V173.553H217.548V161.773ZM219.37 160.558C218.775 160.558 218.282 160.395 217.877 160.059C217.485 159.712 217.295 159.289 217.295 158.779C217.295 158.275 217.485 157.857 217.877 157.521C218.282 157.174 218.775 157 219.37 157C219.958 157 220.445 157.174 220.837 157.521C221.242 157.857 221.444 158.275 221.444 158.779C221.444 159.289 221.242 159.712 220.837 160.059C220.445 160.395 219.958 160.558 219.37 160.558Z" fill="#E9E2D1"/>
<path d="M229.723 173.553C228.287 173.553 227.218 173.26 226.51 172.663C225.814 172.072 225.473 171.221 225.473 170.103V164.658H223.246V161.773H225.473L225.979 158.671H229.09V161.773H232.329V164.658H229.09V169.561C229.09 169.897 229.204 170.163 229.445 170.364C229.679 170.57 229.989 170.667 230.381 170.667H232.329V173.553H229.723Z" fill="#E9E2D1"/>
<path d="M238.816 173.553L233.225 161.773H237.247L240.612 169.452H240.713L243.977 161.773H248L240.486 178H236.716L238.816 173.553Z" fill="#E9E2D1"/>
</svg>
