<svg width="200" height="160" viewBox="0 0 200 160" fill="none" xmlns="http://www.w3.org/2000/svg">
<mask id="mask0_656_236" style="mask-type:luminance" maskUnits="userSpaceOnUse" x="52" y="27" width="92" height="73">
<path d="M52.1328 27.6595H144V99.9999H52.1328V27.6595Z" fill="white"/>
</mask>
<g mask="url(#mask0_656_236)">
<path d="M136.164 30.0697C139.256 36.3446 140.791 42.9645 140.77 49.9334C140.774 52.1275 140.613 54.3092 140.295 56.4826C139.977 58.6518 139.502 60.7878 138.874 62.8947C138.242 64.9974 137.458 67.0461 136.529 69.0408C135.596 71.0354 134.523 72.9553 133.31 74.7962C132.098 76.6413 130.758 78.3908 129.286 80.0447C127.819 81.6987 126.237 83.2404 124.541 84.6741C122.844 86.1036 121.055 87.4084 119.168 88.5886C117.28 89.7688 115.321 90.8119 113.281 91.7136C111.242 92.6154 109.147 93.3717 106.997 93.9826C104.847 94.5893 102.663 95.0464 100.449 95.3456C98.231 95.649 96.0046 95.7902 93.7655 95.7778C91.5264 95.7653 89.3042 95.5991 87.0905 95.2708C84.8769 94.9467 82.6971 94.4688 80.5556 93.8371C78.414 93.2013 76.3275 92.4242 74.3004 91.4975C72.2691 90.5708 70.3184 89.5112 68.4482 88.3102C66.5738 87.1092 64.7969 85.7836 63.1176 84.3333L66.6247 80.9049C66.8325 80.7013 66.9767 80.4561 67.0488 80.1736C67.1209 79.891 67.1166 79.6084 67.0276 79.33C66.9428 79.0516 66.7901 78.8105 66.5696 78.6152C66.349 78.4199 66.0946 78.2911 65.802 78.2371L54.3986 75.993C54.2714 75.9681 54.1399 75.9598 54.0042 75.9681C53.8728 75.9723 53.7455 75.993 53.6183 76.0304C53.4911 76.0678 53.3681 76.1219 53.2536 76.1884C53.1434 76.2548 53.0373 76.3338 52.944 76.4252C52.8507 76.5208 52.7702 76.6205 52.7023 76.7327C52.6302 76.8449 52.5793 76.9613 52.5412 77.086C52.503 77.2106 52.4776 77.3395 52.4733 77.4683C52.4648 77.5971 52.4776 77.7259 52.503 77.8547L54.7718 89.0291C54.8312 89.3117 54.9584 89.5652 55.1577 89.7813C55.357 89.9974 55.5988 90.147 55.8829 90.2301C56.167 90.3173 56.4554 90.3215 56.7438 90.2508C57.0321 90.1802 57.2781 90.0431 57.4901 89.8394L60.8361 86.569C62.6257 88.1315 64.5213 89.5569 66.5229 90.8493C68.5203 92.1416 70.6068 93.2886 72.7738 94.2901C74.945 95.2874 77.1757 96.131 79.4657 96.8125C81.7599 97.4982 84.0881 98.0176 86.4587 98.375C88.8292 98.7324 91.2083 98.9194 93.6043 98.9402C96.0004 98.961 98.3879 98.8113 100.763 98.4955C103.138 98.1797 105.474 97.6977 107.781 97.0494C110.084 96.4053 112.327 95.5991 114.515 94.635C116.699 93.675 118.803 92.5614 120.826 91.3022C122.849 90.0431 124.77 88.6468 126.589 87.1175C128.408 85.5883 130.104 83.9385 131.678 82.1682C133.255 80.398 134.693 78.528 135.995 76.554C137.293 74.5801 138.446 72.5273 139.443 70.3913C140.443 68.2595 141.283 66.0654 141.962 63.813C142.636 61.5566 143.145 59.271 143.488 56.9439C143.828 54.6209 143.997 52.2813 143.997 49.9334C144.01 46.2557 143.599 42.6279 142.767 39.0416C141.936 35.4553 140.702 32.0062 139.074 28.6984L136.164 30.0697ZM57.3459 85.5135L56.1373 79.5627L62.2101 80.7553L57.3459 85.5135Z" fill="#E9E2D1"/>
</g>
<mask id="mask1_656_236" style="mask-type:luminance" maskUnits="userSpaceOnUse" x="44" y="0" width="92" height="72">
<path d="M44 0H135.727V71.2766H44V0Z" fill="white"/>
</mask>
<g mask="url(#mask1_656_236)">
<path d="M51.8328 69.8013C48.7413 63.5264 47.2061 56.9024 47.2273 49.9335C47.2273 47.7393 47.3842 45.5577 47.7065 43.3884C48.0246 41.2192 48.4996 39.0791 49.1314 36.9764C49.7633 34.8737 50.5478 32.825 51.4766 30.8303C52.4095 28.8356 53.4824 26.9157 54.6953 25.0748C55.9081 23.2297 57.2525 21.4844 58.7198 19.8304C60.1913 18.1765 61.7731 16.6306 63.4652 15.2011C65.1615 13.7675 66.9511 12.4626 68.8382 11.2824C70.7253 10.1022 72.6888 9.06333 74.7286 8.15741C76.7684 7.25565 78.8633 6.49934 81.0091 5.88847C83.1592 5.28175 85.3432 4.82464 87.5611 4.52544C89.779 4.22208 92.0054 4.07663 94.2403 4.0891C96.4794 4.10157 98.7058 4.26779 100.919 4.59608C103.129 4.92022 105.309 5.39811 107.45 6.02976C109.596 6.6614 111.682 7.4385 113.71 8.36104C115.741 9.28773 117.692 10.3516 119.562 11.5484C121.436 12.7493 123.213 14.0708 124.892 15.5211L121.377 18.9619C121.165 19.1697 121.025 19.4149 120.948 19.6975C120.876 19.98 120.885 20.2626 120.97 20.541C121.055 20.8195 121.207 21.0563 121.428 21.2517C121.648 21.4511 121.907 21.5758 122.195 21.634L133.599 23.8738C133.73 23.8988 133.862 23.9071 133.993 23.9029C134.124 23.8946 134.256 23.8738 134.383 23.8364C134.51 23.799 134.629 23.745 134.744 23.6785C134.858 23.612 134.96 23.5331 135.053 23.4416C135.151 23.3502 135.231 23.2463 135.299 23.1383C135.367 23.0261 135.418 22.9056 135.46 22.7809C135.499 22.6562 135.52 22.5316 135.524 22.4027C135.532 22.2698 135.524 22.1409 135.499 22.0163L133.225 10.8419C133.17 10.5552 133.039 10.3058 132.84 10.0898C132.64 9.87367 132.399 9.72407 132.114 9.6368C131.83 9.55369 131.546 9.54538 131.258 9.61602C130.969 9.68667 130.719 9.8238 130.507 10.0316L127.178 13.2854C125.389 11.7271 123.489 10.3017 121.487 9.00931C119.49 7.71692 117.403 6.56998 115.232 5.57264C113.065 4.5753 110.834 3.73172 108.54 3.0502C106.25 2.36453 103.918 1.84508 101.547 1.49186C99.1807 1.13448 96.7974 0.947479 94.4014 0.930856C92.0054 0.910079 89.6178 1.05968 87.243 1.3755C84.8725 1.69133 82.5316 2.17338 80.2288 2.82165C77.9219 3.46992 75.6785 4.27194 73.4945 5.23604C71.3063 6.20013 69.2029 7.30967 67.1801 8.56882C65.1572 9.82796 63.2362 11.2242 61.4211 12.7535C59.6018 14.2869 57.9055 15.9367 56.328 17.7028C54.7547 19.4731 53.3171 21.3431 52.0151 23.317C50.7132 25.2909 49.5597 27.3437 48.5632 29.4756C47.5624 31.6115 46.7227 33.8057 46.0442 36.058C45.3656 38.3103 44.8568 40.6 44.5133 42.923C44.1698 45.2501 44.0001 47.5856 44.0001 49.9335C43.9916 53.6112 44.403 57.2432 45.2342 60.8294C46.0654 64.4115 47.2952 67.8607 48.9279 71.1727L51.8328 69.8013ZM130.651 14.3534L131.86 20.3083L125.787 19.1074L130.651 14.3534Z" fill="#E9E2D1"/>
</g>
<path d="M115.405 78.6734C115.486 78.6734 115.566 78.6734 115.642 78.6734C116.423 78.6693 117.186 78.5571 117.932 78.3285C118.675 78.0999 119.366 77.7675 120.01 77.3353C120.651 76.899 121.211 76.3837 121.694 75.7811C122.173 75.1786 122.551 74.5178 122.826 73.8031C123.102 73.0883 123.267 72.3528 123.314 71.5881C123.361 70.8235 123.289 70.0714 123.102 69.3317C122.915 68.5878 122.619 67.8897 122.216 67.2372C121.813 66.5807 121.321 66.003 120.736 65.4961L106.169 52.834C106.47 51.7203 106.61 50.59 106.593 49.443C106.576 48.292 106.406 47.1658 106.075 46.0646C105.745 44.9592 105.27 43.9203 104.65 42.9437C104.027 41.9672 103.285 41.0945 102.424 40.3132C101.559 39.5361 100.605 38.8879 99.5573 38.3684C98.5141 37.8448 97.4157 37.4708 96.2665 37.2423C95.1173 37.0137 93.9553 36.9431 92.7891 37.0262C91.6186 37.1093 90.4821 37.342 89.3753 37.7285C89.2481 37.7742 89.1293 37.8365 89.0148 37.9071C88.9003 37.982 88.7985 38.0692 88.7095 38.169C88.6204 38.2687 88.5441 38.3809 88.4805 38.4972C88.4211 38.6178 88.3745 38.7424 88.3448 38.8712C88.3151 39.0001 88.3024 39.133 88.3066 39.266C88.3109 39.399 88.3278 39.532 88.366 39.6608C88.4042 39.7855 88.4593 39.9101 88.5271 40.0223C88.5992 40.1387 88.6798 40.2426 88.7773 40.3382L92.5601 44.0449L87.997 48.5164L84.2143 44.8096C84.1168 44.714 84.0107 44.635 83.8962 44.5644C83.7775 44.4979 83.6545 44.4439 83.5231 44.4065C83.3916 44.3691 83.2601 44.3483 83.1202 44.3441C82.9845 44.34 82.853 44.3566 82.7173 44.3857C82.5858 44.4148 82.4586 44.4605 82.3356 44.5187C82.2169 44.581 82.1066 44.6558 82.0049 44.7431C81.9031 44.8303 81.814 44.9301 81.7377 45.0423C81.6614 45.1545 81.5978 45.2708 81.5553 45.3955C81.1567 46.4801 80.9192 47.5938 80.8344 48.7408C80.7496 49.8877 80.8259 51.0222 81.0549 52.1525C81.2882 53.2786 81.6698 54.3549 82.2042 55.3772C82.7343 56.4036 83.4001 57.3387 84.1931 58.1864C84.9861 59.03 85.8767 59.7572 86.8732 60.3681C87.8698 60.9748 88.93 61.4402 90.0538 61.7643C91.1818 62.0885 92.3311 62.2589 93.5015 62.2755C94.6762 62.288 95.8297 62.1508 96.962 61.8599L109.884 76.1344C110.583 76.9156 111.414 77.5265 112.373 77.967C113.336 78.4116 114.345 78.6443 115.405 78.6734ZM97.4836 58.4731C97.297 58.4731 97.1189 58.5022 96.9408 58.5604C96.5676 58.6934 96.1902 58.8014 95.8 58.8887C95.4141 58.9718 95.024 59.0341 94.6296 59.0715C94.2309 59.1089 93.8365 59.1256 93.4379 59.1131C93.0435 59.1048 92.6491 59.0715 92.2548 59.0134C91.8646 58.9552 91.4745 58.8762 91.0928 58.7723C90.7111 58.6684 90.3379 58.5396 89.969 58.39C89.6043 58.2404 89.2481 58.07 88.9046 57.8747C88.5568 57.6836 88.226 57.4716 87.908 57.2389C87.5899 57.0062 87.2888 56.7527 87.0005 56.4826C86.7163 56.2166 86.4449 55.9299 86.1947 55.6266C85.9445 55.3232 85.7155 55.0074 85.5035 54.6791C85.2957 54.3508 85.1049 54.01 84.9395 53.6568C84.7698 53.3036 84.6256 52.942 84.5027 52.5722C84.3797 52.2024 84.2821 51.8242 84.2101 51.4419C84.1337 51.0596 84.0828 50.6731 84.0574 50.2866C84.0319 49.9002 84.0277 49.5095 84.0531 49.1231L86.8563 51.8741C87.0089 52.0154 87.1871 52.1234 87.3821 52.2024C87.5814 52.2772 87.785 52.3187 87.997 52.3187C88.2091 52.3187 88.4126 52.2772 88.6119 52.2024C88.807 52.1234 88.9851 52.0154 89.1378 51.8741L95.9824 45.167C96.1308 45.0174 96.2495 44.847 96.3301 44.6517C96.4107 44.4605 96.4531 44.2569 96.4531 44.0491C96.4531 43.8372 96.4107 43.6377 96.3301 43.4424C96.2495 43.2471 96.1308 43.0767 95.9824 42.9312L93.175 40.1803C93.5694 40.1595 93.968 40.1595 94.3624 40.1844C94.761 40.2093 95.1512 40.2592 95.5413 40.334C95.9315 40.4088 96.3174 40.5044 96.6948 40.6249C97.0722 40.7413 97.4412 40.8825 97.8016 41.0488C98.1621 41.215 98.5099 41.3978 98.8449 41.6056C99.1799 41.8092 99.5022 42.0378 99.8118 42.283C100.121 42.5282 100.41 42.79 100.685 43.0725C100.961 43.351 101.215 43.6502 101.453 43.9618C101.695 44.2735 101.911 44.5976 102.106 44.9342C102.301 45.2708 102.479 45.6199 102.632 45.9814C102.785 46.3388 102.912 46.7087 103.018 47.0827C103.128 47.4567 103.209 47.8348 103.268 48.2213C103.327 48.6078 103.361 48.9942 103.37 49.3807C103.378 49.7713 103.366 50.1578 103.327 50.5443C103.289 50.9349 103.226 51.3172 103.137 51.6954C103.052 52.0777 102.941 52.4475 102.806 52.8132C102.695 53.1166 102.683 53.4282 102.763 53.7399C102.844 54.0516 103.009 54.3134 103.255 54.5253L118.598 67.8606C118.827 68.0601 119.031 68.2761 119.213 68.5172C119.396 68.754 119.548 69.0117 119.68 69.2818C119.807 69.5519 119.909 69.8303 119.977 70.1212C120.049 70.4121 120.087 70.7072 120.099 71.0064C120.108 71.3014 120.087 71.6006 120.032 71.8915C119.981 72.1865 119.896 72.4733 119.786 72.7476C119.671 73.026 119.531 73.2878 119.366 73.5371C119.196 73.7864 119.005 74.0192 118.789 74.2311C118.361 74.6591 117.856 74.9874 117.284 75.2077C116.711 75.4321 116.117 75.5318 115.503 75.5069C114.883 75.4944 114.298 75.3573 113.743 75.0996C113.183 74.8461 112.704 74.4929 112.297 74.0399L98.688 59.0009C98.3699 58.6477 97.967 58.469 97.4836 58.4731Z" fill="#E9E2D1"/>
<path d="M116.783 57.8373C117.088 56.9979 117.347 56.1419 117.555 55.2734C117.763 54.4007 117.92 53.5239 118.026 52.6346C118.132 51.7494 118.191 50.8601 118.195 49.9667C118.2 49.0732 118.153 48.1798 118.055 47.2946C117.958 46.4053 117.809 45.5244 117.61 44.6517C117.411 43.7832 117.165 42.923 116.868 42.0794C116.571 41.2358 116.228 40.4088 115.833 39.6026C115.443 38.7965 115.006 38.0111 114.523 37.2547C114.044 36.4984 113.518 35.767 112.954 35.0648C112.385 34.3666 111.783 33.6976 111.139 33.0659C110.498 32.4301 109.82 31.8359 109.112 31.2749C108.399 30.7139 107.661 30.1986 106.889 29.7207C106.118 29.2428 105.325 28.8064 104.502 28.42C103.683 28.0294 102.844 27.6844 101.983 27.3894C101.126 27.0902 100.253 26.8409 99.3621 26.6414C98.4758 26.4419 97.5768 26.2882 96.6735 26.1884C95.766 26.0845 94.8585 26.0347 93.9467 26.0305C93.0349 26.0305 92.1274 26.0804 91.2199 26.176C90.3166 26.2757 89.4176 26.4253 88.527 26.6206C87.6407 26.8201 86.7671 27.0653 85.9062 27.3603C85.0454 27.6554 84.2015 27.9961 83.383 28.3826C82.5603 28.769 81.763 29.2012 80.9912 29.675C80.2194 30.1487 79.4773 30.664 78.7648 31.2208C78.0524 31.7777 77.3738 32.3719 76.7293 33.0036C76.0847 33.6352 75.4782 34.3043 74.91 35.0024C74.3417 35.7006 73.8159 36.4278 73.3282 37.1841C72.8447 37.9404 72.4079 38.7217 72.0093 39.5278C71.6149 40.3299 71.2672 41.1568 70.9703 42.0004C70.6692 42.844 70.419 43.7001 70.2155 44.5727C70.0162 45.4412 69.8635 46.3222 69.7617 47.2115C69.6599 48.0967 69.6133 48.9901 69.6133 49.8836C69.6133 50.777 69.6684 51.6663 69.7702 52.5514C69.8762 53.4407 70.0289 54.3217 70.2367 55.1902C70.4402 56.0629 70.6947 56.919 70.9958 57.7584C71.3011 58.602 71.6488 59.4248 72.0475 60.231C72.4461 61.033 72.8871 61.8142 73.3748 62.5664C73.8625 63.3227 74.3926 64.0499 74.9609 64.7439C75.5334 65.4421 76.1398 66.1028 76.7886 66.7344C77.4375 67.3619 78.116 67.9562 78.8327 68.5089C79.5451 69.0657 80.2915 69.5769 81.0633 70.0506C81.8394 70.5202 82.6366 70.9482 83.4593 71.3347C84.282 71.717 85.1217 72.0577 85.9868 72.3486C86.8477 72.6395 87.7213 72.8806 88.6118 73.0759C89.5024 73.2712 90.4014 73.4166 91.3047 73.5122C92.2122 73.6078 93.1197 73.6535 94.0315 73.6493C94.9433 73.641 95.8508 73.587 96.7583 73.4831C97.6616 73.3792 98.5606 73.2255 99.4469 73.0218C100.333 72.8182 101.207 72.5647 102.063 72.2655L99.7311 69.6849C98.9932 69.8927 98.2426 70.0631 97.4792 70.1919C96.7201 70.3166 95.9568 70.4038 95.185 70.4495C94.4174 70.4952 93.6456 70.4994 92.878 70.462C92.1062 70.4204 91.3429 70.3415 90.5795 70.221C89.8204 70.1046 89.0656 69.9426 88.3235 69.7389C87.5813 69.5395 86.8519 69.2984 86.1352 69.02C85.4185 68.7374 84.7188 68.4216 84.0403 68.0642C83.3618 67.711 82.7002 67.3204 82.0641 66.8924C81.428 66.4685 80.8173 66.0072 80.2321 65.5169C79.6469 65.0265 79.0914 64.5029 78.5655 63.9502C78.0354 63.3975 77.5435 62.8199 77.0812 62.2173C76.619 61.6106 76.1907 60.9831 75.8005 60.3307C75.4104 59.6824 75.0542 59.0092 74.7403 58.3194C74.4223 57.6337 74.1466 56.9273 73.9092 56.2084C73.6717 55.4894 73.4766 54.7622 73.3197 54.0184C73.167 53.2787 73.0525 52.5348 72.9804 51.7827C72.9083 51.0305 72.8787 50.2742 72.8914 49.5179C72.9041 48.7657 72.9592 48.0094 73.0568 47.2614C73.1543 46.5134 73.2943 45.7695 73.4724 45.034C73.6547 44.3026 73.8752 43.5795 74.1382 42.8689C74.3968 42.1542 74.6979 41.4602 75.0372 40.7828C75.3765 40.1055 75.7539 39.4447 76.1695 38.8089C76.5808 38.169 77.0303 37.5581 77.5096 36.968C77.993 36.3779 78.5061 35.8169 79.0532 35.2808C79.596 34.7448 80.1685 34.2419 80.7707 33.7724C81.3729 33.2986 82.0005 32.8581 82.6493 32.455C83.3024 32.0478 83.9725 31.6821 84.6637 31.3455C85.3592 31.0131 86.0674 30.7222 86.7925 30.4645C87.5177 30.2069 88.2556 29.9908 89.002 29.8121C89.7526 29.6376 90.5117 29.5004 91.275 29.4049C92.0384 29.3093 92.8059 29.2552 93.5777 29.2428C94.3496 29.2303 95.1171 29.2594 95.8847 29.33C96.6523 29.4007 97.4156 29.5129 98.1705 29.6625C98.9253 29.8163 99.6717 30.0074 100.405 30.2401C101.139 30.4728 101.856 30.7471 102.56 31.0546C103.264 31.3663 103.946 31.7112 104.608 32.0935C105.274 32.48 105.914 32.8955 106.533 33.3485C107.148 33.8015 107.742 34.2877 108.302 34.803C108.866 35.3182 109.4 35.8626 109.9 36.4361C110.401 37.0096 110.872 37.6121 111.304 38.2355C111.741 38.8588 112.139 39.5029 112.5 40.172C112.865 40.8369 113.187 41.5225 113.471 42.2248C113.759 42.9271 114.005 43.6419 114.209 44.3691C114.417 45.0963 114.578 45.836 114.701 46.5799C114.824 47.3279 114.904 48.0759 114.943 48.8322C114.981 49.5885 114.977 50.3407 114.934 51.097C114.888 51.8492 114.798 52.6013 114.667 53.3452C114.54 54.089 114.366 54.8245 114.154 55.5518L116.783 57.8373Z" fill="#E9E2D1"/>
<path d="M116.512 71.9956C116.661 71.8501 116.78 71.6797 116.86 71.4844C116.941 71.2891 116.983 71.0896 116.983 70.8777C116.983 70.6699 116.941 70.4663 116.86 70.2751C116.78 70.0798 116.661 69.9095 116.508 69.764C116.36 69.6144 116.186 69.4981 115.986 69.4191C115.787 69.3401 115.584 69.2986 115.372 69.2986C115.155 69.2986 114.952 69.3401 114.752 69.4191C114.553 69.4981 114.379 69.6144 114.231 69.764C114.078 69.9095 113.964 70.0798 113.879 70.2751C113.798 70.4663 113.756 70.6699 113.756 70.8777C113.756 71.0896 113.798 71.2891 113.879 71.4844C113.959 71.6797 114.078 71.8501 114.227 71.9956C114.379 72.1452 114.553 72.2615 114.752 72.3405C114.952 72.4194 115.155 72.461 115.372 72.461C115.584 72.461 115.791 72.4194 115.986 72.3405C116.186 72.2615 116.36 72.1452 116.512 71.9956Z" fill="#E9E2D1"/>
<path d="M124.743 57.8375C125.057 57.8375 125.363 57.8084 125.668 57.7502C125.973 57.6879 126.27 57.6006 126.558 57.4843C126.847 57.3679 127.118 57.2225 127.377 57.0521C127.636 56.8859 127.873 56.6906 128.094 56.4745C128.314 56.2584 128.513 56.0257 128.683 55.7722C128.857 55.5187 129.005 55.2486 129.124 54.9701C129.243 54.6876 129.332 54.3967 129.391 54.0975C129.455 53.7983 129.485 53.4949 129.485 53.1916V46.6798C129.485 46.3722 129.455 46.0689 129.391 45.7738C129.332 45.4746 129.243 45.1838 129.124 44.9012C129.005 44.6186 128.857 44.3526 128.683 44.0991C128.513 43.8457 128.314 43.6088 128.094 43.3927C127.873 43.1766 127.636 42.9854 127.377 42.8151C127.118 42.6447 126.847 42.5034 126.558 42.387C126.27 42.2707 125.973 42.1793 125.668 42.1211C125.363 42.0588 125.057 42.0297 124.743 42.0297C124.404 42.0338 124.095 41.9424 123.819 41.7512C123.543 41.5601 123.348 41.3066 123.238 40.9908C122.687 39.2662 121.983 37.6081 121.126 36.0082C120.978 35.709 120.931 35.3932 120.986 35.0649C121.045 34.7366 121.194 34.454 121.44 34.2213L121.47 34.1881C121.686 33.972 121.881 33.7393 122.051 33.4816C122.22 33.2281 122.364 32.9622 122.479 32.6796C122.598 32.4012 122.682 32.1103 122.742 31.8111C122.801 31.516 122.831 31.2127 122.827 30.9093C122.827 30.606 122.797 30.3068 122.733 30.0117C122.674 29.7125 122.581 29.4216 122.462 29.1432C122.343 28.8648 122.199 28.5988 122.029 28.3453C121.855 28.0918 121.66 27.8591 121.44 27.643L116.741 23.0387C116.292 22.6148 115.774 22.2907 115.193 22.0621C114.616 21.8335 114.014 21.7172 113.387 21.7172C112.763 21.7172 112.161 21.8335 111.58 22.0621C110.999 22.2907 110.482 22.6148 110.032 23.0387C109.795 23.2755 109.506 23.4251 109.171 23.4791C108.836 23.5373 108.514 23.4875 108.209 23.342C106.58 22.4984 104.884 21.8128 103.124 21.2725C102.806 21.1645 102.547 20.9733 102.352 20.7032C102.157 20.4331 102.064 20.1339 102.064 19.8015C102.064 19.4981 102.034 19.1947 101.975 18.8955C101.911 18.5963 101.822 18.3054 101.703 18.027C101.585 17.7444 101.436 17.4743 101.267 17.2208C101.093 16.9674 100.898 16.7346 100.677 16.5185C100.457 16.3025 100.215 16.1113 99.9562 15.9409C99.6975 15.7705 99.4261 15.6293 99.1377 15.5129C98.8494 15.3924 98.5525 15.3051 98.2514 15.2469C97.9461 15.1846 97.6365 15.1555 97.3269 15.1555H90.6775C90.3636 15.1555 90.0541 15.1888 89.7445 15.2511C89.4392 15.3093 89.1381 15.4007 88.8497 15.5212C88.5613 15.6417 88.2857 15.7872 88.027 15.9575C87.7683 16.1321 87.5266 16.3274 87.3061 16.5476C87.0855 16.7637 86.8905 17.0006 86.7166 17.2582C86.547 17.5159 86.3985 17.786 86.284 18.0727C86.1653 18.3595 86.0762 18.6504 86.0211 18.9537C85.9617 19.2571 85.9321 19.5604 85.9363 19.8679C85.9405 20.1796 85.8515 20.4664 85.6691 20.7198C85.4868 20.9775 85.2451 21.1562 84.944 21.2559C83.1628 21.8003 81.4453 22.4943 79.7915 23.3462C79.4861 23.4958 79.1638 23.5415 78.8246 23.4833C78.4895 23.4251 78.2012 23.2714 77.9637 23.0303C77.5142 22.6065 76.9968 22.2823 76.4201 22.0538C75.8391 21.8294 75.2369 21.713 74.6135 21.713C73.9859 21.713 73.3837 21.8294 72.8069 22.0538C72.226 22.2823 71.7086 22.6065 71.2591 23.0303L66.5603 27.643C66.3398 27.8591 66.1447 28.0918 65.9751 28.3453C65.8012 28.5988 65.657 28.8648 65.5383 29.1432C65.4196 29.4216 65.3305 29.7125 65.2669 30.0076C65.2075 30.3068 65.1736 30.606 65.1736 30.9093C65.1736 31.2127 65.2033 31.5119 65.2584 31.8111C65.3178 32.1103 65.4068 32.397 65.5213 32.6796C65.6401 32.9622 65.78 33.2281 65.9497 33.4816C66.1193 33.7351 66.3144 33.972 66.5306 34.1881L66.5646 34.2213C66.8063 34.454 66.959 34.7366 67.0141 35.0649C67.0735 35.3932 67.0268 35.709 66.8741 36.0082C66.0175 37.6081 65.3135 39.2662 64.7622 40.9908C64.652 41.3066 64.4569 41.5601 64.1813 41.7512C63.9056 41.9424 63.596 42.0338 63.2568 42.0297C62.9472 42.0297 62.6376 42.0588 62.3323 42.1211C62.027 42.1793 61.7301 42.2707 61.4417 42.387C61.1576 42.5034 60.882 42.6447 60.6233 42.8151C60.3646 42.9854 60.1271 43.1766 59.9066 43.3927C59.6861 43.6088 59.491 43.8457 59.3171 44.0991C59.1433 44.3526 58.9991 44.6186 58.8803 44.9012C58.7573 45.1838 58.6683 45.4746 58.6089 45.7738C58.5496 46.0689 58.5156 46.3722 58.5156 46.6798V53.1916C58.5156 53.4949 58.5496 53.7983 58.6089 54.0975C58.6683 54.3967 58.7573 54.6876 58.8803 54.9701C58.9991 55.2486 59.1433 55.5187 59.3171 55.7722C59.491 56.0257 59.6861 56.2584 59.9066 56.4745C60.1271 56.6906 60.3646 56.8859 60.6233 57.0521C60.882 57.2225 61.1576 57.3679 61.4417 57.4843C61.7301 57.6006 62.027 57.6879 62.3323 57.7502C62.6376 57.8084 62.9472 57.8375 63.2568 57.8375C63.596 57.8333 63.9056 57.9289 64.1813 58.1201C64.4612 58.3112 64.652 58.5647 64.7622 58.8805C65.3135 60.601 66.0175 62.2632 66.8741 63.8589C67.0268 64.1581 67.0735 64.474 67.0141 64.8023C66.959 65.1305 66.8063 65.4131 66.5646 65.6458L66.5306 65.6791C66.3144 65.8952 66.1193 66.132 65.9497 66.3855C65.78 66.639 65.6401 66.905 65.5213 67.1876C65.4068 67.4701 65.3178 67.7569 65.2584 68.0561C65.199 68.3553 65.1736 68.6545 65.1736 68.9578C65.1736 69.2612 65.2075 69.5604 65.2669 69.8596C65.3305 70.1588 65.4196 70.4455 65.5383 70.724C65.657 71.0065 65.8012 71.2725 65.9751 71.526C66.1447 71.7753 66.3398 72.008 66.5603 72.2241L71.2591 76.8327C71.7086 77.2565 72.226 77.5807 72.8069 77.8092C73.3879 78.0378 73.9901 78.15 74.6135 78.15C75.2411 78.15 75.8433 78.0378 76.4201 77.8092C77.001 77.5807 77.5184 77.2565 77.9679 76.8327C78.2097 76.5916 78.4938 76.4462 78.8288 76.3922C79.1638 76.334 79.4861 76.3797 79.7915 76.5293C81.4241 77.3687 83.1204 78.0586 84.8761 78.5988C85.1984 78.7068 85.4529 78.8938 85.6479 79.1639C85.843 79.4341 85.9405 79.7333 85.9363 80.0657C85.9363 80.3691 85.966 80.6724 86.0296 80.9716C86.089 81.2708 86.178 81.5617 86.2968 81.8443C86.4155 82.1269 86.5639 82.3928 86.7378 82.6463C86.9074 82.8998 87.1067 83.1367 87.3273 83.3486C87.5478 83.5647 87.7853 83.76 88.044 83.9304C88.3026 84.0966 88.574 84.2421 88.8624 84.3584C89.1508 84.4748 89.4476 84.562 89.753 84.6244C90.0583 84.6826 90.3636 84.7116 90.6775 84.7158H97.3269C97.6365 84.7116 97.9461 84.6826 98.2514 84.6244C98.5525 84.562 98.8494 84.4748 99.1377 84.3584C99.4261 84.2421 99.6975 84.0966 99.9562 83.9304C100.215 83.76 100.457 83.5647 100.677 83.3486C100.898 83.1367 101.093 82.8998 101.267 82.6463C101.436 82.3928 101.585 82.1269 101.703 81.8443C101.822 81.5617 101.911 81.2708 101.975 80.9716C102.034 80.6724 102.064 80.3691 102.064 80.0657C102.06 79.7333 102.157 79.4341 102.352 79.1598C102.547 78.8897 102.802 78.6985 103.124 78.5905C104.307 78.2165 105.461 77.776 106.593 77.2648L104.354 74.7923C103.633 75.0832 102.899 75.3491 102.166 75.5735C101.678 75.7231 101.228 75.9434 100.813 76.2384C100.401 76.5293 100.045 76.8784 99.7442 77.2815C99.4473 77.6846 99.2183 78.125 99.0657 78.6029C98.9087 79.0767 98.8324 79.567 98.8409 80.0657C98.8409 80.261 98.8027 80.4522 98.7222 80.635C98.6458 80.8179 98.5356 80.9758 98.3956 81.1171C98.2514 81.2542 98.0903 81.3622 97.9037 81.437C97.7171 81.5118 97.5263 81.5534 97.3269 81.5534H90.6775C90.4739 81.5534 90.2831 81.5118 90.0965 81.437C89.9099 81.3622 89.7487 81.2542 89.6045 81.1171C89.4646 80.9758 89.3543 80.8179 89.278 80.635C89.2017 80.4522 89.1635 80.261 89.1635 80.0657C89.1677 79.567 89.0914 79.0767 88.9387 78.6029C88.7818 78.125 88.5571 77.6846 88.256 77.2815C87.9549 76.8784 87.5987 76.5293 87.1873 76.2384C86.7717 75.9434 86.3222 75.7231 85.8388 75.5735C84.2654 75.0915 82.7515 74.4764 81.2927 73.7243C80.6057 73.3669 79.8763 73.1924 79.1002 73.1924C77.7644 73.1965 76.6236 73.662 75.6864 74.5928C75.538 74.7299 75.3768 74.8338 75.1902 74.9045C75.0037 74.9793 74.8128 75.0167 74.6135 75.0167C74.4142 75.0167 74.2191 74.9793 74.0325 74.9045C73.8502 74.8338 73.6848 74.7299 73.5406 74.5928L68.8376 69.9884C68.6977 69.8513 68.5874 69.6892 68.5111 69.5064C68.4347 69.3235 68.3966 69.1365 68.3966 68.9371C68.3966 68.7417 68.4347 68.5506 68.5111 68.3677C68.5874 68.1891 68.6977 68.027 68.8376 67.8857C68.8503 67.8774 68.863 67.8649 68.8715 67.8525C69.232 67.5034 69.5246 67.1044 69.7536 66.6598C69.9826 66.2193 70.1395 65.7497 70.2158 65.2594C70.2922 64.769 70.2879 64.2745 70.2074 63.7841C70.1225 63.2938 69.9614 62.8284 69.7282 62.3879C68.9606 60.9583 68.333 59.4748 67.841 57.9372C67.6884 57.4593 67.4594 57.0188 67.1625 56.6116C66.8657 56.2085 66.5094 55.8594 66.0981 55.5644C65.6825 55.2735 65.2372 55.0491 64.7495 54.8995C64.2661 54.7457 63.7657 54.6709 63.2568 54.6793C63.0575 54.6751 62.8624 54.6377 62.6758 54.5629C62.4934 54.4881 62.3281 54.3801 62.1881 54.2429C62.0439 54.1016 61.9337 53.9396 61.8573 53.7609C61.781 53.578 61.7428 53.3869 61.7428 53.1916V46.6798C61.7428 46.4803 61.781 46.2933 61.8573 46.1104C61.9337 45.9276 62.0439 45.7655 62.1881 45.6284C62.3281 45.4871 62.4934 45.3832 62.6758 45.3043C62.8624 45.2295 63.0575 45.1921 63.2568 45.1921C63.7657 45.1962 64.2661 45.1256 64.7495 44.9718C65.2372 44.8222 65.6825 44.5978 66.0981 44.3069C66.5094 44.0119 66.8657 43.6628 67.1625 43.2556C67.4594 42.8525 67.6884 42.412 67.841 41.9341C68.333 40.3924 68.9648 38.9088 69.7324 37.4793C69.9656 37.0388 70.1225 36.5734 70.2074 36.083C70.2922 35.5927 70.2922 35.1023 70.2158 34.612C70.1395 34.1216 69.9868 33.652 69.7578 33.2074C69.5288 32.7669 69.2362 32.3679 68.8758 32.0189L68.8418 31.9815C68.6977 31.8443 68.5916 31.6823 68.5111 31.4994C68.4347 31.3166 68.3966 31.1296 68.3966 30.9301C68.3966 30.7348 68.4347 30.5436 68.5111 30.3608C68.5916 30.1821 68.6977 30.02 68.8418 29.8787L73.5406 25.2744C73.6848 25.1372 73.8502 25.0333 74.0325 24.9585C74.2191 24.8837 74.4142 24.8463 74.6135 24.8463C74.8128 24.8463 75.0079 24.8837 75.1945 24.9585C75.3768 25.0333 75.5422 25.1372 75.6864 25.2744C76.0469 25.6317 76.454 25.9226 76.9077 26.1512C77.3615 26.3797 77.8407 26.5335 78.3454 26.6125C78.85 26.6914 79.3547 26.6873 79.8593 26.6083C80.364 26.5252 80.8432 26.3714 81.2927 26.1387C82.7727 25.3782 84.3079 24.7549 85.9024 24.2687C86.3816 24.1191 86.8269 23.8989 87.234 23.608C87.6453 23.3171 87.9973 22.9722 88.2899 22.5691C88.5825 22.166 88.803 21.7296 88.9557 21.2559C89.1041 20.7822 89.172 20.3001 89.1635 19.8015C89.1635 19.6061 89.2017 19.415 89.278 19.2363C89.3543 19.0535 89.4646 18.8914 89.6045 18.7543C89.7487 18.613 89.9099 18.5049 90.0965 18.4301C90.2831 18.3553 90.4739 18.3179 90.6775 18.3179H97.3269C97.5263 18.3179 97.7171 18.3553 97.9037 18.4301C98.0903 18.5049 98.2514 18.613 98.3956 18.7543C98.5356 18.8914 98.6458 19.0535 98.7222 19.2363C98.8027 19.415 98.8409 19.6061 98.8409 19.8015C98.8324 20.3043 98.9087 20.7905 99.0657 21.2684C99.2183 21.7421 99.4473 22.1826 99.7442 22.5857C100.045 22.9929 100.401 23.3379 100.813 23.6329C101.228 23.9238 101.678 24.144 102.166 24.2978C103.735 24.7798 105.249 25.3949 106.707 26.147C107.161 26.3756 107.64 26.5335 108.145 26.6125C108.65 26.6956 109.154 26.6956 109.659 26.6166C110.164 26.5377 110.643 26.3839 111.097 26.1553C111.555 25.9268 111.958 25.6317 112.318 25.2744C112.462 25.1414 112.628 25.0375 112.81 24.9627C112.997 24.892 113.192 24.8546 113.391 24.8546C113.59 24.8546 113.781 24.892 113.968 24.9627C114.154 25.0375 114.32 25.1414 114.464 25.2744L119.163 29.8787C119.302 30.02 119.413 30.1821 119.489 30.3608C119.565 30.5436 119.604 30.7348 119.604 30.9301C119.604 31.1296 119.565 31.3166 119.489 31.4994C119.413 31.6823 119.302 31.8443 119.163 31.9815C119.15 31.9939 119.141 32.0022 119.129 32.0147C118.772 32.3679 118.476 32.7627 118.247 33.2074C118.018 33.652 117.865 34.1174 117.789 34.612C117.708 35.1023 117.712 35.5927 117.797 36.083C117.878 36.5734 118.039 37.0388 118.272 37.4793C119.04 38.9088 119.667 40.3924 120.159 41.9341C120.316 42.412 120.541 42.8525 120.838 43.2556C121.135 43.6628 121.491 44.0119 121.906 44.3028C122.318 44.5978 122.767 44.8181 123.251 44.9718C123.738 45.1214 124.234 45.1962 124.743 45.1921C124.947 45.1921 125.138 45.2295 125.324 45.3043C125.511 45.3832 125.672 45.4871 125.816 45.6284C125.956 45.7655 126.066 45.9276 126.143 46.1104C126.219 46.2933 126.257 46.4803 126.257 46.6798V53.1916C126.257 53.3952 126.215 53.5863 126.134 53.7733C126.05 53.9562 125.935 54.1183 125.787 54.2595C125.638 54.4008 125.469 54.5047 125.273 54.5795C125.083 54.6502 124.883 54.6834 124.676 54.6793C124.179 54.6751 123.692 54.7499 123.217 54.9037C122.742 55.0533 122.301 55.2693 121.898 55.5602C121.491 55.847 121.143 56.1877 120.85 56.5825C120.554 56.9773 120.333 57.4095 120.176 57.8749C119.943 58.6187 119.667 59.3543 119.37 60.0815L121.885 62.2673C122.415 61.1412 122.873 59.9859 123.259 58.8057C123.369 58.5024 123.564 58.2614 123.84 58.0827C124.112 57.904 124.417 57.8209 124.743 57.8375Z" fill="#E9E2D1"/>
<path d="M0 119.839H10.125V122.355H3.1875V125.163H9.70833V127.496H3.1875V130.395H10.3333V132.912H0V119.839Z" fill="#E9E2D1"/>
<path d="M14.7129 127.77L11.2962 123.011H14.6087L16.6296 126.093L18.6504 123.011H21.9629L18.5462 127.77L22.1712 132.912H18.8796L16.6296 129.557L14.3796 132.912H11.0879L14.7129 127.77Z" fill="#E9E2D1"/>
<path d="M27.7103 132.912C26.528 132.912 25.6478 132.665 25.0645 132.164C24.4915 131.667 24.2103 130.952 24.2103 130.013V125.436H22.377V123.011H24.2103L24.627 120.404H27.1895V123.011H29.8561V125.436H27.1895V129.557C27.1895 129.839 27.2832 130.063 27.4811 130.231C27.6738 130.405 27.929 130.487 28.252 130.487H29.8561V132.912H27.7103Z" fill="#E9E2D1"/>
<path d="M36.9967 133.094C36.1478 133.094 35.377 132.975 34.6842 132.747C34.002 132.52 33.4186 132.191 32.9342 131.763C32.4603 131.325 32.0905 130.792 31.8301 130.158C31.5801 129.516 31.4551 128.786 31.4551 127.97C31.4551 127.145 31.5801 126.416 31.8301 125.783C32.0905 125.154 32.4603 124.616 32.9342 124.178C33.4186 123.74 34.002 123.408 34.6842 123.175C35.377 122.947 36.1478 122.829 36.9967 122.829C37.8145 122.829 38.5592 122.952 39.2259 123.194C39.903 123.44 40.4811 123.786 40.9551 124.233C41.4238 124.67 41.7884 125.195 42.0384 125.801C42.2988 126.398 42.4342 127.054 42.4342 127.77C42.4342 127.916 42.4238 128.053 42.4134 128.171C42.3978 128.294 42.3822 128.403 42.3717 128.499C42.3561 128.622 42.3405 128.727 42.3301 128.809H34.5384C34.6634 129.37 34.9134 129.839 35.2884 130.213C35.6738 130.578 36.2467 130.76 36.9967 130.76C37.5801 130.76 38.0072 130.683 38.2884 130.523C38.5645 130.354 38.8092 130.122 39.0176 129.83H42.2259C42.1009 130.259 41.903 130.664 41.6426 131.052C41.377 131.444 41.028 131.795 40.6009 132.109C40.1842 132.415 39.6738 132.656 39.0801 132.839C38.4811 133.007 37.7884 133.094 36.9967 133.094ZM39.3509 126.84C39.2936 126.635 39.2051 126.434 39.0801 126.238C38.9551 126.033 38.7936 125.851 38.6009 125.691C38.4186 125.523 38.1895 125.395 37.9134 125.309C37.6478 125.213 37.3405 125.163 36.9967 125.163C36.2988 125.163 35.7572 125.327 35.3717 125.655C34.9811 125.974 34.7051 126.366 34.5384 126.84H39.3509Z" fill="#E9E2D1"/>
<path d="M44.4512 123.011H47.0137L47.347 124.142H47.4512C47.8105 123.718 48.248 123.394 48.7637 123.175C49.2741 122.947 49.8314 122.829 50.4303 122.829C51.0397 122.829 51.6022 122.92 52.1178 123.102C52.6283 123.285 53.0658 123.554 53.4303 123.905C53.7897 124.246 54.0762 124.666 54.2845 125.163C54.4928 125.65 54.597 126.211 54.597 126.84V132.912H51.597V127.223C51.597 126.557 51.4147 126.047 51.0553 125.691C50.7064 125.34 50.2116 125.163 49.5762 125.163C48.9355 125.163 48.4199 125.359 48.0345 125.746C47.6439 126.124 47.4512 126.617 47.4512 127.223V132.912H44.4512V123.011Z" fill="#E9E2D1"/>
<path d="M61.2025 133.094C60.3796 133.094 59.6712 133.007 59.0775 132.839C58.4785 132.67 57.9785 132.433 57.5775 132.128C57.1712 131.827 56.8587 131.48 56.64 131.088C56.4316 130.701 56.2754 130.281 56.1816 129.83H59.39C59.4421 130.063 59.6243 130.277 59.9316 130.468C60.2337 130.664 60.6608 130.76 61.2025 130.76C61.9368 130.76 62.4368 130.687 62.7025 130.541C62.9785 130.386 63.1191 130.209 63.1191 130.013C63.1191 129.771 62.9577 129.593 62.64 129.484C62.3171 129.365 61.916 129.26 61.4316 129.174C60.9577 129.092 60.4368 129.001 59.8691 128.9C59.3118 128.805 58.791 128.641 58.3066 128.408C57.8171 128.18 57.416 127.861 57.0983 127.46C56.7754 127.05 56.6191 126.503 56.6191 125.819C56.6191 125.395 56.7129 125.008 56.9108 124.652C57.1191 124.287 57.4108 123.973 57.7858 123.704C58.1712 123.44 58.6504 123.225 59.2233 123.066C59.791 122.911 60.4525 122.829 61.2025 122.829C61.9941 122.829 62.6816 122.915 63.265 123.084C63.8483 123.244 64.3327 123.462 64.7233 123.74C65.1243 124.023 65.4316 124.351 65.64 124.725C65.8587 125.09 66.0202 125.486 66.1191 125.91H62.9108C62.8535 125.728 62.7025 125.559 62.4525 125.4C62.2129 125.245 61.7962 125.163 61.2025 125.163C60.7129 125.163 60.3379 125.231 60.0775 125.363C59.8275 125.486 59.7025 125.637 59.7025 125.819C59.7025 126.065 59.8587 126.247 60.1816 126.366C60.515 126.475 60.916 126.576 61.39 126.658C61.8743 126.744 62.3952 126.84 62.9525 126.949C63.5202 127.05 64.0462 127.214 64.5358 127.442C65.0202 127.661 65.4212 127.98 65.7441 128.39C66.0618 128.791 66.2233 129.333 66.2233 130.013C66.2233 130.414 66.14 130.797 65.9733 131.161C65.8066 131.526 65.5254 131.854 65.14 132.146C64.765 132.437 64.2493 132.67 63.5983 132.839C62.9577 133.007 62.1608 133.094 61.2025 133.094Z" fill="#E9E2D1"/>
<path d="M68.0189 123.011H71.0189V132.912H68.0189V123.011ZM69.5189 121.99C69.0293 121.99 68.623 121.853 68.2897 121.571C67.9668 121.279 67.8105 120.924 67.8105 120.495C67.8105 120.071 67.9668 119.72 68.2897 119.438C68.623 119.146 69.0293 119 69.5189 119C70.0033 119 70.4043 119.146 70.7272 119.438C71.0605 119.72 71.2272 120.071 71.2272 120.495C71.2272 120.924 71.0605 121.279 70.7272 121.571C70.4043 121.853 70.0033 121.99 69.5189 121.99Z" fill="#E9E2D1"/>
<path d="M72.293 123.011H75.5013L78.043 130.213H78.168L80.7096 123.011H83.918L79.9805 132.912H76.2305L72.293 123.011Z" fill="#E9E2D1"/>
<path d="M90.2077 133.094C89.3587 133.094 88.5879 132.975 87.8952 132.747C87.2129 132.52 86.6296 132.191 86.1452 131.763C85.6712 131.325 85.3014 130.792 85.041 130.158C84.791 129.516 84.666 128.786 84.666 127.97C84.666 127.145 84.791 126.416 85.041 125.783C85.3014 125.154 85.6712 124.616 86.1452 124.178C86.6296 123.74 87.2129 123.408 87.8952 123.175C88.5879 122.947 89.3587 122.829 90.2077 122.829C91.0254 122.829 91.7702 122.952 92.4368 123.194C93.1139 123.44 93.6921 123.786 94.166 124.233C94.6348 124.67 94.9993 125.195 95.2493 125.801C95.5098 126.398 95.6452 127.054 95.6452 127.77C95.6452 127.916 95.6348 128.053 95.6243 128.171C95.6087 128.294 95.5931 128.403 95.5827 128.499C95.5671 128.622 95.5514 128.727 95.541 128.809H87.7493C87.8743 129.37 88.1243 129.839 88.4993 130.213C88.8848 130.578 89.4577 130.76 90.2077 130.76C90.791 130.76 91.2181 130.683 91.4993 130.523C91.7754 130.354 92.0202 130.122 92.2285 129.83H95.4368C95.3118 130.259 95.1139 130.664 94.8535 131.052C94.5879 131.444 94.2389 131.795 93.8118 132.109C93.3952 132.415 92.8848 132.656 92.291 132.839C91.6921 133.007 90.9993 133.094 90.2077 133.094ZM92.5618 126.84C92.5046 126.635 92.416 126.434 92.291 126.238C92.166 126.033 92.0046 125.851 91.8118 125.691C91.6296 125.523 91.4004 125.395 91.1243 125.309C90.8587 125.213 90.5514 125.163 90.2077 125.163C89.5098 125.163 88.9681 125.327 88.5827 125.655C88.1921 125.974 87.916 126.366 87.7493 126.84H92.5618Z" fill="#E9E2D1"/>
<path d="M106.738 133.094C105.915 133.094 105.206 133.007 104.613 132.839C104.014 132.67 103.514 132.433 103.113 132.128C102.706 131.827 102.394 131.48 102.175 131.088C101.967 130.701 101.811 130.281 101.717 129.83H104.925C104.977 130.063 105.16 130.277 105.467 130.468C105.769 130.664 106.196 130.76 106.738 130.76C107.472 130.76 107.972 130.687 108.238 130.541C108.514 130.386 108.654 130.209 108.654 130.013C108.654 129.771 108.493 129.593 108.175 129.484C107.852 129.365 107.451 129.26 106.967 129.174C106.493 129.092 105.972 129.001 105.404 128.9C104.847 128.805 104.326 128.641 103.842 128.408C103.352 128.18 102.951 127.861 102.633 127.46C102.311 127.05 102.154 126.503 102.154 125.819C102.154 125.395 102.248 125.008 102.446 124.652C102.654 124.287 102.946 123.973 103.321 123.704C103.706 123.44 104.186 123.225 104.758 123.066C105.326 122.911 105.988 122.829 106.738 122.829C107.529 122.829 108.217 122.915 108.8 123.084C109.383 123.244 109.868 123.462 110.258 123.74C110.66 124.023 110.967 124.351 111.175 124.725C111.394 125.09 111.555 125.486 111.654 125.91H108.446C108.389 125.728 108.238 125.559 107.988 125.4C107.748 125.245 107.331 125.163 106.738 125.163C106.248 125.163 105.873 125.231 105.613 125.363C105.363 125.486 105.238 125.637 105.238 125.819C105.238 126.065 105.394 126.247 105.717 126.366C106.05 126.475 106.451 126.576 106.925 126.658C107.41 126.744 107.93 126.84 108.488 126.949C109.055 127.05 109.581 127.214 110.071 127.442C110.555 127.661 110.956 127.98 111.279 128.39C111.597 128.791 111.758 129.333 111.758 130.013C111.758 130.414 111.675 130.797 111.508 131.161C111.342 131.526 111.061 131.854 110.675 132.146C110.3 132.437 109.785 132.67 109.133 132.839C108.493 133.007 107.696 133.094 106.738 133.094Z" fill="#E9E2D1"/>
<path d="M117.719 133.094C117.105 133.094 116.542 133.007 116.032 132.839C115.516 132.656 115.079 132.392 114.719 132.036C114.355 131.685 114.074 131.266 113.865 130.778C113.657 130.282 113.553 129.716 113.553 129.083V123.011H116.553V128.718C116.553 129.374 116.725 129.88 117.074 130.231C117.433 130.587 117.933 130.76 118.574 130.76C119.209 130.76 119.725 130.573 120.115 130.195C120.501 129.821 120.699 129.329 120.699 128.718V123.011H123.699V132.912H121.136L120.824 131.799H120.699C120.334 132.214 119.896 132.538 119.386 132.766C118.87 132.985 118.313 133.094 117.719 133.094Z" fill="#E9E2D1"/>
<path d="M126.244 123.011H128.807L129.14 124.142H129.244C129.546 123.813 129.958 123.517 130.473 123.248C130.984 122.97 131.64 122.829 132.432 122.829C133.166 122.829 133.833 122.938 134.432 123.157C135.025 123.376 135.541 123.704 135.973 124.142C136.4 124.579 136.734 125.122 136.973 125.764C137.223 126.398 137.348 127.132 137.348 127.97C137.348 128.809 137.223 129.552 136.973 130.195C136.734 130.828 136.4 131.362 135.973 131.799C135.541 132.228 135.025 132.547 134.432 132.766C133.833 132.984 133.166 133.094 132.432 133.094C132.015 133.094 131.64 133.048 131.307 132.966C130.973 132.893 130.671 132.798 130.411 132.675C130.161 132.542 129.942 132.41 129.765 132.273C129.583 132.128 129.442 132 129.348 131.89H129.244V136.649H126.244V123.011ZM131.807 130.76C132.14 130.76 132.458 130.714 132.765 130.614C133.083 130.505 133.359 130.336 133.598 130.104C133.833 129.876 134.02 129.584 134.161 129.229C134.296 128.878 134.369 128.458 134.369 127.97C134.369 127.487 134.296 127.068 134.161 126.712C134.02 126.348 133.833 126.051 133.598 125.819C133.359 125.591 133.083 125.427 132.765 125.327C132.458 125.217 132.14 125.163 131.807 125.163C131.458 125.163 131.124 125.217 130.807 125.327C130.499 125.427 130.229 125.591 129.994 125.819C129.755 126.051 129.567 126.348 129.432 126.712C129.307 127.068 129.244 127.487 129.244 127.97C129.244 128.458 129.307 128.878 129.432 129.229C129.567 129.584 129.755 129.876 129.994 130.104C130.229 130.336 130.499 130.505 130.807 130.614C131.124 130.714 131.458 130.76 131.807 130.76Z" fill="#E9E2D1"/>
<path d="M139.359 123.011H141.922L142.255 124.142H142.359C142.661 123.813 143.073 123.517 143.589 123.248C144.099 122.97 144.755 122.829 145.547 122.829C146.281 122.829 146.948 122.938 147.547 123.157C148.141 123.376 148.656 123.704 149.089 124.142C149.516 124.579 149.849 125.122 150.089 125.764C150.339 126.398 150.464 127.132 150.464 127.97C150.464 128.809 150.339 129.552 150.089 130.195C149.849 130.828 149.516 131.362 149.089 131.799C148.656 132.228 148.141 132.547 147.547 132.766C146.948 132.984 146.281 133.094 145.547 133.094C145.13 133.094 144.755 133.048 144.422 132.966C144.089 132.893 143.786 132.798 143.526 132.675C143.276 132.542 143.057 132.41 142.88 132.273C142.698 132.128 142.557 132 142.464 131.89H142.359V136.649H139.359V123.011ZM144.922 130.76C145.255 130.76 145.573 130.714 145.88 130.614C146.198 130.505 146.474 130.336 146.714 130.104C146.948 129.876 147.135 129.584 147.276 129.229C147.411 128.878 147.484 128.458 147.484 127.97C147.484 127.487 147.411 127.068 147.276 126.712C147.135 126.348 146.948 126.051 146.714 125.819C146.474 125.591 146.198 125.427 145.88 125.327C145.573 125.217 145.255 125.163 144.922 125.163C144.573 125.163 144.24 125.217 143.922 125.327C143.615 125.427 143.344 125.591 143.109 125.819C142.87 126.051 142.682 126.348 142.547 126.712C142.422 127.068 142.359 127.487 142.359 127.97C142.359 128.458 142.422 128.878 142.547 129.229C142.682 129.584 142.87 129.876 143.109 130.104C143.344 130.336 143.615 130.505 143.922 130.614C144.24 130.714 144.573 130.76 144.922 130.76Z" fill="#E9E2D1"/>
<path d="M157.497 133.094C156.648 133.094 155.877 132.975 155.184 132.747C154.502 132.52 153.919 132.191 153.434 131.763C152.96 131.325 152.59 130.792 152.33 130.158C152.08 129.516 151.955 128.786 151.955 127.97C151.955 127.145 152.08 126.416 152.33 125.783C152.59 125.154 152.96 124.616 153.434 124.178C153.919 123.74 154.502 123.408 155.184 123.175C155.877 122.947 156.648 122.829 157.497 122.829C158.356 122.829 159.127 122.947 159.809 123.175C160.486 123.408 161.064 123.74 161.538 124.178C162.023 124.616 162.393 125.154 162.643 125.783C162.903 126.416 163.038 127.145 163.038 127.97C163.038 128.786 162.903 129.516 162.643 130.158C162.393 130.792 162.023 131.325 161.538 131.763C161.064 132.191 160.486 132.52 159.809 132.747C159.127 132.975 158.356 133.094 157.497 133.094ZM157.497 130.76C157.84 130.76 158.169 130.714 158.476 130.614C158.794 130.505 159.07 130.336 159.309 130.104C159.544 129.876 159.726 129.584 159.851 129.229C159.986 128.878 160.059 128.458 160.059 127.97C160.059 127.487 159.986 127.068 159.851 126.712C159.726 126.348 159.544 126.051 159.309 125.819C159.07 125.591 158.794 125.427 158.476 125.327C158.169 125.217 157.84 125.163 157.497 125.163C157.163 125.163 156.835 125.217 156.518 125.327C156.195 125.427 155.919 125.591 155.684 125.819C155.46 126.051 155.278 126.348 155.143 126.712C155.002 127.068 154.934 127.487 154.934 127.97C154.934 128.458 155.002 128.878 155.143 129.229C155.278 129.584 155.46 129.876 155.684 130.104C155.919 130.336 156.195 130.505 156.518 130.614C156.835 130.714 157.163 130.76 157.497 130.76Z" fill="#E9E2D1"/>
<path d="M165.059 123.011H167.621L167.954 124.142H168.059C168.376 123.718 168.767 123.426 169.225 123.266C169.684 123.098 170.184 123.011 170.725 123.011H172.1V125.546H170.934C170.027 125.546 169.319 125.764 168.809 126.202C168.309 126.63 168.059 127.218 168.059 127.971V132.912H165.059V123.011Z" fill="#E9E2D1"/>
<path d="M178.175 132.912C176.993 132.912 176.113 132.665 175.529 132.164C174.956 131.667 174.675 130.952 174.675 130.013V125.436H172.842V123.011H174.675L175.092 120.404H177.654V123.011H180.321V125.436H177.654V129.557C177.654 129.839 177.748 130.063 177.946 130.231C178.139 130.405 178.394 130.487 178.717 130.487H180.321V132.912H178.175Z" fill="#E9E2D1"/>
<path d="M190.367 134.188C189.668 134.188 189.047 134.101 188.503 133.932C187.97 133.764 187.514 133.522 187.126 133.203C186.747 132.875 186.466 132.501 186.272 132.073C186.087 131.635 186 131.161 186 130.651C186 130.044 186.146 129.475 186.446 128.937C186.757 128.39 187.232 127.934 187.882 127.569L188.678 127.095L188.077 126.53C187.727 126.215 187.441 125.846 187.223 125.418C186.999 124.98 186.893 124.483 186.893 123.923C186.893 123.499 186.98 123.098 187.164 122.719C187.358 122.346 187.63 122.008 187.979 121.717C188.329 121.425 188.741 121.197 189.222 121.024C189.712 120.841 190.255 120.75 190.852 120.75C192.157 120.75 193.147 121.051 193.821 121.644C194.49 122.227 194.83 122.988 194.83 123.923C194.83 124.447 194.704 124.953 194.461 125.436C194.228 125.924 193.787 126.357 193.142 126.731L192.346 127.186L194.636 129.338L196.033 128.025H199.41L196.324 130.924L199.604 134.005H196.13L194.636 132.601C194.413 132.775 194.161 132.948 193.879 133.13C193.607 133.313 193.297 133.486 192.948 133.641C192.598 133.8 192.21 133.928 191.783 134.024C191.356 134.133 190.881 134.188 190.367 134.188ZM190.561 131.854C191.012 131.854 191.424 131.776 191.803 131.617C192.191 131.448 192.54 131.216 192.851 130.924L190.367 128.59L189.765 128.973C189.168 129.338 188.872 129.83 188.872 130.45C188.872 130.878 189.013 131.216 189.299 131.471C189.581 131.726 190.003 131.854 190.561 131.854ZM191.356 125.235C191.55 125.09 191.73 124.939 191.9 124.78C192.065 124.625 192.152 124.397 192.152 124.105C192.152 123.791 192.036 123.531 191.803 123.321C191.57 123.102 191.25 122.993 190.852 122.993C190.464 122.993 190.153 123.102 189.92 123.321C189.687 123.54 189.571 123.832 189.571 124.196C189.571 124.442 189.634 124.643 189.765 124.798C189.891 124.957 190.061 125.135 190.269 125.327L190.658 125.691L191.356 125.235Z" fill="#E9E2D1"/>
<path d="M38 149.266H40.5625L40.8958 150.397H41C41.3177 149.973 41.6927 149.649 42.125 149.43C42.5521 149.202 43.0677 149.084 43.6667 149.084C44.151 149.084 44.5677 149.139 44.9167 149.248C45.2604 149.357 45.5625 149.499 45.8125 149.667C46.0625 149.827 46.2552 150.005 46.3958 150.196C46.5469 150.378 46.6667 150.538 46.75 150.67H46.8542C46.9479 150.538 47.0833 150.378 47.25 150.196C47.4167 150.005 47.6354 149.827 47.9167 149.667C48.2083 149.499 48.5417 149.357 48.9167 149.248C49.3021 149.139 49.7552 149.084 50.2708 149.084C50.8802 149.084 51.4427 149.175 51.9583 149.357C52.4688 149.54 52.9062 149.804 53.2708 150.141C53.6302 150.47 53.9167 150.88 54.125 151.363C54.3333 151.851 54.4375 152.398 54.4375 153.004V159.167H51.4583V153.387C51.4583 153.036 51.401 152.74 51.2917 152.493C51.1927 152.238 51.0625 152.033 50.8958 151.873C50.7292 151.718 50.526 151.6 50.2917 151.527C50.0521 151.454 49.7969 151.418 49.5208 151.418C49.0469 151.418 48.625 151.582 48.25 151.91C47.8854 152.229 47.7083 152.721 47.7083 153.387V159.167H44.7292V153.387C44.7292 153.036 44.6771 152.74 44.5833 152.493C44.4844 152.238 44.3438 152.033 44.1667 151.873C44 151.718 43.7969 151.6 43.5625 151.527C43.3229 151.454 43.0729 151.418 42.8125 151.418C42.3229 151.418 41.901 151.595 41.5417 151.946C41.1771 152.288 41 152.767 41 153.387V159.167H38V149.266Z" fill="#E9E2D1"/>
<path d="M60.1875 159.349C59.5729 159.349 59.0208 159.276 58.5208 159.13C58.0312 158.975 57.6146 158.761 57.2708 158.492C56.9375 158.214 56.6771 157.886 56.5 157.507C56.3333 157.134 56.25 156.719 56.25 156.268C56.25 155.821 56.3385 155.411 56.5208 155.046C56.6979 154.672 56.9792 154.349 57.3542 154.08C57.7292 153.802 58.1771 153.583 58.7083 153.423C59.25 153.268 59.8854 153.186 60.625 153.186H63.2917V152.73C63.2917 152.256 63.1146 151.905 62.7708 151.673C62.4219 151.445 61.9479 151.326 61.3542 151.326C60.9375 151.326 60.5729 151.413 60.2708 151.582C59.9792 151.741 59.776 151.937 59.6667 152.165H56.6667C56.7604 151.764 56.9375 151.381 57.1875 151.017C57.4375 150.652 57.7552 150.333 58.1458 150.05C58.5469 149.758 59.0208 149.531 59.5625 149.357C60.1042 149.175 60.7396 149.084 61.4792 149.084C62.9792 149.084 64.151 149.403 65 150.032C65.8438 150.666 66.2708 151.595 66.2708 152.822V159.167H63.7083L63.3958 158.054H63.2917C63.1667 158.191 63.0208 158.337 62.8542 158.492C62.6875 158.638 62.4688 158.779 62.2083 158.911C61.9583 159.048 61.6667 159.148 61.3333 159.221C61 159.303 60.6146 159.349 60.1875 159.349ZM60.9375 157.197C61.6302 157.197 62.1927 157.029 62.625 156.687C63.0677 156.35 63.2917 155.898 63.2917 155.338V155.064H60.7292C60.1875 155.064 59.7969 155.164 59.5625 155.356C59.3385 155.552 59.2292 155.793 59.2292 156.085C59.2292 156.413 59.3594 156.682 59.625 156.887C59.901 157.097 60.3385 157.197 60.9375 157.197Z" fill="#E9E2D1"/>
<path d="M68.7122 149.266H71.7122V159.167H68.7122V149.266ZM70.2122 148.245C69.7227 148.245 69.3164 148.108 68.9831 147.826C68.6602 147.534 68.5039 147.179 68.5039 146.75C68.5039 146.326 68.6602 145.975 68.9831 145.693C69.3164 145.401 69.7227 145.255 70.2122 145.255C70.6966 145.255 71.0977 145.401 71.4206 145.693C71.7539 145.975 71.9206 146.326 71.9206 146.75C71.9206 147.179 71.7539 147.534 71.4206 147.826C71.0977 148.108 70.6966 148.245 70.2122 148.245Z" fill="#E9E2D1"/>
<path d="M74.2578 149.266H76.8203L77.1536 150.397H77.2578C77.6172 149.973 78.0547 149.649 78.5703 149.43C79.0807 149.202 79.638 149.084 80.237 149.084C80.8464 149.084 81.4089 149.175 81.9245 149.357C82.4349 149.54 82.8724 149.809 83.237 150.16C83.5964 150.501 83.8828 150.921 84.0911 151.418C84.2995 151.905 84.4036 152.466 84.4036 153.095V159.167H81.4036V153.478C81.4036 152.812 81.2214 152.302 80.862 151.946C80.513 151.595 80.0182 151.418 79.3828 151.418C78.7422 151.418 78.2266 151.614 77.8411 152.001C77.4505 152.379 77.2578 152.872 77.2578 153.478V159.167H74.2578V149.266Z" fill="#E9E2D1"/>
<path d="M91.3216 159.167C90.1393 159.167 89.2591 158.921 88.6758 158.419C88.1029 157.922 87.8216 157.207 87.8216 156.268V151.691H85.9883V149.266H87.8216L88.2383 146.659H90.8008V149.266H93.4674V151.691H90.8008V155.812C90.8008 156.094 90.8945 156.318 91.0924 156.486C91.2852 156.66 91.5404 156.742 91.8633 156.742H93.4674V159.167H91.3216Z" fill="#E9E2D1"/>
<path d="M100.606 159.349C99.7572 159.349 98.9863 159.23 98.2936 159.002C97.6113 158.775 97.028 158.446 96.5436 158.018C96.0697 157.58 95.6999 157.047 95.4395 156.413C95.1895 155.771 95.0645 155.041 95.0645 154.225C95.0645 153.4 95.1895 152.671 95.4395 152.038C95.6999 151.409 96.0697 150.871 96.5436 150.433C97.028 149.995 97.6113 149.663 98.2936 149.43C98.9863 149.202 99.7572 149.084 100.606 149.084C101.424 149.084 102.169 149.207 102.835 149.449C103.512 149.695 104.09 150.041 104.564 150.488C105.033 150.925 105.398 151.45 105.648 152.056C105.908 152.653 106.044 153.309 106.044 154.025C106.044 154.171 106.033 154.308 106.023 154.426C106.007 154.549 105.992 154.659 105.981 154.754C105.965 154.877 105.95 154.982 105.939 155.064H98.1478C98.2728 155.625 98.5228 156.094 98.8978 156.468C99.2832 156.833 99.8561 157.015 100.606 157.015C101.189 157.015 101.617 156.938 101.898 156.778C102.174 156.609 102.419 156.377 102.627 156.085H105.835C105.71 156.514 105.512 156.919 105.252 157.307C104.986 157.699 104.637 158.05 104.21 158.364C103.794 158.67 103.283 158.911 102.689 159.094C102.09 159.262 101.398 159.349 100.606 159.349ZM102.96 153.095C102.903 152.89 102.814 152.689 102.689 152.493C102.564 152.288 102.403 152.106 102.21 151.946C102.028 151.778 101.799 151.65 101.523 151.564C101.257 151.468 100.95 151.418 100.606 151.418C99.9082 151.418 99.3665 151.582 98.9811 151.91C98.5905 152.229 98.3145 152.621 98.1478 153.095H102.96Z" fill="#E9E2D1"/>
<path d="M108.062 149.266H110.625L110.958 150.397H111.062C111.422 149.973 111.859 149.649 112.375 149.43C112.885 149.202 113.443 149.084 114.042 149.084C114.651 149.084 115.214 149.175 115.729 149.357C116.24 149.54 116.677 149.809 117.042 150.16C117.401 150.501 117.688 150.921 117.896 151.418C118.104 151.905 118.208 152.466 118.208 153.095V159.167H115.208V153.478C115.208 152.812 115.026 152.302 114.667 151.946C114.318 151.595 113.823 151.418 113.188 151.418C112.547 151.418 112.031 151.614 111.646 152.001C111.255 152.379 111.062 152.872 111.062 153.478V159.167H108.062V149.266Z" fill="#E9E2D1"/>
<path d="M123.957 159.349C123.342 159.349 122.79 159.276 122.29 159.13C121.801 158.975 121.384 158.761 121.04 158.492C120.707 158.214 120.447 157.886 120.27 157.507C120.103 157.134 120.02 156.719 120.02 156.268C120.02 155.821 120.108 155.411 120.29 155.046C120.467 154.672 120.749 154.349 121.124 154.08C121.499 153.802 121.947 153.583 122.478 153.423C123.02 153.268 123.655 153.186 124.395 153.186H127.061V152.73C127.061 152.256 126.884 151.905 126.54 151.673C126.191 151.445 125.717 151.326 125.124 151.326C124.707 151.326 124.342 151.413 124.04 151.582C123.749 151.741 123.546 151.937 123.436 152.165H120.436C120.53 151.764 120.707 151.381 120.957 151.017C121.207 150.652 121.525 150.333 121.915 150.05C122.316 149.758 122.79 149.531 123.332 149.357C123.874 149.175 124.509 149.084 125.249 149.084C126.749 149.084 127.921 149.403 128.77 150.032C129.613 150.666 130.04 151.595 130.04 152.822V159.167H127.478L127.165 158.054H127.061C126.936 158.191 126.79 158.337 126.624 158.492C126.457 158.638 126.238 158.779 125.978 158.911C125.728 159.048 125.436 159.148 125.103 159.221C124.77 159.303 124.384 159.349 123.957 159.349ZM124.707 157.197C125.4 157.197 125.962 157.029 126.395 156.687C126.837 156.35 127.061 155.898 127.061 155.338V155.064H124.499C123.957 155.064 123.566 155.164 123.332 155.356C123.108 155.552 122.999 155.793 122.999 156.085C122.999 156.413 123.129 156.682 123.395 156.887C123.671 157.097 124.108 157.197 124.707 157.197Z" fill="#E9E2D1"/>
<path d="M132.482 149.266H135.045L135.378 150.397H135.482C135.842 149.973 136.279 149.649 136.795 149.43C137.305 149.202 137.863 149.084 138.462 149.084C139.071 149.084 139.633 149.175 140.149 149.357C140.66 149.54 141.097 149.809 141.462 150.16C141.821 150.501 142.107 150.921 142.316 151.418C142.524 151.905 142.628 152.466 142.628 153.095V159.167H139.628V153.478C139.628 152.812 139.446 152.302 139.087 151.946C138.738 151.595 138.243 151.418 137.607 151.418C136.967 151.418 136.451 151.614 136.066 152.001C135.675 152.379 135.482 152.872 135.482 153.478V159.167H132.482V149.266Z" fill="#E9E2D1"/>
<path d="M150.085 159.349C149.236 159.349 148.465 159.23 147.772 159.002C147.09 158.775 146.507 158.446 146.022 158.018C145.548 157.58 145.178 157.047 144.918 156.413C144.668 155.771 144.543 155.041 144.543 154.225C144.543 153.4 144.668 152.671 144.918 152.038C145.178 151.409 145.548 150.871 146.022 150.433C146.507 149.995 147.09 149.663 147.772 149.43C148.465 149.202 149.236 149.084 150.085 149.084C150.876 149.084 151.569 149.184 152.168 149.376C152.762 149.572 153.272 149.831 153.689 150.16C154.116 150.488 154.465 150.871 154.73 151.308C154.991 151.737 155.189 152.179 155.314 152.639H152.335C152.111 152.265 151.824 151.965 151.48 151.746C151.147 151.527 150.678 151.418 150.085 151.418C149.335 151.418 148.715 151.655 148.23 152.129C147.757 152.594 147.522 153.291 147.522 154.225C147.522 155.151 147.757 155.848 148.23 156.322C148.715 156.787 149.335 157.015 150.085 157.015C150.678 157.015 151.147 156.906 151.48 156.687C151.824 156.468 152.111 156.176 152.335 155.812H155.314C155.189 156.286 154.991 156.737 154.73 157.161C154.465 157.576 154.116 157.945 153.689 158.273C153.272 158.601 152.762 158.866 152.168 159.057C151.569 159.249 150.876 159.349 150.085 159.349Z" fill="#E9E2D1"/>
<path d="M162.243 159.349C161.394 159.349 160.623 159.23 159.93 159.002C159.248 158.775 158.665 158.446 158.18 158.018C157.706 157.58 157.337 157.047 157.076 156.413C156.826 155.771 156.701 155.041 156.701 154.225C156.701 153.4 156.826 152.671 157.076 152.038C157.337 151.409 157.706 150.871 158.18 150.433C158.665 149.995 159.248 149.663 159.93 149.43C160.623 149.202 161.394 149.084 162.243 149.084C163.061 149.084 163.805 149.207 164.472 149.449C165.149 149.695 165.727 150.041 166.201 150.488C166.67 150.925 167.035 151.45 167.285 152.056C167.545 152.653 167.68 153.309 167.68 154.025C167.68 154.171 167.67 154.308 167.66 154.426C167.644 154.549 167.628 154.659 167.618 154.754C167.602 154.877 167.587 154.982 167.576 155.064H159.785C159.91 155.625 160.16 156.094 160.535 156.468C160.92 156.833 161.493 157.015 162.243 157.015C162.826 157.015 163.253 156.938 163.535 156.778C163.811 156.609 164.055 156.377 164.264 156.085H167.472C167.347 156.514 167.149 156.919 166.889 157.307C166.623 157.699 166.274 158.05 165.847 158.364C165.43 158.67 164.92 158.911 164.326 159.094C163.727 159.262 163.035 159.349 162.243 159.349ZM164.597 153.095C164.54 152.89 164.451 152.689 164.326 152.493C164.201 152.288 164.04 152.106 163.847 151.946C163.665 151.778 163.436 151.65 163.16 151.564C162.894 151.468 162.587 151.418 162.243 151.418C161.545 151.418 161.003 151.582 160.618 151.91C160.227 152.229 159.951 152.621 159.785 153.095H164.597Z" fill="#E9E2D1"/>
</svg>
