<svg width="125" height="125" viewBox="0 0 125 125" fill="none" xmlns="http://www.w3.org/2000/svg">
<mask id="mask0_662_243" style="mask-type:luminance" maskUnits="userSpaceOnUse" x="10" y="34" width="115" height="91">
<path d="M10.166 34.5745H125V125H10.166V34.5745Z" fill="white"/>
</mask>
<g mask="url(#mask0_662_243)">
<path d="M115.207 37.5871C119.071 45.4308 120.99 53.7056 120.964 62.4167C120.969 65.1594 120.768 67.8865 120.37 70.6032C119.973 73.3147 119.379 75.9847 118.594 78.6183C117.805 81.2467 116.824 83.8076 115.663 86.3009C114.497 88.7943 113.156 91.1941 111.64 93.4953C110.123 95.8016 108.448 97.9885 106.609 100.056C104.775 102.123 102.798 104.05 100.677 105.843C98.5568 107.629 96.3198 109.261 93.9609 110.736C91.602 112.211 89.153 113.515 86.6032 114.642C84.0535 115.769 81.4348 116.715 78.7472 117.478C76.0597 118.237 73.3297 118.808 70.5626 119.182C67.7902 119.561 65.0072 119.738 62.2083 119.722C59.4094 119.707 56.6317 119.499 53.8646 119.088C51.0976 118.683 48.3729 118.086 45.6959 117.296C43.0189 116.502 40.4109 115.53 37.877 114.372C35.3379 113.214 32.8994 111.889 30.5617 110.388C28.2187 108.887 25.9976 107.229 23.8985 105.417L28.2823 101.131C28.5421 100.877 28.7223 100.57 28.8124 100.217C28.9025 99.8637 28.8972 99.5105 28.7859 99.1624C28.6799 98.8144 28.4891 98.5131 28.2134 98.269C27.9378 98.0249 27.6197 97.8638 27.254 97.7963L12.9997 94.9913C12.8407 94.9601 12.6764 94.9497 12.5068 94.9601C12.3424 94.9653 12.1834 94.9913 12.0244 95.038C11.8653 95.0848 11.7116 95.1523 11.5685 95.2354C11.4307 95.3185 11.2981 95.4172 11.1815 95.5315C11.0649 95.651 10.9642 95.7756 10.8794 95.9159C10.7892 96.0561 10.7256 96.2016 10.6779 96.3574C10.6302 96.5133 10.5984 96.6743 10.5931 96.8353C10.5825 96.9963 10.5984 97.1574 10.6302 97.3184L13.4662 111.286C13.5404 111.64 13.6995 111.956 13.9486 112.227C14.1978 112.497 14.4999 112.684 14.8551 112.788C15.2102 112.897 15.5707 112.902 15.9312 112.814C16.2916 112.725 16.5991 112.554 16.8641 112.299L21.0466 108.211C23.2836 110.164 25.6531 111.946 28.1551 113.562C30.6519 115.177 33.2599 116.611 35.9687 117.863C38.6828 119.109 41.4711 120.164 44.3336 121.016C47.2014 121.873 50.1116 122.522 53.0748 122.969C56.038 123.415 59.0119 123.649 62.0069 123.675C65.0019 123.701 67.9863 123.514 70.9549 123.119C73.9234 122.725 76.8442 122.122 79.7279 121.312C82.6063 120.507 85.4105 119.499 88.1458 118.294C90.8758 117.094 93.505 115.702 96.0336 114.128C98.5621 112.554 100.963 110.808 103.238 108.897C105.512 106.985 107.632 104.923 109.599 102.71C111.571 100.497 113.368 98.1599 114.995 95.6925C116.617 93.2252 118.059 90.6591 119.305 87.9891C120.556 85.3244 121.605 82.5817 122.453 79.7663C123.296 76.9457 123.932 74.0887 124.362 71.1798C124.786 68.2761 124.998 65.3516 124.998 62.4167C125.014 57.8196 124.5 53.2848 123.461 48.802C122.422 44.3191 120.879 40.0077 118.843 35.8729L115.207 37.5871ZM16.6839 106.892L15.1731 99.4533L22.7641 100.944L16.6839 106.892Z" fill="#E9E2D1"/>
</g>
<mask id="mask1_662_243" style="mask-type:luminance" maskUnits="userSpaceOnUse" x="0" y="0" width="115" height="90">
<path d="M0 0H114.659V89.0957H0V0Z" fill="white"/>
</mask>
<g mask="url(#mask1_662_243)">
<path d="M9.79099 87.2516C5.9266 79.4079 4.00767 71.1279 4.03417 62.4168C4.03417 59.6741 4.23031 56.947 4.63318 54.2355C5.03075 51.524 5.62445 48.8488 6.41429 46.2204C7.20413 43.592 8.1848 41.0311 9.34571 38.5378C10.5119 36.0444 11.853 33.6446 13.3691 31.3434C14.8852 29.0371 16.5656 26.8554 18.3997 24.788C20.2391 22.7206 22.2164 20.7882 24.3314 19.0013C26.4518 17.2093 28.6888 15.5782 31.0477 14.103C33.4066 12.6277 35.861 11.3291 38.4107 10.1967C40.9605 9.0695 43.5791 8.12411 46.2614 7.36052C48.949 6.60213 51.679 6.03074 54.4514 5.65673C57.2237 5.27754 60.0067 5.09573 62.8003 5.11131C65.5992 5.1269 68.3822 5.33468 71.1493 5.74504C73.9111 6.15021 76.6358 6.74757 79.3127 7.53713C81.995 8.32669 84.6031 9.29806 87.1369 10.4512C89.6761 11.6096 92.1145 12.9394 94.4522 14.4354C96.7952 15.9366 99.0163 17.5884 101.115 19.4013L96.721 23.7023C96.456 23.9621 96.281 24.2685 96.1856 24.6218C96.0955 24.975 96.1061 25.3282 96.2121 25.6762C96.3181 26.0243 96.509 26.3204 96.7846 26.5645C97.0603 26.8138 97.3836 26.9697 97.7441 27.0424L111.998 29.8422C112.163 29.8734 112.327 29.8838 112.491 29.8786C112.656 29.8682 112.82 29.8422 112.979 29.7955C113.138 29.7487 113.286 29.6812 113.43 29.5981C113.573 29.515 113.7 29.4163 113.817 29.302C113.938 29.1877 114.039 29.0579 114.124 28.9228C114.209 28.7825 114.272 28.6319 114.325 28.4761C114.373 28.3202 114.4 28.1644 114.405 28.0034C114.416 27.8372 114.405 27.6761 114.373 27.5203L111.532 13.5523C111.463 13.1939 111.299 12.8823 111.049 12.6121C110.8 12.342 110.498 12.155 110.143 12.0459C109.788 11.9421 109.433 11.9317 109.072 12.02C108.712 12.1083 108.399 12.2797 108.134 12.5394L103.973 16.6067C101.736 14.6588 99.3609 12.8771 96.8588 11.2616C94.3621 9.64609 91.754 8.21242 89.04 6.96574C86.3312 5.71907 83.5429 4.66459 80.6751 3.81269C77.8126 2.9556 74.8971 2.30629 71.9338 1.86476C68.9759 1.41804 65.9968 1.18429 63.0018 1.16351C60.0067 1.13754 57.0223 1.32454 54.0538 1.71932C51.0906 2.1141 48.1644 2.71666 45.286 3.527C42.4023 4.33734 39.5981 5.33987 36.8682 6.54499C34.1329 7.75011 31.5036 9.13703 28.9751 10.711C26.4465 12.2849 24.0452 14.0302 21.7764 15.9418C19.5023 17.8586 17.3819 19.9208 15.41 22.1284C13.4433 24.3413 11.6463 26.6788 10.0189 29.1462C8.39154 31.6135 6.94968 34.1796 5.70397 36.8444C4.45294 39.5143 3.40336 42.257 2.55521 45.0724C1.70706 47.8878 1.07095 50.75 0.641574 53.6537C0.212197 56.5626 0.000160614 59.4819 0.000160614 62.4168C-0.0104406 67.0139 0.503749 71.5539 1.54273 76.0367C2.58172 80.5144 4.11899 84.8258 6.15985 88.9658L9.79099 87.2516ZM108.314 17.9417L109.825 25.3854L102.234 23.8842L108.314 17.9417Z" fill="#E9E2D1"/>
</g>
<path d="M89.2553 98.3418C89.356 98.3418 89.4567 98.3418 89.5521 98.3418C90.5275 98.3366 91.4817 98.1964 92.4146 97.9107C93.3423 97.625 94.2063 97.2094 95.0121 96.6692C95.8125 96.1238 96.5122 95.4796 97.1165 94.7264C97.7155 93.9732 98.1873 93.1473 98.5319 92.2539C98.8765 91.3604 99.0832 90.441 99.1415 89.4852C99.1998 88.5294 99.1097 87.5892 98.8765 86.6646C98.6432 85.7348 98.2721 84.8621 97.7686 84.0466C97.265 83.2259 96.6501 82.5038 95.9185 81.8701L77.7098 66.0425C78.0862 64.6504 78.2611 63.2375 78.2399 61.8038C78.2187 60.365 78.0067 58.9573 77.5932 57.5807C77.1797 56.199 76.586 54.9004 75.8121 53.6797C75.0329 52.459 74.1052 51.3681 73.0291 50.3916C71.9477 49.4202 70.755 48.6099 69.4457 47.9606C68.1416 47.3061 66.7687 46.8385 65.3321 46.5529C63.8956 46.2672 62.4431 46.1788 60.9854 46.2827C59.5223 46.3866 58.1017 46.6775 56.7181 47.1606C56.5591 47.2177 56.4107 47.2957 56.2675 47.384C56.1244 47.4775 55.9972 47.5866 55.8859 47.7112C55.7746 47.8359 55.6791 47.9761 55.5996 48.1216C55.5254 48.2722 55.4671 48.4281 55.43 48.5891C55.3929 48.7501 55.377 48.9163 55.3823 49.0826C55.3876 49.2488 55.4088 49.415 55.4565 49.576C55.5042 49.7319 55.5731 49.8877 55.6579 50.028C55.7481 50.1734 55.8488 50.3033 55.9707 50.4227L60.6991 55.0562L54.9953 60.6455L50.2669 56.012C50.145 55.8925 50.0124 55.7938 49.8693 55.7055C49.7209 55.6224 49.5672 55.5549 49.4028 55.5081C49.2385 55.4614 49.0742 55.4354 48.8992 55.4302C48.7296 55.425 48.5653 55.4458 48.3957 55.4822C48.2313 55.5185 48.0723 55.5757 47.9186 55.6484C47.7702 55.7263 47.6323 55.8198 47.5051 55.9289C47.3779 56.038 47.2666 56.1626 47.1711 56.3029C47.0757 56.4431 46.9962 56.5886 46.9432 56.7444C46.4449 58.1002 46.1481 59.4923 46.042 60.926C45.936 62.3596 46.0314 63.7777 46.3177 65.1906C46.6092 66.5983 47.0863 67.9437 47.7542 69.2216C48.4169 70.5046 49.2491 71.6733 50.2404 72.733C51.2317 73.7875 52.3449 74.6965 53.5906 75.4601C54.8363 76.2185 56.1615 76.8003 57.5663 77.2055C58.9763 77.6106 60.4129 77.8236 61.8759 77.8444C63.3443 77.86 64.7861 77.6885 66.2015 77.3249L82.3534 95.168C83.2281 96.1445 84.2671 96.9081 85.4651 97.4587C86.6684 98.0145 87.93 98.3054 89.2553 98.3418ZM66.8535 73.0914C66.6203 73.0914 66.3976 73.1278 66.175 73.2005C65.7085 73.3667 65.2367 73.5018 64.749 73.6109C64.2667 73.7148 63.779 73.7927 63.286 73.8394C62.7877 73.8862 62.2947 73.907 61.7964 73.8914C61.3034 73.881 60.8104 73.8394 60.3175 73.7667C59.8298 73.694 59.3421 73.5953 58.865 73.4654C58.3879 73.3356 57.9214 73.1745 57.4603 72.9875C57.0044 72.8005 56.5591 72.5876 56.1297 72.3434C55.695 72.1045 55.2816 71.8396 54.884 71.5487C54.4864 71.2578 54.1101 70.9409 53.7496 70.6033C53.3944 70.2708 53.0552 69.9124 52.7424 69.5332C52.4297 69.154 52.1434 68.7592 51.8784 68.3489C51.6186 67.9385 51.3801 67.5126 51.1733 67.071C50.9613 66.6295 50.7811 66.1776 50.6274 65.7153C50.4736 65.253 50.3517 64.7803 50.2616 64.3024C50.1662 63.8245 50.1026 63.3414 50.0708 62.8583C50.0389 62.3752 50.0336 61.8869 50.0655 61.4039L53.5694 64.8426C53.7602 65.0192 53.9828 65.1543 54.2267 65.253C54.4758 65.3465 54.7303 65.3984 54.9953 65.3984C55.2604 65.3984 55.5148 65.3465 55.764 65.253C56.0078 65.1543 56.2304 65.0192 56.4213 64.8426L64.977 56.4587C65.1625 56.2717 65.3109 56.0587 65.4117 55.8146C65.5124 55.5757 65.5654 55.3211 65.5654 55.0614C65.5654 54.7965 65.5124 54.5472 65.4117 54.303C65.3109 54.0589 65.1625 53.8459 64.977 53.6641L61.4678 50.2253C61.9607 50.1994 62.459 50.1994 62.952 50.2305C63.4503 50.2617 63.938 50.324 64.4257 50.4175C64.9134 50.511 65.3958 50.6305 65.8675 50.7812C66.3393 50.9266 66.8005 51.1032 67.2511 51.311C67.7017 51.5188 68.1363 51.7473 68.5551 52.0071C68.9739 52.2616 69.3768 52.5473 69.7637 52.8538C70.1507 53.1602 70.5112 53.4875 70.8557 53.8407C71.2003 54.1887 71.5183 54.5627 71.8152 54.9523C72.1173 55.3419 72.3877 55.7471 72.6315 56.1678C72.8754 56.5886 73.098 57.0249 73.2888 57.4768C73.4797 57.9236 73.6387 58.3859 73.7712 58.8534C73.9091 59.3209 74.0098 59.7936 74.084 60.2767C74.1582 60.7597 74.2006 61.2428 74.2112 61.7259C74.2218 62.2142 74.2059 62.6973 74.1582 63.1804C74.1105 63.6687 74.031 64.1465 73.9197 64.6192C73.8136 65.0971 73.6758 65.5594 73.5062 66.0166C73.3684 66.3958 73.3525 66.7853 73.4532 67.1749C73.5539 67.5645 73.7606 67.8918 74.0681 68.1567L93.2469 84.8258C93.5331 85.0751 93.7876 85.3452 94.0155 85.6465C94.2434 85.9426 94.4343 86.2646 94.5986 86.6023C94.7576 86.9399 94.8849 87.2879 94.9697 87.6516C95.0598 88.0152 95.1075 88.384 95.1234 88.758C95.134 89.1268 95.1075 89.5008 95.0386 89.8644C94.975 90.2332 94.8689 90.5916 94.7311 90.9345C94.588 91.2825 94.4131 91.6098 94.2063 91.9214C93.9943 92.2331 93.7558 92.524 93.4854 92.7889C92.95 93.3239 92.3192 93.7343 91.6036 94.0096C90.8879 94.2901 90.1458 94.4148 89.3772 94.3836C88.6032 94.368 87.8717 94.1966 87.1773 93.8745C86.4776 93.5577 85.8786 93.1162 85.3697 92.55L68.359 73.7511C67.9614 73.3096 67.4578 73.0862 66.8535 73.0914Z" fill="#E9E2D1"/>
<path d="M90.9779 72.2966C91.3596 71.2473 91.6829 70.1773 91.9427 69.0916C92.2024 68.0008 92.3986 66.9048 92.5311 65.7931C92.6636 64.6867 92.7378 63.5751 92.7431 62.4583C92.7484 61.3415 92.6901 60.2247 92.5682 59.1182C92.4463 58.0066 92.2607 56.9054 92.0116 55.8145C91.7625 54.7289 91.455 53.6536 91.0839 52.5992C90.7129 51.5447 90.2835 50.511 89.7905 49.5033C89.3028 48.4955 88.7568 47.5138 88.1525 46.5684C87.5535 45.623 86.8962 44.7087 86.1912 43.8309C85.4808 42.9582 84.7281 42.1219 83.9224 41.3323C83.1219 40.5376 82.2738 39.7948 81.3885 39.0935C80.498 38.3923 79.5756 37.7481 78.6108 37.1508C77.6461 36.5534 76.6548 36.008 75.6264 35.5249C74.6033 35.0366 73.5537 34.6055 72.4777 34.2367C71.4069 33.8627 70.3149 33.551 69.2017 33.3017C68.0938 33.0523 66.97 32.8601 65.8409 32.7355C64.7065 32.6056 63.5721 32.5433 62.4324 32.5381C61.2927 32.5381 60.1583 32.6004 59.0239 32.7199C57.8948 32.8446 56.771 33.0316 55.6578 33.2757C54.5499 33.525 53.4579 33.8315 52.3818 34.2003C51.3057 34.5691 50.2508 34.9951 49.2278 35.4782C48.1994 35.9612 47.2028 36.5015 46.238 37.0936C45.2733 37.6858 44.3456 38.3299 43.455 39.026C42.5645 39.722 41.7163 40.4649 40.9106 41.2544C40.1049 42.044 39.3468 42.8803 38.6365 43.753C37.9262 44.6256 37.2689 45.5347 36.6592 46.4801C36.0549 47.4255 35.5089 48.402 35.0107 49.4098C34.5177 50.4123 34.083 51.446 33.7119 52.5005C33.3356 53.5549 33.0228 54.625 32.7684 55.7158C32.5192 56.8015 32.3284 57.9027 32.2012 59.0143C32.0739 60.1208 32.0156 61.2376 32.0156 62.3544C32.0156 63.4712 32.0845 64.5828 32.2118 65.6892C32.3443 66.8009 32.5351 67.9021 32.7949 68.9877C33.0493 70.0786 33.3674 71.1486 33.7437 72.1979C34.1254 73.2524 34.5601 74.2809 35.0584 75.2886C35.5566 76.2912 36.1079 77.2677 36.7176 78.2079C37.3272 79.1533 37.9898 80.0624 38.7001 80.9298C39.4157 81.8025 40.1738 82.6284 40.9848 83.418C41.7958 84.2024 42.644 84.9452 43.5399 85.636C44.4304 86.3321 45.3634 86.971 46.3281 87.5632C47.2982 88.1502 48.2948 88.6852 49.3232 89.1683C50.3516 89.6462 51.4011 90.0721 52.4825 90.4357C53.5586 90.7994 54.6506 91.1006 55.7638 91.3448C56.877 91.5889 58.0008 91.7707 59.1299 91.8902C60.2643 92.0097 61.3987 92.0668 62.5384 92.0616C63.6781 92.0512 64.8125 91.9837 65.9469 91.8538C67.076 91.724 68.1998 91.5318 69.3077 91.2772C70.4156 91.0227 71.5076 90.7059 72.5784 90.3319L69.6629 87.1061C68.7405 87.3658 67.8022 87.5788 66.8481 87.7398C65.8992 87.8956 64.945 88.0047 63.9803 88.0619C63.0208 88.119 62.056 88.1242 61.0966 88.0774C60.1318 88.0255 59.1776 87.9268 58.2234 87.7762C57.2746 87.6307 56.331 87.4281 55.4033 87.1736C54.4757 86.9243 53.5639 86.623 52.6681 86.275C51.7722 85.9217 50.8976 85.527 50.0494 85.0802C49.2013 84.6387 48.3743 84.1504 47.5792 83.6154C46.784 83.0856 46.0207 82.509 45.2892 81.896C44.5576 81.2831 43.8632 80.6286 43.2059 79.9377C42.5433 79.2468 41.9284 78.5248 41.3506 77.7716C40.7728 77.0132 40.2374 76.2288 39.7497 75.4133C39.262 74.603 38.8167 73.7615 38.4245 72.8992C38.0269 72.0421 37.6823 71.159 37.3855 70.2604C37.0886 69.3617 36.8448 68.4527 36.6486 67.5229C36.4578 66.5983 36.3147 65.6685 36.2246 64.7283C36.1345 63.7881 36.0973 62.8427 36.1132 61.8973C36.1291 60.9571 36.1981 60.0117 36.32 59.0767C36.4419 58.1417 36.6168 57.2119 36.8395 56.2924C37.0674 55.3782 37.3431 54.4744 37.6717 53.5861C37.9951 52.6927 38.3714 51.8252 38.7955 50.9785C39.2196 50.1318 39.6914 49.3059 40.2109 48.5111C40.7251 47.7112 41.287 46.9476 41.886 46.21C42.4903 45.4723 43.1317 44.7711 43.8155 44.101C44.494 43.4309 45.2097 42.8024 45.9624 42.2154C46.7151 41.6232 47.4997 41.0726 48.3107 40.5687C49.127 40.0597 49.9646 39.6026 50.8286 39.1818C51.698 38.7663 52.5833 38.4027 53.4897 38.0806C54.3962 37.7585 55.3185 37.4884 56.2515 37.2651C57.1898 37.0469 58.1386 36.8755 59.0928 36.756C60.047 36.6365 61.0064 36.569 61.9712 36.5534C62.936 36.5378 63.8954 36.5742 64.8549 36.6625C65.8144 36.7508 66.7686 36.8911 67.7121 37.0781C68.6557 37.2703 69.5886 37.5092 70.5057 37.8001C71.4228 38.091 72.3186 38.4338 73.1986 38.8182C74.0785 39.2078 74.932 39.6389 75.7589 40.1168C76.5912 40.5999 77.3916 41.1194 78.1656 41.6856C78.9342 42.2518 79.6763 42.8595 80.376 43.5036C81.0811 44.1477 81.749 44.8282 82.3745 45.5451C83 46.2619 83.5884 47.0151 84.1291 47.7943C84.6751 48.5734 85.1734 49.3786 85.624 50.2149C86.0799 51.046 86.4827 51.9031 86.8379 52.781C87.1984 53.6588 87.5058 54.5523 87.7603 55.4613C88.02 56.3704 88.2214 57.295 88.3752 58.2248C88.5289 59.1598 88.6296 60.0948 88.6773 61.0402C88.725 61.9856 88.7197 62.9258 88.6667 63.8712C88.6084 64.8114 88.4971 65.7516 88.3328 66.6814C88.1737 67.6112 87.9564 68.5306 87.6913 69.4397L90.9779 72.2966Z" fill="#E9E2D1"/>
<path d="M90.6409 89.9945C90.8265 89.8127 90.9749 89.5997 91.0756 89.3556C91.1763 89.1114 91.2293 88.8621 91.2293 88.5972C91.2293 88.3375 91.1763 88.0829 91.0756 87.844C90.9749 87.5999 90.8265 87.3869 90.6356 87.2051C90.4501 87.0181 90.2327 86.8726 89.9836 86.7739C89.7345 86.6752 89.48 86.6233 89.215 86.6233C88.9446 86.6233 88.6902 86.6752 88.441 86.7739C88.1919 86.8726 87.9746 87.0181 87.789 87.2051C87.5982 87.3869 87.4551 87.5999 87.349 87.844C87.2483 88.0829 87.1953 88.3375 87.1953 88.5972C87.1953 88.8621 87.2483 89.1114 87.349 89.3556C87.4498 89.5997 87.5982 89.8127 87.7837 89.9945C87.9746 90.1815 88.1919 90.327 88.441 90.4256C88.6902 90.5243 88.9446 90.5763 89.215 90.5763C89.48 90.5763 89.7398 90.5243 89.9836 90.4256C90.2327 90.327 90.4501 90.1815 90.6409 89.9945Z" fill="#E9E2D1"/>
<path d="M100.929 72.2968C101.321 72.2968 101.703 72.2605 102.085 72.1877C102.466 72.1098 102.838 72.0007 103.198 71.8553C103.558 71.7098 103.898 71.528 104.221 71.3151C104.544 71.1073 104.841 70.8631 105.117 70.593C105.393 70.3229 105.642 70.032 105.854 69.7152C106.071 69.3983 106.257 69.0607 106.405 68.7126C106.554 68.3594 106.665 67.9958 106.739 67.6218C106.819 67.2478 106.856 66.8686 106.856 66.4894V58.3496C106.856 57.9653 106.819 57.5861 106.739 57.2172C106.665 56.8432 106.554 56.4796 106.405 56.1264C106.257 55.7732 106.071 55.4407 105.854 55.1239C105.642 54.807 105.393 54.5109 105.117 54.2408C104.841 53.9707 104.544 53.7318 104.221 53.5188C103.898 53.3058 103.558 53.1292 103.198 52.9837C102.838 52.8383 102.466 52.724 102.085 52.6513C101.703 52.5734 101.321 52.537 100.929 52.537C100.505 52.5422 100.118 52.4279 99.7736 52.189C99.4291 51.95 99.1852 51.6332 99.0474 51.2384C98.3583 49.0827 97.4783 47.0101 96.4075 45.0102C96.222 44.6362 96.1637 44.2414 96.2326 43.8311C96.3068 43.4207 96.4923 43.0675 96.7998 42.7766L96.8369 42.735C97.1072 42.4649 97.3511 42.174 97.5631 41.852C97.7752 41.5351 97.9554 41.2027 98.0985 40.8494C98.247 40.5014 98.353 40.1378 98.4272 39.7638C98.5014 39.395 98.5385 39.0158 98.5332 38.6366C98.5332 38.2574 98.4961 37.8834 98.4166 37.5146C98.3424 37.1406 98.2257 36.777 98.0773 36.4289C97.9289 36.0809 97.7487 35.7485 97.5366 35.4316C97.3193 35.1147 97.0754 34.8239 96.7998 34.5537L90.9264 28.7983C90.3645 28.2684 89.7177 27.8633 88.9915 27.5776C88.2706 27.2919 87.5179 27.1464 86.7333 27.1464C85.9541 27.1464 85.2014 27.2919 84.4751 27.5776C83.7489 27.8633 83.1022 28.2684 82.5403 28.7983C82.2434 29.0943 81.883 29.2813 81.4642 29.3489C81.0454 29.4216 80.6425 29.3593 80.2609 29.1775C78.2253 28.123 76.1049 27.2659 73.9051 26.5906C73.5075 26.4556 73.1841 26.2166 72.9403 25.879C72.6964 25.5413 72.5798 25.1673 72.5798 24.7518C72.5798 24.3726 72.5427 23.9934 72.4685 23.6194C72.389 23.2454 72.2777 22.8818 72.1292 22.5337C71.9808 22.1805 71.7953 21.8429 71.5833 21.526C71.3659 21.2091 71.1221 20.9182 70.8464 20.6481C70.5708 20.378 70.2686 20.1391 69.9453 19.9261C69.6219 19.7131 69.2826 19.5365 68.9222 19.3911C68.5617 19.2404 68.1907 19.1313 67.8143 19.0586C67.4326 18.9807 67.0457 18.9443 66.6587 18.9443H58.3468C57.9545 18.9443 57.5676 18.9859 57.1806 19.0638C56.7989 19.1365 56.4226 19.2508 56.0621 19.4014C55.7017 19.5521 55.3571 19.7339 55.0337 19.9469C54.7104 20.165 54.4082 20.4092 54.1326 20.6845C53.8569 20.9546 53.6131 21.2507 53.3957 21.5727C53.1837 21.8948 52.9982 22.2324 52.855 22.5909C52.7066 22.9493 52.5953 23.3129 52.5264 23.6921C52.4522 24.0713 52.4151 24.4505 52.4204 24.8349C52.4257 25.2245 52.3144 25.5829 52.0864 25.8997C51.8585 26.2218 51.5563 26.4452 51.18 26.5698C48.9536 27.2503 46.8067 28.1178 44.7393 29.1827C44.3577 29.3697 43.9548 29.4268 43.5307 29.3541C43.1119 29.2813 42.7515 29.0892 42.4546 28.7879C41.8927 28.258 41.246 27.8529 40.5251 27.5672C39.7988 27.2867 39.0461 27.1412 38.2669 27.1412C37.4823 27.1412 36.7296 27.2867 36.0087 27.5672C35.2825 27.8529 34.6357 28.258 34.0738 28.7879L28.2004 34.5537C27.9248 34.8239 27.6809 35.1147 27.4689 35.4316C27.2515 35.7485 27.0713 36.0809 26.9229 36.4289C26.7745 36.777 26.6631 37.1406 26.5836 37.5094C26.5094 37.8834 26.467 38.2574 26.467 38.6366C26.467 39.0158 26.5041 39.3898 26.573 39.7638C26.6472 40.1378 26.7585 40.4962 26.9017 40.8494C27.0501 41.2027 27.225 41.5351 27.4371 41.852C27.6491 42.1688 27.8929 42.4649 28.1633 42.735L28.2057 42.7766C28.5079 43.0675 28.6987 43.4207 28.7676 43.8311C28.8418 44.2414 28.7835 44.6362 28.5927 45.0102C27.5219 47.0101 26.6419 49.0827 25.9528 51.2384C25.815 51.6332 25.5711 51.95 25.2266 52.189C24.882 52.4279 24.4951 52.5422 24.071 52.537C23.684 52.537 23.297 52.5734 22.9154 52.6513C22.5337 52.724 22.1626 52.8383 21.8022 52.9837C21.447 53.1292 21.1025 53.3058 20.7791 53.5188C20.4557 53.7318 20.1589 53.9707 19.8832 54.2408C19.6076 54.5109 19.3637 54.807 19.1464 55.1239C18.9291 55.4407 18.7488 55.7732 18.6004 56.1264C18.4467 56.4796 18.3354 56.8432 18.2612 57.2172C18.1869 57.5861 18.1445 57.9653 18.1445 58.3496V66.4894C18.1445 66.8686 18.1869 67.2478 18.2612 67.6218C18.3354 67.9958 18.4467 68.3594 18.6004 68.7126C18.7488 69.0607 18.9291 69.3983 19.1464 69.7152C19.3637 70.032 19.6076 70.3229 19.8832 70.593C20.1589 70.8631 20.4557 71.1073 20.7791 71.3151C21.1025 71.528 21.447 71.7098 21.8022 71.8553C22.1626 72.0007 22.5337 72.1098 22.9154 72.1877C23.297 72.2605 23.684 72.2968 24.071 72.2968C24.4951 72.2916 24.882 72.4111 25.2266 72.65C25.5764 72.889 25.815 73.2059 25.9528 73.6006C26.6419 75.7511 27.5219 77.8289 28.5927 79.8236C28.7835 80.1976 28.8418 80.5924 28.7676 81.0028C28.6987 81.4131 28.5079 81.7663 28.2057 82.0572L28.1633 82.0988C27.8929 82.3689 27.6491 82.665 27.4371 82.9819C27.225 83.2987 27.0501 83.6312 26.9017 83.9844C26.7585 84.3376 26.6472 84.696 26.573 85.07C26.4988 85.444 26.467 85.818 26.467 86.1972C26.467 86.5764 26.5094 86.9504 26.5836 87.3244C26.6631 87.6984 26.7745 88.0569 26.9229 88.4049C27.0713 88.7581 27.2515 89.0906 27.4689 89.4074C27.6809 89.7191 27.9248 90.01 28.2004 90.2801L34.0738 96.0408C34.6357 96.5706 35.2825 96.9758 36.0087 97.2615C36.7349 97.5472 37.4876 97.6874 38.2669 97.6874C39.0514 97.6874 39.8041 97.5472 40.5251 97.2615C41.2513 96.9758 41.898 96.5706 42.4599 96.0408C42.7621 95.7395 43.1172 95.5577 43.536 95.4902C43.9548 95.4174 44.3577 95.4746 44.7393 95.6616C46.7802 96.7109 48.9006 97.5731 51.0951 98.2484C51.498 98.3835 51.8161 98.6172 52.0599 98.9549C52.3038 99.2925 52.4257 99.6665 52.4204 100.082C52.4204 100.461 52.4575 100.84 52.537 101.214C52.6112 101.588 52.7225 101.952 52.871 102.305C53.0194 102.659 53.2049 102.991 53.4222 103.308C53.6343 103.625 53.8834 103.921 54.1591 104.186C54.4347 104.456 54.7316 104.7 55.0549 104.913C55.3783 105.121 55.7176 105.303 56.078 105.448C56.4385 105.593 56.8095 105.703 57.1912 105.78C57.5729 105.853 57.9545 105.89 58.3468 105.895H66.6587C67.0457 105.89 67.4326 105.853 67.8143 105.78C68.1907 105.703 68.5617 105.593 68.9222 105.448C69.2826 105.303 69.6219 105.121 69.9453 104.913C70.2686 104.7 70.5708 104.456 70.8464 104.186C71.1221 103.921 71.3659 103.625 71.5833 103.308C71.7953 102.991 71.9808 102.659 72.1292 102.305C72.2777 101.952 72.389 101.588 72.4685 101.214C72.5427 100.84 72.5798 100.461 72.5798 100.082C72.5745 99.6665 72.6964 99.2925 72.9403 98.9497C73.1841 98.612 73.5022 98.3731 73.9051 98.238C75.384 97.7705 76.8259 97.2199 78.2412 96.581L75.4423 93.4903C74.5412 93.8539 73.6241 94.1863 72.707 94.4668C72.0974 94.6539 71.5355 94.9292 71.0161 95.298C70.5019 95.6616 70.0566 96.0979 69.6802 96.6018C69.3091 97.1056 69.0229 97.6563 68.8321 98.2536C68.6359 98.8458 68.5405 99.4587 68.5511 100.082C68.5511 100.326 68.5034 100.565 68.4027 100.794C68.3073 101.022 68.1695 101.22 67.9945 101.396C67.8143 101.568 67.6129 101.703 67.3796 101.796C67.1464 101.89 66.9078 101.942 66.6587 101.942H58.3468C58.0924 101.942 57.8538 101.89 57.6206 101.796C57.3873 101.703 57.1859 101.568 57.0057 101.396C56.8308 101.22 56.6929 101.022 56.5975 100.794C56.5021 100.565 56.4544 100.326 56.4544 100.082C56.4597 99.4587 56.3643 98.8458 56.1734 98.2536C55.9773 97.6563 55.6963 97.1056 55.32 96.6018C54.9436 96.0979 54.4983 95.6616 53.9841 95.298C53.4647 94.9292 52.9028 94.6539 52.2985 94.4668C50.3318 93.8643 48.4394 93.0955 46.6159 92.1553C45.7571 91.7086 44.8453 91.4904 43.8753 91.4904C42.2055 91.4956 40.7795 92.0774 39.608 93.241C39.4225 93.4124 39.221 93.5422 38.9878 93.6305C38.7546 93.724 38.516 93.7708 38.2669 93.7708C38.0177 93.7708 37.7739 93.724 37.5407 93.6305C37.3127 93.5422 37.106 93.4124 36.9257 93.241L31.047 87.4855C30.8721 87.3141 30.7342 87.1115 30.6388 86.8829C30.5434 86.6544 30.4957 86.4206 30.4957 86.1713C30.4957 85.9271 30.5434 85.6882 30.6388 85.4596C30.7342 85.2363 30.8721 85.0337 31.047 84.8571C31.0629 84.8467 31.0788 84.8311 31.0894 84.8155C31.54 84.3792 31.9058 83.8805 32.192 83.3247C32.4783 82.7741 32.6744 82.1871 32.7698 81.5742C32.8652 80.9612 32.8599 80.3431 32.7592 79.7301C32.6532 79.1172 32.4518 78.5354 32.1602 77.9848C31.2007 76.1979 30.4162 74.3434 29.8013 72.4215C29.6105 71.8241 29.3242 71.2735 28.9531 70.7644C28.5821 70.2606 28.1368 69.8242 27.6226 69.4554C27.1031 69.0918 26.5465 68.8113 25.9369 68.6243C25.3326 68.4321 24.7071 68.3386 24.071 68.349C23.8218 68.3438 23.578 68.2971 23.3447 68.2036C23.1168 68.1101 22.9101 67.975 22.7351 67.8036C22.5549 67.627 22.4171 67.4244 22.3217 67.201C22.2263 66.9725 22.1785 66.7335 22.1785 66.4894V58.3496C22.1785 58.1003 22.2263 57.8666 22.3217 57.638C22.4171 57.4094 22.5549 57.2069 22.7351 57.0354C22.9101 56.8588 23.1168 56.729 23.3447 56.6303C23.578 56.5368 23.8218 56.49 24.071 56.49C24.7071 56.4952 25.3326 56.4069 25.9369 56.2147C26.5465 56.0277 27.1031 55.7472 27.6226 55.3836C28.1368 55.0148 28.5821 54.5785 28.9531 54.0694C29.3242 53.5655 29.6105 53.0149 29.8013 52.4176C30.4162 50.4904 31.206 48.636 32.1655 46.8491C32.4571 46.2985 32.6532 45.7167 32.7592 45.1037C32.8652 44.4908 32.8652 43.8778 32.7698 43.2649C32.6744 42.6519 32.4836 42.065 32.1973 41.5091C31.9111 40.9585 31.5453 40.4599 31.0947 40.0235L31.0523 39.9768C30.8721 39.8054 30.7396 39.6028 30.6388 39.3742C30.5434 39.1457 30.4957 38.9119 30.4957 38.6626C30.4957 38.4184 30.5434 38.1795 30.6388 37.9509C30.7396 37.7276 30.8721 37.525 31.0523 37.3484L36.9257 31.5929C37.106 31.4215 37.3127 31.2916 37.5407 31.1981C37.7739 31.1046 38.0177 31.0579 38.2669 31.0579C38.516 31.0579 38.7599 31.1046 38.9931 31.1981C39.221 31.2916 39.4278 31.4215 39.608 31.5929C40.0586 32.0396 40.5675 32.4032 41.1347 32.6889C41.7019 32.9746 42.3009 33.1668 42.9317 33.2655C43.5625 33.3642 44.1933 33.359 44.8241 33.2603C45.4549 33.1564 46.054 32.9642 46.6159 32.6733C48.4659 31.7228 50.3848 30.9436 52.378 30.3358C52.977 30.1488 53.5336 29.8735 54.0425 29.5099C54.5567 29.1463 54.9966 28.7151 55.3624 28.2113C55.7282 27.7074 56.0038 27.162 56.1946 26.5698C56.3802 25.9777 56.465 25.3751 56.4544 24.7518C56.4544 24.5076 56.5021 24.2687 56.5975 24.0453C56.6929 23.8168 56.8308 23.6142 57.0057 23.4428C57.1859 23.2661 57.3873 23.1311 57.6206 23.0376C57.8538 22.9441 58.0924 22.8973 58.3468 22.8973H66.6587C66.9078 22.8973 67.1464 22.9441 67.3796 23.0376C67.6129 23.1311 67.8143 23.2661 67.9945 23.4428C68.1695 23.6142 68.3073 23.8168 68.4027 24.0453C68.5034 24.2687 68.5511 24.5076 68.5511 24.7518C68.5405 25.3803 68.6359 25.988 68.8321 26.5854C69.0229 27.1776 69.3091 27.7282 69.6802 28.2321C70.0566 28.7411 70.5019 29.1723 71.0161 29.5411C71.5355 29.9047 72.0974 30.18 72.707 30.3722C74.6684 30.9747 76.5608 31.7435 78.3844 32.6837C78.9516 32.9694 79.5506 33.1668 80.1814 33.2655C80.8122 33.3694 81.443 33.3694 82.0738 33.2707C82.7046 33.172 83.3036 32.9798 83.8708 32.6941C84.4433 32.4084 84.9469 32.0396 85.3975 31.5929C85.5777 31.4267 85.7845 31.2968 86.0124 31.2033C86.2456 31.115 86.4895 31.0682 86.7386 31.0682C86.9878 31.0682 87.2263 31.115 87.4595 31.2033C87.6928 31.2968 87.8995 31.4267 88.0798 31.5929L93.9532 37.3484C94.1281 37.525 94.2659 37.7276 94.3614 37.9509C94.4568 38.1795 94.5045 38.4184 94.5045 38.6626C94.5045 38.9119 94.4568 39.1457 94.3614 39.3742C94.2659 39.6028 94.1281 39.8054 93.9532 39.9768C93.9373 39.9924 93.9267 40.0027 93.9108 40.0183C93.4655 40.4599 93.0944 40.9533 92.8082 41.5091C92.5219 42.065 92.3311 42.6467 92.2357 43.2649C92.135 43.8778 92.1403 44.4908 92.2463 45.1037C92.347 45.7167 92.5484 46.2985 92.84 46.8491C93.7995 48.636 94.584 50.4904 95.1989 52.4176C95.395 53.0149 95.676 53.5655 96.0471 54.0694C96.4181 54.5785 96.8634 55.0148 97.3829 55.3784C97.8971 55.7472 98.459 56.0225 99.0633 56.2147C99.6729 56.4017 100.293 56.4952 100.929 56.49C101.184 56.49 101.422 56.5368 101.655 56.6303C101.889 56.729 102.09 56.8588 102.27 57.0354C102.445 57.2069 102.583 57.4094 102.679 57.638C102.774 57.8666 102.822 58.1003 102.822 58.3496V66.4894C102.822 66.7439 102.769 66.9829 102.668 67.2166C102.562 67.4452 102.419 67.6478 102.233 67.8244C102.048 68.001 101.836 68.1308 101.592 68.2243C101.353 68.3127 101.104 68.3542 100.844 68.349C100.224 68.3438 99.6146 68.4373 99.0209 68.6295C98.4272 68.8165 97.8759 69.0866 97.3723 69.4502C96.8634 69.8087 96.4287 70.2346 96.063 70.7281C95.6919 71.2216 95.4163 71.7618 95.2201 72.3436C94.9286 73.2734 94.584 74.1928 94.2129 75.1018L97.3564 77.8341C98.019 76.4264 98.5915 74.9824 99.0739 73.5071C99.2117 73.1279 99.4556 72.8267 99.8001 72.6033C100.139 72.3799 100.521 72.276 100.929 72.2968Z" fill="#E9E2D1"/>
</svg>
