<svg width="248" height="176" viewBox="0 0 248 176" fill="none" xmlns="http://www.w3.org/2000/svg">
<mask id="mask0_656_237" style="mask-type:luminance" maskUnits="userSpaceOnUse" x="51" y="0" width="126" height="131">
<path d="M51.6484 0H176.648V130.443H51.6484V0Z" fill="white"/>
</mask>
<g mask="url(#mask0_656_237)">
<path fill-rule="evenodd" clip-rule="evenodd" d="M135.01 52.5118H153.21C153.539 52.5118 153.851 52.4455 154.146 52.313C154.44 52.1805 154.684 51.9919 154.883 51.7523C155.075 51.5178 155.2 51.2477 155.257 50.9571C155.308 50.6666 155.291 50.376 155.189 50.0957C154.82 49.0202 154.299 48.0109 153.624 47.0628C152.955 46.1148 152.161 45.2584 151.237 44.4989C150.313 43.7445 149.298 43.1023 148.187 42.5875C147.081 42.0727 145.913 41.6955 144.689 41.4559C143.47 41.2163 142.234 41.1246 140.986 41.1806C139.739 41.2367 138.52 41.4355 137.329 41.7821C136.139 42.1287 135.022 42.6079 133.973 43.2246C132.924 43.8363 131.983 44.5601 131.149 45.396C132.992 47.5267 134.279 49.8969 135.01 52.5118ZM95.9914 85.552C101.514 90.6135 107.915 88.2892 113.998 86.0719C118.869 84.2981 123.575 82.5854 128.139 83.7119C129.051 83.9413 129.913 84.2624 130.735 84.6855L151.135 95.145C151.951 95.5579 152.666 96.0829 153.284 96.7098L155.092 96.0319L144.932 72.4674C140.867 74.1036 137.244 72.7733 133.162 71.2747C128.864 69.6945 123.926 67.8799 117.525 70.6834C114.611 71.9577 111.906 73.9711 109.644 76.0304C107.427 78.0336 105.052 79.8788 102.529 81.5711C100.448 82.9779 98.265 84.3032 95.9914 85.552ZM69.4119 57.6396L52.9981 91.0315C52.8053 91.424 52.7089 91.8318 52.6976 92.2548C52.6862 92.683 52.7656 93.0908 52.9357 93.4884C53.1058 93.886 53.3552 94.2377 53.6841 94.5486C54.0073 94.8544 54.3871 95.094 54.818 95.2673L61.9732 98.1116C62.4041 98.2798 62.8577 98.3715 63.3283 98.3817C63.8045 98.3868 64.2581 98.3155 64.7003 98.1625C65.1426 98.0096 65.5338 97.7853 65.874 97.4948C66.2198 97.1992 66.4863 96.8576 66.6791 96.4703L83.0929 63.0783C83.2856 62.6858 83.382 62.2781 83.3934 61.855C83.4047 61.4319 83.3253 61.019 83.1552 60.6215C82.9851 60.2239 82.7357 59.8722 82.4068 59.5663C82.0837 59.2554 81.7038 59.0158 81.2729 58.8425L74.1234 56.0034C73.6925 55.8301 73.2389 55.7383 72.7627 55.7332C72.2921 55.723 71.8328 55.7944 71.3906 55.9473C70.954 56.1002 70.5571 56.3245 70.217 56.615C69.8768 56.9107 69.6046 57.2522 69.4119 57.6396ZM160.688 60.0098L175.362 94.0542C175.532 94.4518 175.611 94.8595 175.6 95.2877C175.588 95.7108 175.486 96.1185 175.299 96.5059C175.107 96.8984 174.84 97.2399 174.5 97.5356C174.16 97.8261 173.768 98.0504 173.326 98.2084L166.041 100.747C165.598 100.9 165.139 100.971 164.669 100.961C164.192 100.951 163.739 100.859 163.308 100.691C162.877 100.517 162.497 100.278 162.168 99.972C161.839 99.6611 161.59 99.3094 161.42 98.9169L146.741 64.8726C146.571 64.475 146.492 64.0672 146.503 63.639C146.514 63.216 146.616 62.8082 146.809 62.4208C147.002 62.0283 147.263 61.6868 147.608 61.3911C147.949 61.1006 148.34 60.8763 148.782 60.7183L156.068 58.1799C156.51 58.027 156.969 57.9556 157.44 57.9658C157.91 57.976 158.364 58.0678 158.8 58.236C159.231 58.4093 159.611 58.6488 159.94 58.9547C160.263 59.2656 160.518 59.6173 160.688 60.0098ZM155.092 63.4453C154.769 63.4453 154.457 63.5014 154.163 63.6135C153.862 63.7257 153.601 63.8837 153.375 64.0876C153.148 64.2915 152.972 64.5259 152.847 64.7961C152.723 65.0611 152.66 65.3415 152.66 65.632C152.66 65.9175 152.723 66.1978 152.847 66.468C152.972 66.733 153.148 66.9675 153.375 67.1765C153.601 67.3804 153.862 67.5384 154.163 67.6454C154.457 67.7576 154.769 67.8137 155.092 67.8137C155.41 67.8137 155.722 67.7576 156.022 67.6454C156.317 67.5384 156.578 67.3804 156.81 67.1765C157.037 66.9675 157.213 66.733 157.332 66.468C157.457 66.1978 157.519 65.9175 157.519 65.632C157.519 65.3415 157.457 65.0611 157.332 64.7961C157.213 64.5259 157.037 64.2915 156.81 64.0876C156.578 63.8837 156.317 63.7257 156.022 63.6135C155.722 63.5014 155.41 63.4453 155.092 63.4453ZM74.8264 61.3045C75.1496 61.3198 75.4558 61.386 75.7449 61.5084C76.0397 61.6358 76.2949 61.804 76.5103 62.0181C76.7258 62.2322 76.8902 62.4718 76.9979 62.747C77.1056 63.0172 77.1567 63.2975 77.1397 63.588C77.1227 63.8786 77.049 64.1538 76.9129 64.4138C76.7768 64.6789 76.5897 64.9082 76.3516 65.1019C76.1134 65.2956 75.8413 65.4434 75.5408 65.5403C75.2346 65.6371 74.9228 65.683 74.5996 65.6677C74.2821 65.6524 73.976 65.5862 73.6811 65.4638C73.392 65.3415 73.1369 65.1733 72.9214 64.9592C72.7003 64.7451 72.5415 64.5005 72.4281 64.2303C72.3204 63.9551 72.2751 63.6747 72.2864 63.3842C72.3034 63.0987 72.3771 62.8184 72.5189 62.5584C72.6549 62.2985 72.842 62.0691 73.0802 61.8754C73.3183 61.6766 73.5848 61.5288 73.8909 61.4319C74.1914 61.3351 74.5033 61.2943 74.8264 61.3045ZM121.817 121.722C121.681 122.634 121.375 123.496 120.893 124.306L118.931 127.604C119.606 127.951 120.326 128.328 120.983 128.659C121.386 128.848 121.817 128.96 122.271 129.001C122.724 129.036 123.166 129.001 123.603 128.884C124.039 128.766 124.436 128.583 124.794 128.328C125.151 128.078 125.44 127.772 125.667 127.416C125.899 127.043 126.047 126.646 126.103 126.218C126.16 125.795 126.126 125.377 125.996 124.964C125.871 124.551 125.655 124.174 125.361 123.837C125.066 123.501 124.708 123.231 124.295 123.022L121.817 121.722ZM95.2827 122.125C95.2204 122.497 95.226 122.869 95.2997 123.236C95.3734 123.603 95.5152 123.949 95.7193 124.276C95.9234 124.602 96.1842 124.887 96.496 125.137C96.8079 125.382 97.1594 125.575 97.5449 125.718C97.9305 125.861 98.333 125.942 98.7469 125.958C99.1608 125.978 99.569 125.937 99.9716 125.835C100.374 125.728 100.743 125.57 101.083 125.351C101.423 125.137 101.712 124.877 101.956 124.571L106.633 116.558C106.741 116.197 106.775 115.83 106.741 115.457C106.707 115.085 106.611 114.729 106.441 114.387C106.276 114.045 106.049 113.74 105.766 113.464C105.488 113.189 105.165 112.965 104.796 112.792C104.428 112.613 104.042 112.496 103.634 112.44C103.22 112.379 102.812 112.384 102.404 112.445C101.996 112.511 101.61 112.634 101.247 112.817C100.884 112.995 100.567 113.225 100.289 113.505L95.2827 122.125ZM96.1162 111.961L90.849 120.81C90.6222 121.207 90.3217 121.549 89.9419 121.839C89.5677 122.13 89.1368 122.344 88.6662 122.476C88.1899 122.614 87.708 122.66 87.2091 122.619C86.7158 122.583 86.2452 122.456 85.8086 122.247C85.3664 122.038 84.9922 121.758 84.6747 121.416C84.3629 121.069 84.1304 120.682 83.9887 120.254C83.8469 119.821 83.8016 119.387 83.8583 118.944C83.9093 118.495 84.0567 118.077 84.3005 117.69L89.6754 108.653C91.0475 107.521 92.5783 106.914 94.3926 107.786C96.2239 108.668 96.5924 110.284 96.1162 111.961ZM86.3699 105.824C86.5741 105.431 86.6818 105.018 86.7045 104.585C86.7271 104.152 86.6534 103.729 86.4947 103.321C86.3303 102.913 86.0921 102.551 85.7746 102.225C85.4515 101.904 85.0773 101.644 84.6464 101.45C84.2155 101.262 83.7562 101.15 83.28 101.114C82.798 101.083 82.3274 101.134 81.8682 101.267C81.409 101.399 80.9951 101.603 80.6265 101.878C80.258 102.159 79.9575 102.485 79.7307 102.867L75.983 109.167C75.7789 109.514 75.6429 109.881 75.5805 110.268C75.5238 110.661 75.5351 111.048 75.6259 111.431C75.7166 111.818 75.881 112.175 76.1078 112.511C76.3402 112.843 76.6294 113.128 76.9752 113.373C77.3211 113.612 77.701 113.796 78.1205 113.913C78.5344 114.035 78.9596 114.086 79.4019 114.071C79.8384 114.056 80.258 113.974 80.6606 113.821C81.0688 113.673 81.4316 113.464 81.7548 113.199L86.3699 105.824ZM106.214 126.182L110.693 118.511C110.993 118.205 111.345 117.96 111.748 117.772C112.15 117.588 112.581 117.471 113.029 117.425C113.477 117.374 113.925 117.405 114.361 117.501C114.804 117.603 115.206 117.772 115.58 118.006C115.949 118.235 116.261 118.521 116.516 118.857C116.771 119.199 116.952 119.566 117.06 119.958C117.162 120.356 117.185 120.759 117.128 121.161C117.071 121.564 116.935 121.946 116.72 122.303L113.131 128.343C112.921 128.695 112.655 129.001 112.32 129.266C111.991 129.531 111.623 129.735 111.209 129.877C110.801 130.02 110.375 130.097 109.933 130.107C109.491 130.112 109.06 130.051 108.646 129.923C108.227 129.791 107.847 129.602 107.507 129.347C107.166 129.098 106.883 128.797 106.662 128.455C106.441 128.114 106.288 127.747 106.214 127.354C106.135 126.967 106.135 126.574 106.214 126.182ZM73.3126 93.5088L84.7711 70.1992L85.1056 70.3368C89.3012 72.4317 93.1566 71.6213 97.3408 70.7395C100.884 69.9902 104.723 69.1848 109.037 70.7395C105.794 73.2218 103.232 75.7908 99.6994 78.1763C97.1934 79.8533 94.591 81.3927 91.8866 82.7995C91.5067 83.0034 91.1892 83.2684 90.9341 83.5896C90.6789 83.9158 90.5088 84.2726 90.4238 84.6651C90.3387 85.0576 90.3501 85.445 90.4521 85.8323C90.5542 86.2197 90.7413 86.5714 91.0078 86.8824C98.9964 96.1287 107.614 92.9888 115.773 90.0172C120.49 88.2994 125.026 86.653 128.399 88.3861L148.805 98.8405C149.219 99.0495 149.57 99.3196 149.859 99.6509C150.154 99.9822 150.37 100.354 150.5 100.757C150.63 101.165 150.67 101.583 150.619 102.001C150.574 102.424 150.438 102.821 150.211 103.193C149.984 103.555 149.695 103.866 149.332 104.126C148.975 104.381 148.572 104.57 148.136 104.687C147.693 104.804 147.24 104.845 146.786 104.804C146.327 104.763 145.891 104.651 145.482 104.458C140.85 102.031 136.082 99.7172 131.416 97.3164C131.144 97.1788 130.854 97.087 130.543 97.0513C130.231 97.0157 129.925 97.036 129.618 97.1125C129.318 97.1839 129.04 97.3062 128.791 97.4795C128.547 97.6528 128.343 97.8618 128.184 98.1065C128.031 98.3511 127.935 98.6162 127.895 98.8965C127.855 99.1769 127.872 99.4521 127.957 99.7223C128.042 99.9975 128.178 100.242 128.371 100.466C128.558 100.691 128.791 100.869 129.068 101.012C133.735 103.418 138.435 105.783 143.129 108.148C143.538 108.347 143.883 108.612 144.173 108.938C144.467 109.264 144.677 109.631 144.808 110.029C144.938 110.432 144.978 110.839 144.932 111.257C144.881 111.67 144.751 112.063 144.53 112.43C144.309 112.802 144.02 113.118 143.662 113.383C143.299 113.648 142.903 113.842 142.455 113.964C142.012 114.086 141.559 114.132 141.094 114.091C140.629 114.056 140.192 113.938 139.784 113.745C133.718 110.544 127.413 107.485 121.273 104.381C121.001 104.244 120.706 104.162 120.4 104.131C120.088 104.101 119.787 104.126 119.487 104.203C119.186 104.279 118.914 104.407 118.67 104.58C118.426 104.753 118.228 104.962 118.075 105.207C117.922 105.452 117.825 105.712 117.791 105.992C117.752 106.267 117.774 106.542 117.859 106.813C117.939 107.083 118.075 107.327 118.268 107.552C118.46 107.771 118.687 107.949 118.959 108.092C123.988 110.635 129.006 113.225 134.035 115.758C134.443 115.957 134.801 116.222 135.095 116.548C135.39 116.874 135.606 117.241 135.736 117.644C135.872 118.052 135.912 118.46 135.866 118.883C135.815 119.301 135.679 119.693 135.458 120.065C135.231 120.437 134.942 120.753 134.574 121.018C134.211 121.284 133.803 121.477 133.355 121.6C132.907 121.717 132.448 121.758 131.983 121.712C131.518 121.671 131.076 121.549 130.667 121.345L119.946 115.896C119.424 115.325 118.818 114.836 118.132 114.423C117.446 114.015 116.714 113.699 115.926 113.485C115.138 113.266 114.333 113.159 113.511 113.153C112.689 113.148 111.878 113.245 111.09 113.454C110.925 112.985 110.716 112.537 110.455 112.103C110.194 111.67 109.888 111.268 109.542 110.89C109.191 110.513 108.805 110.167 108.38 109.856C107.96 109.545 107.507 109.274 107.025 109.04C106.543 108.811 106.044 108.622 105.517 108.479C104.995 108.337 104.462 108.235 103.923 108.184C103.379 108.133 102.835 108.133 102.29 108.179C101.746 108.219 101.213 108.311 100.686 108.449C100.385 107.582 99.9262 106.787 99.3025 106.073C98.6845 105.355 97.9418 104.753 97.0857 104.279C96.2239 103.8 95.2997 103.469 94.3075 103.29C93.3153 103.112 92.3231 103.097 91.3253 103.239C91.2062 102.567 90.9908 101.919 90.6733 101.297C90.3614 100.681 89.9589 100.105 89.4769 99.5796C88.9894 99.0596 88.4394 98.6009 87.8157 98.2135C87.1921 97.821 86.523 97.5152 85.8086 97.2858C85.0943 97.0615 84.3572 96.9239 83.6031 96.8729C82.8434 96.8271 82.095 96.8678 81.3523 97.0004C80.6039 97.1329 79.8951 97.3572 79.2204 97.663C78.5401 97.9688 77.9221 98.346 77.3551 98.8048C76.8505 96.613 76.0568 94.5384 73.3126 93.5037V93.5088ZM164.045 30.6345C166.608 34.595 168.552 38.7849 169.879 43.2093C171.206 47.6337 171.863 52.1397 171.852 56.7221C171.852 57.0024 171.914 57.2726 172.034 57.5376C172.153 57.7976 172.323 58.027 172.549 58.2258C172.771 58.4246 173.026 58.5826 173.315 58.6896C173.604 58.7967 173.91 58.8527 174.222 58.8527C174.534 58.8527 174.84 58.7967 175.129 58.6896C175.418 58.5826 175.673 58.4246 175.895 58.2258C176.121 58.027 176.291 57.7976 176.411 57.5376C176.53 57.2726 176.592 57.0024 176.592 56.7221C176.598 51.7625 175.883 46.8946 174.449 42.1083C173.014 37.322 170.911 32.7855 168.138 28.5038C167.98 28.2592 167.776 28.0553 167.526 27.882C167.277 27.7087 167.004 27.5863 166.698 27.515C166.398 27.4436 166.092 27.4283 165.78 27.464C165.468 27.4997 165.179 27.5914 164.907 27.7291C164.635 27.8718 164.402 28.0553 164.215 28.2796C164.022 28.5038 163.886 28.7485 163.807 29.0238C163.727 29.2939 163.705 29.5692 163.75 29.8495C163.79 30.1299 163.886 30.3898 164.045 30.6345ZM59.6203 25.2314C59.3255 25.3079 59.0193 25.3232 58.7075 25.2875C58.4013 25.2518 58.1121 25.1652 57.84 25.0275C57.5678 24.8899 57.3411 24.7115 57.1483 24.4923C56.9555 24.2731 56.8138 24.0285 56.7287 23.7583C56.6437 23.4882 56.621 23.218 56.655 22.9377C56.689 22.6624 56.7798 22.3974 56.9328 22.1527C57.0802 21.908 57.2787 21.699 57.5168 21.5206C57.7606 21.3473 58.0328 21.2199 58.3276 21.1383L68.3403 18.5693C69.6103 17.3358 70.9427 16.1533 72.3318 15.0268C73.7208 13.8952 75.1666 12.8299 76.6634 11.8155C78.1602 10.8063 79.708 9.85818 81.3012 8.97126C82.8944 8.08435 84.5273 7.26369 86.1999 6.5093C87.8781 5.75491 89.5847 5.07189 91.3309 4.45512C93.0715 3.84345 94.8405 3.29805 96.6378 2.82401C98.4351 2.35507 100.255 1.95238 102.092 1.63126C103.929 1.30504 105.783 1.05527 107.643 0.876868C109.508 0.703562 111.373 0.601619 113.244 0.576132C115.121 0.555743 116.986 0.606715 118.857 0.734146C120.723 0.861576 122.582 1.06037 124.431 1.34072C126.273 1.61597 128.105 1.96767 129.919 2.39074C131.728 2.81891 133.519 3.31844 135.277 3.88423C137.04 4.45512 138.769 5.09737 140.47 5.80589C142.171 6.5144 143.827 7.29428 145.448 8.13532C147.07 8.98146 148.646 9.88876 150.171 10.8623L149.168 7.68676C149.083 7.41661 149.06 7.14136 149.1 6.86611C149.139 6.58576 149.236 6.3258 149.389 6.08114C149.542 5.83647 149.74 5.62748 149.984 5.45418C150.228 5.28087 150.5 5.15344 150.8 5.07698C151.101 5.00052 151.407 4.98013 151.719 5.01072C152.025 5.0413 152.32 5.12286 152.592 5.26048C152.864 5.39811 153.097 5.57141 153.295 5.79059C153.488 6.00978 153.63 6.25444 153.72 6.5246L156.759 16.1074C156.861 16.4336 156.878 16.7649 156.805 17.0962C156.731 17.4327 156.578 17.7334 156.345 18.0035C156.113 18.2686 155.824 18.4776 155.484 18.6203C155.138 18.763 154.775 18.8293 154.401 18.8191L143.492 19.1708C143.18 19.181 142.874 19.1351 142.585 19.0383C142.29 18.9363 142.029 18.7936 141.797 18.5999C141.57 18.4062 141.389 18.182 141.258 17.9271C141.128 17.6722 141.06 17.4021 141.049 17.1217C141.037 16.8414 141.088 16.5661 141.196 16.3062C141.304 16.0411 141.468 15.8066 141.684 15.5977C141.893 15.3938 142.143 15.2307 142.426 15.1134C142.715 14.9962 143.01 14.935 143.328 14.9248L148.119 14.7668C146.707 13.8493 145.256 12.9879 143.764 12.1825C142.268 11.3772 140.737 10.6381 139.166 9.96013C137.596 9.2822 135.997 8.66543 134.364 8.12003C132.737 7.56953 131.081 7.09039 129.397 6.67751C127.719 6.25954 126.024 5.91802 124.306 5.64277C122.594 5.36752 120.87 5.16364 119.135 5.02601C117.4 4.89348 115.66 4.82722 113.919 4.83232C112.178 4.83741 110.438 4.91897 108.709 5.06679C106.974 5.21461 105.25 5.42869 103.538 5.71923C101.826 6.00468 100.13 6.36148 98.4578 6.78965C96.7795 7.21782 95.1296 7.70715 93.5024 8.26785C91.8752 8.82854 90.282 9.4555 88.7172 10.1436C87.158 10.8368 85.6329 11.5861 84.1418 12.4017C82.6563 13.2173 81.2105 14.0889 79.8158 15.0217C78.4154 15.9545 77.066 16.9382 75.7619 17.9832C74.4636 19.023 73.2162 20.1138 72.0256 21.2556L72.3885 30.3337C72.3998 30.6192 72.3544 30.8893 72.2467 31.1544C72.1333 31.4194 71.9746 31.6539 71.7591 31.8629C71.5493 32.0719 71.2999 32.2299 71.0107 32.3471C70.7272 32.4644 70.4267 32.5306 70.1149 32.5408C69.7974 32.551 69.4969 32.5052 69.2021 32.4083C68.9073 32.3064 68.6464 32.1636 68.4197 31.9699C68.1872 31.7763 68.0114 31.552 67.881 31.292C67.7506 31.0372 67.6826 30.767 67.6713 30.4867L67.4955 26.1795C63.9009 30.609 61.1568 35.4361 59.2631 40.6556C57.3751 45.8752 56.4396 51.2324 56.4452 56.7221C56.4452 57.0024 56.3885 57.2726 56.2695 57.5376C56.1447 57.7976 55.9747 58.027 55.7535 58.2258C55.5324 58.4246 55.2773 58.5826 54.9825 58.6896C54.6933 58.7967 54.3928 58.8527 54.081 58.8527C53.7635 58.8527 53.463 58.7967 53.1738 58.6896C52.879 58.5826 52.6239 58.4246 52.4027 58.2258C52.1816 58.027 52.0115 57.7976 51.8925 57.5376C51.7677 57.2726 51.711 57.0024 51.711 56.7221C51.6997 50.9214 52.6692 45.2533 54.6196 39.7228C56.57 34.1974 59.4105 29.0645 63.1412 24.3292L59.6203 25.2314ZM114.152 24.2527C113.596 24.2527 113.04 24.3037 112.496 24.4006C111.952 24.4974 111.419 24.6401 110.903 24.8338C110.392 25.0224 109.899 25.262 109.44 25.5372C108.975 25.8176 108.544 26.1336 108.153 26.4853C107.756 26.8421 107.405 27.2244 107.098 27.6424C106.787 28.0604 106.526 28.4987 106.316 28.9626C106.101 29.4213 105.942 29.9005 105.828 30.3898C105.721 30.8842 105.67 31.3787 105.67 31.8782C105.67 32.3777 105.721 32.8773 105.828 33.3666C105.942 33.861 106.101 34.3351 106.316 34.7989C106.526 35.2628 106.787 35.7011 107.098 36.1191C107.405 36.532 107.756 36.9194 108.153 37.2711C108.544 37.6279 108.975 37.9439 109.44 38.2191C109.899 38.4995 110.387 38.734 110.903 38.9277C111.419 39.1163 111.952 39.2641 112.496 39.3609C113.04 39.4578 113.59 39.5087 114.152 39.5087C114.707 39.5087 115.257 39.4578 115.807 39.3609C116.351 39.2641 116.879 39.1163 117.395 38.9277C117.911 38.734 118.398 38.4995 118.863 38.2191C119.328 37.9439 119.753 37.6279 120.15 37.2711C120.541 36.9194 120.893 36.532 121.205 36.1191C121.511 35.7011 121.772 35.2628 121.987 34.7989C122.197 34.3351 122.361 33.861 122.469 33.3666C122.577 32.8773 122.633 32.3828 122.633 31.8782C122.633 31.3787 122.577 30.8842 122.469 30.3898C122.361 29.9005 122.197 29.4213 121.987 28.9626C121.772 28.4987 121.511 28.0604 121.205 27.6424C120.893 27.2244 120.541 26.8421 120.15 26.4853C119.753 26.1336 119.328 25.8176 118.863 25.5372C118.398 25.262 117.911 25.0224 117.395 24.8338C116.884 24.6401 116.351 24.4974 115.807 24.4006C115.257 24.3037 114.707 24.2527 114.152 24.2527ZM99.9659 55.6313H128.337C128.66 55.6313 128.966 55.565 129.256 55.4376C129.545 55.3102 129.789 55.1267 129.981 54.8973C130.18 54.6679 130.31 54.4079 130.373 54.1225C130.429 53.8371 130.418 53.5567 130.333 53.2764C130.095 52.4812 129.783 51.7166 129.403 50.9673C129.023 50.2231 128.575 49.5044 128.065 48.8265C127.555 48.1435 126.988 47.5063 126.358 46.9048C125.735 46.3085 125.054 45.763 124.329 45.2635C123.603 44.764 122.837 44.3205 122.032 43.9382C121.222 43.5509 120.388 43.2246 119.521 42.9647C118.659 42.6996 117.774 42.5008 116.873 42.3683C115.971 42.2358 115.064 42.1695 114.152 42.1695C113.239 42.1695 112.332 42.2358 111.43 42.3683C110.529 42.5008 109.644 42.6996 108.777 42.9647C107.909 43.2246 107.076 43.5509 106.271 43.9382C105.46 44.3205 104.694 44.764 103.969 45.2635C103.243 45.763 102.568 46.3085 101.939 46.9048C101.315 47.5063 100.743 48.1435 100.232 48.8265C99.7221 49.5044 99.2799 50.2231 98.9 50.9673C98.5145 51.7166 98.2083 52.4812 97.9645 53.2764C97.8794 53.5567 97.8681 53.8371 97.9305 54.1225C97.9928 54.4079 98.1232 54.6679 98.316 54.8973C98.5145 55.1267 98.7583 55.3102 99.0474 55.4376C99.3366 55.565 99.6427 55.6313 99.9659 55.6313ZM86.6137 25.6443C86.1432 25.6443 85.6782 25.6851 85.219 25.7666C84.7598 25.8482 84.3118 25.9705 83.8809 26.1336C83.4444 26.2916 83.0305 26.4904 82.6393 26.7249C82.2537 26.9594 81.8909 27.2244 81.5564 27.5252C81.2275 27.8259 80.9327 28.147 80.6719 28.4987C80.4054 28.8504 80.19 29.2225 80.0085 29.6099C79.8271 30.0024 79.691 30.4051 79.6003 30.818C79.5096 31.2309 79.4642 31.6488 79.4642 32.0719C79.4642 32.495 79.5096 32.9129 79.6003 33.3258C79.691 33.7387 79.8271 34.1414 80.0085 34.5339C80.19 34.9212 80.4054 35.2933 80.6719 35.6451C80.9327 35.9968 81.2275 36.3179 81.5564 36.6186C81.8909 36.9194 82.2537 37.1844 82.6393 37.4189C83.0305 37.6534 83.4444 37.8521 83.8809 38.0102C84.3118 38.1733 84.7598 38.2956 85.219 38.3772C85.6782 38.4587 86.1432 38.4995 86.6137 38.4995C87.0843 38.4995 87.5492 38.4587 88.0085 38.3772C88.4677 38.2956 88.9156 38.1733 89.3522 38.0102C89.7831 37.8521 90.197 37.6534 90.5882 37.4189C90.9794 37.1844 91.3366 36.9194 91.6711 36.6186C92.0056 36.3179 92.3005 35.9968 92.5613 35.6451C92.8221 35.2933 93.0432 34.9212 93.219 34.5339C93.4004 34.1414 93.5365 33.7387 93.6272 33.3258C93.7179 32.9129 93.7632 32.495 93.7632 32.0719C93.7632 31.6488 93.7179 31.2309 93.6272 30.818C93.5365 30.4051 93.4004 30.0024 93.219 29.6099C93.0432 29.2225 92.8221 28.8504 92.5613 28.4987C92.3005 28.147 92.0056 27.8259 91.6711 27.5252C91.3366 27.2244 90.9794 26.9594 90.5882 26.7249C90.197 26.4904 89.7831 26.2916 89.3522 26.1336C88.9156 25.9705 88.4677 25.8482 88.0085 25.7666C87.5492 25.6851 87.0843 25.6443 86.6137 25.6443ZM141.684 25.6443C141.219 25.6443 140.754 25.6851 140.289 25.7666C139.83 25.8482 139.382 25.9705 138.951 26.1336C138.514 26.2916 138.106 26.4904 137.715 26.7249C137.324 26.9594 136.961 27.2244 136.632 27.5252C136.297 27.8259 136.003 28.147 135.742 28.4987C135.481 28.8504 135.26 29.2225 135.078 29.6099C134.897 30.0024 134.767 30.4051 134.67 30.818C134.579 31.2309 134.534 31.6488 134.534 32.0719C134.534 32.495 134.579 32.9129 134.67 33.3258C134.767 33.7387 134.897 34.1414 135.078 34.5339C135.26 34.9212 135.481 35.2933 135.742 35.6451C136.003 35.9968 136.297 36.3179 136.632 36.6186C136.961 36.9194 137.324 37.1844 137.715 37.4189C138.106 37.6534 138.514 37.8521 138.951 38.0102C139.382 38.1733 139.83 38.2956 140.289 38.3772C140.754 38.4587 141.219 38.4995 141.684 38.4995C142.154 38.4995 142.619 38.4587 143.078 38.3772C143.543 38.2956 143.991 38.1733 144.422 38.0102C144.859 37.8521 145.267 37.6534 145.658 37.4189C146.049 37.1844 146.412 36.9194 146.741 36.6186C147.075 36.3179 147.37 35.9968 147.631 35.6451C147.892 35.2933 148.113 34.9212 148.294 34.5339C148.47 34.1414 148.606 33.7387 148.697 33.3258C148.793 32.9129 148.839 32.495 148.839 32.0719C148.839 31.6488 148.793 31.2309 148.697 30.818C148.606 30.4051 148.47 30.0024 148.294 29.6099C148.113 29.2225 147.892 28.8504 147.631 28.4987C147.37 28.147 147.075 27.8259 146.741 27.5252C146.412 27.2244 146.049 26.9594 145.658 26.7249C145.267 26.4904 144.859 26.2916 144.422 26.1336C143.991 25.9705 143.543 25.8482 143.078 25.7666C142.619 25.6851 142.154 25.6443 141.684 25.6443ZM75.0872 52.5118H93.287C94.0184 49.8969 95.3054 47.5267 97.1481 45.396C96.3146 44.5601 95.3734 43.8363 94.3245 43.2246C93.2756 42.6079 92.1587 42.1287 90.9681 41.7821C89.7831 41.4355 88.5641 41.2367 87.3168 41.1806C86.0638 41.1246 84.8335 41.2163 83.6088 41.4559C82.3898 41.6955 81.2219 42.0727 80.1106 42.5875C78.9993 43.1023 77.9845 43.7445 77.066 44.4989C76.1418 45.2584 75.3424 46.1148 74.6733 47.0628C74.0043 48.0109 73.4827 49.0202 73.1085 50.0957C73.0121 50.376 72.9894 50.6666 73.0461 50.9571C73.0972 51.2477 73.2219 51.5178 73.4203 51.7523C73.6131 51.9919 73.8626 52.1805 74.1517 52.313C74.4466 52.4455 74.7584 52.5118 75.0872 52.5118Z" fill="#E9E2D1"/>
</g>
<path d="M6.11274 162.756H0V159.653H16.6039V162.756H10.4912V175.775H6.11274V162.756Z" fill="#E9E2D1"/>
<path d="M23.2934 176C22.4547 176 21.7013 175.91 21.0189 175.73C20.3508 175.539 19.7822 175.275 19.3131 174.943C18.8582 174.6 18.5028 174.195 18.2611 173.729C18.0336 173.268 17.9199 172.756 17.9199 172.2C17.9199 171.649 18.0408 171.143 18.2895 170.693C18.5312 170.232 18.915 169.833 19.4268 169.502C19.9385 169.159 20.5498 168.889 21.2748 168.692C22.014 168.501 22.8812 168.4 23.8905 168.4H27.5297V167.838C27.5297 167.253 27.2881 166.82 26.8189 166.534C26.3427 166.253 25.6959 166.106 24.8856 166.106C24.317 166.106 23.8194 166.213 23.4072 166.421C23.0091 166.618 22.7319 166.86 22.5827 167.141H18.4885C18.6165 166.646 18.8582 166.174 19.1993 165.724C19.5405 165.274 19.9741 164.881 20.5072 164.532C21.0545 164.173 21.7013 163.892 22.4405 163.678C23.1797 163.453 24.0469 163.341 25.0562 163.341C27.1032 163.341 28.7025 163.734 29.8611 164.51C31.0126 165.291 31.5954 166.438 31.5954 167.95V175.775H28.0983L27.6719 174.403H27.5297C27.3591 174.572 27.1601 174.752 26.9327 174.943C26.7052 175.123 26.4067 175.297 26.0513 175.46C25.7101 175.629 25.3121 175.753 24.8572 175.843C24.4023 175.944 23.8763 176 23.2934 176ZM24.317 173.347C25.2623 173.347 26.03 173.139 26.6199 172.717C27.2241 172.301 27.5297 171.745 27.5297 171.053V170.716H24.0327C23.2934 170.716 22.7604 170.84 22.4405 171.076C22.1349 171.317 21.9856 171.615 21.9856 171.975C21.9856 172.38 22.1633 172.711 22.5258 172.964C22.9025 173.223 23.4996 173.347 24.317 173.347Z" fill="#E9E2D1"/>
<path d="M34.9259 163.566H39.02V175.775H34.9259V163.566ZM36.973 162.306C36.3048 162.306 35.7504 162.138 35.2955 161.789C34.8548 161.43 34.6416 160.991 34.6416 160.463C34.6416 159.94 34.8548 159.507 35.2955 159.159C35.7504 158.799 36.3048 158.619 36.973 158.619C37.634 158.619 38.1813 158.799 38.622 159.159C39.0769 159.507 39.3043 159.94 39.3043 160.463C39.3043 160.991 39.0769 161.43 38.622 161.789C38.1813 162.138 37.634 162.306 36.973 162.306Z" fill="#E9E2D1"/>
<path d="M42.6631 159.653H46.7288V175.775H42.6631V159.653Z" fill="#E9E2D1"/>
<path d="M57.2024 176C56.0438 176 54.9918 175.854 54.0465 175.573C53.1154 175.292 52.3193 174.887 51.6583 174.358C51.0115 173.819 50.5068 173.161 50.1514 172.38C49.8102 171.587 49.6396 170.688 49.6396 169.682C49.6396 168.664 49.8102 167.765 50.1514 166.983C50.5068 166.208 51.0115 165.544 51.6583 165.005C52.3193 164.465 53.1154 164.055 54.0465 163.768C54.9918 163.487 56.0438 163.341 57.2024 163.341C58.3752 163.341 59.4271 163.487 60.3583 163.768C61.2823 164.055 62.0713 164.465 62.7181 165.005C63.3791 165.544 63.8838 166.208 64.2249 166.983C64.5803 167.765 64.7651 168.664 64.7651 169.682C64.7651 170.688 64.5803 171.587 64.2249 172.38C63.8838 173.161 63.3791 173.819 62.7181 174.358C62.0713 174.887 61.2823 175.292 60.3583 175.573C59.4271 175.854 58.3752 176 57.2024 176ZM57.2024 173.122C57.6715 173.122 58.1193 173.066 58.5387 172.942C58.9722 172.807 59.349 172.599 59.6759 172.312C59.9958 172.031 60.2445 171.671 60.4151 171.233C60.5999 170.8 60.6994 170.283 60.6994 169.682C60.6994 169.086 60.5999 168.569 60.4151 168.13C60.2445 167.68 59.9958 167.315 59.6759 167.028C59.349 166.747 58.9722 166.545 58.5387 166.421C58.1193 166.286 57.6715 166.219 57.2024 166.219C56.7475 166.219 56.2997 166.286 55.8661 166.421C55.4254 166.545 55.0487 166.747 54.7289 167.028C54.4232 167.315 54.1744 167.68 53.9896 168.13C53.7977 168.569 53.7053 169.086 53.7053 169.682C53.7053 170.283 53.7977 170.8 53.9896 171.233C54.1744 171.671 54.4232 172.031 54.7289 172.312C55.0487 172.599 55.4254 172.807 55.8661 172.942C56.2997 173.066 56.7475 173.122 57.2024 173.122Z" fill="#E9E2D1"/>
<path d="M67.5225 163.566H71.0195L71.4744 164.96H71.6166C72.0502 164.437 72.5832 164.077 73.2087 163.88C73.8342 163.672 74.5166 163.566 75.2558 163.566H77.1323V166.691H75.5401C74.3033 166.691 73.3367 166.961 72.6401 167.501C71.9578 168.029 71.6166 168.754 71.6166 169.682V175.775H67.5225V163.566Z" fill="#E9E2D1"/>
<path d="M86.1623 176C85.0038 176 83.9518 175.854 83.0065 175.573C82.0753 175.292 81.2793 174.887 80.6182 174.358C79.9714 173.819 79.4668 173.161 79.1114 172.38C78.7702 171.587 78.5996 170.688 78.5996 169.682C78.5996 168.664 78.7702 167.765 79.1114 166.983C79.4668 166.208 79.9714 165.544 80.6182 165.005C81.2793 164.465 82.0753 164.055 83.0065 163.768C83.9518 163.487 85.0038 163.341 86.1623 163.341C87.2783 163.341 88.2947 163.492 89.2045 163.79C90.1285 164.094 90.9175 164.521 91.5643 165.072C92.204 165.612 92.7016 166.258 93.0427 167.006C93.3981 167.742 93.5829 168.552 93.5829 169.434C93.5829 169.614 93.5687 169.783 93.5545 169.929C93.5332 170.081 93.5119 170.216 93.4976 170.334C93.4763 170.485 93.455 170.615 93.4408 170.716H82.8074C82.978 171.407 83.3192 171.986 83.831 172.447C84.357 172.897 85.1388 173.122 86.1623 173.122C86.9584 173.122 87.5413 173.026 87.9251 172.829C88.3018 172.622 88.6359 172.335 88.9202 171.975H93.2986C93.128 172.503 92.8579 173.004 92.5025 173.482C92.14 173.965 91.6638 174.398 91.081 174.786C90.5123 175.162 89.8158 175.46 89.0055 175.685C88.1881 175.893 87.2427 176 86.1623 176ZM89.3751 168.287C89.2969 168.035 89.1761 167.787 89.0055 167.545C88.8349 167.292 88.6146 167.068 88.3516 166.871C88.1028 166.663 87.79 166.506 87.4133 166.399C87.0508 166.281 86.6315 166.219 86.1623 166.219C85.2099 166.219 84.4707 166.421 83.9447 166.826C83.4116 167.219 83.0349 167.703 82.8074 168.287H89.3751Z" fill="#E9E2D1"/>
<path d="M102.307 176C101.319 176 100.417 175.865 99.6064 175.595C98.789 175.325 98.0853 174.932 97.5024 174.404C96.9125 173.864 96.4505 173.206 96.1093 172.425C95.7823 171.632 95.626 170.716 95.626 169.682C95.626 168.647 95.7823 167.742 96.1093 166.961C96.4505 166.168 96.9125 165.499 97.5024 164.96C98.0853 164.42 98.789 164.015 99.6064 163.746C100.417 163.476 101.319 163.341 102.307 163.341C102.89 163.341 103.416 163.397 103.871 163.498C104.326 163.588 104.724 163.717 105.065 163.88C105.421 164.032 105.719 164.195 105.947 164.375C106.188 164.544 106.387 164.701 106.544 164.847H106.686V159.653H110.751V175.775H107.254L106.828 174.404H106.686C106.473 174.6 106.231 174.797 105.947 174.988C105.662 175.168 105.335 175.342 104.98 175.505C104.639 175.657 104.241 175.775 103.786 175.865C103.345 175.955 102.855 176 102.307 176ZM103.189 173.122C103.658 173.122 104.106 173.066 104.525 172.942C104.959 172.807 105.335 172.599 105.662 172.312C105.982 172.031 106.231 171.672 106.401 171.233C106.586 170.8 106.686 170.283 106.686 169.682C106.686 169.086 106.586 168.569 106.401 168.13C106.231 167.68 105.982 167.315 105.662 167.028C105.335 166.747 104.959 166.545 104.525 166.421C104.106 166.286 103.658 166.219 103.189 166.219C102.734 166.219 102.286 166.286 101.852 166.421C101.412 166.545 101.035 166.747 100.715 167.028C100.41 167.315 100.161 167.68 99.976 168.13C99.7841 168.569 99.6917 169.086 99.6917 169.682C99.6917 170.283 99.7841 170.8 99.976 171.233C100.161 171.672 100.41 172.031 100.715 172.312C101.035 172.599 101.412 172.807 101.852 172.942C102.286 173.066 102.734 173.122 103.189 173.122Z" fill="#E9E2D1"/>
<path d="M128.356 176C127.233 176 126.195 175.893 125.228 175.685C124.261 175.477 123.408 175.162 122.669 174.741C121.944 174.308 121.361 173.774 120.907 173.144C120.466 172.504 120.196 171.767 120.082 170.941H124.432C124.581 171.587 125.001 172.099 125.683 172.47C126.365 172.83 127.254 173.009 128.356 173.009C129.734 173.009 130.715 172.83 131.284 172.47C131.867 172.11 132.165 171.638 132.165 171.053C132.165 170.649 131.995 170.334 131.654 170.109C131.327 169.873 130.9 169.676 130.374 169.524C129.841 169.378 129.237 169.254 128.555 169.164C127.886 169.063 127.197 168.951 126.479 168.827C125.754 168.692 125.058 168.529 124.375 168.333C123.693 168.125 123.082 167.849 122.556 167.501C122.044 167.158 121.617 166.714 121.276 166.174C120.949 165.634 120.793 164.96 120.793 164.15C120.793 163.375 120.978 162.689 121.361 162.104C121.759 161.519 122.3 161.036 122.982 160.643C123.679 160.238 124.489 159.94 125.399 159.743C126.323 159.535 127.311 159.428 128.356 159.428C129.607 159.428 130.694 159.552 131.625 159.788C132.549 160.03 133.338 160.367 133.985 160.8C134.625 161.222 135.129 161.722 135.492 162.306C135.869 162.88 136.117 163.493 136.231 164.15H131.853C131.696 163.627 131.341 163.206 130.772 162.891C130.218 162.576 129.471 162.419 128.526 162.419C127.403 162.419 126.593 162.593 126.081 162.936C125.569 163.285 125.313 163.689 125.313 164.15C125.313 164.572 125.47 164.909 125.797 165.162C126.138 165.404 126.564 165.606 127.076 165.769C127.602 165.938 128.213 166.078 128.896 166.196C129.578 166.303 130.268 166.433 130.971 166.579C131.689 166.714 132.393 166.882 133.075 167.073C133.758 167.27 134.355 167.54 134.866 167.883C135.392 168.214 135.819 168.636 136.146 169.142C136.487 169.654 136.658 170.289 136.658 171.053C136.658 171.745 136.473 172.391 136.117 172.987C135.755 173.588 135.222 174.111 134.525 174.561C133.843 175.011 132.976 175.365 131.938 175.618C130.893 175.871 129.699 176 128.356 176Z" fill="#E9E2D1"/>
<path d="M146.12 176C144.962 176 143.91 175.854 142.964 175.573C142.033 175.292 141.237 174.887 140.576 174.358C139.929 173.819 139.425 173.161 139.069 172.38C138.728 171.587 138.558 170.688 138.558 169.682C138.558 168.664 138.728 167.765 139.069 166.983C139.425 166.208 139.929 165.544 140.576 165.005C141.237 164.465 142.033 164.055 142.964 163.768C143.91 163.487 144.962 163.341 146.12 163.341C147.293 163.341 148.345 163.487 149.276 163.768C150.2 164.055 150.989 164.465 151.636 165.005C152.297 165.544 152.802 166.208 153.143 166.983C153.498 167.765 153.683 168.664 153.683 169.682C153.683 170.688 153.498 171.587 153.143 172.38C152.802 173.161 152.297 173.819 151.636 174.358C150.989 174.887 150.2 175.292 149.276 175.573C148.345 175.854 147.293 176 146.12 176ZM146.12 173.122C146.589 173.122 147.037 173.066 147.457 172.942C147.89 172.807 148.267 172.599 148.594 172.312C148.914 172.031 149.163 171.671 149.333 171.233C149.518 170.8 149.617 170.283 149.617 169.682C149.617 169.086 149.518 168.569 149.333 168.13C149.163 167.68 148.914 167.315 148.594 167.028C148.267 166.747 147.89 166.545 147.457 166.421C147.037 166.286 146.589 166.219 146.12 166.219C145.665 166.219 145.218 166.286 144.784 166.421C144.343 166.545 143.967 166.747 143.647 167.028C143.341 167.315 143.092 167.68 142.908 168.13C142.716 168.569 142.623 169.086 142.623 169.682C142.623 170.283 142.716 170.8 142.908 171.233C143.092 171.671 143.341 172.031 143.647 172.312C143.967 172.599 144.343 172.807 144.784 172.942C145.218 173.066 145.665 173.122 146.12 173.122Z" fill="#E9E2D1"/>
<path d="M156.61 159.653H160.676V175.775H156.61V159.653Z" fill="#E9E2D1"/>
<path d="M169.985 176C169.146 176 168.379 175.893 167.682 175.685C166.978 175.46 166.381 175.134 165.891 174.696C165.393 174.263 165.01 173.746 164.725 173.144C164.441 172.532 164.299 171.835 164.299 171.053V163.566H168.393V170.604C168.393 171.413 168.628 172.037 169.104 172.47C169.594 172.908 170.277 173.122 171.151 173.122C172.018 173.122 172.722 172.891 173.255 172.425C173.781 171.964 174.051 171.357 174.051 170.604V163.566H178.145V175.775H174.648L174.221 174.404H174.051C173.553 174.915 172.956 175.314 172.26 175.595C171.556 175.865 170.795 176 169.985 176Z" fill="#E9E2D1"/>
<path d="M187.732 175.775C186.118 175.775 184.917 175.471 184.121 174.853C183.339 174.24 182.955 173.358 182.955 172.2V166.556H180.453V163.565H182.955L183.524 160.35H187.021V163.565H190.66V166.556H187.021V171.638C187.021 171.986 187.149 172.262 187.419 172.47C187.682 172.683 188.03 172.784 188.471 172.784H190.66V175.775H187.732Z" fill="#E9E2D1"/>
<path d="M193.55 163.566H197.644V175.775H193.55V163.566ZM195.597 162.306C194.929 162.306 194.374 162.138 193.92 161.789C193.479 161.43 193.266 160.991 193.266 160.463C193.266 159.94 193.479 159.507 193.92 159.159C194.374 158.799 194.929 158.619 195.597 158.619C196.258 158.619 196.805 158.799 197.246 159.159C197.701 159.507 197.928 159.94 197.928 160.463C197.928 160.991 197.701 161.43 197.246 161.789C196.805 162.138 196.258 162.306 195.597 162.306Z" fill="#E9E2D1"/>
<path d="M207.969 176C206.81 176 205.758 175.854 204.813 175.573C203.882 175.292 203.086 174.887 202.425 174.358C201.778 173.819 201.273 173.161 200.918 172.38C200.577 171.587 200.406 170.688 200.406 169.682C200.406 168.664 200.577 167.765 200.918 166.983C201.273 166.208 201.778 165.544 202.425 165.005C203.086 164.465 203.882 164.055 204.813 163.768C205.758 163.487 206.81 163.341 207.969 163.341C209.142 163.341 210.194 163.487 211.125 163.768C212.049 164.055 212.838 164.465 213.485 165.005C214.146 165.544 214.65 166.208 214.992 166.983C215.347 167.765 215.532 168.664 215.532 169.682C215.532 170.688 215.347 171.587 214.992 172.38C214.65 173.161 214.146 173.819 213.485 174.358C212.838 174.887 212.049 175.292 211.125 175.573C210.194 175.854 209.142 176 207.969 176ZM207.969 173.122C208.438 173.122 208.886 173.066 209.305 172.942C209.739 172.807 210.116 172.599 210.443 172.312C210.762 172.031 211.011 171.671 211.182 171.233C211.367 170.8 211.466 170.283 211.466 169.682C211.466 169.086 211.367 168.569 211.182 168.13C211.011 167.68 210.762 167.315 210.443 167.028C210.116 166.747 209.739 166.545 209.305 166.421C208.886 166.286 208.438 166.219 207.969 166.219C207.514 166.219 207.066 166.286 206.633 166.421C206.192 166.545 205.815 166.747 205.495 167.028C205.19 167.315 204.941 167.68 204.756 168.13C204.564 168.569 204.472 169.086 204.472 169.682C204.472 170.283 204.564 170.8 204.756 171.233C204.941 171.671 205.19 172.031 205.495 172.312C205.815 172.599 206.192 172.807 206.633 172.942C207.066 173.066 207.514 173.122 207.969 173.122Z" fill="#E9E2D1"/>
<path d="M218.29 163.566H221.787L222.242 164.96H222.384C222.875 164.437 223.472 164.038 224.175 163.768C224.872 163.487 225.632 163.341 226.45 163.341C227.281 163.341 228.049 163.453 228.753 163.678C229.449 163.903 230.046 164.234 230.544 164.667C231.034 165.089 231.425 165.606 231.71 166.219C231.994 166.82 232.136 167.512 232.136 168.287V175.775H228.042V168.76C228.042 167.939 227.793 167.309 227.303 166.871C226.827 166.438 226.151 166.219 225.284 166.219C224.41 166.219 223.706 166.461 223.18 166.938C222.647 167.405 222.384 168.012 222.384 168.76V175.775H218.29V163.566Z" fill="#E9E2D1"/>
<path d="M241.148 176C240.025 176 239.058 175.893 238.248 175.685C237.43 175.477 236.748 175.185 236.201 174.808C235.646 174.437 235.22 174.01 234.921 173.527C234.637 173.049 234.424 172.532 234.296 171.975H238.674C238.745 172.262 238.994 172.526 239.414 172.762C239.826 173.004 240.409 173.122 241.148 173.122C242.15 173.122 242.832 173.032 243.195 172.852C243.572 172.661 243.764 172.442 243.764 172.2C243.764 171.902 243.543 171.683 243.11 171.548C242.669 171.402 242.122 171.272 241.461 171.166C240.814 171.064 240.103 170.952 239.328 170.828C238.568 170.71 237.857 170.508 237.196 170.221C236.528 169.94 235.98 169.547 235.547 169.052C235.106 168.546 234.893 167.871 234.893 167.028C234.893 166.506 235.021 166.028 235.291 165.589C235.575 165.14 235.973 164.752 236.485 164.42C237.011 164.094 237.665 163.83 238.447 163.633C239.222 163.442 240.124 163.341 241.148 163.341C242.228 163.341 243.166 163.448 243.963 163.655C244.759 163.852 245.42 164.122 245.953 164.465C246.5 164.813 246.919 165.218 247.204 165.679C247.502 166.129 247.723 166.618 247.858 167.141H243.479C243.401 166.916 243.195 166.708 242.854 166.511C242.527 166.32 241.958 166.219 241.148 166.219C240.48 166.219 239.968 166.303 239.613 166.466C239.271 166.618 239.101 166.803 239.101 167.028C239.101 167.332 239.314 167.557 239.755 167.703C240.21 167.838 240.757 167.961 241.404 168.063C242.065 168.169 242.776 168.287 243.536 168.422C244.311 168.546 245.029 168.748 245.697 169.029C246.358 169.299 246.905 169.693 247.346 170.199C247.779 170.693 248 171.362 248 172.2C248 172.695 247.886 173.167 247.659 173.616C247.431 174.066 247.047 174.471 246.521 174.831C246.01 175.19 245.306 175.477 244.417 175.685C243.543 175.893 242.456 176 241.148 176Z" fill="#E9E2D1"/>
</svg>
