<svg width="182" height="173" viewBox="0 0 182 173" fill="none" xmlns="http://www.w3.org/2000/svg">
<mask id="mask0_656_237" style="mask-type:luminance" maskUnits="userSpaceOnUse" x="33" y="0" width="116" height="134">
<path d="M33.4492 0H148.277V133.286H33.4492V0Z" fill="white"/>
</mask>
<g mask="url(#mask0_656_237)">
<path fill-rule="evenodd" clip-rule="evenodd" d="M110.028 53.6563H126.747C127.049 53.6563 127.335 53.5886 127.606 53.4531C127.877 53.3177 128.101 53.125 128.283 52.8802C128.46 52.6406 128.575 52.3646 128.627 52.0677C128.674 51.7709 128.658 51.474 128.564 51.1875C128.226 50.0886 127.747 49.0573 127.127 48.0886C126.512 47.1198 125.783 46.2448 124.934 45.4688C124.085 44.6979 123.153 44.0417 122.132 43.5156C121.116 42.9896 120.043 42.6042 118.918 42.3594C117.799 42.1146 116.663 42.0208 115.517 42.0781C114.372 42.1354 113.252 42.3386 112.158 42.6927C111.064 43.0469 110.038 43.5365 109.075 44.1667C108.111 44.7917 107.247 45.5313 106.481 46.3854C108.174 48.5625 109.356 50.9844 110.028 53.6563ZM74.184 87.4167C79.2569 92.5886 85.1371 90.2136 90.7257 87.9479C95.1996 86.1354 99.5226 84.3854 103.715 85.5365C104.554 85.7709 105.345 86.099 106.101 86.5313L124.84 97.2188C125.59 97.6406 126.247 98.1771 126.814 98.8177L128.476 98.125L119.142 74.0469C115.408 75.7188 112.08 74.3594 108.33 72.8281C104.382 71.2136 99.8455 69.3594 93.9653 72.224C91.2882 73.5261 88.8038 75.5834 86.7257 77.6875C84.6892 79.7344 82.5069 81.6198 80.1892 83.349C78.2778 84.7865 76.2726 86.1406 74.184 87.4167ZM49.7673 58.8959L34.6892 93.0156C34.5121 93.4167 34.4236 93.8333 34.4132 94.2656C34.4028 94.7031 34.4757 95.1198 34.6319 95.5261C34.7882 95.9323 35.0173 96.2917 35.3194 96.6094C35.6163 96.9219 35.9653 97.1667 36.3611 97.3438L42.934 100.25C43.3298 100.422 43.7465 100.516 44.1788 100.526C44.6163 100.531 45.033 100.458 45.4392 100.302C45.8455 100.146 46.2048 99.9167 46.5173 99.6198C46.8351 99.3177 47.0798 98.9688 47.2569 98.5729L62.3351 64.4531C62.5121 64.0521 62.6007 63.6354 62.6111 63.2031C62.6215 62.7709 62.5486 62.349 62.3923 61.9427C62.2361 61.5365 62.0069 61.1771 61.7048 60.8646C61.408 60.5469 61.059 60.3021 60.6632 60.125L54.0955 57.224C53.6996 57.0469 53.283 56.9531 52.8455 56.9479C52.4132 56.9375 51.9913 57.0104 51.5851 57.1667C51.184 57.3229 50.8194 57.5521 50.5069 57.849C50.1944 58.1511 49.9444 58.5 49.7673 58.8959ZM133.616 61.3177L147.095 96.1042C147.252 96.5104 147.325 96.9271 147.314 97.3646C147.304 97.7969 147.21 98.2136 147.038 98.6094C146.861 99.0104 146.616 99.3594 146.304 99.6615C145.991 99.9583 145.632 100.188 145.226 100.349L138.533 102.943C138.127 103.099 137.705 103.172 137.273 103.161C136.835 103.151 136.418 103.057 136.023 102.885C135.627 102.708 135.278 102.464 134.976 102.151C134.674 101.833 134.444 101.474 134.288 101.073L120.804 66.2865C120.648 65.8802 120.575 65.4636 120.585 65.0261C120.595 64.5938 120.689 64.1771 120.866 63.7813C121.043 63.3802 121.283 63.0313 121.601 62.7292C121.913 62.4323 122.273 62.2031 122.679 62.0417L129.372 59.4479C129.778 59.2917 130.2 59.2188 130.632 59.2292C131.064 59.2396 131.481 59.3334 131.882 59.5052C132.278 59.6823 132.627 59.9271 132.929 60.2396C133.226 60.5573 133.46 60.9167 133.616 61.3177ZM128.476 64.8281C128.179 64.8281 127.892 64.8854 127.622 65C127.345 65.1146 127.106 65.2761 126.898 65.4844C126.689 65.6927 126.528 65.9323 126.413 66.2084C126.299 66.4792 126.241 66.7656 126.241 67.0625C126.241 67.3542 126.299 67.6406 126.413 67.9167C126.528 68.1875 126.689 68.4271 126.898 68.6406C127.106 68.849 127.345 69.0104 127.622 69.1198C127.892 69.2344 128.179 69.2917 128.476 69.2917C128.767 69.2917 129.054 69.2344 129.33 69.1198C129.601 69.0104 129.84 68.849 130.054 68.6406C130.262 68.4271 130.424 68.1875 130.533 67.9167C130.648 67.6406 130.705 67.3542 130.705 67.0625C130.705 66.7656 130.648 66.4792 130.533 66.2084C130.424 65.9323 130.262 65.6927 130.054 65.4844C129.84 65.2761 129.601 65.1146 129.33 65C129.054 64.8854 128.767 64.8281 128.476 64.8281ZM54.7413 62.6406C55.0382 62.6563 55.3194 62.724 55.5851 62.849C55.8559 62.9792 56.0903 63.1511 56.2882 63.3698C56.4861 63.5886 56.6371 63.8334 56.7361 64.1146C56.8351 64.3906 56.8819 64.6771 56.8663 64.974C56.8507 65.2709 56.783 65.5521 56.658 65.8177C56.533 66.0886 56.3611 66.3229 56.1423 66.5209C55.9236 66.7188 55.6736 66.8698 55.3976 66.9688C55.1163 67.0677 54.8298 67.1146 54.533 67.099C54.2413 67.0834 53.9601 67.0156 53.6892 66.8906C53.4236 66.7656 53.1892 66.5938 52.9913 66.375C52.7882 66.1563 52.6423 65.9063 52.5382 65.6302C52.4392 65.349 52.3976 65.0625 52.408 64.7656C52.4236 64.474 52.4913 64.1875 52.6215 63.9219C52.7465 63.6563 52.9184 63.4219 53.1371 63.224C53.3559 63.0209 53.6007 62.8698 53.8819 62.7709C54.158 62.6719 54.4444 62.6302 54.7413 62.6406ZM97.908 124.375C97.783 125.307 97.5017 126.188 97.059 127.016L95.2569 130.385C95.8767 130.74 96.5382 131.125 97.1423 131.464C97.5121 131.656 97.908 131.771 98.3246 131.813C98.7413 131.849 99.1476 131.813 99.5486 131.693C99.9496 131.573 100.314 131.385 100.642 131.125C100.97 130.87 101.236 130.557 101.444 130.193C101.658 129.813 101.793 129.406 101.845 128.969C101.898 128.536 101.866 128.109 101.747 127.688C101.632 127.266 101.434 126.88 101.163 126.536C100.892 126.193 100.564 125.917 100.184 125.703L97.908 124.375ZM73.533 124.786C73.4757 125.167 73.4809 125.547 73.5486 125.922C73.6163 126.297 73.7465 126.651 73.934 126.984C74.1215 127.318 74.3611 127.609 74.6476 127.865C74.934 128.115 75.2569 128.313 75.6111 128.458C75.9653 128.604 76.3351 128.688 76.7153 128.703C77.0955 128.724 77.4705 128.682 77.8403 128.578C78.2101 128.469 78.5486 128.307 78.8611 128.083C79.1736 127.865 79.4392 127.599 79.6632 127.286L83.9601 119.099C84.059 118.729 84.0903 118.354 84.059 117.974C84.0278 117.594 83.9392 117.229 83.783 116.88C83.6319 116.531 83.4236 116.219 83.1632 115.938C82.908 115.656 82.6111 115.427 82.2726 115.25C81.934 115.068 81.5798 114.948 81.2048 114.891C80.8246 114.828 80.4496 114.833 80.0746 114.896C79.6996 114.964 79.3455 115.089 79.0121 115.276C78.6788 115.458 78.3871 115.693 78.1319 115.979L73.533 124.786ZM74.2986 114.401L69.4601 123.443C69.2517 123.849 68.9757 124.198 68.6267 124.495C68.283 124.792 67.8871 125.01 67.4548 125.146C67.0173 125.286 66.5746 125.333 66.1163 125.292C65.6632 125.255 65.2309 125.125 64.8298 124.911C64.4236 124.698 64.0798 124.411 63.7882 124.063C63.5017 123.708 63.2882 123.313 63.158 122.875C63.0278 122.432 62.9861 121.99 63.0382 121.536C63.0851 121.078 63.2205 120.651 63.4444 120.255L68.3819 111.021C69.6423 109.865 71.0486 109.245 72.7153 110.135C74.3976 111.036 74.7361 112.688 74.2986 114.401ZM65.3455 108.13C65.533 107.729 65.6319 107.307 65.6528 106.865C65.6736 106.422 65.6059 105.99 65.4601 105.573C65.309 105.156 65.0903 104.786 64.7986 104.453C64.5017 104.125 64.158 103.859 63.7621 103.661C63.3663 103.469 62.9444 103.354 62.5069 103.318C62.0642 103.286 61.6319 103.339 61.2101 103.474C60.7882 103.609 60.408 103.818 60.0694 104.099C59.7309 104.385 59.4548 104.719 59.2465 105.109L55.8038 111.547C55.6163 111.901 55.4913 112.276 55.434 112.672C55.3819 113.073 55.3923 113.469 55.4757 113.859C55.559 114.255 55.7101 114.62 55.9184 114.964C56.1319 115.302 56.3976 115.594 56.7153 115.844C57.033 116.089 57.3819 116.276 57.7673 116.396C58.1476 116.521 58.5382 116.573 58.9444 116.557C59.3455 116.542 59.7309 116.458 60.1007 116.302C60.4757 116.151 60.809 115.938 61.1059 115.667L65.3455 108.13ZM83.5746 128.932L87.6892 121.094C87.9653 120.781 88.2882 120.531 88.658 120.339C89.0278 120.151 89.4236 120.031 89.8351 119.984C90.2465 119.932 90.658 119.964 91.059 120.063C91.4653 120.167 91.8351 120.339 92.1788 120.578C92.5173 120.813 92.8038 121.104 93.0382 121.448C93.2726 121.797 93.4392 122.172 93.5382 122.573C93.6319 122.979 93.6528 123.391 93.6007 123.802C93.5486 124.214 93.4236 124.604 93.2257 124.969L89.9288 131.141C89.7361 131.5 89.4913 131.813 89.184 132.083C88.8819 132.354 88.5434 132.563 88.1632 132.708C87.7882 132.854 87.3976 132.932 86.9913 132.943C86.5851 132.948 86.1892 132.885 85.809 132.755C85.4236 132.62 85.0746 132.427 84.7621 132.167C84.4496 131.911 84.1892 131.604 83.9861 131.255C83.783 130.906 83.6423 130.531 83.5746 130.13C83.5017 129.734 83.5017 129.333 83.5746 128.932ZM53.3507 95.5469L63.8767 71.7292L64.184 71.8698C68.0382 74.0104 71.5798 73.1823 75.4236 72.2813C78.6788 71.5156 82.2048 70.6927 86.1684 72.2813C83.1892 74.8177 80.8351 77.4427 77.5903 79.8802C75.2882 81.5938 72.8976 83.1667 70.4132 84.6042C70.0642 84.8125 69.7726 85.0834 69.5382 85.4115C69.3038 85.7448 69.1476 86.1094 69.0694 86.5104C68.9913 86.9115 69.0017 87.3073 69.0955 87.7031C69.1892 88.099 69.3611 88.4583 69.6059 88.7761C76.9444 98.224 84.8611 95.0156 92.3559 91.9792C96.6892 90.224 100.856 88.5417 103.955 90.3125L122.7 100.995C123.08 101.208 123.403 101.484 123.668 101.823C123.939 102.161 124.137 102.542 124.257 102.953C124.377 103.37 124.413 103.797 124.366 104.224C124.325 104.656 124.2 105.063 123.991 105.443C123.783 105.813 123.517 106.13 123.184 106.396C122.856 106.656 122.486 106.849 122.085 106.969C121.679 107.089 121.262 107.13 120.845 107.089C120.424 107.047 120.023 106.932 119.648 106.734C115.392 104.255 111.012 101.891 106.726 99.4375C106.476 99.2969 106.21 99.2031 105.924 99.1667C105.637 99.1302 105.356 99.1511 105.075 99.2292C104.799 99.3021 104.543 99.4271 104.314 99.6042C104.09 99.7813 103.903 99.9948 103.757 100.245C103.616 100.495 103.528 100.766 103.491 101.052C103.455 101.339 103.47 101.62 103.549 101.896C103.627 102.177 103.752 102.427 103.929 102.656C104.101 102.885 104.314 103.068 104.569 103.214C108.856 105.672 113.174 108.089 117.486 110.505C117.861 110.708 118.179 110.979 118.444 111.313C118.715 111.646 118.908 112.021 119.028 112.427C119.148 112.839 119.184 113.255 119.142 113.682C119.095 114.104 118.976 114.505 118.773 114.88C118.569 115.26 118.304 115.583 117.976 115.854C117.642 116.125 117.278 116.323 116.866 116.448C116.46 116.573 116.043 116.62 115.616 116.578C115.189 116.542 114.788 116.422 114.413 116.224C108.84 112.953 103.049 109.828 97.408 106.656C97.158 106.516 96.8871 106.432 96.6059 106.401C96.3194 106.37 96.0434 106.396 95.7673 106.474C95.4913 106.552 95.2413 106.682 95.0173 106.859C94.7934 107.036 94.6111 107.25 94.4705 107.5C94.3298 107.75 94.2413 108.016 94.2101 108.302C94.1736 108.583 94.1944 108.865 94.2726 109.141C94.3455 109.417 94.4705 109.667 94.6476 109.896C94.8246 110.12 95.033 110.302 95.283 110.448C99.9028 113.047 104.512 115.693 109.132 118.281C109.507 118.484 109.835 118.755 110.106 119.089C110.377 119.422 110.575 119.797 110.694 120.208C110.819 120.625 110.856 121.042 110.814 121.474C110.767 121.901 110.642 122.302 110.439 122.682C110.231 123.063 109.965 123.385 109.627 123.656C109.293 123.927 108.918 124.125 108.507 124.25C108.095 124.37 107.674 124.411 107.247 124.365C106.819 124.323 106.413 124.198 106.038 123.99L96.1892 118.422C95.7101 117.839 95.1528 117.339 94.5226 116.917C93.8923 116.5 93.2205 116.177 92.4965 115.958C91.7726 115.734 91.033 115.625 90.2778 115.62C89.5226 115.615 88.7778 115.714 88.0538 115.927C87.9028 115.448 87.7101 114.99 87.4705 114.547C87.2309 114.104 86.9496 113.693 86.6319 113.307C86.309 112.922 85.9548 112.568 85.5642 112.25C85.1788 111.932 84.7621 111.656 84.3194 111.417C83.8767 111.182 83.4184 110.99 82.934 110.844C82.4548 110.698 81.9653 110.594 81.4705 110.542C80.9705 110.49 80.4705 110.49 79.9705 110.536C79.4705 110.578 78.9809 110.672 78.4965 110.813C78.2205 109.927 77.7986 109.115 77.2257 108.385C76.658 107.651 75.9757 107.036 75.1892 106.552C74.3976 106.063 73.5486 105.724 72.6371 105.542C71.7257 105.359 70.8142 105.344 69.8976 105.49C69.7882 104.802 69.5903 104.141 69.2986 103.505C69.0121 102.875 68.6423 102.286 68.1996 101.75C67.7517 101.219 67.2465 100.75 66.6736 100.354C66.1007 99.9531 65.4861 99.6406 64.8298 99.4063C64.1736 99.1771 63.4965 99.0365 62.8038 98.9844C62.1059 98.9375 61.4184 98.9792 60.7361 99.1146C60.0486 99.25 59.3976 99.4792 58.7778 99.7917C58.1528 100.104 57.5851 100.49 57.0642 100.958C56.6007 98.7188 55.8715 96.599 53.3507 95.5417V95.5469ZM136.7 31.3021C139.054 35.349 140.84 39.6302 142.059 44.1511C143.278 48.6719 143.882 53.2761 143.872 57.9584C143.872 58.2448 143.929 58.5209 144.038 58.7917C144.148 59.0573 144.304 59.2917 144.512 59.4948C144.715 59.6979 144.95 59.8594 145.215 59.9688C145.481 60.0781 145.762 60.1354 146.049 60.1354C146.335 60.1354 146.616 60.0781 146.882 59.9688C147.148 59.8594 147.382 59.6979 147.585 59.4948C147.793 59.2917 147.95 59.0573 148.059 58.7917C148.168 58.5209 148.226 58.2448 148.226 57.9584C148.231 52.8906 147.575 47.9167 146.257 43.0261C144.939 38.1354 143.007 33.5 140.46 29.125C140.314 28.875 140.127 28.6667 139.898 28.4896C139.668 28.3125 139.418 28.1875 139.137 28.1146C138.861 28.0417 138.58 28.0261 138.293 28.0625C138.007 28.099 137.741 28.1927 137.491 28.3333C137.241 28.4792 137.028 28.6667 136.856 28.8958C136.679 29.125 136.554 29.375 136.481 29.6563C136.408 29.9323 136.387 30.2136 136.429 30.5C136.465 30.7865 136.554 31.0521 136.7 31.3021ZM40.7726 25.7813C40.5017 25.8594 40.2205 25.875 39.934 25.8386C39.6528 25.8021 39.3871 25.7136 39.1371 25.5729C38.8871 25.4323 38.6788 25.25 38.5017 25.0261C38.3246 24.8021 38.1944 24.5521 38.1163 24.2761C38.0382 24 38.0173 23.724 38.0486 23.4375C38.0798 23.1563 38.1632 22.8854 38.3038 22.6354C38.4392 22.3854 38.6215 22.1719 38.8403 21.9896C39.0642 21.8125 39.3142 21.6823 39.5851 21.599L48.783 18.974C49.9496 17.7136 51.1736 16.5052 52.4496 15.3542C53.7257 14.1979 55.0538 13.1094 56.4288 12.0729C57.8038 11.0417 59.2257 10.0729 60.6892 9.16668C62.1528 8.26043 63.6528 7.42189 65.1892 6.65106C66.7309 5.88022 68.2986 5.18231 69.9028 4.5521C71.5017 3.9271 73.1267 3.36981 74.7778 2.88543C76.4288 2.40627 78.1007 1.99481 79.7882 1.66668C81.4757 1.33335 83.1788 1.07814 84.8871 0.895847C86.6007 0.718763 88.3142 0.614598 90.033 0.588556C91.7569 0.567722 93.4705 0.619806 95.1892 0.750014C96.9028 0.880222 98.6111 1.08335 100.309 1.36981C102.002 1.65105 103.684 2.01043 105.351 2.44272C107.012 2.88022 108.658 3.39064 110.273 3.96876C111.892 4.5521 113.481 5.20835 115.043 5.93231C116.606 6.65626 118.127 7.45314 119.616 8.31251C121.106 9.1771 122.554 10.1042 123.955 11.099L123.033 7.85418C122.955 7.57814 122.934 7.29689 122.97 7.01564C123.007 6.72918 123.095 6.46356 123.236 6.21356C123.377 5.96356 123.559 5.75001 123.783 5.57293C124.007 5.39585 124.257 5.26564 124.533 5.18751C124.809 5.10939 125.09 5.08856 125.377 5.11981C125.658 5.15106 125.929 5.23439 126.179 5.37501C126.429 5.51564 126.642 5.69272 126.825 5.91668C127.002 6.14064 127.132 6.39064 127.215 6.66668L130.007 16.4583C130.101 16.7917 130.116 17.1302 130.049 17.4688C129.981 17.8125 129.84 18.1198 129.627 18.3958C129.413 18.6667 129.148 18.8802 128.835 19.0261C128.517 19.1719 128.184 19.2396 127.84 19.2292L117.819 19.5886C117.533 19.599 117.252 19.5521 116.986 19.4531C116.715 19.349 116.476 19.2031 116.262 19.0052C116.054 18.8073 115.887 18.5781 115.767 18.3177C115.648 18.0573 115.585 17.7813 115.575 17.4948C115.564 17.2083 115.611 16.9271 115.71 16.6615C115.809 16.3906 115.96 16.1511 116.158 15.9375C116.351 15.7292 116.58 15.5625 116.84 15.4427C117.106 15.3229 117.377 15.2604 117.668 15.25L122.069 15.0886C120.773 14.1511 119.439 13.2708 118.069 12.4479C116.694 11.625 115.288 10.8698 113.845 10.1771C112.403 9.48439 110.934 8.85418 109.434 8.29689C107.939 7.73439 106.418 7.24481 104.872 6.82293C103.33 6.39585 101.773 6.04689 100.194 5.76564C98.6215 5.48439 97.0382 5.27606 95.4444 5.13543C93.8507 5.00001 92.2517 4.93231 90.6528 4.93751C89.0538 4.94272 87.4548 5.02606 85.8663 5.1771C84.2726 5.32814 82.6892 5.54689 81.1163 5.84376C79.5434 6.13543 77.9861 6.50001 76.4496 6.93751C74.908 7.37501 73.3923 7.87501 71.8976 8.44793C70.4028 9.02085 68.9392 9.66147 67.5017 10.3646C66.0694 11.0729 64.6684 11.8386 63.2986 12.6719C61.934 13.5052 60.6059 14.3958 59.3246 15.349C58.0382 16.3021 56.7986 17.3073 55.6007 18.375C54.408 19.4375 53.2621 20.5521 52.1684 21.7188L52.5017 30.9948C52.5121 31.2865 52.4705 31.5625 52.3715 31.8333C52.2673 32.1042 52.1215 32.3438 51.9236 32.5573C51.7309 32.7708 51.5017 32.9323 51.2361 33.0521C50.9757 33.1719 50.6996 33.2396 50.4132 33.25C50.1215 33.2604 49.8455 33.2136 49.5746 33.1146C49.3038 33.0104 49.0642 32.8646 48.8559 32.6667C48.6423 32.4688 48.4809 32.2396 48.3611 31.974C48.2413 31.7136 48.1788 31.4375 48.1684 31.1511L48.0069 26.75C44.7048 31.2761 42.184 36.2083 40.4444 41.5417C38.7101 46.875 37.8507 52.349 37.8559 57.9584C37.8559 58.2448 37.8038 58.5209 37.6944 58.7917C37.5798 59.0573 37.4236 59.2917 37.2205 59.4948C37.0173 59.6979 36.783 59.8594 36.5121 59.9688C36.2465 60.0781 35.9705 60.1354 35.684 60.1354C35.3923 60.1354 35.1163 60.0781 34.8507 59.9688C34.5798 59.8594 34.3455 59.6979 34.1423 59.4948C33.9392 59.2917 33.783 59.0573 33.6736 58.7917C33.559 58.5209 33.5069 58.2448 33.5069 57.9584C33.4965 52.0313 34.3871 46.2396 36.1788 40.5886C37.9705 34.9427 40.5798 29.6979 44.0069 24.8594L40.7726 25.7813ZM90.8663 24.7813C90.3559 24.7813 89.8455 24.8333 89.3455 24.9323C88.8455 25.0313 88.3559 25.1771 87.8819 25.375C87.4132 25.5677 86.9601 25.8125 86.5382 26.0938C86.1111 26.3802 85.7153 26.7031 85.3559 27.0625C84.9913 27.4271 84.6684 27.8177 84.3871 28.2448C84.1007 28.6719 83.8611 29.1198 83.6684 29.5938C83.4705 30.0625 83.3246 30.5521 83.2205 31.0521C83.1215 31.5573 83.0746 32.0625 83.0746 32.5729C83.0746 33.0833 83.1215 33.5938 83.2205 34.0938C83.3246 34.599 83.4705 35.0833 83.6684 35.5573C83.8611 36.0313 84.1007 36.4792 84.3871 36.9063C84.6684 37.3281 84.9913 37.724 85.3559 38.0833C85.7153 38.4479 86.1111 38.7708 86.5382 39.0521C86.9601 39.3386 87.408 39.5781 87.8819 39.7761C88.3559 39.9688 88.8455 40.1198 89.3455 40.2188C89.8455 40.3177 90.3507 40.3698 90.8663 40.3698C91.3767 40.3698 91.8819 40.3177 92.3871 40.2188C92.8871 40.1198 93.3715 39.9688 93.8455 39.7761C94.3194 39.5781 94.7673 39.3386 95.1944 39.0521C95.6215 38.7708 96.0121 38.4479 96.3767 38.0833C96.7361 37.724 97.059 37.3281 97.3455 36.9063C97.6267 36.4792 97.8663 36.0313 98.0642 35.5573C98.2569 35.0833 98.408 34.599 98.5069 34.0938C98.6059 33.5938 98.658 33.0886 98.658 32.5729C98.658 32.0625 98.6059 31.5573 98.5069 31.0521C98.408 30.5521 98.2569 30.0625 98.0642 29.5938C97.8663 29.1198 97.6267 28.6719 97.3455 28.2448C97.059 27.8177 96.7361 27.4271 96.3767 27.0625C96.0121 26.7031 95.6215 26.3802 95.1944 26.0938C94.7673 25.8125 94.3194 25.5677 93.8455 25.375C93.3767 25.1771 92.8871 25.0313 92.3871 24.9323C91.8819 24.8333 91.3767 24.7813 90.8663 24.7813ZM77.8351 56.8438H103.898C104.194 56.8438 104.476 56.7761 104.741 56.6459C105.007 56.5156 105.231 56.3281 105.408 56.0938C105.59 55.8594 105.71 55.5938 105.767 55.3021C105.819 55.0104 105.809 54.724 105.731 54.4375C105.512 53.625 105.226 52.8438 104.877 52.0781C104.528 51.3177 104.116 50.5834 103.648 49.8906C103.179 49.1927 102.658 48.5417 102.08 47.9271C101.507 47.3177 100.882 46.7604 100.215 46.25C99.5486 45.7396 98.8455 45.2865 98.1059 44.8959C97.3611 44.5 96.5955 44.1667 95.7986 43.9011C95.0069 43.6302 94.1944 43.4271 93.3663 43.2917C92.5382 43.1563 91.7048 43.0886 90.8663 43.0886C90.0278 43.0886 89.1944 43.1563 88.3663 43.2917C87.5382 43.4271 86.7257 43.6302 85.9288 43.9011C85.1319 44.1667 84.3663 44.5 83.6267 44.8959C82.8819 45.2865 82.1788 45.7396 81.5121 46.25C80.8455 46.7604 80.2257 47.3177 79.6476 47.9271C79.0746 48.5417 78.5486 49.1927 78.0798 49.8906C77.6111 50.5834 77.2048 51.3177 76.8559 52.0781C76.5017 52.8438 76.2205 53.625 75.9965 54.4375C75.9184 54.724 75.908 55.0104 75.9653 55.3021C76.0226 55.5938 76.1423 55.8594 76.3194 56.0938C76.5017 56.3281 76.7257 56.5156 76.9913 56.6459C77.2569 56.7761 77.5382 56.8438 77.8351 56.8438ZM65.5694 26.2031C65.1371 26.2031 64.7101 26.2448 64.2882 26.3281C63.8663 26.4115 63.4548 26.5365 63.059 26.7031C62.658 26.8646 62.2778 27.0677 61.9184 27.3073C61.5642 27.5469 61.2309 27.8177 60.9236 28.125C60.6215 28.4323 60.3507 28.7604 60.1111 29.1198C59.8663 29.4792 59.6684 29.8594 59.5017 30.2552C59.3351 30.6563 59.2101 31.0677 59.1267 31.4896C59.0434 31.9115 59.0017 32.3386 59.0017 32.7708C59.0017 33.2031 59.0434 33.6302 59.1267 34.0521C59.2101 34.474 59.3351 34.8854 59.5017 35.2865C59.6684 35.6823 59.8663 36.0625 60.1111 36.4219C60.3507 36.7813 60.6215 37.1094 60.9236 37.4167C61.2309 37.724 61.5642 37.9948 61.9184 38.2344C62.2778 38.474 62.658 38.6771 63.059 38.8386C63.4548 39.0052 63.8663 39.1302 64.2882 39.2136C64.7101 39.2969 65.1371 39.3386 65.5694 39.3386C66.0017 39.3386 66.4288 39.2969 66.8507 39.2136C67.2726 39.1302 67.684 39.0052 68.0851 38.8386C68.4809 38.6771 68.8611 38.474 69.2205 38.2344C69.5798 37.9948 69.908 37.724 70.2153 37.4167C70.5226 37.1094 70.7934 36.7813 71.033 36.4219C71.2726 36.0625 71.4757 35.6823 71.6371 35.2865C71.8038 34.8854 71.9288 34.474 72.0121 34.0521C72.0955 33.6302 72.1371 33.2031 72.1371 32.7708C72.1371 32.3386 72.0955 31.9115 72.0121 31.4896C71.9288 31.0677 71.8038 30.6563 71.6371 30.2552C71.4757 29.8594 71.2726 29.4792 71.033 29.1198C70.7934 28.7604 70.5226 28.4323 70.2153 28.125C69.908 27.8177 69.5798 27.5469 69.2205 27.3073C68.8611 27.0677 68.4809 26.8646 68.0851 26.7031C67.684 26.5365 67.2726 26.4115 66.8507 26.3281C66.4288 26.2448 66.0017 26.2031 65.5694 26.2031ZM116.158 26.2031C115.731 26.2031 115.304 26.2448 114.877 26.3281C114.455 26.4115 114.043 26.5365 113.648 26.7031C113.247 26.8646 112.872 27.0677 112.512 27.3073C112.153 27.5469 111.819 27.8177 111.517 28.125C111.21 28.4323 110.939 28.7604 110.7 29.1198C110.46 29.4792 110.257 29.8594 110.09 30.2552C109.924 30.6563 109.804 31.0677 109.715 31.4896C109.632 31.9115 109.59 32.3386 109.59 32.7708C109.59 33.2031 109.632 33.6302 109.715 34.0521C109.804 34.474 109.924 34.8854 110.09 35.2865C110.257 35.6823 110.46 36.0625 110.7 36.4219C110.939 36.7813 111.21 37.1094 111.517 37.4167C111.819 37.724 112.153 37.9948 112.512 38.2344C112.872 38.474 113.247 38.6771 113.648 38.8386C114.043 39.0052 114.455 39.1302 114.877 39.2136C115.304 39.2969 115.731 39.3386 116.158 39.3386C116.59 39.3386 117.017 39.2969 117.439 39.2136C117.866 39.1302 118.278 39.0052 118.674 38.8386C119.075 38.6771 119.45 38.474 119.809 38.2344C120.168 37.9948 120.502 37.724 120.804 37.4167C121.111 37.1094 121.382 36.7813 121.622 36.4219C121.861 36.0625 122.064 35.6823 122.231 35.2865C122.392 34.8854 122.517 34.474 122.601 34.0521C122.689 33.6302 122.731 33.2031 122.731 32.7708C122.731 32.3386 122.689 31.9115 122.601 31.4896C122.517 31.0677 122.392 30.6563 122.231 30.2552C122.064 29.8594 121.861 29.4792 121.622 29.1198C121.382 28.7604 121.111 28.4323 120.804 28.125C120.502 27.8177 120.168 27.5469 119.809 27.3073C119.45 27.0677 119.075 26.8646 118.674 26.7031C118.278 26.5365 117.866 26.4115 117.439 26.3281C117.017 26.2448 116.59 26.2031 116.158 26.2031ZM54.9809 53.6563H71.6996C72.3715 50.9844 73.5538 48.5625 75.2465 46.3854C74.4809 45.5313 73.6163 44.7917 72.6528 44.1667C71.6892 43.5365 70.6632 43.0469 69.5694 42.6927C68.4809 42.3386 67.3611 42.1354 66.2153 42.0781C65.0642 42.0208 63.934 42.1146 62.809 42.3594C61.6892 42.6042 60.6163 42.9896 59.5955 43.5156C58.5746 44.0417 57.6423 44.6979 56.7986 45.4688C55.9496 46.2448 55.2153 47.1198 54.6007 48.0886C53.9861 49.0573 53.5069 50.0886 53.1632 51.1875C53.0746 51.474 53.0538 51.7709 53.1059 52.0677C53.1528 52.3646 53.2673 52.6406 53.4496 52.8802C53.6267 53.125 53.8559 53.3177 54.1215 53.4531C54.3923 53.5886 54.6788 53.6563 54.9809 53.6563Z" fill="#E9E2D1"/>
</g>
<path d="M4.47917 159.833H0V156.958H12.1667V159.833H7.6875V171.896H4.47917V159.833Z" fill="#E9E2D1"/>
<path d="M17.0674 172.104C16.4528 172.104 15.9007 172.021 15.4007 171.854C14.9111 171.677 14.4945 171.432 14.1507 171.125C13.8174 170.807 13.557 170.432 13.3799 170C13.2132 169.573 13.1299 169.099 13.1299 168.583C13.1299 168.073 13.2184 167.604 13.4007 167.188C13.5778 166.76 13.859 166.391 14.234 166.083C14.609 165.766 15.057 165.516 15.5882 165.333C16.1299 165.156 16.7653 165.062 17.5049 165.062H20.1715V164.542C20.1715 164 19.9945 163.599 19.6507 163.333C19.3018 163.073 18.8278 162.938 18.234 162.938C17.8174 162.938 17.4528 163.036 17.1507 163.229C16.859 163.411 16.6559 163.635 16.5465 163.896H13.5465C13.6403 163.438 13.8174 163 14.0674 162.583C14.3174 162.167 14.6351 161.802 15.0257 161.479C15.4268 161.146 15.9007 160.885 16.4424 160.688C16.984 160.479 17.6195 160.375 18.359 160.375C19.859 160.375 21.0309 160.74 21.8799 161.458C22.7236 162.182 23.1507 163.245 23.1507 164.646V171.896H20.5882L20.2757 170.625H20.1715C20.0465 170.781 19.9007 170.948 19.734 171.125C19.5674 171.292 19.3486 171.453 19.0882 171.604C18.8382 171.76 18.5465 171.875 18.2132 171.958C17.8799 172.052 17.4945 172.104 17.0674 172.104ZM17.8174 169.646C18.5101 169.646 19.0726 169.453 19.5049 169.062C19.9476 168.677 20.1715 168.161 20.1715 167.521V167.208H17.609C17.0674 167.208 16.6768 167.323 16.4424 167.542C16.2184 167.766 16.109 168.042 16.109 168.375C16.109 168.75 16.2393 169.057 16.5049 169.292C16.7809 169.531 17.2184 169.646 17.8174 169.646Z" fill="#E9E2D1"/>
<path d="M25.5911 160.583H28.5911V171.896H25.5911V160.583ZM27.0911 159.417C26.6016 159.417 26.1953 159.26 25.862 158.938C25.5391 158.604 25.3828 158.198 25.3828 157.708C25.3828 157.224 25.5391 156.823 25.862 156.5C26.1953 156.167 26.6016 156 27.0911 156C27.5755 156 27.9766 156.167 28.2995 156.5C28.6328 156.823 28.7995 157.224 28.7995 157.708C28.7995 158.198 28.6328 158.604 28.2995 158.938C27.9766 159.26 27.5755 159.417 27.0911 159.417Z" fill="#E9E2D1"/>
<path d="M31.2617 156.958H34.2409V171.896H31.2617V156.958Z" fill="#E9E2D1"/>
<path d="M41.9157 172.104C41.0667 172.104 40.2959 171.969 39.6032 171.708C38.9209 171.448 38.3376 171.073 37.8532 170.583C37.3792 170.083 37.0094 169.474 36.749 168.75C36.499 168.016 36.374 167.182 36.374 166.25C36.374 165.307 36.499 164.474 36.749 163.75C37.0094 163.031 37.3792 162.417 37.8532 161.917C38.3376 161.417 38.9209 161.036 39.6032 160.771C40.2959 160.51 41.0667 160.375 41.9157 160.375C42.7751 160.375 43.5459 160.51 44.2282 160.771C44.9053 161.036 45.4834 161.417 45.9574 161.917C46.4417 162.417 46.8115 163.031 47.0615 163.75C47.3219 164.474 47.4574 165.307 47.4574 166.25C47.4574 167.182 47.3219 168.016 47.0615 168.75C46.8115 169.474 46.4417 170.083 45.9574 170.583C45.4834 171.073 44.9053 171.448 44.2282 171.708C43.5459 171.969 42.7751 172.104 41.9157 172.104ZM41.9157 169.438C42.2594 169.438 42.5876 169.385 42.8949 169.271C43.2126 169.146 43.4886 168.953 43.7282 168.688C43.9626 168.427 44.1449 168.094 44.2699 167.688C44.4053 167.286 44.4782 166.807 44.4782 166.25C44.4782 165.698 44.4053 165.219 44.2699 164.812C44.1449 164.396 43.9626 164.057 43.7282 163.792C43.4886 163.531 43.2126 163.344 42.8949 163.229C42.5876 163.104 42.2594 163.042 41.9157 163.042C41.5824 163.042 41.2542 163.104 40.9365 163.229C40.6136 163.344 40.3376 163.531 40.1032 163.792C39.8792 164.057 39.6969 164.396 39.5615 164.812C39.4209 165.219 39.3532 165.698 39.3532 166.25C39.3532 166.807 39.4209 167.286 39.5615 167.688C39.6969 168.094 39.8792 168.427 40.1032 168.688C40.3376 168.953 40.6136 169.146 40.9365 169.271C41.2542 169.385 41.5824 169.438 41.9157 169.438Z" fill="#E9E2D1"/>
<path d="M49.4775 160.583H52.04L52.3734 161.875H52.4775C52.7952 161.391 53.1859 161.057 53.6442 160.875C54.1025 160.682 54.6025 160.583 55.1442 160.583H56.5192V163.479H55.3525C54.4463 163.479 53.738 163.729 53.2275 164.229C52.7275 164.719 52.4775 165.391 52.4775 166.25V171.896H49.4775V160.583Z" fill="#E9E2D1"/>
<path d="M63.1364 172.104C62.2874 172.104 61.5166 171.969 60.8239 171.708C60.1416 171.448 59.5583 171.073 59.0739 170.583C58.5999 170.083 58.2301 169.474 57.9697 168.75C57.7197 168.016 57.5947 167.182 57.5947 166.25C57.5947 165.307 57.7197 164.474 57.9697 163.75C58.2301 163.031 58.5999 162.417 59.0739 161.917C59.5583 161.417 60.1416 161.036 60.8239 160.771C61.5166 160.51 62.2874 160.375 63.1364 160.375C63.9541 160.375 64.6989 160.516 65.3656 160.792C66.0426 161.073 66.6208 161.469 67.0947 161.979C67.5635 162.479 67.9281 163.078 68.1781 163.771C68.4385 164.453 68.5739 165.203 68.5739 166.021C68.5739 166.188 68.5635 166.344 68.5531 166.479C68.5374 166.62 68.5218 166.745 68.5114 166.854C68.4958 166.995 68.4801 167.115 68.4697 167.208H60.6781C60.8031 167.849 61.0531 168.385 61.4281 168.812C61.8135 169.229 62.3864 169.438 63.1364 169.438C63.7197 169.438 64.1468 169.349 64.4281 169.167C64.7041 168.974 64.9489 168.708 65.1572 168.375H68.3656C68.2406 168.865 68.0426 169.328 67.7822 169.771C67.5166 170.219 67.1676 170.62 66.7406 170.979C66.3239 171.328 65.8135 171.604 65.2197 171.812C64.6208 172.005 63.9281 172.104 63.1364 172.104ZM65.4906 164.958C65.4333 164.724 65.3447 164.495 65.2197 164.271C65.0947 164.036 64.9333 163.828 64.7406 163.646C64.5583 163.453 64.3291 163.307 64.0531 163.208C63.7874 163.099 63.4801 163.042 63.1364 163.042C62.4385 163.042 61.8968 163.229 61.5114 163.604C61.1208 163.969 60.8447 164.417 60.6781 164.958H65.4906Z" fill="#E9E2D1"/>
<path d="M74.9671 172.104C74.2432 172.104 73.5817 171.979 72.988 171.729C72.389 171.479 71.8734 171.115 71.4463 170.625C71.014 170.125 70.6755 169.516 70.4255 168.792C70.1859 168.057 70.0713 167.208 70.0713 166.25C70.0713 165.292 70.1859 164.453 70.4255 163.729C70.6755 162.995 71.014 162.375 71.4463 161.875C71.8734 161.375 72.389 161 72.988 160.75C73.5817 160.5 74.2432 160.375 74.9671 160.375C75.3942 160.375 75.7796 160.427 76.113 160.521C76.4463 160.604 76.738 160.724 76.988 160.875C77.2484 161.016 77.4671 161.167 77.6338 161.333C77.8109 161.49 77.9567 161.635 78.0713 161.771H78.1755V156.958H81.1546V171.896H78.5921L78.2796 170.625H78.1755C78.0192 170.807 77.8421 170.99 77.6338 171.167C77.4255 171.333 77.1859 171.495 76.9255 171.646C76.6755 171.786 76.3838 171.896 76.0505 171.979C75.7275 172.063 75.3682 172.104 74.9671 172.104ZM75.613 169.438C75.9567 169.438 76.2848 169.385 76.5921 169.271C76.9098 169.146 77.1859 168.953 77.4255 168.688C77.6598 168.427 77.8421 168.094 77.9671 167.688C78.1025 167.286 78.1755 166.807 78.1755 166.25C78.1755 165.698 78.1025 165.219 77.9671 164.813C77.8421 164.396 77.6598 164.057 77.4255 163.792C77.1859 163.531 76.9098 163.344 76.5921 163.229C76.2848 163.104 75.9567 163.042 75.613 163.042C75.2796 163.042 74.9515 163.104 74.6338 163.229C74.3109 163.344 74.0348 163.531 73.8005 163.792C73.5765 164.057 73.3942 164.396 73.2588 164.813C73.1182 165.219 73.0505 165.698 73.0505 166.25C73.0505 166.807 73.1182 167.286 73.2588 167.688C73.3942 168.094 73.5765 168.427 73.8005 168.688C74.0348 168.953 74.3109 169.146 74.6338 169.271C74.9515 169.385 75.2796 169.438 75.613 169.438Z" fill="#E9E2D1"/>
<path d="M94.0537 172.104C93.2308 172.104 92.4704 172.005 91.762 171.812C91.0537 171.62 90.4287 171.328 89.887 170.938C89.3558 170.536 88.9287 170.042 88.5954 169.458C88.2725 168.865 88.0745 168.182 87.9912 167.417H91.1787C91.2881 168.016 91.5954 168.49 92.0954 168.833C92.5954 169.167 93.2464 169.333 94.0537 169.333C95.0641 169.333 95.7829 169.167 96.1995 168.833C96.6266 168.5 96.8454 168.062 96.8454 167.521C96.8454 167.146 96.7204 166.854 96.4704 166.646C96.2308 166.427 95.9183 166.245 95.5329 166.104C95.1423 165.969 94.6995 165.854 94.1995 165.771C93.71 165.677 93.2048 165.573 92.6787 165.458C92.1475 165.333 91.637 165.182 91.137 165C90.637 164.807 90.1891 164.552 89.8037 164.229C89.4287 163.911 89.1162 163.5 88.8662 163C88.6266 162.5 88.512 161.875 88.512 161.125C88.512 160.406 88.6475 159.771 88.9287 159.229C89.2204 158.688 89.6162 158.24 90.1162 157.875C90.6266 157.5 91.2204 157.224 91.887 157.042C92.5641 156.849 93.2881 156.75 94.0537 156.75C94.9704 156.75 95.7673 156.865 96.4495 157.083C97.1266 157.307 97.7048 157.62 98.1787 158.021C98.6475 158.411 99.0173 158.875 99.2829 159.417C99.5589 159.948 99.7412 160.516 99.8245 161.125H96.6162C96.5016 160.641 96.2412 160.25 95.8245 159.958C95.4183 159.667 94.8714 159.521 94.1787 159.521C93.3558 159.521 92.762 159.682 92.387 160C92.012 160.323 91.8245 160.698 91.8245 161.125C91.8245 161.516 91.9391 161.828 92.1787 162.062C92.4287 162.286 92.7412 162.474 93.1162 162.625C93.5016 162.781 93.9495 162.911 94.4495 163.021C94.9495 163.12 95.4548 163.24 95.9704 163.375C96.4964 163.5 97.012 163.656 97.512 163.833C98.012 164.016 98.4495 164.266 98.8245 164.583C99.21 164.891 99.5225 165.281 99.762 165.75C100.012 166.224 100.137 166.812 100.137 167.521C100.137 168.161 100.002 168.76 99.7412 169.312C99.4756 169.87 99.085 170.354 98.5745 170.771C98.0745 171.188 97.4391 171.516 96.6787 171.75C95.9131 171.984 95.0381 172.104 94.0537 172.104Z" fill="#E9E2D1"/>
<path d="M107.071 172.104C106.222 172.104 105.451 171.969 104.758 171.708C104.076 171.448 103.493 171.073 103.008 170.583C102.535 170.083 102.165 169.474 101.904 168.75C101.654 168.016 101.529 167.182 101.529 166.25C101.529 165.307 101.654 164.474 101.904 163.75C102.165 163.031 102.535 162.417 103.008 161.917C103.493 161.417 104.076 161.036 104.758 160.771C105.451 160.51 106.222 160.375 107.071 160.375C107.93 160.375 108.701 160.51 109.383 160.771C110.061 161.036 110.639 161.417 111.113 161.917C111.597 162.417 111.967 163.031 112.217 163.75C112.477 164.474 112.613 165.307 112.613 166.25C112.613 167.182 112.477 168.016 112.217 168.75C111.967 169.474 111.597 170.083 111.113 170.583C110.639 171.073 110.061 171.448 109.383 171.708C108.701 171.969 107.93 172.104 107.071 172.104ZM107.071 169.438C107.415 169.438 107.743 169.385 108.05 169.271C108.368 169.146 108.644 168.953 108.883 168.688C109.118 168.427 109.3 168.094 109.425 167.688C109.561 167.286 109.633 166.807 109.633 166.25C109.633 165.698 109.561 165.219 109.425 164.812C109.3 164.396 109.118 164.057 108.883 163.792C108.644 163.531 108.368 163.344 108.05 163.229C107.743 163.104 107.415 163.042 107.071 163.042C106.738 163.042 106.41 163.104 106.092 163.229C105.769 163.344 105.493 163.531 105.258 163.792C105.035 164.057 104.852 164.396 104.717 164.812C104.576 165.219 104.508 165.698 104.508 166.25C104.508 166.807 104.576 167.286 104.717 167.688C104.852 168.094 105.035 168.427 105.258 168.688C105.493 168.953 105.769 169.146 106.092 169.271C106.41 169.385 106.738 169.438 107.071 169.438Z" fill="#E9E2D1"/>
<path d="M114.758 156.958H117.737V171.896H114.758V156.958Z" fill="#E9E2D1"/>
<path d="M124.558 172.104C123.944 172.104 123.381 172.005 122.871 171.813C122.355 171.604 121.918 171.302 121.558 170.896C121.194 170.495 120.912 170.016 120.704 169.458C120.496 168.891 120.392 168.245 120.392 167.521V160.583H123.392V167.104C123.392 167.854 123.563 168.432 123.912 168.833C124.272 169.24 124.772 169.438 125.412 169.438C126.048 169.438 126.563 169.224 126.954 168.792C127.34 168.365 127.537 167.802 127.537 167.104V160.583H130.537V171.896H127.975L127.662 170.625H127.537C127.173 171.099 126.735 171.469 126.225 171.729C125.709 171.979 125.152 172.104 124.558 172.104Z" fill="#E9E2D1"/>
<path d="M137.561 171.896C136.379 171.896 135.498 171.615 134.915 171.042C134.342 170.474 134.061 169.656 134.061 168.583V163.354H132.228V160.583H134.061L134.478 157.604H137.04V160.583H139.707V163.354H137.04V168.062C137.04 168.385 137.134 168.641 137.332 168.833C137.524 169.031 137.78 169.125 138.103 169.125H139.707V171.896H137.561Z" fill="#E9E2D1"/>
<path d="M141.826 160.583H144.826V171.896H141.826V160.583ZM143.326 159.417C142.836 159.417 142.43 159.26 142.096 158.938C141.773 158.604 141.617 158.198 141.617 157.708C141.617 157.224 141.773 156.823 142.096 156.5C142.43 156.167 142.836 156 143.326 156C143.81 156 144.211 156.167 144.534 156.5C144.867 156.823 145.034 157.224 145.034 157.708C145.034 158.198 144.867 158.604 144.534 158.938C144.211 159.26 143.81 159.417 143.326 159.417Z" fill="#E9E2D1"/>
<path d="M152.391 172.104C151.542 172.104 150.771 171.969 150.079 171.708C149.396 171.448 148.813 171.073 148.329 170.583C147.855 170.083 147.485 169.474 147.225 168.75C146.975 168.016 146.85 167.182 146.85 166.25C146.85 165.307 146.975 164.474 147.225 163.75C147.485 163.031 147.855 162.417 148.329 161.917C148.813 161.417 149.396 161.036 150.079 160.771C150.771 160.51 151.542 160.375 152.391 160.375C153.251 160.375 154.021 160.51 154.704 160.771C155.381 161.036 155.959 161.417 156.433 161.917C156.917 162.417 157.287 163.031 157.537 163.75C157.798 164.474 157.933 165.307 157.933 166.25C157.933 167.182 157.798 168.016 157.537 168.75C157.287 169.474 156.917 170.083 156.433 170.583C155.959 171.073 155.381 171.448 154.704 171.708C154.021 171.969 153.251 172.104 152.391 172.104ZM152.391 169.438C152.735 169.438 153.063 169.385 153.37 169.271C153.688 169.146 153.964 168.953 154.204 168.688C154.438 168.427 154.62 168.094 154.745 167.688C154.881 167.286 154.954 166.807 154.954 166.25C154.954 165.698 154.881 165.219 154.745 164.812C154.62 164.396 154.438 164.057 154.204 163.792C153.964 163.531 153.688 163.344 153.37 163.229C153.063 163.104 152.735 163.042 152.391 163.042C152.058 163.042 151.73 163.104 151.412 163.229C151.089 163.344 150.813 163.531 150.579 163.792C150.355 164.057 150.173 164.396 150.037 164.812C149.896 165.219 149.829 165.698 149.829 166.25C149.829 166.807 149.896 167.286 150.037 167.688C150.173 168.094 150.355 168.427 150.579 168.688C150.813 168.953 151.089 169.146 151.412 169.271C151.73 169.385 152.058 169.438 152.391 169.438Z" fill="#E9E2D1"/>
<path d="M159.954 160.583H162.517L162.85 161.875H162.954C163.313 161.391 163.751 161.021 164.267 160.771C164.777 160.51 165.334 160.375 165.933 160.375C166.543 160.375 167.105 160.479 167.621 160.688C168.131 160.896 168.569 161.203 168.933 161.604C169.293 161.995 169.579 162.474 169.787 163.042C169.996 163.599 170.1 164.24 170.1 164.958V171.896H167.1V165.396C167.1 164.635 166.918 164.052 166.558 163.646C166.209 163.245 165.715 163.042 165.079 163.042C164.438 163.042 163.923 163.266 163.537 163.708C163.147 164.141 162.954 164.703 162.954 165.396V171.896H159.954V160.583Z" fill="#E9E2D1"/>
<path d="M176.703 172.104C175.881 172.104 175.172 172.005 174.578 171.812C173.979 171.62 173.479 171.349 173.078 171C172.672 170.656 172.36 170.26 172.141 169.812C171.933 169.37 171.776 168.891 171.683 168.375H174.891C174.943 168.641 175.125 168.885 175.433 169.104C175.735 169.328 176.162 169.438 176.703 169.438C177.438 169.438 177.938 169.354 178.203 169.188C178.479 169.01 178.62 168.807 178.62 168.583C178.62 168.307 178.459 168.104 178.141 167.979C177.818 167.844 177.417 167.724 176.933 167.625C176.459 167.531 175.938 167.427 175.37 167.312C174.813 167.203 174.292 167.016 173.808 166.75C173.318 166.49 172.917 166.125 172.599 165.667C172.276 165.198 172.12 164.573 172.12 163.792C172.12 163.307 172.214 162.865 172.412 162.458C172.62 162.042 172.912 161.682 173.287 161.375C173.672 161.073 174.151 160.828 174.724 160.646C175.292 160.469 175.953 160.375 176.703 160.375C177.495 160.375 178.183 160.474 178.766 160.667C179.349 160.849 179.834 161.099 180.224 161.417C180.625 161.74 180.933 162.115 181.141 162.542C181.36 162.958 181.521 163.411 181.62 163.896H178.412C178.354 163.688 178.203 163.495 177.953 163.312C177.714 163.135 177.297 163.042 176.703 163.042C176.214 163.042 175.839 163.12 175.578 163.271C175.328 163.411 175.203 163.583 175.203 163.792C175.203 164.073 175.36 164.281 175.683 164.417C176.016 164.542 176.417 164.656 176.891 164.75C177.375 164.849 177.896 164.958 178.453 165.083C179.021 165.198 179.547 165.385 180.037 165.646C180.521 165.896 180.922 166.26 181.245 166.729C181.563 167.188 181.724 167.807 181.724 168.583C181.724 169.042 181.641 169.479 181.474 169.896C181.308 170.312 181.026 170.688 180.641 171.021C180.266 171.354 179.75 171.62 179.099 171.812C178.459 172.005 177.662 172.104 176.703 172.104Z" fill="#E9E2D1"/>
</svg>
