<svg width="126" height="125" viewBox="0 0 126 125" fill="none" xmlns="http://www.w3.org/2000/svg">
<path d="M9.59615 46.875C9.35397 46.875 9.12111 46.9219 8.89756 47.0157C8.67401 47.1048 8.47841 47.2409 8.30609 47.4097C8.13377 47.5833 8.00337 47.7803 7.91023 48.0055C7.81708 48.2306 7.77051 48.4652 7.77051 48.7044C7.77051 48.9483 7.81708 49.1829 7.91023 49.408C8.00337 49.6332 8.13377 49.8302 8.30609 49.9991C8.47841 50.1726 8.67401 50.304 8.89756 50.3978C9.12111 50.4916 9.35397 50.5385 9.59615 50.5385H12.0272C12.2694 50.5385 12.5023 50.4916 12.7258 50.3978C12.9494 50.304 13.1496 50.1726 13.3173 49.9991C13.4896 49.8302 13.62 49.6332 13.7132 49.408C13.8063 49.1829 13.8529 48.9483 13.8529 48.7044C13.8529 48.4652 13.8063 48.2306 13.7132 48.0055C13.62 47.7803 13.4896 47.5833 13.3173 47.4097C13.1496 47.2409 12.9494 47.1048 12.7258 47.0157C12.5023 46.9219 12.2694 46.875 12.0272 46.875H9.59615Z" fill="#E9E2D1"/>
<path d="M19.3247 46.875C19.0825 46.875 18.8496 46.9219 18.6261 47.0157C18.4025 47.1048 18.2069 47.2409 18.0346 47.4097C17.8623 47.5833 17.7319 47.7803 17.6387 48.0055C17.5456 48.2306 17.499 48.4652 17.499 48.7044C17.499 48.9483 17.5456 49.1829 17.6387 49.408C17.7319 49.6332 17.8623 49.8302 18.0346 49.9991C18.2069 50.1726 18.4025 50.304 18.6261 50.3978C18.8496 50.4916 19.0825 50.5385 19.3247 50.5385H21.7557C21.9979 50.5385 22.2308 50.4916 22.4543 50.3978C22.6779 50.304 22.8735 50.1726 23.0458 49.9991C23.2181 49.8302 23.3485 49.6332 23.4417 49.408C23.5348 49.1829 23.5814 48.9483 23.5814 48.7044C23.5814 48.4652 23.5348 48.2306 23.4417 48.0055C23.3485 47.7803 23.2181 47.5833 23.0458 47.4097C22.8735 47.2409 22.6779 47.1048 22.4543 47.0157C22.2308 46.9219 21.9979 46.875 21.7557 46.875H19.3247Z" fill="#E9E2D1"/>
<path d="M86.8176 85.3255C86.8176 85.0863 86.771 84.8517 86.6779 84.6266C86.5847 84.4014 86.4543 84.2044 86.282 84.0308C86.1097 83.862 85.9141 83.7306 85.6905 83.6368C85.467 83.543 85.2341 83.4961 84.9919 83.4961H77.694C77.4565 83.4961 77.2236 83.543 77.0001 83.6368C76.7766 83.7306 76.5763 83.862 76.4086 84.0308C76.2363 84.2044 76.1013 84.4014 76.0128 84.6266C75.9196 84.8517 75.873 85.0863 75.873 85.3255V99.9748C75.873 100.219 75.9196 100.453 76.0128 100.678C76.1013 100.904 76.2363 101.101 76.4086 101.269C76.5763 101.443 76.7766 101.574 77.0001 101.668C77.2236 101.762 77.4565 101.809 77.694 101.809H84.9919C85.2341 101.809 85.467 101.762 85.6905 101.668C85.9141 101.574 86.1097 101.443 86.282 101.269C86.4543 101.101 86.5847 100.904 86.6779 100.678C86.771 100.453 86.8176 100.219 86.8176 99.9748V85.3255ZM83.1663 98.1454H79.5197V87.1596H83.1663V98.1454Z" fill="#E9E2D1"/>
<path d="M70.5202 99.9748V85.3255C70.5202 85.0863 70.4736 84.8517 70.3805 84.6266C70.2873 84.4014 70.1569 84.2044 69.9846 84.0308C69.8123 83.862 69.6167 83.7306 69.3931 83.6368C69.1696 83.543 68.9367 83.4961 68.6945 83.4961H51.6723C51.4301 83.4961 51.1973 83.543 50.9737 83.6368C50.7502 83.7306 50.5499 83.862 50.3823 84.0308C50.2099 84.2044 50.0795 84.4014 49.9864 84.6266C49.8933 84.8517 49.8467 85.0863 49.8467 85.3255V99.9748C49.8467 100.219 49.8933 100.453 49.9864 100.678C50.0795 100.904 50.2099 101.101 50.3823 101.269C50.5499 101.443 50.7502 101.574 50.9737 101.668C51.1973 101.762 51.4301 101.809 51.6723 101.809H68.6945C68.9367 101.809 69.1696 101.762 69.3931 101.668C69.6167 101.574 69.8123 101.443 69.9846 101.269C70.1569 101.101 70.2873 100.904 70.3805 100.678C70.4736 100.453 70.5202 100.219 70.5202 99.9748ZM66.8736 98.1454H53.4933V87.1596H66.8736V98.1454Z" fill="#E9E2D1"/>
<path d="M86.8159 68.2369C86.8159 67.993 86.7693 67.7631 86.6762 67.5379C86.583 67.3128 86.4526 67.1158 86.2803 66.9422C86.108 66.7734 85.9124 66.6373 85.6888 66.5435C85.4653 66.4544 85.2324 66.4075 84.9902 66.4075H51.6723C51.4301 66.4075 51.1973 66.4544 50.9737 66.5435C50.7502 66.6373 50.5499 66.7734 50.3823 66.9422C50.2099 67.1158 50.0795 67.3128 49.9864 67.5379C49.8933 67.7631 49.8467 67.993 49.8467 68.2369V75.5639C49.8467 75.8031 49.8933 76.0377 49.9864 76.2628C50.0795 76.488 50.2099 76.685 50.3823 76.8585C50.5499 77.0274 50.7502 77.1587 50.9737 77.2526C51.1973 77.3464 51.4301 77.3933 51.6723 77.3933H84.9902C85.2324 77.3933 85.4653 77.3464 85.6888 77.2526C85.9124 77.1587 86.108 77.0274 86.2803 76.8585C86.4526 76.685 86.583 76.488 86.6762 76.2628C86.7693 76.0377 86.8159 75.8031 86.8159 75.5639V68.2369ZM83.1646 73.7298H53.4933V70.0663H83.1646V73.7298Z" fill="#E9E2D1"/>
<path d="M61.4028 111.575H84.9917C85.2339 111.575 85.4668 111.528 85.6903 111.434C85.9139 111.34 86.1095 111.209 86.2818 111.036C86.4541 110.867 86.5845 110.665 86.6777 110.445C86.7708 110.219 86.8174 109.985 86.8174 109.741C86.8174 109.497 86.7708 109.267 86.6777 109.042C86.5845 108.817 86.4541 108.62 86.2818 108.446C86.1095 108.277 85.9139 108.141 85.6903 108.052C85.4668 107.958 85.2339 107.911 84.9917 107.911H61.4028C61.1606 107.911 60.9277 107.958 60.7042 108.052C60.4807 108.141 60.2804 108.277 60.1127 108.446C59.9404 108.62 59.81 108.817 59.7169 109.042C59.6237 109.267 59.5771 109.497 59.5771 109.741C59.5771 109.985 59.6237 110.219 59.7169 110.445C59.81 110.665 59.9404 110.867 60.1127 111.036C60.2804 111.209 60.4807 111.34 60.7042 111.434C60.9277 111.528 61.1606 111.575 61.4028 111.575Z" fill="#E9E2D1"/>
<path d="M51.6723 107.911C51.4301 107.911 51.1973 107.958 50.9737 108.052C50.7502 108.141 50.5499 108.277 50.3823 108.446C50.2099 108.62 50.0795 108.817 49.9864 109.042C49.8933 109.267 49.8467 109.497 49.8467 109.741C49.8467 109.985 49.8933 110.219 49.9864 110.445C50.0795 110.665 50.2099 110.867 50.3823 111.036C50.5499 111.209 50.7502 111.34 50.9737 111.434C51.1973 111.528 51.4301 111.575 51.6723 111.575H54.1034C54.3456 111.575 54.5784 111.528 54.802 111.434C55.0255 111.34 55.2211 111.209 55.3935 111.036C55.5658 110.867 55.6962 110.665 55.7893 110.445C55.8825 110.219 55.929 109.985 55.929 109.741C55.929 109.497 55.8825 109.267 55.7893 109.042C55.6962 108.817 55.5658 108.62 55.3935 108.446C55.2211 108.277 55.0255 108.141 54.802 108.052C54.5784 107.958 54.3456 107.911 54.1034 107.911H51.6723Z" fill="#E9E2D1"/>
<mask id="mask0_671_234" style="mask-type:luminance" maskUnits="userSpaceOnUse" x="0" y="39" width="98" height="86">
<path d="M0.445312 39.7825H97.3393V125H0.445312V39.7825Z" fill="white"/>
</mask>
<g mask="url(#mask0_671_234)">
<path d="M94.7205 61.5244C94.4784 61.5244 94.2455 61.5713 94.022 61.6651C93.7984 61.7542 93.6028 61.8903 93.4305 62.0591C93.2582 62.2327 93.1278 62.4297 93.0346 62.6549C92.9415 62.88 92.8949 63.1099 92.8949 63.3538V121.341H43.7656V56.6413H55.8186C56.0608 56.6413 56.2936 56.5944 56.5172 56.5005C56.7407 56.4067 56.9363 56.2754 57.1086 56.1065C57.281 55.933 57.4114 55.7359 57.5045 55.5108C57.5977 55.2856 57.6442 55.0511 57.6442 54.8119C57.6442 54.5679 57.5977 54.3334 57.5045 54.1082C57.4114 53.8831 57.281 53.6861 57.1086 53.5125C56.9363 53.3436 56.7407 53.2123 56.5172 53.1185C56.2936 53.0247 56.0608 52.9778 55.8186 52.9778H4.12318V44.4312H58.6642C58.9017 44.4312 59.1345 44.3889 59.3581 44.2951C59.5816 44.2013 59.7819 44.07 59.9496 43.8964C60.1219 43.7275 60.2523 43.5258 60.3454 43.3054C60.4386 43.0802 60.4851 42.8457 60.4851 42.6017C60.4851 42.3578 60.4386 42.128 60.3454 41.9028C60.2523 41.6777 60.1219 41.4806 59.9496 41.3071C59.7819 41.1382 59.5816 41.0022 59.3581 40.9084C59.1345 40.8192 58.9017 40.7723 58.6642 40.7723H2.29754C2.05537 40.7723 1.82251 40.8192 1.59896 40.9084C1.38007 41.0022 1.17981 41.1382 1.00749 41.3071C0.839827 41.4806 0.704768 41.6777 0.61628 41.9028C0.523135 42.128 0.476562 42.3578 0.476562 42.6017V123.171C0.476562 123.415 0.523135 123.644 0.61628 123.87C0.704768 124.095 0.839827 124.292 1.00749 124.465C1.17981 124.634 1.38007 124.77 1.59896 124.864C1.82251 124.953 2.05537 125 2.29754 125H94.7205C94.9627 125 95.1956 124.953 95.4191 124.864C95.6427 124.77 95.8383 124.634 96.0106 124.465C96.1829 124.292 96.3133 124.095 96.4065 123.87C96.4996 123.644 96.5462 123.415 96.5462 123.171V63.3538C96.5462 63.1099 96.4996 62.88 96.4065 62.6549C96.3133 62.4297 96.1829 62.2327 96.0106 62.0591C95.8383 61.8903 95.6427 61.7542 95.4191 61.6651C95.1956 61.5713 94.9627 61.5244 94.7205 61.5244ZM40.119 121.341H4.12318V56.6413H40.119V121.341Z" fill="#E9E2D1"/>
</g>
<path d="M27.4045 78.3689C27.5629 78.5519 27.7492 78.702 27.9634 78.8099C28.1823 78.9224 28.4105 78.9834 28.648 79.0022C28.8902 79.021 29.1277 78.9928 29.3559 78.9178C29.5841 78.8427 29.7937 78.7254 29.9753 78.5706L35.4709 73.8423C35.6711 73.6688 35.8295 73.4624 35.9366 73.2185C36.0484 72.9745 36.1043 72.7212 36.1043 72.4539C36.1043 72.1865 36.0484 71.9285 35.9366 71.6893C35.8295 71.4453 35.6711 71.2342 35.4709 71.0607L29.9753 66.3371C29.7937 66.1776 29.5841 66.065 29.3559 65.99C29.1277 65.9149 28.8949 65.8914 28.6527 65.9102C28.4152 65.929 28.187 65.9946 27.9727 66.1025C27.7585 66.2104 27.5722 66.3605 27.4138 66.5435C27.2555 66.7264 27.1437 66.9328 27.0646 67.1626C26.99 67.3925 26.9621 67.627 26.9807 67.8663C26.9994 68.1102 27.0599 68.34 27.167 68.5558C27.2741 68.7716 27.4232 68.9592 27.6048 69.1187L31.4796 72.4492L27.6048 75.7843C27.4185 75.9438 27.2695 76.1314 27.1624 76.3472C27.0506 76.563 26.99 76.7928 26.9714 77.0367C26.9528 77.2807 26.9807 77.5152 27.0552 77.7451C27.1298 77.9796 27.2462 78.186 27.4045 78.3689Z" fill="#E9E2D1"/>
<path d="M8.77574 73.8423L14.2666 78.5659C14.4483 78.7254 14.6578 78.838 14.886 78.9131C15.1142 78.9881 15.3471 79.0116 15.5893 78.9928C15.8315 78.974 16.055 78.9084 16.2692 78.8005C16.4881 78.6926 16.6698 78.5425 16.8281 78.3596C16.9865 78.1766 17.1029 77.9702 17.1774 77.7404C17.2519 77.5105 17.2799 77.276 17.2612 77.0321C17.2426 76.7928 17.1821 76.563 17.0749 76.3472C16.9678 76.1314 16.8188 75.9438 16.6372 75.7843L12.7623 72.4492L16.6372 69.1187C16.8188 68.9592 16.9678 68.7716 17.0749 68.5558C17.1821 68.34 17.2426 68.1102 17.2612 67.8663C17.2799 67.627 17.2519 67.3925 17.1774 67.1626C17.1029 66.9328 16.9865 66.7264 16.8281 66.5435C16.6698 66.3605 16.4881 66.2104 16.2692 66.1025C16.055 65.9946 15.8315 65.929 15.5893 65.9102C15.3471 65.8914 15.1142 65.9149 14.886 65.99C14.6578 66.065 14.4483 66.1776 14.2666 66.3371L8.77574 71.0607C8.57082 71.2342 8.41247 71.4406 8.30536 71.6846C8.19358 71.9285 8.1377 72.1818 8.1377 72.4492C8.1377 72.7165 8.19358 72.9745 8.30536 73.2138C8.41247 73.4577 8.57082 73.6688 8.77574 73.8423Z" fill="#E9E2D1"/>
<path d="M19.7194 82.1028C19.8637 82.1403 20.0081 82.1591 20.1618 82.1591C20.5763 82.1591 20.9535 82.0277 21.2795 81.7697C21.6102 81.5117 21.8244 81.1787 21.9269 80.7706L25.8529 65.0189C25.9135 64.7844 25.9275 64.5452 25.8949 64.3012C25.8623 64.0573 25.7831 63.8322 25.6573 63.6211C25.5363 63.41 25.3732 63.227 25.1776 63.0816C24.982 62.9362 24.7678 62.833 24.5303 62.772C24.2928 62.7158 24.0552 62.7017 23.8131 62.7392C23.5709 62.7767 23.3473 62.8565 23.1378 62.9878C22.9282 63.1145 22.7559 63.2786 22.6115 63.4757C22.4671 63.6727 22.3693 63.8931 22.3134 64.1324L18.3874 79.884C18.3315 80.1186 18.3175 80.3578 18.3548 80.597C18.392 80.8363 18.4712 81.0614 18.597 81.2678C18.718 81.4789 18.881 81.6525 19.072 81.7979C19.2676 81.9433 19.4818 82.0418 19.7194 82.1028Z" fill="#E9E2D1"/>
<path d="M34.2812 88.2618H17.2544C17.0122 88.2618 16.7793 88.3087 16.5558 88.4026C16.3322 88.4964 16.1366 88.6277 15.9643 88.7966C15.792 88.9702 15.6616 89.1672 15.5684 89.3923C15.4753 89.6175 15.4287 89.852 15.4287 90.0912C15.4287 90.3352 15.4753 90.5697 15.5684 90.7949C15.6616 91.02 15.792 91.217 15.9643 91.3859C16.1366 91.5595 16.3322 91.6908 16.5558 91.7846C16.7793 91.8784 17.0122 91.9253 17.2544 91.9253H34.2812C34.5234 91.9253 34.7563 91.8784 34.9798 91.7846C35.2034 91.6908 35.399 91.5595 35.5713 91.3859C35.739 91.217 35.874 91.02 35.9672 90.7949C36.0556 90.5697 36.1022 90.3352 36.1022 90.0912C36.1022 89.852 36.0556 89.6175 35.9672 89.3923C35.874 89.1672 35.739 88.9702 35.5713 88.7966C35.399 88.6277 35.2034 88.4964 34.9798 88.4026C34.7563 88.3087 34.5234 88.2618 34.2812 88.2618Z" fill="#E9E2D1"/>
<path d="M9.95868 91.9253H11.1789C11.4164 91.9253 11.6493 91.8784 11.8728 91.7846C12.0964 91.6908 12.2966 91.5595 12.4643 91.3859C12.6366 91.217 12.767 91.02 12.8601 90.7949C12.9533 90.5697 12.9999 90.3352 12.9999 90.0912C12.9999 89.852 12.9533 89.6175 12.8601 89.3923C12.767 89.1672 12.6366 88.9702 12.4643 88.7966C12.2966 88.6277 12.0964 88.4964 11.8728 88.4026C11.6493 88.3087 11.4164 88.2618 11.1789 88.2618H9.95868C9.7165 88.2618 9.4883 88.3087 9.26475 88.4026C9.0412 88.4964 8.84094 88.6277 8.66862 88.7966C8.50096 88.9702 8.3659 89.1672 8.27741 89.3923C8.18427 89.6175 8.1377 89.852 8.1377 90.0912C8.1377 90.3352 8.18427 90.5697 8.27741 90.7949C8.3659 91.02 8.50096 91.217 8.66862 91.3859C8.84094 91.5595 9.0412 91.6908 9.26475 91.7846C9.4883 91.8784 9.7165 91.9253 9.95868 91.9253Z" fill="#E9E2D1"/>
<path d="M34.2812 103.802H17.2544C17.0122 103.802 16.7793 103.849 16.5558 103.943C16.3322 104.032 16.1366 104.168 15.9643 104.337C15.792 104.511 15.6616 104.708 15.5684 104.933C15.4753 105.158 15.4287 105.393 15.4287 105.632C15.4287 105.876 15.4753 106.11 15.5684 106.335C15.6616 106.556 15.792 106.758 15.9643 106.926C16.1366 107.1 16.3322 107.231 16.5558 107.325C16.7793 107.419 17.0122 107.466 17.2544 107.466H34.2812C34.5234 107.466 34.7563 107.419 34.9798 107.325C35.2034 107.231 35.399 107.1 35.5713 106.926C35.739 106.758 35.874 106.556 35.9672 106.335C36.0556 106.11 36.1022 105.876 36.1022 105.632C36.1022 105.393 36.0556 105.158 35.9672 104.933C35.874 104.708 35.739 104.511 35.5713 104.337C35.399 104.168 35.2034 104.032 34.9798 103.943C34.7563 103.849 34.5234 103.802 34.2812 103.802Z" fill="#E9E2D1"/>
<path d="M9.95868 107.466H11.1789C11.4164 107.466 11.6493 107.419 11.8728 107.325C12.0964 107.231 12.2966 107.1 12.4643 106.926C12.6366 106.758 12.767 106.556 12.8601 106.335C12.9533 106.11 12.9999 105.876 12.9999 105.632C12.9999 105.393 12.9533 105.158 12.8601 104.933C12.767 104.708 12.6366 104.511 12.4643 104.337C12.2966 104.168 12.0964 104.032 11.8728 103.943C11.6493 103.849 11.4164 103.802 11.1789 103.802H9.95868C9.7165 103.802 9.4883 103.849 9.26475 103.943C9.0412 104.032 8.84094 104.168 8.66862 104.337C8.50096 104.511 8.3659 104.708 8.27741 104.933C8.18427 105.158 8.1377 105.393 8.1377 105.632C8.1377 105.876 8.18427 106.11 8.27741 106.335C8.3659 106.556 8.50096 106.758 8.66862 106.926C8.84094 107.1 9.0412 107.231 9.26475 107.325C9.4883 107.419 9.7165 107.466 9.95868 107.466Z" fill="#E9E2D1"/>
<path d="M9.95868 99.6933H34.2835C34.5256 99.6933 34.7585 99.6464 34.982 99.5526C35.2056 99.4587 35.4012 99.3274 35.5735 99.1585C35.7412 98.985 35.8762 98.788 35.9694 98.5628C36.0579 98.3377 36.1044 98.1031 36.1044 97.8639C36.1044 97.62 36.0579 97.3854 35.9694 97.1603C35.8762 96.9351 35.7412 96.7381 35.5735 96.5692C35.4012 96.3957 35.2056 96.2643 34.982 96.1705C34.7585 96.0767 34.5256 96.0298 34.2835 96.0298H9.95868C9.7165 96.0298 9.4883 96.0767 9.26475 96.1705C9.0412 96.2643 8.84094 96.3957 8.66862 96.5692C8.50096 96.7381 8.3659 96.9351 8.27741 97.1603C8.18427 97.3854 8.1377 97.62 8.1377 97.8639C8.1377 98.1031 8.18427 98.3377 8.27741 98.5628C8.3659 98.788 8.50096 98.985 8.66862 99.1585C8.84094 99.3274 9.0412 99.4587 9.26475 99.5526C9.4883 99.6464 9.7165 99.6933 9.95868 99.6933Z" fill="#E9E2D1"/>
<path d="M9.95868 115.234H34.2835C34.5256 115.234 34.7585 115.187 34.982 115.098C35.2056 115.004 35.4012 114.873 35.5735 114.699C35.7412 114.525 35.8762 114.328 35.9694 114.103C36.0579 113.883 36.1044 113.648 36.1044 113.404C36.1044 113.16 36.0579 112.926 35.9694 112.705C35.8762 112.48 35.7412 112.283 35.5735 112.11C35.4012 111.936 35.2056 111.805 34.982 111.711C34.7585 111.622 34.5256 111.575 34.2835 111.575H9.95868C9.7165 111.575 9.4883 111.622 9.26475 111.711C9.0412 111.805 8.84094 111.936 8.66862 112.11C8.50096 112.283 8.3659 112.48 8.27741 112.705C8.18427 112.926 8.1377 113.16 8.1377 113.404C8.1377 113.648 8.18427 113.883 8.27741 114.103C8.3659 114.328 8.50096 114.525 8.66862 114.699C8.84094 114.873 9.0412 115.004 9.26475 115.098C9.4883 115.187 9.7165 115.234 9.95868 115.234Z" fill="#E9E2D1"/>
<path d="M91.5615 44.6375H95.2128V48.301H91.5615V44.6375Z" fill="#E9E2D1"/>
<path d="M93.3847 15.3389C93.1285 15.3389 92.877 15.367 92.6302 15.4233C92.3787 15.4749 92.1412 15.5546 91.9083 15.6578C91.6755 15.761 91.4566 15.8877 91.2517 16.0378C91.0467 16.1879 90.8558 16.3615 90.6881 16.5491C90.5158 16.7414 90.3714 16.9478 90.241 17.1683C90.1153 17.3887 90.0128 17.6233 89.9383 17.8672C89.8591 18.1111 89.8079 18.3597 89.7846 18.613C89.7567 18.8663 89.7567 19.1196 89.7846 19.3729L91.3681 33.6517H95.4013L96.9847 19.3729C97.0127 19.1196 97.0127 18.8663 96.9894 18.613C96.9614 18.3597 96.9102 18.1111 96.831 17.8672C96.7565 17.6233 96.6541 17.3887 96.5283 17.1683C96.3979 16.9478 96.2535 16.7414 96.0812 16.5491C95.9136 16.3615 95.7226 16.1879 95.5177 16.0378C95.3128 15.8877 95.0939 15.761 94.861 15.6578C94.6282 15.5546 94.386 15.4749 94.1392 15.4186C93.8923 15.367 93.6362 15.3389 93.3847 15.3389Z" fill="#E9E2D1"/>
<mask id="mask1_671_234" style="mask-type:luminance" maskUnits="userSpaceOnUse" x="61" y="0" width="65" height="58">
<path d="M61.5713 0H125.445V57.7952H61.5713V0Z" fill="white"/>
</mask>
<g mask="url(#mask1_671_234)">
<path d="M123.68 42.6252L101.632 4.75177C101.423 4.39058 101.19 4.04346 100.934 3.7151C100.682 3.38675 100.407 3.07246 100.109 2.78164C99.816 2.48612 99.504 2.21405 99.1733 1.96075C98.8426 1.70745 98.498 1.4776 98.1394 1.2712C97.7761 1.06481 97.4082 0.881868 97.0216 0.722381C96.6397 0.562895 96.2439 0.426861 95.8434 0.323664C95.4428 0.215776 95.0377 0.131342 94.6232 0.0797433C94.2133 0.0234539 93.7988 0 93.3843 0C92.9698 0 92.5553 0.0234539 92.1408 0.0797433C91.731 0.131342 91.3258 0.215776 90.9253 0.323664C90.5201 0.426861 90.1289 0.562895 89.747 0.722381C89.3605 0.881868 88.9879 1.06481 88.6293 1.2712C88.2707 1.4776 87.9214 1.70745 87.5907 1.96075C87.2647 2.21405 86.948 2.48612 86.6546 2.78164C86.3612 3.07246 86.0864 3.38675 85.8303 3.7151C85.5788 4.04346 85.3459 4.39058 85.1364 4.75177L63.0843 42.6252C62.6605 43.3569 62.3391 44.1262 62.1203 44.9424C61.8967 45.7539 61.7849 46.5842 61.7803 47.4285C61.7803 48.2682 61.8874 49.0984 62.1016 49.9146C62.3159 50.7308 62.6325 51.5048 63.0517 52.2366C63.4662 52.9683 63.9738 53.6344 64.5653 54.2302C65.1614 54.8306 65.8181 55.3372 66.5493 55.7594C67.2758 56.1862 68.0443 56.5052 68.8546 56.7257C69.665 56.9414 70.494 57.054 71.3323 57.054H115.432C116.275 57.054 117.099 56.9414 117.909 56.7257C118.724 56.5052 119.493 56.1862 120.219 55.7594C120.946 55.3372 121.607 54.8306 122.199 54.2302C122.795 53.6344 123.298 52.9683 123.717 52.2366C124.136 51.5048 124.453 50.7308 124.667 49.9146C124.881 49.0984 124.988 48.2682 124.984 47.4285C124.984 46.5842 124.867 45.7539 124.648 44.9424C124.425 44.1262 124.104 43.3569 123.68 42.6252ZM98.8613 50.1304C98.8613 50.3743 98.8147 50.6089 98.7215 50.834C98.6284 51.0545 98.498 51.2562 98.3257 51.4251C98.1534 51.5986 97.9577 51.73 97.7342 51.8238C97.5107 51.9176 97.2778 51.9645 97.0356 51.9645H89.7331C89.4955 51.9645 89.2627 51.9176 89.0391 51.8238C88.8156 51.73 88.6153 51.5986 88.4477 51.4251C88.2753 51.2562 88.1449 51.0545 88.0518 50.834C87.9586 50.6089 87.9121 50.3743 87.9121 50.1304V42.8081C87.9121 42.5642 87.9586 42.3296 88.0518 42.1045C88.1449 41.884 88.2753 41.6823 88.4477 41.5134C88.6153 41.3399 88.8156 41.2085 89.0391 41.1147C89.2627 41.0209 89.4955 40.974 89.7331 40.974H97.031C97.2731 40.974 97.506 41.0209 97.7295 41.1147C97.9531 41.2085 98.1487 41.3399 98.321 41.5134C98.4933 41.6823 98.6237 41.884 98.7169 42.1045C98.81 42.3296 98.8566 42.5642 98.8566 42.8081L98.8613 50.1304ZM100.608 19.7763L98.8473 35.6828C98.824 35.9033 98.7588 36.119 98.6563 36.3161C98.5539 36.5178 98.4188 36.6913 98.2512 36.8414C98.0835 36.9915 97.8972 37.1088 97.6876 37.1885C97.4781 37.2683 97.2592 37.3105 97.0356 37.3105H89.7331C89.5095 37.3105 89.2953 37.2683 89.0857 37.1885C88.8761 37.1088 88.6852 36.9915 88.5175 36.8414C88.3499 36.6913 88.2148 36.5178 88.1123 36.3161C88.0099 36.119 87.9447 35.9033 87.9214 35.6828L86.1656 19.7763C86.1097 19.2651 86.1051 18.7538 86.1563 18.2425C86.2075 17.7312 86.31 17.2339 86.4637 16.7461C86.622 16.2536 86.8269 15.7892 87.0784 15.3436C87.3346 14.8979 87.628 14.4851 87.9726 14.1005C88.3126 13.7205 88.6898 13.3781 89.0997 13.0732C89.5142 12.7683 89.9519 12.515 90.4223 12.3039C90.8881 12.0975 91.3724 11.938 91.8707 11.8302C92.3691 11.7223 92.8767 11.6707 93.389 11.6707C93.8966 11.6707 94.4043 11.7223 94.9026 11.8302C95.4056 11.938 95.8853 12.0975 96.3557 12.3039C96.8214 12.515 97.2592 12.7683 97.6737 13.0732C98.0881 13.3781 98.4607 13.7205 98.8054 14.1005C99.1453 14.4851 99.4434 14.8979 99.6949 15.3436C99.951 15.7892 100.156 16.2536 100.31 16.7461C100.463 17.2339 100.57 17.7312 100.617 18.2425C100.668 18.7538 100.668 19.2651 100.608 19.7763Z" fill="#E9E2D1"/>
</g>
</svg>
