<svg width="248" height="193" viewBox="0 0 248 193" fill="none" xmlns="http://www.w3.org/2000/svg">
<path d="M65.5092 44.5745C65.2163 44.5745 64.9348 44.6191 64.6645 44.7083C64.3942 44.793 64.1577 44.9224 63.9493 45.083C63.741 45.248 63.5833 45.4354 63.4707 45.6495C63.3581 45.8636 63.3018 46.0866 63.3018 46.3141C63.3018 46.546 63.3581 46.7691 63.4707 46.9832C63.5833 47.1973 63.741 47.3846 63.9493 47.5452C64.1577 47.7102 64.3942 47.8351 64.6645 47.9244C64.9348 48.0136 65.2163 48.0582 65.5092 48.0582H68.4486C68.7414 48.0582 69.023 48.0136 69.2933 47.9244C69.5636 47.8351 69.8057 47.7102 70.0084 47.5452C70.2168 47.3846 70.3745 47.1973 70.4871 46.9832C70.5997 46.7691 70.656 46.546 70.656 46.3141C70.656 46.0866 70.5997 45.8636 70.4871 45.6495C70.3745 45.4354 70.2168 45.248 70.0084 45.083C69.8057 44.9224 69.5636 44.793 69.2933 44.7083C69.023 44.6191 68.7414 44.5745 68.4486 44.5745H65.5092Z" fill="#E9E2D1"/>
<path d="M77.2728 44.5745C76.98 44.5745 76.6985 44.6191 76.4282 44.7083C76.1579 44.793 75.9214 44.9224 75.713 45.083C75.5047 45.248 75.347 45.4354 75.2344 45.6495C75.1217 45.8636 75.0654 46.0866 75.0654 46.3141C75.0654 46.546 75.1217 46.7691 75.2344 46.9832C75.347 47.1973 75.5047 47.3846 75.713 47.5452C75.9214 47.7102 76.1579 47.8351 76.4282 47.9244C76.6985 48.0136 76.98 48.0582 77.2728 48.0582H80.2123C80.5051 48.0582 80.7867 48.0136 81.057 47.9244C81.3273 47.8351 81.5638 47.7102 81.7721 47.5452C81.9805 47.3846 82.1381 47.1973 82.2508 46.9832C82.3634 46.7691 82.4197 46.546 82.4197 46.3141C82.4197 46.0866 82.3634 45.8636 82.2508 45.6495C82.1381 45.4354 81.9805 45.248 81.7721 45.083C81.5638 44.9224 81.3273 44.793 81.057 44.7083C80.7867 44.6191 80.5051 44.5745 80.2123 44.5745H77.2728Z" fill="#E9E2D1"/>
<path d="M158.879 81.1379C158.879 80.9104 158.822 80.6874 158.71 80.4733C158.597 80.2592 158.439 80.0719 158.231 79.9068C158.023 79.7462 157.786 79.6213 157.516 79.5321C157.246 79.4429 156.964 79.3983 156.671 79.3983H147.847C147.56 79.3983 147.279 79.4429 147.008 79.5321C146.738 79.6213 146.496 79.7462 146.293 79.9068C146.085 80.0719 145.921 80.2592 145.814 80.4733C145.702 80.6874 145.646 80.9104 145.646 81.1379V95.0683C145.646 95.3003 145.702 95.5233 145.814 95.7374C145.921 95.9515 146.085 96.1388 146.293 96.2994C146.496 96.4645 146.738 96.5894 147.008 96.6786C147.279 96.7678 147.56 96.8124 147.847 96.8124H156.671C156.964 96.8124 157.246 96.7678 157.516 96.6786C157.786 96.5894 158.023 96.4645 158.231 96.2994C158.439 96.1388 158.597 95.9515 158.71 95.7374C158.822 95.5233 158.879 95.3003 158.879 95.0683V81.1379ZM154.464 93.3287H150.055V82.882H154.464V93.3287Z" fill="#E9E2D1"/>
<path d="M139.174 95.0683V81.1379C139.174 80.9104 139.118 80.6874 139.005 80.4733C138.893 80.2592 138.735 80.0719 138.527 79.9068C138.318 79.7462 138.082 79.6213 137.812 79.5321C137.541 79.4429 137.26 79.3983 136.967 79.3983H116.385C116.092 79.3983 115.811 79.4429 115.54 79.5321C115.27 79.6213 115.028 79.7462 114.825 79.9068C114.617 80.0719 114.459 80.2592 114.347 80.4733C114.234 80.6874 114.178 80.9104 114.178 81.1379V95.0683C114.178 95.3003 114.234 95.5233 114.347 95.7374C114.459 95.9515 114.617 96.1388 114.825 96.2994C115.028 96.4645 115.27 96.5894 115.54 96.6786C115.811 96.7678 116.092 96.8124 116.385 96.8124H136.967C137.26 96.8124 137.541 96.7678 137.812 96.6786C138.082 96.5894 138.318 96.4645 138.527 96.2994C138.735 96.1388 138.893 95.9515 139.005 95.7374C139.118 95.5233 139.174 95.3003 139.174 95.0683ZM134.765 93.3287H118.587V82.882H134.765V93.3287Z" fill="#E9E2D1"/>
<path d="M158.878 64.8879C158.878 64.656 158.821 64.4374 158.709 64.2233C158.596 64.0092 158.438 63.8219 158.23 63.6568C158.022 63.4962 157.785 63.3669 157.515 63.2777C157.245 63.1929 156.963 63.1483 156.67 63.1483H116.385C116.092 63.1483 115.811 63.1929 115.54 63.2777C115.27 63.3669 115.028 63.4962 114.825 63.6568C114.617 63.8219 114.459 64.0092 114.347 64.2233C114.234 64.4374 114.178 64.656 114.178 64.8879V71.8554C114.178 72.0828 114.234 72.3059 114.347 72.52C114.459 72.7341 114.617 72.9214 114.825 73.0865C115.028 73.2471 115.27 73.3719 115.54 73.4612C115.811 73.5504 116.092 73.595 116.385 73.595H156.67C156.963 73.595 157.245 73.5504 157.515 73.4612C157.785 73.3719 158.022 73.2471 158.23 73.0865C158.438 72.9214 158.596 72.7341 158.709 72.52C158.821 72.3059 158.878 72.0828 158.878 71.8554V64.8879ZM154.463 70.1113H118.587V66.6276H154.463V70.1113Z" fill="#E9E2D1"/>
<path d="M128.15 106.099H156.672C156.964 106.099 157.246 106.055 157.516 105.965C157.786 105.876 158.023 105.751 158.231 105.586C158.44 105.426 158.597 105.234 158.71 105.024C158.823 104.81 158.879 104.587 158.879 104.355C158.879 104.123 158.823 103.905 158.71 103.69C158.597 103.476 158.44 103.289 158.231 103.124C158.023 102.963 157.786 102.834 157.516 102.749C157.246 102.66 156.964 102.615 156.672 102.615H128.15C127.857 102.615 127.575 102.66 127.305 102.749C127.035 102.834 126.793 102.963 126.59 103.124C126.382 103.289 126.224 103.476 126.111 103.69C125.999 103.905 125.942 104.123 125.942 104.355C125.942 104.587 125.999 104.81 126.111 105.024C126.224 105.234 126.382 105.426 126.59 105.586C126.793 105.751 127.035 105.876 127.305 105.965C127.575 106.055 127.857 106.099 128.15 106.099Z" fill="#E9E2D1"/>
<path d="M116.385 102.615C116.092 102.615 115.811 102.66 115.54 102.749C115.27 102.834 115.028 102.963 114.825 103.124C114.617 103.289 114.459 103.476 114.347 103.69C114.234 103.905 114.178 104.123 114.178 104.355C114.178 104.587 114.234 104.81 114.347 105.024C114.459 105.234 114.617 105.426 114.825 105.586C115.028 105.751 115.27 105.876 115.54 105.965C115.811 106.055 116.092 106.099 116.385 106.099H119.325C119.617 106.099 119.899 106.055 120.169 105.965C120.44 105.876 120.676 105.751 120.884 105.586C121.093 105.426 121.25 105.234 121.363 105.024C121.476 104.81 121.532 104.587 121.532 104.355C121.532 104.123 121.476 103.905 121.363 103.69C121.25 103.476 121.093 103.289 120.884 103.124C120.676 102.963 120.44 102.834 120.169 102.749C119.899 102.66 119.617 102.615 119.325 102.615H116.385Z" fill="#E9E2D1"/>
<mask id="mask0_656_238" style="mask-type:luminance" maskUnits="userSpaceOnUse" x="54" y="37" width="118" height="82">
<path d="M54.4453 37.8301H171.601V118.865H54.4453V37.8301Z" fill="white"/>
</mask>
<g mask="url(#mask0_656_238)">
<path d="M168.434 58.5049C168.141 58.5049 167.86 58.5495 167.589 58.6388C167.319 58.7235 167.083 58.8529 166.874 59.0134C166.666 59.1785 166.508 59.3658 166.396 59.5799C166.283 59.794 166.227 60.0126 166.227 60.2446V115.386H106.824V53.8615H121.397C121.69 53.8615 121.972 53.8169 122.242 53.7277C122.512 53.6385 122.749 53.5136 122.957 53.353C123.165 53.1879 123.323 53.0006 123.436 52.7865C123.548 52.5724 123.605 52.3493 123.605 52.1219C123.605 51.8899 123.548 51.6669 123.436 51.4528C123.323 51.2387 123.165 51.0513 122.957 50.8863C122.749 50.7257 122.512 50.6008 122.242 50.5116C121.972 50.4224 121.69 50.3778 121.397 50.3778H58.8916V42.2506H124.838C125.125 42.2506 125.407 42.2105 125.677 42.1213C125.947 42.032 126.189 41.9071 126.392 41.7421C126.6 41.5815 126.758 41.3897 126.871 41.1801C126.983 40.966 127.04 40.7429 127.04 40.511C127.04 40.279 126.983 40.0605 126.871 39.8464C126.758 39.6323 126.6 39.4449 126.392 39.2799C126.189 39.1193 125.947 38.9899 125.677 38.9007C125.407 38.816 125.125 38.7714 124.838 38.7714H56.6842C56.3914 38.7714 56.1098 38.816 55.8395 38.9007C55.5749 38.9899 55.3327 39.1193 55.1244 39.2799C54.9217 39.4449 54.7583 39.6323 54.6514 39.8464C54.5387 40.0605 54.4824 40.279 54.4824 40.511V117.126C54.4824 117.358 54.5387 117.576 54.6514 117.79C54.7583 118.005 54.9217 118.192 55.1244 118.357C55.3327 118.517 55.5749 118.647 55.8395 118.736C56.1098 118.821 56.3914 118.865 56.6842 118.865H168.434C168.727 118.865 169.009 118.821 169.279 118.736C169.549 118.647 169.786 118.517 169.994 118.357C170.202 118.192 170.36 118.005 170.473 117.79C170.585 117.576 170.642 117.358 170.642 117.126V60.2446C170.642 60.0126 170.585 59.794 170.473 59.5799C170.36 59.3658 170.202 59.1785 169.994 59.0134C169.786 58.8529 169.549 58.7235 169.279 58.6388C169.009 58.5495 168.727 58.5049 168.434 58.5049ZM102.415 115.386H58.8916V53.8615H102.415V115.386Z" fill="#E9E2D1"/>
</g>
<path d="M87.0422 74.5228C87.2336 74.6968 87.4589 74.8395 87.7179 74.9421C87.9826 75.0492 88.2585 75.1071 88.5457 75.125C88.8385 75.1428 89.1257 75.1161 89.4016 75.0447C89.6775 74.9733 89.9309 74.8618 90.1506 74.7146L96.7953 70.2184C97.0374 70.0533 97.2289 69.8571 97.3584 69.6251C97.4936 69.3932 97.5611 69.1523 97.5611 68.898C97.5611 68.6438 97.4936 68.3984 97.3584 68.171C97.2289 67.939 97.0374 67.7383 96.7953 67.5732L90.1506 63.0814C89.9309 62.9298 89.6775 62.8227 89.4016 62.7514C89.1257 62.68 88.8441 62.6577 88.5513 62.6755C88.2641 62.6934 87.9882 62.7558 87.7292 62.8584C87.4701 62.961 87.2449 63.1037 87.0534 63.2777C86.862 63.4517 86.7268 63.6479 86.6311 63.8665C86.541 64.0851 86.5072 64.3081 86.5297 64.5356C86.5523 64.7675 86.6255 64.9861 86.755 65.1913C86.8845 65.3965 87.0647 65.5749 87.2843 65.7266L91.9694 68.8936L87.2843 72.065C87.0591 72.2167 86.8789 72.3951 86.7494 72.6003C86.6142 72.8055 86.541 73.0241 86.5185 73.256C86.496 73.488 86.5297 73.711 86.6198 73.9296C86.7099 74.1526 86.8507 74.3489 87.0422 74.5228Z" fill="#E9E2D1"/>
<path d="M64.5176 70.2184L71.1567 74.7102C71.3763 74.8618 71.6297 74.9689 71.9056 75.0402C72.1815 75.1116 72.4631 75.1339 72.7559 75.1161C73.0487 75.0982 73.319 75.0358 73.5781 74.9332C73.8427 74.8306 74.0623 74.6879 74.2538 74.5139C74.4453 74.3399 74.586 74.1437 74.6761 73.9251C74.7662 73.7065 74.8 73.4835 74.7775 73.2515C74.755 73.0241 74.6818 72.8055 74.5523 72.6003C74.4227 72.3951 74.2425 72.2167 74.0229 72.065L69.3378 68.8936L74.0229 65.7266C74.2425 65.5749 74.4227 65.3965 74.5523 65.1913C74.6818 64.9861 74.755 64.7675 74.7775 64.5356C74.8 64.3081 74.7662 64.0851 74.6761 63.8665C74.586 63.6479 74.4453 63.4517 74.2538 63.2777C74.0623 63.1037 73.8427 62.961 73.5781 62.8584C73.319 62.7558 73.0487 62.6934 72.7559 62.6755C72.4631 62.6577 72.1815 62.68 71.9056 62.7514C71.6297 62.8227 71.3763 62.9298 71.1567 63.0814L64.5176 67.5732C64.2698 67.7383 64.0783 67.9345 63.9488 68.1665C63.8137 68.3984 63.7461 68.6393 63.7461 68.8936C63.7461 69.1478 63.8137 69.3932 63.9488 69.6206C64.0783 69.8526 64.2698 70.0533 64.5176 70.2184Z" fill="#E9E2D1"/>
<path d="M77.7503 78.0734C77.9248 78.1091 78.0994 78.1269 78.2852 78.1269C78.7864 78.1269 79.2425 78.0021 79.6367 77.7567C80.0365 77.5114 80.2955 77.1947 80.4194 76.8066L85.1665 61.828C85.2397 61.605 85.2566 61.3775 85.2172 61.1455C85.1777 60.9136 85.082 60.6995 84.93 60.4988C84.7836 60.298 84.5865 60.1241 84.35 59.9858C84.1135 59.8475 83.8544 59.7494 83.5672 59.6914C83.28 59.6379 82.9929 59.6245 82.7 59.6602C82.4072 59.6959 82.1369 59.7717 81.8835 59.8966C81.6301 60.017 81.4218 60.1731 81.2472 60.3605C81.0726 60.5478 80.9544 60.7575 80.8868 60.985L76.1398 75.9636C76.0722 76.1866 76.0553 76.4141 76.1003 76.6416C76.1454 76.8691 76.2411 77.0832 76.3932 77.2794C76.5396 77.4802 76.7367 77.6452 76.9675 77.7835C77.204 77.9218 77.4631 78.0154 77.7503 78.0734Z" fill="#E9E2D1"/>
<path d="M95.3574 83.9302H74.7699C74.4771 83.9302 74.1955 83.9748 73.9252 84.064C73.6549 84.1532 73.4184 84.2781 73.2101 84.4387C73.0017 84.6037 72.8441 84.7911 72.7314 85.0052C72.6188 85.2193 72.5625 85.4423 72.5625 85.6698C72.5625 85.9017 72.6188 86.1248 72.7314 86.3389C72.8441 86.553 73.0017 86.7403 73.2101 86.9009C73.4184 87.066 73.6549 87.1909 73.9252 87.2801C74.1955 87.3693 74.4771 87.4139 74.7699 87.4139H95.3574C95.6502 87.4139 95.9317 87.3693 96.202 87.2801C96.4723 87.1909 96.7088 87.066 96.9172 86.9009C97.1199 86.7403 97.2832 86.553 97.3958 86.3389C97.5028 86.1248 97.5591 85.9017 97.5591 85.6698C97.5591 85.4423 97.5028 85.2193 97.3958 85.0052C97.2832 84.7911 97.1199 84.6037 96.9172 84.4387C96.7088 84.2781 96.4723 84.1532 96.202 84.064C95.9317 83.9748 95.6502 83.9302 95.3574 83.9302Z" fill="#E9E2D1"/>
<path d="M65.9479 87.4139H67.4232C67.7104 87.4139 67.992 87.3693 68.2623 87.2801C68.5326 87.1909 68.7747 87.066 68.9774 86.9009C69.1858 86.7403 69.3434 86.553 69.4561 86.3389C69.5687 86.1248 69.625 85.9017 69.625 85.6698C69.625 85.4423 69.5687 85.2193 69.4561 85.0052C69.3434 84.7911 69.1858 84.6037 68.9774 84.4387C68.7747 84.2781 68.5326 84.1532 68.2623 84.064C67.992 83.9748 67.7104 83.9302 67.4232 83.9302H65.9479C65.655 83.9302 65.3791 83.9748 65.1088 84.064C64.8385 84.1532 64.5964 84.2781 64.388 84.4387C64.1853 84.6037 64.022 84.7911 63.915 85.0052C63.8024 85.2193 63.7461 85.4423 63.7461 85.6698C63.7461 85.9017 63.8024 86.1248 63.915 86.3389C64.022 86.553 64.1853 86.7403 64.388 86.9009C64.5964 87.066 64.8385 87.1909 65.1088 87.2801C65.3791 87.3693 65.655 87.4139 65.9479 87.4139Z" fill="#E9E2D1"/>
<path d="M95.3574 98.708H74.7699C74.4771 98.708 74.1955 98.7526 73.9252 98.8418C73.6549 98.9266 73.4184 99.0559 73.2101 99.2165C73.0017 99.3816 72.8441 99.5689 72.7314 99.783C72.6188 99.9971 72.5625 100.22 72.5625 100.448C72.5625 100.68 72.6188 100.903 72.7314 101.117C72.8441 101.326 73.0017 101.518 73.2101 101.679C73.4184 101.844 73.6549 101.969 73.9252 102.058C74.1955 102.147 74.4771 102.192 74.7699 102.192H95.3574C95.6502 102.192 95.9317 102.147 96.202 102.058C96.4723 101.969 96.7088 101.844 96.9172 101.679C97.1199 101.518 97.2832 101.326 97.3958 101.117C97.5028 100.903 97.5591 100.68 97.5591 100.448C97.5591 100.22 97.5028 99.9971 97.3958 99.783C97.2832 99.5689 97.1199 99.3816 96.9172 99.2165C96.7088 99.0559 96.4723 98.9266 96.202 98.8418C95.9317 98.7526 95.6502 98.708 95.3574 98.708Z" fill="#E9E2D1"/>
<path d="M65.9479 102.192H67.4232C67.7104 102.192 67.992 102.147 68.2623 102.058C68.5326 101.969 68.7747 101.844 68.9774 101.679C69.1858 101.518 69.3434 101.326 69.4561 101.117C69.5687 100.903 69.625 100.68 69.625 100.448C69.625 100.22 69.5687 99.9971 69.4561 99.783C69.3434 99.5689 69.1858 99.3816 68.9774 99.2165C68.7747 99.0559 68.5326 98.9266 68.2623 98.8418C67.992 98.7526 67.7104 98.708 67.4232 98.708H65.9479C65.655 98.708 65.3791 98.7526 65.1088 98.8418C64.8385 98.9266 64.5964 99.0559 64.388 99.2165C64.1853 99.3816 64.022 99.5689 63.915 99.783C63.8024 99.9971 63.7461 100.22 63.7461 100.448C63.7461 100.68 63.8024 100.903 63.915 101.117C64.022 101.326 64.1853 101.518 64.388 101.679C64.5964 101.844 64.8385 101.969 65.1088 102.058C65.3791 102.147 65.655 102.192 65.9479 102.192Z" fill="#E9E2D1"/>
<path d="M65.9479 94.8006H95.3593C95.6521 94.8006 95.9337 94.756 96.204 94.6668C96.4743 94.5776 96.7108 94.4527 96.9191 94.2921C97.1219 94.1271 97.2852 93.9397 97.3978 93.7256C97.5048 93.5115 97.5611 93.2885 97.5611 93.061C97.5611 92.829 97.5048 92.606 97.3978 92.3919C97.2852 92.1778 97.1219 91.9904 96.9191 91.8299C96.7108 91.6648 96.4743 91.5399 96.204 91.4507C95.9337 91.3615 95.6521 91.3169 95.3593 91.3169H65.9479C65.655 91.3169 65.3791 91.3615 65.1088 91.4507C64.8385 91.5399 64.5964 91.6648 64.388 91.8299C64.1853 91.9904 64.022 92.1778 63.915 92.3919C63.8024 92.606 63.7461 92.829 63.7461 93.061C63.7461 93.2885 63.8024 93.5115 63.915 93.7256C64.022 93.9397 64.1853 94.1271 64.388 94.2921C64.5964 94.4527 64.8385 94.5776 65.1088 94.6668C65.3791 94.756 65.655 94.8006 65.9479 94.8006Z" fill="#E9E2D1"/>
<path d="M65.9479 109.578H95.3593C95.6521 109.578 95.9337 109.534 96.204 109.449C96.4743 109.36 96.7108 109.235 96.9191 109.07C97.1219 108.905 97.2852 108.717 97.3978 108.503C97.5048 108.294 97.5611 108.071 97.5611 107.839C97.5611 107.607 97.5048 107.384 97.3978 107.174C97.2852 106.96 97.1219 106.773 96.9191 106.608C96.7108 106.443 96.4743 106.318 96.204 106.228C95.9337 106.144 95.6521 106.099 95.3593 106.099H65.9479C65.655 106.099 65.3791 106.144 65.1088 106.228C64.8385 106.318 64.5964 106.443 64.388 106.608C64.1853 106.773 64.022 106.96 63.915 107.174C63.8024 107.384 63.7461 107.607 63.7461 107.839C63.7461 108.071 63.8024 108.294 63.915 108.503C64.022 108.717 64.1853 108.905 64.388 109.07C64.5964 109.235 64.8385 109.36 65.1088 109.449C65.3791 109.534 65.655 109.578 65.9479 109.578Z" fill="#E9E2D1"/>
<path d="M164.615 42.4468H169.03V45.9305H164.615V42.4468Z" fill="#E9E2D1"/>
<path d="M166.82 14.5861C166.51 14.5861 166.206 14.6128 165.907 14.6663C165.603 14.7154 165.316 14.7912 165.035 14.8894C164.753 14.9875 164.488 15.1079 164.241 15.2507C163.993 15.3934 163.762 15.5585 163.559 15.7369C163.351 15.9198 163.176 16.116 163.019 16.3257C162.867 16.5353 162.743 16.7584 162.653 16.9903C162.557 17.2223 162.495 17.4587 162.467 17.6995C162.433 17.9404 162.433 18.1813 162.467 18.4222L164.381 32.0001H169.258L171.172 18.4222C171.206 18.1813 171.206 17.9404 171.178 17.6995C171.144 17.4587 171.082 17.2223 170.987 16.9903C170.897 16.7584 170.773 16.5353 170.621 16.3257C170.463 16.116 170.288 15.9198 170.08 15.7369C169.877 15.5585 169.646 15.3934 169.399 15.2507C169.151 15.1079 168.886 14.9875 168.605 14.8894C168.323 14.7912 168.03 14.7154 167.732 14.6619C167.433 14.6128 167.124 14.5861 166.82 14.5861Z" fill="#E9E2D1"/>
<mask id="mask1_656_238" style="mask-type:luminance" maskUnits="userSpaceOnUse" x="128" y="0" width="78" height="55">
<path d="M128.354 0H205.585V54.9587H128.354V0Z" fill="white"/>
</mask>
<g mask="url(#mask1_656_238)">
<path d="M203.45 40.5332L176.792 4.51856C176.539 4.1751 176.257 3.84501 175.947 3.53277C175.643 3.22053 175.311 2.92168 174.951 2.64512C174.596 2.3641 174.219 2.10539 173.819 1.86452C173.419 1.62365 173.002 1.40508 172.569 1.20882C172.13 1.01255 171.685 0.838588 171.217 0.686928C170.756 0.535269 170.277 0.405912 169.793 0.30778C169.308 0.205186 168.818 0.124896 168.317 0.0758297C167.822 0.0223029 167.321 0 166.819 0C166.318 0 165.817 0.0223029 165.316 0.0758297C164.82 0.124896 164.33 0.205186 163.846 0.30778C163.356 0.405912 162.883 0.535269 162.421 0.686928C161.954 0.838588 161.504 1.01255 161.07 1.20882C160.636 1.40508 160.214 1.62365 159.814 1.86452C159.42 2.10539 159.037 2.3641 158.682 2.64512C158.328 2.92168 157.995 3.22053 157.686 3.53277C157.382 3.84501 157.1 4.1751 156.847 4.51856L130.183 40.5332C129.671 41.2291 129.282 41.9606 129.018 42.7368C128.747 43.5084 128.612 44.298 128.606 45.1009C128.606 45.8993 128.736 46.6888 128.995 47.465C129.254 48.2411 129.637 48.9771 130.144 49.6729C130.645 50.3688 131.259 51.0022 131.974 51.5687C132.695 52.1396 133.489 52.6214 134.373 53.0228C135.251 53.4287 136.18 53.7321 137.16 53.9417C138.14 54.1469 139.142 54.254 140.156 54.254H193.477C194.496 54.254 195.493 54.1469 196.473 53.9417C197.458 53.7321 198.388 53.4287 199.266 53.0228C200.144 52.6214 200.944 52.1396 201.659 51.5687C202.38 51.0022 202.988 50.3688 203.495 49.6729C204.002 48.9771 204.385 48.2411 204.644 47.465C204.903 46.6888 205.032 45.8993 205.027 45.1009C205.027 44.298 204.886 43.5084 204.621 42.7368C204.351 41.9606 203.962 41.2291 203.45 40.5332ZM173.442 47.6701C173.442 47.9021 173.385 48.1251 173.273 48.3392C173.16 48.5489 173.002 48.7407 172.794 48.9013C172.586 49.0663 172.349 49.1912 172.079 49.2804C171.809 49.3696 171.527 49.4142 171.234 49.4142H162.405C162.117 49.4142 161.836 49.3696 161.566 49.2804C161.295 49.1912 161.053 49.0663 160.85 48.9013C160.642 48.7407 160.484 48.5489 160.372 48.3392C160.259 48.1251 160.203 47.9021 160.203 47.6701V40.7072C160.203 40.4752 160.259 40.2522 160.372 40.0381C160.484 39.8285 160.642 39.6367 160.85 39.4761C161.053 39.311 161.295 39.1861 161.566 39.0969C161.836 39.0077 162.117 38.9631 162.405 38.9631H171.229C171.521 38.9631 171.803 39.0077 172.073 39.0969C172.344 39.1861 172.58 39.311 172.788 39.4761C172.997 39.6367 173.154 39.8285 173.267 40.0381C173.38 40.2522 173.436 40.4752 173.436 40.7072L173.442 47.6701ZM175.553 18.8058L173.425 33.9316C173.397 34.1412 173.318 34.3464 173.194 34.5338C173.07 34.7256 172.907 34.8906 172.704 35.0333C172.501 35.1761 172.276 35.2876 172.023 35.3634C171.769 35.4393 171.504 35.4794 171.234 35.4794H162.405C162.134 35.4794 161.875 35.4393 161.622 35.3634C161.368 35.2876 161.138 35.1761 160.935 35.0333C160.732 34.8906 160.569 34.7256 160.445 34.5338C160.321 34.3464 160.242 34.1412 160.214 33.9316L158.091 18.8058C158.024 18.3196 158.018 17.8334 158.08 17.3472C158.142 16.861 158.266 16.3881 158.451 15.9242C158.643 15.4559 158.891 15.0143 159.195 14.5905C159.505 14.1668 159.859 13.7743 160.276 13.4085C160.687 13.0472 161.143 12.7216 161.639 12.4316C162.14 12.1417 162.669 11.9008 163.238 11.7001C163.801 11.5038 164.387 11.3522 164.989 11.2496C165.592 11.147 166.206 11.0979 166.825 11.0979C167.439 11.0979 168.053 11.147 168.655 11.2496C169.263 11.3522 169.843 11.5038 170.412 11.7001C170.975 11.9008 171.504 12.1417 172.006 12.4316C172.507 12.7216 172.957 13.0472 173.374 13.4085C173.785 13.7743 174.145 14.1668 174.45 14.5905C174.759 15.0143 175.007 15.4559 175.193 15.9242C175.379 16.3881 175.508 16.861 175.565 17.3472C175.626 17.8334 175.626 18.3196 175.553 18.8058Z" fill="#E9E2D1"/>
</g>
<path d="M5.76629 159.821H10.0234L15.7897 172.614H12.2308L11.1947 170.241H4.61754L3.58141 172.614H0L5.76629 159.821ZM10.046 167.778L7.95117 162.925H7.83855L5.74376 167.778H10.046Z" fill="#E9E2D1"/>
<path d="M21.7825 172.792C20.9998 172.792 20.2846 172.685 19.6427 172.471C18.9951 172.257 18.4376 171.945 17.9759 171.525C17.5085 171.097 17.1425 170.575 16.8722 169.955C16.6131 169.326 16.4893 168.599 16.4893 167.778C16.4893 166.958 16.6131 166.24 16.8722 165.62C17.1425 164.991 17.5085 164.46 17.9759 164.032C18.4376 163.603 18.9951 163.282 19.6427 163.068C20.2846 162.854 20.9998 162.747 21.7825 162.747C22.2443 162.747 22.661 162.792 23.0214 162.872C23.3818 162.943 23.6971 163.046 23.9674 163.175C24.249 163.296 24.4855 163.425 24.6657 163.568C24.8571 163.701 25.0148 163.826 25.1387 163.942H25.2513V159.821H28.4723V172.614H25.7018L25.3639 171.525H25.2513C25.0824 171.681 24.8909 171.838 24.6657 171.989C24.4404 172.132 24.1814 172.27 23.8998 172.4C23.6295 172.52 23.3142 172.614 22.9538 172.685C22.6047 172.756 22.2161 172.792 21.7825 172.792ZM22.4808 170.508C22.8524 170.508 23.2072 170.464 23.5394 170.366C23.8829 170.259 24.1814 170.094 24.4404 169.866C24.6938 169.643 24.8909 169.358 25.0261 169.01C25.1725 168.666 25.2513 168.256 25.2513 167.778C25.2513 167.306 25.1725 166.895 25.0261 166.547C24.8909 166.19 24.6938 165.901 24.4404 165.673C24.1814 165.45 23.8829 165.289 23.5394 165.191C23.2072 165.084 22.8524 165.031 22.4808 165.031C22.1204 165.031 21.7656 165.084 21.4221 165.191C21.073 165.289 20.7746 165.45 20.5212 165.673C20.279 165.901 20.0819 166.19 19.9355 166.547C19.7835 166.895 19.7103 167.306 19.7103 167.778C19.7103 168.256 19.7835 168.666 19.9355 169.01C20.0819 169.358 20.279 169.643 20.5212 169.866C20.7746 170.094 21.073 170.259 21.4221 170.366C21.7656 170.464 22.1204 170.508 22.4808 170.508Z" fill="#E9E2D1"/>
<path d="M29.9746 162.925H33.4434L36.1914 169.973H36.3265L39.0745 162.925H42.5433L38.2862 172.614H34.2318L29.9746 162.925Z" fill="#E9E2D1"/>
<path d="M47.4974 172.792C46.8329 172.792 46.236 172.721 45.6954 172.578C45.1661 172.426 44.7156 172.217 44.3439 171.953C43.9835 171.681 43.702 171.36 43.5105 170.99C43.3303 170.624 43.2402 170.218 43.2402 169.777C43.2402 169.34 43.336 168.938 43.5331 168.581C43.7245 168.215 44.0286 167.899 44.434 167.636C44.8395 167.364 45.3238 167.149 45.8981 166.993C46.4838 166.842 47.1708 166.761 47.9704 166.761H50.8535V166.315C50.8535 165.851 50.6621 165.508 50.2904 165.28C49.9131 165.057 49.4007 164.941 48.7588 164.941C48.3083 164.941 47.9141 165.026 47.5875 165.191C47.2721 165.347 47.0525 165.539 46.9343 165.762H43.6907C43.7921 165.37 43.9835 164.995 44.2538 164.638C44.5241 164.281 44.8676 163.969 45.29 163.692C45.7236 163.407 46.236 163.184 46.8216 163.014C47.4073 162.836 48.0943 162.747 48.8939 162.747C50.5157 162.747 51.7827 163.059 52.7006 163.675C53.6128 164.295 54.0745 165.205 54.0745 166.404V172.614H51.304L50.9662 171.525H50.8535C50.7184 171.659 50.5607 171.802 50.3805 171.953C50.2003 172.096 49.9638 172.234 49.6823 172.364C49.412 172.498 49.0966 172.596 48.7362 172.667C48.3758 172.747 47.9591 172.792 47.4974 172.792ZM48.3083 170.687C49.0572 170.687 49.6654 170.522 50.1328 170.187C50.6114 169.857 50.8535 169.415 50.8535 168.867V168.599H48.083C47.4974 168.599 47.075 168.697 46.8216 168.885C46.5795 169.076 46.4612 169.313 46.4612 169.598C46.4612 169.919 46.602 170.183 46.8892 170.383C47.1877 170.589 47.6607 170.687 48.3083 170.687Z" fill="#E9E2D1"/>
<path d="M56.7139 162.925H59.4844L59.8448 164.031H59.9574C60.346 163.617 60.819 163.3 61.3765 163.086C61.9283 162.863 62.5308 162.747 63.1784 162.747C63.8373 162.747 64.4454 162.836 65.0029 163.014C65.5548 163.193 66.0278 163.456 66.422 163.8C66.8105 164.134 67.1202 164.544 67.3455 165.031C67.5707 165.508 67.6833 166.057 67.6833 166.672V172.614H64.4398V167.047C64.4398 166.396 64.2427 165.896 63.8542 165.548C63.4769 165.205 62.9419 165.031 62.2549 165.031C61.5623 165.031 61.0048 165.222 60.5881 165.602C60.1658 165.972 59.9574 166.454 59.9574 167.047V172.614H56.7139V162.925Z" fill="#E9E2D1"/>
<path d="M75.7435 172.792C74.8256 172.792 73.9922 172.676 73.2433 172.453C72.5056 172.23 71.8749 171.909 71.3512 171.49C70.8388 171.061 70.439 170.539 70.1574 169.919C69.8871 169.29 69.752 168.577 69.752 167.778C69.752 166.971 69.8871 166.257 70.1574 165.637C70.439 165.022 70.8388 164.495 71.3512 164.067C71.8749 163.639 72.5056 163.313 73.2433 163.086C73.9922 162.863 74.8256 162.747 75.7435 162.747C76.5994 162.747 77.3484 162.845 77.9959 163.032C78.6379 163.224 79.1897 163.478 79.6402 163.8C80.102 164.121 80.4793 164.495 80.7665 164.924C81.048 165.343 81.262 165.776 81.3972 166.226H78.1761C77.934 165.86 77.6243 165.566 77.2526 165.352C76.8922 165.138 76.3854 165.031 75.7435 165.031C74.9326 165.031 74.2625 165.263 73.7388 165.726C73.2264 166.181 72.973 166.864 72.973 167.778C72.973 168.684 73.2264 169.366 73.7388 169.83C74.2625 170.285 74.9326 170.508 75.7435 170.508C76.3854 170.508 76.8922 170.401 77.2526 170.187C77.6243 169.973 77.934 169.687 78.1761 169.331H81.3972C81.262 169.795 81.048 170.236 80.7665 170.651C80.4793 171.057 80.102 171.418 79.6402 171.739C79.1897 172.061 78.6379 172.319 77.9959 172.507C77.3484 172.694 76.5994 172.792 75.7435 172.792Z" fill="#E9E2D1"/>
<path d="M88.888 172.792C87.9701 172.792 87.1367 172.676 86.3878 172.453C85.6501 172.23 85.0194 171.909 84.4957 171.49C83.9833 171.061 83.5835 170.539 83.3019 169.919C83.0316 169.29 82.8965 168.577 82.8965 167.778C82.8965 166.971 83.0316 166.257 83.3019 165.637C83.5835 165.022 83.9833 164.495 84.4957 164.067C85.0194 163.639 85.6501 163.313 86.3878 163.086C87.1367 162.863 87.9701 162.747 88.888 162.747C89.7721 162.747 90.5774 162.867 91.2981 163.104C92.0302 163.345 92.6553 163.684 93.1677 164.121C93.6745 164.549 94.0687 165.062 94.339 165.655C94.6205 166.239 94.7669 166.882 94.7669 167.582C94.7669 167.725 94.7557 167.859 94.7444 167.975C94.7275 168.095 94.7106 168.202 94.6994 168.296C94.6825 168.416 94.6656 168.519 94.6543 168.599H86.2301C86.3653 169.148 86.6356 169.607 87.041 169.973C87.4577 170.33 88.0771 170.508 88.888 170.508C89.5187 170.508 89.9805 170.432 90.2845 170.276C90.583 170.111 90.8477 169.884 91.0729 169.598H94.5417C94.4065 170.018 94.1926 170.415 93.911 170.794C93.6238 171.177 93.2465 171.521 92.7848 171.829C92.3343 172.127 91.7824 172.364 91.1405 172.542C90.4929 172.707 89.744 172.792 88.888 172.792ZM91.4333 166.672C91.3714 166.471 91.2756 166.275 91.1405 166.083C91.0053 165.883 90.8308 165.704 90.6224 165.548C90.4253 165.383 90.1775 165.258 89.8791 165.173C89.5919 165.08 89.2597 165.031 88.888 165.031C88.1334 165.031 87.5478 165.191 87.1311 165.512C86.7088 165.825 86.4103 166.208 86.2301 166.672H91.4333Z" fill="#E9E2D1"/>
<path d="M101.682 172.792C100.899 172.792 100.184 172.685 99.5421 172.471C98.8945 172.257 98.337 171.945 97.8753 171.525C97.4079 171.097 97.0419 170.575 96.7716 169.955C96.5126 169.326 96.3887 168.599 96.3887 167.778C96.3887 166.958 96.5126 166.24 96.7716 165.62C97.0419 164.991 97.4079 164.46 97.8753 164.032C98.337 163.603 98.8945 163.282 99.5421 163.068C100.184 162.854 100.899 162.747 101.682 162.747C102.144 162.747 102.56 162.792 102.921 162.872C103.281 162.943 103.597 163.046 103.867 163.175C104.148 163.296 104.385 163.425 104.565 163.568C104.757 163.701 104.914 163.826 105.038 163.942H105.151V159.821H108.372V172.614H105.601L105.263 171.525H105.151C104.982 171.681 104.79 171.838 104.565 171.989C104.34 172.132 104.081 172.27 103.799 172.4C103.529 172.52 103.214 172.614 102.853 172.685C102.504 172.756 102.116 172.792 101.682 172.792ZM102.38 170.508C102.752 170.508 103.107 170.464 103.439 170.366C103.782 170.259 104.081 170.094 104.34 169.866C104.593 169.643 104.79 169.358 104.925 169.01C105.072 168.666 105.151 168.256 105.151 167.778C105.151 167.306 105.072 166.895 104.925 166.547C104.79 166.19 104.593 165.901 104.34 165.673C104.081 165.45 103.782 165.289 103.439 165.191C103.107 165.084 102.752 165.031 102.38 165.031C102.02 165.031 101.665 165.084 101.322 165.191C100.972 165.289 100.674 165.45 100.421 165.673C100.178 165.901 99.9813 166.19 99.8349 166.547C99.6829 166.895 99.6097 167.306 99.6097 167.778C99.6097 168.256 99.6829 168.666 99.8349 169.01C99.9813 169.358 100.178 169.643 100.421 169.866C100.674 170.094 100.972 170.259 101.322 170.366C101.665 170.464 102.02 170.508 102.38 170.508Z" fill="#E9E2D1"/>
<path d="M120.831 159.821H125.088L130.854 172.614H127.295L126.259 170.241H119.682L118.646 172.614H115.064L120.831 159.821ZM125.11 167.778L123.016 162.925H122.903L120.808 167.778H125.11Z" fill="#E9E2D1"/>
<path d="M132.361 159.821H135.808V172.614H132.361V159.821Z" fill="#E9E2D1"/>
<path d="M148.835 172.792C148.053 172.792 147.337 172.685 146.695 172.471C146.048 172.257 145.49 171.945 145.029 171.525C144.561 171.097 144.195 170.575 143.925 169.955C143.666 169.326 143.542 168.599 143.542 167.778C143.542 166.958 143.666 166.24 143.925 165.62C144.195 164.991 144.561 164.46 145.029 164.032C145.49 163.603 146.048 163.282 146.695 163.068C147.337 162.854 148.053 162.747 148.835 162.747C149.297 162.747 149.714 162.792 150.074 162.872C150.435 162.943 150.75 163.046 151.02 163.175C151.302 163.296 151.538 163.425 151.718 163.568C151.91 163.701 152.068 163.826 152.191 163.942H152.304V159.821H155.525V172.614H152.755L152.417 171.525H152.304C152.135 171.681 151.944 171.838 151.718 171.989C151.493 172.132 151.234 172.27 150.953 172.4C150.682 172.52 150.367 172.614 150.007 172.685C149.657 172.756 149.269 172.792 148.835 172.792ZM149.534 170.508C149.905 170.508 150.26 170.464 150.592 170.366C150.936 170.259 151.234 170.094 151.493 169.866C151.747 169.643 151.944 169.358 152.079 169.01C152.225 168.666 152.304 168.256 152.304 167.778C152.304 167.306 152.225 166.895 152.079 166.547C151.944 166.19 151.747 165.901 151.493 165.673C151.234 165.45 150.936 165.289 150.592 165.191C150.26 165.084 149.905 165.031 149.534 165.031C149.173 165.031 148.818 165.084 148.475 165.191C148.126 165.289 147.827 165.45 147.574 165.673C147.332 165.901 147.135 166.19 146.988 166.547C146.836 166.895 146.763 167.306 146.763 167.778C146.763 168.256 146.836 168.666 146.988 169.01C147.135 169.358 147.332 169.643 147.574 169.866C147.827 170.094 148.126 170.259 148.475 170.366C148.818 170.464 149.173 170.508 149.534 170.508Z" fill="#E9E2D1"/>
<path d="M163.833 172.792C162.915 172.792 162.082 172.676 161.333 172.453C160.595 172.23 159.965 171.909 159.441 171.49C158.929 171.061 158.529 170.539 158.247 169.919C157.977 169.29 157.842 168.577 157.842 167.778C157.842 166.971 157.977 166.257 158.247 165.637C158.529 165.022 158.929 164.495 159.441 164.067C159.965 163.639 160.595 163.313 161.333 163.086C162.082 162.863 162.915 162.747 163.833 162.747C164.717 162.747 165.523 162.867 166.243 163.104C166.976 163.345 167.601 163.684 168.113 164.121C168.62 164.549 169.014 165.062 169.284 165.655C169.566 166.239 169.712 166.882 169.712 167.582C169.712 167.725 169.701 167.859 169.69 167.975C169.673 168.095 169.656 168.202 169.645 168.296C169.628 168.416 169.611 168.519 169.6 168.599H161.175C161.311 169.148 161.581 169.607 161.986 169.973C162.403 170.33 163.022 170.508 163.833 170.508C164.464 170.508 164.926 170.432 165.23 170.276C165.528 170.111 165.793 169.884 166.018 169.598H169.487C169.352 170.018 169.138 170.415 168.856 170.794C168.569 171.177 168.192 171.521 167.73 171.829C167.28 172.127 166.728 172.364 166.086 172.542C165.438 172.707 164.689 172.792 163.833 172.792ZM166.379 166.672C166.317 166.471 166.221 166.275 166.086 166.083C165.951 165.883 165.776 165.704 165.568 165.548C165.371 165.383 165.123 165.258 164.824 165.173C164.537 165.08 164.205 165.031 163.833 165.031C163.079 165.031 162.493 165.191 162.076 165.512C161.654 165.825 161.356 166.208 161.175 166.672H166.379Z" fill="#E9E2D1"/>
<path d="M176.739 172.614C175.461 172.614 174.509 172.373 173.878 171.882C173.259 171.396 172.955 170.696 172.955 169.777V165.298H170.973V162.925H172.955L173.405 160.374H176.176V162.925H179.059V165.298H176.176V169.331C176.176 169.607 176.277 169.826 176.491 169.991C176.7 170.16 176.975 170.241 177.325 170.241H179.059V172.614H176.739Z" fill="#E9E2D1"/>
<path d="M186.771 172.792C185.853 172.792 185.02 172.676 184.271 172.453C183.533 172.23 182.902 171.909 182.379 171.49C181.866 171.061 181.466 170.539 181.185 169.919C180.914 169.29 180.779 168.577 180.779 167.778C180.779 166.971 180.914 166.257 181.185 165.637C181.466 165.022 181.866 164.495 182.379 164.067C182.902 163.639 183.533 163.313 184.271 163.086C185.02 162.863 185.853 162.747 186.771 162.747C187.655 162.747 188.46 162.867 189.181 163.104C189.913 163.345 190.538 163.684 191.05 164.121C191.557 164.549 191.951 165.062 192.222 165.655C192.503 166.239 192.65 166.882 192.65 167.582C192.65 167.725 192.638 167.859 192.627 167.975C192.61 168.095 192.593 168.202 192.582 168.296C192.565 168.416 192.548 168.519 192.537 168.599H184.113C184.248 169.148 184.518 169.607 184.924 169.973C185.341 170.33 185.96 170.508 186.771 170.508C187.402 170.508 187.863 170.432 188.167 170.276C188.466 170.111 188.73 169.884 188.956 169.598H192.424C192.289 170.018 192.075 170.415 191.794 170.794C191.507 171.177 191.129 171.521 190.668 171.829C190.217 172.127 189.665 172.364 189.023 172.542C188.376 172.707 187.627 172.792 186.771 172.792ZM189.316 166.672C189.254 166.471 189.158 166.275 189.023 166.083C188.888 165.883 188.714 165.704 188.505 165.548C188.308 165.383 188.06 165.258 187.762 165.173C187.475 165.08 187.142 165.031 186.771 165.031C186.016 165.031 185.431 165.191 185.014 165.512C184.592 165.825 184.293 166.208 184.113 166.672H189.316Z" fill="#E9E2D1"/>
<path d="M200.267 172.792C199.349 172.792 198.516 172.676 197.767 172.453C197.029 172.23 196.398 171.909 195.875 171.49C195.362 171.061 194.962 170.539 194.681 169.919C194.411 169.29 194.275 168.577 194.275 167.778C194.275 166.971 194.411 166.257 194.681 165.637C194.962 165.022 195.362 164.495 195.875 164.067C196.398 163.639 197.029 163.313 197.767 163.086C198.516 162.863 199.349 162.747 200.267 162.747C201.123 162.747 201.872 162.845 202.519 163.032C203.161 163.224 203.713 163.478 204.164 163.8C204.625 164.121 205.003 164.495 205.29 164.924C205.571 165.343 205.785 165.776 205.921 166.226H202.7C202.457 165.86 202.148 165.566 201.776 165.352C201.416 165.138 200.909 165.031 200.267 165.031C199.456 165.031 198.786 165.263 198.262 165.726C197.75 166.181 197.496 166.864 197.496 167.778C197.496 168.684 197.75 169.366 198.262 169.83C198.786 170.285 199.456 170.508 200.267 170.508C200.909 170.508 201.416 170.401 201.776 170.187C202.148 169.973 202.457 169.687 202.7 169.331H205.921C205.785 169.795 205.571 170.236 205.29 170.651C205.003 171.057 204.625 171.418 204.164 171.739C203.713 172.061 203.161 172.319 202.519 172.507C201.872 172.694 201.123 172.792 200.267 172.792Z" fill="#E9E2D1"/>
<path d="M212.821 172.614C211.543 172.614 210.591 172.373 209.96 171.882C209.341 171.396 209.037 170.696 209.037 169.777V165.298H207.055V162.925H209.037L209.487 160.374H212.258V162.925H215.141V165.298H212.258V169.331C212.258 169.607 212.359 169.826 212.573 169.991C212.782 170.16 213.057 170.241 213.407 170.241H215.141V172.614H212.821Z" fill="#E9E2D1"/>
<path d="M217.436 162.925H220.68V172.614H217.436V162.925ZM219.058 161.926C218.529 161.926 218.089 161.792 217.729 161.516C217.38 161.23 217.211 160.882 217.211 160.463C217.211 160.048 217.38 159.705 217.729 159.428C218.089 159.143 218.529 159 219.058 159C219.582 159 220.015 159.143 220.364 159.428C220.725 159.705 220.905 160.048 220.905 160.463C220.905 160.882 220.725 161.23 220.364 161.516C220.015 161.792 219.582 161.926 219.058 161.926Z" fill="#E9E2D1"/>
<path d="M228.853 172.792C227.935 172.792 227.102 172.676 226.353 172.453C225.615 172.23 224.984 171.909 224.461 171.49C223.948 171.061 223.548 170.539 223.267 169.919C222.996 169.29 222.861 168.577 222.861 167.778C222.861 166.971 222.996 166.257 223.267 165.637C223.548 165.022 223.948 164.495 224.461 164.067C224.984 163.639 225.615 163.313 226.353 163.086C227.102 162.863 227.935 162.747 228.853 162.747C229.782 162.747 230.615 162.863 231.353 163.086C232.085 163.313 232.71 163.639 233.223 164.067C233.746 164.495 234.146 165.022 234.416 165.637C234.698 166.257 234.844 166.971 234.844 167.778C234.844 168.577 234.698 169.29 234.416 169.919C234.146 170.539 233.746 171.061 233.223 171.49C232.71 171.909 232.085 172.23 231.353 172.453C230.615 172.676 229.782 172.792 228.853 172.792ZM228.853 170.508C229.225 170.508 229.579 170.464 229.912 170.365C230.255 170.258 230.553 170.093 230.812 169.866C231.066 169.643 231.263 169.357 231.398 169.009C231.545 168.666 231.623 168.256 231.623 167.778C231.623 167.306 231.545 166.895 231.398 166.547C231.263 166.19 231.066 165.9 230.812 165.673C230.553 165.45 230.255 165.289 229.912 165.191C229.579 165.084 229.225 165.031 228.853 165.031C228.492 165.031 228.138 165.084 227.794 165.191C227.445 165.289 227.147 165.45 226.893 165.673C226.651 165.9 226.454 166.19 226.308 166.547C226.156 166.895 226.082 167.306 226.082 167.778C226.082 168.256 226.156 168.666 226.308 169.009C226.454 169.357 226.651 169.643 226.893 169.866C227.147 170.093 227.445 170.258 227.794 170.365C228.138 170.464 228.492 170.508 228.853 170.508Z" fill="#E9E2D1"/>
<path d="M237.029 162.925H239.8L240.16 164.031H240.273C240.661 163.617 241.134 163.3 241.692 163.086C242.244 162.863 242.846 162.747 243.494 162.747C244.153 162.747 244.761 162.836 245.318 163.014C245.87 163.193 246.343 163.456 246.737 163.8C247.126 164.134 247.436 164.544 247.661 165.031C247.886 165.508 247.999 166.057 247.999 166.672V172.614H244.755V167.047C244.755 166.396 244.558 165.896 244.17 165.548C243.792 165.205 243.257 165.031 242.57 165.031C241.878 165.031 241.32 165.222 240.904 165.602C240.481 165.972 240.273 166.454 240.273 167.047V172.614H237.029V162.925Z" fill="#E9E2D1"/>
<path d="M67.8562 192.991C66.9664 192.991 66.2006 192.906 65.5586 192.741C64.9111 192.576 64.3705 192.344 63.9369 192.045C63.4977 191.751 63.1598 191.412 62.9233 191.028C62.698 190.649 62.5291 190.238 62.4277 189.797H65.8965C65.9528 190.024 66.1499 190.234 66.4822 190.421C66.8088 190.613 67.2705 190.707 67.8562 190.707C68.6501 190.707 69.1907 190.635 69.4779 190.493C69.7764 190.341 69.9284 190.167 69.9284 189.975C69.9284 189.739 69.7538 189.565 69.4103 189.458C69.0612 189.342 68.6276 189.239 68.1039 189.155C67.5915 189.074 67.0284 188.985 66.4146 188.887C65.812 188.793 65.2489 188.633 64.7252 188.405C64.1959 188.182 63.7623 187.87 63.4188 187.477C63.0697 187.076 62.9008 186.541 62.9008 185.872C62.9008 185.457 63.0021 185.078 63.2161 184.73C63.4413 184.373 63.7567 184.065 64.1621 183.802C64.5788 183.543 65.0969 183.334 65.7163 183.177C66.3301 183.026 67.0453 182.945 67.8562 182.945C68.7121 182.945 69.4554 183.03 70.0861 183.195C70.7168 183.351 71.2405 183.565 71.6628 183.838C72.0964 184.114 72.4286 184.435 72.6539 184.801C72.8904 185.158 73.065 185.546 73.172 185.961H69.7032C69.6412 185.782 69.4779 185.617 69.2076 185.461C68.9486 185.31 68.4981 185.229 67.8562 185.229C67.3268 185.229 66.9214 185.296 66.6398 185.426C66.3695 185.546 66.2344 185.693 66.2344 185.872C66.2344 186.112 66.4033 186.291 66.7525 186.407C67.1128 186.514 67.5464 186.612 68.0589 186.692C68.5826 186.777 69.1457 186.871 69.7482 186.978C70.362 187.076 70.9308 187.237 71.4601 187.46C71.9838 187.674 72.4174 187.986 72.7665 188.387C73.11 188.78 73.2846 189.311 73.2846 189.975C73.2846 190.368 73.1945 190.743 73.0143 191.099C72.8341 191.456 72.53 191.777 72.1133 192.063C71.7079 192.348 71.1504 192.576 70.4465 192.741C69.7538 192.906 68.8923 192.991 67.8562 192.991Z" fill="#E9E2D1"/>
<path d="M80.6624 192.991C79.7446 192.991 78.9111 192.875 78.1622 192.652C77.4245 192.429 76.7938 192.107 76.2701 191.688C75.7577 191.26 75.3579 190.738 75.0763 190.118C74.806 189.489 74.6709 188.775 74.6709 187.977C74.6709 187.17 74.806 186.456 75.0763 185.836C75.3579 185.22 75.7577 184.694 76.2701 184.266C76.7938 183.838 77.4245 183.512 78.1622 183.284C78.9111 183.061 79.7446 182.945 80.6624 182.945C81.5916 182.945 82.425 183.061 83.1627 183.284C83.8947 183.512 84.5198 183.838 85.0322 184.266C85.5559 184.694 85.9557 185.22 86.226 185.836C86.5076 186.456 86.654 187.17 86.654 187.977C86.654 188.775 86.5076 189.489 86.226 190.118C85.9557 190.738 85.5559 191.26 85.0322 191.688C84.5198 192.107 83.8947 192.429 83.1627 192.652C82.425 192.875 81.5916 192.991 80.6624 192.991ZM80.6624 190.707C81.0341 190.707 81.3888 190.662 81.7211 190.564C82.0646 190.457 82.363 190.292 82.6221 190.065C82.8755 189.841 83.0726 189.556 83.2077 189.208C83.3541 188.865 83.433 188.454 83.433 187.977C83.433 187.504 83.3541 187.094 83.2077 186.746C83.0726 186.389 82.8755 186.099 82.6221 185.872C82.363 185.649 82.0646 185.488 81.7211 185.39C81.3888 185.283 81.0341 185.229 80.6624 185.229C80.302 185.229 79.9473 185.283 79.6038 185.39C79.2546 185.488 78.9562 185.649 78.7028 185.872C78.4607 186.099 78.2636 186.389 78.1172 186.746C77.9651 187.094 77.8919 187.504 77.8919 187.977C77.8919 188.454 77.9651 188.865 78.1172 189.208C78.2636 189.556 78.4607 189.841 78.7028 190.065C78.9562 190.292 79.2546 190.457 79.6038 190.564C79.9473 190.662 80.302 190.707 80.6624 190.707Z" fill="#E9E2D1"/>
<path d="M89.8923 185.497H87.9102V183.124H89.8923V182.303C89.8923 181.389 90.1964 180.688 90.8158 180.198C91.4465 179.712 92.3982 179.466 93.6764 179.466H95.9965V181.75H94.2621C93.913 181.75 93.637 181.835 93.4287 182C93.2147 182.169 93.1133 182.392 93.1133 182.678V183.124H95.9965V185.497H93.1133V192.812H89.8923V185.497Z" fill="#E9E2D1"/>
<path d="M102.677 192.812C101.399 192.812 100.447 192.571 99.8168 192.081C99.1974 191.594 98.8933 190.894 98.8933 189.975V185.497H96.9111V183.124H98.8933L99.3438 180.572H102.114V183.124H104.997V185.497H102.114V189.529C102.114 189.806 102.216 190.024 102.43 190.189C102.638 190.359 102.914 190.439 103.263 190.439H104.997V192.812H102.677Z" fill="#E9E2D1"/>
<path d="M106.023 183.124H109.38L111.452 189.618H111.564L113.637 183.124H116.993L119.065 189.618H119.178L121.25 183.124H124.358L121.025 192.812H117.443L115.371 186.692H115.259L113.186 192.812H109.38L106.023 183.124Z" fill="#E9E2D1"/>
<path d="M129.426 192.991C128.762 192.991 128.165 192.919 127.624 192.777C127.095 192.625 126.644 192.415 126.273 192.152C125.912 191.88 125.631 191.559 125.439 191.189C125.259 190.823 125.169 190.417 125.169 189.975C125.169 189.538 125.265 189.137 125.462 188.78C125.653 188.414 125.957 188.097 126.363 187.834C126.768 187.562 127.252 187.348 127.827 187.192C128.412 187.04 129.099 186.96 129.899 186.96H132.782V186.514C132.782 186.05 132.591 185.707 132.219 185.479C131.842 185.256 131.329 185.14 130.687 185.14C130.237 185.14 129.843 185.225 129.516 185.39C129.201 185.546 128.981 185.738 128.863 185.961H125.619C125.721 185.568 125.912 185.194 126.183 184.837C126.453 184.48 126.796 184.168 127.219 183.891C127.652 183.606 128.165 183.383 128.75 183.213C129.336 183.035 130.023 182.945 130.823 182.945C132.444 182.945 133.711 183.258 134.629 183.873C135.542 184.493 136.003 185.403 136.003 186.603V192.812H133.233L132.895 191.724H132.782C132.647 191.858 132.489 192 132.309 192.152C132.129 192.295 131.893 192.433 131.611 192.562C131.341 192.696 131.025 192.794 130.665 192.866C130.305 192.946 129.888 192.991 129.426 192.991ZM130.237 190.885C130.986 190.885 131.594 190.72 132.061 190.386C132.54 190.056 132.782 189.614 132.782 189.065V188.798H130.012C129.426 188.798 129.004 188.896 128.75 189.083C128.508 189.275 128.39 189.511 128.39 189.797C128.39 190.118 128.531 190.381 128.818 190.582C129.116 190.787 129.589 190.885 130.237 190.885Z" fill="#E9E2D1"/>
<path d="M138.643 183.124H141.413L141.773 184.23H141.886C142.23 183.815 142.652 183.53 143.147 183.374C143.643 183.209 144.184 183.124 144.769 183.124H146.256V185.604H144.995C144.015 185.604 143.249 185.818 142.697 186.246C142.156 186.666 141.886 187.241 141.886 187.977V192.812H138.643V183.124Z" fill="#E9E2D1"/>
<path d="M153.408 192.991C152.49 192.991 151.656 192.875 150.907 192.652C150.17 192.429 149.539 192.107 149.015 191.688C148.503 191.26 148.103 190.738 147.821 190.118C147.551 189.489 147.416 188.775 147.416 187.977C147.416 187.17 147.551 186.456 147.821 185.836C148.103 185.22 148.503 184.694 149.015 184.266C149.539 183.838 150.17 183.512 150.907 183.284C151.656 183.061 152.49 182.945 153.408 182.945C154.292 182.945 155.097 183.066 155.818 183.302C156.55 183.543 157.175 183.882 157.687 184.319C158.194 184.748 158.588 185.26 158.858 185.854C159.14 186.438 159.286 187.08 159.286 187.781C159.286 187.923 159.275 188.057 159.264 188.173C159.247 188.294 159.23 188.401 159.219 188.494C159.202 188.615 159.185 188.717 159.174 188.798H150.75C150.885 189.346 151.155 189.806 151.561 190.172C151.977 190.528 152.597 190.707 153.408 190.707C154.038 190.707 154.5 190.631 154.804 190.475C155.103 190.31 155.367 190.082 155.592 189.797H159.061C158.926 190.216 158.712 190.613 158.431 190.992C158.143 191.376 157.766 191.719 157.304 192.027C156.854 192.326 156.302 192.562 155.66 192.741C155.012 192.906 154.263 192.991 153.408 192.991ZM155.953 186.871C155.891 186.67 155.795 186.474 155.66 186.282C155.525 186.081 155.35 185.903 155.142 185.747C154.945 185.582 154.697 185.457 154.399 185.372C154.111 185.278 153.779 185.229 153.408 185.229C152.653 185.229 152.067 185.39 151.651 185.711C151.228 186.023 150.93 186.407 150.75 186.871H155.953Z" fill="#E9E2D1"/>
</svg>
