<svg width="326" height="186" viewBox="0 0 326 186" fill="none" xmlns="http://www.w3.org/2000/svg">
<path d="M107.209 52.2084C106.938 52.2084 106.677 52.2605 106.427 52.3646C106.177 52.4636 105.959 52.6146 105.766 52.8021C105.573 52.9948 105.427 53.2136 105.323 53.4636C105.219 53.7136 105.167 53.974 105.167 54.2396C105.167 54.5105 105.219 54.7709 105.323 55.0209C105.427 55.2709 105.573 55.4896 105.766 55.6771C105.959 55.8698 106.177 56.0157 106.427 56.1198C106.677 56.224 106.938 56.2761 107.209 56.2761H109.927C110.198 56.2761 110.459 56.224 110.709 56.1198C110.959 56.0157 111.183 55.8698 111.37 55.6771C111.563 55.4896 111.709 55.2709 111.813 55.0209C111.917 54.7709 111.969 54.5105 111.969 54.2396C111.969 53.974 111.917 53.7136 111.813 53.4636C111.709 53.2136 111.563 52.9948 111.37 52.8021C111.183 52.6146 110.959 52.4636 110.709 52.3646C110.459 52.2605 110.198 52.2084 109.927 52.2084H107.209Z" fill="#E9E2D1"/>
<path d="M118.089 52.2084C117.818 52.2084 117.557 52.2605 117.307 52.3646C117.057 52.4636 116.839 52.6146 116.646 52.8021C116.453 52.9948 116.307 53.2136 116.203 53.4636C116.099 53.7136 116.047 53.974 116.047 54.2396C116.047 54.5105 116.099 54.7709 116.203 55.0209C116.307 55.2709 116.453 55.4896 116.646 55.6771C116.839 55.8698 117.057 56.0157 117.307 56.1198C117.557 56.224 117.818 56.2761 118.089 56.2761H120.807C121.078 56.2761 121.339 56.224 121.589 56.1198C121.839 56.0157 122.057 55.8698 122.25 55.6771C122.443 55.4896 122.589 55.2709 122.693 55.0209C122.797 54.7709 122.849 54.5105 122.849 54.2396C122.849 53.974 122.797 53.7136 122.693 53.4636C122.589 53.2136 122.443 52.9948 122.25 52.8021C122.057 52.6146 121.839 52.4636 121.589 52.3646C121.339 52.2605 121.078 52.2084 120.807 52.2084H118.089Z" fill="#E9E2D1"/>
<path d="M193.568 94.9011C193.568 94.6355 193.516 94.3751 193.411 94.1251C193.307 93.8751 193.161 93.6563 192.969 93.4636C192.776 93.2761 192.557 93.1303 192.307 93.0261C192.057 92.922 191.797 92.8699 191.526 92.8699H183.365C183.099 92.8699 182.839 92.922 182.589 93.0261C182.339 93.1303 182.115 93.2761 181.927 93.4636C181.734 93.6563 181.583 93.8751 181.484 94.1251C181.38 94.3751 181.328 94.6355 181.328 94.9011V111.167C181.328 111.438 181.38 111.698 181.484 111.948C181.583 112.198 181.734 112.417 181.927 112.604C182.115 112.797 182.339 112.943 182.589 113.047C182.839 113.151 183.099 113.203 183.365 113.203H191.526C191.797 113.203 192.057 113.151 192.307 113.047C192.557 112.943 192.776 112.797 192.969 112.604C193.161 112.417 193.307 112.198 193.411 111.948C193.516 111.698 193.568 111.438 193.568 111.167V94.9011ZM189.484 109.135H185.406V96.9376H189.484V109.135Z" fill="#E9E2D1"/>
<path d="M175.343 111.167V94.9011C175.343 94.6355 175.291 94.3751 175.187 94.1251C175.083 93.8751 174.937 93.6563 174.744 93.4636C174.552 93.2761 174.333 93.1303 174.083 93.0261C173.833 92.922 173.573 92.8699 173.302 92.8699H154.265C153.994 92.8699 153.734 92.922 153.484 93.0261C153.234 93.1303 153.01 93.2761 152.823 93.4636C152.63 93.6563 152.484 93.8751 152.38 94.1251C152.276 94.3751 152.224 94.6355 152.224 94.9011V111.167C152.224 111.438 152.276 111.698 152.38 111.948C152.484 112.198 152.63 112.417 152.823 112.604C153.01 112.797 153.234 112.943 153.484 113.047C153.734 113.151 153.994 113.203 154.265 113.203H173.302C173.573 113.203 173.833 113.151 174.083 113.047C174.333 112.943 174.552 112.797 174.744 112.604C174.937 112.417 175.083 112.198 175.187 111.948C175.291 111.698 175.343 111.438 175.343 111.167ZM171.265 109.135H156.302V96.9376H171.265V109.135Z" fill="#E9E2D1"/>
<path d="M193.567 75.9271C193.567 75.6563 193.515 75.4011 193.411 75.1511C193.307 74.9011 193.161 74.6823 192.968 74.4896C192.776 74.3021 192.557 74.1511 192.307 74.0469C192.057 73.948 191.797 73.8959 191.526 73.8959H154.265C153.994 73.8959 153.734 73.948 153.484 74.0469C153.234 74.1511 153.01 74.3021 152.823 74.4896C152.63 74.6823 152.484 74.9011 152.38 75.1511C152.276 75.4011 152.224 75.6563 152.224 75.9271V84.0625C152.224 84.3282 152.276 84.5886 152.38 84.8386C152.484 85.0886 152.63 85.3073 152.823 85.5C153.01 85.6875 153.234 85.8334 153.484 85.9375C153.734 86.0417 153.994 86.0938 154.265 86.0938H191.526C191.797 86.0938 192.057 86.0417 192.307 85.9375C192.557 85.8334 192.776 85.6875 192.968 85.5C193.161 85.3073 193.307 85.0886 193.411 84.8386C193.515 84.5886 193.567 84.3282 193.567 84.0625V75.9271ZM189.484 82.0261H156.302V77.9584H189.484V82.0261Z" fill="#E9E2D1"/>
<path d="M165.146 124.047H191.526C191.797 124.047 192.058 123.995 192.308 123.891C192.558 123.787 192.776 123.641 192.969 123.448C193.162 123.26 193.308 123.037 193.412 122.792C193.516 122.542 193.568 122.281 193.568 122.01C193.568 121.74 193.516 121.484 193.412 121.234C193.308 120.984 193.162 120.766 192.969 120.573C192.776 120.385 192.558 120.234 192.308 120.135C192.058 120.031 191.797 119.979 191.526 119.979H165.146C164.875 119.979 164.615 120.031 164.365 120.135C164.115 120.234 163.891 120.385 163.703 120.573C163.511 120.766 163.365 120.984 163.261 121.234C163.157 121.484 163.104 121.74 163.104 122.01C163.104 122.281 163.157 122.542 163.261 122.792C163.365 123.037 163.511 123.26 163.703 123.448C163.891 123.641 164.115 123.787 164.365 123.891C164.615 123.995 164.875 124.047 165.146 124.047Z" fill="#E9E2D1"/>
<path d="M154.265 119.979C153.994 119.979 153.734 120.031 153.484 120.135C153.234 120.234 153.01 120.385 152.823 120.573C152.63 120.766 152.484 120.984 152.38 121.234C152.276 121.484 152.224 121.74 152.224 122.01C152.224 122.281 152.276 122.542 152.38 122.792C152.484 123.037 152.63 123.26 152.823 123.448C153.01 123.641 153.234 123.787 153.484 123.891C153.734 123.995 153.994 124.047 154.265 124.047H156.984C157.255 124.047 157.515 123.995 157.765 123.891C158.015 123.787 158.234 123.641 158.427 123.448C158.619 123.26 158.765 123.037 158.869 122.792C158.974 122.542 159.026 122.281 159.026 122.01C159.026 121.74 158.974 121.484 158.869 121.234C158.765 120.984 158.619 120.766 158.427 120.573C158.234 120.385 158.015 120.234 157.765 120.135C157.515 120.031 157.255 119.979 156.984 119.979H154.265Z" fill="#E9E2D1"/>
<mask id="mask0_656_238" style="mask-type:luminance" maskUnits="userSpaceOnUse" x="96" y="44" width="110" height="95">
<path d="M96.9736 44.3334H205.333V138.953H96.9736V44.3334Z" fill="white"/>
</mask>
<g mask="url(#mask0_656_238)">
<path d="M202.406 68.474C202.135 68.474 201.874 68.5261 201.624 68.6303C201.374 68.7292 201.156 68.8803 200.963 69.0678C200.77 69.2605 200.624 69.4792 200.52 69.7292C200.416 69.9792 200.364 70.2345 200.364 70.5053V134.891H145.421V63.0522H158.9C159.171 63.0522 159.432 63.0001 159.682 62.8959C159.932 62.7917 160.15 62.6459 160.343 62.4584C160.536 62.2657 160.682 62.047 160.786 61.797C160.89 61.547 160.942 61.2865 160.942 61.0209C160.942 60.7501 160.89 60.4897 160.786 60.2397C160.682 59.9897 160.536 59.7709 160.343 59.5782C160.15 59.3907 159.932 59.2449 159.682 59.1407C159.432 59.0365 159.171 58.9845 158.9 58.9845H101.088V49.4949H162.083C162.348 49.4949 162.609 49.448 162.859 49.3438C163.109 49.2397 163.333 49.0938 163.52 48.9011C163.713 48.7136 163.859 48.4897 163.963 48.2449C164.067 47.9949 164.119 47.7345 164.119 47.4636C164.119 47.1928 164.067 46.9376 163.963 46.6876C163.859 46.4376 163.713 46.2188 163.52 46.0261C163.333 45.8386 163.109 45.6876 162.859 45.5834C162.609 45.4845 162.348 45.4324 162.083 45.4324H99.0462C98.7754 45.4324 98.515 45.4845 98.265 45.5834C98.0202 45.6876 97.7962 45.8386 97.6035 46.0261C97.416 46.2188 97.265 46.4376 97.166 46.6876C97.0618 46.9376 97.0098 47.1928 97.0098 47.4636V136.922C97.0098 137.193 97.0618 137.448 97.166 137.698C97.265 137.948 97.416 138.167 97.6035 138.359C97.7962 138.547 98.0202 138.698 98.265 138.802C98.515 138.901 98.7754 138.953 99.0462 138.953H202.406C202.676 138.953 202.937 138.901 203.187 138.802C203.437 138.698 203.656 138.547 203.848 138.359C204.041 138.167 204.187 137.948 204.291 137.698C204.395 137.448 204.447 137.193 204.447 136.922V70.5053C204.447 70.2345 204.395 69.9792 204.291 69.7292C204.187 69.4792 204.041 69.2605 203.848 69.0678C203.656 68.8803 203.437 68.7292 203.187 68.6303C202.937 68.5261 202.676 68.474 202.406 68.474ZM141.343 134.891H101.088V63.0522H141.343V134.891Z" fill="#E9E2D1"/>
</g>
<path d="M127.125 87.1771C127.302 87.3802 127.511 87.5469 127.75 87.6667C127.995 87.7917 128.25 87.8594 128.516 87.8802C128.787 87.901 129.052 87.8698 129.308 87.7865C129.563 87.7031 129.797 87.5729 130 87.401L136.146 82.151C136.37 81.9583 136.547 81.7292 136.667 81.4583C136.792 81.1875 136.855 80.9062 136.855 80.6094C136.855 80.3125 136.792 80.026 136.667 79.7604C136.547 79.4896 136.37 79.2552 136.146 79.0625L130 73.8177C129.797 73.6406 129.563 73.5156 129.308 73.4323C129.052 73.349 128.792 73.3229 128.521 73.3437C128.256 73.3646 128 73.4375 127.761 73.5573C127.521 73.6771 127.313 73.8437 127.136 74.0469C126.959 74.25 126.834 74.4792 126.745 74.7344C126.662 74.9896 126.631 75.25 126.651 75.5156C126.672 75.7865 126.74 76.0417 126.86 76.2812C126.98 76.5208 127.146 76.7292 127.349 76.9062L131.683 80.6042L127.349 84.3073C127.141 84.4844 126.974 84.6927 126.855 84.9323C126.73 85.1719 126.662 85.4271 126.641 85.6979C126.62 85.9687 126.651 86.2292 126.735 86.4844C126.818 86.7448 126.948 86.974 127.125 87.1771Z" fill="#E9E2D1"/>
<path d="M106.292 82.151L112.432 87.3958C112.635 87.5729 112.87 87.6979 113.125 87.7812C113.38 87.8646 113.641 87.8906 113.911 87.8698C114.182 87.849 114.432 87.776 114.672 87.6562C114.917 87.5365 115.12 87.3698 115.297 87.1667C115.474 86.9635 115.604 86.7344 115.688 86.4792C115.771 86.224 115.802 85.9635 115.781 85.6927C115.76 85.4271 115.693 85.1719 115.573 84.9323C115.453 84.6927 115.286 84.4844 115.083 84.3073L110.75 80.6042L115.083 76.9062C115.286 76.7292 115.453 76.5208 115.573 76.2812C115.693 76.0417 115.76 75.7865 115.781 75.5156C115.802 75.25 115.771 74.9896 115.688 74.7344C115.604 74.4792 115.474 74.25 115.297 74.0469C115.12 73.8437 114.917 73.6771 114.672 73.5573C114.432 73.4375 114.182 73.3646 113.911 73.3437C113.641 73.3229 113.38 73.349 113.125 73.4323C112.87 73.5156 112.635 73.6406 112.432 73.8177L106.292 79.0625C106.063 79.2552 105.885 79.4844 105.766 79.7552C105.641 80.026 105.578 80.3073 105.578 80.6042C105.578 80.901 105.641 81.1875 105.766 81.4531C105.885 81.724 106.063 81.9583 106.292 82.151Z" fill="#E9E2D1"/>
<path d="M118.532 91.3229C118.693 91.3646 118.855 91.3854 119.027 91.3854C119.49 91.3854 119.912 91.2396 120.277 90.9531C120.646 90.6667 120.886 90.2969 121 89.8438L125.391 72.3542C125.459 72.0938 125.474 71.8281 125.438 71.5573C125.402 71.2865 125.313 71.0365 125.172 70.8021C125.037 70.5677 124.855 70.3646 124.636 70.2031C124.417 70.0417 124.178 69.9271 123.912 69.8594C123.646 69.7969 123.381 69.7813 123.11 69.8229C122.839 69.8646 122.589 69.9531 122.355 70.099C122.12 70.2396 121.928 70.4219 121.766 70.6406C121.605 70.8594 121.495 71.1042 121.433 71.3698L117.042 88.8594C116.98 89.1198 116.964 89.3854 117.006 89.6511C117.047 89.9167 117.136 90.1667 117.277 90.3959C117.412 90.6302 117.594 90.8229 117.808 90.9844C118.027 91.1459 118.266 91.2552 118.532 91.3229Z" fill="#E9E2D1"/>
<path d="M134.818 98.1615H115.776C115.505 98.1615 115.245 98.2136 114.995 98.3177C114.745 98.4219 114.526 98.5677 114.333 98.7552C114.141 98.948 113.995 99.1667 113.891 99.4167C113.786 99.6667 113.734 99.9271 113.734 100.193C113.734 100.464 113.786 100.724 113.891 100.974C113.995 101.224 114.141 101.443 114.333 101.63C114.526 101.823 114.745 101.969 114.995 102.073C115.245 102.177 115.505 102.229 115.776 102.229H134.818C135.089 102.229 135.349 102.177 135.599 102.073C135.849 101.969 136.068 101.823 136.26 101.63C136.448 101.443 136.599 101.224 136.703 100.974C136.802 100.724 136.854 100.464 136.854 100.193C136.854 99.9271 136.802 99.6667 136.703 99.4167C136.599 99.1667 136.448 98.948 136.26 98.7552C136.068 98.5677 135.849 98.4219 135.599 98.3177C135.349 98.2136 135.089 98.1615 134.818 98.1615Z" fill="#E9E2D1"/>
<path d="M107.615 102.229H108.979C109.245 102.229 109.505 102.177 109.755 102.073C110.005 101.969 110.229 101.823 110.417 101.63C110.609 101.443 110.755 101.224 110.859 100.974C110.964 100.724 111.016 100.464 111.016 100.193C111.016 99.9271 110.964 99.6667 110.859 99.4167C110.755 99.1667 110.609 98.948 110.417 98.7552C110.229 98.5677 110.005 98.4219 109.755 98.3177C109.505 98.2136 109.245 98.1615 108.979 98.1615H107.615C107.344 98.1615 107.089 98.2136 106.839 98.3177C106.589 98.4219 106.365 98.5677 106.172 98.7552C105.984 98.948 105.833 99.1667 105.734 99.4167C105.63 99.6667 105.578 99.9271 105.578 100.193C105.578 100.464 105.63 100.724 105.734 100.974C105.833 101.224 105.984 101.443 106.172 101.63C106.365 101.823 106.589 101.969 106.839 102.073C107.089 102.177 107.344 102.229 107.615 102.229Z" fill="#E9E2D1"/>
<path d="M134.818 115.417H115.776C115.505 115.417 115.245 115.469 114.995 115.573C114.745 115.672 114.526 115.823 114.333 116.01C114.141 116.203 113.995 116.422 113.891 116.672C113.786 116.922 113.734 117.182 113.734 117.448C113.734 117.719 113.786 117.979 113.891 118.229C113.995 118.474 114.141 118.698 114.333 118.885C114.526 119.078 114.745 119.224 114.995 119.328C115.245 119.432 115.505 119.484 115.776 119.484H134.818C135.089 119.484 135.349 119.432 135.599 119.328C135.849 119.224 136.068 119.078 136.26 118.885C136.448 118.698 136.599 118.474 136.703 118.229C136.802 117.979 136.854 117.719 136.854 117.448C136.854 117.182 136.802 116.922 136.703 116.672C136.599 116.422 136.448 116.203 136.26 116.01C136.068 115.823 135.849 115.672 135.599 115.573C135.349 115.469 135.089 115.417 134.818 115.417Z" fill="#E9E2D1"/>
<path d="M107.615 119.484H108.979C109.245 119.484 109.505 119.432 109.755 119.328C110.005 119.224 110.229 119.078 110.417 118.885C110.609 118.698 110.755 118.474 110.859 118.229C110.964 117.979 111.016 117.719 111.016 117.448C111.016 117.182 110.964 116.922 110.859 116.672C110.755 116.422 110.609 116.203 110.417 116.01C110.229 115.823 110.005 115.672 109.755 115.573C109.505 115.469 109.245 115.417 108.979 115.417H107.615C107.344 115.417 107.089 115.469 106.839 115.573C106.589 115.672 106.365 115.823 106.172 116.01C105.984 116.203 105.833 116.422 105.734 116.672C105.63 116.922 105.578 117.182 105.578 117.448C105.578 117.719 105.63 117.979 105.734 118.229C105.833 118.474 105.984 118.698 106.172 118.885C106.365 119.078 106.589 119.224 106.839 119.328C107.089 119.432 107.344 119.484 107.615 119.484Z" fill="#E9E2D1"/>
<path d="M107.615 110.854H134.818C135.089 110.854 135.349 110.802 135.599 110.698C135.849 110.594 136.068 110.448 136.26 110.26C136.448 110.068 136.599 109.849 136.703 109.599C136.802 109.349 136.854 109.089 136.854 108.823C136.854 108.552 136.802 108.292 136.703 108.042C136.599 107.792 136.448 107.573 136.26 107.385C136.068 107.193 135.849 107.047 135.599 106.943C135.349 106.839 135.089 106.786 134.818 106.786H107.615C107.344 106.786 107.089 106.839 106.839 106.943C106.589 107.047 106.365 107.193 106.172 107.385C105.984 107.573 105.833 107.792 105.734 108.042C105.63 108.292 105.578 108.552 105.578 108.823C105.578 109.089 105.63 109.349 105.734 109.599C105.833 109.849 105.984 110.068 106.172 110.26C106.365 110.448 106.589 110.594 106.839 110.698C107.089 110.802 107.344 110.854 107.615 110.854Z" fill="#E9E2D1"/>
<path d="M107.615 128.109H134.818C135.089 128.109 135.349 128.057 135.599 127.958C135.849 127.854 136.068 127.708 136.26 127.516C136.448 127.323 136.599 127.104 136.703 126.854C136.802 126.609 136.854 126.349 136.854 126.078C136.854 125.807 136.802 125.547 136.703 125.302C136.599 125.052 136.448 124.833 136.26 124.641C136.068 124.448 135.849 124.302 135.599 124.198C135.349 124.099 135.089 124.047 134.818 124.047H107.615C107.344 124.047 107.089 124.099 106.839 124.198C106.589 124.302 106.365 124.448 106.172 124.641C105.984 124.833 105.833 125.052 105.734 125.302C105.63 125.547 105.578 125.807 105.578 126.078C105.578 126.349 105.63 126.609 105.734 126.854C105.833 127.104 105.984 127.323 106.172 127.516C106.365 127.708 106.589 127.854 106.839 127.958C107.089 128.057 107.344 128.109 107.615 128.109Z" fill="#E9E2D1"/>
<path d="M198.875 49.724H202.958V53.7917H198.875V49.724Z" fill="#E9E2D1"/>
<path d="M200.913 17.1927C200.626 17.1927 200.345 17.224 200.069 17.2865C199.788 17.3438 199.522 17.4323 199.262 17.5469C199.001 17.6615 198.757 17.8021 198.527 17.9688C198.298 18.1355 198.085 18.3282 197.897 18.5365C197.704 18.75 197.543 18.9792 197.397 19.224C197.257 19.4688 197.142 19.7292 197.059 20C196.97 20.2709 196.913 20.5469 196.887 20.8282C196.855 21.1094 196.855 21.3907 196.887 21.6719L198.658 37.5261H203.168L204.939 21.6719C204.97 21.3907 204.97 21.1094 204.944 20.8282C204.913 20.5469 204.855 20.2709 204.767 20C204.684 19.7292 204.569 19.4688 204.428 19.224C204.283 18.9792 204.121 18.75 203.928 18.5365C203.741 18.3282 203.527 18.1355 203.298 17.9688C203.069 17.8021 202.824 17.6615 202.564 17.5469C202.303 17.4323 202.033 17.3438 201.757 17.2813C201.48 17.224 201.194 17.1927 200.913 17.1927Z" fill="#E9E2D1"/>
<mask id="mask1_656_238" style="mask-type:luminance" maskUnits="userSpaceOnUse" x="165" y="0" width="72" height="65">
<path d="M165.333 0.161499H236.765V64.3334H165.333V0.161499Z" fill="white"/>
</mask>
<g mask="url(#mask1_656_238)">
<path d="M234.791 47.4896L210.135 5.43754C209.901 5.0365 209.64 4.65108 209.354 4.2865C209.073 3.92192 208.765 3.57296 208.432 3.25004C208.104 2.92192 207.755 2.61983 207.385 2.33858C207.015 2.05733 206.63 1.80212 206.229 1.57296C205.823 1.34379 205.411 1.14067 204.979 0.963582C204.552 0.7865 204.109 0.635457 203.661 0.520874C203.213 0.401082 202.76 0.307333 202.297 0.250041C201.838 0.187541 201.375 0.161499 200.911 0.161499C200.448 0.161499 199.984 0.187541 199.521 0.250041C199.062 0.307333 198.609 0.401082 198.161 0.520874C197.708 0.635457 197.271 0.7865 196.843 0.963582C196.411 1.14067 195.994 1.34379 195.593 1.57296C195.192 1.80212 194.802 2.05733 194.432 2.33858C194.067 2.61983 193.713 2.92192 193.385 3.25004C193.057 3.57296 192.75 3.92192 192.463 4.2865C192.182 4.65108 191.922 5.0365 191.687 5.43754L167.026 47.4896C166.552 48.3021 166.192 49.1563 165.948 50.0625C165.698 50.9636 165.573 51.8855 165.567 52.823C165.567 53.7552 165.687 54.6771 165.927 55.5834C166.166 56.4896 166.521 57.349 166.989 58.1615C167.453 58.974 168.021 59.7136 168.682 60.375C169.349 61.0417 170.083 61.6042 170.901 62.073C171.713 62.5469 172.573 62.9011 173.479 63.1459C174.385 63.3855 175.312 63.5105 176.25 63.5105H225.567C226.51 63.5105 227.432 63.3855 228.338 63.1459C229.25 62.9011 230.109 62.5469 230.922 62.073C231.734 61.6042 232.474 61.0417 233.135 60.375C233.802 59.7136 234.364 58.974 234.833 58.1615C235.302 57.349 235.656 56.4896 235.896 55.5834C236.135 54.6771 236.255 53.7552 236.25 52.823C236.25 51.8855 236.119 50.9636 235.875 50.0625C235.625 49.1563 235.265 48.3021 234.791 47.4896ZM207.036 55.823C207.036 56.0938 206.984 56.3542 206.88 56.6042C206.776 56.849 206.63 57.073 206.437 57.2605C206.244 57.4532 206.026 57.599 205.776 57.7032C205.526 57.8073 205.265 57.8594 204.994 57.8594H196.828C196.562 57.8594 196.302 57.8073 196.052 57.7032C195.802 57.599 195.578 57.4532 195.39 57.2605C195.198 57.073 195.052 56.849 194.948 56.6042C194.843 56.3542 194.791 56.0938 194.791 55.823V47.6928C194.791 47.4219 194.843 47.1615 194.948 46.9115C195.052 46.6667 195.198 46.4428 195.39 46.2553C195.578 46.0625 195.802 45.9167 196.052 45.8125C196.302 45.7084 196.562 45.6563 196.828 45.6563H204.989C205.26 45.6563 205.521 45.7084 205.771 45.8125C206.021 45.9167 206.239 46.0625 206.432 46.2553C206.625 46.4428 206.771 46.6667 206.875 46.9115C206.979 47.1615 207.031 47.4219 207.031 47.6928L207.036 55.823ZM208.989 22.1198L207.021 39.7813C206.994 40.0261 206.922 40.2657 206.807 40.4844C206.692 40.7084 206.541 40.9011 206.354 41.0678C206.166 41.2344 205.958 41.3646 205.724 41.4532C205.489 41.5417 205.244 41.5886 204.994 41.5886H196.828C196.578 41.5886 196.338 41.5417 196.104 41.4532C195.869 41.3646 195.656 41.2344 195.468 41.0678C195.281 40.9011 195.13 40.7084 195.015 40.4844C194.901 40.2657 194.828 40.0261 194.802 39.7813L192.838 22.1198C192.776 21.5521 192.771 20.9844 192.828 20.4167C192.885 19.849 193 19.2969 193.172 18.7552C193.349 18.2084 193.578 17.6927 193.859 17.198C194.146 16.7032 194.474 16.2448 194.859 15.8177C195.239 15.3959 195.661 15.0157 196.119 14.6771C196.583 14.3386 197.073 14.0573 197.599 13.823C198.119 13.5938 198.661 13.4167 199.218 13.2969C199.776 13.1771 200.343 13.1198 200.916 13.1198C201.484 13.1198 202.052 13.1771 202.609 13.2969C203.172 13.4167 203.708 13.5938 204.234 13.823C204.755 14.0573 205.244 14.3386 205.708 14.6771C206.172 15.0157 206.588 15.3959 206.974 15.8177C207.354 16.2448 207.687 16.7032 207.968 17.198C208.255 17.6927 208.484 18.2084 208.656 18.7552C208.828 19.2969 208.948 19.849 209 20.4167C209.057 20.9844 209.057 21.5521 208.989 22.1198Z" fill="#E9E2D1"/>
</g>
<path d="M5.33333 169.958H9.27083L14.6042 184.896H11.3125L10.3542 182.125H4.27083L3.3125 184.896H0L5.33333 169.958ZM9.29167 179.25L7.35417 173.583H7.25L5.3125 179.25H9.29167Z" fill="#E9E2D1"/>
<path d="M20.1468 185.104C19.4229 185.104 18.7614 184.979 18.1676 184.729C17.5687 184.479 17.0531 184.115 16.626 183.625C16.1937 183.125 15.8551 182.516 15.6051 181.792C15.3656 181.057 15.251 180.208 15.251 179.25C15.251 178.292 15.3656 177.453 15.6051 176.729C15.8551 175.995 16.1937 175.375 16.626 174.875C17.0531 174.375 17.5687 174 18.1676 173.75C18.7614 173.5 19.4229 173.375 20.1468 173.375C20.5739 173.375 20.9593 173.427 21.2926 173.521C21.626 173.604 21.9176 173.724 22.1676 173.875C22.4281 174.016 22.6468 174.167 22.8135 174.333C22.9906 174.49 23.1364 174.635 23.251 174.771H23.3551V169.958H26.3343V184.896H23.7718L23.4593 183.625H23.3551C23.1989 183.807 23.0218 183.99 22.8135 184.167C22.6051 184.333 22.3656 184.495 22.1051 184.646C21.8551 184.786 21.5635 184.896 21.2301 184.979C20.9072 185.063 20.5479 185.104 20.1468 185.104ZM20.7926 182.438C21.1364 182.438 21.4645 182.385 21.7718 182.271C22.0895 182.146 22.3656 181.953 22.6051 181.688C22.8395 181.427 23.0218 181.094 23.1468 180.688C23.2822 180.286 23.3551 179.807 23.3551 179.25C23.3551 178.698 23.2822 178.219 23.1468 177.813C23.0218 177.396 22.8395 177.057 22.6051 176.792C22.3656 176.531 22.0895 176.344 21.7718 176.229C21.4645 176.104 21.1364 176.042 20.7926 176.042C20.4593 176.042 20.1312 176.104 19.8135 176.229C19.4906 176.344 19.2145 176.531 18.9801 176.792C18.7562 177.057 18.5739 177.396 18.4385 177.813C18.2979 178.219 18.2301 178.698 18.2301 179.25C18.2301 179.807 18.2979 180.286 18.4385 180.688C18.5739 181.094 18.7562 181.427 18.9801 181.688C19.2145 181.953 19.4906 182.146 19.8135 182.271C20.1312 182.385 20.4593 182.438 20.7926 182.438Z" fill="#E9E2D1"/>
<path d="M27.7236 173.583H30.932L33.4736 181.813H33.5986L36.1403 173.583H39.3486L35.4111 184.896H31.6611L27.7236 173.583Z" fill="#E9E2D1"/>
<path d="M43.9307 185.104C43.3161 185.104 42.764 185.021 42.264 184.854C41.7744 184.677 41.3577 184.432 41.014 184.125C40.6807 183.807 40.4202 183.432 40.2432 183C40.0765 182.573 39.9932 182.099 39.9932 181.583C39.9932 181.073 40.0817 180.604 40.264 180.188C40.4411 179.76 40.7223 179.391 41.0973 179.083C41.4723 178.766 41.9202 178.516 42.4515 178.333C42.9932 178.156 43.6286 178.063 44.3682 178.063H47.0348V177.542C47.0348 177 46.8577 176.599 46.514 176.333C46.165 176.073 45.6911 175.938 45.0973 175.938C44.6807 175.938 44.3161 176.036 44.014 176.229C43.7223 176.411 43.5192 176.635 43.4098 176.896H40.4098C40.5036 176.438 40.6807 176 40.9307 175.583C41.1807 175.167 41.4984 174.802 41.889 174.479C42.29 174.146 42.764 173.885 43.3057 173.688C43.8473 173.479 44.4827 173.375 45.2223 173.375C46.7223 173.375 47.8942 173.74 48.7432 174.458C49.5869 175.182 50.014 176.245 50.014 177.646V184.896H47.4515L47.139 183.625H47.0348C46.9098 183.781 46.764 183.948 46.5973 184.125C46.4307 184.292 46.2119 184.453 45.9515 184.604C45.7015 184.76 45.4098 184.875 45.0765 184.958C44.7432 185.052 44.3577 185.104 43.9307 185.104ZM44.6807 182.646C45.3734 182.646 45.9359 182.453 46.3682 182.063C46.8109 181.677 47.0348 181.161 47.0348 180.521V180.208H44.4723C43.9307 180.208 43.54 180.323 43.3057 180.542C43.0817 180.766 42.9723 181.042 42.9723 181.375C42.9723 181.75 43.1025 182.057 43.3682 182.292C43.6442 182.531 44.0817 182.646 44.6807 182.646Z" fill="#E9E2D1"/>
<path d="M52.4541 173.583H55.0166L55.3499 174.875H55.4541C55.8135 174.391 56.251 174.021 56.7666 173.771C57.277 173.51 57.8343 173.375 58.4333 173.375C59.0426 173.375 59.6051 173.479 60.1208 173.688C60.6312 173.896 61.0687 174.203 61.4333 174.604C61.7926 174.995 62.0791 175.474 62.2874 176.042C62.4958 176.599 62.5999 177.24 62.5999 177.958V184.896H59.5999V178.396C59.5999 177.635 59.4176 177.052 59.0583 176.646C58.7093 176.245 58.2145 176.042 57.5791 176.042C56.9385 176.042 56.4229 176.266 56.0374 176.708C55.6468 177.141 55.4541 177.703 55.4541 178.396V184.896H52.4541V173.583Z" fill="#E9E2D1"/>
<path d="M70.0583 185.104C69.2093 185.104 68.4385 184.969 67.7458 184.708C67.0635 184.448 66.4801 184.073 65.9958 183.583C65.5218 183.083 65.152 182.474 64.8916 181.75C64.6416 181.016 64.5166 180.182 64.5166 179.25C64.5166 178.307 64.6416 177.474 64.8916 176.75C65.152 176.031 65.5218 175.417 65.9958 174.917C66.4801 174.417 67.0635 174.036 67.7458 173.771C68.4385 173.51 69.2093 173.375 70.0583 173.375C70.8499 173.375 71.5426 173.49 72.1416 173.708C72.7354 173.932 73.2458 174.229 73.6624 174.604C74.0895 174.979 74.4385 175.417 74.7041 175.917C74.9645 176.406 75.1624 176.911 75.2874 177.438H72.3083C72.0843 177.01 71.7979 176.667 71.4541 176.417C71.1208 176.167 70.652 176.042 70.0583 176.042C69.3083 176.042 68.6885 176.313 68.2041 176.854C67.7301 177.385 67.4958 178.182 67.4958 179.25C67.4958 180.307 67.7301 181.104 68.2041 181.646C68.6885 182.177 69.3083 182.438 70.0583 182.438C70.652 182.438 71.1208 182.313 71.4541 182.063C71.7979 181.813 72.0843 181.479 72.3083 181.063H75.2874C75.1624 181.604 74.9645 182.12 74.7041 182.604C74.4385 183.078 74.0895 183.5 73.6624 183.875C73.2458 184.25 72.7354 184.552 72.1416 184.771C71.5426 184.99 70.8499 185.104 70.0583 185.104Z" fill="#E9E2D1"/>
<path d="M82.2155 185.104C81.3665 185.104 80.5957 184.969 79.903 184.708C79.2207 184.448 78.6374 184.073 78.153 183.583C77.679 183.083 77.3092 182.474 77.0488 181.75C76.7988 181.016 76.6738 180.182 76.6738 179.25C76.6738 178.307 76.7988 177.474 77.0488 176.75C77.3092 176.031 77.679 175.417 78.153 174.917C78.6374 174.417 79.2207 174.036 79.903 173.771C80.5957 173.51 81.3665 173.375 82.2155 173.375C83.0332 173.375 83.778 173.516 84.4447 173.792C85.1217 174.073 85.6999 174.469 86.1738 174.979C86.6426 175.479 87.0072 176.078 87.2572 176.771C87.5176 177.453 87.653 178.203 87.653 179.021C87.653 179.188 87.6426 179.344 87.6322 179.479C87.6165 179.62 87.6009 179.745 87.5905 179.854C87.5749 179.995 87.5592 180.115 87.5488 180.208H79.7572C79.8822 180.849 80.1322 181.385 80.5072 181.813C80.8926 182.229 81.4655 182.438 82.2155 182.438C82.7988 182.438 83.2259 182.349 83.5072 182.167C83.7832 181.974 84.028 181.708 84.2363 181.375H87.4447C87.3197 181.865 87.1217 182.328 86.8613 182.771C86.5957 183.219 86.2467 183.62 85.8197 183.979C85.403 184.328 84.8926 184.604 84.2988 184.813C83.6999 185.005 83.0072 185.104 82.2155 185.104ZM84.5697 177.958C84.5124 177.724 84.4238 177.495 84.2988 177.271C84.1738 177.036 84.0124 176.828 83.8197 176.646C83.6374 176.453 83.4082 176.307 83.1322 176.208C82.8665 176.099 82.5592 176.042 82.2155 176.042C81.5176 176.042 80.9759 176.229 80.5905 176.604C80.1999 176.969 79.9238 177.417 79.7572 177.958H84.5697Z" fill="#E9E2D1"/>
<path d="M94.0462 185.104C93.3223 185.104 92.6608 184.979 92.0671 184.729C91.4681 184.479 90.9525 184.115 90.5254 183.625C90.0931 183.125 89.7546 182.516 89.5046 181.792C89.265 181.057 89.1504 180.208 89.1504 179.25C89.1504 178.292 89.265 177.453 89.5046 176.729C89.7546 175.995 90.0931 175.375 90.5254 174.875C90.9525 174.375 91.4681 174 92.0671 173.75C92.6608 173.5 93.3223 173.375 94.0462 173.375C94.4733 173.375 94.8587 173.427 95.1921 173.521C95.5254 173.604 95.8171 173.724 96.0671 173.875C96.3275 174.016 96.5462 174.167 96.7129 174.333C96.89 174.49 97.0358 174.635 97.1504 174.771H97.2546V169.958H100.234V184.896H97.6712L97.3587 183.625H97.2546C97.0983 183.807 96.9212 183.99 96.7129 184.167C96.5046 184.333 96.265 184.495 96.0046 184.646C95.7546 184.786 95.4629 184.896 95.1296 184.979C94.8066 185.063 94.4473 185.104 94.0462 185.104ZM94.6921 182.438C95.0358 182.438 95.3639 182.385 95.6712 182.271C95.9889 182.146 96.265 181.953 96.5046 181.688C96.7389 181.427 96.9212 181.094 97.0462 180.688C97.1816 180.286 97.2546 179.807 97.2546 179.25C97.2546 178.698 97.1816 178.219 97.0462 177.813C96.9212 177.396 96.7389 177.057 96.5046 176.792C96.265 176.531 95.9889 176.344 95.6712 176.229C95.3639 176.104 95.0358 176.042 94.6921 176.042C94.3587 176.042 94.0306 176.104 93.7129 176.229C93.39 176.344 93.1139 176.531 92.8796 176.792C92.6556 177.057 92.4733 177.396 92.3379 177.813C92.1973 178.219 92.1296 178.698 92.1296 179.25C92.1296 179.807 92.1973 180.286 92.3379 180.688C92.4733 181.094 92.6556 181.427 92.8796 181.688C93.1139 181.953 93.39 182.146 93.7129 182.271C94.0306 182.385 94.3587 182.438 94.6921 182.438Z" fill="#E9E2D1"/>
<path d="M111.757 169.958H115.695L121.028 184.896H117.736L116.778 182.125H110.695L109.736 184.896H106.424L111.757 169.958ZM115.715 179.25L113.778 173.583H113.674L111.736 179.25H115.715Z" fill="#E9E2D1"/>
<path d="M122.425 169.958H125.612V184.896H122.425V169.958Z" fill="#E9E2D1"/>
<path d="M137.66 185.104C136.937 185.104 136.275 184.979 135.681 184.729C135.082 184.479 134.567 184.115 134.14 183.625C133.707 183.125 133.369 182.516 133.119 181.792C132.879 181.057 132.765 180.208 132.765 179.25C132.765 178.292 132.879 177.453 133.119 176.729C133.369 175.995 133.707 175.375 134.14 174.875C134.567 174.375 135.082 174 135.681 173.75C136.275 173.5 136.937 173.375 137.66 173.375C138.088 173.375 138.473 173.427 138.806 173.521C139.14 173.604 139.431 173.724 139.681 173.875C139.942 174.016 140.16 174.167 140.327 174.333C140.504 174.49 140.65 174.635 140.765 174.771H140.869V169.958H143.848V184.896H141.285L140.973 183.625H140.869C140.713 183.807 140.535 183.99 140.327 184.167C140.119 184.333 139.879 184.495 139.619 184.646C139.369 184.786 139.077 184.896 138.744 184.979C138.421 185.063 138.062 185.104 137.66 185.104ZM138.306 182.438C138.65 182.438 138.978 182.385 139.285 182.271C139.603 182.146 139.879 181.953 140.119 181.688C140.353 181.427 140.535 181.094 140.66 180.688C140.796 180.286 140.869 179.807 140.869 179.25C140.869 178.698 140.796 178.219 140.66 177.813C140.535 177.396 140.353 177.057 140.119 176.792C139.879 176.531 139.603 176.344 139.285 176.229C138.978 176.104 138.65 176.042 138.306 176.042C137.973 176.042 137.645 176.104 137.327 176.229C137.004 176.344 136.728 176.531 136.494 176.792C136.27 177.057 136.088 177.396 135.952 177.813C135.812 178.219 135.744 178.698 135.744 179.25C135.744 179.807 135.812 180.286 135.952 180.688C136.088 181.094 136.27 181.427 136.494 181.688C136.728 181.953 137.004 182.146 137.327 182.271C137.645 182.385 137.973 182.438 138.306 182.438Z" fill="#E9E2D1"/>
<path d="M151.529 185.104C150.68 185.104 149.909 184.969 149.216 184.708C148.534 184.448 147.951 184.073 147.466 183.583C146.993 183.083 146.623 182.474 146.362 181.75C146.112 181.016 145.987 180.182 145.987 179.25C145.987 178.307 146.112 177.474 146.362 176.75C146.623 176.031 146.993 175.417 147.466 174.917C147.951 174.417 148.534 174.036 149.216 173.771C149.909 173.51 150.68 173.375 151.529 173.375C152.347 173.375 153.091 173.516 153.758 173.792C154.435 174.073 155.013 174.469 155.487 174.979C155.956 175.479 156.321 176.078 156.571 176.771C156.831 177.453 156.966 178.203 156.966 179.021C156.966 179.188 156.956 179.344 156.946 179.479C156.93 179.62 156.914 179.745 156.904 179.854C156.888 179.995 156.873 180.115 156.862 180.208H149.071C149.196 180.849 149.446 181.385 149.821 181.813C150.206 182.229 150.779 182.438 151.529 182.438C152.112 182.438 152.539 182.349 152.821 182.167C153.097 181.974 153.341 181.708 153.55 181.375H156.758C156.633 181.865 156.435 182.328 156.175 182.771C155.909 183.219 155.56 183.62 155.133 183.979C154.716 184.328 154.206 184.604 153.612 184.813C153.013 185.005 152.321 185.104 151.529 185.104ZM153.883 177.958C153.826 177.724 153.737 177.495 153.612 177.271C153.487 177.036 153.326 176.828 153.133 176.646C152.951 176.453 152.722 176.307 152.446 176.208C152.18 176.099 151.873 176.042 151.529 176.042C150.831 176.042 150.289 176.229 149.904 176.604C149.513 176.969 149.237 177.417 149.071 177.958H153.883Z" fill="#E9E2D1"/>
<path d="M163.464 184.896C162.282 184.896 161.402 184.615 160.818 184.042C160.245 183.474 159.964 182.656 159.964 181.583V176.354H158.131V173.583H159.964L160.381 170.604H162.943V173.583H165.61V176.354H162.943V181.062C162.943 181.385 163.037 181.641 163.235 181.833C163.428 182.031 163.683 182.125 164.006 182.125H165.61V184.896H163.464Z" fill="#E9E2D1"/>
<path d="M172.75 185.104C171.901 185.104 171.13 184.969 170.437 184.708C169.755 184.448 169.172 184.073 168.687 183.583C168.213 183.083 167.843 182.474 167.583 181.75C167.333 181.016 167.208 180.182 167.208 179.25C167.208 178.307 167.333 177.474 167.583 176.75C167.843 176.031 168.213 175.417 168.687 174.917C169.172 174.417 169.755 174.036 170.437 173.771C171.13 173.51 171.901 173.375 172.75 173.375C173.567 173.375 174.312 173.516 174.979 173.792C175.656 174.073 176.234 174.469 176.708 174.979C177.177 175.479 177.541 176.078 177.791 176.771C178.052 177.453 178.187 178.203 178.187 179.021C178.187 179.188 178.177 179.344 178.166 179.479C178.151 179.62 178.135 179.745 178.125 179.854C178.109 179.995 178.093 180.115 178.083 180.208H170.291C170.416 180.849 170.666 181.385 171.041 181.813C171.427 182.229 172 182.438 172.75 182.438C173.333 182.438 173.76 182.349 174.041 182.167C174.317 181.974 174.562 181.708 174.771 181.375H177.979C177.854 181.865 177.656 182.328 177.396 182.771C177.13 183.219 176.781 183.62 176.354 183.979C175.937 184.328 175.427 184.604 174.833 184.813C174.234 185.005 173.541 185.104 172.75 185.104ZM175.104 177.958C175.047 177.724 174.958 177.495 174.833 177.271C174.708 177.036 174.547 176.828 174.354 176.646C174.172 176.453 173.942 176.307 173.666 176.208C173.401 176.099 173.093 176.042 172.75 176.042C172.052 176.042 171.51 176.229 171.125 176.604C170.734 176.969 170.458 177.417 170.291 177.958H175.104Z" fill="#E9E2D1"/>
<path d="M185.226 185.104C184.377 185.104 183.606 184.969 182.914 184.708C182.231 184.448 181.648 184.073 181.164 183.583C180.69 183.083 180.32 182.474 180.06 181.75C179.81 181.016 179.685 180.182 179.685 179.25C179.685 178.307 179.81 177.474 180.06 176.75C180.32 176.031 180.69 175.417 181.164 174.917C181.648 174.417 182.231 174.036 182.914 173.771C183.606 173.51 184.377 173.375 185.226 173.375C186.018 173.375 186.711 173.49 187.31 173.708C187.903 173.932 188.414 174.229 188.83 174.604C189.257 174.979 189.606 175.417 189.872 175.917C190.132 176.406 190.33 176.911 190.455 177.438H187.476C187.252 177.01 186.966 176.667 186.622 176.417C186.289 176.167 185.82 176.042 185.226 176.042C184.476 176.042 183.856 176.313 183.372 176.854C182.898 177.385 182.664 178.182 182.664 179.25C182.664 180.307 182.898 181.104 183.372 181.646C183.856 182.177 184.476 182.438 185.226 182.438C185.82 182.438 186.289 182.313 186.622 182.063C186.966 181.813 187.252 181.479 187.476 181.063H190.455C190.33 181.604 190.132 182.12 189.872 182.604C189.606 183.078 189.257 183.5 188.83 183.875C188.414 184.25 187.903 184.552 187.31 184.771C186.711 184.99 186.018 185.104 185.226 185.104Z" fill="#E9E2D1"/>
<path d="M196.842 184.896C195.66 184.896 194.78 184.615 194.196 184.042C193.623 183.474 193.342 182.656 193.342 181.583V176.354H191.509V173.583H193.342L193.759 170.604H196.321V173.583H198.988V176.354H196.321V181.062C196.321 181.385 196.415 181.641 196.613 181.833C196.806 182.031 197.061 182.125 197.384 182.125H198.988V184.896H196.842Z" fill="#E9E2D1"/>
<path d="M201.107 173.583H204.107V184.896H201.107V173.583ZM202.607 172.417C202.117 172.417 201.711 172.26 201.378 171.938C201.055 171.604 200.898 171.198 200.898 170.708C200.898 170.224 201.055 169.823 201.378 169.5C201.711 169.167 202.117 169 202.607 169C203.091 169 203.492 169.167 203.815 169.5C204.148 169.823 204.315 170.224 204.315 170.708C204.315 171.198 204.148 171.604 203.815 171.938C203.492 172.26 203.091 172.417 202.607 172.417Z" fill="#E9E2D1"/>
<path d="M211.671 185.104C210.822 185.104 210.051 184.969 209.358 184.708C208.676 184.448 208.092 184.073 207.608 183.583C207.134 183.083 206.764 182.474 206.504 181.75C206.254 181.016 206.129 180.182 206.129 179.25C206.129 178.307 206.254 177.474 206.504 176.75C206.764 176.031 207.134 175.417 207.608 174.917C208.092 174.417 208.676 174.036 209.358 173.771C210.051 173.51 210.822 173.375 211.671 173.375C212.53 173.375 213.301 173.51 213.983 173.771C214.66 174.036 215.238 174.417 215.712 174.917C216.197 175.417 216.566 176.031 216.816 176.75C217.077 177.474 217.212 178.307 217.212 179.25C217.212 180.182 217.077 181.016 216.816 181.75C216.566 182.474 216.197 183.083 215.712 183.583C215.238 184.073 214.66 184.448 213.983 184.708C213.301 184.969 212.53 185.104 211.671 185.104ZM211.671 182.438C212.014 182.438 212.342 182.385 212.65 182.271C212.967 182.146 213.243 181.953 213.483 181.688C213.717 181.427 213.9 181.094 214.025 180.688C214.16 180.286 214.233 179.807 214.233 179.25C214.233 178.698 214.16 178.219 214.025 177.813C213.9 177.396 213.717 177.057 213.483 176.792C213.243 176.531 212.967 176.344 212.65 176.229C212.342 176.104 212.014 176.042 211.671 176.042C211.337 176.042 211.009 176.104 210.691 176.229C210.368 176.344 210.092 176.531 209.858 176.792C209.634 177.057 209.452 177.396 209.316 177.813C209.176 178.219 209.108 178.698 209.108 179.25C209.108 179.807 209.176 180.286 209.316 180.688C209.452 181.094 209.634 181.427 209.858 181.688C210.092 181.953 210.368 182.146 210.691 182.271C211.009 182.385 211.337 182.438 211.671 182.438Z" fill="#E9E2D1"/>
<path d="M219.234 173.583H221.797L222.13 174.875H222.234C222.594 174.391 223.031 174.021 223.547 173.771C224.057 173.51 224.615 173.375 225.214 173.375C225.823 173.375 226.385 173.479 226.901 173.688C227.411 173.896 227.849 174.203 228.214 174.604C228.573 174.995 228.859 175.474 229.068 176.042C229.276 176.599 229.38 177.24 229.38 177.958V184.896H226.38V178.396C226.38 177.635 226.198 177.052 225.839 176.646C225.49 176.245 224.995 176.042 224.359 176.042C223.719 176.042 223.203 176.266 222.818 176.708C222.427 177.141 222.234 177.703 222.234 178.396V184.896H219.234V173.583Z" fill="#E9E2D1"/>
<path d="M240.888 185.104C240.065 185.104 239.357 185.005 238.763 184.813C238.164 184.62 237.664 184.349 237.263 184C236.857 183.656 236.544 183.26 236.326 182.813C236.117 182.37 235.961 181.891 235.867 181.375H239.076C239.128 181.641 239.31 181.885 239.617 182.104C239.919 182.328 240.346 182.438 240.888 182.438C241.622 182.438 242.122 182.354 242.388 182.188C242.664 182.01 242.805 181.807 242.805 181.583C242.805 181.307 242.643 181.104 242.326 180.979C242.003 180.844 241.602 180.724 241.117 180.625C240.643 180.531 240.122 180.427 239.555 180.313C238.997 180.203 238.477 180.016 237.992 179.75C237.503 179.49 237.102 179.125 236.784 178.667C236.461 178.198 236.305 177.573 236.305 176.792C236.305 176.307 236.398 175.865 236.596 175.458C236.805 175.042 237.096 174.682 237.471 174.375C237.857 174.073 238.336 173.828 238.909 173.646C239.477 173.469 240.138 173.375 240.888 173.375C241.68 173.375 242.367 173.474 242.951 173.667C243.534 173.849 244.018 174.099 244.409 174.417C244.81 174.74 245.117 175.115 245.326 175.542C245.544 175.958 245.706 176.411 245.805 176.896H242.596C242.539 176.688 242.388 176.495 242.138 176.313C241.898 176.135 241.482 176.042 240.888 176.042C240.398 176.042 240.023 176.12 239.763 176.271C239.513 176.411 239.388 176.583 239.388 176.792C239.388 177.073 239.544 177.281 239.867 177.417C240.201 177.542 240.602 177.656 241.076 177.75C241.56 177.849 242.081 177.958 242.638 178.083C243.206 178.198 243.732 178.385 244.221 178.646C244.706 178.896 245.107 179.26 245.43 179.729C245.747 180.188 245.909 180.807 245.909 181.583C245.909 182.042 245.826 182.479 245.659 182.896C245.492 183.313 245.211 183.688 244.826 184.021C244.451 184.354 243.935 184.62 243.284 184.813C242.643 185.005 241.846 185.104 240.888 185.104Z" fill="#E9E2D1"/>
<path d="M252.729 185.104C251.88 185.104 251.109 184.969 250.417 184.708C249.734 184.448 249.151 184.073 248.667 183.583C248.193 183.083 247.823 182.474 247.563 181.75C247.313 181.016 247.188 180.182 247.188 179.25C247.188 178.307 247.313 177.474 247.563 176.75C247.823 176.031 248.193 175.417 248.667 174.917C249.151 174.417 249.734 174.036 250.417 173.771C251.109 173.51 251.88 173.375 252.729 173.375C253.589 173.375 254.359 173.51 255.042 173.771C255.719 174.036 256.297 174.417 256.771 174.917C257.255 175.417 257.625 176.031 257.875 176.75C258.135 177.474 258.271 178.307 258.271 179.25C258.271 180.182 258.135 181.016 257.875 181.75C257.625 182.474 257.255 183.083 256.771 183.583C256.297 184.073 255.719 184.448 255.042 184.708C254.359 184.969 253.589 185.104 252.729 185.104ZM252.729 182.438C253.073 182.438 253.401 182.385 253.708 182.271C254.026 182.146 254.302 181.953 254.542 181.688C254.776 181.427 254.958 181.094 255.083 180.688C255.219 180.286 255.292 179.807 255.292 179.25C255.292 178.698 255.219 178.219 255.083 177.813C254.958 177.396 254.776 177.057 254.542 176.792C254.302 176.531 254.026 176.344 253.708 176.229C253.401 176.104 253.073 176.042 252.729 176.042C252.396 176.042 252.068 176.104 251.75 176.229C251.427 176.344 251.151 176.531 250.917 176.792C250.693 177.057 250.51 177.396 250.375 177.813C250.234 178.219 250.167 178.698 250.167 179.25C250.167 179.807 250.234 180.286 250.375 180.688C250.51 181.094 250.693 181.427 250.917 181.688C251.151 181.953 251.427 182.146 251.75 182.271C252.068 182.385 252.396 182.438 252.729 182.438Z" fill="#E9E2D1"/>
<path d="M261.271 176.354H259.438V173.583H261.271V172.625C261.271 171.557 261.552 170.74 262.125 170.167C262.708 169.599 263.589 169.312 264.771 169.312H266.917V171.979H265.313C264.99 171.979 264.734 172.078 264.542 172.271C264.344 172.469 264.25 172.729 264.25 173.063V173.583H266.917V176.354H264.25V184.896H261.271V176.354Z" fill="#E9E2D1"/>
<path d="M273.087 184.896C271.905 184.896 271.025 184.615 270.441 184.042C269.868 183.474 269.587 182.656 269.587 181.583V176.354H267.754V173.583H269.587L270.004 170.604H272.566V173.583H275.233V176.354H272.566V181.062C272.566 181.385 272.66 181.641 272.858 181.833C273.051 182.031 273.306 182.125 273.629 182.125H275.233V184.896H273.087Z" fill="#E9E2D1"/>
<path d="M276.184 173.583H279.288L281.204 181.167H281.309L283.225 173.583H286.329L288.246 181.167H288.35L290.267 173.583H293.142L290.059 184.896H286.746L284.829 177.75H284.725L282.809 184.896H279.288L276.184 173.583Z" fill="#E9E2D1"/>
<path d="M297.832 185.104C297.217 185.104 296.665 185.021 296.165 184.854C295.676 184.677 295.259 184.432 294.915 184.125C294.582 183.807 294.322 183.432 294.145 183C293.978 182.573 293.895 182.099 293.895 181.583C293.895 181.073 293.983 180.604 294.165 180.188C294.342 179.76 294.624 179.391 294.999 179.083C295.374 178.766 295.822 178.516 296.353 178.333C296.895 178.156 297.53 178.063 298.27 178.063H300.936V177.542C300.936 177 300.759 176.599 300.415 176.333C300.066 176.073 299.592 175.938 298.999 175.938C298.582 175.938 298.217 176.036 297.915 176.229C297.624 176.411 297.421 176.635 297.311 176.896H294.311C294.405 176.438 294.582 176 294.832 175.583C295.082 175.167 295.4 174.802 295.79 174.479C296.191 174.146 296.665 173.885 297.207 173.688C297.749 173.479 298.384 173.375 299.124 173.375C300.624 173.375 301.796 173.74 302.645 174.458C303.488 175.182 303.915 176.245 303.915 177.646V184.896H301.353L301.04 183.625H300.936C300.811 183.781 300.665 183.948 300.499 184.125C300.332 184.292 300.113 184.453 299.853 184.604C299.603 184.76 299.311 184.875 298.978 184.958C298.645 185.052 298.259 185.104 297.832 185.104ZM298.582 182.646C299.275 182.646 299.837 182.453 300.27 182.063C300.712 181.677 300.936 181.161 300.936 180.521V180.208H298.374C297.832 180.208 297.441 180.323 297.207 180.542C296.983 180.766 296.874 181.042 296.874 181.375C296.874 181.75 297.004 182.057 297.27 182.292C297.546 182.531 297.983 182.646 298.582 182.646Z" fill="#E9E2D1"/>
<path d="M306.355 173.583H308.918L309.251 174.875H309.355C309.673 174.391 310.064 174.057 310.522 173.875C310.98 173.682 311.48 173.583 312.022 173.583H313.397V176.479H312.23C311.324 176.479 310.616 176.729 310.105 177.229C309.605 177.719 309.355 178.391 309.355 179.25V184.896H306.355V173.583Z" fill="#E9E2D1"/>
<path d="M320.014 185.104C319.165 185.104 318.395 184.969 317.702 184.708C317.02 184.448 316.436 184.073 315.952 183.583C315.478 183.083 315.108 182.474 314.848 181.75C314.598 181.016 314.473 180.182 314.473 179.25C314.473 178.307 314.598 177.474 314.848 176.75C315.108 176.031 315.478 175.417 315.952 174.917C316.436 174.417 317.02 174.036 317.702 173.771C318.395 173.51 319.165 173.375 320.014 173.375C320.832 173.375 321.577 173.516 322.243 173.792C322.921 174.073 323.499 174.469 323.973 174.979C324.441 175.479 324.806 176.078 325.056 176.771C325.316 177.453 325.452 178.203 325.452 179.021C325.452 179.188 325.441 179.344 325.431 179.479C325.415 179.62 325.4 179.745 325.389 179.854C325.374 179.995 325.358 180.115 325.348 180.208H317.556C317.681 180.849 317.931 181.385 318.306 181.813C318.691 182.229 319.264 182.438 320.014 182.438C320.598 182.438 321.025 182.349 321.306 182.167C321.582 181.974 321.827 181.708 322.035 181.375H325.243C325.118 181.865 324.921 182.328 324.66 182.771C324.395 183.219 324.046 183.62 323.618 183.979C323.202 184.328 322.691 184.604 322.098 184.813C321.499 185.005 320.806 185.104 320.014 185.104ZM322.368 177.958C322.311 177.724 322.223 177.495 322.098 177.271C321.973 177.036 321.811 176.828 321.618 176.646C321.436 176.453 321.207 176.307 320.931 176.208C320.665 176.099 320.358 176.042 320.014 176.042C319.316 176.042 318.775 176.229 318.389 176.604C317.999 176.969 317.723 177.417 317.556 177.958H322.368Z" fill="#E9E2D1"/>
</svg>
