<svg width="232" height="172" viewBox="0 0 232 172" fill="none" xmlns="http://www.w3.org/2000/svg">
<mask id="mask0_656_239" style="mask-type:luminance" maskUnits="userSpaceOnUse" x="47" y="0" width="136" height="129">
<path d="M47.791 0.598999H182.588V128.406H47.791V0.598999Z" fill="white"/>
</mask>
<g mask="url(#mask0_656_239)">
<path d="M180.614 99.5677C180.223 98.901 179.51 98.4844 178.734 98.4844H154.958V73.6563L159.932 76.9063C160.937 77.5677 162.223 77.5365 163.197 76.8281C164.171 76.1198 164.598 74.9115 164.281 73.75L162.041 65.5208L168.697 60.1823C169.64 59.4271 170.005 58.1979 169.635 57.0521C169.26 55.9115 168.244 55.1302 167.036 55.0729L158.505 54.6563L155.473 46.6875C155.348 46.3594 155.171 46.0729 154.958 45.8229V39.7396L159.932 42.9896C160.937 43.651 162.223 43.6198 163.197 42.9115C164.171 42.2031 164.598 40.9948 164.281 39.8333L162.041 31.6042L168.702 26.2656C169.64 25.5104 170.005 24.2813 169.635 23.1354C169.26 21.9948 168.244 21.2135 167.036 21.1563L158.505 20.7396L155.473 12.7708C155.156 11.9375 154.494 11.3229 153.682 11.0625C151.322 4.89063 146.176 0.854167 140.406 0.838542L62.6191 0.598958C62.5827 0.593749 62.5462 0.59375 62.5098 0.59375C54.3952 0.59375 47.791 7.1875 47.791 15.2917C47.791 17.875 48.4733 20.4167 49.765 22.6458C50.1504 23.3177 50.8691 23.7292 51.6452 23.7292H75.4212V23.7344L54.3014 32.7656C53.5046 33.1094 52.9837 33.8906 52.9837 34.7604V53.7656C52.9837 64.6667 59.1712 74.6927 68.8535 79.7031V90.5729C64.4316 90.7917 61.1296 93.375 60.0514 97.25C60.0358 97.3229 60.015 97.3958 59.9993 97.4688C59.9785 97.5417 59.9577 97.6198 59.9421 97.6927C59.9108 97.8177 59.8848 97.9479 59.8639 98.0781C59.8587 98.099 59.8535 98.125 59.8483 98.151C59.791 98.4583 59.7493 98.776 59.7181 99.099V99.1042C59.7077 99.2552 59.6973 99.401 59.6921 99.5521C59.6921 99.5677 59.6868 99.5833 59.6868 99.599C59.6816 99.7656 59.6764 99.9323 59.6764 100.104C59.6764 100.167 59.6816 100.229 59.6868 100.292L60.3848 108.188C60.6973 111.651 62.7546 114.656 66.1816 116.651L70.7598 119.313C71.2754 119.609 71.5306 120.063 71.5306 120.651V126.214C71.5306 127.411 72.5046 128.38 73.7077 128.38H102.536C103.734 128.38 104.708 127.411 104.708 126.214V121.438L167.864 121.62C175.984 121.62 182.588 115.026 182.588 106.927C182.588 104.339 181.906 101.797 180.614 99.5677ZM157.327 58.9479L162.958 59.2188L158.567 62.7396C157.676 63.4583 157.291 64.6302 157.593 65.7344L159.067 71.1563L154.359 68.0781C153.968 67.8281 153.536 67.6823 153.093 67.6302C152.989 67.6198 152.885 67.6094 152.781 67.6094C152.676 67.6094 152.572 67.6198 152.468 67.6302C152.025 67.6823 151.593 67.8281 151.202 68.0781L146.494 71.1563L147.968 65.7344C148.27 64.6302 147.89 63.4583 146.994 62.7396L142.609 59.2188L148.234 58.9479C149.374 58.8906 150.374 58.1667 150.781 57.099L152.781 51.8438L154.781 57.099C155.187 58.1667 156.187 58.8906 157.327 58.9479ZM154.781 23.1823C155.187 24.25 156.187 24.974 157.327 25.0313L162.958 25.3021L158.567 28.8229C157.671 29.5417 157.291 30.7135 157.593 31.8177L159.067 37.2396L154.359 34.1615C153.968 33.9115 153.536 33.7656 153.093 33.7135C152.989 33.7031 152.885 33.6927 152.781 33.6927C152.676 33.6927 152.572 33.7031 152.473 33.7135C152.031 33.7656 151.593 33.9115 151.208 34.1615L146.494 37.2396L147.973 31.8177C148.27 30.7135 147.89 29.5417 146.999 28.8281L142.609 25.3021L148.234 25.0313C149.374 24.974 150.374 24.25 150.781 23.1823L152.781 17.9271L154.781 23.1823ZM140.39 5.17708C145.145 5.19271 148.505 9.18229 149.874 13.3385L147.057 20.7396L138.525 21.1563C137.322 21.2135 136.301 21.9948 135.926 23.1354C135.557 24.2813 135.921 25.5104 136.864 26.2656L143.52 31.6042L141.281 39.8333C140.963 40.9948 141.39 42.2031 142.364 42.9115C142.874 43.2813 143.463 43.4635 144.057 43.4635C144.604 43.4635 145.15 43.3073 145.63 42.9896L150.609 39.7396V45.8229C150.39 46.0729 150.213 46.3594 150.093 46.6875L147.057 54.6563L138.525 55.0729C137.322 55.1302 136.301 55.9115 135.926 57.0521C135.557 58.1979 135.921 59.4271 136.864 60.1823L143.52 65.5208L141.281 73.75C140.963 74.9115 141.39 76.1198 142.364 76.8281C142.874 77.1979 143.463 77.3802 144.057 77.3802C144.598 77.3802 145.15 77.224 145.63 76.9063L150.609 73.6563V98.4844H106.557V94.6875C106.557 93.8646 106.395 93.0781 106.104 92.3594H137.489C138.687 92.3594 139.661 91.3854 139.661 90.1875C139.661 88.9896 138.687 88.0156 137.489 88.0156H98.1139C96.9681 86.349 95.0514 85.2552 92.8796 85.2552C91.8796 85.2552 90.9108 85.4948 90.041 85.9323C88.8066 84.2188 86.791 83.0938 84.541 83.0938C83.7337 83.0938 82.9525 83.2396 82.2233 83.5104V81.4427C85.3379 80.401 88.2025 78.8594 90.7233 76.9271C90.8014 78.0521 91.7389 78.9427 92.89 78.9427H137.489C138.687 78.9427 139.661 77.974 139.661 76.776C139.661 75.5781 138.687 74.6042 137.489 74.6042H93.4004C96.0514 72.0104 98.2025 68.9323 99.7077 65.5313H129.562C130.765 65.5313 131.739 64.5625 131.739 63.3646C131.739 62.1667 130.765 61.1927 129.562 61.1927H101.234C101.869 58.8073 102.208 56.3177 102.208 53.7656V52.1198H137.489C138.687 52.1198 139.661 51.151 139.661 49.9531C139.661 48.7552 138.687 47.7813 137.489 47.7813H102.208V38.7083H137.489C138.687 38.7083 139.661 37.7396 139.661 36.5417C139.661 35.3438 138.687 34.3698 137.489 34.3698H102.166C102.041 33.6615 101.567 33.0573 100.89 32.7656L79.7702 23.7292V17.8229C79.7702 12.7187 77.5358 8.13021 73.9941 4.97396L140.39 5.17708ZM52.9837 19.3906C52.4264 18.099 52.1348 16.7031 52.1348 15.2917C52.1348 9.58333 56.791 4.9375 62.5098 4.9375H62.5983C69.6764 4.98437 75.4212 10.7448 75.4212 17.8229V19.3906H52.9837ZM57.3327 53.7656V36.1927L77.5983 27.526L97.8587 36.1927V53.7656C97.8587 56.8125 97.2962 59.7604 96.2546 62.5C96.2233 62.5781 96.1973 62.6563 96.1712 62.7344C93.7025 69.0573 88.6868 74.224 82.2233 76.8229V71.3073C82.2233 67.6302 79.2233 64.6354 75.5358 64.6354C71.8483 64.6354 68.8535 67.6302 68.8535 71.3073V74.6979C61.7598 70.1563 57.3327 62.2708 57.3327 53.7656ZM100.359 124.042H75.8796V120.651C75.8796 118.531 74.7858 116.63 72.9525 115.563L68.3743 112.901C66.8327 112.005 64.9473 110.396 64.7181 107.802L64.0254 100.01C64.0306 99.8177 64.041 99.6302 64.0566 99.4479C64.0566 99.4219 64.0618 99.3958 64.0671 99.3698C64.0827 99.2135 64.1035 99.0573 64.1348 98.9063C64.1348 98.8958 64.1348 98.8906 64.14 98.8802C64.5723 96.6302 66.2598 95.2083 68.8535 94.9427V102.333C68.8535 103.531 69.8275 104.5 71.0254 104.5C72.2285 104.5 73.2025 103.531 73.2025 102.333V71.3073C73.2025 70.0208 74.2493 68.974 75.5358 68.974C76.8275 68.974 77.8743 70.0208 77.8743 71.3073V88.8906C77.8743 90 78.7129 90.9271 79.8171 91.0469C80.9212 91.1615 81.9369 90.4323 82.1712 89.349C82.4108 88.2396 83.4108 87.4375 84.541 87.4375C85.8483 87.4375 86.9369 88.5 86.9577 89.8021C86.9785 90.8073 87.6816 91.6615 88.6608 91.8802C89.64 92.099 90.64 91.6198 91.0827 90.7188C91.4212 90.0365 92.1244 89.5938 92.8796 89.5938C93.9785 89.5938 94.8744 90.4896 94.8744 91.5833V92.2604C94.8744 93.1979 95.4733 94.026 96.3639 94.3177C97.2493 94.6146 98.2285 94.3125 98.791 93.5625C99.1556 93.0729 99.7129 92.7917 100.312 92.7917C101.359 92.7917 102.213 93.6406 102.213 94.6875V113.547C102.213 115.104 101.869 116.401 101.104 117.755C100.994 117.958 100.895 118.167 100.807 118.38C100.77 118.458 100.739 118.536 100.713 118.62C100.484 119.266 100.359 119.953 100.359 120.651V124.042ZM167.874 117.281L106.072 117.099C106.395 115.969 106.557 114.802 106.557 113.547V102.828H177.395C177.952 104.115 178.239 105.51 178.239 106.927C178.239 112.635 173.588 117.281 167.874 117.281ZM90.7181 23.1302C90.7181 21.9323 91.6921 20.9583 92.89 20.9583H128.676C129.88 20.9583 130.854 21.9323 130.854 23.1302C130.854 24.3281 129.88 25.3021 128.676 25.3021H92.89C91.6921 25.3021 90.7181 24.3281 90.7181 23.1302ZM74.0879 60.1667L68.4941 54.5833C67.6452 53.7396 67.6452 52.3646 68.4941 51.5156C69.3431 50.6667 70.7181 50.6667 71.5671 51.5156L75.6973 55.6354L87.7389 44.724C88.6296 43.9167 90.0046 43.9844 90.8119 44.875C91.6191 45.7604 91.5514 47.1354 90.6608 47.9375L77.0827 60.2396C76.666 60.6146 76.1452 60.8021 75.6243 60.8021C75.0671 60.8021 74.5098 60.5885 74.0879 60.1667Z" fill="#E9E2D1"/>
</g>
<path d="M0 151.958H6.39583C7.13021 151.958 7.80208 152.078 8.41667 152.313C9.04167 152.552 9.57292 152.885 10.0208 153.313C10.4635 153.729 10.8021 154.245 11.0417 154.854C11.2917 155.453 11.4167 156.125 11.4167 156.875C11.4167 157.807 11.25 158.578 10.9167 159.188C10.5833 159.786 10.2292 160.266 9.85417 160.625C9.39583 161.042 8.88021 161.354 8.3125 161.563L11.9375 166.896H8.3125L4.89583 161.771H3.1875V166.896H0V151.958ZM6.1875 158.896C6.78125 158.896 7.27083 158.724 7.64583 158.375C8.02083 158.016 8.20833 157.516 8.20833 156.875C8.20833 156.24 8.02083 155.74 7.64583 155.375C7.27083 155.016 6.78125 154.833 6.1875 154.833H3.1875V158.896H6.1875Z" fill="#E9E2D1"/>
<path d="M18.7604 167.104C17.9115 167.104 17.1406 166.969 16.4479 166.708C15.7656 166.448 15.1823 166.073 14.6979 165.583C14.224 165.083 13.8542 164.474 13.5938 163.75C13.3438 163.016 13.2188 162.182 13.2188 161.25C13.2188 160.307 13.3438 159.474 13.5938 158.75C13.8542 158.031 14.224 157.417 14.6979 156.917C15.1823 156.417 15.7656 156.036 16.4479 155.771C17.1406 155.51 17.9115 155.375 18.7604 155.375C19.5781 155.375 20.3229 155.516 20.9896 155.792C21.6667 156.073 22.2448 156.469 22.7188 156.979C23.1875 157.479 23.5521 158.078 23.8021 158.771C24.0625 159.453 24.1979 160.203 24.1979 161.021C24.1979 161.188 24.1875 161.344 24.1771 161.479C24.1615 161.62 24.1458 161.745 24.1354 161.854C24.1198 161.995 24.1042 162.115 24.0938 162.208H16.3021C16.4271 162.849 16.6771 163.385 17.0521 163.813C17.4375 164.229 18.0104 164.438 18.7604 164.438C19.3438 164.438 19.7708 164.349 20.0521 164.167C20.3281 163.974 20.5729 163.708 20.7813 163.375H23.9896C23.8646 163.865 23.6667 164.328 23.4063 164.771C23.1406 165.219 22.7917 165.62 22.3646 165.979C21.9479 166.328 21.4375 166.604 20.8438 166.813C20.2448 167.005 19.5521 167.104 18.7604 167.104ZM21.1146 159.958C21.0573 159.724 20.9688 159.495 20.8438 159.271C20.7188 159.036 20.5573 158.828 20.3646 158.646C20.1823 158.453 19.9531 158.307 19.6771 158.208C19.4115 158.099 19.1042 158.042 18.7604 158.042C18.0625 158.042 17.5208 158.229 17.1354 158.604C16.7448 158.969 16.4688 159.417 16.3021 159.958H21.1146Z" fill="#E9E2D1"/>
<path d="M31.237 171.167C30.388 171.167 29.6589 171.063 29.0495 170.854C28.4349 170.656 27.9141 170.385 27.487 170.042C27.0703 169.693 26.7266 169.281 26.4661 168.813C26.2161 168.354 26.0286 167.854 25.9036 167.313H29.0078C29.1172 167.688 29.3672 167.979 29.7578 168.188C30.1432 168.396 30.638 168.5 31.237 168.5C31.987 168.5 32.5599 168.318 32.9661 167.958C33.3828 167.609 33.5911 167.115 33.5911 166.479V164.875H33.487C33.362 165 33.2057 165.146 33.0286 165.313C32.862 165.469 32.6432 165.62 32.3828 165.771C32.1328 165.911 31.8464 166.031 31.5286 166.125C31.2057 166.208 30.862 166.25 30.487 166.25C29.763 166.25 29.1016 166.135 28.5078 165.896C27.9245 165.661 27.4245 165.313 27.0078 164.854C26.5911 164.396 26.263 163.833 26.0286 163.167C25.8047 162.49 25.6953 161.703 25.6953 160.813C25.6953 159.938 25.8047 159.161 26.0286 158.479C26.263 157.802 26.5911 157.229 27.0078 156.771C27.4245 156.313 27.9245 155.969 28.5078 155.729C29.1016 155.495 29.763 155.375 30.487 155.375C31.1797 155.375 31.7839 155.536 32.2995 155.854C32.8255 156.161 33.2578 156.5 33.5911 156.875H33.6953L34.0078 155.583H36.5703V166.479C36.5703 167.979 36.1328 169.13 35.2578 169.938C34.3932 170.755 33.0547 171.167 31.237 171.167ZM31.1328 163.583C31.8828 163.583 32.4766 163.344 32.9245 162.854C33.3672 162.354 33.5911 161.677 33.5911 160.813C33.5911 159.969 33.3672 159.292 32.9245 158.792C32.4766 158.292 31.8828 158.042 31.1328 158.042C30.3828 158.042 29.7839 158.292 29.3411 158.792C28.8932 159.292 28.6745 159.969 28.6745 160.813C28.6745 161.677 28.8932 162.354 29.3411 162.854C29.7839 163.344 30.3828 163.583 31.1328 163.583Z" fill="#E9E2D1"/>
<path d="M43.2878 167.104C42.6732 167.104 42.1107 167.005 41.6003 166.813C41.0846 166.604 40.6471 166.302 40.2878 165.896C39.9232 165.495 39.6419 165.016 39.4336 164.458C39.2253 163.891 39.1211 163.245 39.1211 162.521V155.583H42.1211V162.104C42.1211 162.854 42.293 163.432 42.6419 163.833C43.0013 164.24 43.5013 164.438 44.1419 164.438C44.7773 164.438 45.293 164.224 45.6836 163.792C46.069 163.365 46.2669 162.802 46.2669 162.104V155.583H49.2669V166.896H46.7044L46.3919 165.625H46.2669C45.9023 166.099 45.4648 166.469 44.9544 166.729C44.4388 166.979 43.8815 167.104 43.2878 167.104Z" fill="#E9E2D1"/>
<path d="M51.9336 151.958H54.9128V166.896H51.9336V151.958Z" fill="#E9E2D1"/>
<path d="M60.8809 167.104C60.2663 167.104 59.7142 167.021 59.2142 166.854C58.7246 166.677 58.3079 166.432 57.9642 166.125C57.6309 165.807 57.3704 165.432 57.1934 165C57.0267 164.573 56.9434 164.099 56.9434 163.583C56.9434 163.073 57.0319 162.604 57.2142 162.188C57.3913 161.76 57.6725 161.391 58.0475 161.083C58.4225 160.766 58.8704 160.516 59.4017 160.333C59.9434 160.156 60.5788 160.063 61.3184 160.063H63.985V159.542C63.985 159 63.8079 158.599 63.4642 158.333C63.1152 158.073 62.6413 157.938 62.0475 157.938C61.6309 157.938 61.2663 158.036 60.9642 158.229C60.6725 158.411 60.4694 158.635 60.36 158.896H57.36C57.4538 158.438 57.6309 158 57.8809 157.583C58.1309 157.167 58.4486 156.802 58.8392 156.479C59.2402 156.146 59.7142 155.885 60.2559 155.688C60.7975 155.479 61.4329 155.375 62.1725 155.375C63.6725 155.375 64.8444 155.74 65.6934 156.458C66.5371 157.182 66.9642 158.245 66.9642 159.646V166.896H64.4017L64.0892 165.625H63.985C63.86 165.781 63.7142 165.948 63.5475 166.125C63.3809 166.292 63.1621 166.453 62.9017 166.604C62.6517 166.76 62.36 166.875 62.0267 166.958C61.6934 167.052 61.3079 167.104 60.8809 167.104ZM61.6309 164.646C62.3236 164.646 62.8861 164.453 63.3184 164.063C63.7611 163.677 63.985 163.161 63.985 162.521V162.208H61.4225C60.8809 162.208 60.4902 162.323 60.2559 162.542C60.0319 162.766 59.9225 163.042 59.9225 163.375C59.9225 163.75 60.0527 164.057 60.3184 164.292C60.5944 164.531 61.0319 164.646 61.6309 164.646Z" fill="#E9E2D1"/>
<path d="M73.8841 166.896C72.7018 166.896 71.8216 166.615 71.2383 166.042C70.6654 165.474 70.3841 164.656 70.3841 163.583V158.354H68.5508V155.583H70.3841L70.8008 152.604H73.3633V155.583H76.0299V158.354H73.3633V163.062C73.3633 163.385 73.457 163.641 73.6549 163.833C73.8477 164.031 74.1029 164.125 74.4258 164.125H76.0299V166.896H73.8841Z" fill="#E9E2D1"/>
<path d="M83.1706 167.104C82.3216 167.104 81.5508 166.969 80.8581 166.708C80.1758 166.448 79.5924 166.073 79.1081 165.583C78.6341 165.083 78.2643 164.474 78.0039 163.75C77.7539 163.016 77.6289 162.182 77.6289 161.25C77.6289 160.307 77.7539 159.474 78.0039 158.75C78.2643 158.031 78.6341 157.417 79.1081 156.917C79.5924 156.417 80.1758 156.036 80.8581 155.771C81.5508 155.51 82.3216 155.375 83.1706 155.375C84.0299 155.375 84.8008 155.51 85.4831 155.771C86.1602 156.036 86.7383 156.417 87.2122 156.917C87.6966 157.417 88.0664 158.031 88.3164 158.75C88.5768 159.474 88.7122 160.307 88.7122 161.25C88.7122 162.182 88.5768 163.016 88.3164 163.75C88.0664 164.474 87.6966 165.083 87.2122 165.583C86.7383 166.073 86.1602 166.448 85.4831 166.708C84.8008 166.969 84.0299 167.104 83.1706 167.104ZM83.1706 164.438C83.5143 164.438 83.8424 164.385 84.1497 164.271C84.4674 164.146 84.7435 163.953 84.9831 163.688C85.2174 163.427 85.3997 163.094 85.5247 162.688C85.6602 162.286 85.7331 161.807 85.7331 161.25C85.7331 160.698 85.6602 160.219 85.5247 159.813C85.3997 159.396 85.2174 159.057 84.9831 158.792C84.7435 158.531 84.4674 158.344 84.1497 158.229C83.8424 158.104 83.5143 158.042 83.1706 158.042C82.8372 158.042 82.5091 158.104 82.1914 158.229C81.8685 158.344 81.5924 158.531 81.3581 158.792C81.1341 159.057 80.9518 159.396 80.8164 159.813C80.6758 160.219 80.6081 160.698 80.6081 161.25C80.6081 161.807 80.6758 162.286 80.8164 162.688C80.9518 163.094 81.1341 163.427 81.3581 163.688C81.5924 163.953 81.8685 164.146 82.1914 164.271C82.5091 164.385 82.8372 164.438 83.1706 164.438Z" fill="#E9E2D1"/>
<path d="M90.7324 155.583H93.2949L93.6283 156.875H93.7324C94.0501 156.391 94.4408 156.057 94.8991 155.875C95.3574 155.682 95.8574 155.583 96.3991 155.583H97.7741V158.479H96.6074C95.7012 158.479 94.9928 158.729 94.4824 159.229C93.9824 159.719 93.7324 160.391 93.7324 161.25V166.896H90.7324V155.583Z" fill="#E9E2D1"/>
<path d="M102.6 166.896L97.9961 155.583H101.309L104.079 162.958H104.163L106.85 155.583H110.163L103.975 171.167H100.871L102.6 166.896Z" fill="#E9E2D1"/>
<path d="M121.241 167.104C120.392 167.104 119.621 166.969 118.928 166.708C118.246 166.448 117.663 166.073 117.178 165.583C116.704 165.083 116.335 164.474 116.074 163.75C115.824 163.016 115.699 162.182 115.699 161.25C115.699 160.307 115.824 159.474 116.074 158.75C116.335 158.031 116.704 157.417 117.178 156.917C117.663 156.417 118.246 156.036 118.928 155.771C119.621 155.51 120.392 155.375 121.241 155.375C122.033 155.375 122.725 155.49 123.324 155.708C123.918 155.932 124.428 156.229 124.845 156.604C125.272 156.979 125.621 157.417 125.887 157.917C126.147 158.406 126.345 158.911 126.47 159.438H123.491C123.267 159.01 122.98 158.667 122.637 158.417C122.303 158.167 121.835 158.042 121.241 158.042C120.491 158.042 119.871 158.313 119.387 158.854C118.913 159.385 118.678 160.182 118.678 161.25C118.678 162.307 118.913 163.104 119.387 163.646C119.871 164.177 120.491 164.438 121.241 164.438C121.835 164.438 122.303 164.313 122.637 164.063C122.98 163.813 123.267 163.479 123.491 163.063H126.47C126.345 163.604 126.147 164.12 125.887 164.604C125.621 165.078 125.272 165.5 124.845 165.875C124.428 166.25 123.918 166.552 123.324 166.771C122.725 166.99 122.033 167.104 121.241 167.104Z" fill="#E9E2D1"/>
<path d="M133.397 167.104C132.548 167.104 131.777 166.969 131.085 166.708C130.402 166.448 129.819 166.073 129.335 165.583C128.861 165.083 128.491 164.474 128.23 163.75C127.98 163.016 127.855 162.182 127.855 161.25C127.855 160.307 127.98 159.474 128.23 158.75C128.491 158.031 128.861 157.417 129.335 156.917C129.819 156.417 130.402 156.036 131.085 155.771C131.777 155.51 132.548 155.375 133.397 155.375C134.257 155.375 135.027 155.51 135.71 155.771C136.387 156.036 136.965 156.417 137.439 156.917C137.923 157.417 138.293 158.031 138.543 158.75C138.803 159.474 138.939 160.307 138.939 161.25C138.939 162.182 138.803 163.016 138.543 163.75C138.293 164.474 137.923 165.083 137.439 165.583C136.965 166.073 136.387 166.448 135.71 166.708C135.027 166.969 134.257 167.104 133.397 167.104ZM133.397 164.438C133.741 164.438 134.069 164.385 134.376 164.271C134.694 164.146 134.97 163.953 135.21 163.688C135.444 163.427 135.626 163.094 135.751 162.688C135.887 162.286 135.96 161.807 135.96 161.25C135.96 160.698 135.887 160.219 135.751 159.813C135.626 159.396 135.444 159.057 135.21 158.792C134.97 158.531 134.694 158.344 134.376 158.229C134.069 158.104 133.741 158.042 133.397 158.042C133.064 158.042 132.736 158.104 132.418 158.229C132.095 158.344 131.819 158.531 131.585 158.792C131.361 159.057 131.178 159.396 131.043 159.813C130.902 160.219 130.835 160.698 130.835 161.25C130.835 161.807 130.902 162.286 131.043 162.688C131.178 163.094 131.361 163.427 131.585 163.688C131.819 163.953 132.095 164.146 132.418 164.271C132.736 164.385 133.064 164.438 133.397 164.438Z" fill="#E9E2D1"/>
<path d="M140.959 155.583H143.521L143.855 156.875H143.959C144.277 156.391 144.652 156.021 145.084 155.771C145.511 155.51 146.027 155.375 146.626 155.375C147.11 155.375 147.527 155.438 147.876 155.563C148.219 155.688 148.521 155.849 148.771 156.042C149.021 156.224 149.214 156.427 149.355 156.646C149.506 156.854 149.626 157.036 149.709 157.188H149.813C149.907 157.036 150.042 156.854 150.209 156.646C150.376 156.427 150.594 156.224 150.876 156.042C151.167 155.849 151.501 155.688 151.876 155.563C152.261 155.438 152.714 155.375 153.23 155.375C153.839 155.375 154.402 155.479 154.917 155.688C155.428 155.896 155.865 156.198 156.23 156.583C156.589 156.958 156.876 157.427 157.084 157.979C157.292 158.536 157.396 159.161 157.396 159.854V166.896H154.417V160.292C154.417 159.891 154.36 159.552 154.251 159.271C154.152 158.979 154.021 158.745 153.855 158.563C153.688 158.385 153.485 158.25 153.251 158.167C153.011 158.083 152.756 158.042 152.48 158.042C152.006 158.042 151.584 158.229 151.209 158.604C150.844 158.969 150.667 159.531 150.667 160.292V166.896H147.688V160.292C147.688 159.891 147.636 159.552 147.542 159.271C147.443 158.979 147.303 158.745 147.126 158.563C146.959 158.385 146.756 158.25 146.521 158.167C146.282 158.083 146.032 158.042 145.771 158.042C145.282 158.042 144.86 158.245 144.501 158.646C144.136 159.036 143.959 159.583 143.959 160.292V166.896H140.959V155.583Z" fill="#E9E2D1"/>
<path d="M159.832 155.583H162.395L162.728 156.875H162.832C163.134 156.5 163.546 156.161 164.061 155.854C164.572 155.536 165.228 155.375 166.02 155.375C166.754 155.375 167.421 155.5 168.02 155.75C168.613 156 169.129 156.375 169.561 156.875C169.988 157.375 170.322 157.995 170.561 158.729C170.811 159.453 170.936 160.292 170.936 161.25C170.936 162.208 170.811 163.057 170.561 163.792C170.322 164.516 169.988 165.125 169.561 165.625C169.129 166.115 168.613 166.479 168.02 166.729C167.421 166.979 166.754 167.104 166.02 167.104C165.603 167.104 165.228 167.052 164.895 166.958C164.561 166.875 164.259 166.766 163.999 166.625C163.749 166.474 163.53 166.323 163.353 166.167C163.171 166 163.03 165.854 162.936 165.729H162.832V171.167H159.832V155.583ZM165.395 164.438C165.728 164.438 166.046 164.385 166.353 164.271C166.671 164.146 166.947 163.953 167.186 163.688C167.421 163.427 167.608 163.094 167.749 162.688C167.884 162.286 167.957 161.807 167.957 161.25C167.957 160.698 167.884 160.219 167.749 159.813C167.608 159.396 167.421 159.057 167.186 158.792C166.947 158.531 166.671 158.344 166.353 158.229C166.046 158.104 165.728 158.042 165.395 158.042C165.046 158.042 164.712 158.104 164.395 158.229C164.087 158.344 163.816 158.531 163.582 158.792C163.342 159.057 163.155 159.396 163.02 159.813C162.895 160.219 162.832 160.698 162.832 161.25C162.832 161.807 162.895 162.286 163.02 162.688C163.155 163.094 163.342 163.427 163.582 163.688C163.816 163.953 164.087 164.146 164.395 164.271C164.712 164.385 165.046 164.438 165.395 164.438Z" fill="#E9E2D1"/>
<path d="M173.074 151.958H176.053V166.896H173.074V151.958Z" fill="#E9E2D1"/>
<path d="M178.708 155.583H181.708V166.896H178.708V155.583ZM180.208 154.417C179.719 154.417 179.313 154.26 178.979 153.938C178.656 153.604 178.5 153.198 178.5 152.708C178.5 152.224 178.656 151.823 178.979 151.5C179.313 151.167 179.719 151 180.208 151C180.693 151 181.094 151.167 181.417 151.5C181.75 151.823 181.917 152.224 181.917 152.708C181.917 153.198 181.75 153.604 181.417 153.938C181.094 154.26 180.693 154.417 180.208 154.417Z" fill="#E9E2D1"/>
<path d="M187.566 167.104C186.952 167.104 186.4 167.021 185.9 166.854C185.41 166.677 184.993 166.432 184.65 166.125C184.316 165.807 184.056 165.432 183.879 165C183.712 164.573 183.629 164.099 183.629 163.583C183.629 163.073 183.717 162.604 183.9 162.188C184.077 161.76 184.358 161.391 184.733 161.083C185.108 160.766 185.556 160.516 186.087 160.333C186.629 160.156 187.264 160.063 188.004 160.063H190.671V159.542C190.671 159 190.493 158.599 190.15 158.333C189.801 158.073 189.327 157.938 188.733 157.938C188.316 157.938 187.952 158.036 187.65 158.229C187.358 158.411 187.155 158.635 187.046 158.896H184.046C184.139 158.438 184.316 158 184.566 157.583C184.816 157.167 185.134 156.802 185.525 156.479C185.926 156.146 186.4 155.885 186.941 155.688C187.483 155.479 188.118 155.375 188.858 155.375C190.358 155.375 191.53 155.74 192.379 156.458C193.223 157.182 193.65 158.245 193.65 159.646V166.896H191.087L190.775 165.625H190.671C190.546 165.781 190.4 165.948 190.233 166.125C190.066 166.292 189.848 166.453 189.587 166.604C189.337 166.76 189.046 166.875 188.712 166.958C188.379 167.052 187.993 167.104 187.566 167.104ZM188.316 164.646C189.009 164.646 189.572 164.453 190.004 164.063C190.447 163.677 190.671 163.161 190.671 162.521V162.208H188.108C187.566 162.208 187.176 162.323 186.941 162.542C186.717 162.766 186.608 163.042 186.608 163.375C186.608 163.75 186.738 164.057 187.004 164.292C187.28 164.531 187.717 164.646 188.316 164.646Z" fill="#E9E2D1"/>
<path d="M196.09 155.583H198.652L198.986 156.875H199.09C199.449 156.391 199.887 156.021 200.402 155.771C200.913 155.51 201.47 155.375 202.069 155.375C202.678 155.375 203.241 155.479 203.757 155.688C204.267 155.896 204.704 156.203 205.069 156.604C205.428 156.995 205.715 157.474 205.923 158.042C206.132 158.599 206.236 159.24 206.236 159.958V166.896H203.236V160.396C203.236 159.635 203.053 159.052 202.694 158.646C202.345 158.245 201.85 158.042 201.215 158.042C200.574 158.042 200.059 158.266 199.673 158.708C199.283 159.141 199.09 159.703 199.09 160.396V166.896H196.09V155.583Z" fill="#E9E2D1"/>
<path d="M213.694 167.104C212.845 167.104 212.074 166.969 211.382 166.708C210.699 166.448 210.116 166.073 209.632 165.583C209.158 165.083 208.788 164.474 208.527 163.75C208.277 163.016 208.152 162.182 208.152 161.25C208.152 160.307 208.277 159.474 208.527 158.75C208.788 158.031 209.158 157.417 209.632 156.917C210.116 156.417 210.699 156.036 211.382 155.771C212.074 155.51 212.845 155.375 213.694 155.375C214.486 155.375 215.178 155.49 215.777 155.708C216.371 155.932 216.882 156.229 217.298 156.604C217.725 156.979 218.074 157.417 218.34 157.917C218.6 158.406 218.798 158.911 218.923 159.438H215.944C215.72 159.01 215.434 158.667 215.09 158.417C214.757 158.167 214.288 158.042 213.694 158.042C212.944 158.042 212.324 158.313 211.84 158.854C211.366 159.385 211.132 160.182 211.132 161.25C211.132 162.307 211.366 163.104 211.84 163.646C212.324 164.177 212.944 164.438 213.694 164.438C214.288 164.438 214.757 164.313 215.09 164.063C215.434 163.813 215.72 163.479 215.944 163.063H218.923C218.798 163.604 218.6 164.12 218.34 164.604C218.074 165.078 217.725 165.5 217.298 165.875C216.882 166.25 216.371 166.552 215.777 166.771C215.178 166.99 214.486 167.104 213.694 167.104Z" fill="#E9E2D1"/>
<path d="M225.85 167.104C225.001 167.104 224.23 166.969 223.538 166.708C222.855 166.448 222.272 166.073 221.788 165.583C221.314 165.083 220.944 164.474 220.684 163.75C220.434 163.016 220.309 162.182 220.309 161.25C220.309 160.307 220.434 159.474 220.684 158.75C220.944 158.031 221.314 157.417 221.788 156.917C222.272 156.417 222.855 156.036 223.538 155.771C224.23 155.51 225.001 155.375 225.85 155.375C226.668 155.375 227.413 155.516 228.079 155.792C228.757 156.073 229.335 156.469 229.809 156.979C230.277 157.479 230.642 158.078 230.892 158.771C231.152 159.453 231.288 160.203 231.288 161.021C231.288 161.188 231.277 161.344 231.267 161.479C231.251 161.62 231.236 161.745 231.225 161.854C231.21 161.995 231.194 162.115 231.184 162.208H223.392C223.517 162.849 223.767 163.385 224.142 163.813C224.527 164.229 225.1 164.438 225.85 164.438C226.434 164.438 226.861 164.349 227.142 164.167C227.418 163.974 227.663 163.708 227.871 163.375H231.079C230.954 163.865 230.757 164.328 230.496 164.771C230.23 165.219 229.882 165.62 229.454 165.979C229.038 166.328 228.527 166.604 227.934 166.813C227.335 167.005 226.642 167.104 225.85 167.104ZM228.204 159.958C228.147 159.724 228.059 159.495 227.934 159.271C227.809 159.036 227.647 158.828 227.454 158.646C227.272 158.453 227.043 158.307 226.767 158.208C226.501 158.099 226.194 158.042 225.85 158.042C225.152 158.042 224.611 158.229 224.225 158.604C223.835 158.969 223.559 159.417 223.392 159.958H228.204Z" fill="#E9E2D1"/>
</svg>
