<svg width="126" height="126" viewBox="0 0 126 126" fill="none" xmlns="http://www.w3.org/2000/svg">
<mask id="mask0_50_9930" style="mask-type:luminance" maskUnits="userSpaceOnUse" x="0" y="0" width="126" height="126">
<path d="M0.326172 0.598999H125.326V125.599H0.326172V0.598999Z" fill="white"/>
</mask>
<g mask="url(#mask0_50_9930)">
<path d="M123.496 97.3937C123.133 96.7417 122.472 96.3342 121.752 96.3342H99.7041V72.0514L104.317 75.23C105.249 75.877 106.442 75.8464 107.345 75.1536C108.248 74.4609 108.644 73.2791 108.349 72.1431L106.273 64.0947L112.445 58.8734C113.319 58.1348 113.657 56.9326 113.314 55.812C112.967 54.6964 112.025 53.9323 110.904 53.8763L102.993 53.4688L100.182 45.675C100.066 45.3541 99.9021 45.074 99.7041 44.8295V38.8797L104.317 42.0584C105.249 42.7053 106.442 42.6747 107.345 41.9819C108.248 41.2892 108.644 40.1074 108.349 38.9714L106.273 30.923L112.45 25.7017C113.319 24.9631 113.657 23.761 113.314 22.6403C112.967 21.5247 112.025 20.7606 110.904 20.7046L102.993 20.2971L100.182 12.5034C99.8876 11.6883 99.2742 11.0873 98.5208 10.8326C96.3329 4.79624 91.5611 0.848447 86.2096 0.833165L14.0766 0.598844C14.0428 0.593749 14.009 0.59375 13.9752 0.59375C6.45036 0.59375 0.326172 7.04267 0.326172 14.9688C0.326172 17.4954 0.958875 19.9813 2.15667 22.1615C2.51407 22.8186 3.18058 23.221 3.90022 23.221H25.9482V23.2261L6.36342 32.059C5.62446 32.3952 5.14148 33.1593 5.14148 34.0099V52.5977C5.14148 63.2593 10.8793 73.0651 19.8579 77.9655V88.5965C15.7574 88.8105 12.6953 91.3371 11.6955 95.1269C11.681 95.1983 11.6617 95.2696 11.6472 95.3409C11.6279 95.4122 11.6086 95.4886 11.5941 95.5599C11.5651 95.6822 11.541 95.8095 11.5216 95.9369C11.5168 95.9573 11.512 95.9827 11.5072 96.0082C11.454 96.3087 11.4154 96.6195 11.3864 96.9353V96.9404C11.3768 97.0881 11.3671 97.2307 11.3623 97.3785C11.3623 97.3937 11.3574 97.409 11.3574 97.4243C11.3526 97.5873 11.3478 97.7503 11.3478 97.9184C11.3478 97.9795 11.3526 98.0407 11.3574 98.1018L12.0046 105.824C12.2944 109.212 14.2022 112.151 17.3802 114.102L21.6256 116.705C22.1037 116.995 22.3404 117.438 22.3404 118.014V123.454C22.3404 124.626 23.2436 125.573 24.3592 125.573H51.0922C52.203 125.573 53.1062 124.626 53.1062 123.454V118.783L111.672 118.961C119.202 118.961 125.326 112.513 125.326 104.591C125.326 102.06 124.693 99.5739 123.496 97.3937ZM101.902 57.6662L107.123 57.9311L103.051 61.3745C102.225 62.0775 101.868 63.2236 102.148 64.3036L103.515 69.6063L99.1487 66.5958C98.7864 66.3513 98.3856 66.2087 97.975 66.1578C97.8784 66.1476 97.7818 66.1374 97.6852 66.1374C97.5886 66.1374 97.492 66.1476 97.3954 66.1578C96.9849 66.2087 96.584 66.3513 96.2218 66.5958L91.8557 69.6063L93.2225 64.3036C93.5026 63.2236 93.1501 62.0775 92.3193 61.3745L88.2526 57.9311L93.4688 57.6662C94.5266 57.6101 95.4539 56.9021 95.8306 55.8578L97.6852 50.718L99.5399 55.8578C99.9166 56.9021 100.844 57.6101 101.902 57.6662ZM99.5399 22.6861C99.9166 23.7304 100.844 24.4384 101.902 24.4945L107.123 24.7594L103.051 28.2029C102.22 28.9058 101.868 30.052 102.148 31.1319L103.515 36.4347L99.1487 33.4241C98.7864 33.1796 98.3856 33.037 97.975 32.9861C97.8784 32.9759 97.7818 32.9657 97.6852 32.9657C97.5886 32.9657 97.492 32.9759 97.4003 32.9861C96.9897 33.037 96.584 33.1796 96.2266 33.4241L91.8557 36.4347L93.2273 31.1319C93.5026 30.052 93.1501 28.9058 92.3242 28.208L88.2526 24.7594L93.4688 24.4945C94.5266 24.4384 95.4539 23.7304 95.8306 22.6861L97.6852 17.5464L99.5399 22.6861ZM86.1951 5.07641C90.6048 5.09169 93.72 8.99364 94.9902 13.0586L92.3773 20.2971L84.4661 20.7046C83.3504 20.7606 82.4038 21.5247 82.056 22.6403C81.7131 23.761 82.0512 24.9631 82.9254 25.7017L89.0979 30.923L87.021 38.9714C86.7264 40.1074 87.1225 41.2892 88.0256 41.9819C88.499 42.3436 89.0447 42.5219 89.5953 42.5219C90.1025 42.5219 90.6096 42.3691 91.0539 42.0584L95.6712 38.8797V44.8295C95.4684 45.074 95.3041 45.3541 95.1931 45.675L92.3773 53.4688L84.4661 53.8763C83.3504 53.9323 82.4038 54.6964 82.056 55.812C81.7131 56.9326 82.0512 58.1348 82.9254 58.8734L89.0979 64.0947L87.021 72.1431C86.7264 73.2791 87.1225 74.4609 88.0256 75.1536C88.499 75.5153 89.0447 75.6936 89.5953 75.6936C90.0976 75.6936 90.6096 75.5408 91.0539 75.23L95.6712 72.0514V96.3342H54.8208V92.6207C54.8208 91.8159 54.6711 91.0467 54.4006 90.3437H83.505C84.6158 90.3437 85.519 89.3912 85.519 88.2196C85.519 87.048 84.6158 86.0954 83.505 86.0954H46.9917C45.9291 84.4653 44.1518 83.3956 42.1377 83.3956C41.2104 83.3956 40.3121 83.6299 39.5055 84.0578C38.3608 82.3819 36.4917 81.2816 34.4052 81.2816C33.6566 81.2816 32.9321 81.4243 32.256 81.6891V79.6669C35.1442 78.6481 37.8006 77.1403 40.1382 75.2504C40.2106 76.3507 41.08 77.2218 42.1474 77.2218H83.505C84.6158 77.2218 85.519 76.2743 85.519 75.1027C85.519 73.9311 84.6158 72.9785 83.505 72.9785H42.6207C45.0791 70.4417 47.0738 67.4312 48.4696 64.1049H76.154C77.2697 64.1049 78.1729 63.1574 78.1729 61.9858C78.1729 60.8142 77.2697 59.8617 76.154 59.8617H49.8847C50.474 57.5286 50.7879 55.0937 50.7879 52.5977V50.988H83.505C84.6158 50.988 85.519 50.0405 85.519 48.8689C85.519 47.6973 84.6158 46.7448 83.505 46.7448H50.7879V37.8711H83.505C84.6158 37.8711 85.519 36.9237 85.519 35.7521C85.519 34.5805 84.6158 33.6279 83.505 33.6279H50.7493C50.6333 32.9351 50.1938 32.3442 49.566 32.059L29.9811 23.221V17.4445C29.9811 12.4524 27.9091 7.96467 24.6249 4.87775L86.1951 5.07641ZM5.14148 18.9778C4.62469 17.7145 4.35422 16.3493 4.35422 14.9688C4.35422 9.38588 8.67206 4.84209 13.9752 4.84209H14.0573C20.621 4.88793 25.9482 10.5218 25.9482 17.4445V18.9778H5.14148ZM9.17436 52.5977V35.4108L27.9671 26.9345L46.755 35.4108V52.5977C46.755 55.5777 46.2334 58.4608 45.2674 61.1402C45.2385 61.2166 45.2143 61.293 45.1902 61.3695C42.9008 67.5535 38.2497 72.6067 32.256 75.1485V69.7541C32.256 66.1578 29.474 63.2287 26.0545 63.2287C22.635 63.2287 19.8579 66.1578 19.8579 69.7541V73.0702C13.2797 68.6283 9.17436 60.9161 9.17436 52.5977ZM49.0733 121.33H26.3733V118.014C26.3733 115.941 25.359 114.081 23.6589 113.037L19.4135 110.434C17.9839 109.558 16.2355 107.984 16.023 105.447L15.3807 97.8267C15.3855 97.6383 15.3951 97.4549 15.4096 97.2766C15.4096 97.2511 15.4145 97.2256 15.4193 97.2002C15.4338 97.0474 15.4531 96.8945 15.4821 96.7468C15.4821 96.7366 15.4821 96.7315 15.4869 96.7213C15.8878 94.5208 17.4526 93.1301 19.8579 92.8703V100.099C19.8579 101.27 20.761 102.218 21.8719 102.218C22.9876 102.218 23.8908 101.27 23.8908 100.099V69.7541C23.8908 68.4959 24.8615 67.472 26.0545 67.472C27.2523 67.472 28.2231 68.4959 28.2231 69.7541V86.9512C28.2231 88.0362 29.0007 88.9429 30.0246 89.0601C31.0485 89.1721 31.9903 88.459 32.2077 87.3994C32.4298 86.3144 33.3572 85.53 34.4052 85.53C35.6175 85.53 36.6269 86.5691 36.6463 87.8426C36.6656 88.8257 37.3176 89.6612 38.2256 89.8751C39.1336 90.089 40.0609 89.6204 40.4715 88.7392C40.7854 88.0718 41.4374 87.6389 42.1377 87.6389C43.1568 87.6389 43.9875 88.515 43.9875 89.5847V90.247C43.9875 91.1639 44.543 91.9738 45.3689 92.2591C46.1899 92.5494 47.0979 92.254 47.6196 91.5204C47.9576 91.0416 48.4744 90.7665 49.0299 90.7665C50.0006 90.7665 50.7927 91.5968 50.7927 92.6207V111.066C50.7927 112.589 50.474 113.857 49.764 115.182C49.6626 115.38 49.5708 115.584 49.4887 115.793C49.4549 115.869 49.4259 115.946 49.4017 116.027C49.1892 116.659 49.0733 117.331 49.0733 118.014V121.33ZM111.682 114.718L54.3716 114.54C54.6711 113.435 54.8208 112.293 54.8208 111.066V100.583H120.511C121.028 101.841 121.293 103.206 121.293 104.591C121.293 110.174 116.98 114.718 111.682 114.718ZM40.1334 22.6352C40.1334 21.4636 41.0365 20.511 42.1474 20.511H75.3329C76.4486 20.511 77.3518 21.4636 77.3518 22.6352C77.3518 23.8068 76.4486 24.7594 75.3329 24.7594H42.1474C41.0365 24.7594 40.1334 23.8068 40.1334 22.6352ZM24.7118 58.8581L19.5246 53.3975C18.7374 52.5722 18.7374 51.2274 19.5246 50.3971C20.3119 49.5668 21.5869 49.5668 22.3742 50.3971L26.2042 54.4264L37.3707 43.7546C38.1966 42.9651 39.4717 43.0313 40.2203 43.9024C40.9689 44.7683 40.9061 46.1131 40.0802 46.8976L27.489 58.9295C27.1026 59.2962 26.6196 59.4796 26.1366 59.4796C25.6198 59.4796 25.103 59.2708 24.7118 58.8581Z" fill="#E9E2D1"/>
</g>
</svg>
