<svg width="200" height="172" viewBox="0 0 200 172" fill="none" xmlns="http://www.w3.org/2000/svg">
<mask id="mask0_656_239" style="mask-type:luminance" maskUnits="userSpaceOnUse" x="41" y="0" width="126" height="126">
<path d="M41.3262 0.598999H166.326V125.599H41.3262V0.598999Z" fill="white"/>
</mask>
<g mask="url(#mask0_656_239)">
<path d="M164.496 97.3937C164.133 96.7417 163.472 96.3342 162.752 96.3342H140.704V72.0514L145.317 75.23C146.249 75.877 147.442 75.8464 148.345 75.1536C149.248 74.4609 149.644 73.2791 149.349 72.1431L147.273 64.0947L153.445 58.8734C154.319 58.1348 154.657 56.9326 154.314 55.812C153.967 54.6964 153.025 53.9323 151.904 53.8763L143.993 53.4688L141.182 45.675C141.066 45.3541 140.902 45.074 140.704 44.8295V38.8797L145.317 42.0584C146.249 42.7053 147.442 42.6747 148.345 41.9819C149.248 41.2892 149.644 40.1074 149.349 38.9714L147.273 30.923L153.45 25.7017C154.319 24.9631 154.657 23.761 154.314 22.6403C153.967 21.5247 153.025 20.7606 151.904 20.7046L143.993 20.2971L141.182 12.5034C140.888 11.6883 140.274 11.0873 139.521 10.8326C137.333 4.79624 132.561 0.848447 127.21 0.833165L55.0766 0.598844C55.0428 0.593749 55.009 0.59375 54.9752 0.59375C47.4504 0.59375 41.3262 7.04267 41.3262 14.9688C41.3262 17.4954 41.9589 19.9813 43.1567 22.1615C43.5141 22.8186 44.1806 23.221 44.9002 23.221H66.9482V23.2261L47.3634 32.059C46.6245 32.3952 46.1415 33.1593 46.1415 34.0099V52.5977C46.1415 63.2593 51.8793 73.0651 60.8579 77.9655V88.5965C56.7574 88.8105 53.6953 91.3371 52.6955 95.1269C52.681 95.1983 52.6617 95.2696 52.6472 95.3409C52.6279 95.4122 52.6086 95.4886 52.5941 95.5599C52.5651 95.6822 52.541 95.8095 52.5216 95.9369C52.5168 95.9573 52.512 95.9827 52.5072 96.0082C52.454 96.3087 52.4154 96.6195 52.3864 96.9353V96.9404C52.3768 97.0881 52.3671 97.2307 52.3623 97.3785C52.3623 97.3937 52.3574 97.409 52.3574 97.4243C52.3526 97.5873 52.3478 97.7503 52.3478 97.9184C52.3478 97.9795 52.3526 98.0407 52.3574 98.1018L53.0046 105.824C53.2944 109.212 55.2022 112.151 58.3802 114.102L62.6256 116.705C63.1037 116.995 63.3404 117.438 63.3404 118.014V123.454C63.3404 124.626 64.2436 125.573 65.3592 125.573H92.0922C93.203 125.573 94.1062 124.626 94.1062 123.454V118.783L152.672 118.961C160.202 118.961 166.326 112.513 166.326 104.591C166.326 102.06 165.693 99.5739 164.496 97.3937ZM142.902 57.6662L148.123 57.9311L144.051 61.3745C143.225 62.0775 142.868 63.2236 143.148 64.3036L144.515 69.6063L140.149 66.5958C139.786 66.3513 139.386 66.2087 138.975 66.1578C138.878 66.1476 138.782 66.1374 138.685 66.1374C138.589 66.1374 138.492 66.1476 138.395 66.1578C137.985 66.2087 137.584 66.3513 137.222 66.5958L132.856 69.6063L134.223 64.3036C134.503 63.2236 134.15 62.0775 133.319 61.3745L129.253 57.9311L134.469 57.6662C135.527 57.6101 136.454 56.9021 136.831 55.8578L138.685 50.718L140.54 55.8578C140.917 56.9021 141.844 57.6101 142.902 57.6662ZM140.54 22.6861C140.917 23.7304 141.844 24.4384 142.902 24.4945L148.123 24.7594L144.051 28.2029C143.22 28.9058 142.868 30.052 143.148 31.1319L144.515 36.4347L140.149 33.4241C139.786 33.1796 139.386 33.037 138.975 32.9861C138.878 32.9759 138.782 32.9657 138.685 32.9657C138.589 32.9657 138.492 32.9759 138.4 32.9861C137.99 33.037 137.584 33.1796 137.227 33.4241L132.856 36.4347L134.227 31.1319C134.503 30.052 134.15 28.9058 133.324 28.208L129.253 24.7594L134.469 24.4945C135.527 24.4384 136.454 23.7304 136.831 22.6861L138.685 17.5464L140.54 22.6861ZM127.195 5.07641C131.605 5.09169 134.72 8.99364 135.99 13.0586L133.377 20.2971L125.466 20.7046C124.35 20.7606 123.404 21.5247 123.056 22.6403C122.713 23.761 123.051 24.9631 123.925 25.7017L130.098 30.923L128.021 38.9714C127.726 40.1074 128.122 41.2892 129.026 41.9819C129.499 42.3436 130.045 42.5219 130.595 42.5219C131.102 42.5219 131.61 42.3691 132.054 42.0584L136.671 38.8797V44.8295C136.468 45.074 136.304 45.3541 136.193 45.675L133.377 53.4688L125.466 53.8763C124.35 53.9323 123.404 54.6964 123.056 55.812C122.713 56.9326 123.051 58.1348 123.925 58.8734L130.098 64.0947L128.021 72.1431C127.726 73.2791 128.122 74.4609 129.026 75.1536C129.499 75.5153 130.045 75.6936 130.595 75.6936C131.098 75.6936 131.61 75.5408 132.054 75.23L136.671 72.0514V96.3342H95.8208V92.6207C95.8208 91.8159 95.6711 91.0467 95.4006 90.3437H124.505C125.616 90.3437 126.519 89.3912 126.519 88.2196C126.519 87.048 125.616 86.0954 124.505 86.0954H87.9917C86.9291 84.4653 85.1518 83.3956 83.1377 83.3956C82.2104 83.3956 81.3121 83.6299 80.5055 84.0578C79.3608 82.3819 77.4917 81.2816 75.4052 81.2816C74.6566 81.2816 73.9321 81.4243 73.256 81.6891V79.6669C76.1442 78.6481 78.8006 77.1403 81.1382 75.2504C81.2106 76.3507 82.08 77.2218 83.1474 77.2218H124.505C125.616 77.2218 126.519 76.2743 126.519 75.1027C126.519 73.9311 125.616 72.9785 124.505 72.9785H83.6207C86.0791 70.4417 88.0738 67.4312 89.4696 64.1049H117.154C118.27 64.1049 119.173 63.1574 119.173 61.9858C119.173 60.8142 118.27 59.8617 117.154 59.8617H90.8847C91.474 57.5286 91.7879 55.0937 91.7879 52.5977V50.988H124.505C125.616 50.988 126.519 50.0405 126.519 48.8689C126.519 47.6973 125.616 46.7448 124.505 46.7448H91.7879V37.8711H124.505C125.616 37.8711 126.519 36.9237 126.519 35.7521C126.519 34.5805 125.616 33.6279 124.505 33.6279H91.7493C91.6333 32.9351 91.1938 32.3442 90.566 32.059L70.9811 23.221V17.4445C70.9811 12.4524 68.9091 7.96467 65.6249 4.87775L127.195 5.07641ZM46.1415 18.9778C45.6247 17.7145 45.3542 16.3493 45.3542 14.9688C45.3542 9.38588 49.6721 4.84209 54.9752 4.84209H55.0573C61.621 4.88793 66.9482 10.5218 66.9482 17.4445V18.9778H46.1415ZM50.1744 52.5977V35.4108L68.9671 26.9345L87.755 35.4108V52.5977C87.755 55.5777 87.2334 58.4608 86.2674 61.1402C86.2385 61.2166 86.2143 61.293 86.1902 61.3695C83.9008 67.5535 79.2497 72.6067 73.256 75.1485V69.7541C73.256 66.1578 70.474 63.2287 67.0545 63.2287C63.635 63.2287 60.8579 66.1578 60.8579 69.7541V73.0702C54.2797 68.6283 50.1744 60.9161 50.1744 52.5977ZM90.0733 121.33H67.3733V118.014C67.3733 115.941 66.359 114.081 64.6589 113.037L60.4135 110.434C58.9839 109.558 57.2355 107.984 57.023 105.447L56.3807 97.8267C56.3855 97.6383 56.3951 97.4549 56.4096 97.2766C56.4096 97.2511 56.4145 97.2256 56.4193 97.2002C56.4338 97.0474 56.4531 96.8945 56.4821 96.7468C56.4821 96.7366 56.4821 96.7315 56.4869 96.7213C56.8878 94.5208 58.4526 93.1301 60.8579 92.8703V100.099C60.8579 101.27 61.761 102.218 62.8719 102.218C63.9876 102.218 64.8908 101.27 64.8908 100.099V69.7541C64.8908 68.4959 65.8615 67.472 67.0545 67.472C68.2523 67.472 69.2231 68.4959 69.2231 69.7541V86.9512C69.2231 88.0362 70.0007 88.9429 71.0246 89.0601C72.0485 89.1721 72.9903 88.459 73.2077 87.3994C73.4298 86.3144 74.3572 85.53 75.4052 85.53C76.6175 85.53 77.6269 86.5691 77.6463 87.8426C77.6656 88.8257 78.3176 89.6612 79.2256 89.8751C80.1336 90.089 81.0609 89.6204 81.4715 88.7392C81.7854 88.0718 82.4374 87.6389 83.1377 87.6389C84.1568 87.6389 84.9875 88.515 84.9875 89.5847V90.247C84.9875 91.1639 85.543 91.9738 86.3689 92.2591C87.1899 92.5494 88.0979 92.254 88.6196 91.5204C88.9576 91.0416 89.4744 90.7665 90.0299 90.7665C91.0006 90.7665 91.7927 91.5968 91.7927 92.6207V111.066C91.7927 112.589 91.474 113.857 90.764 115.182C90.6626 115.38 90.5708 115.584 90.4887 115.793C90.4549 115.869 90.4259 115.946 90.4017 116.027C90.1892 116.659 90.0733 117.331 90.0733 118.014V121.33ZM152.682 114.718L95.3716 114.54C95.6711 113.435 95.8208 112.293 95.8208 111.066V100.583H161.511C162.028 101.841 162.293 103.206 162.293 104.591C162.293 110.174 157.98 114.718 152.682 114.718ZM81.1334 22.6352C81.1334 21.4636 82.0365 20.511 83.1474 20.511H116.333C117.449 20.511 118.352 21.4636 118.352 22.6352C118.352 23.8068 117.449 24.7594 116.333 24.7594H83.1474C82.0365 24.7594 81.1334 23.8068 81.1334 22.6352ZM65.7118 58.8581L60.5246 53.3975C59.7374 52.5722 59.7374 51.2274 60.5246 50.3971C61.3119 49.5668 62.5869 49.5668 63.3742 50.3971L67.2042 54.4264L78.3707 43.7546C79.1966 42.9651 80.4717 43.0313 81.2203 43.9024C81.9689 44.7683 81.9061 46.1131 81.0802 46.8976L68.489 58.9295C68.1026 59.2962 67.6196 59.4796 67.1366 59.4796C66.6198 59.4796 66.103 59.2708 65.7118 58.8581Z" fill="#E9E2D1"/>
</g>
<path d="M0 151.958H5.53063C6.16566 151.958 6.74665 152.078 7.27809 152.313C7.81854 152.552 8.27793 152.885 8.66525 153.313C9.04807 153.729 9.34082 154.245 9.54799 154.854C9.76417 155.453 9.87226 156.125 9.87226 156.875C9.87226 157.807 9.72814 158.578 9.4399 159.188C9.15166 159.786 8.8454 160.266 8.52113 160.625C8.1248 161.042 7.67893 161.354 7.18802 161.563L10.3226 166.896H7.18802L4.23354 161.771H2.75631V166.896H0V151.958ZM5.35048 158.896C5.86391 158.896 6.28726 158.724 6.61153 158.375C6.9358 158.016 7.09794 157.516 7.09794 156.875C7.09794 156.24 6.9358 155.74 6.61153 155.375C6.28726 155.016 5.86391 154.833 5.35048 154.833H2.75631V158.896H5.35048Z" fill="#E9E2D1"/>
<path d="M16.2256 167.104C15.4915 167.104 14.8249 166.969 14.2259 166.708C13.6359 166.448 13.1315 166.073 12.7127 165.583C12.3028 165.083 11.9831 164.474 11.7579 163.75C11.5417 163.016 11.4336 162.182 11.4336 161.25C11.4336 160.307 11.5417 159.474 11.7579 158.75C11.9831 158.031 12.3028 157.417 12.7127 156.917C13.1315 156.417 13.6359 156.036 14.2259 155.771C14.8249 155.51 15.4915 155.375 16.2256 155.375C16.9327 155.375 17.5767 155.516 18.1532 155.792C18.7387 156.073 19.2386 156.469 19.6485 156.979C20.0538 157.479 20.3691 158.078 20.5853 158.771C20.8104 159.453 20.9275 160.203 20.9275 161.021C20.9275 161.188 20.9185 161.344 20.9095 161.479C20.896 161.62 20.8825 161.745 20.8735 161.854C20.86 161.995 20.8465 162.115 20.8375 162.208H14.0998C14.2079 162.849 14.4241 163.385 14.7484 163.813C15.0816 164.229 15.5771 164.438 16.2256 164.438C16.73 164.438 17.0993 164.349 17.3425 164.167C17.5812 163.974 17.7929 163.708 17.9731 163.375H20.7474C20.6393 163.865 20.4682 164.328 20.243 164.771C20.0133 165.219 19.7115 165.62 19.3422 165.979C18.9819 166.328 18.5405 166.604 18.0271 166.813C17.5092 167.005 16.9102 167.104 16.2256 167.104ZM18.2613 159.958C18.2118 159.724 18.1352 159.495 18.0271 159.271C17.919 159.036 17.7794 158.828 17.6128 158.646C17.4551 158.453 17.257 158.307 17.0183 158.208C16.7886 158.099 16.5229 158.042 16.2256 158.042C15.6221 158.042 15.1537 158.229 14.8204 158.604C14.4826 158.969 14.2439 159.417 14.0998 159.958H18.2613Z" fill="#E9E2D1"/>
<path d="M27.0127 171.167C26.2786 171.167 25.6481 171.063 25.1211 170.854C24.5897 170.656 24.1393 170.385 23.77 170.042C23.4097 169.693 23.1124 169.281 22.8873 168.813C22.6711 168.354 22.5089 167.854 22.4009 167.313H25.0851C25.1797 167.688 25.3959 167.979 25.7336 168.188C26.0669 168.396 26.4948 168.5 27.0127 168.5C27.6613 168.5 28.1567 168.318 28.508 167.958C28.8683 167.609 29.0484 167.115 29.0484 166.479V164.875H28.9583C28.8503 165 28.7151 165.146 28.562 165.313C28.4179 165.469 28.2287 165.62 28.0035 165.771C27.7874 165.911 27.5397 166.031 27.2649 166.125C26.9857 166.208 26.6884 166.25 26.3642 166.25C25.7381 166.25 25.1662 166.135 24.6527 165.896C24.1483 165.661 23.716 165.313 23.3557 164.854C22.9954 164.396 22.7116 163.833 22.5089 163.167C22.3153 162.49 22.2207 161.703 22.2207 160.813C22.2207 159.938 22.3153 159.161 22.5089 158.479C22.7116 157.802 22.9954 157.229 23.3557 156.771C23.716 156.313 24.1483 155.969 24.6527 155.729C25.1662 155.495 25.7381 155.375 26.3642 155.375C26.9632 155.375 27.4856 155.536 27.9315 155.854C28.3864 156.161 28.7602 156.5 29.0484 156.875H29.1385L29.4087 155.583H31.6246V166.479C31.6246 167.979 31.2463 169.13 30.4896 169.938C29.742 170.755 28.5845 171.167 27.0127 171.167ZM26.9226 163.583C27.5712 163.583 28.0846 163.344 28.4719 162.854C28.8548 162.354 29.0484 161.677 29.0484 160.813C29.0484 159.969 28.8548 159.292 28.4719 158.792C28.0846 158.292 27.5712 158.042 26.9226 158.042C26.2741 158.042 25.7562 158.292 25.3733 158.792C24.986 159.292 24.7969 159.969 24.7969 160.813C24.7969 161.677 24.986 162.354 25.3733 162.854C25.7562 163.344 26.2741 163.583 26.9226 163.583Z" fill="#E9E2D1"/>
<path d="M37.435 167.104C36.9036 167.104 36.4172 167.005 35.9758 166.813C35.53 166.604 35.1516 166.302 34.8409 165.896C34.5256 165.495 34.2824 165.016 34.1023 164.458C33.9221 163.891 33.832 163.245 33.832 162.521V155.583H36.4262V162.104C36.4262 162.854 36.5748 163.432 36.8766 163.833C37.1873 164.24 37.6197 164.438 38.1737 164.438C38.7231 164.438 39.169 164.224 39.5068 163.792C39.8401 163.365 40.0112 162.802 40.0112 162.104V155.583H42.6054V166.896H40.3895L40.1193 165.625H40.0112C39.6959 166.099 39.3176 166.469 38.8763 166.729C38.4304 166.979 37.9485 167.104 37.435 167.104Z" fill="#E9E2D1"/>
<path d="M44.9082 151.958H47.4844V166.896H44.9082V151.958Z" fill="#E9E2D1"/>
<path d="M52.6451 167.104C52.1136 167.104 51.6362 167.021 51.2039 166.854C50.7805 166.677 50.4202 166.432 50.123 166.125C49.8347 165.807 49.6095 165.432 49.4564 165C49.3123 164.573 49.2402 164.099 49.2402 163.583C49.2402 163.073 49.3168 162.604 49.4744 162.188C49.6276 161.76 49.8708 161.391 50.195 161.083C50.5193 160.766 50.9066 160.516 51.366 160.333C51.8344 160.156 52.3839 160.063 53.0234 160.063H55.3293V159.542C55.3293 159 55.1762 158.599 54.879 158.333C54.5772 158.073 54.1674 157.938 53.6539 157.938C53.2936 157.938 52.9784 158.036 52.7171 158.229C52.4649 158.411 52.2893 158.635 52.1947 158.896H49.6005C49.6816 158.438 49.8347 158 50.0509 157.583C50.2671 157.167 50.5418 156.802 50.8796 156.479C51.2264 156.146 51.6362 155.885 52.1046 155.688C52.573 155.479 53.1225 155.375 53.762 155.375C55.0591 155.375 56.0725 155.74 56.8066 156.458C57.5362 157.182 57.9055 158.245 57.9055 159.646V166.896H55.6896L55.4194 165.625H55.3293C55.2212 165.781 55.0951 165.948 54.951 166.125C54.8069 166.292 54.6177 166.453 54.3925 166.604C54.1764 166.76 53.9242 166.875 53.6359 166.958C53.3477 167.052 53.0144 167.104 52.6451 167.104ZM53.2936 164.646C53.8926 164.646 54.379 164.453 54.7528 164.063C55.1357 163.677 55.3293 163.161 55.3293 162.521V162.208H53.1135C52.6451 162.208 52.3073 162.323 52.1046 162.542C51.911 162.766 51.8164 163.042 51.8164 163.375C51.8164 163.75 51.929 164.057 52.1587 164.292C52.3974 164.531 52.7757 164.646 53.2936 164.646Z" fill="#E9E2D1"/>
<path d="M63.8892 166.896C62.8668 166.896 62.1057 166.615 61.6013 166.042C61.1059 165.474 60.8627 164.656 60.8627 163.583V158.354H59.2773V155.583H60.8627L61.223 152.604H63.4388V155.583H65.7448V158.354H63.4388V163.062C63.4388 163.385 63.5199 163.641 63.691 163.833C63.8577 164.031 64.0784 164.125 64.3576 164.125H65.7448V166.896H63.8892Z" fill="#E9E2D1"/>
<path d="M71.9209 167.104C71.1868 167.104 70.5202 166.969 69.9212 166.708C69.3312 166.448 68.8268 166.073 68.408 165.583C67.9981 165.083 67.6784 164.474 67.4532 163.75C67.237 163.016 67.1289 162.182 67.1289 161.25C67.1289 160.307 67.237 159.474 67.4532 158.75C67.6784 158.031 67.9981 157.417 68.408 156.917C68.8268 156.417 69.3312 156.036 69.9212 155.771C70.5202 155.51 71.1868 155.375 71.9209 155.375C72.664 155.375 73.3306 155.51 73.9206 155.771C74.5061 156.036 75.006 156.417 75.4158 156.917C75.8347 157.417 76.1545 158.031 76.3706 158.75C76.5958 159.474 76.7129 160.307 76.7129 161.25C76.7129 162.182 76.5958 163.016 76.3706 163.75C76.1545 164.474 75.8347 165.083 75.4158 165.583C75.006 166.073 74.5061 166.448 73.9206 166.708C73.3306 166.969 72.664 167.104 71.9209 167.104ZM71.9209 164.438C72.2182 164.438 72.5019 164.385 72.7676 164.271C73.0424 164.146 73.2811 163.953 73.4882 163.688C73.6909 163.427 73.8485 163.094 73.9566 162.688C74.0737 162.286 74.1368 161.807 74.1368 161.25C74.1368 160.698 74.0737 160.219 73.9566 159.813C73.8485 159.396 73.6909 159.057 73.4882 158.792C73.2811 158.531 73.0424 158.344 72.7676 158.229C72.5019 158.104 72.2182 158.042 71.9209 158.042C71.6327 158.042 71.3489 158.104 71.0742 158.229C70.795 158.344 70.5563 158.531 70.3536 158.792C70.1599 159.057 70.0023 159.396 69.8852 159.813C69.7636 160.219 69.7051 160.698 69.7051 161.25C69.7051 161.807 69.7636 162.286 69.8852 162.688C70.0023 163.094 70.1599 163.427 70.3536 163.688C70.5563 163.953 70.795 164.146 71.0742 164.271C71.3489 164.385 71.6327 164.438 71.9209 164.438Z" fill="#E9E2D1"/>
<path d="M78.457 155.583H80.6729L80.9611 156.875H81.0512C81.3259 156.391 81.6637 156.057 82.06 155.875C82.4564 155.682 82.8887 155.583 83.3571 155.583H84.5461V158.479H83.5373C82.7536 158.479 82.1411 158.729 81.6997 159.229C81.2674 159.719 81.0512 160.391 81.0512 161.25V166.896H78.457V155.583Z" fill="#E9E2D1"/>
<path d="M88.7196 166.896L84.7383 155.583H87.6027L89.9987 162.958H90.0707L92.3947 155.583H95.2591L89.9086 171.167H87.2244L88.7196 166.896Z" fill="#E9E2D1"/>
<path d="M104.843 167.104C104.109 167.104 103.442 166.969 102.843 166.708C102.253 166.448 101.749 166.073 101.33 165.583C100.92 165.083 100.6 164.474 100.375 163.75C100.159 163.016 100.051 162.182 100.051 161.25C100.051 160.307 100.159 159.474 100.375 158.75C100.6 158.031 100.92 157.417 101.33 156.917C101.749 156.417 102.253 156.036 102.843 155.771C103.442 155.51 104.109 155.375 104.843 155.375C105.527 155.375 106.126 155.49 106.644 155.708C107.158 155.932 107.599 156.229 107.959 156.604C108.329 156.979 108.63 157.417 108.86 157.917C109.085 158.406 109.256 158.911 109.365 159.438H106.788C106.595 159.01 106.347 158.667 106.05 158.417C105.762 158.167 105.356 158.042 104.843 158.042C104.194 158.042 103.658 158.313 103.239 158.854C102.83 159.385 102.627 160.182 102.627 161.25C102.627 162.307 102.83 163.104 103.239 163.646C103.658 164.177 104.194 164.438 104.843 164.438C105.356 164.438 105.762 164.313 106.05 164.063C106.347 163.813 106.595 163.479 106.788 163.063H109.365C109.256 163.604 109.085 164.12 108.86 164.604C108.63 165.078 108.329 165.5 107.959 165.875C107.599 166.25 107.158 166.552 106.644 166.771C106.126 166.99 105.527 167.104 104.843 167.104Z" fill="#E9E2D1"/>
<path d="M115.349 167.104C114.615 167.104 113.948 166.969 113.349 166.708C112.759 166.448 112.255 166.073 111.836 165.583C111.426 165.083 111.106 164.474 110.881 163.75C110.665 163.016 110.557 162.182 110.557 161.25C110.557 160.307 110.665 159.474 110.881 158.75C111.106 158.031 111.426 157.417 111.836 156.917C112.255 156.417 112.759 156.036 113.349 155.771C113.948 155.51 114.615 155.375 115.349 155.375C116.092 155.375 116.758 155.51 117.348 155.771C117.934 156.036 118.434 156.417 118.844 156.917C119.262 157.417 119.582 158.031 119.798 158.75C120.024 159.474 120.141 160.307 120.141 161.25C120.141 162.182 120.024 163.016 119.798 163.75C119.582 164.474 119.262 165.083 118.844 165.583C118.434 166.073 117.934 166.448 117.348 166.708C116.758 166.969 116.092 167.104 115.349 167.104ZM115.349 164.438C115.646 164.438 115.93 164.385 116.195 164.271C116.47 164.146 116.709 163.953 116.916 163.688C117.119 163.427 117.276 163.094 117.384 162.688C117.501 162.286 117.565 161.807 117.565 161.25C117.565 160.698 117.501 160.219 117.384 159.813C117.276 159.396 117.119 159.057 116.916 158.792C116.709 158.531 116.47 158.344 116.195 158.229C115.93 158.104 115.646 158.042 115.349 158.042C115.06 158.042 114.777 158.104 114.502 158.229C114.223 158.344 113.984 158.531 113.781 158.792C113.588 159.057 113.43 159.396 113.313 159.813C113.191 160.219 113.133 160.698 113.133 161.25C113.133 161.807 113.191 162.286 113.313 162.688C113.43 163.094 113.588 163.427 113.781 163.688C113.984 163.953 114.223 164.146 114.502 164.271C114.777 164.385 115.06 164.438 115.349 164.438Z" fill="#E9E2D1"/>
<path d="M121.891 155.583H124.106L124.395 156.875H124.485C124.76 156.391 125.084 156.021 125.458 155.771C125.827 155.51 126.273 155.375 126.791 155.375C127.21 155.375 127.57 155.438 127.872 155.563C128.169 155.688 128.43 155.849 128.646 156.042C128.862 156.224 129.029 156.427 129.151 156.646C129.281 156.854 129.385 157.036 129.457 157.188H129.547C129.628 157.036 129.745 156.854 129.889 156.646C130.033 156.427 130.223 156.224 130.466 156.042C130.718 155.849 131.006 155.688 131.331 155.563C131.664 155.438 132.056 155.375 132.502 155.375C133.028 155.375 133.515 155.479 133.961 155.688C134.402 155.896 134.78 156.198 135.096 156.583C135.406 156.958 135.654 157.427 135.834 157.979C136.014 158.536 136.105 159.161 136.105 159.854V166.896H133.528V160.292C133.528 159.891 133.479 159.552 133.384 159.271C133.299 158.979 133.186 158.745 133.042 158.563C132.898 158.385 132.722 158.25 132.52 158.167C132.312 158.083 132.092 158.042 131.853 158.042C131.443 158.042 131.078 158.229 130.754 158.604C130.439 158.969 130.286 159.531 130.286 160.292V166.896H127.709V160.292C127.709 159.891 127.664 159.552 127.583 159.271C127.498 158.979 127.376 158.745 127.223 158.563C127.079 158.385 126.903 158.25 126.701 158.167C126.493 158.083 126.277 158.042 126.052 158.042C125.629 158.042 125.264 158.245 124.953 158.646C124.638 159.036 124.485 159.583 124.485 160.292V166.896H121.891V155.583Z" fill="#E9E2D1"/>
<path d="M138.209 155.583H140.425L140.713 156.875H140.803C141.064 156.5 141.42 156.161 141.866 155.854C142.307 155.536 142.875 155.375 143.559 155.375C144.194 155.375 144.771 155.5 145.289 155.75C145.802 156 146.248 156.375 146.622 156.875C146.991 157.375 147.28 157.995 147.487 158.729C147.703 159.453 147.811 160.292 147.811 161.25C147.811 162.208 147.703 163.057 147.487 163.792C147.28 164.516 146.991 165.125 146.622 165.625C146.248 166.115 145.802 166.479 145.289 166.729C144.771 166.979 144.194 167.104 143.559 167.104C143.199 167.104 142.875 167.052 142.587 166.958C142.298 166.875 142.037 166.766 141.812 166.625C141.596 166.474 141.407 166.323 141.254 166.167C141.096 166 140.974 165.854 140.893 165.729H140.803V171.167H138.209V155.583ZM143.019 164.438C143.307 164.438 143.582 164.385 143.848 164.271C144.122 164.146 144.361 163.953 144.568 163.688C144.771 163.427 144.933 163.094 145.055 162.688C145.172 162.286 145.235 161.807 145.235 161.25C145.235 160.698 145.172 160.219 145.055 159.813C144.933 159.396 144.771 159.057 144.568 158.792C144.361 158.531 144.122 158.344 143.848 158.229C143.582 158.104 143.307 158.042 143.019 158.042C142.717 158.042 142.429 158.104 142.154 158.229C141.889 158.344 141.654 158.531 141.452 158.792C141.245 159.057 141.082 159.396 140.965 159.813C140.857 160.219 140.803 160.698 140.803 161.25C140.803 161.807 140.857 162.286 140.965 162.688C141.082 163.094 141.245 163.427 141.452 163.688C141.654 163.953 141.889 164.146 142.154 164.271C142.429 164.385 142.717 164.438 143.019 164.438Z" fill="#E9E2D1"/>
<path d="M149.658 151.958H152.234V166.896H149.658V151.958Z" fill="#E9E2D1"/>
<path d="M154.532 155.583H157.126V166.896H154.532V155.583ZM155.829 154.417C155.405 154.417 155.054 154.26 154.766 153.938C154.487 153.604 154.352 153.198 154.352 152.708C154.352 152.224 154.487 151.823 154.766 151.5C155.054 151.167 155.405 151 155.829 151C156.248 151 156.594 151.167 156.874 151.5C157.162 151.823 157.306 152.224 157.306 152.708C157.306 153.198 157.162 153.604 156.874 153.938C156.594 154.26 156.248 154.417 155.829 154.417Z" fill="#E9E2D1"/>
<path d="M162.19 167.104C161.659 167.104 161.181 167.021 160.749 166.854C160.325 166.677 159.965 166.432 159.668 166.125C159.38 165.807 159.154 165.432 159.001 165C158.857 164.573 158.785 164.099 158.785 163.583C158.785 163.073 158.862 162.604 159.019 162.188C159.172 161.76 159.416 161.391 159.74 161.083C160.064 160.766 160.452 160.516 160.911 160.333C161.379 160.156 161.929 160.063 162.568 160.063H164.874V159.542C164.874 159 164.721 158.599 164.424 158.333C164.122 158.073 163.712 157.938 163.199 157.938C162.839 157.938 162.523 158.036 162.262 158.229C162.01 158.411 161.834 158.635 161.74 158.896H159.145C159.227 158.438 159.38 158 159.596 157.583C159.812 157.167 160.087 156.802 160.425 156.479C160.771 156.146 161.181 155.885 161.65 155.688C162.118 155.479 162.667 155.375 163.307 155.375C164.604 155.375 165.617 155.74 166.351 156.458C167.081 157.182 167.45 158.245 167.45 159.646V166.896H165.235L164.964 165.625H164.874C164.766 165.781 164.64 165.948 164.496 166.125C164.352 166.292 164.163 166.453 163.937 166.604C163.721 166.76 163.469 166.875 163.181 166.958C162.893 167.052 162.559 167.104 162.19 167.104ZM162.839 164.646C163.438 164.646 163.924 164.453 164.298 164.063C164.681 163.677 164.874 163.161 164.874 162.521V162.208H162.658C162.19 162.208 161.852 162.323 161.65 162.542C161.456 162.766 161.361 163.042 161.361 163.375C161.361 163.75 161.474 164.057 161.704 164.292C161.942 164.531 162.321 164.646 162.839 164.646Z" fill="#E9E2D1"/>
<path d="M169.561 155.583H171.776L172.065 156.875H172.155C172.465 156.391 172.844 156.021 173.29 155.771C173.731 155.51 174.213 155.375 174.731 155.375C175.258 155.375 175.744 155.479 176.19 155.688C176.631 155.896 177.01 156.203 177.325 156.604C177.636 156.995 177.884 157.474 178.064 158.042C178.244 158.599 178.334 159.24 178.334 159.958V166.896H175.74V160.396C175.74 159.635 175.582 159.052 175.271 158.646C174.97 158.245 174.542 158.042 173.992 158.042C173.438 158.042 172.992 158.266 172.659 158.708C172.321 159.141 172.155 159.703 172.155 160.396V166.896H169.561V155.583Z" fill="#E9E2D1"/>
<path d="M184.786 167.104C184.052 167.104 183.385 166.969 182.786 166.708C182.196 166.448 181.692 166.073 181.273 165.583C180.863 165.083 180.544 164.474 180.318 163.75C180.102 163.016 179.994 162.182 179.994 161.25C179.994 160.307 180.102 159.474 180.318 158.75C180.544 158.031 180.863 157.417 181.273 156.917C181.692 156.417 182.196 156.036 182.786 155.771C183.385 155.51 184.052 155.375 184.786 155.375C185.471 155.375 186.07 155.49 186.588 155.708C187.101 155.932 187.542 156.229 187.903 156.604C188.272 156.979 188.574 157.417 188.804 157.917C189.029 158.406 189.2 158.911 189.308 159.438H186.732C186.538 159.01 186.29 158.667 185.993 158.417C185.705 158.167 185.3 158.042 184.786 158.042C184.138 158.042 183.602 158.313 183.183 158.854C182.773 159.385 182.57 160.182 182.57 161.25C182.57 162.307 182.773 163.104 183.183 163.646C183.602 164.177 184.138 164.438 184.786 164.438C185.3 164.438 185.705 164.313 185.993 164.063C186.29 163.813 186.538 163.479 186.732 163.063H189.308C189.2 163.604 189.029 164.12 188.804 164.604C188.574 165.078 188.272 165.5 187.903 165.875C187.542 166.25 187.101 166.552 186.588 166.771C186.07 166.99 185.471 167.104 184.786 167.104Z" fill="#E9E2D1"/>
<path d="M195.298 167.104C194.564 167.104 193.897 166.969 193.298 166.708C192.708 166.448 192.204 166.073 191.785 165.583C191.375 165.083 191.055 164.474 190.83 163.75C190.614 163.016 190.506 162.182 190.506 161.25C190.506 160.307 190.614 159.474 190.83 158.75C191.055 158.031 191.375 157.417 191.785 156.917C192.204 156.417 192.708 156.036 193.298 155.771C193.897 155.51 194.564 155.375 195.298 155.375C196.005 155.375 196.649 155.516 197.225 155.792C197.811 156.073 198.311 156.469 198.721 156.979C199.126 157.479 199.441 158.078 199.658 158.771C199.883 159.453 200 160.203 200 161.021C200 161.188 199.991 161.344 199.982 161.479C199.968 161.62 199.955 161.745 199.946 161.854C199.932 161.995 199.919 162.115 199.91 162.208H193.172C193.28 162.849 193.496 163.385 193.821 163.813C194.154 164.229 194.649 164.438 195.298 164.438C195.802 164.438 196.172 164.349 196.415 164.167C196.654 163.974 196.865 163.708 197.045 163.375H199.82C199.712 163.865 199.54 164.328 199.315 164.771C199.086 165.219 198.784 165.62 198.414 165.979C198.054 166.328 197.613 166.604 197.099 166.813C196.581 167.005 195.982 167.104 195.298 167.104ZM197.334 159.958C197.284 159.724 197.207 159.495 197.099 159.271C196.991 159.036 196.852 158.828 196.685 158.646C196.527 158.453 196.329 158.307 196.091 158.208C195.861 158.099 195.595 158.042 195.298 158.042C194.694 158.042 194.226 158.229 193.893 158.604C193.555 158.969 193.316 159.417 193.172 159.958H197.334Z" fill="#E9E2D1"/>
</svg>
