<svg width="126" height="125" viewBox="0 0 126 125" fill="none" xmlns="http://www.w3.org/2000/svg">
<mask id="mask0_671_233" style="mask-type:luminance" maskUnits="userSpaceOnUse" x="24" y="0" width="95" height="75">
<path d="M24.873 0H118.617V74.3232H24.873V0Z" fill="white"/>
</mask>
<g mask="url(#mask0_671_233)">
<path d="M27.565 1.97775H116.16V72.0357H35.8309V74.0189H117.785V0H25.9395V15.1211H27.565V1.97775Z" fill="#E9E2D1"/>
</g>
<path d="M40.8672 13.1593H50.8882V15.2838H40.8672V13.1593Z" fill="#E9E2D1"/>
<path d="M93.7031 7.4436H103.724V9.57349H93.7031V7.4436Z" fill="#E9E2D1"/>
<path d="M93.7031 58.9952H111.838V61.1251H93.7031V58.9952Z" fill="#E9E2D1"/>
<path d="M93.7031 64.0483H111.838V66.1728H93.7031V64.0483Z" fill="#E9E2D1"/>
<path d="M45.9572 16.5391L45.3633 16.8651L48.3553 25.0695H53.9419V24.2762H48.7751L45.9572 16.5391Z" fill="#E9E2D1"/>
<path d="M89.6719 17.0061H96.2855L99.1034 11.2359L98.5452 10.8284L95.9149 16.2183H89.6719V17.0061Z" fill="#E9E2D1"/>
<path d="M47.3418 91.3025C47.3418 95.7253 49.9899 99.3928 53.4553 100.088H55.8355C59.3009 99.3928 61.949 95.7253 61.949 91.3025C61.949 86.3853 58.6802 82.3972 54.6432 82.3972C50.6107 82.3972 47.3418 86.3853 47.3418 91.3025Z" fill="#E9E2D1"/>
<path d="M74.7656 91.3025C74.7656 95.7253 77.4093 99.3928 80.8791 100.088H83.2594C86.7247 99.3928 89.3684 95.7253 89.3684 91.3025C89.3684 86.3853 86.0995 82.3972 82.067 82.3972C78.0345 82.3972 74.7656 86.3853 74.7656 91.3025Z" fill="#E9E2D1"/>
<mask id="mask1_671_233" style="mask-type:luminance" maskUnits="userSpaceOnUse" x="37" y="102" width="89" height="23">
<path d="M37.4453 102.142H125.71V125H37.4453V102.142Z" fill="white"/>
</mask>
<g mask="url(#mask1_671_233)">
<path d="M118.544 103.315C117.436 102.631 116.463 102.479 115.878 102.468C115.838 102.468 115.802 102.462 115.762 102.462H103.222C103.177 102.462 103.137 102.468 103.092 102.473C102.507 102.479 101.538 102.636 100.44 103.315C98.8143 104.299 97.0727 106.363 95.7777 109.944C95.407 108.933 95.0096 108.042 94.5853 107.255C93.5225 105.282 92.2721 104.016 91.12 103.315C90.0125 102.631 89.039 102.479 88.454 102.468C88.4138 102.468 88.378 102.462 88.3378 102.462H75.7982C75.758 102.462 75.7134 102.468 75.6732 102.468C75.0837 102.479 74.1146 102.636 73.0161 103.315C71.3906 104.293 69.649 106.363 68.3539 109.944C67.9833 108.933 67.5858 108.042 67.1616 107.255C66.0987 105.282 64.8484 104.016 63.6962 103.315C62.5887 102.631 61.6152 102.479 61.0302 102.468C60.99 102.468 60.9543 102.462 60.9141 102.462H48.3745C48.3343 102.462 48.2896 102.468 48.2494 102.468C47.6599 102.479 46.6909 102.636 45.5923 103.315C43.8463 104.369 41.9662 106.679 40.6488 110.77C39.5681 114.095 38.7777 118.621 38.5098 124.978H43.7078C44.0115 118.339 44.9448 114.307 45.8692 112.009V124.978H63.4238V112.025C63.6158 112.509 63.8079 113.057 63.9999 113.704C64.7144 116.116 65.3396 119.746 65.5763 124.978H71.1316C71.4352 118.339 72.3686 114.307 73.293 112.009V124.978H90.8476V112.025C91.0396 112.509 91.2316 113.057 91.4236 113.704C92.1381 116.116 92.7589 119.746 93 124.978H98.5553C98.859 118.339 99.7923 114.307 100.712 112.009V124.978H118.267V112.025C118.459 112.509 118.655 113.057 118.847 113.704C119.562 116.116 120.183 119.74 120.424 124.978H125.622C125.247 116.008 123.836 110.661 122.009 107.255C120.946 105.282 119.696 104.016 118.544 103.315Z" fill="#E9E2D1"/>
</g>
<path d="M116.792 91.3025C116.792 91.8839 116.748 92.4653 116.654 93.0412C116.56 93.6117 116.422 94.1713 116.238 94.7093C116.055 95.2526 115.828 95.7633 115.564 96.2523C115.296 96.7359 114.993 97.1869 114.653 97.5998C114.314 98.0127 113.948 98.3822 113.55 98.7082C113.148 99.0342 112.728 99.3059 112.286 99.5287C111.844 99.7514 111.384 99.9199 110.915 100.034C110.446 100.148 109.969 100.208 109.491 100.208C109.013 100.208 108.535 100.148 108.066 100.034C107.597 99.9199 107.142 99.7514 106.695 99.5287C106.253 99.3059 105.833 99.0342 105.436 98.7082C105.034 98.3822 104.668 98.0127 104.329 97.5998C103.989 97.1869 103.685 96.7359 103.422 96.2523C103.154 95.7633 102.931 95.2526 102.743 94.7093C102.56 94.1713 102.422 93.6117 102.328 93.0412C102.234 92.4653 102.189 91.8839 102.189 91.3025C102.189 90.7157 102.234 90.1398 102.328 89.5638C102.422 88.9933 102.56 88.4337 102.743 87.8958C102.931 87.3525 103.154 86.8417 103.422 86.3527C103.685 85.8691 103.989 85.4182 104.329 85.0052C104.668 84.5923 105.034 84.2228 105.436 83.8968C105.833 83.5708 106.253 83.2992 106.695 83.0764C107.142 82.8482 107.597 82.6798 108.066 82.5657C108.535 82.4516 109.013 82.3972 109.491 82.3972C109.969 82.3972 110.446 82.4516 110.915 82.5657C111.384 82.6798 111.844 82.8482 112.286 83.0764C112.728 83.2992 113.148 83.5708 113.55 83.8968C113.948 84.2228 114.314 84.5923 114.653 85.0052C114.993 85.4182 115.296 85.8691 115.564 86.3527C115.828 86.8417 116.055 87.3525 116.238 87.8958C116.422 88.4337 116.56 88.9933 116.654 89.5638C116.748 90.1398 116.792 90.7157 116.792 91.3025Z" fill="#E9E2D1"/>
<mask id="mask2_671_233" style="mask-type:luminance" maskUnits="userSpaceOnUse" x="0" y="32" width="54" height="82">
<path d="M0.710938 32.5947H53.4506V113.27H0.710938V32.5947Z" fill="white"/>
</mask>
<g mask="url(#mask2_671_233)">
<path d="M52.7657 35.7733C52.2834 34.127 50.7963 33.2739 49.4432 33.8662C42.3205 36.9958 29.7496 38.1422 27.9052 38.2944H15.3835C15.3522 38.2944 15.3165 38.2998 15.2808 38.2998C13.6017 38.327 8.71174 39.4408 6.52802 51.1552C6.38066 51.9593 6.24222 52.8123 6.11718 53.7143C6.11718 53.7197 6.11718 53.7197 6.11718 53.7197C5.68401 56.9526 5.425 60.8592 5.425 65.6243C5.425 67.9389 5.48752 70.46 5.61702 73.2038C5.69741 74.8882 6.84509 76.1867 8.20712 76.1867C8.26071 76.1867 8.30983 76.1867 8.36342 76.1813C9.79244 76.0781 10.8865 74.5785 10.8017 72.8343C10.6722 70.2046 10.6186 67.803 10.6186 65.6243C10.6186 61.1417 10.8597 57.5774 11.2393 54.7575C11.2393 54.7575 11.2438 54.7521 11.2438 54.7466C11.3554 53.8936 11.4849 53.1166 11.6234 52.394C11.9896 50.4597 12.4272 48.9764 12.8782 47.8571V56.9526L11.5832 58.4142C11.5385 58.9792 11.5028 59.5606 11.4715 60.1583L13.5927 57.7622L21.3809 68.0258L9.94874 80.9301L6.64413 76.5725C6.00107 76.1487 5.48305 75.475 5.18385 74.6491L2.16059 70.6664L4.72835 67.765C4.71942 67.2271 4.71496 66.6946 4.71496 66.1676L0.785156 70.6012L9.89515 82.609L10.2524 82.2069L12.8782 79.2403V107.217C12.8782 109.917 14.6734 112.107 16.8884 112.107C19.1034 112.107 20.9031 109.917 20.9031 107.217V71.4869H22.408V107.217C22.408 109.917 24.2032 112.107 26.4182 112.107C28.6332 112.107 30.4328 109.917 30.4328 107.217V44.4123C34.9789 43.9342 44.8079 42.6356 51.2027 39.8266C52.5513 39.2343 53.2525 37.4196 52.7657 35.7733ZM24.7391 62.3153L21.8051 66.8359L19.7286 64.0975L18.572 62.3153L20.3493 46.3575C20.7691 46.5477 21.2112 46.6509 21.6533 46.6509H21.6578C22.0999 46.6509 22.542 46.5477 22.9617 46.3575L24.7391 62.3153ZM20.4208 41.5326H22.8858L23.5021 44.5047L23.4083 44.684C22.9037 45.2002 22.2785 45.461 21.6533 45.461C21.0281 45.461 20.4074 45.2002 19.8983 44.684L19.8045 44.5047L20.4208 41.5326Z" fill="#E9E2D1"/>
</g>
<path d="M28.9563 27.1339C28.9563 27.7208 28.9116 28.2967 28.8179 28.8726C28.7241 29.4431 28.5856 30.0028 28.4026 30.5407C28.2195 31.084 27.9962 31.5948 27.7282 32.0838C27.4603 32.5673 27.1566 33.0183 26.8217 33.4312C26.4823 33.8442 26.1117 34.2136 25.7142 34.5396C25.3123 34.8656 24.8925 35.1373 24.4504 35.3601C24.0083 35.5883 23.5528 35.7567 23.0795 35.8708C22.6106 35.9849 22.1372 36.0393 21.6549 36.0393C21.1771 36.0393 20.7037 35.9849 20.2304 35.8708C19.7615 35.7567 19.306 35.5883 18.8639 35.3601C18.4173 35.1373 17.9975 34.8656 17.6001 34.5396C17.2026 34.2136 16.832 33.8442 16.4926 33.4312C16.1532 33.0183 15.8495 32.5673 15.586 32.0838C15.3181 31.5948 15.0948 31.084 14.9117 30.5407C14.7286 30.0028 14.5902 29.4431 14.4964 28.8726C14.4026 28.2967 14.3535 27.7208 14.3535 27.1339C14.3535 26.5471 14.4026 25.9712 14.4964 25.3953C14.5902 24.8248 14.7286 24.2651 14.9117 23.7272C15.0948 23.1839 15.3181 22.6731 15.586 22.1841C15.8495 21.7006 16.1532 21.2496 16.4926 20.8367C16.832 20.4237 17.2026 20.0543 17.6001 19.7283C17.9975 19.4022 18.4173 19.1306 18.8639 18.9078C19.306 18.685 19.7615 18.5112 20.2304 18.3971C20.7037 18.283 21.1771 18.2286 21.6549 18.2286C22.1372 18.2286 22.6106 18.283 23.0795 18.3971C23.5528 18.5112 24.0083 18.685 24.4504 18.9078C24.8925 19.1306 25.3123 19.4022 25.7142 19.7283C26.1117 20.0543 26.4823 20.4237 26.8217 20.8367C27.1566 21.2496 27.4603 21.7006 27.7282 22.1841C27.9962 22.6731 28.2195 23.1839 28.4026 23.7272C28.5856 24.2651 28.7241 24.8248 28.8179 25.3953C28.9116 25.9712 28.9563 26.5471 28.9563 27.1339Z" fill="#E9E2D1"/>
<path d="M55.7285 32.8013V39.2942H58.6937C58.8411 40.3102 59.0554 41.2991 59.3368 42.2499L56.7735 44.0592L59.435 49.6774L62.0028 47.868C62.5431 48.6504 63.1371 49.3731 63.7757 50.0305L62.2931 53.1656L66.9017 56.4093L68.3843 53.2851C69.1658 53.6274 69.974 53.8882 70.8091 54.073V57.6862H76.1322V54.073C76.9628 53.8882 77.7756 53.6274 78.5571 53.2851L80.0352 56.4093L84.6438 53.1656L83.1612 50.0305C83.7998 49.3731 84.3937 48.6504 84.9341 47.868L87.5018 49.6774L90.1634 44.0592L87.6001 42.2499C87.8814 41.2991 88.0958 40.3102 88.2476 39.2942H91.2128V32.8013H88.2476C88.0958 31.7852 87.8814 30.7964 87.6001 29.8455L90.1634 28.0416L87.5018 22.4181L84.9341 24.2274C84.3937 23.445 83.7998 22.7224 83.1612 22.0649L84.6438 18.9299L80.0352 15.6861L78.5571 18.8103C77.7756 18.468 76.9628 18.2072 76.1322 18.0225V14.4093H70.8091V18.0225C69.974 18.2072 69.1658 18.468 68.3843 18.8103L66.9017 15.6861L62.2931 18.9299L63.7757 22.0649C63.1371 22.7224 62.5431 23.445 62.0028 24.2274L59.435 22.4181L56.7735 28.0416L59.3368 29.8455C59.0554 30.7964 58.8411 31.7852 58.6937 32.8013H55.7285ZM65.0439 36.0504C65.0439 30.3726 68.8174 25.7705 73.4707 25.7705C78.1239 25.7705 81.8974 30.3726 81.8974 36.0504C81.8974 41.7229 78.1239 46.325 73.4707 46.325C68.8174 46.325 65.0439 41.7229 65.0439 36.0504Z" fill="#E9E2D1"/>
<path d="M77.9847 36.0503C77.9847 36.4089 77.9534 36.7675 77.8954 37.1207C77.8373 37.4793 77.7525 37.8216 77.6408 38.1531C77.5247 38.4899 77.3863 38.8051 77.2211 39.1093C77.0558 39.4082 76.8727 39.6853 76.6628 39.9406C76.453 40.196 76.2252 40.4242 75.9751 40.6252C75.7295 40.8263 75.4705 40.9947 75.1981 41.136C74.9212 41.2718 74.6399 41.3805 74.3496 41.4511C74.0594 41.5218 73.7646 41.5544 73.4699 41.5544C73.1707 41.5544 72.8804 41.5218 72.5857 41.4511C72.2954 41.3805 72.0141 41.2718 71.7417 41.136C71.4693 40.9947 71.2058 40.8263 70.9602 40.6252C70.7146 40.4242 70.4868 40.196 70.2769 39.9406C70.067 39.6853 69.8795 39.4082 69.7142 39.1093C69.549 38.8051 69.4106 38.4899 69.2989 38.1531C69.1828 37.8216 69.098 37.4793 69.0399 37.1207C68.9819 36.7675 68.9551 36.4089 68.9551 36.0503C68.9551 35.6863 68.9819 35.3277 69.0399 34.9745C69.098 34.6214 69.1828 34.2736 69.2989 33.9422C69.4106 33.6053 69.549 33.2902 69.7142 32.9913C69.8795 32.6871 70.067 32.41 70.2769 32.1546C70.4868 31.8992 70.7146 31.671 70.9602 31.47C71.2058 31.269 71.4693 31.1005 71.7417 30.9593C72.0141 30.8234 72.2954 30.7202 72.5857 30.6496C72.8804 30.5789 73.1707 30.5409 73.4699 30.5409C73.7646 30.5409 74.0594 30.5789 74.3496 30.6496C74.6399 30.7202 74.9212 30.8234 75.1981 30.9593C75.4705 31.1005 75.7295 31.269 75.9751 31.47C76.2252 31.671 76.453 31.8992 76.6628 32.1546C76.8727 32.41 77.0558 32.6871 77.2211 32.9913C77.3863 33.2902 77.5247 33.6053 77.6408 33.9422C77.7525 34.2736 77.8373 34.6214 77.8954 34.9745C77.9534 35.3277 77.9847 35.6863 77.9847 36.0503Z" fill="#E9E2D1"/>
</svg>
