<svg width="185" height="159" viewBox="0 0 185 159" fill="none" xmlns="http://www.w3.org/2000/svg">
<mask id="mask0_80_2352" style="mask-type:luminance" maskUnits="userSpaceOnUse" x="50" y="0" width="110" height="73">
<path d="M50 0.755371H159.333V72.0002H50V0.755371Z" fill="white"/>
</mask>
<g mask="url(#mask0_80_2352)">
<path d="M53.14 2.6512H156.468V69.8075H62.7806V71.7085H158.364V0.755371H51.2441V15.2502H53.14V2.6512Z" fill="#E9E2D1"/>
</g>
<path d="M68.6562 13.3696H80.3438V15.4061H68.6562V13.3696Z" fill="#E9E2D1"/>
<path d="M130.281 7.89062H141.969V9.93229H130.281V7.89062Z" fill="#E9E2D1"/>
<path d="M130.281 57.3071H151.432V59.3488H130.281V57.3071Z" fill="#E9E2D1"/>
<path d="M130.281 62.1509H151.432V64.1873H130.281V62.1509Z" fill="#E9E2D1"/>
<path d="M74.5931 16.6094L73.9004 16.9219L77.39 24.7865H83.9056V24.026H77.8796L74.5931 16.6094Z" fill="#E9E2D1"/>
<path d="M125.578 17.0571H133.292L136.578 11.5259L135.927 11.1353L132.859 16.3019H125.578V17.0571Z" fill="#E9E2D1"/>
<path d="M76.207 88.2762C76.207 92.5158 79.2956 96.0314 83.3372 96.6981H86.1133C90.1549 96.0314 93.2435 92.5158 93.2435 88.2762C93.2435 83.5627 89.431 79.7397 84.7227 79.7397C80.0195 79.7397 76.207 83.5627 76.207 88.2762Z" fill="#E9E2D1"/>
<path d="M108.191 88.2762C108.191 92.5158 111.275 96.0314 115.322 96.6981H118.098C122.139 96.0314 125.223 92.5158 125.223 88.2762C125.223 83.5627 121.41 79.7397 116.707 79.7397C112.004 79.7397 108.191 83.5627 108.191 88.2762Z" fill="#E9E2D1"/>
<mask id="mask1_80_2352" style="mask-type:luminance" maskUnits="userSpaceOnUse" x="64" y="98" width="104" height="23">
<path d="M64.666 98.6665H167.609V120.578H64.666V98.6665Z" fill="white"/>
</mask>
<g mask="url(#mask1_80_2352)">
<path d="M159.25 99.7915C157.958 99.1352 156.823 98.9894 156.141 98.979C156.094 98.979 156.052 98.9738 156.005 98.9738H141.38C141.328 98.9738 141.281 98.979 141.229 98.9842C140.547 98.9894 139.417 99.1404 138.135 99.7915C136.24 100.734 134.208 102.713 132.698 106.146C132.266 105.177 131.802 104.323 131.307 103.568C130.068 101.677 128.609 100.463 127.266 99.7915C125.974 99.1352 124.839 98.9894 124.156 98.979C124.109 98.979 124.068 98.9738 124.021 98.9738H109.396C109.349 98.9738 109.297 98.979 109.25 98.979C108.563 98.9894 107.432 99.1404 106.151 99.7915C104.255 100.729 102.224 102.713 100.714 106.146C100.281 105.177 99.8177 104.323 99.3229 103.568C98.0833 101.677 96.625 100.463 95.2813 99.7915C93.9896 99.1352 92.8542 98.9894 92.1719 98.979C92.125 98.979 92.0833 98.9738 92.0365 98.9738H77.4115C77.3646 98.9738 77.3125 98.979 77.2656 98.979C76.5781 98.9894 75.4479 99.1404 74.1667 99.7915C72.1302 100.802 69.9375 103.015 68.401 106.937C67.1406 110.125 66.2187 114.463 65.9062 120.557H71.9688C72.3229 114.193 73.4115 110.328 74.4896 108.125V120.557H94.9635V108.14C95.1875 108.604 95.4115 109.13 95.6354 109.75C96.4688 112.062 97.1979 115.541 97.474 120.557H103.953C104.307 114.193 105.396 110.328 106.474 108.125V120.557H126.948V108.14C127.172 108.604 127.396 109.13 127.62 109.75C128.453 112.062 129.177 115.541 129.458 120.557H135.938C136.292 114.193 137.38 110.328 138.453 108.125V120.557H158.927V108.14C159.151 108.604 159.38 109.13 159.604 109.75C160.438 112.062 161.161 115.536 161.443 120.557H167.505C167.068 111.958 165.422 106.833 163.292 103.568C162.052 101.677 160.594 100.463 159.25 99.7915Z" fill="#E9E2D1"/>
</g>
<path d="M157.207 88.2762C157.207 88.8335 157.155 89.3908 157.046 89.9429C156.936 90.4897 156.775 91.0262 156.561 91.5418C156.348 92.0627 156.082 92.5522 155.775 93.021C155.462 93.4845 155.108 93.9168 154.712 94.3127C154.316 94.7085 153.889 95.0627 153.426 95.3752C152.957 95.6877 152.467 95.9481 151.952 96.1616C151.436 96.3752 150.9 96.5366 150.353 96.646C149.806 96.7554 149.249 96.8127 148.691 96.8127C148.134 96.8127 147.577 96.7554 147.03 96.646C146.483 96.5366 145.952 96.3752 145.431 96.1616C144.915 95.9481 144.426 95.6877 143.962 95.3752C143.493 95.0627 143.066 94.7085 142.671 94.3127C142.275 93.9168 141.921 93.4845 141.613 93.021C141.301 92.5522 141.04 92.0627 140.822 91.5418C140.608 91.0262 140.447 90.4897 140.337 89.9429C140.228 89.3908 140.176 88.8335 140.176 88.2762C140.176 87.7137 140.228 87.1616 140.337 86.6095C140.447 86.0627 140.608 85.5262 140.822 85.0106C141.04 84.4897 141.301 84.0002 141.613 83.5314C141.921 83.0679 142.275 82.6356 142.671 82.2397C143.066 81.8439 143.493 81.4897 143.962 81.1772C144.426 80.8647 144.915 80.6043 145.431 80.3908C145.952 80.172 146.483 80.0106 147.03 79.9012C147.577 79.7918 148.134 79.7397 148.691 79.7397C149.249 79.7397 149.806 79.7918 150.353 79.9012C150.9 80.0106 151.436 80.172 151.952 80.3908C152.467 80.6043 152.957 80.8647 153.426 81.1772C153.889 81.4897 154.316 81.8439 154.712 82.2397C155.108 82.6356 155.462 83.0679 155.775 83.5314C156.082 84.0002 156.348 84.4897 156.561 85.0106C156.775 85.5262 156.936 86.0627 157.046 86.6095C157.155 87.1616 157.207 87.7137 157.207 88.2762Z" fill="#E9E2D1"/>
<mask id="mask2_80_2352" style="mask-type:luminance" maskUnits="userSpaceOnUse" x="21" y="32" width="63" height="78">
<path d="M21.8223 32H83.3327V109.333H21.8223V32Z" fill="white"/>
</mask>
<g mask="url(#mask2_80_2352)">
<path d="M82.5352 35.047C81.9727 33.4688 80.2383 32.6511 78.6602 33.2188C70.3529 36.2188 55.6914 37.3178 53.5404 37.4636H38.9362C38.8997 37.4636 38.8581 37.4688 38.8164 37.4688C36.8581 37.4949 31.1549 38.5626 28.6081 49.7918C28.4362 50.5626 28.2747 51.3803 28.1289 52.2449C28.1289 52.2501 28.1289 52.2501 28.1289 52.2501C27.6237 55.349 27.3216 59.0938 27.3216 63.6615C27.3216 65.8803 27.3945 68.297 27.5456 70.9272C27.6393 72.5418 28.9779 73.7865 30.5664 73.7865C30.6289 73.7865 30.6862 73.7865 30.7487 73.7813C32.4154 73.6824 33.6914 72.2449 33.5924 70.573C33.4414 68.0522 33.3789 65.7501 33.3789 63.6615C33.3789 59.3647 33.6602 55.948 34.1029 53.2449C34.1029 53.2449 34.1081 53.2397 34.1081 53.2345C34.2383 52.4168 34.3893 51.672 34.5508 50.9793C34.9779 49.1251 35.4883 47.7032 36.0143 46.6303V55.349L34.5039 56.7501C34.4518 57.2918 34.4102 57.849 34.3737 58.422L36.8477 56.1251L45.931 65.9636L32.5977 78.3334L28.7435 74.1563C27.9935 73.7501 27.3893 73.1043 27.0404 72.3126L23.5143 68.4949L26.5091 65.7136C26.4987 65.198 26.4935 64.6876 26.4935 64.1824L21.9102 68.4324L32.5352 79.9428L32.9518 79.5574L36.0143 76.7136V103.531C36.0143 106.12 38.1081 108.219 40.6914 108.219C43.2747 108.219 45.3737 106.12 45.3737 103.531V69.2813H47.1289V103.531C47.1289 106.12 49.2227 108.219 51.806 108.219C54.3893 108.219 56.4883 106.12 56.4883 103.531V43.3282C61.7904 42.8699 73.2539 41.6251 80.7122 38.9324C82.2852 38.3647 83.1029 36.6251 82.5352 35.047ZM49.8477 60.4897L46.4258 64.823L44.0039 62.198L42.6549 60.4897L44.7279 45.1928C45.2174 45.3751 45.7331 45.474 46.2487 45.474H46.2539C46.7695 45.474 47.2852 45.3751 47.7747 45.1928L49.8477 60.4897ZM44.8112 40.5678H47.6862L48.4049 43.4168L48.2956 43.5886C47.707 44.0834 46.9779 44.3334 46.2487 44.3334C45.5195 44.3334 44.7956 44.0834 44.2018 43.5886L44.0924 43.4168L44.8112 40.5678Z" fill="#E9E2D1"/>
</g>
<path d="M54.7656 26.7655C54.7656 27.328 54.7135 27.88 54.6042 28.4321C54.4948 28.979 54.3333 29.5155 54.1198 30.0311C53.9063 30.5519 53.6458 31.0415 53.3333 31.5103C53.0208 31.9738 52.6667 32.4061 52.276 32.8019C51.8802 33.1978 51.4479 33.5519 50.9844 33.8644C50.5156 34.1769 50.026 34.4373 49.5104 34.6509C48.9948 34.8696 48.4635 35.0311 47.9115 35.1405C47.3646 35.2498 46.8125 35.3019 46.25 35.3019C45.6927 35.3019 45.1406 35.2498 44.5885 35.1405C44.0417 35.0311 43.5104 34.8696 42.9948 34.6509C42.474 34.4373 41.9844 34.1769 41.5208 33.8644C41.0573 33.5519 40.625 33.1978 40.2292 32.8019C39.8333 32.4061 39.4792 31.9738 39.1719 31.5103C38.8594 31.0415 38.599 30.5519 38.3854 30.0311C38.1719 29.5155 38.0104 28.979 37.901 28.4321C37.7917 27.88 37.7344 27.328 37.7344 26.7655C37.7344 26.203 37.7917 25.6509 37.901 25.0988C38.0104 24.5519 38.1719 24.0155 38.3854 23.4998C38.599 22.979 38.8594 22.4894 39.1719 22.0207C39.4792 21.5571 39.8333 21.1248 40.2292 20.729C40.625 20.3332 41.0573 19.979 41.5208 19.6665C41.9844 19.354 42.474 19.0936 42.9948 18.88C43.5104 18.6665 44.0417 18.4998 44.5885 18.3905C45.1406 18.2811 45.6927 18.229 46.25 18.229C46.8125 18.229 47.3646 18.2811 47.9115 18.3905C48.4635 18.4998 48.9948 18.6665 49.5104 18.88C50.026 19.0936 50.5156 19.354 50.9844 19.6665C51.4479 19.979 51.8802 20.3332 52.276 20.729C52.6667 21.1248 53.0208 21.5571 53.3333 22.0207C53.6458 22.4894 53.9063 22.979 54.1198 23.4998C54.3333 24.0155 54.4948 24.5519 54.6042 25.0988C54.7135 25.6509 54.7656 26.203 54.7656 26.7655Z" fill="#E9E2D1"/>
<path d="M85.9883 32.1981V38.422H89.4466C89.6185 39.396 89.8685 40.3439 90.1966 41.2554L87.207 42.9897L90.3112 48.3752L93.306 46.6408C93.9362 47.3908 94.6289 48.0835 95.3737 48.7137L93.6445 51.7189L99.0195 54.8283L100.749 51.8335C101.66 52.1616 102.603 52.4116 103.577 52.5887V56.0522H109.785V52.5887C110.754 52.4116 111.702 52.1616 112.613 51.8335L114.337 54.8283L119.712 51.7189L117.983 48.7137C118.728 48.0835 119.421 47.3908 120.051 46.6408L123.046 48.3752L126.15 42.9897L123.16 41.2554C123.488 40.3439 123.738 39.396 123.915 38.422H127.374V32.1981H123.915C123.738 31.2241 123.488 30.2762 123.16 29.3647L126.15 27.6356L123.046 22.245L120.051 23.9793C119.421 23.2293 118.728 22.5366 117.983 21.9064L119.712 18.9012L114.337 15.7918L112.613 18.7866C111.702 18.4585 110.754 18.2085 109.785 18.0314V14.5679H103.577V18.0314C102.603 18.2085 101.66 18.4585 100.749 18.7866L99.0195 15.7918L93.6445 18.9012L95.3737 21.9064C94.6289 22.5366 93.9362 23.2293 93.306 23.9793L90.3112 22.245L87.207 27.6356L90.1966 29.3647C89.8685 30.2762 89.6185 31.2241 89.4466 32.1981H85.9883ZM96.8529 35.3127C96.8529 29.87 101.254 25.4585 106.681 25.4585C112.108 25.4585 116.509 29.87 116.509 35.3127C116.509 40.7502 112.108 45.1616 106.681 45.1616C101.254 45.1616 96.8529 40.7502 96.8529 35.3127Z" fill="#E9E2D1"/>
<path d="M111.947 35.3125C111.947 35.6563 111.911 36 111.843 36.3385C111.775 36.6823 111.676 37.0104 111.546 37.3281C111.411 37.651 111.249 37.9531 111.057 38.2448C110.864 38.5313 110.65 38.7969 110.406 39.0417C110.161 39.2865 109.895 39.5052 109.604 39.6979C109.317 39.8906 109.015 40.0521 108.697 40.1875C108.374 40.3177 108.046 40.4219 107.708 40.4896C107.369 40.5573 107.025 40.5885 106.682 40.5885C106.333 40.5885 105.994 40.5573 105.65 40.4896C105.312 40.4219 104.984 40.3177 104.666 40.1875C104.348 40.0521 104.041 39.8906 103.755 39.6979C103.468 39.5052 103.202 39.2865 102.958 39.0417C102.713 38.7969 102.494 38.5313 102.301 38.2448C102.109 37.9531 101.947 37.651 101.817 37.3281C101.682 37.0104 101.583 36.6823 101.515 36.3385C101.447 36 101.416 35.6563 101.416 35.3125C101.416 34.9635 101.447 34.6198 101.515 34.2813C101.583 33.9427 101.682 33.6094 101.817 33.2917C101.947 32.9687 102.109 32.6667 102.301 32.3802C102.494 32.0885 102.713 31.8229 102.958 31.5781C103.202 31.3333 103.468 31.1146 103.755 30.9219C104.041 30.7292 104.348 30.5677 104.666 30.4323C104.984 30.3021 105.312 30.2031 105.65 30.1354C105.994 30.0677 106.333 30.0312 106.682 30.0312C107.025 30.0312 107.369 30.0677 107.708 30.1354C108.046 30.2031 108.374 30.3021 108.697 30.4323C109.015 30.5677 109.317 30.7292 109.604 30.9219C109.895 31.1146 110.161 31.3333 110.406 31.5781C110.65 31.8229 110.864 32.0885 111.057 32.3802C111.249 32.6667 111.411 32.9687 111.546 33.2917C111.676 33.6094 111.775 33.9427 111.843 34.2813C111.911 34.6198 111.947 34.9635 111.947 35.3125Z" fill="#E9E2D1"/>
<path d="M4.47917 141.833H0V138.958H12.1667V141.833H7.6875V153.896H4.47917V141.833Z" fill="#E9E2D1"/>
<path d="M13.7539 142.583H16.3164L16.6497 143.875H16.7539C17.0716 143.39 17.4622 143.057 17.9206 142.875C18.3789 142.682 18.8789 142.583 19.4206 142.583H20.7956V145.479H19.6289C18.7227 145.479 18.0143 145.729 17.5039 146.229C17.0039 146.718 16.7539 147.39 16.7539 148.25V153.896H13.7539V142.583Z" fill="#E9E2D1"/>
<path d="M25.7051 154.104C25.0905 154.104 24.5384 154.021 24.0384 153.854C23.5488 153.677 23.1322 153.432 22.7884 153.125C22.4551 152.807 22.1947 152.432 22.0176 152C21.8509 151.573 21.7676 151.099 21.7676 150.583C21.7676 150.073 21.8561 149.604 22.0384 149.188C22.2155 148.76 22.4967 148.391 22.8717 148.083C23.2467 147.766 23.6947 147.516 24.2259 147.333C24.7676 147.156 25.403 147.063 26.1426 147.063H28.8092V146.542C28.8092 146 28.6322 145.599 28.2884 145.333C27.9395 145.073 27.4655 144.938 26.8717 144.938C26.4551 144.938 26.0905 145.036 25.7884 145.229C25.4967 145.411 25.2936 145.635 25.1842 145.896H22.1842C22.278 145.438 22.4551 145 22.7051 144.583C22.9551 144.167 23.2728 143.802 23.6634 143.479C24.0645 143.146 24.5384 142.885 25.0801 142.688C25.6217 142.479 26.2572 142.375 26.9967 142.375C28.4967 142.375 29.6686 142.74 30.5176 143.458C31.3613 144.182 31.7884 145.245 31.7884 146.646V153.896H29.2259L28.9134 152.625H28.8092C28.6842 152.781 28.5384 152.948 28.3717 153.125C28.2051 153.292 27.9863 153.453 27.7259 153.604C27.4759 153.76 27.1842 153.875 26.8509 153.958C26.5176 154.052 26.1322 154.104 25.7051 154.104ZM26.4551 151.646C27.1478 151.646 27.7103 151.453 28.1426 151.063C28.5853 150.677 28.8092 150.161 28.8092 149.521V149.208H26.2467C25.7051 149.208 25.3145 149.323 25.0801 149.542C24.8561 149.766 24.7467 150.042 24.7467 150.375C24.7467 150.75 24.877 151.057 25.1426 151.292C25.4186 151.531 25.8561 151.646 26.4551 151.646Z" fill="#E9E2D1"/>
<path d="M34.2298 142.583H37.2298V153.896H34.2298V142.583ZM35.7298 141.417C35.2402 141.417 34.834 141.26 34.5007 140.938C34.1777 140.604 34.0215 140.198 34.0215 139.708C34.0215 139.224 34.1777 138.823 34.5007 138.5C34.834 138.167 35.2402 138 35.7298 138C36.2142 138 36.6152 138.167 36.9382 138.5C37.2715 138.823 37.4382 139.224 37.4382 139.708C37.4382 140.198 37.2715 140.604 36.9382 140.938C36.6152 141.26 36.2142 141.417 35.7298 141.417Z" fill="#E9E2D1"/>
<path d="M39.7734 142.583H42.3359L42.6693 143.875H42.7734C43.1328 143.391 43.5703 143.021 44.0859 142.771C44.5964 142.51 45.1536 142.375 45.7526 142.375C46.362 142.375 46.9245 142.479 47.4401 142.688C47.9505 142.896 48.388 143.203 48.7526 143.604C49.112 143.995 49.3984 144.474 49.6068 145.042C49.8151 145.599 49.9193 146.24 49.9193 146.958V153.896H46.9193V147.396C46.9193 146.635 46.737 146.052 46.3776 145.646C46.0286 145.245 45.5339 145.042 44.8984 145.042C44.2578 145.042 43.7422 145.266 43.3568 145.708C42.9661 146.141 42.7734 146.703 42.7734 147.396V153.896H39.7734V142.583Z" fill="#E9E2D1"/>
<path d="M52.3568 142.583H55.3568V153.896H52.3568V142.583ZM53.8568 141.417C53.3672 141.417 52.9609 141.26 52.6276 140.938C52.3047 140.604 52.1484 140.198 52.1484 139.708C52.1484 139.224 52.3047 138.823 52.6276 138.5C52.9609 138.167 53.3672 138 53.8568 138C54.3411 138 54.7422 138.167 55.0651 138.5C55.3984 138.823 55.5651 139.224 55.5651 139.708C55.5651 140.198 55.3984 140.604 55.0651 140.938C54.7422 141.26 54.3411 141.417 53.8568 141.417Z" fill="#E9E2D1"/>
<path d="M57.9023 142.583H60.4648L60.7982 143.875H60.9023C61.2617 143.391 61.6992 143.021 62.2148 142.771C62.7253 142.51 63.2826 142.375 63.8815 142.375C64.4909 142.375 65.0534 142.479 65.569 142.688C66.0794 142.896 66.5169 143.203 66.8815 143.604C67.2409 143.995 67.5273 144.474 67.7357 145.042C67.944 145.599 68.0482 146.24 68.0482 146.958V153.896H65.0482V147.396C65.0482 146.635 64.8659 146.052 64.5065 145.646C64.1576 145.245 63.6628 145.042 63.0273 145.042C62.3867 145.042 61.8711 145.266 61.4857 145.708C61.0951 146.141 60.9023 146.703 60.9023 147.396V153.896H57.9023V142.583Z" fill="#E9E2D1"/>
<path d="M75.5065 158.167C74.6576 158.167 73.9284 158.063 73.319 157.854C72.7044 157.656 72.1836 157.385 71.7565 157.042C71.3398 156.693 70.9961 156.281 70.7357 155.813C70.4857 155.354 70.2982 154.854 70.1732 154.313H73.2773C73.3867 154.688 73.6367 154.979 74.0273 155.188C74.4128 155.396 74.9076 155.5 75.5065 155.5C76.2565 155.5 76.8294 155.318 77.2357 154.958C77.6523 154.609 77.8607 154.115 77.8607 153.479V151.875H77.7565C77.6315 152 77.4753 152.146 77.2982 152.313C77.1315 152.469 76.9128 152.62 76.6523 152.771C76.4023 152.911 76.1159 153.031 75.7982 153.125C75.4753 153.208 75.1315 153.25 74.7565 153.25C74.0326 153.25 73.3711 153.135 72.7773 152.896C72.194 152.661 71.694 152.313 71.2773 151.854C70.8607 151.396 70.5326 150.833 70.2982 150.167C70.0742 149.49 69.9648 148.703 69.9648 147.813C69.9648 146.938 70.0742 146.161 70.2982 145.479C70.5326 144.802 70.8607 144.229 71.2773 143.771C71.694 143.313 72.194 142.969 72.7773 142.729C73.3711 142.495 74.0326 142.375 74.7565 142.375C75.4492 142.375 76.0534 142.536 76.569 142.854C77.0951 143.161 77.5273 143.5 77.8607 143.875H77.9648L78.2773 142.583H80.8398V153.479C80.8398 154.979 80.4023 156.13 79.5273 156.938C78.6628 157.755 77.3242 158.167 75.5065 158.167ZM75.4023 150.583C76.1523 150.583 76.7461 150.344 77.194 149.854C77.6367 149.354 77.8607 148.677 77.8607 147.813C77.8607 146.969 77.6367 146.292 77.194 145.792C76.7461 145.292 76.1523 145.042 75.4023 145.042C74.6523 145.042 74.0534 145.292 73.6107 145.792C73.1628 146.292 72.944 146.969 72.944 147.813C72.944 148.677 73.1628 149.354 73.6107 149.854C74.0534 150.344 74.6523 150.583 75.4023 150.583Z" fill="#E9E2D1"/>
<path d="M88.2949 142.583H90.8574L91.1908 143.875H91.2949C91.597 143.5 92.0085 143.161 92.5241 142.854C93.0345 142.536 93.6908 142.375 94.4824 142.375C95.2168 142.375 95.8835 142.5 96.4824 142.75C97.0762 143 97.5918 143.375 98.0241 143.875C98.4512 144.375 98.7845 144.995 99.0241 145.729C99.2741 146.453 99.3991 147.292 99.3991 148.25C99.3991 149.208 99.2741 150.057 99.0241 150.792C98.7845 151.516 98.4512 152.125 98.0241 152.625C97.5918 153.115 97.0762 153.479 96.4824 153.729C95.8835 153.979 95.2168 154.104 94.4824 154.104C94.0658 154.104 93.6908 154.052 93.3574 153.958C93.0241 153.875 92.722 153.766 92.4616 153.625C92.2116 153.474 91.9928 153.323 91.8158 153.167C91.6335 153 91.4928 152.854 91.3991 152.729H91.2949V158.167H88.2949V142.583ZM93.8574 151.438C94.1908 151.438 94.5085 151.385 94.8158 151.271C95.1335 151.146 95.4095 150.953 95.6491 150.688C95.8835 150.427 96.071 150.094 96.2116 149.688C96.347 149.286 96.4199 148.807 96.4199 148.25C96.4199 147.698 96.347 147.219 96.2116 146.813C96.071 146.396 95.8835 146.057 95.6491 145.792C95.4095 145.531 95.1335 145.344 94.8158 145.229C94.5085 145.104 94.1908 145.042 93.8574 145.042C93.5085 145.042 93.1751 145.104 92.8574 145.229C92.5501 145.344 92.2793 145.531 92.0449 145.792C91.8053 146.057 91.6178 146.396 91.4824 146.813C91.3574 147.219 91.2949 147.698 91.2949 148.25C91.2949 148.807 91.3574 149.286 91.4824 149.688C91.6178 150.094 91.8053 150.427 92.0449 150.688C92.2793 150.953 92.5501 151.146 92.8574 151.271C93.1751 151.385 93.5085 151.438 93.8574 151.438Z" fill="#E9E2D1"/>
<path d="M101.41 142.583H103.973L104.306 143.875H104.41C104.728 143.39 105.118 143.057 105.577 142.875C106.035 142.682 106.535 142.583 107.077 142.583H108.452V145.479H107.285C106.379 145.479 105.671 145.729 105.16 146.229C104.66 146.718 104.41 147.39 104.41 148.25V153.896H101.41V142.583Z" fill="#E9E2D1"/>
<path d="M115.069 154.104C114.22 154.104 113.449 153.969 112.757 153.708C112.074 153.448 111.491 153.073 111.007 152.583C110.533 152.083 110.163 151.474 109.902 150.75C109.652 150.016 109.527 149.182 109.527 148.25C109.527 147.307 109.652 146.474 109.902 145.75C110.163 145.031 110.533 144.417 111.007 143.917C111.491 143.417 112.074 143.036 112.757 142.771C113.449 142.51 114.22 142.375 115.069 142.375C115.928 142.375 116.699 142.51 117.382 142.771C118.059 143.036 118.637 143.417 119.111 143.917C119.595 144.417 119.965 145.031 120.215 145.75C120.475 146.474 120.611 147.307 120.611 148.25C120.611 149.182 120.475 150.016 120.215 150.75C119.965 151.474 119.595 152.083 119.111 152.583C118.637 153.073 118.059 153.448 117.382 153.708C116.699 153.969 115.928 154.104 115.069 154.104ZM115.069 151.438C115.413 151.438 115.741 151.385 116.048 151.271C116.366 151.146 116.642 150.953 116.882 150.688C117.116 150.427 117.298 150.094 117.423 149.688C117.559 149.286 117.632 148.807 117.632 148.25C117.632 147.698 117.559 147.219 117.423 146.813C117.298 146.396 117.116 146.057 116.882 145.792C116.642 145.531 116.366 145.344 116.048 145.229C115.741 145.104 115.413 145.042 115.069 145.042C114.736 145.042 114.408 145.104 114.09 145.229C113.767 145.344 113.491 145.531 113.257 145.792C113.033 146.057 112.85 146.396 112.715 146.813C112.574 147.219 112.507 147.698 112.507 148.25C112.507 148.807 112.574 149.286 112.715 149.688C112.85 150.094 113.033 150.427 113.257 150.688C113.491 150.953 113.767 151.146 114.09 151.271C114.408 151.385 114.736 151.438 115.069 151.438Z" fill="#E9E2D1"/>
<path d="M127.653 158.167C126.804 158.167 126.075 158.063 125.465 157.854C124.851 157.656 124.33 157.385 123.903 157.042C123.486 156.693 123.143 156.281 122.882 155.813C122.632 155.354 122.445 154.854 122.32 154.313H125.424C125.533 154.688 125.783 154.979 126.174 155.188C126.559 155.396 127.054 155.5 127.653 155.5C128.403 155.5 128.976 155.318 129.382 154.958C129.799 154.609 130.007 154.115 130.007 153.479V151.875H129.903C129.778 152 129.622 152.146 129.445 152.313C129.278 152.469 129.059 152.62 128.799 152.771C128.549 152.911 128.262 153.031 127.945 153.125C127.622 153.208 127.278 153.25 126.903 153.25C126.179 153.25 125.518 153.135 124.924 152.896C124.34 152.661 123.84 152.313 123.424 151.854C123.007 151.396 122.679 150.833 122.445 150.167C122.221 149.49 122.111 148.703 122.111 147.813C122.111 146.938 122.221 146.161 122.445 145.479C122.679 144.802 123.007 144.229 123.424 143.771C123.84 143.313 124.34 142.969 124.924 142.729C125.518 142.495 126.179 142.375 126.903 142.375C127.596 142.375 128.2 142.536 128.715 142.854C129.242 143.161 129.674 143.5 130.007 143.875H130.111L130.424 142.583H132.986V153.479C132.986 154.979 132.549 156.13 131.674 156.938C130.809 157.755 129.471 158.167 127.653 158.167ZM127.549 150.583C128.299 150.583 128.893 150.344 129.34 149.854C129.783 149.354 130.007 148.677 130.007 147.813C130.007 146.969 129.783 146.292 129.34 145.792C128.893 145.292 128.299 145.042 127.549 145.042C126.799 145.042 126.2 145.292 125.757 145.792C125.309 146.292 125.09 146.969 125.09 147.813C125.09 148.677 125.309 149.354 125.757 149.854C126.2 150.344 126.799 150.583 127.549 150.583Z" fill="#E9E2D1"/>
<path d="M135.533 142.583H138.096L138.429 143.875H138.533C138.851 143.39 139.242 143.057 139.7 142.875C140.158 142.682 140.658 142.583 141.2 142.583H142.575V145.479H141.408C140.502 145.479 139.794 145.729 139.283 146.229C138.783 146.718 138.533 147.39 138.533 148.25V153.896H135.533V142.583Z" fill="#E9E2D1"/>
<path d="M147.484 154.104C146.87 154.104 146.318 154.021 145.818 153.854C145.328 153.677 144.911 153.432 144.568 153.125C144.234 152.807 143.974 152.432 143.797 152C143.63 151.573 143.547 151.099 143.547 150.583C143.547 150.073 143.635 149.604 143.818 149.188C143.995 148.76 144.276 148.391 144.651 148.083C145.026 147.766 145.474 147.516 146.005 147.333C146.547 147.156 147.182 147.063 147.922 147.063H150.589V146.542C150.589 146 150.411 145.599 150.068 145.333C149.719 145.073 149.245 144.938 148.651 144.938C148.234 144.938 147.87 145.036 147.568 145.229C147.276 145.411 147.073 145.635 146.964 145.896H143.964C144.057 145.438 144.234 145 144.484 144.583C144.734 144.167 145.052 143.802 145.443 143.479C145.844 143.146 146.318 142.885 146.859 142.688C147.401 142.479 148.036 142.375 148.776 142.375C150.276 142.375 151.448 142.74 152.297 143.458C153.141 144.182 153.568 145.245 153.568 146.646V153.896H151.005L150.693 152.625H150.589C150.464 152.781 150.318 152.948 150.151 153.125C149.984 153.292 149.766 153.453 149.505 153.604C149.255 153.76 148.964 153.875 148.63 153.958C148.297 154.052 147.911 154.104 147.484 154.104ZM148.234 151.646C148.927 151.646 149.49 151.453 149.922 151.063C150.365 150.677 150.589 150.161 150.589 149.521V149.208H148.026C147.484 149.208 147.094 149.323 146.859 149.542C146.635 149.766 146.526 150.042 146.526 150.375C146.526 150.75 146.656 151.057 146.922 151.292C147.198 151.531 147.635 151.646 148.234 151.646Z" fill="#E9E2D1"/>
<path d="M156.01 142.583H158.572L158.906 143.875H159.01C159.327 143.391 159.702 143.021 160.135 142.771C160.562 142.51 161.077 142.375 161.676 142.375C162.161 142.375 162.577 142.438 162.926 142.563C163.27 142.688 163.572 142.849 163.822 143.042C164.072 143.224 164.265 143.427 164.406 143.646C164.557 143.854 164.676 144.036 164.76 144.188H164.864C164.958 144.036 165.093 143.854 165.26 143.646C165.426 143.427 165.645 143.224 165.926 143.042C166.218 142.849 166.551 142.688 166.926 142.563C167.312 142.438 167.765 142.375 168.281 142.375C168.89 142.375 169.452 142.479 169.968 142.688C170.479 142.896 170.916 143.198 171.281 143.583C171.64 143.958 171.926 144.427 172.135 144.979C172.343 145.536 172.447 146.161 172.447 146.854V153.896H169.468V147.292C169.468 146.891 169.411 146.552 169.301 146.271C169.202 145.979 169.072 145.745 168.906 145.563C168.739 145.385 168.536 145.25 168.301 145.167C168.062 145.083 167.807 145.042 167.531 145.042C167.057 145.042 166.635 145.229 166.26 145.604C165.895 145.969 165.718 146.531 165.718 147.292V153.896H162.739V147.292C162.739 146.891 162.687 146.552 162.593 146.271C162.494 145.979 162.354 145.745 162.176 145.563C162.01 145.385 161.807 145.25 161.572 145.167C161.333 145.083 161.083 145.042 160.822 145.042C160.333 145.042 159.911 145.245 159.551 145.646C159.187 146.036 159.01 146.583 159.01 147.292V153.896H156.01V142.583Z" fill="#E9E2D1"/>
<path d="M179.05 154.104C178.227 154.104 177.519 154.005 176.925 153.813C176.326 153.62 175.826 153.349 175.425 153C175.019 152.656 174.706 152.26 174.488 151.813C174.279 151.37 174.123 150.891 174.029 150.375H177.238C177.29 150.641 177.472 150.885 177.779 151.104C178.081 151.328 178.508 151.438 179.05 151.438C179.785 151.438 180.285 151.354 180.55 151.188C180.826 151.01 180.967 150.807 180.967 150.583C180.967 150.307 180.805 150.104 180.488 149.979C180.165 149.844 179.764 149.724 179.279 149.625C178.805 149.531 178.285 149.427 177.717 149.313C177.16 149.203 176.639 149.016 176.154 148.75C175.665 148.49 175.264 148.125 174.946 147.667C174.623 147.198 174.467 146.573 174.467 145.792C174.467 145.307 174.561 144.865 174.758 144.458C174.967 144.042 175.258 143.682 175.633 143.375C176.019 143.073 176.498 142.828 177.071 142.646C177.639 142.469 178.3 142.375 179.05 142.375C179.842 142.375 180.529 142.474 181.113 142.667C181.696 142.849 182.18 143.099 182.571 143.417C182.972 143.74 183.279 144.115 183.488 144.542C183.706 144.958 183.868 145.411 183.967 145.896H180.758C180.701 145.688 180.55 145.495 180.3 145.313C180.061 145.135 179.644 145.042 179.05 145.042C178.561 145.042 178.186 145.12 177.925 145.271C177.675 145.411 177.55 145.583 177.55 145.792C177.55 146.073 177.706 146.281 178.029 146.417C178.363 146.542 178.764 146.656 179.238 146.75C179.722 146.849 180.243 146.958 180.8 147.083C181.368 147.198 181.894 147.385 182.383 147.646C182.868 147.896 183.269 148.26 183.592 148.729C183.91 149.188 184.071 149.807 184.071 150.583C184.071 151.042 183.988 151.479 183.821 151.896C183.654 152.313 183.373 152.688 182.988 153.021C182.613 153.354 182.097 153.62 181.446 153.813C180.805 154.005 180.008 154.104 179.05 154.104Z" fill="#E9E2D1"/>
</svg>
