<svg width="200" height="173" viewBox="0 0 200 173" fill="none" xmlns="http://www.w3.org/2000/svg">
<mask id="mask0_80_2352" style="mask-type:luminance" maskUnits="userSpaceOnUse" x="51" y="0" width="95" height="75">
<path d="M51.873 0H145.617V74.3232H51.873V0Z" fill="white"/>
</mask>
<g mask="url(#mask0_80_2352)">
<path d="M54.565 1.97775H143.16V72.0357H62.8309V74.0189H144.785V0H52.9395V15.1211H54.565V1.97775Z" fill="#E9E2D1"/>
</g>
<path d="M67.8672 13.1593H77.8882V15.2838H67.8672V13.1593Z" fill="#E9E2D1"/>
<path d="M120.703 7.4436H130.724V9.57349H120.703V7.4436Z" fill="#E9E2D1"/>
<path d="M120.703 58.9952H138.838V61.1251H120.703V58.9952Z" fill="#E9E2D1"/>
<path d="M120.703 64.0483H138.838V66.1728H120.703V64.0483Z" fill="#E9E2D1"/>
<path d="M72.9572 16.5391L72.3633 16.8651L75.3553 25.0695H80.9419V24.2762H75.7751L72.9572 16.5391Z" fill="#E9E2D1"/>
<path d="M116.672 17.0061H123.286L126.103 11.2359L125.545 10.8284L122.915 16.2183H116.672V17.0061Z" fill="#E9E2D1"/>
<path d="M74.3418 91.3025C74.3418 95.7253 76.9899 99.3928 80.4553 100.088H82.8355C86.3009 99.3928 88.949 95.7253 88.949 91.3025C88.949 86.3853 85.6802 82.3972 81.6432 82.3972C77.6107 82.3972 74.3418 86.3853 74.3418 91.3025Z" fill="#E9E2D1"/>
<path d="M101.766 91.3025C101.766 95.7253 104.409 99.3928 107.879 100.088H110.259C113.725 99.3928 116.368 95.7253 116.368 91.3025C116.368 86.3853 113.1 82.3972 109.067 82.3972C105.035 82.3972 101.766 86.3853 101.766 91.3025Z" fill="#E9E2D1"/>
<mask id="mask1_80_2352" style="mask-type:luminance" maskUnits="userSpaceOnUse" x="64" y="102" width="89" height="23">
<path d="M64.4453 102.142H152.71V125H64.4453V102.142Z" fill="white"/>
</mask>
<g mask="url(#mask1_80_2352)">
<path d="M145.544 103.315C144.436 102.631 143.463 102.479 142.878 102.468C142.838 102.468 142.802 102.462 142.762 102.462H130.222C130.177 102.462 130.137 102.468 130.092 102.473C129.507 102.479 128.538 102.636 127.44 103.315C125.814 104.299 124.073 106.363 122.778 109.944C122.407 108.933 122.01 108.042 121.585 107.255C120.523 105.282 119.272 104.016 118.12 103.315C117.012 102.631 116.039 102.479 115.454 102.468C115.414 102.468 115.378 102.462 115.338 102.462H102.798C102.758 102.462 102.713 102.468 102.673 102.468C102.084 102.479 101.115 102.636 100.016 103.315C98.3906 104.293 96.649 106.363 95.3539 109.944C94.9833 108.933 94.5858 108.042 94.1616 107.255C93.0987 105.282 91.8484 104.016 90.6962 103.315C89.5887 102.631 88.6152 102.479 88.0302 102.468C87.99 102.468 87.9543 102.462 87.9141 102.462H75.3745C75.3343 102.462 75.2896 102.468 75.2494 102.468C74.6599 102.479 73.6909 102.636 72.5923 103.315C70.8463 104.369 68.9662 106.679 67.6488 110.77C66.5681 114.095 65.7777 118.621 65.5098 124.978H70.7078C71.0115 118.339 71.9448 114.307 72.8692 112.009V124.978H90.4238V112.025C90.6158 112.509 90.8079 113.057 90.9999 113.704C91.7144 116.116 92.3396 119.746 92.5763 124.978H98.1316C98.4352 118.339 99.3686 114.307 100.293 112.009V124.978H117.848V112.025C118.04 112.509 118.232 113.057 118.424 113.704C119.138 116.116 119.759 119.746 120 124.978H125.555C125.859 118.339 126.792 114.307 127.712 112.009V124.978H145.267V112.025C145.459 112.509 145.655 113.057 145.847 113.704C146.562 116.116 147.183 119.74 147.424 124.978H152.622C152.247 116.008 150.836 110.661 149.009 107.255C147.946 105.282 146.696 104.016 145.544 103.315Z" fill="#E9E2D1"/>
</g>
<path d="M143.792 91.3025C143.792 91.8839 143.748 92.4653 143.654 93.0412C143.56 93.6117 143.422 94.1713 143.238 94.7093C143.055 95.2526 142.828 95.7633 142.564 96.2523C142.296 96.7359 141.993 97.1869 141.653 97.5998C141.314 98.0127 140.948 98.3822 140.55 98.7082C140.148 99.0342 139.728 99.3059 139.286 99.5287C138.844 99.7514 138.384 99.9199 137.915 100.034C137.446 100.148 136.969 100.208 136.491 100.208C136.013 100.208 135.535 100.148 135.066 100.034C134.597 99.9199 134.142 99.7514 133.695 99.5287C133.253 99.3059 132.833 99.0342 132.436 98.7082C132.034 98.3822 131.668 98.0127 131.329 97.5998C130.989 97.1869 130.685 96.7359 130.422 96.2523C130.154 95.7633 129.931 95.2526 129.743 94.7093C129.56 94.1713 129.422 93.6117 129.328 93.0412C129.234 92.4653 129.189 91.8839 129.189 91.3025C129.189 90.7157 129.234 90.1398 129.328 89.5638C129.422 88.9933 129.56 88.4337 129.743 87.8958C129.931 87.3525 130.154 86.8417 130.422 86.3527C130.685 85.8691 130.989 85.4182 131.329 85.0052C131.668 84.5923 132.034 84.2228 132.436 83.8968C132.833 83.5708 133.253 83.2992 133.695 83.0764C134.142 82.8482 134.597 82.6798 135.066 82.5657C135.535 82.4516 136.013 82.3972 136.491 82.3972C136.969 82.3972 137.446 82.4516 137.915 82.5657C138.384 82.6798 138.844 82.8482 139.286 83.0764C139.728 83.2992 140.148 83.5708 140.55 83.8968C140.948 84.2228 141.314 84.5923 141.653 85.0052C141.993 85.4182 142.296 85.8691 142.564 86.3527C142.828 86.8417 143.055 87.3525 143.238 87.8958C143.422 88.4337 143.56 88.9933 143.654 89.5638C143.748 90.1398 143.792 90.7157 143.792 91.3025Z" fill="#E9E2D1"/>
<mask id="mask2_80_2352" style="mask-type:luminance" maskUnits="userSpaceOnUse" x="27" y="32" width="54" height="82">
<path d="M27.7109 32.5947H80.4506V113.27H27.7109V32.5947Z" fill="white"/>
</mask>
<g mask="url(#mask2_80_2352)">
<path d="M79.7657 35.7733C79.2834 34.127 77.7963 33.2739 76.4432 33.8662C69.3205 36.9958 56.7496 38.1422 54.9052 38.2944H42.3835C42.3522 38.2944 42.3165 38.2998 42.2808 38.2998C40.6017 38.327 35.7117 39.4408 33.528 51.1552C33.3807 51.9593 33.2422 52.8123 33.1172 53.7143C33.1172 53.7197 33.1172 53.7197 33.1172 53.7197C32.684 56.9526 32.425 60.8592 32.425 65.6243C32.425 67.9389 32.4875 70.46 32.617 73.2038C32.6974 74.8882 33.8451 76.1867 35.2071 76.1867C35.2607 76.1867 35.3098 76.1867 35.3634 76.1813C36.7924 76.0781 37.8865 74.5785 37.8017 72.8343C37.6722 70.2046 37.6186 67.803 37.6186 65.6243C37.6186 61.1417 37.8597 57.5774 38.2393 54.7575C38.2393 54.7575 38.2438 54.7521 38.2438 54.7466C38.3554 53.8936 38.4849 53.1166 38.6234 52.394C38.9896 50.4597 39.4272 48.9764 39.8782 47.8571V56.9526L38.5832 58.4142C38.5385 58.9792 38.5028 59.5606 38.4715 60.1583L40.5927 57.7622L48.3809 68.0258L36.9487 80.9301L33.6441 76.5725C33.0011 76.1487 32.4831 75.475 32.1839 74.6491L29.1606 70.6664L31.7284 67.765C31.7194 67.2271 31.715 66.6946 31.715 66.1676L27.7852 70.6012L36.8951 82.609L37.2524 82.2069L39.8782 79.2403V107.217C39.8782 109.917 41.6734 112.107 43.8884 112.107C46.1034 112.107 47.9031 109.917 47.9031 107.217V71.4869H49.408V107.217C49.408 109.917 51.2032 112.107 53.4182 112.107C55.6332 112.107 57.4328 109.917 57.4328 107.217V44.4123C61.9789 43.9342 71.8079 42.6356 78.2027 39.8266C79.5513 39.2343 80.2525 37.4196 79.7657 35.7733ZM51.7391 62.3153L48.8051 66.8359L46.7286 64.0975L45.572 62.3153L47.3493 46.3575C47.7691 46.5477 48.2112 46.6509 48.6533 46.6509H48.6578C49.0999 46.6509 49.542 46.5477 49.9617 46.3575L51.7391 62.3153ZM47.4208 41.5326H49.8858L50.5021 44.5047L50.4083 44.684C49.9037 45.2002 49.2785 45.461 48.6533 45.461C48.0281 45.461 47.4074 45.2002 46.8983 44.684L46.8045 44.5047L47.4208 41.5326Z" fill="#E9E2D1"/>
</g>
<path d="M55.9563 27.1339C55.9563 27.7208 55.9116 28.2967 55.8179 28.8726C55.7241 29.4431 55.5856 30.0028 55.4026 30.5407C55.2195 31.084 54.9962 31.5948 54.7282 32.0838C54.4603 32.5673 54.1566 33.0183 53.8217 33.4312C53.4823 33.8442 53.1117 34.2136 52.7142 34.5396C52.3123 34.8656 51.8925 35.1373 51.4504 35.3601C51.0083 35.5883 50.5528 35.7567 50.0795 35.8708C49.6106 35.9849 49.1372 36.0393 48.6549 36.0393C48.1771 36.0393 47.7037 35.9849 47.2304 35.8708C46.7615 35.7567 46.306 35.5883 45.8639 35.3601C45.4173 35.1373 44.9975 34.8656 44.6001 34.5396C44.2026 34.2136 43.832 33.8442 43.4926 33.4312C43.1532 33.0183 42.8495 32.5673 42.586 32.0838C42.3181 31.5948 42.0948 31.084 41.9117 30.5407C41.7286 30.0028 41.5902 29.4431 41.4964 28.8726C41.4026 28.2967 41.3535 27.7208 41.3535 27.1339C41.3535 26.5471 41.4026 25.9712 41.4964 25.3953C41.5902 24.8248 41.7286 24.2651 41.9117 23.7272C42.0948 23.1839 42.3181 22.6731 42.586 22.1841C42.8495 21.7006 43.1532 21.2496 43.4926 20.8367C43.832 20.4237 44.2026 20.0543 44.6001 19.7283C44.9975 19.4022 45.4173 19.1306 45.8639 18.9078C46.306 18.685 46.7615 18.5112 47.2304 18.3971C47.7037 18.283 48.1771 18.2286 48.6549 18.2286C49.1372 18.2286 49.6106 18.283 50.0795 18.3971C50.5528 18.5112 51.0083 18.685 51.4504 18.9078C51.8925 19.1306 52.3123 19.4022 52.7142 19.7283C53.1117 20.0543 53.4823 20.4237 53.8217 20.8367C54.1566 21.2496 54.4603 21.7006 54.7282 22.1841C54.9962 22.6731 55.2195 23.1839 55.4026 23.7272C55.5856 24.2651 55.7241 24.8248 55.8179 25.3953C55.9116 25.9712 55.9563 26.5471 55.9563 27.1339Z" fill="#E9E2D1"/>
<path d="M82.7285 32.8013V39.2942H85.6937C85.8411 40.3102 86.0554 41.2991 86.3368 42.2499L83.7735 44.0592L86.435 49.6774L89.0028 47.868C89.5431 48.6504 90.1371 49.3731 90.7757 50.0305L89.2931 53.1656L93.9017 56.4093L95.3843 53.2851C96.1658 53.6274 96.974 53.8882 97.8091 54.073V57.6862H103.132V54.073C103.963 53.8882 104.776 53.6274 105.557 53.2851L107.035 56.4093L111.644 53.1656L110.161 50.0305C110.8 49.3731 111.394 48.6504 111.934 47.868L114.502 49.6774L117.163 44.0592L114.6 42.2499C114.881 41.2991 115.096 40.3102 115.248 39.2942H118.213V32.8013H115.248C115.096 31.7852 114.881 30.7964 114.6 29.8455L117.163 28.0416L114.502 22.4181L111.934 24.2274C111.394 23.445 110.8 22.7224 110.161 22.0649L111.644 18.9299L107.035 15.6861L105.557 18.8103C104.776 18.468 103.963 18.2072 103.132 18.0225V14.4093H97.8091V18.0225C96.974 18.2072 96.1658 18.468 95.3843 18.8103L93.9017 15.6861L89.2931 18.9299L90.7757 22.0649C90.1371 22.7224 89.5431 23.445 89.0028 24.2274L86.435 22.4181L83.7735 28.0416L86.3368 29.8455C86.0554 30.7964 85.8411 31.7852 85.6937 32.8013H82.7285ZM92.0439 36.0504C92.0439 30.3726 95.8174 25.7705 100.471 25.7705C105.124 25.7705 108.897 30.3726 108.897 36.0504C108.897 41.7229 105.124 46.325 100.471 46.325C95.8174 46.325 92.0439 41.7229 92.0439 36.0504Z" fill="#E9E2D1"/>
<path d="M104.985 36.0503C104.985 36.4089 104.953 36.7675 104.895 37.1207C104.837 37.4793 104.752 37.8216 104.641 38.1531C104.525 38.4899 104.386 38.8051 104.221 39.1093C104.056 39.4082 103.873 39.6853 103.663 39.9406C103.453 40.196 103.225 40.4242 102.975 40.6252C102.73 40.8263 102.471 40.9947 102.198 41.136C101.921 41.2718 101.64 41.3805 101.35 41.4511C101.059 41.5218 100.765 41.5544 100.47 41.5544C100.171 41.5544 99.8804 41.5218 99.5857 41.4511C99.2954 41.3805 99.0141 41.2718 98.7417 41.136C98.4693 40.9947 98.2058 40.8263 97.9602 40.6252C97.7146 40.4242 97.4868 40.196 97.2769 39.9406C97.067 39.6853 96.8795 39.4082 96.7142 39.1093C96.549 38.8051 96.4106 38.4899 96.2989 38.1531C96.1828 37.8216 96.098 37.4793 96.0399 37.1207C95.9819 36.7675 95.9551 36.4089 95.9551 36.0503C95.9551 35.6863 95.9819 35.3277 96.0399 34.9745C96.098 34.6214 96.1828 34.2736 96.2989 33.9422C96.4106 33.6053 96.549 33.2902 96.7142 32.9913C96.8795 32.6871 97.067 32.41 97.2769 32.1546C97.4868 31.8992 97.7146 31.671 97.9602 31.47C98.2058 31.269 98.4693 31.1005 98.7417 30.9593C99.0141 30.8234 99.2954 30.7202 99.5857 30.6496C99.8804 30.5789 100.171 30.5409 100.47 30.5409C100.765 30.5409 101.059 30.5789 101.35 30.6496C101.64 30.7202 101.921 30.8234 102.198 30.9593C102.471 31.1005 102.73 31.269 102.975 31.47C103.225 31.671 103.453 31.8992 103.663 32.1546C103.873 32.41 104.056 32.6871 104.221 32.9913C104.386 33.2902 104.525 33.6053 104.641 33.9422C104.752 34.2736 104.837 34.6214 104.895 34.9745C104.953 35.3277 104.985 35.6863 104.985 36.0503Z" fill="#E9E2D1"/>
<path d="M4.86678 155.139H0V152.035H13.2195V155.139H8.35276V168.167H4.86678V155.139Z" fill="#E9E2D1"/>
<path d="M14.9473 155.949H17.7315L18.0937 157.344H18.2069C18.5521 156.821 18.9765 156.461 19.4745 156.264C19.9725 156.056 20.5158 155.949 21.1043 155.949H22.5983V159.077H21.3307C20.346 159.077 19.5764 159.347 19.0218 159.887C18.4785 160.416 18.2069 161.141 18.2069 162.069V168.167H14.9473V155.949Z" fill="#E9E2D1"/>
<path d="M27.9325 168.392C27.2648 168.392 26.6649 168.302 26.1216 168.122C25.5897 167.931 25.137 167.666 24.7635 167.335C24.4013 166.991 24.1183 166.586 23.9259 166.12C23.7448 165.658 23.6543 165.146 23.6543 164.59C23.6543 164.038 23.7505 163.532 23.9486 163.082C24.141 162.621 24.4466 162.222 24.854 161.89C25.2615 161.547 25.7481 161.277 26.3254 161.08C26.9139 160.888 27.6043 160.787 28.4079 160.787H31.3053V160.225C31.3053 159.64 31.1129 159.207 30.7394 158.92C30.3603 158.639 29.8453 158.492 29.2002 158.492C28.7474 158.492 28.3513 158.599 28.0231 158.807C27.7062 159.004 27.4855 159.246 27.3666 159.527H24.107C24.2089 159.032 24.4013 158.56 24.6729 158.11C24.9446 157.66 25.2898 157.266 25.7142 156.917C26.1499 156.557 26.6649 156.276 27.2535 156.062C27.842 155.837 28.5324 155.725 29.336 155.725C30.9658 155.725 32.2391 156.119 33.1615 156.895C34.0783 157.677 34.5423 158.824 34.5423 160.337V168.167H31.7581L31.4185 166.795H31.3053C31.1695 166.963 31.0111 167.143 30.83 167.335C30.6489 167.515 30.4112 167.689 30.1282 167.852C29.8566 168.021 29.5397 168.145 29.1775 168.235C28.8153 168.336 28.3966 168.392 27.9325 168.392ZM28.7474 165.737C29.5001 165.737 30.1113 165.529 30.581 165.107C31.062 164.691 31.3053 164.134 31.3053 163.442V163.105H28.5211C27.9325 163.105 27.5081 163.228 27.2535 163.465C27.0101 163.707 26.8913 164.005 26.8913 164.365C26.8913 164.77 27.0327 165.101 27.3214 165.355C27.6213 165.613 28.0967 165.737 28.7474 165.737Z" fill="#E9E2D1"/>
<path d="M37.1951 155.95H40.4547V168.167H37.1951V155.95ZM38.8249 154.69C38.293 154.69 37.8516 154.521 37.4894 154.172C37.1385 153.812 36.9688 153.374 36.9688 152.845C36.9688 152.322 37.1385 151.889 37.4894 151.54C37.8516 151.18 38.293 151 38.8249 151C39.3512 151 39.787 151.18 40.1378 151.54C40.5 151.889 40.6811 152.322 40.6811 152.845C40.6811 153.374 40.5 153.812 40.1378 154.172C39.787 154.521 39.3512 154.69 38.8249 154.69Z" fill="#E9E2D1"/>
<path d="M43.2168 155.95H46.001L46.3632 157.345H46.4764C46.8669 156.822 47.3422 156.422 47.9025 156.152C48.4571 155.871 49.0626 155.725 49.7134 155.725C50.3755 155.725 50.9867 155.837 51.5469 156.062C52.1015 156.287 52.5769 156.619 52.973 157.052C53.3635 157.474 53.6747 157.992 53.9011 158.605C54.1274 159.207 54.2406 159.899 54.2406 160.675V168.167H50.981V161.147C50.981 160.326 50.7829 159.696 50.3925 159.257C50.0133 158.824 49.4757 158.605 48.7853 158.605C48.0892 158.605 47.529 158.847 47.1102 159.325C46.6858 159.792 46.4764 160.399 46.4764 161.147V168.167H43.2168V155.95Z" fill="#E9E2D1"/>
<path d="M56.8846 155.95H60.1442V168.167H56.8846V155.95ZM58.5144 154.69C57.9824 154.69 57.541 154.521 57.1788 154.172C56.828 153.812 56.6582 153.374 56.6582 152.845C56.6582 152.322 56.828 151.889 57.1788 151.54C57.541 151.18 57.9824 151 58.5144 151C59.0407 151 59.4764 151.18 59.8273 151.54C60.1894 151.889 60.3705 152.322 60.3705 152.845C60.3705 153.374 60.1894 153.812 59.8273 154.172C59.4764 154.521 59.0407 154.69 58.5144 154.69Z" fill="#E9E2D1"/>
<path d="M62.916 155.95H65.7003L66.0624 157.345H66.1756C66.5661 156.822 67.0415 156.422 67.6017 156.152C68.1563 155.871 68.7618 155.725 69.4126 155.725C70.0747 155.725 70.6859 155.837 71.2461 156.062C71.8007 156.287 72.2761 156.619 72.6722 157.052C73.0627 157.474 73.3739 157.992 73.6003 158.605C73.8267 159.207 73.9398 159.899 73.9398 160.675V168.167H70.6802V161.147C70.6802 160.326 70.4822 159.696 70.0917 159.257C69.7125 158.824 69.1749 158.605 68.4845 158.605C67.7885 158.605 67.2282 158.847 66.8094 159.325C66.385 159.792 66.1756 160.399 66.1756 161.147V168.167H62.916V155.95Z" fill="#E9E2D1"/>
<path d="M82.0408 172.779C81.1183 172.779 80.3261 172.667 79.664 172.442C78.9962 172.228 78.4303 171.936 77.9662 171.564C77.5135 171.188 77.14 170.743 76.8571 170.237C76.5854 169.742 76.3817 169.202 76.2459 168.617H79.6187C79.7375 169.022 80.0092 169.337 80.4336 169.562C80.8524 169.787 81.39 169.9 82.0408 169.9C82.8557 169.9 83.4782 169.703 83.9196 169.315C84.3723 168.938 84.5986 168.403 84.5986 167.717V165.985H84.4855C84.3497 166.12 84.1799 166.277 83.9875 166.457C83.8064 166.626 83.5687 166.789 83.2858 166.952C83.0141 167.104 82.7029 167.233 82.3577 167.335C82.0068 167.425 81.6333 167.47 81.2259 167.47C80.4392 167.47 79.7205 167.346 79.0754 167.087C78.4416 166.834 77.8983 166.457 77.4456 165.962C76.9929 165.467 76.6364 164.86 76.3817 164.14C76.1384 163.408 76.0195 162.559 76.0195 161.597C76.0195 160.652 76.1384 159.814 76.3817 159.077C76.6364 158.346 76.9929 157.727 77.4456 157.232C77.8983 156.737 78.4416 156.366 79.0754 156.107C79.7205 155.854 80.4392 155.725 81.2259 155.725C81.9785 155.725 82.635 155.899 83.1952 156.242C83.7668 156.574 84.2365 156.94 84.5986 157.345H84.7118L85.0514 155.95H87.8356V167.717C87.8356 169.337 87.3603 170.58 86.4095 171.452C85.4701 172.335 84.0158 172.779 82.0408 172.779ZM81.9276 164.59C82.7425 164.59 83.3876 164.331 83.8743 163.802C84.3553 163.262 84.5986 162.531 84.5986 161.597C84.5986 160.686 84.3553 159.955 83.8743 159.415C83.3876 158.875 82.7425 158.605 81.9276 158.605C81.1127 158.605 80.4619 158.875 79.9809 159.415C79.4942 159.955 79.2565 160.686 79.2565 161.597C79.2565 162.531 79.4942 163.262 79.9809 163.802C80.4619 164.331 81.1127 164.59 81.9276 164.59Z" fill="#E9E2D1"/>
<path d="M95.9355 155.95H98.7198L99.082 157.345H99.1952C99.5234 156.94 99.9704 156.574 100.531 156.242C101.085 155.899 101.798 155.725 102.658 155.725C103.456 155.725 104.181 155.86 104.832 156.13C105.477 156.4 106.037 156.805 106.507 157.345C106.971 157.885 107.333 158.554 107.593 159.347C107.865 160.129 108.001 161.035 108.001 162.07C108.001 163.105 107.865 164.022 107.593 164.815C107.333 165.596 106.971 166.255 106.507 166.795C106.037 167.323 105.477 167.717 104.832 167.987C104.181 168.257 103.456 168.392 102.658 168.392C102.206 168.392 101.798 168.336 101.436 168.235C101.074 168.145 100.746 168.026 100.463 167.875C100.191 167.711 99.9535 167.548 99.7611 167.38C99.563 167.2 99.4102 167.042 99.3083 166.907H99.1952V172.779H95.9355V155.95ZM101.979 165.512C102.342 165.512 102.687 165.456 103.021 165.332C103.366 165.197 103.666 164.989 103.926 164.702C104.181 164.421 104.385 164.061 104.537 163.622C104.684 163.189 104.764 162.672 104.764 162.07C104.764 161.473 104.684 160.956 104.537 160.517C104.385 160.067 104.181 159.702 103.926 159.415C103.666 159.134 103.366 158.931 103.021 158.807C102.687 158.672 102.342 158.605 101.979 158.605C101.6 158.605 101.238 158.672 100.893 158.807C100.559 158.931 100.265 159.134 100.01 159.415C99.7497 159.702 99.546 160.067 99.3989 160.517C99.2631 160.956 99.1952 161.473 99.1952 162.07C99.1952 162.672 99.2631 163.189 99.3989 163.622C99.546 164.061 99.7497 164.421 100.01 164.702C100.265 164.989 100.559 165.197 100.893 165.332C101.238 165.456 101.6 165.512 101.979 165.512Z" fill="#E9E2D1"/>
<path d="M110.188 155.949H112.972L113.334 157.344H113.447C113.792 156.821 114.217 156.461 114.715 156.264C115.213 156.056 115.756 155.949 116.345 155.949H117.839V159.077H116.571C115.586 159.077 114.817 159.347 114.262 159.887C113.719 160.416 113.447 161.141 113.447 162.069V168.167H110.188V155.949Z" fill="#E9E2D1"/>
<path d="M125.025 168.392C124.103 168.392 123.265 168.246 122.513 167.965C121.771 167.683 121.137 167.278 120.611 166.75C120.096 166.21 119.694 165.551 119.411 164.77C119.14 163.977 119.004 163.077 119.004 162.07C119.004 161.052 119.14 160.152 119.411 159.37C119.694 158.594 120.096 157.93 120.611 157.39C121.137 156.85 121.771 156.439 122.513 156.152C123.265 155.871 124.103 155.725 125.025 155.725C125.959 155.725 126.796 155.871 127.538 156.152C128.273 156.439 128.902 156.85 129.417 157.39C129.943 157.93 130.345 158.594 130.616 159.37C130.899 160.152 131.046 161.052 131.046 162.07C131.046 163.077 130.899 163.977 130.616 164.77C130.345 165.551 129.943 166.21 129.417 166.75C128.902 167.278 128.273 167.683 127.538 167.965C126.796 168.246 125.959 168.392 125.025 168.392ZM125.025 165.512C125.399 165.512 125.755 165.456 126.089 165.332C126.434 165.197 126.734 164.989 126.994 164.702C127.249 164.421 127.447 164.061 127.583 163.622C127.73 163.189 127.809 162.672 127.809 162.07C127.809 161.473 127.73 160.956 127.583 160.517C127.447 160.067 127.249 159.702 126.994 159.415C126.734 159.134 126.434 158.931 126.089 158.807C125.755 158.672 125.399 158.605 125.025 158.605C124.663 158.605 124.306 158.672 123.961 158.807C123.61 158.931 123.31 159.134 123.056 159.415C122.812 159.702 122.614 160.067 122.467 160.517C122.314 160.956 122.241 161.473 122.241 162.07C122.241 162.672 122.314 163.189 122.467 163.622C122.614 164.061 122.812 164.421 123.056 164.702C123.31 164.989 123.61 165.197 123.961 165.332C124.306 165.456 124.663 165.512 125.025 165.512Z" fill="#E9E2D1"/>
<path d="M138.703 172.779C137.78 172.779 136.988 172.667 136.326 172.442C135.658 172.228 135.092 171.936 134.628 171.564C134.176 171.188 133.802 170.743 133.519 170.237C133.248 169.742 133.044 169.202 132.908 168.617H136.281C136.4 169.022 136.671 169.337 137.096 169.562C137.514 169.787 138.052 169.9 138.703 169.9C139.518 169.9 140.14 169.703 140.582 169.315C141.034 168.938 141.261 168.403 141.261 167.717V165.985H141.148C141.012 166.12 140.842 166.277 140.65 166.457C140.468 166.626 140.231 166.789 139.948 166.952C139.676 167.104 139.365 167.233 139.02 167.335C138.669 167.425 138.295 167.47 137.888 167.47C137.101 167.47 136.383 167.346 135.738 167.087C135.104 166.834 134.56 166.457 134.108 165.962C133.655 165.467 133.298 164.86 133.044 164.14C132.8 163.408 132.682 162.559 132.682 161.597C132.682 160.652 132.8 159.814 133.044 159.077C133.298 158.346 133.655 157.727 134.108 157.232C134.56 156.737 135.104 156.366 135.738 156.107C136.383 155.854 137.101 155.725 137.888 155.725C138.641 155.725 139.297 155.899 139.857 156.242C140.429 156.574 140.899 156.94 141.261 157.345H141.374L141.713 155.95H144.498V167.717C144.498 169.337 144.022 170.58 143.072 171.452C142.132 172.335 140.678 172.779 138.703 172.779ZM138.59 164.59C139.405 164.59 140.05 164.331 140.536 163.802C141.017 163.262 141.261 162.531 141.261 161.597C141.261 160.686 141.017 159.955 140.536 159.415C140.05 158.875 139.405 158.605 138.59 158.605C137.775 158.605 137.124 158.875 136.643 159.415C136.156 159.955 135.919 160.686 135.919 161.597C135.919 162.531 136.156 163.262 136.643 163.802C137.124 164.331 137.775 164.59 138.59 164.59Z" fill="#E9E2D1"/>
<path d="M147.262 155.949H150.046L150.408 157.344H150.521C150.867 156.821 151.291 156.461 151.789 156.264C152.287 156.056 152.83 155.949 153.419 155.949H154.913V159.077H153.645C152.66 159.077 151.891 159.347 151.336 159.887C150.793 160.416 150.521 161.141 150.521 162.069V168.167H147.262V155.949Z" fill="#E9E2D1"/>
<path d="M160.249 168.392C159.581 168.392 158.981 168.302 158.438 168.122C157.906 167.931 157.453 167.666 157.08 167.335C156.718 166.991 156.435 166.586 156.242 166.12C156.061 165.658 155.971 165.146 155.971 164.59C155.971 164.038 156.067 163.532 156.265 163.082C156.457 162.621 156.763 162.222 157.17 161.89C157.578 161.547 158.065 161.277 158.642 161.08C159.23 160.888 159.921 160.787 160.724 160.787H163.622V160.225C163.622 159.64 163.429 159.207 163.056 158.92C162.677 158.639 162.162 158.492 161.517 158.492C161.064 158.492 160.668 158.599 160.339 158.807C160.023 159.004 159.802 159.246 159.683 159.527H156.423C156.525 159.032 156.718 158.56 156.989 158.11C157.261 157.66 157.606 157.266 158.031 156.917C158.466 156.557 158.981 156.276 159.57 156.062C160.158 155.837 160.849 155.725 161.652 155.725C163.282 155.725 164.555 156.119 165.478 156.895C166.395 157.677 166.859 158.824 166.859 160.337V168.167H164.074L163.735 166.795H163.622C163.486 166.963 163.327 167.143 163.146 167.335C162.965 167.515 162.728 167.689 162.445 167.852C162.173 168.021 161.856 168.145 161.494 168.235C161.132 168.336 160.713 168.392 160.249 168.392ZM161.064 165.737C161.817 165.737 162.428 165.529 162.897 165.107C163.378 164.691 163.622 164.134 163.622 163.442V163.105H160.837C160.249 163.105 159.825 163.228 159.57 163.465C159.327 163.707 159.208 164.005 159.208 164.365C159.208 164.77 159.349 165.101 159.638 165.355C159.938 165.613 160.413 165.737 161.064 165.737Z" fill="#E9E2D1"/>
<path d="M169.512 155.95H172.296L172.658 157.345H172.771C173.117 156.822 173.524 156.422 173.994 156.152C174.458 155.871 175.018 155.725 175.669 155.725C176.195 155.725 176.648 155.792 177.027 155.927C177.4 156.062 177.729 156.237 178 156.445C178.272 156.642 178.481 156.861 178.634 157.097C178.798 157.322 178.928 157.519 179.019 157.682H179.132C179.234 157.519 179.381 157.322 179.562 157.097C179.743 156.861 179.981 156.642 180.287 156.445C180.603 156.237 180.966 156.062 181.373 155.927C181.792 155.792 182.284 155.725 182.844 155.725C183.507 155.725 184.118 155.837 184.678 156.062C185.233 156.287 185.708 156.614 186.104 157.03C186.495 157.435 186.806 157.941 187.032 158.537C187.258 159.139 187.372 159.814 187.372 160.562V168.167H184.135V161.035C184.135 160.602 184.072 160.236 183.954 159.932C183.846 159.617 183.705 159.364 183.524 159.167C183.342 158.976 183.122 158.83 182.867 158.74C182.607 158.65 182.329 158.605 182.03 158.605C181.515 158.605 181.056 158.807 180.649 159.212C180.253 159.606 180.06 160.213 180.06 161.035V168.167H176.823V161.035C176.823 160.602 176.767 160.236 176.665 159.932C176.557 159.617 176.404 159.364 176.212 159.167C176.031 158.976 175.81 158.83 175.556 158.74C175.295 158.65 175.024 158.605 174.741 158.605C174.209 158.605 173.75 158.824 173.36 159.257C172.964 159.679 172.771 160.27 172.771 161.035V168.167H169.512V155.95Z" fill="#E9E2D1"/>
<path d="M194.543 168.392C193.649 168.392 192.879 168.285 192.234 168.077C191.584 167.869 191.04 167.576 190.605 167.2C190.163 166.828 189.824 166.401 189.586 165.917C189.36 165.439 189.19 164.922 189.088 164.365H192.574C192.63 164.652 192.829 164.916 193.162 165.152C193.491 165.394 193.955 165.512 194.543 165.512C195.341 165.512 195.884 165.422 196.173 165.242C196.473 165.051 196.626 164.832 196.626 164.59C196.626 164.292 196.45 164.072 196.105 163.937C195.754 163.791 195.319 163.662 194.792 163.555C194.277 163.453 193.711 163.341 193.094 163.217C192.489 163.099 191.923 162.897 191.397 162.61C190.865 162.328 190.429 161.935 190.084 161.44C189.733 160.933 189.563 160.258 189.563 159.415C189.563 158.892 189.665 158.414 189.88 157.975C190.107 157.525 190.423 157.137 190.831 156.805C191.25 156.479 191.77 156.214 192.393 156.017C193.01 155.826 193.728 155.725 194.543 155.725C195.403 155.725 196.15 155.832 196.784 156.04C197.418 156.237 197.944 156.507 198.369 156.85C198.804 157.199 199.138 157.604 199.365 158.065C199.602 158.515 199.778 159.004 199.885 159.527H196.399C196.337 159.302 196.173 159.094 195.901 158.897C195.641 158.706 195.188 158.605 194.543 158.605C194.011 158.605 193.604 158.689 193.321 158.852C193.049 159.004 192.913 159.19 192.913 159.415C192.913 159.719 193.083 159.943 193.434 160.09C193.796 160.225 194.232 160.348 194.747 160.45C195.273 160.557 195.839 160.675 196.445 160.81C197.061 160.933 197.633 161.136 198.165 161.417C198.691 161.687 199.127 162.081 199.478 162.587C199.823 163.082 199.999 163.752 199.999 164.59C199.999 165.085 199.908 165.557 199.727 166.007C199.546 166.457 199.24 166.862 198.821 167.222C198.414 167.582 197.854 167.869 197.146 168.077C196.45 168.285 195.584 168.392 194.543 168.392Z" fill="#E9E2D1"/>
</svg>
