<svg width="18" height="21" viewBox="0 0 18 21" fill="none" xmlns="http://www.w3.org/2000/svg">
<path d="M9.00001 0.137695C6.81276 0.140252 4.71584 1.00222 3.16923 2.53451C1.62261 4.06681 0.752589 6.14431 0.750009 8.31131C0.747389 10.0822 1.33124 11.805 2.41201 13.2155C2.41201 13.2155 2.63701 13.509 2.67376 13.5513L9.00001 20.9433L15.3293 13.5476C15.3623 13.5082 15.588 13.2155 15.588 13.2155L15.5888 13.2132C16.669 11.8034 17.2526 10.0814 17.25 8.31131C17.2474 6.14431 16.3774 4.06681 14.8308 2.53451C13.2842 1.00222 11.1873 0.140252 9.00001 0.137695ZM9.00001 11.2835C8.40666 11.2835 7.82665 11.1092 7.3333 10.7826C6.83995 10.456 6.45543 9.99183 6.22837 9.44873C6.00131 8.90562 5.9419 8.30801 6.05765 7.73145C6.17341 7.1549 6.45913 6.6253 6.87869 6.20963C7.29825 5.79395 7.83279 5.51088 8.41474 5.39619C8.99668 5.28151 9.59988 5.34037 10.1481 5.56533C10.6962 5.79029 11.1648 6.17125 11.4944 6.66003C11.8241 7.14881 12 7.72346 12 8.31131C11.999 9.09929 11.6826 9.85471 11.1202 10.4119C10.5578 10.9691 9.79535 11.2825 9.00001 11.2835Z" fill="#112B3C"/>
<path d="M9 11.2833C10.6569 11.2833 12 9.9526 12 8.31109C12 6.66958 10.6569 5.33887 9 5.33887C7.34315 5.33887 6 6.66958 6 8.31109C6 9.9526 7.34315 11.2833 9 11.2833Z" fill="#112B3C"/>
</svg>
