<svg width="19" height="19" viewBox="0 0 19 19" fill="none" xmlns="http://www.w3.org/2000/svg">
<path d="M17.0002 8.91958H19.0002C19.0002 3.83708 15.1272 0.00390625 9.99023 0.00390625V1.98539C14.0522 1.98539 17.0002 4.90114 17.0002 8.91958Z" fill="#112B3C"/>
<path d="M9.99979 5.94882C12.1028 5.94882 12.9998 6.83752 12.9998 8.92104H14.9998C14.9998 5.7259 13.2248 3.96734 9.99979 3.96734V5.94882ZM13.4218 11.3414C13.2296 11.1684 12.9771 11.0761 12.7176 11.0841C12.4581 11.092 12.2118 11.1996 12.0308 11.384L9.63779 13.8222C9.06179 13.7133 7.90379 13.3556 6.71179 12.1776C5.51979 10.9957 5.15879 9.8454 5.05179 9.2787L7.51079 6.90687C7.69721 6.72767 7.80593 6.48364 7.81396 6.22643C7.82198 5.96922 7.72868 5.71901 7.55379 5.52875L3.85879 1.50337C3.68384 1.31251 3.44067 1.19674 3.18095 1.18064C2.92122 1.16455 2.66539 1.2494 2.46779 1.41717L0.297794 3.26094C0.124905 3.43285 0.0217132 3.66165 0.00779368 3.90393C-0.00720632 4.15162 -0.293206 10.0188 4.29879 14.5702C8.30479 18.5382 13.3228 18.8284 14.7048 18.8284C14.9068 18.8284 15.0308 18.8225 15.0638 18.8205C15.3083 18.807 15.5391 18.7043 15.7118 18.5322L17.5718 16.3813C17.7413 16.1857 17.8271 15.9323 17.811 15.675C17.795 15.4177 17.6783 15.1767 17.4858 15.0032L13.4218 11.3414Z" fill="#112B3C"/>
</svg>
