<svg width="271" height="271" viewBox="0 0 271 271" fill="none" xmlns="http://www.w3.org/2000/svg">
<mask id="mask0_296_47" style="mask-type:luminance" maskUnits="userSpaceOnUse" x="0" y="0" width="271" height="271">
<path d="M0.21875 0.401031H270.682V270.87H0.21875V0.401031Z" fill="white"/>
</mask>
<g mask="url(#mask0_296_47)">
<mask id="mask1_296_47" style="mask-type:luminance" maskUnits="userSpaceOnUse" x="0" y="0" width="271" height="271">
<path d="M40.2031 0.401031H230.698C241.302 0.401031 251.474 4.61457 258.974 12.1146C266.474 19.6146 270.682 29.7812 270.682 40.3854V230.885C270.682 241.49 266.474 251.656 258.974 259.156C251.474 266.656 241.302 270.87 230.698 270.87H40.2031C29.599 270.87 19.4271 266.656 11.9323 259.156C4.43229 251.656 0.21875 241.49 0.21875 230.885V40.3854C0.21875 29.7812 4.43229 19.6146 11.9323 12.1146C19.4271 4.61457 29.599 0.401031 40.2031 0.401031Z" fill="white"/>
</mask>
<g mask="url(#mask1_296_47)">
<path d="M0.21875 0.401031H270.682V270.87H0.21875V0.401031Z" fill="#112B3C"/>
</g>
</g>
<path d="M47.61 233.514C46.4121 233.514 45.3288 233.327 44.36 232.952C43.4017 232.577 42.5736 232.024 41.8809 231.285C41.1986 230.551 40.6725 229.655 40.2975 228.597C39.9329 227.53 39.7559 226.316 39.7559 224.952C39.7559 223.592 39.9329 222.379 40.2975 221.306C40.6725 220.238 41.1986 219.342 41.8809 218.618C42.5736 217.884 43.4017 217.327 44.36 216.952C45.3288 216.566 46.4121 216.368 47.61 216.368C48.6517 216.368 49.5736 216.509 50.3809 216.785C51.1829 217.051 51.8861 217.426 52.485 217.91C53.0788 218.399 53.5736 218.972 53.9642 219.639C54.3652 220.306 54.6725 221.045 54.8809 221.847H51.1725C51.0319 221.514 50.86 221.217 50.6517 220.952C50.4434 220.676 50.1986 220.441 49.9225 220.243C49.6413 220.035 49.3079 219.879 48.9225 219.764C48.5475 219.655 48.11 219.597 47.61 219.597C46.985 219.597 46.4069 219.712 45.8809 219.931C45.3652 220.155 44.9121 220.488 44.5267 220.931C44.1517 221.379 43.8496 221.941 43.6309 222.618C43.4225 223.285 43.3184 224.066 43.3184 224.952C43.3184 225.842 43.4225 226.629 43.6309 227.306C43.8496 227.972 44.1517 228.53 44.5267 228.972C44.9121 229.42 45.3652 229.754 45.8809 229.972C46.4069 230.196 46.985 230.306 47.61 230.306C48.11 230.306 48.5475 230.254 48.9225 230.139C49.3079 230.03 49.6413 229.868 49.9225 229.66C50.1986 229.452 50.4434 229.217 50.6517 228.952C50.86 228.691 51.0319 228.389 51.1725 228.056H54.8809C54.6725 228.863 54.3652 229.597 53.9642 230.264C53.5736 230.931 53.0788 231.509 52.485 231.993C51.8861 232.483 51.1829 232.858 50.3809 233.118C49.5736 233.379 48.6517 233.514 47.61 233.514Z" fill="#EBE3D2"/>
<path d="M57.022 220.66H59.8761L60.2303 222.097H60.3553C60.7147 221.556 61.147 221.181 61.647 220.972C62.1574 220.764 62.7147 220.66 63.3136 220.66H64.8761V223.889H63.5636C62.548 223.889 61.7563 224.17 61.1886 224.722C60.6313 225.28 60.3553 226.03 60.3553 226.972V233.285H57.022V220.66Z" fill="#EBE3D2"/>
<path d="M72.2485 233.514C71.3006 233.514 70.4465 233.368 69.686 233.077C68.9204 232.785 68.2694 232.363 67.7277 231.806C67.186 231.254 66.7694 230.571 66.4777 229.764C66.1965 228.962 66.061 228.03 66.061 226.972C66.061 225.931 66.1965 225.009 66.4777 224.202C66.7694 223.384 67.186 222.696 67.7277 222.139C68.2694 221.587 68.9204 221.16 69.686 220.868C70.4465 220.577 71.3006 220.431 72.2485 220.431C73.2069 220.431 74.061 220.577 74.811 220.868C75.5715 221.16 76.2277 221.587 76.7694 222.139C77.311 222.696 77.7173 223.384 77.9985 224.202C78.2902 225.009 78.436 225.931 78.436 226.972C78.436 228.03 78.2902 228.962 77.9985 229.764C77.7173 230.571 77.311 231.254 76.7694 231.806C76.2277 232.363 75.5715 232.785 74.811 233.077C74.061 233.368 73.2069 233.514 72.2485 233.514ZM72.2485 230.556C72.634 230.556 73.0037 230.488 73.3527 230.347C73.6965 230.212 74.0037 229.993 74.2694 229.702C74.5298 229.41 74.7329 229.045 74.8735 228.597C75.0246 228.139 75.1027 227.597 75.1027 226.972C75.1027 226.363 75.0246 225.827 74.8735 225.368C74.7329 224.91 74.5298 224.535 74.2694 224.243C74.0037 223.952 73.6965 223.743 73.3527 223.618C73.0037 223.483 72.634 223.41 72.2485 223.41C71.8735 223.41 71.5037 223.483 71.1444 223.618C70.7954 223.743 70.4881 223.952 70.2277 224.243C69.9777 224.535 69.7746 224.91 69.6235 225.368C69.4673 225.827 69.3944 226.363 69.3944 226.972C69.3944 227.597 69.4673 228.139 69.6235 228.597C69.7746 229.045 69.9777 229.41 70.2277 229.702C70.4881 229.993 70.7954 230.212 71.1444 230.347C71.5037 230.488 71.8735 230.556 72.2485 230.556Z" fill="#EBE3D2"/>
<path d="M79.4014 220.66H82.8389L84.9847 229.118H85.1097L87.2555 220.66H90.7139L92.8597 229.118H92.9639L95.1097 220.66H98.318L94.8805 233.285H91.193L89.0472 225.306H88.9222L86.7764 233.285H82.8389L79.4014 220.66Z" fill="#EBE3D2"/>
<path d="M104.757 233.514C103.949 233.514 103.215 233.373 102.548 233.097C101.882 232.821 101.303 232.405 100.819 231.847C100.329 231.295 99.9492 230.613 99.6732 229.806C99.4076 229.004 99.2773 228.056 99.2773 226.972C99.2773 225.92 99.4076 224.983 99.6732 224.16C99.9492 223.342 100.329 222.655 100.819 222.097C101.303 221.545 101.882 221.129 102.548 220.847C103.215 220.571 103.949 220.431 104.757 220.431C105.225 220.431 105.652 220.488 106.027 220.597C106.402 220.696 106.725 220.821 107.007 220.972C107.298 221.129 107.533 221.301 107.715 221.493C107.908 221.676 108.074 221.837 108.215 221.972H108.319V216.618H111.652V233.285H108.798L108.444 231.847H108.319C108.152 232.056 107.949 232.264 107.715 232.472C107.491 232.67 107.236 232.847 106.944 233.014C106.652 233.17 106.324 233.285 105.965 233.368C105.6 233.462 105.199 233.514 104.757 233.514ZM105.465 230.556C105.85 230.556 106.22 230.488 106.569 230.347C106.913 230.212 107.22 229.993 107.486 229.702C107.746 229.41 107.949 229.045 108.09 228.597C108.241 228.139 108.319 227.597 108.319 226.972C108.319 226.363 108.241 225.827 108.09 225.368C107.949 224.91 107.746 224.535 107.486 224.243C107.22 223.952 106.913 223.743 106.569 223.618C106.22 223.483 105.85 223.41 105.465 223.41C105.09 223.41 104.72 223.483 104.361 223.618C104.012 223.743 103.704 223.952 103.444 224.243C103.194 224.535 102.991 224.91 102.84 225.368C102.684 225.827 102.611 226.363 102.611 226.972C102.611 227.597 102.684 228.139 102.84 228.597C102.991 229.045 103.194 229.41 103.444 229.702C103.704 229.993 104.012 230.212 104.361 230.347C104.72 230.488 105.09 230.556 105.465 230.556Z" fill="#EBE3D2"/>
<path d="M120.121 220.66H122.975L123.329 222.097H123.454C123.814 221.556 124.23 221.149 124.704 220.868C125.173 220.577 125.746 220.431 126.413 220.431C126.954 220.431 127.418 220.504 127.809 220.639C128.194 220.78 128.527 220.952 128.809 221.16C129.085 221.368 129.309 221.592 129.475 221.827C129.642 222.066 129.772 222.274 129.871 222.452H129.996C130.09 222.274 130.23 222.066 130.413 221.827C130.605 221.592 130.861 221.368 131.184 221.16C131.501 220.952 131.876 220.78 132.309 220.639C132.736 220.504 133.236 220.431 133.809 220.431C134.486 220.431 135.111 220.551 135.684 220.785C136.251 221.009 136.736 221.337 137.142 221.764C137.559 222.196 137.876 222.722 138.1 223.347C138.335 223.962 138.454 224.655 138.454 225.431V233.285H135.121V225.91C135.121 225.467 135.064 225.087 134.954 224.764C134.84 224.446 134.689 224.191 134.496 223.993C134.298 223.785 134.069 223.639 133.809 223.556C133.559 223.462 133.277 223.41 132.975 223.41C132.434 223.41 131.96 223.618 131.559 224.035C131.152 224.441 130.954 225.066 130.954 225.91V233.285H127.621V225.91C127.621 225.467 127.564 225.087 127.454 224.764C127.34 224.446 127.189 224.191 126.996 223.993C126.798 223.785 126.569 223.639 126.309 223.556C126.043 223.462 125.767 223.41 125.475 223.41C124.934 223.41 124.46 223.634 124.059 224.077C123.652 224.524 123.454 225.134 123.454 225.91V233.285H120.121V220.66Z" fill="#EBE3D2"/>
<path d="M146.777 233.514C145.829 233.514 144.975 233.368 144.214 233.077C143.449 232.785 142.798 232.363 142.256 231.806C141.714 231.254 141.298 230.571 141.006 229.764C140.725 228.962 140.589 228.03 140.589 226.972C140.589 225.931 140.725 225.009 141.006 224.202C141.298 223.384 141.714 222.696 142.256 222.139C142.798 221.587 143.449 221.16 144.214 220.868C144.975 220.577 145.829 220.431 146.777 220.431C147.735 220.431 148.589 220.577 149.339 220.868C150.1 221.16 150.756 221.587 151.298 222.139C151.839 222.696 152.246 223.384 152.527 224.202C152.819 225.009 152.964 225.931 152.964 226.972C152.964 228.03 152.819 228.962 152.527 229.764C152.246 230.571 151.839 231.254 151.298 231.806C150.756 232.363 150.1 232.785 149.339 233.077C148.589 233.368 147.735 233.514 146.777 233.514ZM146.777 230.556C147.162 230.556 147.532 230.488 147.881 230.347C148.225 230.212 148.532 229.993 148.798 229.702C149.058 229.41 149.261 229.045 149.402 228.597C149.553 228.139 149.631 227.597 149.631 226.972C149.631 226.363 149.553 225.827 149.402 225.368C149.261 224.91 149.058 224.535 148.798 224.243C148.532 223.952 148.225 223.743 147.881 223.618C147.532 223.483 147.162 223.41 146.777 223.41C146.402 223.41 146.032 223.483 145.673 223.618C145.324 223.743 145.016 223.952 144.756 224.243C144.506 224.535 144.303 224.91 144.152 225.368C143.996 225.827 143.923 226.363 143.923 226.972C143.923 227.597 143.996 228.139 144.152 228.597C144.303 229.045 144.506 229.41 144.756 229.702C145.016 229.993 145.324 230.212 145.673 230.347C146.032 230.488 146.402 230.556 146.777 230.556Z" fill="#EBE3D2"/>
<path d="M155.242 220.66H158.096L158.451 222.097H158.576C158.977 221.556 159.461 221.149 160.034 220.868C160.617 220.577 161.242 220.431 161.909 220.431C162.586 220.431 163.211 220.551 163.784 220.785C164.352 221.009 164.836 221.342 165.242 221.785C165.643 222.233 165.961 222.764 166.201 223.389C166.435 224.014 166.555 224.738 166.555 225.556V233.285H163.201V226.014C163.201 225.181 162.997 224.545 162.596 224.097C162.206 223.639 161.659 223.41 160.951 223.41C160.227 223.41 159.648 223.655 159.221 224.139C158.789 224.613 158.576 225.238 158.576 226.014V233.285H155.242V220.66Z" fill="#EBE3D2"/>
<path d="M169.291 220.66H172.624V233.285H169.291V220.66ZM170.958 219.347C170.416 219.347 169.958 219.17 169.583 218.806C169.218 218.446 169.041 217.993 169.041 217.452C169.041 216.91 169.218 216.462 169.583 216.097C169.958 215.722 170.416 215.535 170.958 215.535C171.484 215.535 171.926 215.722 172.291 216.097C172.666 216.462 172.854 216.91 172.854 217.452C172.854 217.993 172.666 218.446 172.291 218.806C171.926 219.17 171.484 219.347 170.958 219.347Z" fill="#EBE3D2"/>
<path d="M180.482 233.285C179.159 233.285 178.174 232.972 177.523 232.347C176.867 231.712 176.544 230.795 176.544 229.597V223.764H174.523V220.66H176.544L177.023 217.327H179.878V220.66H182.857V223.764H179.878V228.993C179.878 229.368 179.982 229.66 180.19 229.868C180.409 230.077 180.701 230.181 181.065 230.181H182.857V233.285H180.482Z" fill="#EBE3D2"/>
<path d="M190.827 233.514C189.879 233.514 189.025 233.368 188.265 233.077C187.499 232.785 186.848 232.363 186.306 231.806C185.765 231.254 185.348 230.571 185.056 229.764C184.775 228.962 184.64 228.03 184.64 226.972C184.64 225.931 184.775 225.009 185.056 224.202C185.348 223.384 185.765 222.696 186.306 222.139C186.848 221.587 187.499 221.16 188.265 220.868C189.025 220.577 189.879 220.431 190.827 220.431C191.785 220.431 192.64 220.577 193.39 220.868C194.15 221.16 194.806 221.587 195.348 222.139C195.89 222.696 196.296 223.384 196.577 224.202C196.869 225.009 197.015 225.931 197.015 226.972C197.015 228.03 196.869 228.962 196.577 229.764C196.296 230.571 195.89 231.254 195.348 231.806C194.806 232.363 194.15 232.785 193.39 233.077C192.64 233.368 191.785 233.514 190.827 233.514ZM190.827 230.556C191.213 230.556 191.582 230.488 191.931 230.347C192.275 230.212 192.582 229.993 192.848 229.702C193.108 229.41 193.312 229.045 193.452 228.597C193.603 228.139 193.681 227.597 193.681 226.972C193.681 226.363 193.603 225.827 193.452 225.368C193.312 224.91 193.108 224.535 192.848 224.243C192.582 223.952 192.275 223.743 191.931 223.618C191.582 223.483 191.213 223.41 190.827 223.41C190.452 223.41 190.082 223.483 189.723 223.618C189.374 223.743 189.067 223.952 188.806 224.243C188.556 224.535 188.353 224.91 188.202 225.368C188.046 225.827 187.973 226.363 187.973 226.972C187.973 227.597 188.046 228.139 188.202 228.597C188.353 229.045 188.556 229.41 188.806 229.702C189.067 229.993 189.374 230.212 189.723 230.347C190.082 230.488 190.452 230.556 190.827 230.556Z" fill="#EBE3D2"/>
<path d="M199.292 220.66H202.147L202.501 222.097H202.626C202.985 221.556 203.417 221.181 203.917 220.972C204.428 220.764 204.985 220.66 205.584 220.66H207.147V223.889H205.834C204.819 223.889 204.027 224.17 203.459 224.722C202.902 225.28 202.626 226.03 202.626 226.972V233.285H199.292V220.66Z" fill="#EBE3D2"/>
<path d="M208.936 220.66H212.269V233.285H208.936V220.66ZM210.603 219.347C210.061 219.347 209.603 219.17 209.228 218.806C208.863 218.446 208.686 217.993 208.686 217.452C208.686 216.91 208.863 216.462 209.228 216.097C209.603 215.722 210.061 215.535 210.603 215.535C211.129 215.535 211.571 215.722 211.936 216.097C212.311 216.462 212.499 216.91 212.499 217.452C212.499 217.993 212.311 218.446 211.936 218.806C211.571 219.17 211.129 219.347 210.603 219.347Z" fill="#EBE3D2"/>
<path d="M215.127 220.66H217.981L218.335 222.097H218.46C218.861 221.556 219.346 221.149 219.919 220.868C220.502 220.577 221.127 220.431 221.794 220.431C222.471 220.431 223.096 220.551 223.669 220.785C224.236 221.009 224.721 221.342 225.127 221.785C225.528 222.233 225.846 222.764 226.085 223.389C226.32 224.014 226.439 224.738 226.439 225.556V233.285H223.085V226.014C223.085 225.181 222.882 224.545 222.481 224.097C222.09 223.639 221.544 223.41 220.835 223.41C220.111 223.41 219.533 223.655 219.106 224.139C218.674 224.613 218.46 225.238 218.46 226.014V233.285H215.127V220.66Z" fill="#EBE3D2"/>
<path d="M234.759 238.056C233.811 238.056 232.993 237.941 232.3 237.722C231.618 237.498 231.04 237.191 230.571 236.806C230.113 236.415 229.738 235.957 229.446 235.431C229.165 234.915 228.951 234.358 228.8 233.764H232.259C232.384 234.181 232.66 234.498 233.092 234.722C233.535 234.957 234.092 235.077 234.759 235.077C235.603 235.077 236.248 234.873 236.696 234.472C237.155 234.082 237.384 233.524 237.384 232.806V231.014H237.259C237.134 231.17 236.967 231.337 236.759 231.514C236.561 231.696 236.321 231.868 236.03 232.035C235.748 232.191 235.431 232.321 235.071 232.431C234.722 232.53 234.342 232.577 233.925 232.577C233.118 232.577 232.384 232.446 231.717 232.181C231.061 231.92 230.498 231.53 230.03 231.014C229.571 230.504 229.207 229.868 228.946 229.118C228.696 228.358 228.571 227.483 228.571 226.493C228.571 225.509 228.696 224.639 228.946 223.889C229.207 223.139 229.571 222.509 230.03 221.993C230.498 221.467 231.061 221.077 231.717 220.827C232.384 220.566 233.118 220.431 233.925 220.431C234.701 220.431 235.384 220.608 235.967 220.952C236.55 221.301 237.019 221.681 237.384 222.097H237.509L237.863 220.66H240.717V232.806C240.717 234.483 240.228 235.774 239.259 236.681C238.285 237.597 236.785 238.056 234.759 238.056ZM234.634 229.597C235.478 229.597 236.144 229.321 236.634 228.764C237.134 228.212 237.384 227.452 237.384 226.493C237.384 225.551 237.134 224.801 236.634 224.243C236.144 223.691 235.478 223.41 234.634 223.41C233.8 223.41 233.134 223.691 232.634 224.243C232.144 224.801 231.905 225.551 231.905 226.493C231.905 227.452 232.144 228.212 232.634 228.764C233.134 229.321 233.8 229.597 234.634 229.597Z" fill="#EBE3D2"/>
<path d="M82.9748 259.042C82.1258 259.042 81.381 258.927 80.7456 258.709C80.105 258.49 79.5581 258.177 79.0998 257.771C78.6519 257.37 78.3133 256.891 78.0789 256.334C77.855 255.782 77.7456 255.177 77.7456 254.521C77.7456 253.745 77.9227 253.016 78.2873 252.334C78.6466 251.657 79.2144 251.078 79.9956 250.605L80.9539 250L80.2456 249.292C79.8289 248.875 79.48 248.396 79.2039 247.855C78.9383 247.302 78.8081 246.667 78.8081 245.959C78.8081 245.417 78.9175 244.907 79.1414 244.417C79.3758 243.933 79.7039 243.5 80.1206 243.125C80.5373 242.75 81.0373 242.453 81.6206 242.23C82.2039 242.011 82.855 241.896 83.5789 241.896C85.131 241.896 86.3133 242.282 87.1206 243.042C87.9227 243.792 88.3289 244.766 88.3289 245.959C88.3289 246.625 88.1831 247.271 87.8914 247.896C87.6102 248.511 87.0841 249.052 86.3081 249.521L85.3498 250.125L88.0998 252.855L89.7664 251.188H93.8081L90.1206 254.875L94.0581 258.813H89.8914L88.0998 257.021C87.8185 257.23 87.5164 257.453 87.1831 257.688C86.8498 257.927 86.4748 258.146 86.0581 258.355C85.6519 258.552 85.1935 258.709 84.6831 258.834C84.1675 258.969 83.5998 259.042 82.9748 259.042ZM83.2039 256.084C83.7456 256.084 84.2456 255.98 84.7039 255.771C85.1727 255.552 85.5894 255.25 85.9539 254.875L82.9748 251.917L82.2664 252.375C81.5425 252.865 81.1831 253.5 81.1831 254.292C81.1831 254.834 81.3498 255.271 81.6831 255.605C82.0269 255.927 82.5373 256.084 83.2039 256.084ZM84.1623 247.625C84.3966 247.448 84.6102 247.25 84.8081 247.042C85.0164 246.834 85.1206 246.552 85.1206 246.188C85.1206 245.771 84.98 245.433 84.7039 245.167C84.4227 244.907 84.0477 244.771 83.5789 244.771C83.0894 244.771 82.7091 244.912 82.4331 245.188C82.1519 245.469 82.0164 245.844 82.0164 246.313C82.0164 246.62 82.0894 246.875 82.2456 247.084C82.4123 247.282 82.6102 247.5 82.8498 247.75L83.3289 248.209L84.1623 247.625Z" fill="#EBE3D2"/>
<path d="M105.354 259.042C104.406 259.042 103.552 258.896 102.792 258.605C102.026 258.313 101.375 257.891 100.833 257.334C100.292 256.782 99.8748 256.099 99.5832 255.292C99.3019 254.49 99.1665 253.558 99.1665 252.5C99.1665 251.459 99.3019 250.537 99.5832 249.73C99.8748 248.912 100.292 248.224 100.833 247.667C101.375 247.115 102.026 246.688 102.792 246.396C103.552 246.105 104.406 245.959 105.354 245.959C106.239 245.959 107.021 246.084 107.687 246.334C108.354 246.573 108.922 246.907 109.396 247.334C109.864 247.75 110.25 248.24 110.542 248.792C110.833 249.334 111.047 249.896 111.187 250.48H107.854C107.614 250.011 107.302 249.636 106.917 249.355C106.542 249.078 106.021 248.938 105.354 248.938C104.521 248.938 103.833 249.24 103.292 249.834C102.76 250.417 102.5 251.308 102.5 252.5C102.5 253.698 102.76 254.594 103.292 255.188C103.833 255.787 104.521 256.084 105.354 256.084C106.021 256.084 106.542 255.948 106.917 255.667C107.302 255.391 107.614 255.011 107.854 254.521H111.187C111.047 255.136 110.833 255.709 110.542 256.25C110.25 256.782 109.864 257.261 109.396 257.688C108.922 258.105 108.354 258.438 107.687 258.688C107.021 258.922 106.239 259.042 105.354 259.042Z" fill="#EBE3D2"/>
<path d="M118.926 259.042C117.978 259.042 117.124 258.896 116.364 258.605C115.598 258.313 114.947 257.891 114.405 257.334C113.864 256.782 113.447 256.099 113.155 255.292C112.874 254.49 112.739 253.558 112.739 252.5C112.739 251.459 112.874 250.537 113.155 249.73C113.447 248.912 113.864 248.224 114.405 247.667C114.947 247.115 115.598 246.688 116.364 246.396C117.124 246.105 117.978 245.959 118.926 245.959C119.885 245.959 120.739 246.105 121.489 246.396C122.249 246.688 122.905 247.115 123.447 247.667C123.989 248.224 124.395 248.912 124.676 249.73C124.968 250.537 125.114 251.459 125.114 252.5C125.114 253.558 124.968 254.49 124.676 255.292C124.395 256.099 123.989 256.782 123.447 257.334C122.905 257.891 122.249 258.313 121.489 258.605C120.739 258.896 119.885 259.042 118.926 259.042ZM118.926 256.084C119.312 256.084 119.681 256.016 120.03 255.875C120.374 255.74 120.681 255.521 120.947 255.23C121.208 254.938 121.411 254.573 121.551 254.125C121.702 253.667 121.78 253.125 121.78 252.5C121.78 251.891 121.702 251.355 121.551 250.896C121.411 250.438 121.208 250.063 120.947 249.771C120.681 249.48 120.374 249.271 120.03 249.146C119.681 249.011 119.312 248.938 118.926 248.938C118.551 248.938 118.181 249.011 117.822 249.146C117.473 249.271 117.166 249.48 116.905 249.771C116.655 250.063 116.452 250.438 116.301 250.896C116.145 251.355 116.072 251.891 116.072 252.5C116.072 253.125 116.145 253.667 116.301 254.125C116.452 254.573 116.655 254.938 116.905 255.23C117.166 255.521 117.473 255.74 117.822 255.875C118.181 256.016 118.551 256.084 118.926 256.084Z" fill="#EBE3D2"/>
<path d="M127.392 246.188H130.246L130.6 247.625H130.725C131.126 247.084 131.61 246.677 132.183 246.396C132.767 246.105 133.392 245.959 134.058 245.959C134.735 245.959 135.36 246.078 135.933 246.313C136.501 246.537 136.985 246.87 137.392 247.313C137.793 247.761 138.11 248.292 138.35 248.917C138.584 249.542 138.704 250.266 138.704 251.084V258.813H135.35V251.542C135.35 250.709 135.147 250.073 134.746 249.625C134.355 249.167 133.808 248.938 133.1 248.938C132.376 248.938 131.798 249.183 131.371 249.667C130.938 250.141 130.725 250.766 130.725 251.542V258.813H127.392V246.188Z" fill="#EBE3D2"/>
<path d="M146.44 258.813C145.117 258.813 144.132 258.5 143.481 257.875C142.825 257.24 142.502 256.323 142.502 255.125V249.292H140.481V246.188H142.502L142.981 242.854H145.836V246.188H148.815V249.292H145.836V254.521C145.836 254.896 145.94 255.188 146.148 255.396C146.367 255.604 146.659 255.709 147.023 255.709H148.815V258.813H146.44Z" fill="#EBE3D2"/>
<path d="M151.202 246.188H154.056L154.41 247.625H154.535C154.895 247.084 155.327 246.709 155.827 246.5C156.338 246.292 156.895 246.188 157.494 246.188H159.056V249.417H157.744C156.728 249.417 155.937 249.698 155.369 250.25C154.812 250.808 154.535 251.558 154.535 252.5V258.813H151.202V246.188Z" fill="#EBE3D2"/>
<path d="M166.429 259.042C165.481 259.042 164.627 258.896 163.867 258.605C163.101 258.313 162.45 257.891 161.908 257.334C161.367 256.782 160.95 256.099 160.658 255.292C160.377 254.49 160.242 253.558 160.242 252.5C160.242 251.459 160.377 250.537 160.658 249.73C160.95 248.912 161.367 248.224 161.908 247.667C162.45 247.115 163.101 246.688 163.867 246.396C164.627 246.105 165.481 245.959 166.429 245.959C167.388 245.959 168.242 246.105 168.992 246.396C169.752 246.688 170.408 247.115 170.95 247.667C171.492 248.224 171.898 248.912 172.179 249.73C172.471 250.537 172.617 251.459 172.617 252.5C172.617 253.558 172.471 254.49 172.179 255.292C171.898 256.099 171.492 256.782 170.95 257.334C170.408 257.891 169.752 258.313 168.992 258.605C168.242 258.896 167.388 259.042 166.429 259.042ZM166.429 256.084C166.815 256.084 167.184 256.016 167.533 255.875C167.877 255.74 168.184 255.521 168.45 255.23C168.71 254.938 168.914 254.573 169.054 254.125C169.205 253.667 169.283 253.125 169.283 252.5C169.283 251.891 169.205 251.355 169.054 250.896C168.914 250.438 168.71 250.063 168.45 249.771C168.184 249.48 167.877 249.271 167.533 249.146C167.184 249.011 166.815 248.938 166.429 248.938C166.054 248.938 165.684 249.011 165.325 249.146C164.976 249.271 164.669 249.48 164.408 249.771C164.158 250.063 163.955 250.438 163.804 250.896C163.648 251.355 163.575 251.891 163.575 252.5C163.575 253.125 163.648 253.667 163.804 254.125C163.955 254.573 164.158 254.938 164.408 255.23C164.669 255.521 164.976 255.74 165.325 255.875C165.684 256.016 166.054 256.084 166.429 256.084Z" fill="#EBE3D2"/>
<path d="M174.999 242.146H178.332V258.813H174.999V242.146Z" fill="#EBE3D2"/>
<path d="M154.489 180.214C154.26 179.828 153.844 179.568 153.364 179.568H146.833C146.354 179.568 145.937 179.828 145.708 180.214C145.047 181.021 143.812 183.276 143.651 188.937H156.547C156.385 183.276 155.151 181.021 154.489 180.214Z" fill="#EBE3D2"/>
<path d="M150.099 170.995C148 170.995 146.297 172.698 146.297 174.802C146.297 176.901 148 178.604 150.099 178.604C152.198 178.604 153.901 176.901 153.901 174.802C153.901 172.698 152.198 170.995 150.099 170.995Z" fill="#EBE3D2"/>
<path d="M131.203 186.547C130.974 186.161 130.557 185.901 130.078 185.901H123.547C123.068 185.901 122.651 186.161 122.422 186.547C122.104 186.932 121.651 187.656 121.25 188.938H132.375C131.974 187.656 131.521 186.932 131.203 186.547Z" fill="#EBE3D2"/>
<path d="M123.01 181.13C123.01 183.234 124.713 184.938 126.812 184.938C128.911 184.938 130.614 183.234 130.614 181.13C130.614 179.031 128.911 177.328 126.812 177.328C124.713 177.328 123.01 179.031 123.01 181.13Z" fill="#EBE3D2"/>
<path d="M96.4325 181.536C96.6148 181.635 96.8179 181.703 97.0419 181.714C97.0731 181.719 97.1044 181.719 97.1356 181.719C97.896 181.719 98.5314 181.13 98.5835 180.365C99.245 170.266 97.3856 166.745 96.495 165.667C96.2502 165.25 95.8023 164.974 95.2866 164.974H88.2866C87.771 164.974 87.3231 165.25 87.0783 165.667C86.1877 166.75 84.3335 170.266 84.9898 180.365C85.0418 181.13 85.6773 181.719 86.4377 181.719C86.4689 181.719 86.5002 181.719 86.5314 181.714C86.7554 181.703 86.9585 181.635 87.1408 181.536L87.62 188.937H95.9533L96.4325 181.536Z" fill="#EBE3D2"/>
<path d="M95.8647 159.859C95.8647 160.401 95.7606 160.922 95.5522 161.417C95.3491 161.917 95.0522 162.359 94.672 162.745C94.2866 163.125 93.8491 163.422 93.3491 163.625C92.8491 163.833 92.3283 163.938 91.7866 163.938C91.245 163.938 90.7241 163.833 90.2293 163.625C89.7293 163.422 89.2866 163.125 88.9064 162.745C88.521 162.359 88.2293 161.917 88.021 161.417C87.8127 160.922 87.7085 160.401 87.7085 159.859C87.7085 159.318 87.8127 158.797 88.021 158.297C88.2293 157.797 88.521 157.354 88.9064 156.974C89.2866 156.589 89.7293 156.297 90.2293 156.089C90.7241 155.88 91.245 155.776 91.7866 155.776C92.3283 155.776 92.8491 155.88 93.3491 156.089C93.8491 156.297 94.2866 156.589 94.672 156.974C95.0522 157.354 95.3491 157.797 95.5522 158.297C95.7606 158.797 95.8647 159.318 95.8647 159.859Z" fill="#EBE3D2"/>
<path d="M176.058 188.062C176.209 188.146 176.375 188.198 176.552 188.208C176.578 188.208 176.604 188.214 176.63 188.214C177.245 188.214 177.766 187.734 177.802 187.109C178.339 178.911 176.834 176.057 176.11 175.177C175.912 174.844 175.547 174.615 175.13 174.615H169.443C169.026 174.615 168.662 174.844 168.464 175.177C167.745 176.057 166.235 178.911 166.771 187.109C166.813 187.734 167.328 188.214 167.943 188.214C167.969 188.214 167.995 188.208 168.021 188.208C168.203 188.198 168.37 188.146 168.516 188.062L168.573 188.932H176L176.058 188.062Z" fill="#EBE3D2"/>
<path d="M172.287 173.776C174.115 173.776 175.599 172.292 175.599 170.464C175.599 168.635 174.115 167.151 172.287 167.151C170.459 167.151 168.979 168.635 168.979 170.464C168.979 172.292 170.459 173.776 172.287 173.776Z" fill="#EBE3D2"/>
<path d="M125.109 155.297C125.13 155.297 125.156 155.292 125.177 155.292C125.323 155.281 125.464 155.24 125.583 155.172L126.24 165.328C126.297 166.156 127.01 166.786 127.839 166.734C128.167 166.708 128.464 166.583 128.703 166.385C128.937 166.583 129.234 166.708 129.562 166.734C130.391 166.786 131.104 166.156 131.161 165.328L131.818 155.172C131.943 155.24 132.078 155.281 132.229 155.292C132.25 155.292 132.271 155.297 132.292 155.297C132.802 155.297 133.229 154.901 133.26 154.385C133.703 147.609 132.458 145.25 131.859 144.521C131.698 144.245 131.396 144.057 131.052 144.057H126.354C126.005 144.057 125.703 144.245 125.542 144.521C124.943 145.25 123.698 147.609 124.141 154.385C124.177 154.901 124.604 155.297 125.109 155.297Z" fill="#EBE3D2"/>
<path d="M125.963 140.625C125.963 142.135 127.187 143.365 128.703 143.365C130.213 143.365 131.437 142.135 131.437 140.625C131.437 139.115 130.213 137.885 128.703 137.885C127.187 137.885 125.963 139.115 125.963 140.625Z" fill="#EBE3D2"/>
<path d="M180.349 154.385C180.38 154.901 180.813 155.297 181.318 155.297C181.339 155.297 181.36 155.292 181.386 155.292C181.531 155.281 181.672 155.24 181.792 155.172L182.448 165.328C182.505 166.156 183.219 166.786 184.047 166.734C184.375 166.708 184.672 166.583 184.906 166.385C185.146 166.583 185.443 166.708 185.771 166.734C186.599 166.786 187.313 166.156 187.37 165.328L188.026 155.172C188.146 155.24 188.287 155.281 188.432 155.292C188.458 155.292 188.479 155.297 188.5 155.297C189.005 155.297 189.438 154.901 189.469 154.385C189.912 147.609 188.667 145.25 188.068 144.521C187.906 144.245 187.604 144.057 187.255 144.057H182.557C182.214 144.057 181.912 144.245 181.75 144.521C181.151 145.25 179.906 147.609 180.349 154.385Z" fill="#EBE3D2"/>
<path d="M182.172 140.625C182.172 142.135 183.396 143.365 184.906 143.365C186.422 143.365 187.646 142.135 187.646 140.625C187.646 139.115 186.422 137.885 184.906 137.885C183.396 137.885 182.172 139.115 182.172 140.625Z" fill="#EBE3D2"/>
<path d="M155.443 165.328L156.099 155.172C156.224 155.24 156.36 155.281 156.511 155.292C156.531 155.292 156.552 155.297 156.573 155.297C157.084 155.297 157.511 154.901 157.542 154.385C157.985 147.609 156.74 145.25 156.146 144.521C155.979 144.245 155.677 144.057 155.334 144.057H150.636C150.292 144.057 149.99 144.245 149.823 144.521C149.229 145.25 147.979 147.609 148.422 154.385C148.459 154.901 148.886 155.297 149.396 155.297C149.417 155.297 149.438 155.292 149.459 155.292C149.61 155.281 149.745 155.24 149.87 155.172L150.526 165.328C150.578 166.156 151.292 166.786 152.12 166.734C152.453 166.708 152.75 166.583 152.985 166.385C153.219 166.583 153.516 166.708 153.844 166.734C154.672 166.786 155.391 166.156 155.443 165.328Z" fill="#EBE3D2"/>
<path d="M155.719 140.625C155.719 140.99 155.651 141.339 155.51 141.672C155.375 142.01 155.177 142.307 154.917 142.562C154.661 142.818 154.365 143.016 154.031 143.156C153.698 143.292 153.349 143.365 152.984 143.365C152.62 143.365 152.271 143.292 151.938 143.156C151.604 143.016 151.307 142.818 151.047 142.562C150.792 142.307 150.594 142.01 150.458 141.672C150.318 141.339 150.25 140.99 150.25 140.625C150.25 140.26 150.318 139.911 150.458 139.578C150.594 139.245 150.792 138.948 151.047 138.688C151.307 138.432 151.604 138.234 151.938 138.099C152.271 137.958 152.62 137.891 152.984 137.891C153.349 137.891 153.698 137.958 154.031 138.099C154.365 138.234 154.661 138.432 154.917 138.688C155.177 138.948 155.375 139.245 155.51 139.578C155.651 139.911 155.719 140.26 155.719 140.625Z" fill="#EBE3D2"/>
<path d="M97.5106 139.479C97.5262 139.479 97.547 139.479 97.5627 139.479C97.6825 139.469 97.7918 139.432 97.8908 139.38L98.422 147.583C98.4689 148.255 99.047 148.76 99.7137 148.719C99.9793 148.703 100.219 148.599 100.412 148.443C100.599 148.599 100.844 148.703 101.11 148.719C101.776 148.76 102.354 148.255 102.396 147.583L102.927 139.38C103.026 139.432 103.141 139.469 103.261 139.479C103.276 139.479 103.292 139.479 103.313 139.479C103.724 139.479 104.068 139.161 104.094 138.745C104.453 133.271 103.443 131.365 102.964 130.776C102.833 130.552 102.589 130.401 102.307 130.401H98.5158C98.2345 130.401 97.9898 130.552 97.8595 130.776C97.3752 131.365 96.37 133.271 96.7293 138.745C96.7554 139.161 97.0991 139.479 97.5106 139.479Z" fill="#EBE3D2"/>
<path d="M100.411 129.839C101.63 129.839 102.62 128.849 102.62 127.63C102.62 126.406 101.63 125.417 100.411 125.417C99.1927 125.417 98.2031 126.406 98.2031 127.63C98.2031 128.849 99.1927 129.839 100.411 129.839Z" fill="#EBE3D2"/>
<path d="M78.9998 145C79.0155 145 79.0363 145 79.0519 145C79.1717 144.995 79.2863 144.958 79.3853 144.901L79.9165 153.109C79.9582 153.776 80.5363 154.286 81.203 154.245C81.4686 154.224 81.7134 154.12 81.9009 153.964C82.0936 154.12 82.3332 154.224 82.5988 154.245C83.2655 154.286 83.8436 153.776 83.8905 153.109L84.4217 144.901C84.5207 144.958 84.63 144.995 84.7498 145C84.7655 145 84.7863 145 84.8019 145C85.2134 145 85.5571 144.682 85.5832 144.266C85.9425 138.792 84.9373 136.885 84.453 136.297C84.3228 136.073 84.078 135.922 83.7967 135.922H80.005C79.7238 135.922 79.479 136.073 79.3488 136.302C78.8644 136.885 77.8592 138.792 78.2186 144.266C78.2446 144.682 78.5884 145 78.9998 145Z" fill="#EBE3D2"/>
<path d="M79.6929 133.151C79.6929 134.375 80.6825 135.365 81.9012 135.365C83.12 135.365 84.1095 134.375 84.1095 133.151C84.1095 131.927 83.12 130.938 81.9012 130.938C80.6825 130.938 79.6929 131.927 79.6929 133.151Z" fill="#EBE3D2"/>
<mask id="mask2_296_47" style="mask-type:luminance" maskUnits="userSpaceOnUse" x="74" y="125" width="3" height="18">
<path d="M74.25 125.333H76.6667V142.667H74.25V125.333Z" fill="white"/>
</mask>
<g mask="url(#mask2_296_47)">
<path d="M69.9585 133.818C69.969 133.818 69.9846 133.818 70.0002 133.818C70.1044 133.813 70.1981 133.781 70.2815 133.734L70.7346 140.703C70.771 141.271 71.2606 141.703 71.8283 141.667C72.0575 141.651 72.2606 141.568 72.4221 141.432C72.5835 141.568 72.7867 141.651 73.0106 141.667C73.5783 141.703 74.0731 141.271 74.1096 140.703L74.5575 133.734C74.6408 133.781 74.7398 133.813 74.8388 133.818C74.8544 133.818 74.87 133.818 74.8856 133.818C75.2346 133.818 75.5263 133.547 75.5523 133.193C75.8544 128.542 75.0002 126.927 74.5888 126.427C74.4742 126.234 74.271 126.109 74.0315 126.109H70.8075C70.5731 126.109 70.3648 126.234 70.2502 126.427C69.844 126.927 68.9898 128.542 69.2919 133.193C69.3127 133.547 69.6096 133.818 69.9585 133.818Z" fill="#EBE3D2"/>
</g>
<mask id="mask3_296_47" style="mask-type:luminance" maskUnits="userSpaceOnUse" x="74" y="121" width="2" height="6">
<path d="M74.25 121.333H75.3333V126.667H74.25V121.333Z" fill="white"/>
</mask>
<g mask="url(#mask3_296_47)">
<path d="M70.5415 123.75C70.5415 124.792 71.3853 125.63 72.4217 125.63C73.4582 125.63 74.2967 124.792 74.2967 123.75C74.2967 122.714 73.4582 121.875 72.4217 121.875C71.3853 121.875 70.5415 122.714 70.5415 123.75Z" fill="#EBE3D2"/>
</g>
<path d="M77.3229 122.505C77.3333 122.505 77.3437 122.505 77.3541 122.5C77.4322 122.495 77.5 122.474 77.5625 122.443L77.8958 127.589C77.9218 128.01 78.2864 128.328 78.7031 128.302C78.8697 128.286 79.0208 128.224 79.1406 128.125C79.2604 128.224 79.4114 128.286 79.5781 128.302C80 128.328 80.3593 128.01 80.3906 127.589L80.7239 122.443C80.7812 122.474 80.8541 122.495 80.927 122.5C80.9427 122.505 80.9531 122.505 80.9635 122.505C81.2187 122.505 81.4375 122.302 81.4531 122.042C81.677 118.609 81.0468 117.411 80.7447 117.042C80.6614 116.901 80.5104 116.807 80.3333 116.807H77.9531C77.776 116.807 77.625 116.901 77.5416 117.042C77.2395 117.411 76.6093 118.609 76.8333 122.042C76.8489 122.302 77.0624 122.505 77.3229 122.505Z" fill="#EBE3D2"/>
<path d="M79.1408 116.458C79.9064 116.458 80.5314 115.833 80.5314 115.068C80.5314 114.302 79.9064 113.682 79.1408 113.682C78.3752 113.682 77.7554 114.302 77.7554 115.068C77.7554 115.833 78.3752 116.458 79.1408 116.458Z" fill="#EBE3D2"/>
<path d="M86.4321 125.63L86.6873 121.672C86.7394 121.698 86.7915 121.714 86.8488 121.719C86.8592 121.719 86.8644 121.719 86.8748 121.719C87.0728 121.719 87.2394 121.563 87.2498 121.365C87.4217 118.724 86.9373 117.802 86.7082 117.521C86.6405 117.411 86.5259 117.339 86.3905 117.339H84.5571C84.4217 117.339 84.3071 117.411 84.2446 117.521C84.0103 117.802 83.5259 118.724 83.6978 121.365C83.7082 121.563 83.8748 121.719 84.0728 121.719C84.0832 121.719 84.0936 121.719 84.0988 121.719C84.1561 121.714 84.2134 121.698 84.2603 121.672L84.5155 125.63C84.5363 125.953 84.8175 126.198 85.1405 126.177C85.2655 126.167 85.38 126.12 85.4738 126.042C85.5675 126.12 85.6821 126.167 85.8123 126.177C86.1353 126.198 86.4113 125.953 86.4321 125.63Z" fill="#EBE3D2"/>
<path d="M85.474 117.068C86.0625 117.068 86.5417 116.589 86.5417 116C86.5417 115.411 86.0625 114.932 85.474 114.932C84.8854 114.932 84.4062 115.411 84.4062 116C84.4062 116.589 84.8854 117.068 85.474 117.068Z" fill="#EBE3D2"/>
<path d="M124.979 126.177C125.302 126.198 125.583 125.953 125.604 125.63L125.859 121.672C125.906 121.698 125.958 121.714 126.021 121.719C126.026 121.719 126.037 121.719 126.042 121.719C126.24 121.719 126.406 121.563 126.422 121.365C126.594 118.724 126.109 117.802 125.875 117.521C125.813 117.411 125.693 117.339 125.563 117.339H123.729C123.594 117.339 123.479 117.411 123.412 117.521C123.182 117.802 122.693 118.724 122.87 121.365C122.88 121.563 123.047 121.719 123.245 121.719C123.255 121.719 123.26 121.719 123.271 121.719C123.328 121.714 123.38 121.698 123.432 121.672L123.688 125.63C123.708 125.953 123.984 126.198 124.307 126.177C124.438 126.167 124.552 126.12 124.646 126.042C124.734 126.12 124.854 126.167 124.979 126.177Z" fill="#EBE3D2"/>
<path d="M123.578 116C123.578 116.589 124.057 117.068 124.646 117.068C125.234 117.068 125.708 116.589 125.708 116C125.708 115.411 125.234 114.932 124.646 114.932C124.057 114.932 123.578 115.411 123.578 116Z" fill="#EBE3D2"/>
<path d="M132.125 117.339H130.297C130.161 117.339 130.042 117.411 129.979 117.521C129.745 117.802 129.26 118.724 129.432 121.365C129.448 121.563 129.614 121.719 129.812 121.719C129.818 121.719 129.828 121.719 129.838 121.719C129.896 121.714 129.948 121.698 129.995 121.672L130.25 125.63C130.271 125.953 130.552 126.198 130.875 126.177C131.005 126.167 131.12 126.12 131.208 126.042C131.302 126.12 131.417 126.167 131.547 126.177C131.87 126.198 132.146 125.953 132.167 125.63L132.427 121.672C132.474 121.698 132.526 121.714 132.583 121.719C132.594 121.719 132.599 121.719 132.609 121.719C132.807 121.719 132.974 121.563 132.989 121.365C133.161 118.724 132.672 117.802 132.443 117.521C132.38 117.411 132.26 117.339 132.125 117.339Z" fill="#EBE3D2"/>
<path d="M132.276 116C132.276 116.297 132.172 116.547 131.964 116.755C131.755 116.964 131.505 117.068 131.208 117.068C130.917 117.068 130.667 116.964 130.458 116.755C130.25 116.547 130.146 116.297 130.146 116C130.146 115.708 130.25 115.453 130.458 115.245C130.667 115.036 130.917 114.932 131.208 114.932C131.505 114.932 131.755 115.036 131.964 115.245C132.172 115.453 132.276 115.708 132.276 116Z" fill="#EBE3D2"/>
<path d="M87.5471 111.12C87.5523 111.12 87.5575 111.12 87.5679 111.12C87.719 111.12 87.844 111.005 87.8544 110.849C87.9846 108.828 87.6148 108.125 87.4377 107.906C87.3856 107.823 87.2971 107.766 87.1929 107.766H85.7919C85.6877 107.766 85.5992 107.823 85.5523 107.906C85.3752 108.125 85.0002 108.828 85.1304 110.849C85.1409 111.005 85.2711 111.12 85.4221 111.12C85.4273 111.12 85.4325 111.12 85.4429 111.12C85.4846 111.12 85.5263 111.104 85.5627 111.083L85.7606 114.115C85.7763 114.365 85.9898 114.552 86.2346 114.536C86.3336 114.531 86.4221 114.49 86.495 114.432C86.5627 114.49 86.6513 114.531 86.7502 114.536C87.0002 114.552 87.2138 114.365 87.2294 114.115L87.4221 111.083C87.4586 111.104 87.5002 111.12 87.5471 111.12Z" fill="#EBE3D2"/>
<path d="M86.495 107.562C86.9429 107.562 87.3127 107.193 87.3127 106.745C87.3127 106.292 86.9429 105.927 86.495 105.927C86.0418 105.927 85.6772 106.292 85.6772 106.745C85.6772 107.193 86.0418 107.562 86.495 107.562Z" fill="#EBE3D2"/>
<path d="M92.6769 106.073C92.5259 106.26 92.203 106.865 92.3176 108.609C92.328 108.745 92.4374 108.844 92.5676 108.844C92.5728 108.844 92.578 108.844 92.5832 108.844C92.6196 108.839 92.6561 108.828 92.6874 108.812L92.8592 111.427C92.8696 111.641 93.0571 111.802 93.2707 111.786C93.354 111.781 93.4321 111.75 93.4894 111.698C93.5519 111.75 93.6301 111.781 93.7134 111.786C93.9269 111.802 94.1092 111.641 94.1249 111.427L94.2915 108.812C94.3228 108.828 94.3592 108.839 94.4009 108.844C94.4061 108.844 94.4113 108.844 94.4165 108.844C94.5467 108.844 94.6561 108.745 94.6665 108.609C94.7811 106.865 94.4582 106.26 94.3019 106.073C94.2603 106 94.1821 105.953 94.0936 105.953H92.8853C92.7967 105.953 92.7186 106 92.6769 106.073Z" fill="#EBE3D2"/>
<path d="M93.4897 105.771C93.8804 105.771 94.1981 105.458 94.1981 105.068C94.1981 104.677 93.8804 104.365 93.4897 104.365C93.1043 104.365 92.7866 104.677 92.7866 105.068C92.7866 105.458 93.1043 105.771 93.4897 105.771Z" fill="#EBE3D2"/>
<path d="M96.3021 106.578C96.1458 106.766 95.8281 107.375 95.9375 109.12C95.9479 109.25 96.0573 109.354 96.1875 109.354C96.1927 109.354 96.2031 109.354 96.2083 109.354C96.2448 109.349 96.2812 109.339 96.3125 109.323L96.4791 111.937C96.4948 112.151 96.6771 112.312 96.8906 112.297C96.9791 112.292 97.0521 112.26 97.1146 112.208C97.1771 112.26 97.25 112.292 97.3333 112.297C97.5469 112.312 97.7344 112.151 97.7448 111.937L97.9166 109.323C97.9479 109.339 97.9844 109.349 98.0208 109.354C98.026 109.354 98.0312 109.354 98.0364 109.354C98.1666 109.354 98.2812 109.25 98.2864 109.12C98.401 107.375 98.0781 106.766 97.9271 106.578C97.8854 106.51 97.8073 106.458 97.7187 106.458H96.5104C96.4219 106.458 96.3437 106.51 96.3021 106.578Z" fill="#EBE3D2"/>
<path d="M97.1147 106.281C97.5054 106.281 97.8179 105.969 97.8179 105.578C97.8179 105.187 97.5054 104.875 97.1147 104.875C96.7241 104.875 96.4116 105.187 96.4116 105.578C96.4116 105.969 96.7241 106.281 97.1147 106.281Z" fill="#EBE3D2"/>
<path d="M103.109 104.62C102.984 104.776 102.719 105.276 102.813 106.708C102.818 106.818 102.912 106.901 103.021 106.901C103.021 106.901 103.026 106.901 103.031 106.901C103.063 106.901 103.094 106.891 103.12 106.875L103.261 109.026C103.271 109.203 103.422 109.339 103.599 109.323C103.667 109.318 103.729 109.292 103.781 109.25C103.828 109.292 103.891 109.318 103.964 109.323C104.136 109.339 104.287 109.203 104.302 109.026L104.438 106.875C104.464 106.891 104.495 106.901 104.526 106.901C104.531 106.901 104.537 106.901 104.542 106.901C104.646 106.901 104.74 106.818 104.745 106.708C104.839 105.276 104.573 104.776 104.448 104.62C104.412 104.562 104.349 104.521 104.276 104.521H103.281C103.208 104.521 103.146 104.562 103.109 104.62Z" fill="#EBE3D2"/>
<path d="M104.359 103.797C104.359 103.953 104.302 104.094 104.187 104.203C104.073 104.318 103.937 104.375 103.781 104.375C103.62 104.375 103.484 104.318 103.37 104.203C103.255 104.094 103.198 103.953 103.198 103.797C103.198 103.635 103.255 103.5 103.37 103.385C103.484 103.271 103.62 103.214 103.781 103.214C103.937 103.214 104.073 103.271 104.187 103.385C104.302 103.5 104.359 103.635 104.359 103.797Z" fill="#EBE3D2"/>
<path d="M111.391 104.599C111.292 104.714 111.089 105.099 111.161 106.203C111.167 106.292 111.24 106.354 111.323 106.354C111.323 106.354 111.328 106.354 111.333 106.354C111.354 106.354 111.38 106.344 111.396 106.333L111.505 107.99C111.516 108.125 111.63 108.229 111.766 108.219C111.818 108.219 111.87 108.198 111.906 108.161C111.943 108.198 111.995 108.219 112.047 108.219C112.182 108.229 112.297 108.125 112.307 107.99L112.417 106.333C112.432 106.344 112.458 106.354 112.479 106.354C112.484 106.354 112.49 106.354 112.49 106.354C112.573 106.354 112.646 106.292 112.651 106.203C112.724 105.099 112.521 104.714 112.422 104.594C112.396 104.552 112.344 104.521 112.292 104.521H111.521C111.469 104.521 111.417 104.552 111.391 104.599Z" fill="#EBE3D2"/>
<path d="M112.354 103.958C112.354 104.083 112.307 104.188 112.224 104.276C112.136 104.365 112.031 104.406 111.906 104.406C111.781 104.406 111.677 104.365 111.589 104.276C111.505 104.188 111.458 104.083 111.458 103.958C111.458 103.839 111.505 103.729 111.589 103.646C111.677 103.557 111.781 103.516 111.906 103.516C112.031 103.516 112.136 103.557 112.224 103.646C112.307 103.729 112.354 103.839 112.354 103.958Z" fill="#EBE3D2"/>
<path d="M89.5001 111.688C89.323 111.906 88.948 112.609 89.0782 114.63C89.0886 114.786 89.2188 114.901 89.3699 114.901C89.3751 114.901 89.3803 114.901 89.3907 114.901C89.4324 114.901 89.474 114.885 89.5105 114.865L89.7084 117.896C89.724 118.146 89.9376 118.333 90.1824 118.318C90.2813 118.313 90.3699 118.271 90.4428 118.214C90.5105 118.271 90.599 118.313 90.698 118.318C90.948 118.333 91.1615 118.146 91.1772 117.896L91.3699 114.865C91.4063 114.885 91.448 114.901 91.4949 114.901C91.5001 114.901 91.5053 114.901 91.5157 114.901C91.6667 114.901 91.7917 114.786 91.8022 114.63C91.9376 112.609 91.5626 111.906 91.3855 111.688C91.3334 111.604 91.2449 111.547 91.1407 111.547H89.7397C89.6355 111.547 89.5469 111.604 89.5001 111.688Z" fill="#EBE3D2"/>
<path d="M90.4427 111.344C90.8906 111.344 91.2604 110.974 91.2604 110.526C91.2604 110.073 90.8906 109.708 90.4427 109.708C89.9896 109.708 89.625 110.073 89.625 110.526C89.625 110.974 89.9896 111.344 90.4427 111.344Z" fill="#EBE3D2"/>
<path d="M122.11 106.073C121.959 106.26 121.636 106.865 121.75 108.609C121.761 108.745 121.87 108.844 122 108.844C122.005 108.844 122.011 108.844 122.016 108.844C122.057 108.839 122.094 108.828 122.125 108.812L122.292 111.427C122.307 111.641 122.49 111.802 122.703 111.786C122.787 111.781 122.865 111.75 122.927 111.698C122.985 111.75 123.063 111.781 123.146 111.786C123.36 111.802 123.547 111.641 123.557 111.427L123.729 108.812C123.761 108.828 123.797 108.839 123.834 108.844C123.839 108.844 123.844 108.844 123.849 108.844C123.979 108.844 124.089 108.745 124.099 108.609C124.214 106.865 123.891 106.26 123.74 106.073C123.698 106 123.62 105.953 123.531 105.953H122.318C122.229 105.953 122.156 106 122.11 106.073Z" fill="#EBE3D2"/>
<path d="M122.927 105.771C123.313 105.771 123.63 105.458 123.63 105.068C123.63 104.677 123.313 104.365 122.927 104.365C122.536 104.365 122.219 104.677 122.219 105.068C122.219 105.458 122.536 105.771 122.927 105.771Z" fill="#EBE3D2"/>
<path d="M125.735 106.578C125.584 106.766 125.261 107.375 125.375 109.12C125.38 109.25 125.495 109.354 125.625 109.354C125.63 109.354 125.636 109.354 125.641 109.354C125.677 109.349 125.714 109.339 125.745 109.323L125.917 111.937C125.927 112.151 126.115 112.312 126.328 112.297C126.412 112.292 126.49 112.26 126.547 112.208C126.61 112.26 126.682 112.292 126.771 112.297C126.985 112.312 127.167 112.151 127.182 111.937L127.349 109.323C127.38 109.339 127.417 109.349 127.453 109.354C127.464 109.354 127.469 109.354 127.474 109.354C127.604 109.354 127.714 109.25 127.724 109.12C127.834 107.375 127.516 106.766 127.36 106.578C127.318 106.51 127.24 106.458 127.151 106.458H125.943C125.854 106.458 125.776 106.51 125.735 106.578Z" fill="#EBE3D2"/>
<path d="M126.547 106.281C126.938 106.281 127.25 105.969 127.25 105.578C127.25 105.187 126.938 104.875 126.547 104.875C126.156 104.875 125.844 105.187 125.844 105.578C125.844 105.969 126.161 106.281 126.547 106.281Z" fill="#EBE3D2"/>
<path d="M129.146 104.62C129.021 104.776 128.755 105.276 128.849 106.708C128.859 106.818 128.948 106.901 129.057 106.901C129.062 106.901 129.067 106.901 129.067 106.901C129.099 106.901 129.13 106.891 129.156 106.875L129.297 109.026C129.307 109.203 129.458 109.339 129.635 109.323C129.703 109.318 129.765 109.292 129.817 109.25C129.864 109.292 129.927 109.318 130 109.323C130.177 109.339 130.328 109.203 130.338 109.026L130.479 106.875C130.505 106.891 130.531 106.901 130.562 106.901C130.567 106.901 130.573 106.901 130.578 106.901C130.687 106.901 130.776 106.818 130.781 106.708C130.875 105.276 130.614 104.776 130.484 104.62C130.453 104.562 130.385 104.521 130.312 104.521H129.317C129.245 104.521 129.182 104.562 129.146 104.62Z" fill="#EBE3D2"/>
<path d="M130.396 103.797C130.396 103.953 130.339 104.094 130.224 104.203C130.115 104.318 129.979 104.375 129.818 104.375C129.656 104.375 129.521 104.318 129.406 104.203C129.292 104.094 129.24 103.953 129.24 103.797C129.24 103.635 129.292 103.5 129.406 103.385C129.521 103.271 129.656 103.214 129.818 103.214C129.979 103.214 130.115 103.271 130.224 103.385C130.339 103.5 130.396 103.635 130.396 103.797Z" fill="#EBE3D2"/>
<path d="M132.896 104.599C132.797 104.714 132.594 105.099 132.667 106.203C132.672 106.292 132.745 106.354 132.823 106.354C132.828 106.354 132.834 106.354 132.834 106.354C132.86 106.354 132.88 106.344 132.901 106.333L133.011 107.99C133.021 108.125 133.136 108.229 133.271 108.219C133.323 108.219 133.375 108.198 133.412 108.161C133.448 108.198 133.5 108.219 133.552 108.219C133.688 108.229 133.802 108.125 133.813 107.99L133.922 106.333C133.938 106.344 133.964 106.354 133.985 106.354C133.99 106.354 133.995 106.354 133.995 106.354C134.078 106.354 134.151 106.292 134.156 106.203C134.229 105.099 134.026 104.714 133.927 104.594C133.901 104.552 133.849 104.521 133.792 104.521H133.026C132.974 104.521 132.922 104.552 132.896 104.599Z" fill="#EBE3D2"/>
<path d="M133.411 104.406C133.656 104.406 133.859 104.208 133.859 103.958C133.859 103.714 133.656 103.516 133.411 103.516C133.167 103.516 132.963 103.714 132.963 103.958C132.963 104.208 133.167 104.406 133.411 104.406Z" fill="#EBE3D2"/>
<path d="M163.776 109.354C163.782 109.354 163.787 109.354 163.792 109.354C163.828 109.349 163.865 109.339 163.896 109.323L164.068 111.937C164.078 112.151 164.266 112.312 164.479 112.297C164.563 112.292 164.641 112.26 164.698 112.208C164.761 112.26 164.834 112.292 164.922 112.297C165.136 112.312 165.318 112.151 165.334 111.937L165.5 109.323C165.532 109.339 165.568 109.349 165.604 109.354C165.61 109.354 165.62 109.354 165.625 109.354C165.756 109.354 165.865 109.25 165.875 109.12C165.985 107.375 165.667 106.766 165.511 106.578C165.469 106.51 165.391 106.458 165.302 106.458H164.094C164.006 106.458 163.927 106.51 163.886 106.578C163.729 106.766 163.412 107.375 163.526 109.12C163.532 109.25 163.646 109.354 163.776 109.354Z" fill="#EBE3D2"/>
<path d="M163.995 105.578C163.995 105.969 164.308 106.281 164.698 106.281C165.089 106.281 165.401 105.969 165.401 105.578C165.401 105.187 165.089 104.875 164.698 104.875C164.308 104.875 163.995 105.187 163.995 105.578Z" fill="#EBE3D2"/>
<path d="M167.297 104.62C167.172 104.776 166.906 105.276 167 106.708C167.011 106.818 167.099 106.901 167.208 106.901C167.214 106.901 167.219 106.901 167.219 106.901C167.25 106.901 167.281 106.891 167.307 106.875L167.448 109.026C167.458 109.203 167.609 109.339 167.787 109.323C167.854 109.318 167.917 109.292 167.969 109.25C168.016 109.292 168.078 109.318 168.151 109.323C168.328 109.339 168.479 109.203 168.49 109.026L168.63 106.875C168.656 106.891 168.682 106.901 168.714 106.901C168.719 106.901 168.724 106.901 168.729 106.901C168.839 106.901 168.927 106.818 168.932 106.708C169.026 105.276 168.766 104.776 168.636 104.62C168.604 104.562 168.537 104.521 168.464 104.521H167.469C167.396 104.521 167.333 104.562 167.297 104.62Z" fill="#EBE3D2"/>
<path d="M168.547 103.797C168.547 103.953 168.49 104.094 168.375 104.203C168.266 104.318 168.13 104.375 167.969 104.375C167.807 104.375 167.672 104.318 167.557 104.203C167.443 104.094 167.391 103.953 167.391 103.797C167.391 103.635 167.443 103.5 167.557 103.385C167.672 103.271 167.807 103.214 167.969 103.214C168.13 103.214 168.266 103.271 168.375 103.385C168.49 103.5 168.547 103.635 168.547 103.797Z" fill="#EBE3D2"/>
<path d="M171.047 104.599C170.948 104.714 170.745 105.099 170.818 106.203C170.823 106.292 170.896 106.354 170.974 106.354C170.979 106.354 170.984 106.354 170.984 106.354C171.01 106.354 171.031 106.344 171.052 106.333L171.161 107.99C171.172 108.125 171.286 108.229 171.422 108.219C171.474 108.219 171.526 108.198 171.563 108.161C171.599 108.198 171.651 108.219 171.703 108.219C171.839 108.229 171.953 108.125 171.964 107.99L172.073 106.333C172.089 106.344 172.115 106.354 172.135 106.354C172.141 106.354 172.146 106.354 172.146 106.354C172.229 106.354 172.302 106.292 172.307 106.203C172.38 105.099 172.177 104.714 172.078 104.594C172.052 104.552 172 104.521 171.943 104.521H171.177C171.12 104.521 171.073 104.552 171.047 104.599Z" fill="#EBE3D2"/>
<path d="M172.011 103.958C172.011 104.083 171.964 104.188 171.875 104.276C171.792 104.365 171.688 104.406 171.563 104.406C171.438 104.406 171.333 104.365 171.245 104.276C171.162 104.188 171.115 104.083 171.115 103.958C171.115 103.839 171.162 103.729 171.245 103.646C171.333 103.557 171.438 103.516 171.563 103.516C171.688 103.516 171.792 103.557 171.875 103.646C171.964 103.729 172.011 103.839 172.011 103.958Z" fill="#EBE3D2"/>
<path d="M76.7188 104.599C76.6198 104.714 76.4167 105.099 76.4896 106.203C76.4948 106.292 76.5677 106.354 76.6458 106.354C76.651 106.354 76.6563 106.354 76.6563 106.354C76.6823 106.354 76.7031 106.344 76.724 106.333L76.8333 107.99C76.8438 108.125 76.9583 108.229 77.0938 108.219C77.1458 108.219 77.1979 108.198 77.2344 108.161C77.2708 108.198 77.3229 108.219 77.375 108.219C77.5104 108.229 77.625 108.125 77.6354 107.99L77.7448 106.333C77.7604 106.344 77.7865 106.354 77.8073 106.354C77.8125 106.354 77.8177 106.354 77.8177 106.354C77.901 106.354 77.974 106.292 77.9792 106.203C78.0521 105.099 77.849 104.714 77.75 104.594C77.724 104.552 77.6719 104.521 77.6146 104.521H76.849C76.7917 104.521 76.7448 104.552 76.7188 104.599Z" fill="#EBE3D2"/>
<path d="M77.2345 104.406C77.4793 104.406 77.6825 104.208 77.6825 103.958C77.6825 103.714 77.4793 103.516 77.2345 103.516C76.9897 103.516 76.7866 103.714 76.7866 103.958C76.7866 104.208 76.9897 104.406 77.2345 104.406Z" fill="#EBE3D2"/>
<path d="M80.9323 106.578C80.7813 106.766 80.4584 107.375 80.5729 109.12C80.5834 109.25 80.6927 109.354 80.8229 109.354C80.8281 109.354 80.8334 109.354 80.8386 109.354C80.875 109.349 80.9115 109.339 80.9427 109.323L81.1146 111.937C81.125 112.151 81.3125 112.312 81.5261 112.297C81.6094 112.292 81.6875 112.26 81.7448 112.208C81.8073 112.26 81.8854 112.292 81.9688 112.297C82.1823 112.312 82.3646 112.151 82.3802 111.937L82.5469 109.323C82.5781 109.339 82.6146 109.349 82.6563 109.354C82.6615 109.354 82.6667 109.354 82.6719 109.354C82.8021 109.354 82.9115 109.25 82.9219 109.12C83.0365 107.375 82.7136 106.766 82.5573 106.578C82.5156 106.51 82.4427 106.458 82.349 106.458H81.1406C81.0521 106.458 80.974 106.51 80.9323 106.578Z" fill="#EBE3D2"/>
<path d="M81.7446 106.281C82.1353 106.281 82.453 105.969 82.453 105.578C82.453 105.187 82.1353 104.875 81.7446 104.875C81.3592 104.875 81.0415 105.187 81.0415 105.578C81.0415 105.969 81.3592 106.281 81.7446 106.281Z" fill="#EBE3D2"/>
<path d="M119.099 104.62C118.969 104.776 118.708 105.276 118.802 106.708C118.807 106.818 118.901 106.901 119.005 106.901C119.01 106.901 119.016 106.901 119.021 106.901C119.052 106.901 119.083 106.891 119.104 106.875L119.245 109.026C119.255 109.203 119.412 109.339 119.583 109.323C119.656 109.318 119.719 109.292 119.766 109.25C119.818 109.292 119.88 109.318 119.948 109.323C120.125 109.339 120.276 109.203 120.287 109.026L120.427 106.875C120.453 106.891 120.484 106.901 120.516 106.901C120.521 106.901 120.521 106.901 120.526 106.901C120.635 106.901 120.724 106.818 120.734 106.708C120.828 105.276 120.563 104.776 120.438 104.62C120.401 104.562 120.339 104.521 120.266 104.521H119.271C119.198 104.521 119.13 104.562 119.099 104.62Z" fill="#EBE3D2"/>
<path d="M120.349 103.797C120.349 103.953 120.292 104.094 120.177 104.203C120.063 104.318 119.927 104.375 119.766 104.375C119.609 104.375 119.469 104.318 119.359 104.203C119.245 104.094 119.188 103.953 119.188 103.797C119.188 103.635 119.245 103.5 119.359 103.385C119.469 103.271 119.609 103.214 119.766 103.214C119.927 103.214 120.063 103.271 120.177 103.385C120.292 103.5 120.349 103.635 120.349 103.797Z" fill="#EBE3D2"/>
<path d="M150.526 104.599C150.427 104.714 150.224 105.099 150.297 106.203C150.302 106.292 150.37 106.354 150.453 106.354C150.458 106.354 150.463 106.354 150.463 106.354C150.489 106.354 150.51 106.344 150.531 106.333L150.64 107.99C150.646 108.125 150.765 108.229 150.901 108.219C150.953 108.219 151 108.198 151.042 108.161C151.078 108.198 151.125 108.219 151.182 108.219C151.318 108.229 151.432 108.125 151.443 107.99L151.547 106.333C151.568 106.344 151.594 106.354 151.614 106.354C151.62 106.354 151.625 106.354 151.625 106.354C151.708 106.354 151.781 106.292 151.786 106.203C151.859 105.099 151.651 104.714 151.557 104.594C151.531 104.552 151.479 104.521 151.422 104.521H150.656C150.599 104.521 150.552 104.552 150.526 104.599Z" fill="#EBE3D2"/>
<path d="M151.042 104.406C151.286 104.406 151.484 104.208 151.484 103.958C151.484 103.714 151.286 103.516 151.042 103.516C150.792 103.516 150.594 103.714 150.594 103.958C150.594 104.208 150.792 104.406 151.042 104.406Z" fill="#EBE3D2"/>
<path d="M105.531 111.688C105.354 111.906 104.984 112.609 105.115 114.63C105.125 114.786 105.25 114.901 105.401 114.901C105.411 114.901 105.417 114.901 105.422 114.901C105.469 114.901 105.51 114.885 105.547 114.865L105.74 117.896C105.755 118.146 105.969 118.333 106.219 118.318C106.318 118.313 106.406 118.271 106.474 118.214C106.547 118.271 106.635 118.313 106.734 118.318C106.979 118.333 107.193 118.146 107.208 117.896L107.406 114.865C107.443 114.885 107.484 114.901 107.526 114.901C107.536 114.901 107.542 114.901 107.547 114.901C107.698 114.901 107.828 114.786 107.839 114.63C107.969 112.609 107.594 111.906 107.417 111.688C107.37 111.604 107.281 111.547 107.177 111.547H105.776C105.672 111.547 105.578 111.604 105.531 111.688Z" fill="#EBE3D2"/>
<path d="M106.474 111.344C106.927 111.344 107.292 110.974 107.292 110.526C107.292 110.073 106.927 109.708 106.474 109.708C106.026 109.708 105.656 110.073 105.656 110.526C105.656 110.974 106.026 111.344 106.474 111.344Z" fill="#EBE3D2"/>
<path d="M113.766 111.688C113.589 111.906 113.219 112.609 113.349 114.63C113.359 114.786 113.49 114.901 113.641 114.901C113.646 114.901 113.651 114.901 113.656 114.901C113.703 114.901 113.745 114.885 113.781 114.865L113.979 117.896C113.995 118.146 114.208 118.333 114.453 118.318C114.552 118.313 114.641 118.271 114.714 118.214C114.781 118.271 114.87 118.313 114.969 118.318C115.214 118.333 115.427 118.146 115.443 117.896L115.641 114.865C115.677 114.885 115.719 114.901 115.766 114.901C115.771 114.901 115.776 114.901 115.781 114.901C115.932 114.901 116.063 114.786 116.073 114.63C116.203 112.609 115.833 111.906 115.656 111.688C115.604 111.604 115.516 111.547 115.411 111.547H114.01C113.906 111.547 113.818 111.604 113.766 111.688Z" fill="#EBE3D2"/>
<path d="M114.708 111.344C115.162 111.344 115.526 110.974 115.526 110.526C115.526 110.073 115.162 109.708 114.708 109.708C114.261 109.708 113.896 110.073 113.896 110.526C113.896 110.974 114.261 111.344 114.708 111.344Z" fill="#EBE3D2"/>
<path d="M145.375 112.297C145.459 112.292 145.537 112.26 145.594 112.208C145.656 112.26 145.735 112.292 145.818 112.297C146.031 112.312 146.214 112.151 146.229 111.937L146.396 109.323C146.427 109.339 146.464 109.349 146.505 109.354C146.511 109.354 146.516 109.354 146.521 109.354C146.651 109.354 146.761 109.25 146.771 109.12C146.886 107.375 146.563 106.766 146.406 106.578C146.365 106.51 146.287 106.458 146.198 106.458H144.99C144.901 106.458 144.823 106.51 144.781 106.583C144.63 106.766 144.307 107.375 144.422 109.12C144.427 109.25 144.542 109.354 144.672 109.354C144.677 109.354 144.682 109.354 144.688 109.354C144.724 109.349 144.761 109.339 144.792 109.323L144.964 111.937C144.974 112.151 145.162 112.312 145.375 112.297Z" fill="#EBE3D2"/>
<path d="M145.594 106.281C145.984 106.281 146.297 105.969 146.297 105.578C146.297 105.187 145.984 104.875 145.594 104.875C145.208 104.875 144.891 105.187 144.891 105.578C144.891 105.969 145.208 106.281 145.594 106.281Z" fill="#EBE3D2"/>
<path d="M137.979 111.688C137.802 111.906 137.427 112.609 137.563 114.63C137.573 114.786 137.698 114.901 137.849 114.901C137.859 114.901 137.865 114.901 137.87 114.901C137.917 114.901 137.958 114.885 137.995 114.865L138.188 117.896C138.203 118.146 138.417 118.333 138.667 118.318C138.766 118.313 138.854 118.271 138.922 118.214C138.995 118.271 139.083 118.313 139.182 118.318C139.427 118.333 139.641 118.146 139.656 117.896L139.854 114.865C139.891 114.885 139.932 114.901 139.974 114.901C139.984 114.901 139.99 114.901 139.995 114.901C140.146 114.901 140.276 114.786 140.287 114.63C140.417 112.609 140.042 111.906 139.865 111.688C139.818 111.604 139.729 111.547 139.625 111.547H138.224C138.12 111.547 138.026 111.604 137.979 111.688Z" fill="#EBE3D2"/>
<path d="M138.922 111.344C139.375 111.344 139.739 110.974 139.739 110.526C139.739 110.073 139.375 109.708 138.922 109.708C138.474 109.708 138.104 110.073 138.104 110.526C138.104 110.974 138.474 111.344 138.922 111.344Z" fill="#EBE3D2"/>
<path d="M154.015 111.688C153.833 111.906 153.463 112.609 153.594 114.63C153.604 114.786 153.734 114.901 153.885 114.901C153.89 114.901 153.896 114.901 153.906 114.901C153.948 114.901 153.989 114.885 154.026 114.865L154.224 117.896C154.239 118.146 154.453 118.333 154.698 118.318C154.797 118.313 154.885 118.271 154.958 118.214C155.026 118.271 155.114 118.313 155.213 118.318C155.458 118.333 155.672 118.146 155.693 117.896L155.885 114.865C155.922 114.885 155.963 114.901 156.01 114.901C156.015 114.901 156.021 114.901 156.026 114.901C156.182 114.901 156.307 114.786 156.318 114.63C156.448 112.609 156.078 111.906 155.901 111.688C155.849 111.604 155.76 111.547 155.656 111.547H154.255C154.151 111.547 154.062 111.604 154.015 111.688Z" fill="#EBE3D2"/>
<path d="M154.958 111.344C155.406 111.344 155.771 110.974 155.771 110.526C155.771 110.073 155.406 109.708 154.958 109.708C154.505 109.708 154.141 110.073 154.141 110.526C154.141 110.974 154.505 111.344 154.958 111.344Z" fill="#EBE3D2"/>
<path d="M187.583 106.578C187.427 106.766 187.11 107.375 187.224 109.12C187.229 109.25 187.339 109.354 187.469 109.354C187.479 109.354 187.485 109.354 187.49 109.354C187.526 109.349 187.563 109.339 187.594 109.323L187.761 111.937C187.776 112.151 187.958 112.312 188.172 112.297C188.261 112.292 188.333 112.26 188.396 112.208C188.458 112.26 188.531 112.292 188.62 112.297C188.828 112.312 189.016 112.151 189.026 111.937L189.198 109.323C189.229 109.339 189.266 109.349 189.302 109.354C189.307 109.354 189.313 109.354 189.318 109.354C189.453 109.354 189.563 109.25 189.568 109.12C189.682 107.375 189.365 106.766 189.208 106.578C189.167 106.51 189.089 106.458 189 106.458H187.792C187.703 106.458 187.625 106.51 187.583 106.578Z" fill="#EBE3D2"/>
<path d="M188.396 106.281C188.787 106.281 189.099 105.969 189.099 105.578C189.099 105.187 188.787 104.875 188.396 104.875C188.005 104.875 187.693 105.187 187.693 105.578C187.693 105.969 188.005 106.281 188.396 106.281Z" fill="#EBE3D2"/>
<path d="M157.636 104.62C157.505 104.776 157.245 105.276 157.339 106.708C157.344 106.818 157.433 106.901 157.542 106.901C157.547 106.901 157.552 106.901 157.558 106.901C157.589 106.901 157.615 106.891 157.641 106.875L157.781 109.026C157.792 109.203 157.943 109.339 158.12 109.323C158.188 109.318 158.25 109.292 158.302 109.25C158.354 109.292 158.417 109.318 158.485 109.323C158.662 109.339 158.813 109.203 158.823 109.026L158.964 106.875C158.99 106.891 159.016 106.901 159.047 106.901C159.052 106.901 159.058 106.901 159.063 106.901C159.172 106.901 159.261 106.818 159.271 106.708C159.365 105.276 159.099 104.776 158.974 104.62C158.938 104.562 158.875 104.521 158.802 104.521H157.808C157.729 104.521 157.667 104.562 157.636 104.62Z" fill="#EBE3D2"/>
<path d="M158.88 103.797C158.88 103.953 158.823 104.094 158.714 104.203C158.599 104.318 158.464 104.375 158.302 104.375C158.141 104.375 158.005 104.318 157.891 104.203C157.781 104.094 157.724 103.953 157.724 103.797C157.724 103.635 157.781 103.5 157.891 103.385C158.005 103.271 158.141 103.214 158.302 103.214C158.464 103.214 158.599 103.271 158.714 103.385C158.823 103.5 158.88 103.635 158.88 103.797Z" fill="#EBE3D2"/>
<path d="M191.797 104.599C191.698 104.714 191.495 105.099 191.568 106.203C191.573 106.292 191.646 106.354 191.724 106.354C191.729 106.354 191.734 106.354 191.734 106.354C191.76 106.354 191.781 106.344 191.802 106.333L191.911 107.99C191.922 108.125 192.036 108.229 192.172 108.219C192.224 108.219 192.276 108.198 192.313 108.161C192.349 108.198 192.401 108.219 192.453 108.219C192.589 108.229 192.703 108.125 192.714 107.99L192.823 106.333C192.839 106.344 192.865 106.354 192.885 106.354C192.891 106.354 192.896 106.354 192.896 106.354C192.979 106.354 193.052 106.292 193.057 106.203C193.13 105.099 192.927 104.714 192.828 104.594C192.802 104.552 192.75 104.521 192.698 104.521H191.927C191.87 104.521 191.823 104.552 191.797 104.599Z" fill="#EBE3D2"/>
<path d="M192.313 104.406C192.557 104.406 192.761 104.208 192.761 103.958C192.761 103.714 192.557 103.516 192.313 103.516C192.068 103.516 191.865 103.714 191.865 103.958C191.865 104.208 192.068 104.406 192.313 104.406Z" fill="#EBE3D2"/>
<path d="M179.63 107.99L179.739 106.333C179.755 106.344 179.781 106.354 179.802 106.354C179.807 106.354 179.812 106.354 179.818 106.354C179.896 106.354 179.969 106.292 179.974 106.203C180.047 105.099 179.844 104.714 179.745 104.594C179.719 104.552 179.667 104.521 179.614 104.521H178.844C178.792 104.521 178.739 104.552 178.713 104.599C178.614 104.714 178.411 105.099 178.484 106.203C178.489 106.292 178.562 106.354 178.646 106.354C178.646 106.354 178.651 106.354 178.656 106.354C178.677 106.354 178.703 106.344 178.719 106.333L178.828 107.99C178.838 108.125 178.953 108.229 179.088 108.219C179.14 108.219 179.193 108.198 179.229 108.161C179.265 108.198 179.318 108.219 179.37 108.219C179.505 108.229 179.62 108.125 179.63 107.99Z" fill="#EBE3D2"/>
<path d="M179.229 104.406C179.474 104.406 179.677 104.208 179.677 103.958C179.677 103.714 179.474 103.516 179.229 103.516C178.984 103.516 178.781 103.714 178.781 103.958C178.781 104.208 178.984 104.406 179.229 104.406Z" fill="#EBE3D2"/>
<path d="M182.203 111.688C182.026 111.906 181.651 112.609 181.781 114.63C181.792 114.786 181.922 114.901 182.073 114.901C182.078 114.901 182.089 114.901 182.094 114.901C182.135 114.901 182.177 114.885 182.214 114.865L182.412 117.896C182.427 118.146 182.641 118.333 182.885 118.318C182.984 118.313 183.073 118.271 183.146 118.214C183.214 118.271 183.302 118.313 183.401 118.318C183.651 118.333 183.865 118.146 183.88 117.896L184.073 114.865C184.109 114.885 184.151 114.901 184.198 114.901C184.203 114.901 184.208 114.901 184.219 114.901C184.37 114.901 184.495 114.786 184.505 114.63C184.641 112.609 184.266 111.906 184.089 111.688C184.042 111.604 183.948 111.547 183.844 111.547H182.443C182.339 111.547 182.25 111.604 182.203 111.688Z" fill="#EBE3D2"/>
<path d="M183.146 111.344C183.594 111.344 183.964 110.974 183.964 110.526C183.964 110.073 183.594 109.708 183.146 109.708C182.693 109.708 182.328 110.073 182.328 110.526C182.328 110.974 182.693 111.344 183.146 111.344Z" fill="#EBE3D2"/>
<path d="M88.0415 133.818C88.0572 133.818 88.0728 133.818 88.0832 133.818C88.1874 133.813 88.2811 133.781 88.3645 133.734L88.8176 140.703C88.854 141.271 89.3436 141.703 89.9113 141.667C90.1405 141.651 90.3436 141.568 90.5051 141.432C90.6665 141.568 90.8697 141.651 91.0988 141.667C91.6665 141.703 92.1561 141.271 92.1926 140.703L92.6457 133.734C92.729 133.781 92.8228 133.813 92.927 133.818C92.9374 133.818 92.953 133.818 92.9686 133.818C93.3176 133.818 93.6092 133.547 93.6353 133.193C93.9374 128.542 93.0832 126.927 92.6717 126.427C92.5624 126.234 92.354 126.109 92.1197 126.109H88.8957C88.6561 126.109 88.4478 126.234 88.3384 126.427C87.927 126.927 87.0728 128.542 87.3749 133.193C87.4009 133.547 87.6926 133.818 88.0415 133.818Z" fill="#EBE3D2"/>
<path d="M90.5054 125.63C91.5418 125.63 92.3856 124.792 92.3856 123.75C92.3856 122.714 91.5418 121.875 90.5054 121.875C89.4689 121.875 88.6304 122.714 88.6304 123.75C88.6304 124.792 89.4689 125.63 90.5054 125.63Z" fill="#EBE3D2"/>
<path d="M143.74 139.38C143.839 139.432 143.953 139.469 144.073 139.479C144.089 139.479 144.104 139.479 144.125 139.479C144.531 139.479 144.88 139.161 144.906 138.745C145.266 133.271 144.255 131.365 143.776 130.776C143.641 130.552 143.401 130.401 143.12 130.401H139.323C139.047 130.401 138.802 130.552 138.672 130.776C138.187 131.365 137.182 133.271 137.536 138.745C137.568 139.161 137.911 139.479 138.323 139.479C138.339 139.479 138.354 139.479 138.375 139.479C138.495 139.469 138.604 139.432 138.703 139.38L139.234 147.583C139.281 148.255 139.859 148.76 140.526 148.719C140.792 148.703 141.031 148.599 141.224 148.443C141.411 148.599 141.651 148.703 141.917 148.719C142.589 148.76 143.167 148.255 143.208 147.583L143.74 139.38Z" fill="#EBE3D2"/>
<path d="M139.01 127.63C139.01 128.849 140 129.839 141.224 129.839C142.443 129.839 143.432 128.849 143.432 127.63C143.432 126.406 142.443 125.417 141.224 125.417C140 125.417 139.01 126.406 139.01 127.63Z" fill="#EBE3D2"/>
<path d="M116 141.667C116.573 141.703 117.062 141.271 117.099 140.703L117.552 133.734C117.635 133.781 117.729 133.813 117.828 133.818C117.844 133.818 117.859 133.818 117.875 133.818C118.224 133.818 118.515 133.547 118.542 133.193C118.844 128.542 117.989 126.927 117.578 126.427C117.469 126.234 117.26 126.109 117.021 126.109H113.797C113.562 126.109 113.354 126.234 113.245 126.427C112.833 126.927 111.979 128.542 112.281 133.193C112.307 133.547 112.599 133.818 112.948 133.818C112.963 133.818 112.979 133.818 112.989 133.818C113.094 133.813 113.187 133.781 113.271 133.734L113.724 140.703C113.76 141.271 114.25 141.703 114.818 141.667C115.047 141.651 115.25 141.568 115.411 141.432C115.573 141.568 115.776 141.651 116 141.667Z" fill="#EBE3D2"/>
<path d="M113.531 123.75C113.531 124.792 114.375 125.63 115.411 125.63C116.448 125.63 117.286 124.792 117.286 123.75C117.286 122.714 116.448 121.875 115.411 121.875C114.375 121.875 113.531 122.714 113.531 123.75Z" fill="#EBE3D2"/>
<path d="M165.021 133.818C165.037 133.818 165.052 133.818 165.068 133.818C165.167 133.813 165.266 133.781 165.349 133.734L165.797 140.703C165.833 141.271 166.328 141.703 166.896 141.667C167.12 141.651 167.323 141.568 167.484 141.432C167.646 141.568 167.854 141.651 168.078 141.667C168.646 141.703 169.136 141.271 169.172 140.703L169.625 133.734C169.708 133.781 169.802 133.813 169.906 133.818C169.922 133.818 169.938 133.818 169.948 133.818C170.297 133.818 170.594 133.547 170.615 133.193C170.922 128.542 170.063 126.927 169.656 126.427C169.542 126.234 169.333 126.109 169.099 126.109H165.875C165.636 126.109 165.432 126.234 165.318 126.427C164.912 126.927 164.052 128.542 164.359 133.193C164.38 133.547 164.672 133.818 165.021 133.818Z" fill="#EBE3D2"/>
<path d="M165.609 123.75C165.609 124.792 166.448 125.63 167.484 125.63C168.526 125.63 169.365 124.792 169.365 123.75C169.365 122.714 168.526 121.875 167.484 121.875C166.448 121.875 165.609 122.714 165.609 123.75Z" fill="#EBE3D2"/>
<path d="M176.203 141.432C176.365 141.568 176.568 141.651 176.797 141.667C177.365 141.703 177.854 141.271 177.891 140.703L178.344 133.734C178.427 133.781 178.521 133.813 178.625 133.818C178.641 133.818 178.651 133.818 178.667 133.818C179.016 133.818 179.307 133.547 179.334 133.193C179.636 128.542 178.781 126.927 178.37 126.427C178.261 126.234 178.052 126.109 177.818 126.109H174.594C174.354 126.109 174.146 126.234 174.037 126.427C173.625 126.927 172.771 128.542 173.073 133.193C173.099 133.547 173.391 133.818 173.74 133.818C173.755 133.818 173.771 133.818 173.787 133.818C173.886 133.813 173.979 133.781 174.063 133.734L174.516 140.703C174.552 141.271 175.042 141.703 175.615 141.667C175.839 141.651 176.042 141.568 176.203 141.432Z" fill="#EBE3D2"/>
<path d="M174.328 123.75C174.328 124.792 175.167 125.63 176.203 125.63C177.24 125.63 178.083 124.792 178.083 123.75C178.083 122.714 177.24 121.875 176.203 121.875C175.167 121.875 174.328 122.714 174.328 123.75Z" fill="#EBE3D2"/>
<path d="M105 163.089C105.026 163.089 105.052 163.089 105.078 163.089C105.255 163.073 105.422 163.021 105.573 162.938L106.365 175.229C106.433 176.234 107.297 176.995 108.302 176.927C108.698 176.901 109.058 176.75 109.344 176.51C109.63 176.75 109.985 176.901 110.386 176.927C111.386 176.99 112.255 176.234 112.318 175.229L113.115 162.938C113.261 163.021 113.427 163.073 113.61 163.089C113.636 163.089 113.662 163.089 113.688 163.089C114.302 163.089 114.818 162.609 114.86 161.99C115.396 153.786 113.886 150.932 113.167 150.057C112.969 149.719 112.604 149.495 112.183 149.495H106.5C106.084 149.495 105.719 149.719 105.521 150.057C104.797 150.932 103.292 153.792 103.823 161.99C103.865 162.609 104.386 163.089 105 163.089Z" fill="#EBE3D2"/>
<path d="M106.031 145.339C106.031 147.172 107.516 148.651 109.344 148.651C111.172 148.651 112.651 147.172 112.651 145.339C112.651 143.51 111.172 142.026 109.344 142.026C107.516 142.026 106.031 143.51 106.031 145.339Z" fill="#EBE3D2"/>
<mask id="mask4_296_47" style="mask-type:luminance" maskUnits="userSpaceOnUse" x="182" y="172" width="18" height="3">
<path d="M182 172H199.203V174.667H182V172Z" fill="white"/>
</mask>
<g mask="url(#mask4_296_47)">
<path d="M183.042 172.583H200.766V173.406H183.042V172.583Z" fill="#EBE3D2"/>
</g>
<path d="M118.682 172.583H142.838V173.406H118.682V172.583Z" fill="#EBE3D2"/>
<mask id="mask5_296_47" style="mask-type:luminance" maskUnits="userSpaceOnUse" x="183" y="124" width="17" height="2">
<path d="M183.333 124H199.203V125.333H183.333V124Z" fill="white"/>
</mask>
<g mask="url(#mask5_296_47)">
<path d="M183.714 124.562H199.62V124.974H183.714V124.562Z" fill="#EBE3D2"/>
</g>
<path d="M146.271 124.562H162.177V124.974H146.271V124.562Z" fill="#EBE3D2"/>
<mask id="mask6_296_47" style="mask-type:luminance" maskUnits="userSpaceOnUse" x="110" y="59" width="66" height="24">
<path d="M110 59.8177H175.333V82.6666H110V59.8177Z" fill="white"/>
</mask>
<g mask="url(#mask6_296_47)">
<path d="M164.057 63.0104H161.901L161.76 61.2552C162.219 61.401 163.234 61.4948 165.5 61.4948C169.26 61.4948 175.021 61.2344 175.021 60.9062C175.021 60.7239 173.75 60.5573 169.99 60.5573C166.797 60.5573 162.849 60.5729 161.724 60.776L161.698 60.4635C161.667 60.0989 161.443 59.8177 161.182 59.8177C160.917 59.8177 160.698 60.0989 160.667 60.4635L160.635 60.8125C160.198 60.6562 159.182 60.5573 156.865 60.5573C153.104 60.5573 147.339 60.8229 147.339 61.1458C147.339 61.3281 148.615 61.4948 152.375 61.4948C155.531 61.4948 159.422 61.4791 160.599 61.2812L160.458 63.0104H158.307C158.307 63.4427 158.339 63.8594 158.396 64.2552H148.229C147.979 63.6666 147.396 63.25 146.719 63.25H138.396C137.719 63.25 137.135 63.6666 136.885 64.2552H126.714C126.771 63.8594 126.807 63.4427 126.807 63.0104H124.651L124.51 61.2552C124.969 61.401 125.99 61.4948 128.25 61.4948C132.01 61.4948 137.771 61.2344 137.771 60.9062C137.771 60.7239 136.5 60.5573 132.74 60.5573C129.547 60.5573 125.599 60.5729 124.474 60.7812L124.448 60.4635C124.417 60.0989 124.198 59.8177 123.932 59.8177C123.667 59.8177 123.448 60.0989 123.417 60.4635L123.391 60.8125C122.948 60.6562 121.932 60.5573 119.615 60.5573C115.854 60.5573 110.094 60.8229 110.094 61.1458C110.094 61.3281 111.365 61.4948 115.125 61.4948C118.281 61.4948 122.172 61.4791 123.349 61.2812L123.208 63.0104H121.057C121.057 65.8073 122.344 68.0729 123.932 68.0729C124.677 68.0729 125.349 67.5729 125.859 66.7552L138.859 69.8594L136.667 70.9219C135.125 71.6719 133.943 73.0416 133.438 74.6823L131.661 80.4271C131.573 80.7083 131.318 80.901 131.021 80.901H128.839V82.5781H131.021C132.057 82.5781 132.958 81.9114 133.266 80.9219L135.036 75.1771C135.411 73.9791 136.271 72.9791 137.401 72.4323L140.568 70.8958V71.3333C140.568 71.8333 140.974 72.2396 141.474 72.2396H142.219V72.8125H139.786C139.302 72.8125 138.911 73.2031 138.911 73.6823V76.4635C138.911 76.9479 139.302 77.3385 139.786 77.3385H142.219V78.0469H143.083V77.3385H145.516C146 77.3385 146.385 76.9479 146.385 76.4635V73.6823C146.385 73.2031 146 72.8125 145.516 72.8125H143.083V72.2396H143.641C144.141 72.2396 144.547 71.8333 144.547 71.3333V70.8958L147.714 72.4323C148.844 72.9791 149.703 73.9791 150.073 75.1771L151.849 80.9219C152.156 81.9114 153.057 82.5781 154.094 82.5781H156.271V80.901H154.094C153.797 80.901 153.536 80.7083 153.453 80.4271L151.677 74.6823C151.167 73.0416 149.99 71.6719 148.443 70.9219L146.255 69.8594L159.255 66.7552C159.766 67.5729 160.438 68.0729 161.182 68.0729C162.766 68.0729 164.057 65.8073 164.057 63.0104ZM143.995 75.0729C143.995 75.8177 143.391 76.4166 142.651 76.4166C141.911 76.4166 141.307 75.8177 141.307 75.0729C141.307 74.3333 141.911 73.7291 142.651 73.7291C143.391 73.7291 143.995 74.3333 143.995 75.0729Z" fill="#EBE3D2"/>
</g>
<path d="M143.37 75.0729C143.37 75.2709 143.297 75.4427 143.156 75.5834C143.021 75.724 142.849 75.7917 142.651 75.7917C142.453 75.7917 142.281 75.724 142.146 75.5834C142.005 75.4427 141.932 75.2709 141.932 75.0729C141.932 74.875 142.005 74.7084 142.146 74.5677C142.281 74.4271 142.453 74.3542 142.651 74.3542C142.849 74.3542 143.021 74.4271 143.156 74.5677C143.297 74.7084 143.37 74.875 143.37 75.0729Z" fill="#EBE3D2"/>
</svg>
