<svg width="271" height="272" viewBox="0 0 271 272" fill="none" xmlns="http://www.w3.org/2000/svg">
<mask id="mask0_59_1939" style="mask-type:luminance" maskUnits="userSpaceOnUse" x="0" y="0" width="271" height="272">
<path d="M0.307617 0.953125H270.776V271.417H0.307617V0.953125Z" fill="white"/>
</mask>
<g mask="url(#mask0_59_1939)">
<mask id="mask1_59_1939" style="mask-type:luminance" maskUnits="userSpaceOnUse" x="0" y="0" width="271" height="272">
<path d="M40.292 0.953125H230.792C241.396 0.953125 251.563 5.16667 259.063 12.6615C266.563 20.1615 270.776 30.3333 270.776 40.9375V231.432C270.776 242.036 266.563 252.208 259.063 259.708C251.563 267.203 241.396 271.417 230.792 271.417H40.292C29.6878 271.417 19.5212 267.203 12.0212 259.708C4.52116 252.208 0.307617 242.036 0.307617 231.432V40.9375C0.307617 30.3333 4.52116 20.1615 12.0212 12.6615C19.5212 5.16667 29.6878 0.953125 40.292 0.953125Z" fill="white"/>
</mask>
<g mask="url(#mask1_59_1939)">
<path d="M0.307617 0.953125H270.776V271.417H0.307617V0.953125Z" fill="#112B3C"/>
</g>
</g>
<path fill-rule="evenodd" clip-rule="evenodd" d="M158.427 110.667C135.276 84.3541 115.917 110.771 115.859 110.849L115.849 110.844C115.203 111.708 115.281 112.896 115.984 113.667C117.682 115.865 136.328 138.797 158.427 113.677C159.198 112.854 159.229 111.531 158.427 110.667ZM137.219 105.812C138.974 105.812 140.568 106.526 141.719 107.677C142.87 108.828 143.583 110.417 143.583 112.172C143.583 113.927 142.87 115.521 141.719 116.672C140.568 117.823 138.974 118.531 137.219 118.531C135.458 118.531 133.87 117.823 132.714 116.672C131.563 115.521 130.849 113.927 130.849 112.172C130.849 110.417 131.563 108.828 132.714 107.677C133.87 106.526 135.458 105.812 137.219 105.812Z" fill="#EBE3D2"/>
<path d="M137.188 150.656C174.318 133.213 171.688 98.2654 170.542 90.2238C153.042 88.9946 141.417 78.005 137.188 73.2915C132.964 78.0102 121.339 88.9946 103.839 90.2238C102.693 98.2654 100.063 133.213 137.188 150.656ZM174.599 87.6769C174.625 87.8123 184.422 133.969 138.255 155.047C137.667 155.375 136.932 155.422 136.271 155.125V155.12C91.6199 134.838 99.1147 91.1508 99.7449 87.88C99.8595 86.7915 100.761 85.9269 101.886 85.8956L101.891 85.9008C122.349 85.281 134.432 69.8071 135.354 68.5831C135.49 68.3852 135.656 68.2081 135.865 68.0519C136.844 67.3227 138.234 67.5206 138.969 68.505C139.005 68.5519 151.162 85.1717 172.328 85.8956C173.406 85.8435 174.386 86.5831 174.604 87.6717L174.599 87.6769Z" fill="#EBE3D2"/>
<path d="M158.396 50.9009C158.396 49.6769 157.401 48.6821 156.177 48.6821C154.948 48.6821 153.953 49.6769 153.953 50.9009V84.4842C153.953 85.7082 154.948 86.703 156.177 86.703C157.401 86.703 158.396 85.7082 158.396 84.4842V50.9009Z" fill="#EBE3D2"/>
<path d="M145.333 63.4167C145.333 62.1927 144.343 61.2031 143.114 61.2031C141.89 61.2031 140.896 62.1927 140.896 63.4167V76.0625C140.896 77.2865 141.89 78.2812 143.114 78.2812C144.343 78.2812 145.333 77.2865 145.333 76.0625V63.4167Z" fill="#EBE3D2"/>
<path d="M117.308 60.0832C117.354 58.8644 116.396 57.8384 115.177 57.7967C113.959 57.7551 112.933 58.7082 112.886 59.9269L112.854 60.8332C112.776 62.7915 112.703 64.7603 112.761 66.4582C112.808 67.6978 113.287 69.1613 114.985 70.1613C115.948 70.729 117.308 71.1092 119.235 71.1092H126.094C126.438 71.1509 127.532 71.3384 127.448 72.1874H127.443C127.433 72.2655 127.427 72.3436 127.427 72.4217V77.4009C127.427 78.6249 128.422 79.6196 129.646 79.6196C130.875 79.6196 131.87 78.6249 131.87 77.4009V72.4478C132.256 67.5624 127.526 66.8124 126.459 66.703C126.349 66.6874 126.235 66.6769 126.12 66.6769H119.235C118.183 66.6769 117.573 66.5415 117.24 66.3488C117.198 66.3228 117.183 66.3124 117.183 66.3019C117.131 64.7655 117.203 62.8696 117.276 60.9842L117.308 60.0832Z" fill="#EBE3D2"/>
<path d="M84.6976 106.037V114.422C84.6976 120.136 89.8122 119.985 89.8278 119.985H104.14C105.369 119.985 106.364 118.995 106.364 117.771C106.364 116.547 105.369 115.552 104.14 115.552H89.8278C89.8278 115.552 89.1351 115.583 89.1351 114.422V106.13C89.1351 106.068 89.1351 106.005 89.1247 105.943C89.0882 104.922 88.5778 101.615 83.6507 101.719L74.208 101.708C72.984 101.708 71.9893 102.703 71.9893 103.927C71.9893 105.151 72.984 106.146 74.208 106.146L83.708 106.136C84.5153 106.115 84.6715 106.057 84.6976 106.037Z" fill="#EBE3D2"/>
<path d="M107.651 128.453C108.875 128.453 109.87 127.458 109.87 126.235C109.87 125.011 108.875 124.021 107.651 124.021H79.5889C78.3649 124.021 77.3701 125.011 77.3701 126.235C77.3701 127.458 78.3649 128.453 79.5889 128.453H107.651Z" fill="#EBE3D2"/>
<path d="M126.766 175.266C126.766 176.49 127.761 177.485 128.985 177.485C130.214 177.485 131.203 176.49 131.203 175.266V168.625C131.203 168.083 131.167 167.5 131.136 166.953H131.141C131.136 166.906 131.131 166.86 131.125 166.813C131.11 166.521 131.094 166.235 131.094 165.912C131.094 165.542 131.354 165.318 133.047 165.318H139.927C140.042 165.318 140.157 165.307 140.271 165.292C141.334 165.182 146.068 164.427 145.677 159.547V149.912C145.677 148.688 144.683 147.693 143.459 147.693C142.229 147.693 141.24 148.688 141.24 149.912V159.573C141.24 159.651 141.24 159.729 141.25 159.807H141.256C141.339 160.656 140.25 160.844 139.901 160.88H133.047C127.511 160.88 126.651 162.802 126.651 165.912C126.651 166.229 126.677 166.641 126.703 167.083C126.703 167.13 126.703 167.182 126.709 167.229H126.714C126.74 167.641 126.766 168.083 126.766 168.625V175.266Z" fill="#EBE3D2"/>
<path d="M153.526 144.969C153.526 143.745 152.532 142.755 151.308 142.755C150.084 142.755 149.089 143.745 149.089 144.969V171.542C149.089 172.766 150.084 173.761 151.308 173.761C152.532 173.761 153.526 172.766 153.526 171.542V144.969Z" fill="#EBE3D2"/>
<path d="M186.047 115.12C187.271 115.12 188.266 114.125 188.266 112.901C188.266 111.677 187.271 110.682 186.047 110.682H171.573C170.349 110.682 169.354 111.677 169.354 112.901C169.354 114.125 170.349 115.12 171.573 115.12H186.047Z" fill="#EBE3D2"/>
<path d="M196.584 89.6821C197.808 89.6821 198.802 88.6926 198.802 87.4686C198.802 86.2446 197.808 85.2499 196.584 85.2499H188.818C188.802 85.2499 183.683 85.104 183.683 90.8176V99.104L183.688 99.1978C183.657 99.1769 183.506 99.1196 182.698 99.0988V99.0884H173.198C171.974 99.0884 170.979 100.083 170.979 101.307C170.979 102.531 171.974 103.526 173.198 103.526H182.641V103.515C187.563 103.62 188.073 100.312 188.115 99.2915C188.12 99.229 188.125 99.1665 188.125 99.104V90.8176C188.125 89.6561 188.813 89.6821 188.818 89.6821H196.584Z" fill="#EBE3D2"/>
<path d="M168.136 121.089C166.907 121.089 165.917 122.078 165.917 123.302C165.917 124.531 166.907 125.521 168.136 125.521H184.063C184.339 125.521 184.604 125.469 184.854 125.375C184.922 125.406 185.141 125.698 184.86 128.365L184.854 128.36C184.844 128.438 184.844 128.516 184.844 128.594V135.469C184.844 136.693 185.834 137.688 187.063 137.688C188.287 137.688 189.282 136.693 189.282 135.469V128.636C190.099 120.235 185.37 120.703 183.792 121.089H168.136Z" fill="#EBE3D2"/>
<path d="M115.099 51.229C118.135 51.229 120.599 53.6978 120.599 56.729C120.599 59.7603 118.13 62.2238 115.099 62.2238C113.578 62.2238 112.203 61.6092 111.208 60.6144C110.213 59.6196 109.599 58.2446 109.599 56.729C109.599 55.2082 110.213 53.8384 111.208 52.8436C112.203 51.8488 113.578 51.229 115.099 51.229Z" fill="#EBE3D2"/>
<path d="M143.114 54.6406C144.635 54.6406 146.01 55.2552 147.005 56.25C148 57.2448 148.619 58.6198 148.619 60.1406C148.619 61.6563 148 63.0313 147.005 64.026C146.01 65.0208 144.635 65.6354 143.114 65.6354C140.083 65.6354 137.614 63.1719 137.614 60.1406C137.614 57.1094 140.083 54.6406 143.114 54.6406Z" fill="#EBE3D2"/>
<mask id="mask2_59_1939" style="mask-type:luminance" maskUnits="userSpaceOnUse" x="150" y="42" width="13" height="12">
<path d="M150.167 42.1094H162.167V53.3333H150.167V42.1094Z" fill="white"/>
</mask>
<g mask="url(#mask2_59_1939)">
<path d="M156.178 42.125C159.209 42.125 161.678 44.5885 161.678 47.6198C161.678 50.651 159.209 53.1198 156.178 53.1198C153.141 53.1198 150.672 50.651 150.672 47.6198C150.672 44.5885 153.141 42.125 156.178 42.125Z" fill="#EBE3D2"/>
</g>
<mask id="mask3_59_1939" style="mask-type:luminance" maskUnits="userSpaceOnUse" x="194" y="81" width="12" height="13">
<path d="M194.167 81.3335H205.37V93.3335H194.167V81.3335Z" fill="white"/>
</mask>
<g mask="url(#mask3_59_1939)">
<path d="M199.865 81.9689C202.896 81.9689 205.365 84.4377 205.365 87.4689C205.365 90.5002 202.902 92.9637 199.865 92.9637C196.834 92.9637 194.36 90.495 194.36 87.4689C194.36 84.4377 196.829 81.9689 199.865 81.9689Z" fill="#EBE3D2"/>
</g>
<path d="M189.328 107.406C190.849 107.406 192.224 108.021 193.219 109.016C194.214 110.01 194.828 111.385 194.828 112.901C194.828 114.417 194.214 115.792 193.219 116.786C192.224 117.781 190.849 118.401 189.328 118.401C187.807 118.401 186.432 117.781 185.438 116.786C184.443 115.792 183.828 114.417 183.828 112.901C183.828 111.385 184.443 110.01 185.438 109.016C186.432 108.021 187.807 107.406 189.328 107.406Z" fill="#EBE3D2"/>
<mask id="mask4_59_1939" style="mask-type:luminance" maskUnits="userSpaceOnUse" x="122" y="171" width="14" height="13">
<path d="M122.167 171H135.5V183.057H122.167V171Z" fill="white"/>
</mask>
<g mask="url(#mask4_59_1939)">
<path d="M128.985 172.047C132.021 172.047 134.49 174.51 134.49 177.547C134.49 180.573 132.021 183.042 128.985 183.042C125.954 183.042 123.485 180.578 123.485 177.547C123.485 174.516 125.954 172.047 128.985 172.047Z" fill="#EBE3D2"/>
</g>
<path d="M151.308 169.323C152.828 169.323 154.203 169.937 155.198 170.932C156.193 171.927 156.808 173.302 156.808 174.823C156.808 176.338 156.193 177.713 155.198 178.708C154.203 179.703 152.828 180.318 151.308 180.318C149.787 180.318 148.412 179.703 147.417 178.708C146.422 177.713 145.808 176.338 145.808 174.823C145.808 173.302 146.422 171.927 147.417 170.932C148.412 169.937 149.787 169.323 151.308 169.323Z" fill="#EBE3D2"/>
<path d="M120.906 140.896C120.906 139.672 119.911 138.677 118.688 138.677C117.464 138.677 116.469 139.672 116.469 140.896V160.589C116.469 161.813 117.464 162.807 118.688 162.807C119.911 162.807 120.906 161.813 120.906 160.589V140.896Z" fill="#EBE3D2"/>
<path d="M118.688 158.37C120.203 158.37 121.584 158.984 122.578 159.979C123.573 160.974 124.188 162.349 124.188 163.87C124.188 165.385 123.573 166.76 122.578 167.755C121.584 168.75 120.203 169.364 118.688 169.364C117.167 169.364 115.792 168.75 114.797 167.755C113.802 166.76 113.183 165.385 113.183 163.87C113.183 160.838 115.662 158.37 118.688 158.37Z" fill="#EBE3D2"/>
<path d="M187.063 133.25C188.573 133.25 189.948 133.87 190.948 134.865H190.953L190.969 134.88C191.953 135.875 192.563 137.24 192.563 138.75C192.563 140.266 191.948 141.641 190.953 142.635C190.896 142.688 190.839 142.74 190.782 142.786C189.797 143.693 188.49 144.245 187.063 144.245C185.542 144.245 184.167 143.63 183.172 142.635C182.177 141.641 181.558 140.266 181.558 138.75C181.558 137.229 182.177 135.859 183.172 134.865C184.167 133.865 185.542 133.25 187.063 133.25Z" fill="#EBE3D2"/>
<path d="M76.307 120.74C77.8226 120.74 79.1976 121.354 80.1976 122.349C80.2497 122.406 80.3018 122.458 80.3486 122.516C81.2549 123.5 81.807 124.807 81.807 126.235C81.807 129.266 79.3434 131.735 76.307 131.735C73.2705 131.735 70.8018 129.266 70.8018 126.235C70.8018 123.203 73.2705 120.74 76.307 120.74Z" fill="#EBE3D2"/>
<mask id="mask5_59_1939" style="mask-type:luminance" maskUnits="userSpaceOnUse" x="65" y="97" width="12" height="14">
<path d="M65.4219 97.3335H76.8333V110.667H65.4219V97.3335Z" fill="white"/>
</mask>
<g mask="url(#mask5_59_1939)">
<path d="M70.9272 98.4324C73.9585 98.4324 76.4272 100.906 76.4272 103.927C76.4272 105.448 75.8127 106.818 74.8179 107.813C73.8231 108.807 72.4481 109.427 70.9272 109.427C69.4064 109.427 68.0314 108.807 67.0366 107.813C66.0418 106.823 65.4272 105.448 65.4272 103.927C65.4272 102.412 66.0418 101.037 67.0366 100.042C68.0314 99.047 69.4064 98.4324 70.9272 98.4324Z" fill="#EBE3D2"/>
</g>
<path d="M101.406 94.1875C102.635 94.1875 103.63 93.1927 103.63 91.9688C103.63 90.7448 102.635 89.75 101.406 89.75H87.375C86.151 89.75 85.1562 90.7448 85.1562 91.9688C85.1562 93.1927 86.151 94.1875 87.375 94.1875H101.406Z" fill="#EBE3D2"/>
<path d="M84.0938 86.4741C87.125 86.4741 89.599 88.9377 89.599 91.9689C89.599 95.0002 87.1302 97.4637 84.0938 97.4637C81.0625 97.4637 78.5938 95.0002 78.5938 91.9689C78.5938 88.9377 81.0573 86.4741 84.0938 86.4741Z" fill="#EBE3D2"/>
<path d="M17.265 233.736C16.4004 233.736 15.5983 233.632 14.8483 233.424C14.0983 233.215 13.4368 232.903 12.8691 232.486C12.3118 232.07 11.8587 231.559 11.515 230.945C11.166 230.32 10.9525 229.601 10.8691 228.778H14.2441C14.3535 229.419 14.6712 229.919 15.2025 230.278C15.7285 230.643 16.416 230.82 17.265 230.82C18.3327 230.82 19.0879 230.648 19.5358 230.299C19.9785 229.939 20.2025 229.476 20.2025 228.903C20.2025 228.518 20.0671 228.205 19.8066 227.965C19.5566 227.731 19.2285 227.544 18.8275 227.403C18.4212 227.268 17.9577 227.148 17.4316 227.049C16.9004 226.955 16.3587 226.84 15.8066 226.715C15.2493 226.58 14.7077 226.413 14.1816 226.215C13.666 226.023 13.2077 225.757 12.8066 225.424C12.4004 225.09 12.0671 224.663 11.8066 224.132C11.5566 223.606 11.4316 222.945 11.4316 222.153C11.4316 221.393 11.5775 220.726 11.8691 220.153C12.1712 219.585 12.5879 219.106 13.1191 218.715C13.6608 218.33 14.2858 218.038 14.9941 217.84C15.7025 217.648 16.4577 217.549 17.265 217.549C18.2337 217.549 19.0775 217.669 19.7858 217.903C20.5046 218.127 21.1087 218.455 21.5983 218.882C22.0983 219.299 22.4837 219.794 22.765 220.361C23.0566 220.919 23.2493 221.518 23.3483 222.153H19.9733C19.8483 221.643 19.5671 221.231 19.14 220.924C18.7077 220.622 18.1243 220.465 17.39 220.465C16.5254 220.465 15.8952 220.643 15.4941 220.986C15.1035 221.32 14.9108 221.71 14.9108 222.153C14.9108 222.559 15.0358 222.882 15.2858 223.132C15.5462 223.382 15.8796 223.59 16.2858 223.757C16.6868 223.913 17.1504 224.044 17.6816 224.153C18.2077 224.268 18.7493 224.393 19.3066 224.528C19.8587 224.653 20.3952 224.814 20.9108 225.007C21.4368 225.205 21.9004 225.465 22.3066 225.799C22.7077 226.132 23.0358 226.549 23.2858 227.049C23.5462 227.538 23.6816 228.153 23.6816 228.903C23.6816 229.57 23.541 230.205 23.265 230.799C22.9837 231.382 22.5775 231.898 22.0358 232.34C21.4941 232.773 20.8171 233.111 20.015 233.361C19.2233 233.611 18.3066 233.736 17.265 233.736Z" fill="#EBE3D2"/>
<path d="M30.9788 233.736C30.0882 233.736 29.2809 233.596 28.5622 233.32C27.8382 233.044 27.2184 232.643 26.708 232.111C26.208 231.585 25.8174 230.939 25.5413 230.174C25.2757 229.413 25.1455 228.538 25.1455 227.549C25.1455 226.564 25.2757 225.689 25.5413 224.924C25.8174 224.163 26.208 223.518 26.708 222.986C27.2184 222.46 27.8382 222.059 28.5622 221.778C29.2809 221.502 30.0882 221.361 30.9788 221.361C31.8538 221.361 32.6351 221.507 33.333 221.799C34.0413 222.09 34.6455 222.507 35.1455 223.049C35.6559 223.58 36.0465 224.21 36.3122 224.945C36.5726 225.669 36.708 226.46 36.708 227.32C36.708 227.486 36.6976 227.648 36.6872 227.799C36.6715 227.955 36.6559 228.085 36.6455 228.195C36.6299 228.335 36.6143 228.46 36.6038 228.57H28.3955C28.5205 229.236 28.7809 229.799 29.1872 230.257C29.5882 230.705 30.1872 230.924 30.9788 230.924C31.6038 230.924 32.0622 230.83 32.3538 230.632C32.6455 230.424 32.9007 230.148 33.1247 229.799H36.4997C36.359 230.314 36.1507 230.809 35.8747 231.278C35.5934 231.752 35.234 232.169 34.7913 232.528C34.3434 232.893 33.8122 233.184 33.1872 233.403C32.5622 233.622 31.8226 233.736 30.9788 233.736ZM33.458 226.195C33.4007 225.945 33.3018 225.705 33.1663 225.465C33.0413 225.215 32.8747 224.997 32.6663 224.799C32.4684 224.606 32.2288 224.455 31.9372 224.34C31.6559 224.231 31.3382 224.174 30.9788 224.174C30.2393 224.174 29.6663 224.372 29.2497 224.757C28.8434 225.148 28.5622 225.627 28.3955 226.195H33.458Z" fill="#EBE3D2"/>
<path d="M44.1273 233.736C43.2367 233.736 42.4294 233.596 41.7106 233.32C40.9867 233.044 40.3669 232.643 39.8564 232.111C39.3564 231.585 38.9658 230.939 38.6898 230.174C38.4242 229.413 38.2939 228.538 38.2939 227.549C38.2939 226.564 38.4242 225.689 38.6898 224.924C38.9658 224.163 39.3564 223.518 39.8564 222.986C40.3669 222.46 40.9867 222.059 41.7106 221.778C42.4294 221.502 43.2367 221.361 44.1273 221.361C44.971 221.361 45.7106 221.481 46.3356 221.715C46.9606 221.955 47.4919 222.273 47.9398 222.674C48.3825 223.064 48.7419 223.518 49.0231 224.028C49.2992 224.544 49.5075 225.08 49.6481 225.632H46.5023C46.2627 225.189 45.9658 224.835 45.6064 224.57C45.2575 224.309 44.7627 224.174 44.1273 224.174C43.3356 224.174 42.6898 224.46 42.1898 225.028C41.6898 225.585 41.4398 226.424 41.4398 227.549C41.4398 228.674 41.6898 229.523 42.1898 230.09C42.6898 230.648 43.3356 230.924 44.1273 230.924C44.7627 230.924 45.2575 230.794 45.6064 230.528C45.9658 230.268 46.2627 229.913 46.5023 229.465H49.6481C49.5075 230.038 49.2992 230.58 49.0231 231.09C48.7419 231.59 48.3825 232.044 47.9398 232.445C47.4919 232.835 46.9606 233.148 46.3356 233.382C45.7106 233.617 44.971 233.736 44.1273 233.736Z" fill="#EBE3D2"/>
<path d="M56.042 233.737C55.4014 233.737 54.8128 233.622 54.2712 233.403C53.7295 233.185 53.2607 232.862 52.8753 232.445C52.5003 232.028 52.1982 231.528 51.9795 230.945C51.7712 230.351 51.667 229.669 51.667 228.903V221.591H54.8128V228.445C54.8128 229.237 55.0003 229.851 55.3753 230.278C55.7503 230.711 56.2712 230.924 56.9378 230.924C57.6149 230.924 58.1566 230.695 58.5628 230.237C58.9795 229.778 59.1878 229.185 59.1878 228.445V221.591H62.3337V233.507H59.6462L59.3128 232.153H59.1878C58.7972 232.669 58.3337 233.065 57.792 233.341C57.2503 233.601 56.667 233.737 56.042 233.737Z" fill="#EBE3D2"/>
<path d="M65.04 221.591H67.7275L68.0609 222.945H68.1859C68.5296 222.435 68.9411 222.08 69.415 221.882C69.8994 221.69 70.4255 221.591 70.9984 221.591H72.4567V224.632H71.2067C70.2484 224.632 69.5036 224.898 68.9775 225.424C68.4463 225.94 68.1859 226.648 68.1859 227.549V233.507H65.04V221.591Z" fill="#EBE3D2"/>
<path d="M74.1427 221.591H77.2886V233.507H74.1427V221.591ZM75.7052 220.361C75.2052 220.361 74.7782 220.19 74.4344 219.841C74.0854 219.497 73.9136 219.065 73.9136 218.549C73.9136 218.049 74.0854 217.627 74.4344 217.278C74.7782 216.934 75.2052 216.757 75.7052 216.757C76.2157 216.757 76.6479 216.934 76.9969 217.278C77.3407 217.627 77.5177 218.049 77.5177 218.549C77.5177 219.065 77.3407 219.497 76.9969 219.841C76.6479 220.19 76.2157 220.361 75.7052 220.361Z" fill="#EBE3D2"/>
<path d="M84.695 233.507C83.4554 233.507 82.5283 233.21 81.9033 232.611C81.2887 232.018 80.9867 231.153 80.9867 230.028V224.507H79.0908V221.591H80.9867L81.445 218.445H84.1325V221.591H86.945V224.507H84.1325V229.466C84.1325 229.815 84.2262 230.091 84.4242 230.299C84.6325 230.497 84.9085 230.591 85.2575 230.591H86.945V233.507H84.695Z" fill="#EBE3D2"/>
<path d="M92.5973 233.507L87.7432 221.591H91.2223L94.139 229.341H94.2223L97.0557 221.591H100.556L94.0348 238.007H90.764L92.5973 233.507Z" fill="#EBE3D2"/>
<path d="M111.103 233.736C110.311 233.736 109.608 233.632 108.998 233.424C108.399 233.215 107.884 232.924 107.457 232.549C107.024 232.163 106.696 231.705 106.478 231.174C106.269 230.648 106.165 230.08 106.165 229.465C106.165 228.731 106.337 228.044 106.686 227.403C107.03 226.752 107.566 226.205 108.29 225.757L109.207 225.195L108.519 224.507C108.129 224.122 107.811 223.669 107.561 223.153C107.311 222.643 107.186 222.044 107.186 221.361C107.186 220.861 107.29 220.382 107.498 219.924C107.717 219.465 108.024 219.064 108.415 218.715C108.8 218.356 109.274 218.07 109.832 217.861C110.384 217.653 110.998 217.549 111.665 217.549C113.134 217.549 114.254 217.903 115.019 218.611C115.78 219.32 116.165 220.236 116.165 221.361C116.165 222.002 116.024 222.611 115.748 223.195C115.483 223.778 114.983 224.294 114.248 224.736L113.353 225.299L115.936 227.882L117.519 226.32H121.332L117.853 229.799L121.561 233.507H117.623L115.936 231.82C115.686 232.018 115.399 232.226 115.082 232.445C114.774 232.669 114.425 232.877 114.04 233.07C113.649 233.252 113.207 233.403 112.707 233.528C112.217 233.663 111.686 233.736 111.103 233.736ZM111.332 230.924C111.842 230.924 112.316 230.83 112.748 230.632C113.175 230.424 113.566 230.148 113.915 229.799L111.103 226.986L110.436 227.445C109.754 227.893 109.415 228.486 109.415 229.236C109.415 229.752 109.571 230.163 109.894 230.465C110.228 230.773 110.707 230.924 111.332 230.924ZM112.228 222.945C112.446 222.778 112.649 222.601 112.832 222.403C113.024 222.21 113.123 221.939 113.123 221.59C113.123 221.205 112.988 220.882 112.728 220.632C112.478 220.372 112.123 220.236 111.665 220.236C111.217 220.236 110.863 220.372 110.603 220.632C110.337 220.898 110.207 221.257 110.207 221.715C110.207 221.997 110.28 222.231 110.436 222.424C110.587 222.622 110.774 222.83 110.998 223.049L111.457 223.507L112.228 222.945Z" fill="#EBE3D2"/>
<path d="M132.565 233.736C131.7 233.736 130.898 233.632 130.148 233.424C129.398 233.215 128.737 232.903 128.169 232.486C127.612 232.07 127.159 231.559 126.815 230.945C126.466 230.32 126.252 229.601 126.169 228.778H129.544C129.653 229.419 129.971 229.919 130.502 230.278C131.028 230.643 131.716 230.82 132.565 230.82C133.632 230.82 134.388 230.648 134.836 230.299C135.278 229.939 135.502 229.476 135.502 228.903C135.502 228.518 135.367 228.205 135.106 227.965C134.856 227.731 134.528 227.544 134.127 227.403C133.721 227.268 133.257 227.148 132.731 227.049C132.2 226.955 131.659 226.84 131.106 226.715C130.549 226.58 130.007 226.413 129.481 226.215C128.966 226.023 128.507 225.757 128.106 225.424C127.7 225.09 127.367 224.663 127.106 224.132C126.856 223.606 126.731 222.945 126.731 222.153C126.731 221.393 126.877 220.726 127.169 220.153C127.471 219.585 127.888 219.106 128.419 218.715C128.961 218.33 129.586 218.038 130.294 217.84C131.002 217.648 131.757 217.549 132.565 217.549C133.534 217.549 134.377 217.669 135.086 217.903C135.804 218.127 136.409 218.455 136.898 218.882C137.398 219.299 137.784 219.794 138.065 220.361C138.356 220.919 138.549 221.518 138.648 222.153H135.273C135.148 221.643 134.867 221.231 134.44 220.924C134.007 220.622 133.424 220.465 132.69 220.465C131.825 220.465 131.195 220.643 130.794 220.986C130.403 221.32 130.211 221.71 130.211 222.153C130.211 222.559 130.336 222.882 130.586 223.132C130.846 223.382 131.179 223.59 131.586 223.757C131.987 223.913 132.45 224.044 132.981 224.153C133.507 224.268 134.049 224.393 134.606 224.528C135.159 224.653 135.695 224.814 136.211 225.007C136.737 225.205 137.2 225.465 137.606 225.799C138.007 226.132 138.336 226.549 138.586 227.049C138.846 227.538 138.981 228.153 138.981 228.903C138.981 229.57 138.841 230.205 138.565 230.799C138.284 231.382 137.877 231.898 137.336 232.34C136.794 232.773 136.117 233.111 135.315 233.361C134.523 233.611 133.606 233.736 132.565 233.736Z" fill="#EBE3D2"/>
<path d="M145.383 233.737C144.742 233.737 144.154 233.622 143.612 233.403C143.07 233.185 142.602 232.862 142.216 232.445C141.841 232.028 141.539 231.528 141.32 230.945C141.112 230.351 141.008 229.669 141.008 228.903V221.591H144.154V228.445C144.154 229.237 144.341 229.851 144.716 230.278C145.091 230.711 145.612 230.924 146.279 230.924C146.956 230.924 147.497 230.695 147.904 230.237C148.32 229.778 148.529 229.185 148.529 228.445V221.591H151.674V233.507H148.987L148.654 232.153H148.529C148.138 232.669 147.674 233.065 147.133 233.341C146.591 233.601 146.008 233.737 145.383 233.737Z" fill="#EBE3D2"/>
<path d="M154.38 221.591H157.068L157.401 222.945H157.526C157.87 222.435 158.281 222.08 158.755 221.882C159.24 221.69 159.766 221.591 160.339 221.591H161.797V224.632H160.547C159.589 224.632 158.844 224.898 158.318 225.424C157.787 225.94 157.526 226.648 157.526 227.549V233.507H154.38V221.591Z" fill="#EBE3D2"/>
<path d="M162.129 221.591H165.504L168.191 230.257H168.316L171.004 221.591H174.379L170.212 233.507H166.296L162.129 221.591Z" fill="#EBE3D2"/>
<path d="M181.003 233.736C180.113 233.736 179.305 233.596 178.587 233.32C177.863 233.044 177.243 232.643 176.732 232.111C176.232 231.585 175.842 230.939 175.566 230.174C175.3 229.413 175.17 228.538 175.17 227.549C175.17 226.564 175.3 225.689 175.566 224.924C175.842 224.163 176.232 223.518 176.732 222.986C177.243 222.46 177.863 222.059 178.587 221.778C179.305 221.502 180.113 221.361 181.003 221.361C181.878 221.361 182.66 221.507 183.357 221.799C184.066 222.09 184.67 222.507 185.17 223.049C185.68 223.58 186.071 224.21 186.337 224.945C186.597 225.669 186.732 226.46 186.732 227.32C186.732 227.486 186.722 227.648 186.712 227.799C186.696 227.955 186.68 228.085 186.67 228.195C186.654 228.335 186.639 228.46 186.628 228.57H178.42C178.545 229.236 178.805 229.799 179.212 230.257C179.613 230.705 180.212 230.924 181.003 230.924C181.628 230.924 182.087 230.83 182.378 230.632C182.67 230.424 182.925 230.148 183.149 229.799H186.524C186.383 230.314 186.175 230.809 185.899 231.278C185.618 231.752 185.258 232.169 184.816 232.528C184.368 232.893 183.837 233.184 183.212 233.403C182.587 233.622 181.847 233.736 181.003 233.736ZM183.482 226.195C183.425 225.945 183.326 225.705 183.191 225.465C183.066 225.215 182.899 224.997 182.691 224.799C182.493 224.606 182.253 224.455 181.962 224.34C181.68 224.231 181.363 224.174 181.003 224.174C180.264 224.174 179.691 224.372 179.274 224.757C178.868 225.148 178.587 225.627 178.42 226.195H183.482Z" fill="#EBE3D2"/>
<path d="M188.881 221.591H192.026V233.507H188.881V221.591ZM190.443 220.361C189.943 220.361 189.516 220.19 189.172 219.841C188.823 219.497 188.651 219.065 188.651 218.549C188.651 218.049 188.823 217.627 189.172 217.278C189.516 216.934 189.943 216.757 190.443 216.757C190.953 216.757 191.386 216.934 191.735 217.278C192.078 217.627 192.256 218.049 192.256 218.549C192.256 219.065 192.078 219.497 191.735 219.841C191.386 220.19 190.953 220.361 190.443 220.361Z" fill="#EBE3D2"/>
<path d="M194.828 217.778H197.974V233.507H194.828V217.778Z" fill="#EBE3D2"/>
<path d="M200.896 217.778H204.042V233.507H200.896V217.778Z" fill="#EBE3D2"/>
<path d="M210.34 233.736C209.699 233.736 209.116 233.643 208.59 233.465C208.074 233.273 207.637 233.007 207.278 232.674C206.913 232.34 206.637 231.955 206.444 231.507C206.262 231.064 206.173 230.57 206.173 230.028C206.173 229.486 206.267 228.997 206.465 228.549C206.658 228.09 206.949 227.705 207.34 227.382C207.741 227.049 208.225 226.794 208.798 226.611C209.366 226.419 210.033 226.32 210.798 226.32H213.59V225.757C213.59 225.189 213.408 224.768 213.048 224.486C212.699 224.21 212.205 224.07 211.569 224.07C211.121 224.07 210.741 224.169 210.423 224.361C210.116 224.559 209.903 224.794 209.778 225.07H206.632C206.741 224.601 206.923 224.143 207.173 223.695C207.434 223.252 207.778 222.861 208.194 222.528C208.611 222.184 209.1 221.903 209.673 221.695C210.257 221.476 210.929 221.361 211.694 221.361C213.278 221.361 214.512 221.747 215.403 222.507C216.288 223.273 216.736 224.393 216.736 225.861V233.507H214.048L213.715 232.153H213.59C213.475 232.32 213.33 232.502 213.153 232.695C212.97 232.877 212.741 233.049 212.465 233.215C212.199 233.372 211.887 233.497 211.528 233.59C211.179 233.684 210.783 233.736 210.34 233.736ZM211.132 231.153C211.866 231.153 212.455 230.945 212.903 230.528C213.361 230.111 213.59 229.57 213.59 228.903V228.57H210.903C210.33 228.57 209.923 228.689 209.673 228.924C209.434 229.163 209.319 229.455 209.319 229.799C209.319 230.189 209.455 230.518 209.736 230.778C210.028 231.028 210.491 231.153 211.132 231.153Z" fill="#EBE3D2"/>
<path d="M219.335 221.59H222.022L222.356 222.945H222.481C222.866 222.434 223.335 222.044 223.877 221.778C224.418 221.502 225.002 221.361 225.627 221.361C226.262 221.361 226.856 221.476 227.397 221.695C227.939 221.919 228.397 222.236 228.772 222.653C229.158 223.07 229.46 223.58 229.668 224.174C229.887 224.757 230.002 225.434 230.002 226.195V233.507H226.856V226.653C226.856 225.861 226.668 225.252 226.293 224.82C225.918 224.393 225.397 224.174 224.731 224.174C224.049 224.174 223.502 224.403 223.085 224.861C222.679 225.32 222.481 225.919 222.481 226.653V233.507H219.335V221.59Z" fill="#EBE3D2"/>
<path d="M237.867 233.736C236.976 233.736 236.169 233.596 235.45 233.32C234.726 233.044 234.106 232.643 233.596 232.111C233.096 231.585 232.705 230.939 232.429 230.174C232.163 229.413 232.033 228.538 232.033 227.549C232.033 226.564 232.163 225.689 232.429 224.924C232.705 224.163 233.096 223.518 233.596 222.986C234.106 222.46 234.726 222.059 235.45 221.778C236.169 221.502 236.976 221.361 237.867 221.361C238.71 221.361 239.45 221.481 240.075 221.715C240.7 221.955 241.231 222.273 241.679 222.674C242.122 223.064 242.481 223.518 242.762 224.028C243.038 224.544 243.247 225.08 243.387 225.632H240.242C240.002 225.189 239.705 224.835 239.346 224.57C238.997 224.309 238.502 224.174 237.867 224.174C237.075 224.174 236.429 224.46 235.929 225.028C235.429 225.585 235.179 226.424 235.179 227.549C235.179 228.674 235.429 229.523 235.929 230.09C236.429 230.648 237.075 230.924 237.867 230.924C238.502 230.924 238.997 230.794 239.346 230.528C239.705 230.268 240.002 229.913 240.242 229.465H243.387C243.247 230.038 243.038 230.58 242.762 231.09C242.481 231.59 242.122 232.044 241.679 232.445C241.231 232.835 240.7 233.148 240.075 233.382C239.45 233.617 238.71 233.736 237.867 233.736Z" fill="#EBE3D2"/>
<path d="M250.677 233.736C249.786 233.736 248.979 233.596 248.26 233.32C247.536 233.044 246.917 232.643 246.406 232.111C245.906 231.585 245.516 230.939 245.24 230.174C244.974 229.413 244.844 228.538 244.844 227.549C244.844 226.564 244.974 225.689 245.24 224.924C245.516 224.163 245.906 223.518 246.406 222.986C246.917 222.46 247.536 222.059 248.26 221.778C248.979 221.502 249.786 221.361 250.677 221.361C251.552 221.361 252.333 221.507 253.031 221.799C253.74 222.09 254.344 222.507 254.844 223.049C255.354 223.58 255.745 224.21 256.01 224.945C256.271 225.669 256.406 226.46 256.406 227.32C256.406 227.486 256.396 227.648 256.385 227.799C256.37 227.955 256.354 228.085 256.344 228.195C256.328 228.335 256.312 228.46 256.302 228.57H248.094C248.219 229.236 248.479 229.799 248.885 230.257C249.286 230.705 249.885 230.924 250.677 230.924C251.302 230.924 251.76 230.83 252.052 230.632C252.344 230.424 252.599 230.148 252.823 229.799H256.198C256.057 230.314 255.849 230.809 255.573 231.278C255.292 231.752 254.932 232.169 254.49 232.528C254.042 232.893 253.51 233.184 252.885 233.403C252.26 233.622 251.521 233.736 250.677 233.736ZM253.156 226.195C253.099 225.945 253 225.705 252.865 225.465C252.74 225.215 252.573 224.997 252.365 224.799C252.167 224.606 251.927 224.455 251.635 224.34C251.354 224.231 251.036 224.174 250.677 224.174C249.937 224.174 249.365 224.372 248.948 224.757C248.542 225.148 248.26 225.627 248.094 226.195H253.156Z" fill="#EBE3D2"/>
</svg>
