<svg width="272" height="272" viewBox="0 0 272 272" fill="none" xmlns="http://www.w3.org/2000/svg">
<mask id="mask0_59_2077" style="mask-type:luminance" maskUnits="userSpaceOnUse" x="0" y="0" width="272" height="272">
<path d="M0.995117 0.953125H271.459V271.417H0.995117V0.953125Z" fill="white"/>
</mask>
<g mask="url(#mask0_59_2077)">
<mask id="mask1_59_2077" style="mask-type:luminance" maskUnits="userSpaceOnUse" x="0" y="0" width="272" height="272">
<path d="M40.9795 0.953125H231.474C242.078 0.953125 252.25 5.16667 259.75 12.6615C267.245 20.1615 271.459 30.3333 271.459 40.9375V231.432C271.459 242.036 267.245 252.208 259.75 259.708C252.25 267.203 242.078 271.417 231.474 271.417H40.9795C30.3753 271.417 20.2035 267.203 12.7087 259.708C5.20866 252.208 0.995117 242.036 0.995117 231.432V40.9375C0.995117 30.3333 5.20866 20.1615 12.7087 12.6615C20.2035 5.16667 30.3753 0.953125 40.9795 0.953125Z" fill="white"/>
</mask>
<g mask="url(#mask1_59_2077)">
<path d="M0.995117 0.953125H271.459V271.417H0.995117V0.953125Z" fill="#112B3C"/>
</g>
</g>
<path d="M79.5522 148.307L82.9637 144.901L86.3752 148.307L82.9637 151.719L79.5522 148.307Z" fill="#EBE3D2"/>
<path d="M111.979 115.932L118.808 109.115L122.219 112.521L115.396 119.339L111.979 115.932Z" fill="#EBE3D2"/>
<path d="M101.151 110.057L104.568 99.8335L109.146 101.36L105.735 111.583L101.151 110.057Z" fill="#EBE3D2"/>
<path d="M119.75 125.573L129.99 122.167L131.516 126.739L121.276 130.146L119.75 125.573Z" fill="#EBE3D2"/>
<mask id="mask2_59_2077" style="mask-type:luminance" maskUnits="userSpaceOnUse" x="59" y="48" width="148" height="143">
<path d="M59.8335 48.4321H206.156V190.375H59.8335V48.4321Z" fill="white"/>
</mask>
<g mask="url(#mask2_59_2077)">
<path d="M193.75 48.4321H82.7189C81.9272 48.4321 81.146 48.5103 80.3647 48.6665C79.5887 48.8228 78.8335 49.0519 78.1043 49.354C77.37 49.6561 76.6772 50.0259 76.021 50.4686C75.3595 50.9061 74.7502 51.4061 74.1929 51.9634C73.6304 52.5259 73.1304 53.1353 72.6877 53.7915C72.2502 54.4478 71.8804 55.1405 71.5731 55.8748C71.271 56.604 71.0418 57.354 70.8856 58.13C70.7293 58.9061 70.6512 59.6925 70.6512 60.4842V140.922L65.12 148.656C64.6616 149.297 64.3752 150.01 64.271 150.797C64.1668 151.583 64.2502 152.344 64.521 153.088L62.4793 155.125C62.146 155.458 61.8439 155.828 61.5835 156.219C61.3179 156.614 61.0991 157.031 60.9168 157.474C60.7345 157.911 60.5939 158.364 60.5054 158.828C60.4116 159.292 60.3647 159.76 60.3647 160.239C60.3647 160.713 60.4116 161.182 60.5054 161.646C60.5939 162.114 60.7345 162.562 60.9168 163.005C61.0991 163.443 61.3179 163.859 61.5835 164.255C61.8439 164.651 62.146 165.015 62.4793 165.349L65.896 168.755C66.5522 169.411 67.3127 169.922 68.1668 170.286C69.0262 170.646 69.9168 170.838 70.8491 170.854C70.9585 171.552 71.1356 172.239 71.37 172.906C71.6043 173.573 71.896 174.219 72.2397 174.833C72.5887 175.453 72.9897 176.036 73.4377 176.583C73.8908 177.13 74.3856 177.63 74.922 178.094C75.4637 178.552 76.0366 178.963 76.6512 179.318C77.2606 179.677 77.9012 179.979 78.5627 180.229C79.2293 180.474 79.9116 180.661 80.6095 180.786C81.3075 180.911 82.0106 180.974 82.7189 180.979H91.7918L98.3127 187.5C98.8595 188.052 99.4793 188.505 100.177 188.854C100.87 189.203 101.599 189.437 102.37 189.552C103.141 189.667 103.906 189.656 104.672 189.526C105.443 189.39 106.167 189.14 106.854 188.776C107.537 188.411 108.151 187.948 108.688 187.385C109.224 186.823 109.656 186.187 109.99 185.484C110.323 184.786 110.531 184.047 110.63 183.276C110.724 182.505 110.693 181.739 110.542 180.979H193.75C194.542 180.979 195.328 180.901 196.104 180.745C196.88 180.588 197.636 180.359 198.365 180.057C199.099 179.755 199.792 179.385 200.453 178.943C201.11 178.505 201.719 178.005 202.281 177.443C202.839 176.885 203.339 176.276 203.781 175.62C204.219 174.963 204.594 174.271 204.896 173.536C205.198 172.807 205.427 172.052 205.583 171.276C205.74 170.505 205.818 169.719 205.818 168.927V60.4842C205.818 59.6925 205.74 58.9061 205.583 58.13C205.427 57.354 205.198 56.604 204.896 55.8748C204.594 55.1405 204.219 54.4478 203.781 53.7915C203.339 53.1353 202.839 52.5259 202.281 51.9634C201.719 51.4061 201.11 50.9061 200.453 50.4686C199.792 50.0259 199.099 49.6561 198.365 49.354C197.636 49.0519 196.88 48.8228 196.104 48.6665C195.328 48.5103 194.542 48.4321 193.75 48.4321ZM82.7189 53.2498H193.75C194.224 53.2498 194.698 53.2967 195.162 53.3905C195.63 53.4842 196.083 53.6196 196.521 53.8019C196.958 53.9842 197.375 54.2082 197.771 54.4686C198.167 54.7342 198.531 55.0363 198.87 55.3696C199.208 55.703 199.505 56.0728 199.771 56.4634C200.037 56.8592 200.255 57.2759 200.438 57.7134C200.62 58.1561 200.761 58.604 200.854 59.0728C200.943 59.5363 200.99 60.005 200.99 60.4842V67.7134H75.4793V60.4842C75.4793 60.005 75.5262 59.5363 75.62 59.0728C75.7085 58.604 75.8491 58.1561 76.0314 57.7134C76.2137 57.2759 76.4377 56.8592 76.6981 56.4634C76.9637 56.0728 77.2658 55.703 77.5991 55.3696C77.9377 55.0363 78.3022 54.7342 78.6981 54.4686C79.0939 54.2082 79.5106 53.9842 79.9481 53.8019C80.3908 53.6196 80.8387 53.4842 81.3075 53.3905C81.7762 53.2967 82.245 53.2498 82.7189 53.2498ZM83.271 131.573L99.7241 148L79.8075 162.198L76.1356 158.531L79.547 155.125L76.1356 151.719L72.7241 155.125L69.047 151.458L83.271 131.573ZM106.38 130.792L100.505 124.927C101.333 124.703 102.162 124.698 102.995 124.917C103.823 125.14 104.542 125.552 105.146 126.161C105.755 126.765 106.167 127.484 106.386 128.312C106.604 129.14 106.599 129.969 106.375 130.792H106.38ZM109.417 140.64C109.755 140.979 110.021 141.37 110.203 141.812C110.386 142.255 110.479 142.719 110.479 143.198C110.479 143.677 110.386 144.14 110.203 144.583C110.016 145.026 109.755 145.417 109.417 145.755C109.078 146.094 108.688 146.354 108.24 146.536C107.797 146.719 107.339 146.812 106.854 146.812C106.375 146.812 105.917 146.719 105.469 146.536C105.026 146.354 104.636 146.094 104.297 145.75L85.521 126.995C85.1825 126.656 84.922 126.265 84.7397 125.823C84.5522 125.38 84.4637 124.917 84.4637 124.437C84.4637 123.958 84.5522 123.5 84.7397 123.057C84.922 122.614 85.1825 122.219 85.521 121.88C85.8595 121.542 86.2554 121.281 86.6981 121.099C87.1408 120.917 87.6043 120.823 88.0835 120.823C88.5627 120.823 89.0262 120.917 89.4689 121.099C89.9116 121.281 90.3022 121.542 90.646 121.88L109.417 140.64ZM65.896 161.937C65.672 161.713 65.495 161.453 65.3752 161.156C65.2502 160.864 65.1877 160.557 65.1877 160.234C65.1877 159.917 65.2502 159.609 65.3752 159.312C65.495 159.015 65.672 158.755 65.896 158.531L67.6043 156.828L74.4325 163.64L72.7241 165.349C72.5002 165.573 72.2397 165.75 71.9429 165.87C71.646 165.995 71.3387 166.052 71.0158 166.052C70.6981 166.052 70.3908 165.995 70.0939 165.87C69.797 165.75 69.5366 165.573 69.3075 165.349L65.896 161.937ZM82.7189 176.156C82.2606 176.156 81.8022 176.109 81.3543 176.026C80.9012 175.937 80.4637 175.807 80.0366 175.63C79.6095 175.458 79.2033 175.25 78.8127 175C78.4272 174.75 78.0679 174.469 77.7345 174.151C77.4064 173.833 77.1043 173.484 76.8387 173.109C76.5731 172.734 76.3439 172.338 76.1564 171.922C75.9637 171.5 75.8127 171.068 75.7085 170.625C75.5991 170.177 75.5366 169.724 75.5106 169.265C75.7293 169.109 75.9377 168.937 76.1356 168.755L77.8439 167.052C77.8595 167.068 77.8856 167.073 77.9012 167.088L86.9689 176.156H82.7189ZM105.151 184.094C104.922 184.318 104.662 184.484 104.365 184.604C104.068 184.724 103.761 184.786 103.443 184.786C103.125 184.786 102.818 184.724 102.521 184.604C102.224 184.484 101.964 184.318 101.735 184.094L83.2814 165.651L87.2554 162.812L105.146 180.682C105.375 180.906 105.552 181.167 105.672 181.463C105.797 181.76 105.86 182.068 105.86 182.385C105.86 182.708 105.797 183.015 105.677 183.312C105.552 183.609 105.375 183.87 105.151 184.094ZM193.75 176.156H107.448L91.2397 159.974L103.771 151.036C104.672 151.39 105.61 151.578 106.573 151.609C107.542 151.64 108.49 151.505 109.412 151.213C110.333 150.917 111.182 150.479 111.953 149.896C112.724 149.307 113.375 148.609 113.906 147.802C114.438 146.995 114.818 146.12 115.047 145.182C115.276 144.239 115.339 143.292 115.245 142.328C115.146 141.364 114.891 140.448 114.474 139.573C114.063 138.698 113.516 137.922 112.833 137.234L110.026 134.432C110.573 133.515 110.958 132.536 111.172 131.495C111.391 130.448 111.438 129.396 111.302 128.338C111.172 127.281 110.87 126.276 110.401 125.318C109.932 124.359 109.318 123.5 108.563 122.75C107.807 121.995 106.948 121.385 105.99 120.917C105.031 120.448 104.021 120.146 102.964 120.01C101.901 119.88 100.849 119.922 99.8075 120.14C98.7606 120.359 97.7762 120.739 96.8595 121.286L94.0627 118.484C93.3752 117.802 92.5939 117.255 91.7189 116.844C90.8439 116.427 89.9272 116.172 88.9637 116.073C87.995 115.974 87.047 116.042 86.1043 116.271C85.1616 116.5 84.2866 116.88 83.4741 117.411C82.6668 117.943 81.9689 118.588 81.3804 119.359C80.7918 120.13 80.3543 120.979 80.0575 121.901C79.7658 122.818 79.6304 123.765 79.6616 124.729C79.6929 125.698 79.8856 126.63 80.2345 127.531L75.4793 134.177V72.5311H200.99V168.927C200.99 169.401 200.943 169.875 200.854 170.338C200.761 170.807 200.62 171.255 200.438 171.698C200.255 172.135 200.037 172.552 199.771 172.948C199.505 173.338 199.208 173.703 198.87 174.042C198.531 174.375 198.167 174.677 197.771 174.943C197.375 175.203 196.958 175.427 196.521 175.609C196.083 175.792 195.63 175.927 195.162 176.021C194.698 176.114 194.224 176.156 193.75 176.156Z" fill="#EBE3D2"/>
</g>
<path d="M85.1357 58.0728H89.9639V62.8905H85.1357V58.0728Z" fill="#EBE3D2"/>
<path d="M94.7866 58.0728H99.6147V62.8905H94.7866V58.0728Z" fill="#EBE3D2"/>
<path d="M104.443 58.0728H109.271V62.8905H104.443V58.0728Z" fill="#EBE3D2"/>
<path d="M188.922 79.7603H130.995C130.354 79.7603 129.74 79.8853 129.146 80.13C128.558 80.3748 128.032 80.7186 127.578 81.1717C127.131 81.6248 126.782 82.1457 126.537 82.7342C126.287 83.328 126.167 83.9425 126.167 84.5832V118.323H130.995V84.5832H188.922V142.422H130.995V132.781H126.167V142.422C126.167 143.057 126.287 143.672 126.537 144.265C126.782 144.854 127.131 145.375 127.578 145.828C128.032 146.281 128.558 146.63 129.146 146.875C129.74 147.12 130.354 147.239 130.995 147.239H188.922C189.563 147.239 190.177 147.12 190.771 146.875C191.36 146.63 191.886 146.281 192.334 145.828C192.787 145.375 193.136 144.854 193.381 144.265C193.625 143.672 193.75 143.057 193.75 142.422V84.5832C193.75 83.9425 193.625 83.328 193.381 82.7342C193.136 82.1457 192.787 81.6248 192.334 81.1717C191.886 80.7186 191.36 80.3748 190.771 80.13C190.177 79.8853 189.563 79.7603 188.922 79.7603Z" fill="#EBE3D2"/>
<path d="M152.719 123.141C153.094 123.146 153.453 123.063 153.797 122.901L168.276 115.672C168.688 115.464 169.011 115.172 169.255 114.781C169.495 114.391 169.615 113.969 169.615 113.511C169.615 113.057 169.495 112.636 169.255 112.245C169.011 111.854 168.688 111.557 168.276 111.354L153.797 104.125C153.615 104.037 153.422 103.969 153.219 103.927C153.021 103.88 152.818 103.865 152.61 103.875C152.406 103.886 152.203 103.917 152.011 103.979C151.813 104.037 151.625 104.12 151.453 104.229C151.276 104.339 151.12 104.464 150.979 104.61C150.833 104.761 150.714 104.922 150.615 105.099C150.511 105.281 150.438 105.469 150.386 105.667C150.333 105.865 150.302 106.068 150.302 106.271V120.729C150.302 121.052 150.365 121.36 150.49 121.651C150.61 121.948 150.787 122.208 151.011 122.432C151.235 122.662 151.5 122.833 151.792 122.958C152.089 123.078 152.396 123.141 152.719 123.141ZM155.13 110.172L161.802 113.5L155.13 116.833V110.172Z" fill="#EBE3D2"/>
<path d="M126.167 154.469H135.823V159.292H126.167V154.469Z" fill="#EBE3D2"/>
<path d="M140.651 154.469H159.959V159.292H140.651V154.469Z" fill="#EBE3D2"/>
<path d="M164.787 154.469H193.75V159.292H164.787V154.469Z" fill="#EBE3D2"/>
<path d="M126.167 164.109H155.131V168.927H126.167V164.109Z" fill="#EBE3D2"/>
<path d="M159.958 164.109H193.75V168.927H159.958V164.109Z" fill="#EBE3D2"/>
<path d="M55.2695 217.837H66.582V221.046H58.832V224.629H66.1029V227.608H58.832V231.296H66.8112V234.504H55.2695V217.837Z" fill="#EBE3D2"/>
<path d="M69.3301 221.879H72.1842L72.5384 223.317H72.6634C73.0645 222.775 73.5488 222.369 74.1217 222.087C74.7051 221.796 75.3301 221.65 75.9967 221.65C76.6738 221.65 77.2988 221.77 77.8717 222.004C78.4395 222.228 78.9238 222.561 79.3301 223.004C79.7311 223.452 80.0488 223.983 80.2884 224.608C80.5228 225.233 80.6426 225.957 80.6426 226.775V234.504H77.2884V227.233C77.2884 226.4 77.0853 225.764 76.6842 225.317C76.2936 224.858 75.7467 224.629 75.0384 224.629C74.3145 224.629 73.7363 224.874 73.3092 225.358C72.877 225.832 72.6634 226.457 72.6634 227.233V234.504H69.3301V221.879Z" fill="#EBE3D2"/>
<path d="M88.3817 234.504C87.0588 234.504 86.0744 234.192 85.4233 233.567C84.7671 232.931 84.4442 232.015 84.4442 230.817V224.983H82.4233V221.879H84.4442L84.9233 218.546H87.7775V221.879H90.7567V224.983H87.7775V230.213C87.7775 230.588 87.8817 230.879 88.09 231.088C88.3088 231.296 88.6004 231.4 88.965 231.4H90.7567V234.504H88.3817Z" fill="#EBE3D2"/>
<path d="M98.7295 234.733C97.7816 234.733 96.9274 234.587 96.167 234.296C95.4014 234.004 94.7503 233.582 94.2087 233.025C93.667 232.473 93.2503 231.791 92.9587 230.983C92.6774 230.181 92.542 229.249 92.542 228.192C92.542 227.15 92.6774 226.228 92.9587 225.421C93.2503 224.603 93.667 223.916 94.2087 223.358C94.7503 222.806 95.4014 222.379 96.167 222.087C96.9274 221.796 97.7816 221.65 98.7295 221.65C99.6462 221.65 100.479 221.806 101.229 222.108C101.979 222.416 102.615 222.853 103.146 223.421C103.688 223.994 104.094 224.66 104.375 225.421C104.667 226.186 104.813 227.035 104.813 227.962C104.813 228.129 104.797 228.296 104.771 228.462C104.756 228.619 104.74 228.754 104.729 228.879C104.714 229.035 104.698 229.166 104.688 229.275H96.0003C96.1253 229.983 96.4014 230.582 96.8337 231.067C97.2607 231.541 97.8962 231.775 98.7295 231.775C99.3805 231.775 99.8597 231.671 100.167 231.462C100.485 231.244 100.761 230.942 101 230.567H104.563C104.422 231.108 104.209 231.629 103.917 232.129C103.625 232.629 103.24 233.077 102.771 233.462C102.297 233.853 101.729 234.166 101.063 234.4C100.396 234.619 99.6149 234.733 98.7295 234.733ZM101.354 226.775C101.282 226.499 101.177 226.233 101.042 225.983C100.917 225.733 100.74 225.504 100.521 225.296C100.313 225.087 100.052 224.931 99.7503 224.817C99.4587 224.692 99.1149 224.629 98.7295 224.629C97.9482 224.629 97.3389 224.837 96.8962 225.254C96.4639 225.66 96.167 226.166 96.0003 226.775H101.354Z" fill="#EBE3D2"/>
<path d="M107.079 221.879H109.933L110.287 223.316H110.412C110.772 222.775 111.204 222.4 111.704 222.191C112.215 221.983 112.772 221.879 113.371 221.879H114.933V225.108H113.621C112.605 225.108 111.813 225.389 111.246 225.941C110.688 226.499 110.412 227.249 110.412 228.191V234.504H107.079V221.879Z" fill="#EBE3D2"/>
<path d="M121.724 234.504C120.402 234.504 119.417 234.192 118.766 233.567C118.11 232.931 117.787 232.015 117.787 230.817V224.983H115.766V221.879H117.787L118.266 218.546H121.12V221.879H124.099V224.983H121.12V230.213C121.12 230.588 121.224 230.879 121.433 231.088C121.652 231.296 121.943 231.4 122.308 231.4H124.099V234.504H121.724Z" fill="#EBE3D2"/>
<path d="M130.176 234.733C129.494 234.733 128.874 234.634 128.322 234.442C127.781 234.249 127.312 233.978 126.926 233.629C126.551 233.285 126.26 232.874 126.051 232.4C125.854 231.916 125.76 231.389 125.76 230.817C125.76 230.249 125.864 229.728 126.072 229.254C126.281 228.77 126.583 228.353 126.989 228.004C127.406 227.66 127.911 227.389 128.51 227.192C129.119 226.983 129.833 226.879 130.656 226.879H133.614V226.296C133.614 225.686 133.426 225.233 133.051 224.942C132.676 224.65 132.156 224.504 131.489 224.504C130.999 224.504 130.593 224.608 130.26 224.817C129.926 225.025 129.697 225.275 129.572 225.567H126.239C126.348 225.067 126.541 224.582 126.822 224.108C127.098 223.639 127.452 223.223 127.885 222.858C128.327 222.499 128.854 222.207 129.468 221.983C130.077 221.764 130.786 221.65 131.593 221.65C133.27 221.65 134.583 222.056 135.531 222.858C136.489 223.666 136.968 224.848 136.968 226.4V234.504H134.093L133.739 233.067H133.614C133.489 233.249 133.327 233.442 133.135 233.65C132.952 233.848 132.718 234.025 132.426 234.192C132.145 234.358 131.822 234.494 131.447 234.587C131.072 234.681 130.645 234.733 130.176 234.733ZM131.01 232.004C131.786 232.004 132.411 231.791 132.885 231.358C133.369 230.916 133.614 230.337 133.614 229.629V229.275H130.76C130.161 229.275 129.729 229.4 129.468 229.65C129.218 229.9 129.093 230.207 129.093 230.567C129.093 230.983 129.244 231.332 129.551 231.608C129.854 231.874 130.343 232.004 131.01 232.004Z" fill="#EBE3D2"/>
<path d="M139.707 221.879H143.04V234.504H139.707V221.879ZM141.374 220.566C140.832 220.566 140.374 220.389 139.999 220.025C139.634 219.665 139.457 219.212 139.457 218.671C139.457 218.129 139.634 217.681 139.999 217.316C140.374 216.941 140.832 216.754 141.374 216.754C141.9 216.754 142.342 216.941 142.707 217.316C143.082 217.681 143.27 218.129 143.27 218.671C143.27 219.212 143.082 219.665 142.707 220.025C142.342 220.389 141.9 220.566 141.374 220.566Z" fill="#EBE3D2"/>
<path d="M145.899 221.879H148.754L149.108 223.317H149.233C149.634 222.775 150.118 222.369 150.691 222.087C151.274 221.796 151.899 221.65 152.566 221.65C153.243 221.65 153.868 221.77 154.441 222.004C155.009 222.228 155.493 222.561 155.899 223.004C156.3 223.452 156.618 223.983 156.858 224.608C157.092 225.233 157.212 225.957 157.212 226.775V234.504H153.858V227.233C153.858 226.4 153.655 225.764 153.254 225.317C152.863 224.858 152.316 224.629 151.608 224.629C150.884 224.629 150.306 224.874 149.879 225.358C149.446 225.832 149.233 226.457 149.233 227.233V234.504H145.899V221.879Z" fill="#EBE3D2"/>
<path d="M159.951 221.879H162.805L163.16 223.317H163.285C163.644 222.775 164.061 222.369 164.535 222.087C165.003 221.796 165.576 221.65 166.243 221.65C166.785 221.65 167.248 221.723 167.639 221.858C168.024 221.999 168.357 222.171 168.639 222.379C168.915 222.587 169.139 222.811 169.305 223.046C169.472 223.285 169.602 223.494 169.701 223.671H169.826C169.92 223.494 170.061 223.285 170.243 223.046C170.436 222.811 170.691 222.587 171.014 222.379C171.331 222.171 171.706 221.999 172.139 221.858C172.566 221.723 173.066 221.65 173.639 221.65C174.316 221.65 174.941 221.77 175.514 222.004C176.081 222.228 176.566 222.556 176.972 222.983C177.389 223.416 177.706 223.942 177.93 224.567C178.165 225.181 178.285 225.874 178.285 226.65V234.504H174.951V227.129C174.951 226.686 174.894 226.306 174.785 225.983C174.67 225.666 174.519 225.41 174.326 225.212C174.128 225.004 173.899 224.858 173.639 224.775C173.389 224.681 173.107 224.629 172.805 224.629C172.264 224.629 171.79 224.837 171.389 225.254C170.982 225.66 170.785 226.285 170.785 227.129V234.504H167.451V227.129C167.451 226.686 167.394 226.306 167.285 225.983C167.17 225.666 167.019 225.41 166.826 225.212C166.628 225.004 166.399 224.858 166.139 224.775C165.873 224.681 165.597 224.629 165.305 224.629C164.764 224.629 164.29 224.853 163.889 225.296C163.482 225.744 163.285 226.353 163.285 227.129V234.504H159.951V221.879Z" fill="#EBE3D2"/>
<path d="M186.611 234.733C185.663 234.733 184.809 234.587 184.049 234.296C183.283 234.004 182.632 233.582 182.09 233.025C181.549 232.473 181.132 231.791 180.84 230.983C180.559 230.181 180.424 229.249 180.424 228.192C180.424 227.15 180.559 226.228 180.84 225.421C181.132 224.603 181.549 223.916 182.09 223.358C182.632 222.806 183.283 222.379 184.049 222.087C184.809 221.796 185.663 221.65 186.611 221.65C187.528 221.65 188.361 221.806 189.111 222.108C189.861 222.416 190.497 222.853 191.028 223.421C191.57 223.994 191.976 224.66 192.257 225.421C192.549 226.186 192.695 227.035 192.695 227.962C192.695 228.129 192.679 228.296 192.653 228.462C192.637 228.619 192.622 228.754 192.611 228.879C192.596 229.035 192.58 229.166 192.57 229.275H183.882C184.007 229.983 184.283 230.582 184.715 231.067C185.143 231.541 185.778 231.775 186.611 231.775C187.262 231.775 187.742 231.671 188.049 231.462C188.367 231.244 188.643 230.942 188.882 230.567H192.445C192.304 231.108 192.09 231.629 191.799 232.129C191.507 232.629 191.122 233.077 190.653 233.462C190.179 233.853 189.611 234.166 188.945 234.4C188.278 234.619 187.497 234.733 186.611 234.733ZM189.236 226.775C189.163 226.499 189.059 226.233 188.924 225.983C188.799 225.733 188.622 225.504 188.403 225.296C188.195 225.087 187.934 224.931 187.632 224.817C187.34 224.692 186.997 224.629 186.611 224.629C185.83 224.629 185.221 224.837 184.778 225.254C184.346 225.66 184.049 226.166 183.882 226.775H189.236Z" fill="#EBE3D2"/>
<path d="M194.961 221.879H197.815L198.169 223.317H198.294C198.695 222.775 199.18 222.369 199.753 222.087C200.336 221.796 200.961 221.65 201.628 221.65C202.305 221.65 202.93 221.77 203.503 222.004C204.07 222.228 204.555 222.561 204.961 223.004C205.362 223.452 205.68 223.983 205.919 224.608C206.154 225.233 206.273 225.957 206.273 226.775V234.504H202.919V227.233C202.919 226.4 202.716 225.764 202.315 225.317C201.924 224.858 201.378 224.629 200.669 224.629C199.945 224.629 199.367 224.874 198.94 225.358C198.508 225.832 198.294 226.457 198.294 227.233V234.504H194.961V221.879Z" fill="#EBE3D2"/>
<path d="M214.013 234.504C212.69 234.504 211.705 234.192 211.054 233.567C210.398 232.931 210.075 232.015 210.075 230.817V224.983H208.054V221.879H210.075L210.554 218.546H213.408V221.879H216.388V224.983H213.408V230.213C213.408 230.588 213.513 230.879 213.721 231.088C213.94 231.296 214.231 231.4 214.596 231.4H216.388V234.504H214.013Z" fill="#EBE3D2"/>
</svg>
