<svg width="272" height="272" viewBox="0 0 272 272" fill="none" xmlns="http://www.w3.org/2000/svg">
<mask id="mask0_59_2161" style="mask-type:luminance" maskUnits="userSpaceOnUse" x="0" y="0" width="272" height="272">
<path d="M0.953125 0.953125H271.422V271.417H0.953125V0.953125Z" fill="white"/>
</mask>
<g mask="url(#mask0_59_2161)">
<mask id="mask1_59_2161" style="mask-type:luminance" maskUnits="userSpaceOnUse" x="0" y="0" width="272" height="272">
<path d="M40.9375 0.953125H231.438C242.042 0.953125 252.208 5.16667 259.708 12.6615C267.208 20.1615 271.422 30.3333 271.422 40.9375V231.432C271.422 242.036 267.208 252.208 259.708 259.708C252.208 267.203 242.042 271.417 231.438 271.417H40.9375C30.3333 271.417 20.1667 267.203 12.6667 259.708C5.16667 252.208 0.953125 242.036 0.953125 231.432V40.9375C0.953125 30.3333 5.16667 20.1615 12.6667 12.6615C20.1667 5.16667 30.3333 0.953125 40.9375 0.953125Z" fill="white"/>
</mask>
<g mask="url(#mask1_59_2161)">
<path d="M0.953125 0.953125H271.422V271.417H0.953125V0.953125Z" fill="#112B3C"/>
</g>
</g>
<path d="M22.5155 217.837H26.9113L32.8696 234.504H29.1821L28.1196 231.4H21.328L20.2446 234.504H16.5571L22.5155 217.837ZM26.953 228.192L24.7863 221.879H24.6613L22.4946 228.192H26.953Z" fill="#EBE3D2"/>
<path d="M39.7793 234.733C38.8314 234.733 37.9772 234.587 37.2168 234.296C36.4512 234.004 35.8001 233.582 35.2585 233.025C34.7168 232.473 34.3001 231.791 34.0085 230.983C33.7272 230.181 33.5918 229.249 33.5918 228.192C33.5918 227.15 33.7272 226.228 34.0085 225.421C34.3001 224.603 34.7168 223.916 35.2585 223.358C35.8001 222.806 36.4512 222.379 37.2168 222.087C37.9772 221.796 38.8314 221.65 39.7793 221.65C40.696 221.65 41.5293 221.806 42.2793 222.108C43.0293 222.416 43.6647 222.853 44.196 223.421C44.7376 223.994 45.1439 224.66 45.4251 225.421C45.7168 226.186 45.8626 227.035 45.8626 227.962C45.8626 228.129 45.847 228.296 45.821 228.462C45.8053 228.619 45.7897 228.754 45.7793 228.879C45.7637 229.035 45.748 229.166 45.7376 229.275H37.0501C37.1751 229.983 37.4512 230.582 37.8835 231.067C38.3105 231.541 38.946 231.775 39.7793 231.775C40.4303 231.775 40.9095 231.671 41.2168 231.462C41.5345 231.244 41.8105 230.942 42.0501 230.567H45.6126C45.472 231.108 45.2585 231.629 44.9668 232.129C44.6751 232.629 44.2897 233.077 43.821 233.462C43.347 233.853 42.7793 234.166 42.1126 234.4C41.446 234.619 40.6647 234.733 39.7793 234.733ZM42.4043 226.775C42.3314 226.499 42.2272 226.233 42.0918 225.983C41.9668 225.733 41.7897 225.504 41.571 225.296C41.3626 225.087 41.1022 224.931 40.8001 224.817C40.5085 224.692 40.1647 224.629 39.7793 224.629C38.998 224.629 38.3887 224.837 37.946 225.254C37.5137 225.66 37.2168 226.166 37.0501 226.775H42.4043Z" fill="#EBE3D2"/>
<path d="M48.1279 221.879H50.9821L51.3363 223.316H51.4613C51.8206 222.775 52.2529 222.4 52.7529 222.191C53.2633 221.983 53.8206 221.879 54.4196 221.879H55.9821V225.108H54.6696C53.654 225.108 52.8623 225.389 52.2946 225.941C51.7373 226.499 51.4613 227.249 51.4613 228.191V234.504H48.1279V221.879Z" fill="#EBE3D2"/>
<path d="M57.7739 221.879H61.1073V234.504H57.7739V221.879ZM59.4406 220.566C58.8989 220.566 58.4406 220.389 58.0656 220.025C57.701 219.665 57.5239 219.212 57.5239 218.671C57.5239 218.129 57.701 217.681 58.0656 217.316C58.4406 216.941 58.8989 216.754 59.4406 216.754C59.9666 216.754 60.4093 216.941 60.7739 217.316C61.1489 217.681 61.3364 218.129 61.3364 218.671C61.3364 219.212 61.1489 219.665 60.7739 220.025C60.4093 220.389 59.9666 220.566 59.4406 220.566Z" fill="#EBE3D2"/>
<path d="M67.6535 234.733C66.9712 234.733 66.3514 234.634 65.7993 234.442C65.2576 234.249 64.7889 233.978 64.4035 233.629C64.0285 233.285 63.7368 232.874 63.5285 232.4C63.3306 231.916 63.2368 231.389 63.2368 230.817C63.2368 230.249 63.341 229.728 63.5493 229.254C63.7576 228.77 64.0597 228.353 64.466 228.004C64.8826 227.66 65.3879 227.389 65.9868 227.192C66.5962 226.983 67.3097 226.879 68.1326 226.879H71.091V226.296C71.091 225.686 70.9035 225.233 70.5285 224.942C70.1535 224.65 69.6326 224.504 68.966 224.504C68.4764 224.504 68.0701 224.608 67.7368 224.817C67.4035 225.025 67.1743 225.275 67.0493 225.567H63.716C63.8254 225.067 64.0181 224.582 64.2993 224.108C64.5754 223.639 64.9295 223.223 65.3618 222.858C65.8045 222.499 66.3306 222.207 66.9451 221.983C67.5545 221.764 68.2629 221.65 69.0701 221.65C70.7472 221.65 72.0597 222.056 73.0077 222.858C73.966 223.666 74.4452 224.848 74.4452 226.4V234.504H71.5702L71.216 233.067H71.091C70.966 233.249 70.8045 233.442 70.6118 233.65C70.4295 233.848 70.1951 234.025 69.9035 234.192C69.6222 234.358 69.2993 234.494 68.9243 234.587C68.5493 234.681 68.1222 234.733 67.6535 234.733ZM68.4868 232.004C69.2629 232.004 69.8879 231.791 70.3618 231.358C70.8462 230.916 71.091 230.337 71.091 229.629V229.275H68.2368C67.6379 229.275 67.2056 229.4 66.9451 229.65C66.6951 229.9 66.5701 230.207 66.5701 230.567C66.5701 230.983 66.7212 231.332 67.0285 231.608C67.3306 231.874 67.8201 232.004 68.4868 232.004Z" fill="#EBE3D2"/>
<path d="M77.2881 217.837H80.6214V234.504H77.2881V217.837Z" fill="#EBE3D2"/>
<path d="M92.7799 234.733C92.0977 234.733 91.4779 234.634 90.9258 234.442C90.3841 234.249 89.9154 233.978 89.5299 233.629C89.1549 233.285 88.8633 232.874 88.6549 232.4C88.457 231.916 88.3633 231.389 88.3633 230.817C88.3633 230.249 88.4674 229.728 88.6758 229.254C88.8841 228.77 89.1862 228.353 89.5924 228.004C90.0091 227.66 90.5143 227.389 91.1133 227.192C91.7227 226.983 92.4362 226.879 93.2591 226.879H96.2174V226.296C96.2174 225.686 96.0299 225.233 95.6549 224.942C95.2799 224.65 94.7591 224.504 94.0924 224.504C93.6029 224.504 93.1966 224.608 92.8633 224.817C92.5299 225.025 92.3008 225.275 92.1758 225.567H88.8424C88.9518 225.067 89.1445 224.582 89.4258 224.108C89.7018 223.639 90.056 223.223 90.4883 222.858C90.931 222.499 91.457 222.207 92.0716 221.983C92.681 221.764 93.3893 221.65 94.1966 221.65C95.8737 221.65 97.1862 222.056 98.1341 222.858C99.0924 223.666 99.5716 224.848 99.5716 226.4V234.504H96.6966L96.3424 233.067H96.2174C96.0924 233.249 95.931 233.442 95.7383 233.65C95.556 233.848 95.3216 234.025 95.0299 234.192C94.7487 234.358 94.4258 234.494 94.0508 234.587C93.6758 234.681 93.2487 234.733 92.7799 234.733ZM93.6133 232.004C94.3893 232.004 95.0143 231.791 95.4883 231.358C95.9727 230.916 96.2174 230.337 96.2174 229.629V229.275H93.3633C92.7643 229.275 92.332 229.4 92.0716 229.65C91.8216 229.9 91.6966 230.207 91.6966 230.567C91.6966 230.983 91.8477 231.332 92.1549 231.608C92.457 231.874 92.9466 232.004 93.6133 232.004Z" fill="#EBE3D2"/>
<path d="M107.185 234.733C106.378 234.733 105.644 234.593 104.977 234.317C104.31 234.041 103.732 233.624 103.248 233.067C102.758 232.514 102.378 231.832 102.102 231.025C101.836 230.223 101.706 229.275 101.706 228.192C101.706 227.139 101.836 226.202 102.102 225.379C102.378 224.561 102.758 223.874 103.248 223.317C103.732 222.764 104.31 222.348 104.977 222.067C105.644 221.791 106.378 221.65 107.185 221.65C107.654 221.65 108.081 221.707 108.456 221.817C108.831 221.916 109.154 222.041 109.435 222.192C109.727 222.348 109.961 222.52 110.144 222.712C110.336 222.895 110.503 223.056 110.644 223.192H110.748V217.837H114.081V234.504H111.227L110.873 233.067H110.748C110.581 233.275 110.378 233.483 110.144 233.692C109.92 233.889 109.664 234.067 109.373 234.233C109.081 234.389 108.753 234.504 108.394 234.587C108.029 234.681 107.628 234.733 107.185 234.733ZM107.894 231.775C108.279 231.775 108.649 231.707 108.998 231.567C109.341 231.431 109.649 231.212 109.914 230.921C110.175 230.629 110.378 230.264 110.519 229.817C110.67 229.358 110.748 228.817 110.748 228.192C110.748 227.582 110.67 227.046 110.519 226.587C110.378 226.129 110.175 225.754 109.914 225.462C109.649 225.171 109.341 224.962 108.998 224.837C108.649 224.702 108.279 224.629 107.894 224.629C107.519 224.629 107.149 224.702 106.789 224.837C106.44 224.962 106.133 225.171 105.873 225.462C105.623 225.754 105.42 226.129 105.269 226.587C105.112 227.046 105.039 227.582 105.039 228.192C105.039 228.817 105.112 229.358 105.269 229.817C105.42 230.264 105.623 230.629 105.873 230.921C106.133 231.212 106.44 231.431 106.789 231.567C107.149 231.707 107.519 231.775 107.894 231.775Z" fill="#EBE3D2"/>
<path d="M115.639 221.879H119.201L122.076 231.046H122.18L125.035 221.879H128.618L124.201 234.504H120.035L115.639 221.879Z" fill="#EBE3D2"/>
<path d="M135.64 234.733C134.692 234.733 133.838 234.587 133.077 234.296C132.312 234.004 131.66 233.582 131.119 233.025C130.577 232.473 130.16 231.791 129.869 230.983C129.588 230.181 129.452 229.249 129.452 228.192C129.452 227.15 129.588 226.228 129.869 225.421C130.16 224.603 130.577 223.916 131.119 223.358C131.66 222.806 132.312 222.379 133.077 222.087C133.838 221.796 134.692 221.65 135.64 221.65C136.556 221.65 137.39 221.806 138.14 222.108C138.89 222.416 139.525 222.853 140.056 223.421C140.598 223.994 141.004 224.66 141.285 225.421C141.577 226.186 141.723 227.035 141.723 227.962C141.723 228.129 141.707 228.296 141.681 228.462C141.666 228.619 141.65 228.754 141.64 228.879C141.624 229.035 141.608 229.166 141.598 229.275H132.91C133.035 229.983 133.312 230.582 133.744 231.067C134.171 231.541 134.806 231.775 135.64 231.775C136.291 231.775 136.77 231.671 137.077 231.462C137.395 231.244 137.671 230.942 137.91 230.567H141.473C141.332 231.108 141.119 231.629 140.827 232.129C140.535 232.629 140.15 233.077 139.681 233.462C139.207 233.853 138.64 234.166 137.973 234.4C137.306 234.619 136.525 234.733 135.64 234.733ZM138.265 226.775C138.192 226.499 138.088 226.233 137.952 225.983C137.827 225.733 137.65 225.504 137.431 225.296C137.223 225.087 136.963 224.931 136.66 224.817C136.369 224.692 136.025 224.629 135.64 224.629C134.858 224.629 134.249 224.837 133.806 225.254C133.374 225.66 133.077 226.166 132.91 226.775H138.265Z" fill="#EBE3D2"/>
<path d="M143.989 221.879H146.843L147.197 223.316H147.322C147.681 222.775 148.114 222.4 148.614 222.191C149.124 221.983 149.681 221.879 150.28 221.879H151.843V225.108H150.53C149.515 225.108 148.723 225.389 148.155 225.941C147.598 226.499 147.322 227.249 147.322 228.191V234.504H143.989V221.879Z" fill="#EBE3D2"/>
<path d="M158.634 234.504C157.311 234.504 156.327 234.192 155.676 233.567C155.02 232.931 154.697 232.015 154.697 230.817V224.983H152.676V221.879H154.697L155.176 218.546H158.03V221.879H161.009V224.983H158.03V230.213C158.03 230.588 158.134 230.879 158.342 231.088C158.561 231.296 158.853 231.4 159.217 231.4H161.009V234.504H158.634Z" fill="#EBE3D2"/>
<path d="M163.399 221.879H166.732V234.504H163.399V221.879ZM165.066 220.566C164.524 220.566 164.066 220.389 163.691 220.025C163.326 219.665 163.149 219.212 163.149 218.671C163.149 218.129 163.326 217.681 163.691 217.316C164.066 216.941 164.524 216.754 165.066 216.754C165.592 216.754 166.034 216.941 166.399 217.316C166.774 217.681 166.961 218.129 166.961 218.671C166.961 219.212 166.774 219.665 166.399 220.025C166.034 220.389 165.592 220.566 165.066 220.566Z" fill="#EBE3D2"/>
<path d="M174.216 234.733C173.299 234.733 172.508 234.619 171.841 234.4C171.174 234.181 170.617 233.879 170.174 233.504C169.727 233.129 169.383 232.692 169.133 232.192C168.893 231.692 168.727 231.15 168.633 230.567H172.195C172.263 230.874 172.466 231.15 172.799 231.4C173.143 231.65 173.617 231.775 174.216 231.775C175.049 231.775 175.612 231.681 175.904 231.483C176.206 231.275 176.362 231.056 176.362 230.817C176.362 230.499 176.18 230.27 175.82 230.129C175.471 229.978 175.029 229.848 174.487 229.733C173.945 229.624 173.362 229.504 172.737 229.379C172.112 229.254 171.529 229.046 170.987 228.754C170.445 228.462 169.992 228.061 169.633 227.546C169.284 227.035 169.112 226.337 169.112 225.462C169.112 224.921 169.221 224.421 169.445 223.962C169.664 223.504 169.987 223.103 170.404 222.754C170.831 222.41 171.367 222.139 172.008 221.942C172.643 221.749 173.383 221.65 174.216 221.65C175.102 221.65 175.872 221.754 176.529 221.962C177.18 222.16 177.721 222.436 178.154 222.796C178.596 223.16 178.935 223.582 179.174 224.067C179.424 224.541 179.596 225.041 179.695 225.567H176.133C176.06 225.332 175.888 225.119 175.612 224.921C175.346 224.728 174.883 224.629 174.216 224.629C173.685 224.629 173.279 224.712 172.987 224.879C172.695 225.035 172.549 225.228 172.549 225.462C172.549 225.785 172.727 226.014 173.091 226.15C173.451 226.291 173.904 226.416 174.445 226.525C174.987 226.639 175.57 226.754 176.195 226.879C176.82 227.004 177.404 227.223 177.945 227.525C178.487 227.817 178.93 228.223 179.279 228.733C179.638 229.249 179.82 229.942 179.82 230.817C179.82 231.317 179.727 231.806 179.549 232.275C179.367 232.749 179.06 233.166 178.633 233.525C178.201 233.889 177.622 234.181 176.904 234.4C176.18 234.619 175.284 234.733 174.216 234.733Z" fill="#EBE3D2"/>
<path d="M187.44 234.733C186.492 234.733 185.638 234.587 184.877 234.296C184.112 234.004 183.461 233.582 182.919 233.025C182.377 232.473 181.961 231.791 181.669 230.983C181.388 230.181 181.252 229.249 181.252 228.192C181.252 227.15 181.388 226.228 181.669 225.421C181.961 224.603 182.377 223.916 182.919 223.358C183.461 222.806 184.112 222.379 184.877 222.087C185.638 221.796 186.492 221.65 187.44 221.65C188.357 221.65 189.19 221.806 189.94 222.108C190.69 222.416 191.325 222.853 191.857 223.421C192.398 223.994 192.805 224.66 193.086 225.421C193.377 226.186 193.523 227.035 193.523 227.962C193.523 228.129 193.508 228.296 193.482 228.462C193.466 228.619 193.45 228.754 193.44 228.879C193.424 229.035 193.409 229.166 193.398 229.275H184.711C184.836 229.983 185.112 230.582 185.544 231.067C185.971 231.541 186.607 231.775 187.44 231.775C188.091 231.775 188.57 231.671 188.877 231.462C189.195 231.244 189.471 230.942 189.711 230.567H193.273C193.133 231.108 192.919 231.629 192.627 232.129C192.336 232.629 191.95 233.077 191.482 233.462C191.008 233.853 190.44 234.166 189.773 234.4C189.107 234.619 188.325 234.733 187.44 234.733ZM190.065 226.775C189.992 226.499 189.888 226.233 189.752 225.983C189.627 225.733 189.45 225.504 189.232 225.296C189.023 225.087 188.763 224.931 188.461 224.817C188.169 224.692 187.825 224.629 187.44 224.629C186.659 224.629 186.049 224.837 185.607 225.254C185.174 225.66 184.877 226.166 184.711 226.775H190.065Z" fill="#EBE3D2"/>
<path d="M195.789 221.879H198.643L198.997 223.317H199.122C199.482 222.775 199.898 222.369 200.372 222.087C200.841 221.796 201.414 221.65 202.081 221.65C202.622 221.65 203.086 221.723 203.477 221.858C203.862 221.999 204.195 222.171 204.477 222.379C204.753 222.587 204.977 222.811 205.143 223.046C205.31 223.285 205.44 223.494 205.539 223.671H205.664C205.758 223.494 205.898 223.285 206.081 223.046C206.273 222.811 206.529 222.587 206.852 222.379C207.169 222.171 207.544 221.999 207.977 221.858C208.404 221.723 208.904 221.65 209.477 221.65C210.154 221.65 210.779 221.77 211.352 222.004C211.919 222.228 212.404 222.556 212.81 222.983C213.227 223.416 213.544 223.942 213.768 224.567C214.003 225.181 214.122 225.874 214.122 226.65V234.504H210.789V227.129C210.789 226.686 210.732 226.306 210.622 225.983C210.508 225.666 210.357 225.41 210.164 225.212C209.966 225.004 209.737 224.858 209.477 224.775C209.227 224.681 208.945 224.629 208.643 224.629C208.102 224.629 207.628 224.837 207.227 225.254C206.82 225.66 206.622 226.285 206.622 227.129V234.504H203.289V227.129C203.289 226.686 203.232 226.306 203.122 225.983C203.008 225.666 202.857 225.41 202.664 225.212C202.466 225.004 202.237 224.858 201.977 224.775C201.711 224.681 201.435 224.629 201.143 224.629C200.602 224.629 200.128 224.853 199.727 225.296C199.32 225.744 199.122 226.353 199.122 227.129V234.504H195.789V221.879Z" fill="#EBE3D2"/>
<path d="M222.45 234.733C221.502 234.733 220.648 234.587 219.887 234.296C219.122 234.004 218.471 233.582 217.929 233.025C217.387 232.473 216.971 231.791 216.679 230.983C216.398 230.181 216.262 229.249 216.262 228.192C216.262 227.15 216.398 226.228 216.679 225.421C216.971 224.603 217.387 223.916 217.929 223.358C218.471 222.806 219.122 222.379 219.887 222.087C220.648 221.796 221.502 221.65 222.45 221.65C223.366 221.65 224.2 221.806 224.95 222.108C225.7 222.416 226.335 222.853 226.866 223.421C227.408 223.994 227.814 224.66 228.096 225.421C228.387 226.186 228.533 227.035 228.533 227.962C228.533 228.129 228.517 228.296 228.491 228.462C228.476 228.619 228.46 228.754 228.45 228.879C228.434 229.035 228.418 229.166 228.408 229.275H219.721C219.846 229.983 220.122 230.582 220.554 231.067C220.981 231.541 221.616 231.775 222.45 231.775C223.101 231.775 223.58 231.671 223.887 231.462C224.205 231.244 224.481 230.942 224.721 230.567H228.283C228.142 231.108 227.929 231.629 227.637 232.129C227.346 232.629 226.96 233.077 226.491 233.462C226.017 233.853 225.45 234.166 224.783 234.4C224.116 234.619 223.335 234.733 222.45 234.733ZM225.075 226.775C225.002 226.499 224.898 226.233 224.762 225.983C224.637 225.733 224.46 225.504 224.241 225.296C224.033 225.087 223.773 224.931 223.471 224.817C223.179 224.692 222.835 224.629 222.45 224.629C221.668 224.629 221.059 224.837 220.616 225.254C220.184 225.66 219.887 226.166 219.721 226.775H225.075Z" fill="#EBE3D2"/>
<path d="M230.799 221.879H233.653L234.007 223.317H234.132C234.533 222.775 235.018 222.369 235.59 222.087C236.174 221.796 236.799 221.65 237.465 221.65C238.143 221.65 238.768 221.77 239.34 222.004C239.908 222.228 240.393 222.561 240.799 223.004C241.2 223.452 241.518 223.983 241.757 224.608C241.992 225.233 242.111 225.957 242.111 226.775V234.504H238.757V227.233C238.757 226.4 238.554 225.764 238.153 225.317C237.762 224.858 237.215 224.629 236.507 224.629C235.783 224.629 235.205 224.874 234.778 225.358C234.346 225.832 234.132 226.457 234.132 227.233V234.504H230.799V221.879Z" fill="#EBE3D2"/>
<path d="M249.85 234.504C248.528 234.504 247.543 234.192 246.892 233.567C246.236 232.931 245.913 232.015 245.913 230.817V224.983H243.892V221.879H245.913L246.392 218.546H249.246V221.879H252.225V224.983H249.246V230.213C249.246 230.588 249.35 230.879 249.559 231.088C249.778 231.296 250.069 231.4 250.434 231.4H252.225V234.504H249.85Z" fill="#EBE3D2"/>
<mask id="mask2_59_2161" style="mask-type:luminance" maskUnits="userSpaceOnUse" x="69" y="53" width="133" height="132">
<path d="M69.9009 53.5415H201.833V184.495H69.9009V53.5415Z" fill="white"/>
</mask>
<g mask="url(#mask2_59_2161)">
<path d="M200.442 101.39L189.672 82.578L193.213 79.9113C196.312 77.5415 198.229 74.1353 198.526 70.2811C198.823 66.4321 197.344 62.729 194.687 59.9113C192.031 57.0988 188.192 55.7655 184.359 56.0624C180.521 56.3592 176.979 58.2863 174.765 61.3957L172.109 64.9478L153.51 54.2863C152.333 53.5415 150.854 53.8384 149.969 54.729L141.557 63.1717C140.969 63.7655 140.672 64.5051 140.672 65.3957C140.672 66.2811 141.114 67.0259 141.703 67.6144L159.265 82.1353L145.245 100.948L133.437 95.0207C131.963 94.2811 130.192 94.8749 129.453 96.354C128.719 97.8332 129.307 99.6144 130.781 100.354L136.833 103.463L131.078 109.239L127.979 106.13C127.39 105.536 126.651 105.239 125.911 105.239C125.172 105.239 124.437 105.536 123.844 106.13L71.5987 158.422C70.8591 159.161 70.5675 160.198 70.8591 161.088C71.0102 161.979 71.7446 162.864 72.63 163.312L86.2081 169.088L91.9685 182.713C92.4112 183.604 93.1456 184.198 94.1821 184.495C94.3279 184.495 94.4737 184.495 94.7706 184.495C95.5102 184.495 96.2446 184.198 96.8383 183.604L149.083 131.167C150.265 129.979 150.265 128.052 149.083 127.015L145.984 123.906L151.739 118.13L154.838 124.203C155.281 125.239 156.317 125.833 157.495 125.833C157.937 125.833 158.38 125.682 158.823 125.536C160.302 124.797 160.89 123.015 160.151 121.536L154.25 109.687L172.698 95.6144L187.307 113.239C187.901 113.833 188.635 114.276 189.526 114.276H189.672C190.411 114.276 191.146 113.984 191.739 113.39L200.151 104.948C200.885 104.057 201.182 102.578 200.442 101.39ZM148.052 65.0988L152.479 60.6561L168.567 69.8384L162.807 77.5415L148.052 65.0988ZM95.5102 176.344L90.9321 165.682C90.6404 164.937 90.0466 164.349 89.3123 164.052L78.6821 159.458L125.765 112.203L128.864 115.312L139.344 125.833L142.442 128.943L95.5102 176.344ZM141.557 119.609L135.359 113.39L142.588 106.13L146.724 108.203L148.786 112.354L141.557 119.609ZM151.151 104.203L150.557 103.614L179.489 64.8019C180.817 63.1717 182.734 61.9894 184.802 61.8384C186.864 61.6926 188.932 62.4321 190.411 63.9113C191.885 65.3957 192.625 67.4686 192.474 69.5415C192.328 71.6144 191.297 73.5415 189.526 74.8749L151.151 104.203ZM189.672 106.87L177.276 91.9113L184.948 86.1353L194.099 102.281L189.672 106.87ZM127.979 127.015C128.567 127.609 128.864 128.349 128.864 129.094C128.864 129.833 128.567 130.573 127.979 131.167C127.39 131.755 126.651 132.052 125.911 132.052C125.172 132.052 124.437 131.755 123.844 131.167C123.255 130.573 122.958 129.833 122.958 129.094C122.958 128.943 122.958 128.646 122.958 128.5C122.958 128.349 123.109 128.052 123.109 127.906C123.109 127.76 123.255 127.609 123.401 127.463C123.552 127.312 123.698 127.167 123.698 127.015C123.844 126.87 123.995 126.719 124.14 126.719C124.286 126.573 124.437 126.573 124.729 126.427C125.026 126.276 125.026 126.276 125.323 126.276C126.208 125.979 127.239 126.276 127.979 127.015ZM117.5 137.536C118.682 138.719 118.682 140.5 117.5 141.682L100.823 158.422C100.229 159.015 99.4946 159.312 98.755 159.312C98.0154 159.312 97.281 159.015 96.6873 158.422C95.5102 157.234 95.5102 155.458 96.6873 154.276L113.364 137.536C114.547 136.349 116.317 136.349 117.5 137.536Z" fill="#EBE3D2"/>
</g>
</svg>
