<svg width="271" height="271" viewBox="0 0 271 271" fill="none" xmlns="http://www.w3.org/2000/svg">
<mask id="mask0_296_43" style="mask-type:luminance" maskUnits="userSpaceOnUse" x="0" y="0" width="271" height="271">
<path d="M0.286621 0.401001H270.755V270.87H0.286621V0.401001Z" fill="white"/>
</mask>
<g mask="url(#mask0_296_43)">
<mask id="mask1_296_43" style="mask-type:luminance" maskUnits="userSpaceOnUse" x="0" y="0" width="271" height="271">
<path d="M40.271 0.401001H230.771C241.375 0.401001 251.542 4.61454 259.042 12.1145C266.542 19.6145 270.755 29.7812 270.755 40.3854V230.885C270.755 241.49 266.542 251.656 259.042 259.156C251.542 266.656 241.375 270.87 230.771 270.87H40.271C29.6668 270.87 19.5002 266.656 12.0002 259.156C4.50016 251.656 0.286621 241.49 0.286621 230.885V40.3854C0.286621 29.7812 4.50016 19.6145 12.0002 12.1145C19.5002 4.61454 29.6668 0.401001 40.271 0.401001Z" fill="white"/>
</mask>
<g mask="url(#mask1_296_43)">
<path d="M0.286621 0.401001H270.755V270.87H0.286621V0.401001Z" fill="#112B3C"/>
</g>
</g>
<mask id="mask2_296_43" style="mask-type:luminance" maskUnits="userSpaceOnUse" x="59" y="94" width="165" height="83">
<path d="M59.7085 94.9114H223.63V176.792H59.7085V94.9114Z" fill="white"/>
</mask>
<g mask="url(#mask2_296_43)">
<path d="M83.4741 153.542C83.5106 153.505 83.547 153.474 83.5887 153.443C84.8804 152.302 85.5522 150.823 85.8075 150.172C85.6564 150.104 85.5002 150.031 85.3491 149.964C83.3856 149.094 81.047 148.849 78.9689 149.359C77.1564 149.807 75.5522 150.833 74.5887 152.531C74.2658 153.094 74.0575 153.854 73.9272 154.74C75.0887 155 78.0262 155.505 81.0575 154.781C82.0262 154.547 82.8283 154.089 83.4741 153.542ZM78.5835 156.812L78.8231 158.745C78.8752 159.208 78.547 159.63 78.0939 159.682C77.6356 159.74 77.2189 159.417 77.1668 158.953L76.9064 156.812C76.5522 156.792 76.2137 156.771 75.896 156.74L80.4533 168.24H82.8439L79.9897 156.682C79.5106 156.75 79.0366 156.786 78.5835 156.812ZM107.698 155.729L107.396 154.292C106.682 154.302 105.49 154.318 104.094 154.318L102.568 168.042H104.703L107.698 155.729ZM61.5679 161.901C62.8491 159.667 62.745 157.766 62.5835 155.219C62.3231 156.135 62.1095 157.339 61.9325 158.594C61.771 159.719 61.6564 160.875 61.5679 161.901ZM120.505 126.729C120.948 126.849 121.208 127.307 121.089 127.755C120.969 128.198 120.511 128.464 120.073 128.344C120.068 128.344 118.797 127.979 117.24 128.708C116.339 129.135 115.516 129.906 114.964 130.505C115.87 130.797 117.193 131.094 118.271 130.802C120.12 130.302 120.99 129.281 120.99 129.281C121.287 128.932 121.813 128.891 122.156 129.198C122.511 129.495 122.547 130.026 122.245 130.375C122.245 130.38 121.047 131.792 118.698 132.427C116.485 133.021 113.677 131.828 113.281 131.651C113.214 131.625 113.146 131.589 113.089 131.547C112.719 131.271 112.641 130.75 112.912 130.375C112.917 130.37 114.505 128.151 116.537 127.198C118.651 126.198 120.5 126.724 120.505 126.729ZM127.583 128.906C127.589 128.958 127.594 129.01 127.594 129.068C127.594 129.932 126.891 130.646 126.026 130.646C125.162 130.646 124.458 129.932 124.458 129.068C124.458 129.01 124.464 128.958 124.469 128.906H127.583ZM83.7033 129.344C83.8856 129.318 84.0575 129.307 84.2241 129.307C85.2606 129.307 86.2554 129.776 87.0366 130.536C87.7814 131.271 88.3335 132.286 88.5106 133.406C88.5522 133.672 88.5731 133.922 88.5731 134.156C88.5731 135.052 88.3075 135.865 87.8387 136.495C87.3543 137.151 86.6616 137.594 85.8283 137.729C85.646 137.755 85.4741 137.771 85.3075 137.771C84.271 137.771 83.2762 137.302 82.5002 136.536C81.7502 135.802 81.1981 134.786 81.021 133.667C80.9793 133.401 80.9585 133.151 80.9585 132.922C80.9585 132.021 81.2241 131.208 81.6929 130.583C82.1825 129.927 82.87 129.479 83.7033 129.344ZM126.688 123.036C126.969 123.214 127.261 123.432 127.557 123.682C127.886 123.417 128.36 122.927 128.74 122.083C128.901 121.729 128.979 121.365 129.005 121.021L128.896 121.151C128.25 121.932 127.386 122.583 126.688 123.036ZM120.62 134.667C120.443 134.245 120.636 133.75 121.052 133.568C121.474 133.385 121.969 133.578 122.146 134.005C122.151 134.01 123.245 136.568 124.146 136.698H124.151C124.177 136.698 132.281 137.927 133.188 137.719C133.406 137.672 133.912 137.13 134.443 136.474C135.287 135.448 136.078 134.312 136.078 134.193C136.078 134.083 134.172 132.516 132.537 130.984C131.401 129.917 130.386 128.969 130.078 128.604C129.662 128.115 128.229 126.521 126.932 125.354C126.922 125.344 126.912 125.333 126.906 125.328C126.844 125.271 126.787 125.219 126.729 125.167C126.073 124.599 125.542 124.177 125.422 124.187C125.292 124.203 125.172 124.187 125.057 124.146C124.656 124.036 122.5 123.422 121.656 122.536C121.344 122.214 121.016 121.667 120.719 121.099C120.714 121.479 120.755 121.896 120.87 122.323C121.313 123.901 121.448 123.896 121.448 123.896C121.901 123.953 122.219 124.37 122.167 124.833C122.11 125.292 121.693 125.615 121.24 125.552C121.235 125.552 120.698 125.5 120.125 124.703C118.735 125.359 114.323 127.411 112.833 127.464C112.495 127.479 111.297 127.479 109.594 127.464C109.511 127.562 109.412 127.641 109.292 127.693C109.136 127.76 108.729 128.432 108.235 129.224C107.182 130.937 105.828 133.125 103.88 133.406C102.542 133.599 101.235 133.422 100.073 132.984C98.8179 132.51 97.7397 131.729 96.9741 130.781C95.7814 129.312 93.6877 127.484 93.4793 127.307C90.6252 127.286 88.3752 127.271 87.5887 127.286C86.0002 127.323 84.1408 127.036 82.0783 126.719C80.3647 126.458 78.5158 126.172 76.646 126.036C72.896 125.771 70.422 126.479 70.0835 126.583C69.7137 126.75 66.6929 128.245 66.5991 131.714C66.5783 132.484 66.6616 133.375 66.8075 134.339C67.5679 133.599 68.7502 132.885 70.5002 132.76C72.2866 132.63 74.3856 133.344 76.1408 134.417C78.0158 135.568 79.5366 137.161 79.9272 138.62C80.5991 141.135 78.1356 141.917 75.9533 142.604C75.271 142.823 74.6147 143.026 74.2189 143.255C73.5575 143.635 73.297 144.458 73.0366 145.276C72.771 146.12 72.5054 146.953 71.8647 147.63C70.9585 148.594 69.7554 149.094 69.0627 149.323C68.7606 150.964 68.1825 152 67.8335 152.505L70.7762 168.302H73.3752C72.7554 165.115 71.0887 155.307 73.1408 151.698C74.3543 149.573 76.3439 148.286 78.5731 147.734C80.9272 147.151 83.5575 147.396 85.7866 148.333C85.672 146.766 85.8231 144.453 87.4429 143.276C88.4741 142.526 89.3335 142.302 90.1668 142.083C91.0575 141.854 91.896 141.63 92.8439 140.5C93.8804 139.266 94.922 138.328 96.0418 137.646C97.1825 136.953 98.3908 136.536 99.745 136.339C101.214 136.13 102.333 136.297 103.115 136.891C103.948 137.521 104.333 138.531 104.297 139.99C104.266 141.177 103.849 142.208 103.474 143.141C103.125 144.021 102.813 144.786 103.052 145.187C103.245 145.505 103.458 145.818 103.677 146.135C103.87 146.411 104.057 146.687 104.224 146.948C105.328 148.687 106.026 150.516 103.912 152.646C105.182 152.646 106.287 152.63 107.047 152.625L105.729 146.297C105.63 145.844 105.922 145.406 106.37 145.307C106.818 145.214 107.261 145.505 107.354 145.958L108.828 153.031C108.896 153.151 108.938 153.281 108.938 153.427C108.938 153.458 108.938 153.49 108.938 153.516L109.281 155.182C109.38 155.344 109.427 155.542 109.401 155.74L112 168.193H114.323C114.078 165.042 113.297 154.578 113.448 151.745C113.625 148.484 113.573 145.974 113.573 145.969C113.563 145.505 113.922 145.125 114.38 145.115C114.839 145.104 115.219 145.469 115.229 145.932C115.229 145.943 115.287 148.505 115.115 151.781C116.906 150.823 118.031 147.797 119.177 144.719C120.151 142.094 121.141 139.437 122.662 137.693C121.469 136.63 120.625 134.677 120.62 134.667ZM61.8127 169.984C61.3491 169.984 60.9793 169.604 60.9793 169.146C60.9793 168.677 61.3491 168.302 61.8127 168.302H64.2397C64.6981 168.302 65.0731 168.677 65.0731 169.146C65.0731 169.604 64.6981 169.984 64.2397 169.984H61.8127ZM174.068 149.891L181.724 141.964H166.412L174.068 149.891ZM165.271 158.99L172.912 151.089L165.271 143.187V158.99ZM174.068 152.286L166.485 160.135H181.651L174.068 152.286ZM193.302 120.422C193.401 120.38 193.511 120.359 193.625 120.359H204.698V115.37H192.297C191.839 115.37 191.464 114.995 191.464 114.531C191.464 114.068 191.839 113.693 192.297 113.693H204.698V108.927H186.906V116.391L193.302 120.422ZM177.646 124.339H170.641V130.214H177.646V124.339ZM169.807 122.656H178.479C178.943 122.656 179.313 123.031 179.313 123.495V131.052C179.313 131.51 178.943 131.891 178.479 131.891H169.807C169.349 131.891 168.974 131.51 168.974 131.052V123.495C168.974 123.031 169.349 122.656 169.807 122.656ZM219.474 148.505C219.813 148.198 220.339 148.219 220.651 148.562C220.958 148.901 220.932 149.432 220.594 149.745L217.781 152.339V155.443C223.912 153.161 222.182 142.693 219.839 134.615C218.761 130.885 217.531 127.646 216.854 125.875C216.177 127.646 214.953 130.885 213.87 134.615C211.5 142.771 209.766 153.37 216.115 155.505V146.672L213.495 144.26C213.162 143.948 213.141 143.417 213.448 143.078C213.755 142.74 214.281 142.719 214.62 143.026L216.115 144.406V137.937C216.115 137.479 216.485 137.099 216.948 137.099C217.406 137.099 217.781 137.479 217.781 137.937V150.073L219.474 148.505ZM80.0106 176.068C79.5522 176.068 79.1825 175.693 79.1825 175.229C79.1825 174.766 79.5522 174.391 80.0106 174.391H121.74C122.203 174.391 122.573 174.766 122.573 175.229C122.573 175.693 122.203 176.068 121.74 176.068H80.0106ZM103.458 103.281C104.063 100.115 105.615 98.5156 107.349 97.8385C108.156 97.5208 109 97.4114 109.797 97.4375C110.583 97.4687 111.333 97.6302 111.964 97.8541C112.401 98.0156 112.797 98.2135 113.125 98.4375C113.479 97.8125 113.932 97.2552 114.458 96.776C115.36 95.9583 116.485 95.3802 117.698 95.0989C118.912 94.8229 120.214 94.8437 121.469 95.2239C122.474 95.5312 123.448 96.0677 124.323 96.8541C124.875 96.3698 125.547 96.0364 126.281 95.8489C127.219 95.6041 128.255 95.5937 129.276 95.8125C130.287 96.026 131.292 96.4531 132.167 97.0885C133.37 97.9583 134.333 99.2135 134.74 100.818C134.854 101.266 134.583 101.724 134.141 101.839C133.698 101.948 133.245 101.682 133.13 101.229C132.828 100.042 132.104 99.1041 131.193 98.4427C130.516 97.9531 129.729 97.6198 128.938 97.4531C128.162 97.2864 127.375 97.2864 126.693 97.4635C126.021 97.6406 125.443 97.9844 125.052 98.5156C125.011 98.5781 124.964 98.6354 124.906 98.6927C124.563 98.9948 124.037 98.9739 123.729 98.625C122.912 97.7135 121.969 97.1302 120.99 96.8333C120.011 96.5364 119.005 96.5208 118.068 96.7344C117.13 96.9479 116.266 97.3906 115.573 98.026C114.938 98.5989 114.448 99.3281 114.188 100.172C114.094 100.526 113.771 100.792 113.386 100.792C112.927 100.792 112.552 100.411 112.552 99.9531C112.552 99.8906 112.089 99.6823 111.412 99.4375C110.917 99.2604 110.339 99.1354 109.735 99.1146C109.146 99.0937 108.531 99.1719 107.948 99.401C106.75 99.8698 105.667 101.005 105.156 103.281H139.604C140.063 103.281 140.438 103.656 140.438 104.12C140.438 104.583 140.063 104.958 139.604 104.958H90.422C89.9637 104.958 89.5887 104.583 89.5887 104.12C89.5887 103.656 89.9637 103.281 90.422 103.281H103.458ZM145.943 104.958C145.479 104.958 145.11 104.583 145.11 104.12C145.11 103.656 145.479 103.281 145.943 103.281H149.443C149.901 103.281 150.276 103.656 150.276 104.12C150.276 104.583 149.901 104.958 149.443 104.958H145.943ZM115.714 109.979C115.25 109.979 114.88 109.599 114.88 109.141C114.88 108.672 115.25 108.297 115.714 108.297H145.979C146.438 108.297 146.813 108.672 146.813 109.141C146.813 109.599 146.438 109.979 145.979 109.979H115.714ZM153.61 137.703C153.5 137.74 153.386 137.755 153.271 137.745L148.412 137.651C148.255 137.682 148.078 137.667 147.922 137.589C147.542 137.417 147.354 136.99 147.469 136.599C147.485 136.531 147.516 136.464 147.547 136.401L154.505 121.073C154.578 120.917 154.688 120.797 154.823 120.714V120.708L173.833 108.719C173.865 108.703 173.896 108.687 173.922 108.667L173.953 108.656C174.063 108.604 174.172 108.583 174.292 108.583C174.401 108.583 174.521 108.604 174.625 108.656L174.656 108.667C174.688 108.687 174.714 108.703 174.745 108.719L185.24 115.339V108.089C185.24 107.62 185.615 107.25 186.073 107.25H204.688C204.547 104.135 203.271 101.844 201.448 100.38C200.25 99.4271 198.807 98.8177 197.297 98.5625C195.776 98.3125 194.188 98.4219 192.688 98.901C190.042 99.7396 187.708 101.724 186.615 104.88C186.464 105.318 185.995 105.547 185.557 105.396C185.125 105.245 184.896 104.766 185.047 104.328C186.328 100.62 189.078 98.2864 192.188 97.3021C193.927 96.7448 195.787 96.6146 197.563 96.9114C199.354 97.2083 201.057 97.9323 202.485 99.0729C204.828 100.948 206.412 103.943 206.365 108.026C206.365 108.047 206.365 108.068 206.365 108.089V160.135H216.115V157.224C216.042 157.224 215.958 157.208 215.886 157.187C207.917 154.839 209.672 143.115 212.271 134.151C213.432 130.156 214.745 126.74 215.401 125.016C215.568 124.583 215.693 124.266 215.771 124.036C215.917 123.599 216.391 123.365 216.828 123.516C216.839 123.521 216.844 123.521 216.854 123.526C216.865 123.521 216.875 123.521 216.88 123.516C217.318 123.365 217.792 123.599 217.943 124.036C218.021 124.266 218.141 124.583 218.307 125.016C218.964 126.74 220.276 130.156 221.438 134.151C224.037 143.115 225.797 154.839 217.823 157.187C217.813 157.193 217.792 157.198 217.781 157.203V160.135H222C222.458 160.135 222.833 160.516 222.833 160.974C222.833 161.437 222.458 161.818 222 161.818H124.854C124.396 161.818 124.021 161.437 124.021 160.974C124.021 160.516 124.396 160.135 124.854 160.135H153.61V137.703ZM189.287 125.094C189.099 124.672 189.287 124.172 189.703 123.984C190.125 123.797 190.62 123.984 190.807 124.401L197.292 138.781C197.479 139.203 197.292 139.698 196.875 139.891C196.453 140.078 195.958 139.891 195.771 139.469L194.823 137.37V160.135H204.698V122.036H194.511L201.068 136.479C201.255 136.901 201.073 137.396 200.656 137.589C200.24 137.781 199.745 137.599 199.557 137.177L192.662 122L185.677 117.594C185.646 117.573 185.62 117.557 185.589 117.536L174.292 110.411L155.912 122L149.557 135.995L152.807 136.062L158.136 123.854C158.203 123.708 158.313 123.578 158.458 123.484L173.177 114.161C173.568 113.911 174.078 114.031 174.323 114.422C174.563 114.812 174.448 115.333 174.063 115.578L159.557 124.766L155.172 134.802C155.24 134.917 155.276 135.052 155.276 135.203V160.135H163.604V141.125C163.604 140.661 163.979 140.286 164.438 140.286H183.698C184.156 140.286 184.531 140.661 184.531 141.125V155.646C184.531 156.104 184.156 156.484 183.698 156.484C183.24 156.484 182.865 156.104 182.865 155.646V143.187L175.229 151.089L183.974 160.135H193.156V135.203C193.156 134.906 193.307 134.651 193.531 134.5L189.287 125.094ZM154.005 176.474C153.719 176.839 153.198 176.896 152.833 176.604C152.474 176.323 152.417 175.792 152.703 175.432L161.104 164.766C161.391 164.401 161.912 164.339 162.271 164.63C162.636 164.917 162.693 165.443 162.406 165.807L154.005 176.474ZM171.458 176.057C171.401 176.521 170.985 176.844 170.531 176.781C170.078 176.719 169.755 176.297 169.813 175.844L171.229 165.177C171.292 164.719 171.703 164.396 172.162 164.453C172.615 164.516 172.938 164.937 172.875 165.396L171.458 176.057ZM220.052 175.333C220.391 175.651 220.412 176.177 220.104 176.521C219.792 176.859 219.266 176.885 218.927 176.568L207.406 165.901C207.068 165.589 207.047 165.057 207.36 164.719C207.667 164.38 208.198 164.354 208.537 164.667L220.052 175.333ZM202.802 175.432C203.089 175.792 203.026 176.323 202.667 176.604C202.307 176.896 201.781 176.839 201.5 176.474L193.099 165.807C192.813 165.443 192.875 164.917 193.229 164.63C193.589 164.339 194.115 164.401 194.401 164.766L202.802 175.432ZM185.688 175.844C185.75 176.297 185.432 176.719 184.974 176.781C184.516 176.844 184.099 176.521 184.042 176.057L182.63 165.396C182.568 164.937 182.886 164.516 183.344 164.453C183.802 164.396 184.219 164.719 184.276 165.177L185.688 175.844ZM136.578 176.568C136.24 176.885 135.714 176.859 135.401 176.521C135.089 176.177 135.11 175.651 135.448 175.333L146.974 164.667C147.307 164.354 147.833 164.38 148.146 164.719C148.453 165.057 148.438 165.589 148.099 165.901L136.578 176.568ZM154.979 104.958C154.526 104.958 154.151 104.583 154.151 104.12C154.151 103.656 154.526 103.281 154.979 103.281H158.485C158.948 103.281 159.323 103.656 159.323 104.12C159.323 104.583 158.948 104.958 158.485 104.958H154.979ZM69.4533 125.031C69.4845 125.01 69.5262 125.005 69.5575 124.99C69.8387 124.901 72.6252 124.073 76.7554 124.365C78.7241 124.505 80.5991 124.792 82.3283 125.057C84.3283 125.365 86.1356 125.646 87.5575 125.62C89.0054 125.583 95.3127 125.651 101.281 125.708C106.792 125.766 112.016 125.823 112.771 125.792C113.953 125.75 118.052 123.839 119.396 123.193C119.354 123.062 119.313 122.927 119.271 122.776C118.583 120.323 119.781 118.219 119.787 118.214C119.88 118.052 120.026 117.917 120.214 117.839C120.641 117.672 121.12 117.885 121.287 118.318C121.292 118.323 122.208 120.693 122.86 121.375C123.198 121.734 124.011 122.062 124.651 122.276C124.688 122.25 124.724 122.234 124.766 122.214C124.766 122.214 126.578 121.344 127.615 120.083C128.62 118.859 128.646 118.641 128.646 118.641C128.714 118.187 129.141 117.875 129.594 117.943C129.891 117.99 130.125 118.187 130.229 118.443C130.235 118.448 131.203 120.682 130.25 122.781C129.818 123.729 129.261 124.38 128.792 124.807C129.912 125.901 130.985 127.094 131.339 127.516C131.583 127.802 132.568 128.724 133.667 129.76C135.552 131.516 137.745 133.573 137.745 134.193C137.745 134.568 136.766 136.266 135.729 137.542C134.995 138.443 134.182 139.214 133.542 139.354C132.479 139.594 125.922 138.651 124.281 138.411C122.766 139.839 121.74 142.594 120.735 145.302C119.339 149.052 117.969 152.74 115.104 153.589C115.193 157.719 115.818 165.922 116.005 168.302H128.792C129.255 168.302 129.625 168.677 129.625 169.146C129.625 169.604 129.255 169.984 128.792 169.984H108.24C107.781 169.984 107.406 169.604 107.406 169.146C107.406 168.677 107.781 168.302 108.24 168.302H110.323L108.485 159.516L106.182 169.016C106.12 169.417 105.771 169.724 105.36 169.724H101.636V169.719C101.604 169.719 101.573 169.719 101.547 169.714C101.089 169.667 100.761 169.255 100.807 168.792L102.417 154.312C102.125 154.312 101.828 154.307 101.537 154.302H101.464C99.5314 154.276 97.5106 154.214 95.9116 154.089H95.8856C95.6564 154.078 95.4116 154.057 95.172 154.021C94.8022 153.984 94.4689 153.943 94.1772 153.891C91.7606 153.5 90.4793 152.755 88.8491 151.807C88.2293 151.495 87.6877 151.198 87.2762 150.969C86.9533 151.74 86.2866 153.089 85.1252 154.276L86.0731 155.885C86.3075 156.286 86.1772 156.797 85.7814 157.031C85.3856 157.266 84.87 157.141 84.6408 156.74L83.8283 155.359C83.1981 155.792 82.4637 156.141 81.6252 156.365L84.5731 168.302H91.9585C92.4168 168.302 92.7918 168.677 92.7918 169.146C92.7918 169.604 92.4168 169.984 91.9585 169.984H81.7762C81.6668 169.984 81.5627 169.964 81.4689 169.922H79.8908C79.5575 169.922 79.2502 169.719 79.12 169.391L74.0002 156.464C73.922 156.453 73.8543 156.437 73.7866 156.422C73.6043 161.37 75.0731 168.339 75.1981 168.927C75.2189 168.995 75.2293 169.068 75.2293 169.146C75.2293 169.604 74.8595 169.984 74.396 169.984H70.0835V169.979C69.6877 169.979 69.3387 169.698 69.2658 169.297L66.1356 152.458C66.0835 152.203 66.1512 151.927 66.3439 151.714C66.3491 151.714 67.2085 150.812 67.5002 148.578C67.5002 148.562 67.5002 148.547 67.5054 148.531C67.5627 148.089 67.5939 147.599 67.5939 147.052C67.5939 146.51 67.5262 145.87 67.4168 145.167C66.995 143.49 65.6668 137.25 65.5418 136.677C65.5314 136.635 65.5262 136.594 65.521 136.552C65.1512 134.766 64.896 133.068 64.9377 131.667C64.9429 131.562 64.9481 131.458 64.9533 131.354C64.5418 131.974 64.1877 132.719 64.146 133.516C64.1095 134.271 64.0991 137.016 64.0939 140.49C64.0939 143.974 64.1043 148.203 64.1147 151.875C64.12 153.026 64.1877 154.094 64.245 155.068C64.4793 158.854 64.6304 161.365 61.1564 165.24C60.8439 165.578 60.3231 165.609 59.9845 165.297C59.7866 165.12 59.6981 164.875 59.7137 164.63H59.7085C59.7762 163.443 59.9325 160.839 60.2814 158.37C60.6512 155.745 61.2606 153.234 62.2606 152.417C62.3231 152.37 62.3908 152.323 62.4585 152.297C62.4585 152.156 62.4585 152.021 62.4585 151.875C62.4429 148.203 62.4325 143.974 62.4325 140.49C62.4325 136.969 62.4533 134.187 62.4845 133.437C62.62 130.609 65.3908 128.422 65.396 128.411C65.5522 128.292 65.7293 128.234 65.9116 128.234C67.2345 125.979 69.4429 125.031 69.4533 125.031Z" fill="#EBE3D2"/>
</g>
<path d="M196.391 76.8854V78.9479L202.99 81.4271L202.625 79.224L196.391 76.8854Z" fill="#EBE3D2"/>
<path d="M207.625 82.0677C208.63 82.0677 209.443 81.2448 209.443 80.224C209.443 79.2084 208.63 78.3854 207.625 78.3854C206.62 78.3854 205.807 79.2084 205.807 80.224C205.807 81.2448 206.62 82.0677 207.625 82.0677ZM207.625 79.3906C208.083 79.3906 208.453 79.7656 208.453 80.224C208.453 80.6875 208.083 81.0625 207.625 81.0625C207.167 81.0625 206.797 80.6875 206.797 80.224C206.797 79.7656 207.167 79.3906 207.625 79.3906Z" fill="#EBE3D2"/>
<path d="M202.615 76.3854H203.911C202.745 74 200.646 72.6042 197.906 72.375L199.839 74.9844C200.49 75.8646 201.526 76.3854 202.615 76.3854Z" fill="#EBE3D2"/>
<mask id="mask3_296_43" style="mask-type:luminance" maskUnits="userSpaceOnUse" x="225" y="60" width="4" height="3">
<path d="M225.667 60.6771H228.333V62.6666H225.667V60.6771Z" fill="white"/>
</mask>
<g mask="url(#mask3_296_43)">
<path d="M226.901 60.7656H227.469V61.8594H226.901V60.7656Z" fill="#EBE3D2"/>
</g>
<mask id="mask4_296_43" style="mask-type:luminance" maskUnits="userSpaceOnUse" x="193" y="84" width="4" height="2">
<path d="M193.667 84H196.333V85.6667H193.667V84Z" fill="white"/>
</mask>
<g mask="url(#mask4_296_43)">
<path d="M194.562 85.2552C194.562 85.4427 194.708 85.5937 194.896 85.5937C195.078 85.5937 195.229 85.4427 195.229 85.2552V84.4896H194.562V85.2552Z" fill="#EBE3D2"/>
</g>
<path d="M209.75 68.4583L212.948 64.401C212.578 64.2656 212.182 64.1875 211.771 64.1875H203.479C203.068 64.1875 202.672 64.2656 202.302 64.401L205.5 68.4583H209.75ZM208.927 67.6198H206.339C206.13 67.6198 205.953 67.4427 205.953 67.2292C205.953 67.0104 206.13 66.8385 206.339 66.8385H208.927C209.136 66.8385 209.307 67.0104 209.307 67.2292C209.307 67.4427 209.136 67.6198 208.927 67.6198ZM204.932 65.4844C204.932 65.2708 205.104 65.0938 205.318 65.0938H209.948C210.162 65.0938 210.333 65.2708 210.333 65.4844C210.333 65.6979 210.162 65.875 209.948 65.875H205.318C205.104 65.875 204.932 65.6979 204.932 65.4844Z" fill="#EBE3D2"/>
<mask id="mask5_296_43" style="mask-type:luminance" maskUnits="userSpaceOnUse" x="187" y="60" width="3" height="3">
<path d="M187 60.6771H189.667V62.6666H187V60.6771Z" fill="white"/>
</mask>
<g mask="url(#mask5_296_43)">
<path d="M187.781 60.7656H188.349V61.8594H187.781V60.7656Z" fill="#EBE3D2"/>
</g>
<mask id="mask6_296_43" style="mask-type:luminance" maskUnits="userSpaceOnUse" x="184" y="61" width="9" height="3">
<path d="M184.135 61.3333H192.333V64H184.135V61.3333Z" fill="white"/>
</mask>
<g mask="url(#mask6_296_43)">
<path d="M188.734 63.8698H191.995V62.6406H184.135V63.8698H188.734Z" fill="#EBE3D2"/>
</g>
<path d="M187.781 64.6511H188.349V66.8959H187.781V64.6511Z" fill="#EBE3D2"/>
<path d="M194.167 83.7135H195.625V72.3438H194.167V83.7135Z" fill="#EBE3D2"/>
<path d="M226.516 67.6771H226.13V68.849C226.13 69.0625 225.958 69.2396 225.745 69.2396H218.776C216.797 69.2396 215.511 67.4948 214.781 66.0313C214.516 65.5052 214.12 65.0729 213.651 64.7604L210.235 69.0938C210.162 69.1875 210.052 69.2396 209.932 69.2396H205.318C205.198 69.2396 205.089 69.1875 205.016 69.0938L201.599 64.7604C201.13 65.0729 200.735 65.5052 200.469 66.0313C199.74 67.4948 198.453 69.2396 196.474 69.2396H189.505C189.292 69.2396 189.12 69.0625 189.12 68.849V67.6771H187.005V73.1459H189.12V71.9531C189.12 71.7344 189.292 71.5625 189.505 71.5625H197.104C200.688 71.5625 203.391 73.2761 204.755 76.3854H210.495C211.86 73.2761 214.563 71.5625 218.146 71.5625H225.745C225.958 71.5625 226.13 71.7344 226.13 71.9531V73.1459H228.245V67.6771H226.516Z" fill="#EBE3D2"/>
<path d="M219.625 83.7135H221.083V72.3438H219.625V83.7135Z" fill="#EBE3D2"/>
<mask id="mask7_296_43" style="mask-type:luminance" maskUnits="userSpaceOnUse" x="223" y="61" width="9" height="3">
<path d="M223 61.3333H231.115V64H223V61.3333Z" fill="white"/>
</mask>
<g mask="url(#mask7_296_43)">
<path d="M227.854 62.6406H223.255V63.8698H231.115V62.6406H227.854Z" fill="#EBE3D2"/>
</g>
<path d="M226.901 64.6511H227.469V66.8959H226.901V64.6511Z" fill="#EBE3D2"/>
<mask id="mask8_296_43" style="mask-type:luminance" maskUnits="userSpaceOnUse" x="219" y="84" width="3" height="2">
<path d="M219 84H221.667V85.6667H219V84Z" fill="white"/>
</mask>
<g mask="url(#mask8_296_43)">
<path d="M220.021 85.2552C220.021 85.4427 220.172 85.5937 220.354 85.5937C220.542 85.5937 220.688 85.4427 220.688 85.2552V84.4896H220.021V85.2552Z" fill="#EBE3D2"/>
</g>
<path d="M215.411 74.9844L217.344 72.375C214.604 72.6042 212.505 74 211.338 76.3854H212.635C213.724 76.3854 214.76 75.8646 215.411 74.9844Z" fill="#EBE3D2"/>
<path d="M204.104 83.4531H207.021C207.281 83.4531 207.479 83.4531 207.625 83.4688C207.771 83.4531 207.964 83.4531 208.224 83.4531H211.146L212.182 77.1667H203.068L204.104 83.4531ZM207.625 77.6042C209.052 77.6042 210.214 78.7813 210.214 80.224C210.214 81.6719 209.052 82.849 207.625 82.849C206.198 82.849 205.037 81.6719 205.037 80.224C205.037 78.7813 206.198 77.6042 207.625 77.6042Z" fill="#EBE3D2"/>
<path d="M212.26 81.4271L218.859 78.9479V76.8854L212.625 79.224L212.26 81.4271Z" fill="#EBE3D2"/>
<path d="M18.0034 206.135H21.5659V219.594H29.1909V222.802H18.0034V206.135Z" fill="#EBE3D2"/>
<path d="M31.1084 210.177H34.4417V222.802H31.1084V210.177ZM32.7751 208.865C32.2334 208.865 31.7751 208.687 31.4001 208.323C31.0355 207.964 30.8584 207.51 30.8584 206.969C30.8584 206.427 31.0355 205.979 31.4001 205.615C31.7751 205.24 32.2334 205.052 32.7751 205.052C33.3011 205.052 33.7438 205.24 34.1084 205.615C34.4834 205.979 34.6709 206.427 34.6709 206.969C34.6709 207.51 34.4834 207.964 34.1084 208.323C33.7438 208.687 33.3011 208.865 32.7751 208.865Z" fill="#EBE3D2"/>
<path d="M35.8618 210.177H39.4243L42.2993 219.344H42.4035L45.2577 210.177H48.841L44.4243 222.802H40.2576L35.8618 210.177Z" fill="#EBE3D2"/>
<path d="M55.8594 223.031C54.9115 223.031 54.0573 222.885 53.2969 222.594C52.5312 222.302 51.8802 221.88 51.3385 221.323C50.7969 220.771 50.3802 220.089 50.0885 219.281C49.8073 218.479 49.6719 217.547 49.6719 216.49C49.6719 215.448 49.8073 214.526 50.0885 213.719C50.3802 212.901 50.7969 212.214 51.3385 211.656C51.8802 211.104 52.5312 210.677 53.2969 210.385C54.0573 210.094 54.9115 209.948 55.8594 209.948C56.776 209.948 57.6094 210.104 58.3594 210.406C59.1094 210.714 59.7448 211.151 60.276 211.719C60.8177 212.292 61.224 212.958 61.5052 213.719C61.7969 214.484 61.9427 215.333 61.9427 216.26C61.9427 216.427 61.9271 216.594 61.901 216.76C61.8854 216.917 61.8698 217.052 61.8594 217.177C61.8438 217.333 61.8281 217.464 61.8177 217.573H53.1302C53.2552 218.281 53.5312 218.88 53.9635 219.365C54.3906 219.839 55.026 220.073 55.8594 220.073C56.5104 220.073 56.9896 219.969 57.2969 219.76C57.6146 219.542 57.8906 219.24 58.1302 218.865H61.6927C61.5521 219.406 61.3385 219.927 61.0469 220.427C60.7552 220.927 60.3698 221.375 59.901 221.76C59.4271 222.151 58.8594 222.464 58.1927 222.698C57.526 222.917 56.7448 223.031 55.8594 223.031ZM58.4844 215.073C58.4115 214.797 58.3073 214.531 58.1719 214.281C58.0469 214.031 57.8698 213.802 57.651 213.594C57.4427 213.385 57.1823 213.229 56.8802 213.115C56.5885 212.99 56.2448 212.927 55.8594 212.927C55.0781 212.927 54.4688 213.135 54.026 213.552C53.5937 213.958 53.2969 214.464 53.1302 215.073H58.4844Z" fill="#EBE3D2"/>
<path d="M68.8304 223.031C67.9137 223.031 67.1221 222.917 66.4554 222.698C65.7887 222.479 65.2314 222.177 64.7887 221.802C64.3408 221.427 63.9971 220.99 63.7471 220.49C63.5075 219.99 63.3408 219.448 63.2471 218.865H66.8096C66.8773 219.172 67.0804 219.448 67.4137 219.698C67.7575 219.948 68.2314 220.073 68.8304 220.073C69.6637 220.073 70.2262 219.979 70.5179 219.781C70.82 219.573 70.9762 219.354 70.9762 219.115C70.9762 218.797 70.7939 218.568 70.4346 218.427C70.0856 218.276 69.6429 218.146 69.1012 218.031C68.5596 217.922 67.9762 217.802 67.3512 217.677C66.7262 217.552 66.1429 217.344 65.6012 217.052C65.0596 216.76 64.6064 216.359 64.2471 215.844C63.8981 215.333 63.7262 214.635 63.7262 213.76C63.7262 213.219 63.8356 212.719 64.0596 212.26C64.2783 211.802 64.6012 211.401 65.0179 211.052C65.445 210.708 65.9814 210.438 66.6221 210.24C67.2575 210.047 67.9971 209.948 68.8304 209.948C69.7158 209.948 70.4867 210.052 71.1429 210.26C71.7939 210.458 72.3356 210.734 72.7679 211.094C73.2106 211.458 73.5492 211.88 73.7887 212.365C74.0387 212.839 74.2106 213.339 74.3096 213.865H70.7471C70.6742 213.63 70.5023 213.417 70.2262 213.219C69.9606 213.026 69.4971 212.927 68.8304 212.927C68.2992 212.927 67.8929 213.01 67.6012 213.177C67.3096 213.333 67.1637 213.526 67.1637 213.76C67.1637 214.083 67.3408 214.313 67.7054 214.448C68.0648 214.589 68.5179 214.714 69.0596 214.823C69.6012 214.938 70.1846 215.052 70.8096 215.177C71.4346 215.302 72.0179 215.521 72.5596 215.823C73.1012 216.115 73.5439 216.521 73.8929 217.031C74.2523 217.547 74.4346 218.24 74.4346 219.115C74.4346 219.615 74.3408 220.104 74.1637 220.573C73.9814 221.047 73.6742 221.464 73.2471 221.823C72.8148 222.188 72.2367 222.479 71.5179 222.698C70.7939 222.917 69.8981 223.031 68.8304 223.031Z" fill="#EBE3D2"/>
<path d="M81.4681 222.802C80.1452 222.802 79.1608 222.49 78.5098 221.865C77.8535 221.229 77.5306 220.312 77.5306 219.115V213.281H75.5098V210.177H77.5306L78.0098 206.844H80.8639V210.177H83.8431V213.281H80.8639V218.51C80.8639 218.885 80.9681 219.177 81.1764 219.385C81.3952 219.594 81.6869 219.698 82.0514 219.698H83.8431V222.802H81.4681Z" fill="#EBE3D2"/>
<path d="M91.814 223.031C90.866 223.031 90.0119 222.885 89.2515 222.594C88.4858 222.302 87.8348 221.88 87.2931 221.323C86.7515 220.771 86.3348 220.089 86.0431 219.281C85.7619 218.479 85.6265 217.547 85.6265 216.49C85.6265 215.448 85.7619 214.526 86.0431 213.719C86.3348 212.901 86.7515 212.214 87.2931 211.656C87.8348 211.104 88.4858 210.677 89.2515 210.385C90.0119 210.094 90.866 209.948 91.814 209.948C92.7723 209.948 93.6265 210.094 94.3765 210.385C95.1369 210.677 95.7931 211.104 96.3348 211.656C96.8765 212.214 97.2827 212.901 97.564 213.719C97.8556 214.526 98.0015 215.448 98.0015 216.49C98.0015 217.547 97.8556 218.479 97.564 219.281C97.2827 220.089 96.8765 220.771 96.3348 221.323C95.7931 221.88 95.1369 222.302 94.3765 222.594C93.6265 222.885 92.7723 223.031 91.814 223.031ZM91.814 220.073C92.1994 220.073 92.5692 220.005 92.9181 219.865C93.2619 219.729 93.5692 219.51 93.8348 219.219C94.0952 218.927 94.2983 218.563 94.439 218.115C94.59 217.656 94.6681 217.115 94.6681 216.49C94.6681 215.88 94.59 215.344 94.439 214.885C94.2983 214.427 94.0952 214.052 93.8348 213.76C93.5692 213.469 93.2619 213.26 92.9181 213.135C92.5692 213 92.1994 212.927 91.814 212.927C91.439 212.927 91.0692 213 90.7098 213.135C90.3608 213.26 90.0535 213.469 89.7931 213.76C89.5431 214.052 89.34 214.427 89.189 214.885C89.0327 215.344 88.9598 215.88 88.9598 216.49C88.9598 217.115 89.0327 217.656 89.189 218.115C89.34 218.563 89.5431 218.927 89.7931 219.219C90.0535 219.51 90.3608 219.729 90.7098 219.865C91.0692 220.005 91.439 220.073 91.814 220.073Z" fill="#EBE3D2"/>
<path d="M105.863 223.031C104.915 223.031 104.061 222.885 103.3 222.594C102.535 222.302 101.884 221.88 101.342 221.323C100.8 220.771 100.384 220.089 100.092 219.281C99.8107 218.479 99.6753 217.547 99.6753 216.49C99.6753 215.448 99.8107 214.526 100.092 213.719C100.384 212.901 100.8 212.214 101.342 211.656C101.884 211.104 102.535 210.677 103.3 210.385C104.061 210.094 104.915 209.948 105.863 209.948C106.748 209.948 107.529 210.073 108.196 210.323C108.863 210.563 109.431 210.896 109.904 211.323C110.373 211.74 110.759 212.229 111.05 212.781C111.342 213.323 111.556 213.885 111.696 214.469H108.363C108.123 214 107.811 213.625 107.425 213.344C107.05 213.068 106.529 212.927 105.863 212.927C105.029 212.927 104.342 213.229 103.8 213.823C103.269 214.406 103.009 215.297 103.009 216.49C103.009 217.688 103.269 218.583 103.8 219.177C104.342 219.776 105.029 220.073 105.863 220.073C106.529 220.073 107.05 219.938 107.425 219.656C107.811 219.38 108.123 219 108.363 218.51H111.696C111.556 219.125 111.342 219.698 111.05 220.24C110.759 220.771 110.373 221.25 109.904 221.677C109.431 222.094 108.863 222.427 108.196 222.677C107.529 222.911 106.748 223.031 105.863 223.031Z" fill="#EBE3D2"/>
<path d="M113.956 206.135H117.289V215.781L121.935 210.177H125.872L120.747 216.365L126.226 222.802H122.289L117.289 216.969V222.802H113.956V206.135Z" fill="#EBE3D2"/>
<path d="M132.662 210.177H135.516L135.87 211.615H135.995C136.355 211.073 136.771 210.667 137.245 210.385C137.714 210.094 138.287 209.948 138.954 209.948C139.495 209.948 139.959 210.021 140.35 210.156C140.735 210.297 141.068 210.469 141.35 210.677C141.626 210.885 141.85 211.109 142.016 211.344C142.183 211.583 142.313 211.792 142.412 211.969H142.537C142.631 211.792 142.771 211.583 142.954 211.344C143.146 211.109 143.402 210.885 143.725 210.677C144.042 210.469 144.417 210.297 144.85 210.156C145.277 210.021 145.777 209.948 146.35 209.948C147.027 209.948 147.652 210.068 148.225 210.302C148.792 210.526 149.277 210.854 149.683 211.281C150.1 211.714 150.417 212.24 150.641 212.865C150.876 213.479 150.995 214.172 150.995 214.948V222.802H147.662V215.427C147.662 214.984 147.605 214.604 147.495 214.281C147.381 213.964 147.23 213.708 147.037 213.51C146.839 213.302 146.61 213.156 146.35 213.073C146.1 212.979 145.818 212.927 145.516 212.927C144.975 212.927 144.501 213.135 144.1 213.552C143.693 213.958 143.495 214.583 143.495 215.427V222.802H140.162V215.427C140.162 214.984 140.105 214.604 139.995 214.281C139.881 213.964 139.73 213.708 139.537 213.51C139.339 213.302 139.11 213.156 138.85 213.073C138.584 212.979 138.308 212.927 138.016 212.927C137.475 212.927 137.001 213.151 136.6 213.594C136.193 214.042 135.995 214.651 135.995 215.427V222.802H132.662V210.177Z" fill="#EBE3D2"/>
<path d="M159.318 223.031C158.37 223.031 157.516 222.885 156.756 222.594C155.99 222.302 155.339 221.88 154.798 221.323C154.256 220.771 153.839 220.089 153.548 219.281C153.266 218.479 153.131 217.547 153.131 216.49C153.131 215.448 153.266 214.526 153.548 213.719C153.839 212.901 154.256 212.214 154.798 211.656C155.339 211.104 155.99 210.677 156.756 210.385C157.516 210.094 158.37 209.948 159.318 209.948C160.277 209.948 161.131 210.094 161.881 210.385C162.641 210.677 163.298 211.104 163.839 211.656C164.381 212.214 164.787 212.901 165.068 213.719C165.36 214.526 165.506 215.448 165.506 216.49C165.506 217.547 165.36 218.479 165.068 219.281C164.787 220.089 164.381 220.771 163.839 221.323C163.298 221.88 162.641 222.302 161.881 222.594C161.131 222.885 160.277 223.031 159.318 223.031ZM159.318 220.073C159.704 220.073 160.074 220.005 160.423 219.865C160.766 219.729 161.074 219.51 161.339 219.219C161.6 218.927 161.803 218.563 161.943 218.115C162.094 217.656 162.173 217.115 162.173 216.49C162.173 215.88 162.094 215.344 161.943 214.885C161.803 214.427 161.6 214.052 161.339 213.76C161.074 213.469 160.766 213.26 160.423 213.135C160.074 213 159.704 212.927 159.318 212.927C158.943 212.927 158.574 213 158.214 213.135C157.865 213.26 157.558 213.469 157.298 213.76C157.048 214.052 156.844 214.427 156.693 214.885C156.537 215.344 156.464 215.88 156.464 216.49C156.464 217.115 156.537 217.656 156.693 218.115C156.844 218.563 157.048 218.927 157.298 219.219C157.558 219.51 157.865 219.729 158.214 219.865C158.574 220.005 158.943 220.073 159.318 220.073Z" fill="#EBE3D2"/>
<path d="M167.783 210.177H170.637L170.992 211.615H171.117C171.518 211.073 172.002 210.667 172.575 210.385C173.158 210.094 173.783 209.948 174.45 209.948C175.127 209.948 175.752 210.068 176.325 210.302C176.893 210.526 177.377 210.859 177.783 211.302C178.184 211.75 178.502 212.281 178.742 212.906C178.976 213.531 179.096 214.255 179.096 215.073V222.802H175.742V215.531C175.742 214.698 175.538 214.063 175.137 213.615C174.747 213.156 174.2 212.927 173.492 212.927C172.768 212.927 172.189 213.172 171.762 213.656C171.33 214.13 171.117 214.755 171.117 215.531V222.802H167.783V210.177Z" fill="#EBE3D2"/>
<path d="M181.832 210.177H185.165V222.802H181.832V210.177ZM183.499 208.865C182.957 208.865 182.499 208.687 182.124 208.323C181.759 207.964 181.582 207.51 181.582 206.969C181.582 206.427 181.759 205.979 182.124 205.615C182.499 205.24 182.957 205.052 183.499 205.052C184.025 205.052 184.467 205.24 184.832 205.615C185.207 205.979 185.395 206.427 185.395 206.969C185.395 207.51 185.207 207.964 184.832 208.323C184.467 208.687 184.025 208.865 183.499 208.865Z" fill="#EBE3D2"/>
<path d="M193.023 222.802C191.7 222.802 190.715 222.49 190.064 221.865C189.408 221.229 189.085 220.312 189.085 219.115V213.281H187.064V210.177H189.085L189.564 206.844H192.419V210.177H195.398V213.281H192.419V218.51C192.419 218.885 192.523 219.177 192.731 219.385C192.95 219.594 193.242 219.698 193.606 219.698H195.398V222.802H193.023Z" fill="#EBE3D2"/>
<path d="M203.369 223.031C202.421 223.031 201.567 222.885 200.806 222.594C200.041 222.302 199.389 221.88 198.848 221.323C198.306 220.771 197.889 220.089 197.598 219.281C197.317 218.479 197.181 217.547 197.181 216.49C197.181 215.448 197.317 214.526 197.598 213.719C197.889 212.901 198.306 212.214 198.848 211.656C199.389 211.104 200.041 210.677 200.806 210.385C201.567 210.094 202.421 209.948 203.369 209.948C204.327 209.948 205.181 210.094 205.931 210.385C206.692 210.677 207.348 211.104 207.889 211.656C208.431 212.214 208.837 212.901 209.119 213.719C209.41 214.526 209.556 215.448 209.556 216.49C209.556 217.547 209.41 218.479 209.119 219.281C208.837 220.089 208.431 220.771 207.889 221.323C207.348 221.88 206.692 222.302 205.931 222.594C205.181 222.885 204.327 223.031 203.369 223.031ZM203.369 220.073C203.754 220.073 204.124 220.005 204.473 219.865C204.817 219.729 205.124 219.51 205.389 219.219C205.65 218.927 205.853 218.563 205.994 218.115C206.145 217.656 206.223 217.115 206.223 216.49C206.223 215.88 206.145 215.344 205.994 214.885C205.853 214.427 205.65 214.052 205.389 213.76C205.124 213.469 204.817 213.26 204.473 213.135C204.124 213 203.754 212.927 203.369 212.927C202.994 212.927 202.624 213 202.264 213.135C201.916 213.26 201.608 213.469 201.348 213.76C201.098 214.052 200.895 214.427 200.744 214.885C200.587 215.344 200.514 215.88 200.514 216.49C200.514 217.115 200.587 217.656 200.744 218.115C200.895 218.563 201.098 218.927 201.348 219.219C201.608 219.51 201.916 219.729 202.264 219.865C202.624 220.005 202.994 220.073 203.369 220.073Z" fill="#EBE3D2"/>
<path d="M211.833 210.177H214.688L215.042 211.615H215.167C215.526 211.073 215.958 210.698 216.458 210.49C216.969 210.281 217.526 210.177 218.125 210.177H219.688V213.406H218.375C217.36 213.406 216.568 213.687 216 214.24C215.443 214.797 215.167 215.547 215.167 216.49V222.802H211.833V210.177Z" fill="#EBE3D2"/>
<path d="M221.477 210.177H224.81V222.802H221.477V210.177ZM223.144 208.865C222.602 208.865 222.144 208.687 221.769 208.323C221.404 207.964 221.227 207.51 221.227 206.969C221.227 206.427 221.404 205.979 221.769 205.615C222.144 205.24 222.602 205.052 223.144 205.052C223.67 205.052 224.112 205.24 224.477 205.615C224.852 205.979 225.04 206.427 225.04 206.969C225.04 207.51 224.852 207.964 224.477 208.323C224.112 208.687 223.67 208.865 223.144 208.865Z" fill="#EBE3D2"/>
<path d="M227.668 210.177H230.522L230.876 211.615H231.001C231.402 211.073 231.887 210.667 232.46 210.385C233.043 210.094 233.668 209.948 234.335 209.948C235.012 209.948 235.637 210.068 236.21 210.302C236.777 210.526 237.262 210.859 237.668 211.302C238.069 211.75 238.387 212.281 238.626 212.906C238.861 213.531 238.98 214.255 238.98 215.073V222.802H235.626V215.531C235.626 214.698 235.423 214.063 235.022 213.615C234.632 213.156 234.085 212.927 233.376 212.927C232.652 212.927 232.074 213.172 231.647 213.656C231.215 214.13 231.001 214.755 231.001 215.531V222.802H227.668V210.177Z" fill="#EBE3D2"/>
<path d="M247.3 227.573C246.352 227.573 245.534 227.458 244.841 227.24C244.159 227.016 243.581 226.708 243.112 226.323C242.654 225.932 242.279 225.474 241.987 224.948C241.706 224.432 241.493 223.875 241.341 223.281H244.8C244.925 223.698 245.201 224.016 245.633 224.24C246.076 224.474 246.633 224.594 247.3 224.594C248.144 224.594 248.789 224.391 249.237 223.99C249.696 223.599 249.925 223.042 249.925 222.323V220.531H249.8C249.675 220.688 249.508 220.854 249.3 221.031C249.102 221.214 248.862 221.385 248.571 221.552C248.289 221.708 247.972 221.839 247.612 221.948C247.263 222.047 246.883 222.094 246.466 222.094C245.659 222.094 244.925 221.964 244.258 221.698C243.602 221.438 243.039 221.047 242.571 220.531C242.112 220.021 241.748 219.385 241.487 218.635C241.237 217.875 241.112 217 241.112 216.01C241.112 215.026 241.237 214.156 241.487 213.406C241.748 212.656 242.112 212.026 242.571 211.51C243.039 210.984 243.602 210.594 244.258 210.344C244.925 210.083 245.659 209.948 246.466 209.948C247.243 209.948 247.925 210.125 248.508 210.469C249.091 210.818 249.56 211.198 249.925 211.615H250.05L250.404 210.177H253.258V222.323C253.258 224 252.769 225.292 251.8 226.198C250.826 227.115 249.326 227.573 247.3 227.573ZM247.175 219.115C248.019 219.115 248.685 218.839 249.175 218.281C249.675 217.729 249.925 216.969 249.925 216.01C249.925 215.068 249.675 214.318 249.175 213.76C248.685 213.208 248.019 212.927 247.175 212.927C246.341 212.927 245.675 213.208 245.175 213.76C244.685 214.318 244.446 215.068 244.446 216.01C244.446 216.969 244.685 217.729 245.175 218.281C245.675 218.839 246.341 219.115 247.175 219.115Z" fill="#EBE3D2"/>
<path d="M82.4172 252.999C81.5682 252.999 80.8234 252.884 80.188 252.665C79.5474 252.447 79.0005 252.134 78.5422 251.728C78.0942 251.327 77.7557 250.848 77.5213 250.29C77.2974 249.738 77.188 249.134 77.188 248.478C77.188 247.702 77.3651 246.973 77.7297 246.29C78.089 245.613 78.6567 245.035 79.438 244.561L80.3963 243.957L79.688 243.249C79.2713 242.832 78.9224 242.353 78.6463 241.811C78.3807 241.259 78.2505 240.624 78.2505 239.915C78.2505 239.374 78.3599 238.863 78.5838 238.374C78.8182 237.889 79.1463 237.457 79.563 237.082C79.9797 236.707 80.4797 236.41 81.063 236.186C81.6463 235.968 82.2974 235.853 83.0213 235.853C84.5734 235.853 85.7557 236.238 86.563 236.999C87.3651 237.749 87.7713 238.723 87.7713 239.915C87.7713 240.582 87.6255 241.228 87.3338 241.853C87.0526 242.468 86.5265 243.009 85.7505 243.478L84.7922 244.082L87.5422 246.811L89.2088 245.145H93.2505L89.563 248.832L93.5005 252.77H89.3338L87.5422 250.978C87.2609 251.186 86.9588 251.41 86.6255 251.645C86.2922 251.884 85.9172 252.103 85.5005 252.311C85.0942 252.509 84.6359 252.665 84.1255 252.79C83.6099 252.926 83.0422 252.999 82.4172 252.999ZM82.6463 250.04C83.188 250.04 83.688 249.936 84.1463 249.728C84.6151 249.509 85.0317 249.207 85.3963 248.832L82.4172 245.874L81.7088 246.332C80.9849 246.822 80.6255 247.457 80.6255 248.249C80.6255 248.79 80.7922 249.228 81.1255 249.561C81.4692 249.884 81.9797 250.04 82.6463 250.04ZM83.6047 241.582C83.839 241.405 84.0526 241.207 84.2505 240.999C84.4588 240.79 84.563 240.509 84.563 240.145C84.563 239.728 84.4224 239.389 84.1463 239.124C83.8651 238.863 83.4901 238.728 83.0213 238.728C82.5317 238.728 82.1515 238.869 81.8755 239.145C81.5942 239.426 81.4588 239.801 81.4588 240.27C81.4588 240.577 81.5317 240.832 81.688 241.04C81.8547 241.238 82.0526 241.457 82.2922 241.707L82.7713 242.165L83.6047 241.582Z" fill="#EBE3D2"/>
<path d="M104.796 252.999C103.848 252.999 102.994 252.853 102.234 252.561C101.468 252.27 100.817 251.848 100.276 251.29C99.7339 250.738 99.3172 250.056 99.0256 249.249C98.7443 248.447 98.6089 247.514 98.6089 246.457C98.6089 245.415 98.7443 244.494 99.0256 243.686C99.3172 242.869 99.7339 242.181 100.276 241.624C100.817 241.072 101.468 240.645 102.234 240.353C102.994 240.061 103.848 239.915 104.796 239.915C105.682 239.915 106.463 240.04 107.13 240.29C107.796 240.53 108.364 240.863 108.838 241.29C109.307 241.707 109.692 242.197 109.984 242.749C110.276 243.29 110.489 243.853 110.63 244.436H107.296C107.057 243.968 106.744 243.593 106.359 243.311C105.984 243.035 105.463 242.895 104.796 242.895C103.963 242.895 103.276 243.197 102.734 243.79C102.203 244.374 101.942 245.264 101.942 246.457C101.942 247.655 102.203 248.551 102.734 249.145C103.276 249.744 103.963 250.04 104.796 250.04C105.463 250.04 105.984 249.905 106.359 249.624C106.744 249.348 107.057 248.968 107.296 248.478H110.63C110.489 249.093 110.276 249.665 109.984 250.207C109.692 250.738 109.307 251.218 108.838 251.645C108.364 252.061 107.796 252.395 107.13 252.645C106.463 252.879 105.682 252.999 104.796 252.999Z" fill="#EBE3D2"/>
<path d="M118.369 252.999C117.421 252.999 116.567 252.853 115.806 252.561C115.041 252.27 114.389 251.848 113.848 251.29C113.306 250.738 112.889 250.056 112.598 249.249C112.317 248.447 112.181 247.514 112.181 246.457C112.181 245.415 112.317 244.494 112.598 243.686C112.889 242.869 113.306 242.181 113.848 241.624C114.389 241.072 115.041 240.645 115.806 240.353C116.567 240.061 117.421 239.915 118.369 239.915C119.327 239.915 120.181 240.061 120.931 240.353C121.692 240.645 122.348 241.072 122.889 241.624C123.431 242.181 123.837 242.869 124.119 243.686C124.41 244.494 124.556 245.415 124.556 246.457C124.556 247.514 124.41 248.447 124.119 249.249C123.837 250.056 123.431 250.738 122.889 251.29C122.348 251.848 121.692 252.27 120.931 252.561C120.181 252.853 119.327 252.999 118.369 252.999ZM118.369 250.04C118.754 250.04 119.124 249.973 119.473 249.832C119.817 249.697 120.124 249.478 120.389 249.186C120.65 248.895 120.853 248.53 120.994 248.082C121.145 247.624 121.223 247.082 121.223 246.457C121.223 245.848 121.145 245.311 120.994 244.853C120.853 244.395 120.65 244.02 120.389 243.728C120.124 243.436 119.817 243.228 119.473 243.103C119.124 242.968 118.754 242.895 118.369 242.895C117.994 242.895 117.624 242.968 117.264 243.103C116.916 243.228 116.608 243.436 116.348 243.728C116.098 244.02 115.895 244.395 115.744 244.853C115.587 245.311 115.514 245.848 115.514 246.457C115.514 247.082 115.587 247.624 115.744 248.082C115.895 248.53 116.098 248.895 116.348 249.186C116.608 249.478 116.916 249.697 117.264 249.832C117.624 249.973 117.994 250.04 118.369 250.04Z" fill="#EBE3D2"/>
<path d="M126.834 240.145H129.688L130.042 241.582H130.167C130.568 241.04 131.053 240.634 131.626 240.353C132.209 240.061 132.834 239.915 133.501 239.915C134.178 239.915 134.803 240.035 135.376 240.27C135.943 240.494 136.428 240.827 136.834 241.27C137.235 241.718 137.553 242.249 137.792 242.874C138.027 243.499 138.146 244.223 138.146 245.04V252.77H134.792V245.499C134.792 244.665 134.589 244.03 134.188 243.582C133.798 243.124 133.251 242.895 132.542 242.895C131.818 242.895 131.24 243.139 130.813 243.624C130.381 244.098 130.167 244.723 130.167 245.499V252.77H126.834V240.145Z" fill="#EBE3D2"/>
<path d="M145.882 252.77C144.559 252.77 143.575 252.457 142.924 251.832C142.268 251.197 141.945 250.28 141.945 249.082V243.249H139.924V240.145H141.945L142.424 236.811H145.278V240.145H148.257V243.249H145.278V248.478C145.278 248.853 145.382 249.145 145.59 249.353C145.809 249.561 146.101 249.665 146.465 249.665H148.257V252.77H145.882Z" fill="#EBE3D2"/>
<path d="M150.645 240.145H153.499L153.853 241.582H153.978C154.337 241.04 154.77 240.665 155.27 240.457C155.78 240.249 156.337 240.145 156.936 240.145H158.499V243.374H157.186C156.171 243.374 155.379 243.655 154.811 244.207C154.254 244.764 153.978 245.514 153.978 246.457V252.77H150.645V240.145Z" fill="#EBE3D2"/>
<path d="M165.872 252.999C164.924 252.999 164.069 252.853 163.309 252.561C162.543 252.27 161.892 251.848 161.351 251.29C160.809 250.738 160.392 250.056 160.101 249.249C159.819 248.447 159.684 247.514 159.684 246.457C159.684 245.415 159.819 244.494 160.101 243.686C160.392 242.869 160.809 242.181 161.351 241.624C161.892 241.072 162.543 240.645 163.309 240.353C164.069 240.061 164.924 239.915 165.872 239.915C166.83 239.915 167.684 240.061 168.434 240.353C169.194 240.645 169.851 241.072 170.392 241.624C170.934 242.181 171.34 242.869 171.622 243.686C171.913 244.494 172.059 245.415 172.059 246.457C172.059 247.514 171.913 248.447 171.622 249.249C171.34 250.056 170.934 250.738 170.392 251.29C169.851 251.848 169.194 252.27 168.434 252.561C167.684 252.853 166.83 252.999 165.872 252.999ZM165.872 250.04C166.257 250.04 166.627 249.973 166.976 249.832C167.319 249.697 167.627 249.478 167.892 249.186C168.153 248.895 168.356 248.53 168.497 248.082C168.648 247.624 168.726 247.082 168.726 246.457C168.726 245.848 168.648 245.311 168.497 244.853C168.356 244.395 168.153 244.02 167.892 243.728C167.627 243.436 167.319 243.228 166.976 243.103C166.627 242.968 166.257 242.895 165.872 242.895C165.497 242.895 165.127 242.968 164.767 243.103C164.418 243.228 164.111 243.436 163.851 243.728C163.601 244.02 163.398 244.395 163.247 244.853C163.09 245.311 163.017 245.848 163.017 246.457C163.017 247.082 163.09 247.624 163.247 248.082C163.398 248.53 163.601 248.895 163.851 249.186C164.111 249.478 164.418 249.697 164.767 249.832C165.127 249.973 165.497 250.04 165.872 250.04Z" fill="#EBE3D2"/>
<path d="M174.441 236.103H177.774V252.77H174.441V236.103Z" fill="#EBE3D2"/>
</svg>
