<svg width="271" height="271" viewBox="0 0 271 271" fill="none" xmlns="http://www.w3.org/2000/svg">
<mask id="mask0_296_44" style="mask-type:luminance" maskUnits="userSpaceOnUse" x="0" y="0" width="271" height="271">
<path d="M0.536621 0.401001H271V270.87H0.536621V0.401001Z" fill="white"/>
</mask>
<g mask="url(#mask0_296_44)">
<mask id="mask1_296_44" style="mask-type:luminance" maskUnits="userSpaceOnUse" x="0" y="0" width="271" height="271">
<path d="M40.521 0.401001H231.016C241.62 0.401001 251.792 4.61454 259.287 12.1145C266.787 19.6145 271 29.7812 271 40.3854V230.885C271 241.49 266.787 251.656 259.287 259.156C251.792 266.656 241.62 270.87 231.016 270.87H40.521C29.9168 270.87 19.745 266.656 12.245 259.156C4.74496 251.656 0.536621 241.49 0.536621 230.885V40.3854C0.536621 29.7812 4.74496 19.6145 12.245 12.1145C19.745 4.61454 29.9168 0.401001 40.521 0.401001Z" fill="white"/>
</mask>
<g mask="url(#mask1_296_44)">
<path d="M0.536621 0.401001H271V270.87H0.536621V0.401001Z" fill="#112B3C"/>
</g>
</g>
<path d="M30.5706 217.288H34.9665L40.9248 233.955H37.2373L36.1748 230.851H29.3831L28.2998 233.955H24.6123L30.5706 217.288ZM35.0081 227.642L32.8415 221.33H32.7165L30.5498 227.642H35.0081Z" fill="#EBE3D2"/>
<path d="M47.834 234.184C46.8861 234.184 46.0319 234.038 45.2715 233.746C44.5059 233.455 43.8548 233.033 43.3132 232.476C42.7715 231.923 42.3548 231.241 42.0632 230.434C41.7819 229.632 41.6465 228.699 41.6465 227.642C41.6465 226.601 41.7819 225.679 42.0632 224.871C42.3548 224.054 42.7715 223.366 43.3132 222.809C43.8548 222.257 44.5059 221.83 45.2715 221.538C46.0319 221.246 46.8861 221.101 47.834 221.101C48.7507 221.101 49.584 221.257 50.334 221.559C51.084 221.866 51.7194 222.304 52.2507 222.871C52.7923 223.444 53.1986 224.111 53.4798 224.871C53.7715 225.637 53.9173 226.486 53.9173 227.413C53.9173 227.58 53.9017 227.746 53.8757 227.913C53.86 228.069 53.8444 228.205 53.834 228.33C53.8184 228.486 53.8027 228.616 53.7923 228.726H45.1048C45.2298 229.434 45.5059 230.033 45.9382 230.517C46.3652 230.991 47.0007 231.226 47.834 231.226C48.485 231.226 48.9642 231.121 49.2715 230.913C49.5892 230.694 49.8652 230.392 50.1048 230.017H53.6673C53.5267 230.559 53.3132 231.08 53.0215 231.58C52.7298 232.08 52.3444 232.528 51.8757 232.913C51.4017 233.304 50.834 233.616 50.1673 233.851C49.5007 234.069 48.7194 234.184 47.834 234.184ZM50.459 226.226C50.3861 225.949 50.2819 225.684 50.1465 225.434C50.0215 225.184 49.8444 224.955 49.6257 224.746C49.4173 224.538 49.1569 224.382 48.8548 224.267C48.5632 224.142 48.2194 224.08 47.834 224.08C47.0527 224.08 46.4434 224.288 46.0007 224.705C45.5684 225.111 45.2715 225.616 45.1048 226.226H50.459Z" fill="#EBE3D2"/>
<path d="M56.1831 221.33H59.0373L59.3914 222.767H59.5164C59.8758 222.225 60.3081 221.85 60.8081 221.642C61.3185 221.434 61.8758 221.33 62.4748 221.33H64.0373V224.559H62.7248C61.7091 224.559 60.9175 224.84 60.3498 225.392C59.7925 225.949 59.5164 226.699 59.5164 227.642V233.955H56.1831V221.33Z" fill="#EBE3D2"/>
<path d="M65.8286 221.33H69.1619V233.955H65.8286V221.33ZM67.4953 220.017C66.9536 220.017 66.4953 219.84 66.1203 219.475C65.7557 219.116 65.5786 218.663 65.5786 218.121C65.5786 217.58 65.7557 217.132 66.1203 216.767C66.4953 216.392 66.9536 216.205 67.4953 216.205C68.0213 216.205 68.464 216.392 68.8286 216.767C69.2036 217.132 69.3911 217.58 69.3911 218.121C69.3911 218.663 69.2036 219.116 68.8286 219.475C68.464 219.84 68.0213 220.017 67.4953 220.017Z" fill="#EBE3D2"/>
<path d="M75.7087 234.184C75.0264 234.184 74.4066 234.085 73.8545 233.892C73.3128 233.699 72.8441 233.429 72.4587 233.08C72.0837 232.736 71.792 232.324 71.5837 231.851C71.3857 231.366 71.292 230.84 71.292 230.267C71.292 229.699 71.3962 229.179 71.6045 228.705C71.8128 228.22 72.1149 227.804 72.5212 227.455C72.9378 227.111 73.443 226.84 74.042 226.642C74.6514 226.434 75.3649 226.33 76.1878 226.33H79.1462V225.746C79.1462 225.137 78.9587 224.684 78.5837 224.392C78.2087 224.101 77.6878 223.955 77.0212 223.955C76.5316 223.955 76.1253 224.059 75.792 224.267C75.4587 224.476 75.2295 224.726 75.1045 225.017H71.7712C71.8805 224.517 72.0732 224.033 72.3545 223.559C72.6305 223.09 72.9847 222.673 73.417 222.309C73.8597 221.949 74.3857 221.658 75.0003 221.434C75.6097 221.215 76.318 221.101 77.1253 221.101C78.8024 221.101 80.1149 221.507 81.0628 222.309C82.0212 223.116 82.5003 224.298 82.5003 225.851V233.955H79.6253L79.2712 232.517H79.1462C79.0212 232.699 78.8597 232.892 78.667 233.101C78.4847 233.298 78.2503 233.476 77.9587 233.642C77.6774 233.809 77.3545 233.944 76.9795 234.038C76.6045 234.132 76.1774 234.184 75.7087 234.184ZM76.542 231.455C77.318 231.455 77.943 231.241 78.417 230.809C78.9014 230.366 79.1462 229.788 79.1462 229.08V228.726H76.292C75.693 228.726 75.2607 228.851 75.0003 229.101C74.7503 229.351 74.6253 229.658 74.6253 230.017C74.6253 230.434 74.7764 230.783 75.0837 231.059C75.3857 231.324 75.8753 231.455 76.542 231.455Z" fill="#EBE3D2"/>
<path d="M85.3433 217.288H88.6766V233.955H85.3433V217.288Z" fill="#EBE3D2"/>
<path d="M97.147 221.33H100.001L100.355 222.767H100.48C100.824 222.351 101.282 221.97 101.855 221.621C102.423 221.278 103.152 221.101 104.043 221.101C104.845 221.101 105.584 221.241 106.251 221.517C106.918 221.798 107.491 222.215 107.98 222.767C108.465 223.324 108.84 224.012 109.105 224.83C109.381 225.653 109.522 226.59 109.522 227.642C109.522 228.726 109.381 229.673 109.105 230.476C108.84 231.283 108.465 231.965 107.98 232.517C107.491 233.074 106.918 233.491 106.251 233.767C105.584 234.043 104.845 234.184 104.043 234.184C103.569 234.184 103.147 234.132 102.772 234.038C102.397 233.944 102.064 233.819 101.772 233.663C101.491 233.496 101.251 233.324 101.043 233.142C100.845 232.949 100.694 232.783 100.584 232.642H100.48V238.726H97.147V221.33ZM103.334 231.226C103.709 231.226 104.069 231.158 104.418 231.017C104.762 230.882 105.069 230.663 105.334 230.371C105.595 230.08 105.803 229.715 105.959 229.267C106.111 228.809 106.189 228.267 106.189 227.642C106.189 227.033 106.111 226.496 105.959 226.038C105.803 225.58 105.595 225.205 105.334 224.913C105.069 224.621 104.762 224.413 104.418 224.288C104.069 224.153 103.709 224.08 103.334 224.08C102.944 224.08 102.574 224.153 102.23 224.288C101.881 224.413 101.574 224.621 101.314 224.913C101.048 225.205 100.84 225.58 100.689 226.038C100.548 226.496 100.48 227.033 100.48 227.642C100.48 228.267 100.548 228.809 100.689 229.267C100.84 229.715 101.048 230.08 101.314 230.371C101.574 230.663 101.881 230.882 102.23 231.017C102.574 231.158 102.944 231.226 103.334 231.226Z" fill="#EBE3D2"/>
<path d="M111.898 217.288H115.232V222.642H115.357C115.773 222.173 116.232 221.798 116.732 221.517C117.242 221.241 117.857 221.101 118.565 221.101C119.242 221.101 119.867 221.22 120.44 221.455C121.023 221.679 121.513 222.012 121.919 222.455C122.32 222.903 122.633 223.434 122.857 224.059C123.091 224.684 123.211 225.408 123.211 226.226V233.955H119.878V226.684C119.878 225.851 119.674 225.215 119.273 224.767C118.883 224.309 118.336 224.08 117.628 224.08C116.904 224.08 116.32 224.324 115.878 224.809C115.445 225.283 115.232 225.908 115.232 226.684V233.955H111.898V217.288Z" fill="#EBE3D2"/>
<path d="M131.548 234.184C130.6 234.184 129.746 234.038 128.985 233.746C128.22 233.455 127.569 233.033 127.027 232.476C126.485 231.923 126.069 231.241 125.777 230.434C125.496 229.632 125.36 228.699 125.36 227.642C125.36 226.601 125.496 225.679 125.777 224.871C126.069 224.054 126.485 223.366 127.027 222.809C127.569 222.257 128.22 221.83 128.985 221.538C129.746 221.246 130.6 221.101 131.548 221.101C132.506 221.101 133.36 221.246 134.11 221.538C134.871 221.83 135.527 222.257 136.069 222.809C136.61 223.366 137.017 224.054 137.298 224.871C137.59 225.679 137.735 226.601 137.735 227.642C137.735 228.699 137.59 229.632 137.298 230.434C137.017 231.241 136.61 231.923 136.069 232.476C135.527 233.033 134.871 233.455 134.11 233.746C133.36 234.038 132.506 234.184 131.548 234.184ZM131.548 231.226C131.933 231.226 132.303 231.158 132.652 231.017C132.996 230.882 133.303 230.663 133.569 230.371C133.829 230.08 134.032 229.715 134.173 229.267C134.324 228.809 134.402 228.267 134.402 227.642C134.402 227.033 134.324 226.496 134.173 226.038C134.032 225.58 133.829 225.205 133.569 224.913C133.303 224.621 132.996 224.413 132.652 224.288C132.303 224.153 131.933 224.08 131.548 224.08C131.173 224.08 130.803 224.153 130.444 224.288C130.095 224.413 129.787 224.621 129.527 224.913C129.277 225.205 129.074 225.58 128.923 226.038C128.767 226.496 128.694 227.033 128.694 227.642C128.694 228.267 128.767 228.809 128.923 229.267C129.074 229.715 129.277 230.08 129.527 230.371C129.787 230.663 130.095 230.882 130.444 231.017C130.803 231.158 131.173 231.226 131.548 231.226Z" fill="#EBE3D2"/>
<path d="M145.016 233.955C143.694 233.955 142.709 233.642 142.058 233.017C141.402 232.382 141.079 231.465 141.079 230.267V224.434H139.058V221.33H141.079L141.558 217.996H144.412V221.33H147.391V224.434H144.412V229.663C144.412 230.038 144.516 230.33 144.725 230.538C144.944 230.746 145.235 230.851 145.6 230.851H147.391V233.955H145.016Z" fill="#EBE3D2"/>
<path d="M155.364 234.184C154.416 234.184 153.562 234.038 152.802 233.746C152.036 233.455 151.385 233.033 150.843 232.476C150.302 231.923 149.885 231.241 149.593 230.434C149.312 229.632 149.177 228.699 149.177 227.642C149.177 226.601 149.312 225.679 149.593 224.871C149.885 224.054 150.302 223.366 150.843 222.809C151.385 222.257 152.036 221.83 152.802 221.538C153.562 221.246 154.416 221.101 155.364 221.101C156.323 221.101 157.177 221.246 157.927 221.538C158.687 221.83 159.343 222.257 159.885 222.809C160.427 223.366 160.833 224.054 161.114 224.871C161.406 225.679 161.552 226.601 161.552 227.642C161.552 228.699 161.406 229.632 161.114 230.434C160.833 231.241 160.427 231.923 159.885 232.476C159.343 233.033 158.687 233.455 157.927 233.746C157.177 234.038 156.323 234.184 155.364 234.184ZM155.364 231.226C155.75 231.226 156.119 231.158 156.468 231.017C156.812 230.882 157.119 230.663 157.385 230.371C157.646 230.08 157.849 229.715 157.989 229.267C158.14 228.809 158.218 228.267 158.218 227.642C158.218 227.033 158.14 226.496 157.989 226.038C157.849 225.58 157.646 225.205 157.385 224.913C157.119 224.621 156.812 224.413 156.468 224.288C156.119 224.153 155.75 224.08 155.364 224.08C154.989 224.08 154.619 224.153 154.26 224.288C153.911 224.413 153.604 224.621 153.343 224.913C153.093 225.205 152.89 225.58 152.739 226.038C152.583 226.496 152.51 227.033 152.51 227.642C152.51 228.267 152.583 228.809 152.739 229.267C152.89 229.715 153.093 230.08 153.343 230.371C153.604 230.663 153.911 230.882 154.26 231.017C154.619 231.158 154.989 231.226 155.364 231.226Z" fill="#EBE3D2"/>
<path d="M169.416 238.726C168.468 238.726 167.65 238.611 166.958 238.392C166.275 238.168 165.697 237.861 165.229 237.476C164.77 237.085 164.395 236.627 164.104 236.101C163.822 235.585 163.609 235.028 163.458 234.434H166.916C167.041 234.851 167.317 235.168 167.749 235.392C168.192 235.627 168.749 235.746 169.416 235.746C170.26 235.746 170.906 235.543 171.354 235.142C171.812 234.752 172.041 234.194 172.041 233.476V231.684H171.916C171.791 231.84 171.624 232.007 171.416 232.184C171.218 232.366 170.979 232.538 170.687 232.705C170.406 232.861 170.088 232.991 169.729 233.101C169.38 233.199 168.999 233.246 168.583 233.246C167.775 233.246 167.041 233.116 166.374 232.851C165.718 232.59 165.156 232.199 164.687 231.684C164.229 231.173 163.864 230.538 163.604 229.788C163.354 229.028 163.229 228.153 163.229 227.163C163.229 226.179 163.354 225.309 163.604 224.559C163.864 223.809 164.229 223.179 164.687 222.663C165.156 222.137 165.718 221.746 166.374 221.496C167.041 221.236 167.775 221.101 168.583 221.101C169.359 221.101 170.041 221.278 170.624 221.621C171.208 221.97 171.676 222.351 172.041 222.767H172.166L172.52 221.33H175.374V233.476C175.374 235.153 174.885 236.444 173.916 237.351C172.942 238.267 171.442 238.726 169.416 238.726ZM169.291 230.267C170.135 230.267 170.801 229.991 171.291 229.434C171.791 228.882 172.041 228.121 172.041 227.163C172.041 226.22 171.791 225.47 171.291 224.913C170.801 224.361 170.135 224.08 169.291 224.08C168.458 224.08 167.791 224.361 167.291 224.913C166.801 225.47 166.562 226.22 166.562 227.163C166.562 228.121 166.801 228.882 167.291 229.434C167.791 229.991 168.458 230.267 169.291 230.267Z" fill="#EBE3D2"/>
<path d="M178.241 221.33H181.095L181.45 222.767H181.575C181.934 222.225 182.366 221.85 182.866 221.642C183.377 221.434 183.934 221.33 184.533 221.33H186.095V224.559H184.783C183.767 224.559 182.976 224.84 182.408 225.392C181.851 225.949 181.575 226.699 181.575 227.642V233.955H178.241V221.33Z" fill="#EBE3D2"/>
<path d="M191.574 234.184C190.892 234.184 190.272 234.085 189.72 233.892C189.179 233.699 188.71 233.429 188.324 233.08C187.949 232.736 187.658 232.324 187.449 231.851C187.251 231.366 187.158 230.84 187.158 230.267C187.158 229.699 187.262 229.179 187.47 228.705C187.679 228.22 187.981 227.804 188.387 227.455C188.804 227.111 189.309 226.84 189.908 226.642C190.517 226.434 191.231 226.33 192.054 226.33H195.012V225.746C195.012 225.137 194.824 224.684 194.449 224.392C194.074 224.101 193.554 223.955 192.887 223.955C192.397 223.955 191.991 224.059 191.658 224.267C191.324 224.476 191.095 224.726 190.97 225.017H187.637C187.746 224.517 187.939 224.033 188.22 223.559C188.496 223.09 188.85 222.673 189.283 222.309C189.725 221.949 190.251 221.658 190.866 221.434C191.475 221.215 192.184 221.101 192.991 221.101C194.668 221.101 195.981 221.507 196.929 222.309C197.887 223.116 198.366 224.298 198.366 225.851V233.955H195.491L195.137 232.517H195.012C194.887 232.699 194.725 232.892 194.533 233.101C194.35 233.298 194.116 233.476 193.824 233.642C193.543 233.809 193.22 233.944 192.845 234.038C192.47 234.132 192.043 234.184 191.574 234.184ZM192.408 231.455C193.184 231.455 193.809 231.241 194.283 230.809C194.767 230.366 195.012 229.788 195.012 229.08V228.726H192.158C191.559 228.726 191.126 228.851 190.866 229.101C190.616 229.351 190.491 229.658 190.491 230.017C190.491 230.434 190.642 230.783 190.949 231.059C191.251 231.324 191.741 231.455 192.408 231.455Z" fill="#EBE3D2"/>
<path d="M201.105 221.33H203.959L204.313 222.767H204.438C204.782 222.351 205.24 221.97 205.813 221.621C206.381 221.278 207.11 221.101 208.001 221.101C208.803 221.101 209.542 221.241 210.209 221.517C210.876 221.798 211.449 222.215 211.938 222.767C212.423 223.324 212.798 224.012 213.063 224.83C213.339 225.653 213.48 226.59 213.48 227.642C213.48 228.726 213.339 229.673 213.063 230.476C212.798 231.283 212.423 231.965 211.938 232.517C211.449 233.074 210.876 233.491 210.209 233.767C209.542 234.043 208.803 234.184 208.001 234.184C207.527 234.184 207.105 234.132 206.73 234.038C206.355 233.944 206.022 233.819 205.73 233.663C205.449 233.496 205.209 233.324 205.001 233.142C204.803 232.949 204.652 232.783 204.542 232.642H204.438V238.726H201.105V221.33ZM207.292 231.226C207.667 231.226 208.027 231.158 208.376 231.017C208.72 230.882 209.027 230.663 209.292 230.371C209.553 230.08 209.761 229.715 209.917 229.267C210.069 228.809 210.147 228.267 210.147 227.642C210.147 227.033 210.069 226.496 209.917 226.038C209.761 225.58 209.553 225.205 209.292 224.913C209.027 224.621 208.72 224.413 208.376 224.288C208.027 224.153 207.667 224.08 207.292 224.08C206.902 224.08 206.532 224.153 206.188 224.288C205.839 224.413 205.532 224.621 205.272 224.913C205.006 225.205 204.798 225.58 204.647 226.038C204.506 226.496 204.438 227.033 204.438 227.642C204.438 228.267 204.506 228.809 204.647 229.267C204.798 229.715 205.006 230.08 205.272 230.371C205.532 230.663 205.839 230.882 206.188 231.017C206.532 231.158 206.902 231.226 207.292 231.226Z" fill="#EBE3D2"/>
<path d="M215.856 217.288H219.19V222.642H219.315C219.731 222.173 220.19 221.798 220.69 221.517C221.2 221.241 221.815 221.101 222.523 221.101C223.2 221.101 223.825 221.22 224.398 221.455C224.981 221.679 225.471 222.012 225.877 222.455C226.278 222.903 226.591 223.434 226.815 224.059C227.049 224.684 227.169 225.408 227.169 226.226V233.955H223.836V226.684C223.836 225.851 223.632 225.215 223.231 224.767C222.841 224.309 222.294 224.08 221.586 224.08C220.862 224.08 220.278 224.324 219.836 224.809C219.403 225.283 219.19 225.908 219.19 226.684V233.955H215.856V217.288Z" fill="#EBE3D2"/>
<path d="M233.506 233.955L228.36 221.33H232.048L235.152 229.559H235.256L238.256 221.33H241.944L235.027 238.725H231.59L233.506 233.955Z" fill="#EBE3D2"/>
<path d="M95.776 96.3698C95.0573 96.3698 94.3438 96.2969 93.6354 96.1562C92.9323 96.0156 92.2448 95.8073 91.5781 95.5312C90.9167 95.2552 90.2813 94.9219 89.6823 94.5208C89.0833 94.1198 88.5313 93.6667 88.0208 93.1562C87.5156 92.6458 87.0573 92.0938 86.6615 91.4948C86.2604 90.8958 85.9219 90.2656 85.6458 89.599C85.3698 88.9323 85.1615 88.25 85.0208 87.5417C84.8802 86.8385 84.8125 86.125 84.8125 85.401V78.0938C84.8125 77.6094 84.9063 77.1406 85.0885 76.6927C85.276 76.2448 85.5417 75.8542 85.8802 75.5104C86.224 75.1667 86.6198 74.901 87.0677 74.7188C87.5156 74.5313 87.9792 74.4375 88.4688 74.4375H103.083C103.568 74.4375 104.036 74.5313 104.484 74.7188C104.932 74.901 105.328 75.1667 105.672 75.5104C106.01 75.8542 106.276 76.2448 106.464 76.6927C106.646 77.1406 106.74 77.6094 106.74 78.0938V85.401C106.74 86.125 106.672 86.8385 106.531 87.5417C106.391 88.25 106.182 88.9323 105.906 89.599C105.63 90.2656 105.292 90.8958 104.891 91.4948C104.495 92.0938 104.036 92.6458 103.531 93.1562C103.021 93.6667 102.464 94.1198 101.87 94.5208C101.271 94.9219 100.635 95.2552 99.974 95.5312C99.3073 95.8073 98.6198 96.0156 97.9167 96.1562C97.2083 96.2969 96.4948 96.3698 95.776 96.3698ZM92.1198 81.75V85.401C92.1198 85.8854 92.2135 86.3542 92.401 86.8021C92.5833 87.25 92.849 87.6458 93.1927 87.9896C93.5365 88.3281 93.9271 88.5937 94.375 88.7812C94.8229 88.9635 95.2917 89.0573 95.776 89.0573C96.2604 89.0573 96.7292 88.9635 97.1771 88.7812C97.6198 88.5937 98.0156 88.3281 98.3594 87.9896C98.7031 87.6458 98.9688 87.25 99.151 86.8021C99.3385 86.3542 99.4323 85.8854 99.4323 85.401V81.75H92.1198Z" fill="#EBE3D2"/>
<mask id="mask2_296_44" style="mask-type:luminance" maskUnits="userSpaceOnUse" x="91" y="59" width="10" height="24">
<path d="M91 59.8177H100.333V82.6666H91V59.8177Z" fill="white"/>
</mask>
<g mask="url(#mask2_296_44)">
<path d="M95.7759 81.75C95.2915 81.75 94.8228 81.6562 94.3748 81.4687C93.9269 81.2864 93.5363 81.0208 93.1925 80.6771C92.8488 80.3333 92.5832 79.9375 92.4009 79.4896C92.2134 79.0416 92.1196 78.5781 92.1196 78.0937V63.4739C92.1196 62.9896 92.2134 62.5208 92.4009 62.0729C92.5832 61.625 92.8488 61.2344 93.1925 60.8906C93.5363 60.5469 93.9269 60.2812 94.3748 60.0989C94.8228 59.9114 95.2915 59.8177 95.7759 59.8177C96.2603 59.8177 96.729 59.9114 97.1769 60.0989C97.6196 60.2812 98.0155 60.5469 98.3592 60.8906C98.703 61.2344 98.9686 61.625 99.1509 62.0729C99.3384 62.5208 99.4321 62.9896 99.4321 63.4739V78.0937C99.4321 78.5781 99.3384 79.0416 99.1509 79.4896C98.9686 79.9375 98.703 80.3333 98.3592 80.6771C98.0155 81.0208 97.6196 81.2864 97.1769 81.4687C96.729 81.6562 96.2603 81.75 95.7759 81.75Z" fill="#EBE3D2"/>
</g>
<mask id="mask3_296_44" style="mask-type:luminance" maskUnits="userSpaceOnUse" x="77" y="59" width="38" height="9">
<path d="M77.5 59.8177H115V68H77.5V59.8177Z" fill="white"/>
</mask>
<g mask="url(#mask3_296_44)">
<path d="M110.396 67.1302H81.1562C80.6719 67.1302 80.2083 67.0364 79.7604 66.8489C79.3125 66.6666 78.9167 66.401 78.5729 66.0573C78.2292 65.7135 77.9635 65.3229 77.7812 64.875C77.5937 64.4271 77.5 63.9583 77.5 63.4739C77.5 62.9896 77.5937 62.5208 77.7812 62.0729C77.9635 61.625 78.2292 61.2344 78.5729 60.8906C78.9167 60.5469 79.3125 60.2812 79.7604 60.0989C80.2083 59.9114 80.6719 59.8177 81.1562 59.8177H110.396C110.88 59.8177 111.344 59.9114 111.792 60.0989C112.24 60.2812 112.635 60.5469 112.979 60.8906C113.323 61.2344 113.589 61.625 113.771 62.0729C113.958 62.5208 114.052 62.9896 114.052 63.4739C114.052 63.9583 113.958 64.4271 113.771 64.875C113.589 65.3229 113.323 65.7135 112.979 66.0573C112.635 66.401 112.24 66.6666 111.792 66.8489C111.344 67.0364 110.88 67.1302 110.396 67.1302Z" fill="#EBE3D2"/>
</g>
<path d="M176.182 96.3698C175.464 96.3698 174.75 96.2969 174.042 96.1562C173.339 96.0156 172.651 95.8073 171.984 95.5312C171.323 95.2552 170.688 94.9219 170.089 94.5208C169.49 94.1198 168.938 93.6667 168.427 93.1562C167.922 92.6458 167.464 92.0938 167.068 91.4948C166.667 90.8958 166.328 90.2656 166.052 89.599C165.776 88.9323 165.568 88.25 165.427 87.5417C165.286 86.8385 165.219 86.125 165.219 85.401V78.0938C165.219 77.6094 165.312 77.1406 165.495 76.6927C165.682 76.2448 165.948 75.8542 166.286 75.5104C166.63 75.1667 167.026 74.901 167.474 74.7188C167.922 74.5313 168.385 74.4375 168.875 74.4375H183.49C183.974 74.4375 184.443 74.5313 184.891 74.7188C185.339 74.901 185.734 75.1667 186.078 75.5104C186.417 75.8542 186.682 76.2448 186.87 76.6927C187.052 77.1406 187.146 77.6094 187.146 78.0938V85.401C187.146 86.125 187.078 86.8385 186.938 87.5417C186.797 88.25 186.589 88.9323 186.312 89.599C186.036 90.2656 185.698 90.8958 185.297 91.4948C184.901 92.0938 184.443 92.6458 183.938 93.1562C183.427 93.6667 182.87 94.1198 182.276 94.5208C181.677 94.9219 181.042 95.2552 180.38 95.5312C179.714 95.8073 179.026 96.0156 178.323 96.1562C177.615 96.2969 176.901 96.3698 176.182 96.3698ZM172.526 81.75V85.401C172.526 85.8854 172.62 86.3542 172.807 86.8021C172.99 87.25 173.255 87.6458 173.599 87.9896C173.943 88.3281 174.333 88.5937 174.781 88.7812C175.229 88.9635 175.698 89.0573 176.182 89.0573C176.667 89.0573 177.135 88.9635 177.583 88.7812C178.026 88.5937 178.422 88.3281 178.766 87.9896C179.109 87.6458 179.375 87.25 179.557 86.8021C179.745 86.3542 179.839 85.8854 179.839 85.401V81.75H172.526Z" fill="#EBE3D2"/>
<mask id="mask4_296_44" style="mask-type:luminance" maskUnits="userSpaceOnUse" x="172" y="59" width="9" height="24">
<path d="M172.333 59.8177H180.333V82.6666H172.333V59.8177Z" fill="white"/>
</mask>
<g mask="url(#mask4_296_44)">
<path d="M176.183 81.75C175.698 81.75 175.229 81.6562 174.782 81.4687C174.334 81.2864 173.943 81.0208 173.599 80.6771C173.256 80.3333 172.99 79.9375 172.808 79.4896C172.62 79.0416 172.526 78.5781 172.526 78.0937V63.4739C172.526 62.9896 172.62 62.5208 172.808 62.0729C172.99 61.625 173.256 61.2344 173.599 60.8906C173.943 60.5469 174.334 60.2812 174.782 60.0989C175.229 59.9114 175.698 59.8177 176.183 59.8177C176.667 59.8177 177.136 59.9114 177.584 60.0989C178.026 60.2812 178.422 60.5469 178.766 60.8906C179.11 61.2344 179.375 61.625 179.558 62.0729C179.745 62.5208 179.839 62.9896 179.839 63.4739V78.0937C179.839 78.5781 179.745 79.0416 179.558 79.4896C179.375 79.9375 179.11 80.3333 178.766 80.6771C178.422 81.0208 178.026 81.2864 177.584 81.4687C177.136 81.6562 176.667 81.75 176.183 81.75Z" fill="#EBE3D2"/>
</g>
<mask id="mask5_296_44" style="mask-type:luminance" maskUnits="userSpaceOnUse" x="157" y="59" width="38" height="9">
<path d="M157.667 59.8177H194.458V68H157.667V59.8177Z" fill="white"/>
</mask>
<g mask="url(#mask5_296_44)">
<path d="M190.802 67.1302H161.562C161.078 67.1302 160.609 67.0364 160.167 66.8489C159.719 66.6666 159.323 66.401 158.979 66.0573C158.635 65.7135 158.37 65.3229 158.188 64.875C158 64.4271 157.906 63.9583 157.906 63.4739C157.906 62.9896 158 62.5208 158.188 62.0729C158.37 61.625 158.635 61.2344 158.979 60.8906C159.323 60.5469 159.719 60.2812 160.167 60.0989C160.609 59.9114 161.078 59.8177 161.562 59.8177H190.802C191.286 59.8177 191.75 59.9114 192.198 60.0989C192.646 60.2812 193.042 60.5469 193.385 60.8906C193.729 61.2344 193.995 61.625 194.177 62.0729C194.365 62.5208 194.458 62.9896 194.458 63.4739C194.458 63.9583 194.365 64.4271 194.177 64.875C193.995 65.3229 193.729 65.7135 193.385 66.0573C193.042 66.401 192.646 66.6666 192.198 66.8489C191.75 67.0364 191.286 67.1302 190.802 67.1302Z" fill="#EBE3D2"/>
</g>
<path d="M176.182 96.3698H95.7759C95.2915 96.3698 94.8228 96.2761 94.3748 96.0886C93.9269 95.9063 93.5363 95.6406 93.1925 95.2969C92.8488 94.9531 92.5832 94.5573 92.4009 94.1094C92.2134 93.6615 92.1196 93.1979 92.1196 92.7136C92.1196 92.2292 92.2134 91.7604 92.4009 91.3125C92.5832 90.8646 92.8488 90.4688 93.1925 90.1302C93.5363 89.7865 93.9269 89.5209 94.3748 89.3386C94.8228 89.1511 95.2915 89.0573 95.7759 89.0573H176.182C176.667 89.0573 177.135 89.1511 177.583 89.3386C178.026 89.5209 178.422 89.7865 178.765 90.1302C179.109 90.4688 179.375 90.8646 179.557 91.3125C179.745 91.7604 179.838 92.2292 179.838 92.7136C179.838 93.1979 179.745 93.6615 179.557 94.1094C179.375 94.5573 179.109 94.9531 178.765 95.2969C178.422 95.6406 178.026 95.9063 177.583 96.0886C177.135 96.2761 176.667 96.3698 176.182 96.3698Z" fill="#EBE3D2"/>
<path d="M148.547 125.604H123.411C122.193 125.604 121 125.406 119.849 125.01C118.693 124.609 117.63 124.036 116.666 123.286C115.703 122.531 114.89 121.641 114.224 120.62C113.557 119.594 113.073 118.49 112.776 117.302L106.849 93.5989C106.719 93.125 106.687 92.6406 106.75 92.1562C106.818 91.6666 106.974 91.2083 107.219 90.7864C107.469 90.3593 107.791 90 108.182 89.7031C108.578 89.4114 109.01 89.2031 109.489 89.0833C109.969 88.9635 110.448 88.9427 110.937 89.0208C111.422 89.0937 111.875 89.2604 112.291 89.5208C112.713 89.776 113.062 90.1093 113.349 90.5052C113.635 90.9062 113.833 91.3489 113.943 91.8281L119.896 115.531C119.995 115.927 120.156 116.292 120.375 116.63C120.599 116.969 120.864 117.266 121.182 117.516C121.5 117.766 121.854 117.958 122.234 118.089C122.614 118.224 123.01 118.292 123.411 118.297H148.547C148.953 118.297 149.349 118.229 149.734 118.099C150.12 117.964 150.474 117.771 150.791 117.521C151.114 117.271 151.385 116.974 151.609 116.63C151.828 116.292 151.989 115.922 152.088 115.526L158.015 91.8281C158.125 91.3489 158.323 90.9062 158.609 90.5052C158.896 90.1093 159.245 89.776 159.666 89.5208C160.083 89.2604 160.536 89.0937 161.021 89.0208C161.51 88.9427 161.989 88.9635 162.469 89.0833C162.948 89.2031 163.38 89.4114 163.776 89.7031C164.166 90 164.489 90.3593 164.739 90.7864C164.984 91.2083 165.14 91.6666 165.208 92.1562C165.271 92.6406 165.239 93.125 165.109 93.5989L159.182 117.302C158.885 118.49 158.401 119.594 157.734 120.62C157.068 121.641 156.255 122.531 155.291 123.286C154.328 124.036 153.265 124.609 152.109 125.01C150.958 125.406 149.765 125.604 148.547 125.604Z" fill="#EBE3D2"/>
<path d="M183.49 154.844C183.073 154.844 182.662 154.776 182.266 154.63C181.87 154.49 181.505 154.286 181.182 154.021C180.854 153.755 180.583 153.443 180.365 153.083C180.146 152.719 179.995 152.333 179.912 151.922L176.11 132.99C175.901 131.964 175.615 130.958 175.235 129.979C174.854 129.005 174.396 128.068 173.86 127.167C173.318 126.271 172.708 125.422 172.021 124.63C171.339 123.839 170.589 123.109 169.781 122.443C168.969 121.776 168.11 121.188 167.198 120.672C166.287 120.156 165.339 119.719 164.349 119.365C163.365 119.01 162.354 118.745 161.323 118.568C160.287 118.385 159.25 118.297 158.198 118.297H156.078C155.594 118.297 155.13 118.203 154.682 118.016C154.235 117.833 153.839 117.568 153.495 117.224C153.151 116.885 152.891 116.49 152.703 116.042C152.521 115.594 152.427 115.125 152.427 114.641C152.427 114.156 152.521 113.693 152.703 113.245C152.891 112.797 153.151 112.401 153.495 112.057C153.839 111.714 154.235 111.448 154.682 111.266C155.13 111.078 155.594 110.984 156.078 110.984H158.198C159.667 110.99 161.12 111.12 162.568 111.37C164.011 111.625 165.422 111.995 166.802 112.495C168.182 112.99 169.511 113.594 170.787 114.318C172.063 115.042 173.266 115.87 174.401 116.797C175.531 117.729 176.578 118.745 177.537 119.854C178.495 120.964 179.354 122.146 180.11 123.401C180.865 124.656 181.511 125.969 182.042 127.339C182.573 128.703 182.985 130.104 183.271 131.542L187.073 150.469C187.172 150.943 187.172 151.417 187.078 151.896C186.985 152.37 186.802 152.807 186.531 153.214C186.266 153.615 185.927 153.953 185.526 154.224C185.125 154.495 184.682 154.677 184.208 154.771C183.974 154.818 183.735 154.844 183.49 154.844Z" fill="#EBE3D2"/>
<path d="M88.469 154.844C88.219 154.844 87.9742 154.823 87.7346 154.771C87.2606 154.677 86.8231 154.49 86.4221 154.219C86.0211 153.948 85.6825 153.609 85.4169 153.208C85.1513 152.802 84.969 152.359 84.8752 151.885C84.7867 151.411 84.7867 150.932 84.8856 150.458L88.6877 131.526C88.9794 130.089 89.3908 128.688 89.9221 127.323C90.4533 125.958 91.094 124.646 91.8544 123.391C92.6096 122.135 93.4638 120.953 94.4273 119.849C95.3856 118.74 96.4325 117.719 97.5627 116.792C98.6981 115.865 99.9013 115.036 101.177 114.318C102.453 113.594 103.781 112.984 105.162 112.49C106.537 111.995 107.948 111.62 109.396 111.37C110.839 111.12 112.292 110.99 113.755 110.984H115.875C116.365 110.984 116.828 111.078 117.276 111.266C117.724 111.448 118.12 111.714 118.464 112.057C118.802 112.401 119.068 112.797 119.255 113.245C119.438 113.693 119.531 114.156 119.531 114.641C119.531 115.125 119.438 115.594 119.255 116.042C119.068 116.49 118.802 116.885 118.464 117.224C118.12 117.568 117.724 117.833 117.276 118.016C116.828 118.203 116.365 118.297 115.875 118.297H113.755C112.709 118.297 111.672 118.385 110.641 118.568C109.604 118.745 108.599 119.01 107.61 119.365C106.625 119.719 105.677 120.151 104.766 120.667C103.854 121.182 102.99 121.771 102.183 122.438C101.37 123.099 100.625 123.828 99.9377 124.62C99.2554 125.417 98.6408 126.26 98.1044 127.156C97.5627 128.057 97.1044 128.99 96.7242 129.969C96.3492 130.948 96.0575 131.948 95.8492 132.974L92.0471 151.922C91.9638 152.333 91.8127 152.719 91.594 153.083C91.3752 153.443 91.1044 153.755 90.7763 154.021C90.4533 154.286 90.0888 154.49 89.6929 154.63C89.2971 154.776 88.8856 154.844 88.469 154.844Z" fill="#EBE3D2"/>
<mask id="mask6_296_44" style="mask-type:luminance" maskUnits="userSpaceOnUse" x="105" y="132" width="61" height="45">
<path d="M105.667 132H165.667V176.776H105.667V132Z" fill="white"/>
</mask>
<g mask="url(#mask6_296_44)">
<path d="M157.906 176.776H114.052C113.567 176.776 113.093 176.729 112.625 176.635C112.151 176.542 111.698 176.401 111.255 176.219C110.807 176.031 110.39 175.807 109.989 175.542C109.588 175.276 109.218 174.974 108.88 174.63C108.541 174.292 108.239 173.922 107.974 173.526C107.703 173.125 107.479 172.703 107.297 172.26C107.114 171.818 106.974 171.359 106.88 170.891C106.786 170.422 106.739 169.943 106.739 169.464V147.536C106.739 147.057 106.786 146.578 106.88 146.109C106.974 145.641 107.114 145.182 107.297 144.74C107.479 144.297 107.703 143.875 107.974 143.474C108.239 143.073 108.541 142.703 108.88 142.365C109.218 142.026 109.588 141.724 109.989 141.458C110.39 141.193 110.807 140.964 111.255 140.781C111.698 140.599 112.151 140.458 112.625 140.365C113.093 140.271 113.567 140.224 114.052 140.224H119.838L126.083 133.984C126.797 133.271 127.661 132.911 128.672 132.917H143.286C144.297 132.911 145.161 133.271 145.875 133.984L152.109 140.224H157.906C158.385 140.224 158.864 140.271 159.333 140.365C159.807 140.458 160.26 140.599 160.703 140.781C161.151 140.964 161.567 141.193 161.968 141.458C162.369 141.724 162.739 142.026 163.078 142.365C163.416 142.703 163.718 143.073 163.984 143.474C164.25 143.875 164.479 144.297 164.661 144.74C164.843 145.182 164.984 145.641 165.078 146.109C165.172 146.578 165.218 147.057 165.218 147.536V169.464C165.218 169.943 165.172 170.422 165.078 170.891C164.984 171.359 164.843 171.818 164.661 172.26C164.479 172.703 164.25 173.125 163.984 173.526C163.718 173.922 163.416 174.292 163.078 174.63C162.739 174.974 162.369 175.276 161.968 175.542C161.567 175.807 161.151 176.031 160.703 176.219C160.26 176.401 159.807 176.542 159.333 176.635C158.864 176.729 158.385 176.776 157.906 176.776ZM114.052 147.536V169.464H157.906V147.536H150.599C149.588 147.536 148.724 147.182 148.01 146.469L141.776 140.224H130.182L123.937 146.469C123.229 147.177 122.364 147.536 121.359 147.536H114.052Z" fill="#EBE3D2"/>
</g>
<path d="M135.979 167.635C135.26 167.635 134.547 167.568 133.839 167.427C133.135 167.286 132.448 167.078 131.781 166.802C131.12 166.526 130.484 166.187 129.885 165.786C129.286 165.391 128.734 164.932 128.224 164.427C127.719 163.917 127.26 163.365 126.865 162.766C126.464 162.167 126.125 161.531 125.849 160.87C125.573 160.203 125.365 159.516 125.224 158.812C125.083 158.104 125.016 157.391 125.016 156.672C125.016 155.953 125.083 155.24 125.224 154.531C125.365 153.828 125.573 153.141 125.849 152.474C126.125 151.812 126.464 151.177 126.865 150.578C127.26 149.984 127.719 149.427 128.224 148.917C128.734 148.411 129.286 147.953 129.885 147.557C130.484 147.156 131.12 146.818 131.781 146.542C132.448 146.266 133.135 146.057 133.839 145.917C134.547 145.776 135.26 145.708 135.979 145.708C136.698 145.708 137.411 145.776 138.12 145.917C138.823 146.057 139.51 146.266 140.177 146.542C140.839 146.818 141.474 147.156 142.073 147.557C142.667 147.953 143.224 148.411 143.734 148.917C144.24 149.427 144.698 149.984 145.094 150.578C145.495 151.177 145.833 151.812 146.109 152.474C146.385 153.141 146.594 153.828 146.734 154.531C146.875 155.24 146.943 155.953 146.943 156.672C146.943 157.391 146.875 158.104 146.734 158.812C146.594 159.516 146.385 160.203 146.109 160.87C145.833 161.531 145.495 162.167 145.094 162.766C144.698 163.365 144.24 163.917 143.734 164.427C143.224 164.932 142.667 165.391 142.073 165.786C141.474 166.187 140.839 166.526 140.177 166.802C139.51 167.078 138.823 167.286 138.12 167.427C137.411 167.568 136.698 167.635 135.979 167.635ZM135.979 153.016C135.495 153.016 135.026 153.109 134.578 153.297C134.13 153.479 133.74 153.745 133.396 154.089C133.052 154.432 132.786 154.828 132.604 155.276C132.417 155.719 132.323 156.187 132.323 156.672C132.323 157.156 132.417 157.625 132.604 158.073C132.786 158.521 133.052 158.911 133.396 159.255C133.74 159.599 134.13 159.865 134.578 160.047C135.026 160.234 135.495 160.328 135.979 160.328C136.464 160.328 136.932 160.234 137.38 160.047C137.823 159.865 138.219 159.599 138.562 159.255C138.906 158.911 139.172 158.521 139.354 158.073C139.542 157.625 139.635 157.156 139.635 156.672C139.635 156.187 139.542 155.719 139.354 155.276C139.172 154.828 138.906 154.432 138.562 154.089C138.219 153.745 137.823 153.479 137.38 153.297C136.932 153.109 136.464 153.016 135.979 153.016Z" fill="#EBE3D2"/>
<path d="M143.286 140.224H128.672C128.182 140.224 127.719 140.13 127.271 139.948C126.823 139.76 126.427 139.5 126.083 139.156C125.745 138.812 125.479 138.417 125.292 137.969C125.109 137.521 125.016 137.057 125.016 136.573V121.953C125.016 121.469 125.109 121 125.292 120.552C125.479 120.104 125.745 119.708 126.083 119.365C126.427 119.026 126.823 118.76 127.271 118.573C127.719 118.391 128.182 118.297 128.672 118.297H143.286C143.771 118.297 144.24 118.391 144.688 118.573C145.135 118.76 145.531 119.026 145.875 119.365C146.214 119.708 146.479 120.104 146.667 120.552C146.849 121 146.943 121.469 146.943 121.953V136.573C146.943 137.057 146.849 137.521 146.667 137.969C146.479 138.417 146.214 138.812 145.875 139.156C145.531 139.5 145.135 139.76 144.688 139.948C144.24 140.13 143.771 140.224 143.286 140.224ZM132.323 132.917H139.635V125.604H132.323V132.917Z" fill="#EBE3D2"/>
</svg>
