<svg width="272" height="271" viewBox="0 0 272 271" fill="none" xmlns="http://www.w3.org/2000/svg">
<mask id="mask0_296_45" style="mask-type:luminance" maskUnits="userSpaceOnUse" x="0" y="0" width="272" height="271">
<path d="M0.703125 0.401001H271.167V270.87H0.703125V0.401001Z" fill="white"/>
</mask>
<g mask="url(#mask0_296_45)">
<mask id="mask1_296_45" style="mask-type:luminance" maskUnits="userSpaceOnUse" x="0" y="0" width="272" height="271">
<path d="M40.6875 0.401001H231.182C241.786 0.401001 251.958 4.61454 259.453 12.1145C266.953 19.6145 271.167 29.7812 271.167 40.3854V230.885C271.167 241.49 266.953 251.656 259.453 259.156C251.958 266.656 241.786 270.87 231.182 270.87H40.6875C30.0833 270.87 19.9115 266.656 12.4115 259.156C4.91146 251.656 0.703125 241.49 0.703125 230.885V40.3854C0.703125 29.7812 4.91146 19.6145 12.4115 12.1145C19.9115 4.61454 30.0833 0.401001 40.6875 0.401001Z" fill="white"/>
</mask>
<g mask="url(#mask1_296_45)">
<path d="M0.703125 0.401001H271.167V270.87H0.703125V0.401001Z" fill="#112B3C"/>
</g>
</g>
<path d="M29.4673 217.288H33.0298V230.746H40.6548V233.955H29.4673V217.288Z" fill="#EBE3D2"/>
<path d="M48.1587 234.184C47.2108 234.184 46.3566 234.038 45.5962 233.746C44.8306 233.455 44.1795 233.033 43.6379 232.476C43.0962 231.923 42.6795 231.241 42.3879 230.434C42.1066 229.632 41.9712 228.699 41.9712 227.642C41.9712 226.601 42.1066 225.679 42.3879 224.871C42.6795 224.054 43.0962 223.366 43.6379 222.809C44.1795 222.257 44.8306 221.83 45.5962 221.538C46.3566 221.246 47.2108 221.101 48.1587 221.101C49.117 221.101 49.9712 221.246 50.7212 221.538C51.4816 221.83 52.1379 222.257 52.6795 222.809C53.2212 223.366 53.6274 224.054 53.9087 224.871C54.2004 225.679 54.3462 226.601 54.3462 227.642C54.3462 228.699 54.2004 229.632 53.9087 230.434C53.6274 231.241 53.2212 231.923 52.6795 232.476C52.1379 233.033 51.4816 233.455 50.7212 233.746C49.9712 234.038 49.117 234.184 48.1587 234.184ZM48.1587 231.226C48.5441 231.226 48.9139 231.158 49.2629 231.017C49.6066 230.882 49.9139 230.663 50.1795 230.371C50.4399 230.08 50.6431 229.715 50.7837 229.267C50.9347 228.809 51.0129 228.267 51.0129 227.642C51.0129 227.033 50.9347 226.496 50.7837 226.038C50.6431 225.58 50.4399 225.205 50.1795 224.913C49.9139 224.621 49.6066 224.413 49.2629 224.288C48.9139 224.153 48.5441 224.08 48.1587 224.08C47.7837 224.08 47.4139 224.153 47.0545 224.288C46.7056 224.413 46.3983 224.621 46.1379 224.913C45.8879 225.205 45.6847 225.58 45.5337 226.038C45.3774 226.496 45.3045 227.033 45.3045 227.642C45.3045 228.267 45.3774 228.809 45.5337 229.267C45.6847 229.715 45.8879 230.08 46.1379 230.371C46.3983 230.663 46.7056 230.882 47.0545 231.017C47.4139 231.158 47.7837 231.226 48.1587 231.226Z" fill="#EBE3D2"/>
<path d="M62.21 238.726C61.262 238.726 60.4443 238.611 59.7516 238.392C59.0693 238.168 58.4912 237.861 58.0225 237.476C57.5641 237.085 57.1891 236.627 56.8975 236.101C56.6162 235.585 56.4027 235.028 56.2516 234.434H59.71C59.835 234.851 60.111 235.168 60.5433 235.392C60.986 235.627 61.5433 235.746 62.21 235.746C63.0537 235.746 63.6995 235.543 64.1475 235.142C64.6058 234.752 64.835 234.194 64.835 233.476V231.684H64.71C64.585 231.84 64.4183 232.007 64.21 232.184C64.012 232.366 63.7725 232.538 63.4808 232.705C63.1995 232.861 62.8818 232.991 62.5225 233.101C62.1735 233.199 61.7933 233.246 61.3766 233.246C60.5693 233.246 59.835 233.116 59.1683 232.851C58.512 232.59 57.9495 232.199 57.4808 231.684C57.0225 231.173 56.6579 230.538 56.3975 229.788C56.1475 229.028 56.0225 228.153 56.0225 227.163C56.0225 226.179 56.1475 225.309 56.3975 224.559C56.6579 223.809 57.0225 223.179 57.4808 222.663C57.9495 222.137 58.512 221.746 59.1683 221.496C59.835 221.236 60.5693 221.101 61.3766 221.101C62.1527 221.101 62.835 221.278 63.4183 221.621C64.0016 221.97 64.4704 222.351 64.835 222.767H64.96L65.3141 221.33H68.1683V233.476C68.1683 235.153 67.6787 236.444 66.71 237.351C65.736 238.267 64.236 238.726 62.21 238.726ZM62.085 230.267C62.9287 230.267 63.5954 229.991 64.085 229.434C64.585 228.882 64.835 228.121 64.835 227.163C64.835 226.22 64.585 225.47 64.085 224.913C63.5954 224.361 62.9287 224.08 62.085 224.08C61.2516 224.08 60.585 224.361 60.085 224.913C59.5954 225.47 59.3558 226.22 59.3558 227.163C59.3558 228.121 59.5954 228.882 60.085 229.434C60.585 229.991 61.2516 230.267 62.085 230.267Z" fill="#EBE3D2"/>
<path d="M71.0356 221.33H74.369V233.955H71.0356V221.33ZM72.7023 220.017C72.1606 220.017 71.7023 219.84 71.3273 219.475C70.9627 219.116 70.7856 218.663 70.7856 218.121C70.7856 217.58 70.9627 217.132 71.3273 216.767C71.7023 216.392 72.1606 216.205 72.7023 216.205C73.2284 216.205 73.6711 216.392 74.0356 216.767C74.4106 217.132 74.5981 217.58 74.5981 218.121C74.5981 218.663 74.4106 219.116 74.0356 219.475C73.6711 219.84 73.2284 220.017 72.7023 220.017Z" fill="#EBE3D2"/>
<path d="M81.8529 234.184C80.9362 234.184 80.1445 234.069 79.4779 233.851C78.8112 233.632 78.2539 233.33 77.8112 232.955C77.3633 232.58 77.0195 232.142 76.7695 231.642C76.5299 231.142 76.3633 230.601 76.2695 230.017H79.832C79.8997 230.324 80.1029 230.601 80.4362 230.851C80.7799 231.101 81.2539 231.226 81.8529 231.226C82.6862 231.226 83.2487 231.132 83.5404 230.934C83.8424 230.726 83.9987 230.507 83.9987 230.267C83.9987 229.949 83.8164 229.72 83.457 229.58C83.1081 229.429 82.6654 229.298 82.1237 229.184C81.582 229.074 80.9987 228.955 80.3737 228.83C79.7487 228.705 79.1654 228.496 78.6237 228.205C78.082 227.913 77.6289 227.512 77.2695 226.996C76.9206 226.486 76.7487 225.788 76.7487 224.913C76.7487 224.371 76.8581 223.871 77.082 223.413C77.3008 222.955 77.6237 222.554 78.0404 222.205C78.4674 221.861 79.0039 221.59 79.6445 221.392C80.2799 221.199 81.0195 221.101 81.8529 221.101C82.7383 221.101 83.5091 221.205 84.1654 221.413C84.8164 221.611 85.3581 221.887 85.7904 222.246C86.2331 222.611 86.5716 223.033 86.8112 223.517C87.0612 223.991 87.2331 224.491 87.332 225.017H83.7695C83.6966 224.783 83.5247 224.569 83.2487 224.371C82.9831 224.179 82.5195 224.08 81.8529 224.08C81.3216 224.08 80.9154 224.163 80.6237 224.33C80.332 224.486 80.1862 224.679 80.1862 224.913C80.1862 225.236 80.3633 225.465 80.7279 225.601C81.0872 225.741 81.5404 225.866 82.082 225.976C82.6237 226.09 83.207 226.205 83.832 226.33C84.457 226.455 85.0404 226.673 85.582 226.976C86.1237 227.267 86.5664 227.673 86.9154 228.184C87.2747 228.699 87.457 229.392 87.457 230.267C87.457 230.767 87.3633 231.257 87.1862 231.726C87.0039 232.199 86.6966 232.616 86.2695 232.976C85.8372 233.34 85.2591 233.632 84.5404 233.851C83.8164 234.069 82.9206 234.184 81.8529 234.184Z" fill="#EBE3D2"/>
<path d="M94.4935 233.955C93.1706 233.955 92.1862 233.642 91.5352 233.017C90.8789 232.382 90.556 231.465 90.556 230.267V224.434H88.5352V221.33H90.556L91.0352 217.996H93.8893V221.33H96.8685V224.434H93.8893V229.663C93.8893 230.038 93.9935 230.33 94.2018 230.538C94.4206 230.746 94.7122 230.851 95.0768 230.851H96.8685V233.955H94.4935Z" fill="#EBE3D2"/>
<path d="M99.2578 221.33H102.591V233.955H99.2578V221.33ZM100.924 220.017C100.383 220.017 99.9245 219.84 99.5495 219.475C99.1849 219.116 99.0078 218.663 99.0078 218.121C99.0078 217.58 99.1849 217.132 99.5495 216.767C99.9245 216.392 100.383 216.205 100.924 216.205C101.451 216.205 101.893 216.392 102.258 216.767C102.633 217.132 102.82 217.58 102.82 218.121C102.82 218.663 102.633 219.116 102.258 219.475C101.893 219.84 101.451 220.017 100.924 220.017Z" fill="#EBE3D2"/>
<path d="M111.033 234.184C110.085 234.184 109.231 234.038 108.471 233.746C107.705 233.455 107.054 233.033 106.512 232.476C105.971 231.923 105.554 231.241 105.262 230.434C104.981 229.632 104.846 228.699 104.846 227.642C104.846 226.601 104.981 225.679 105.262 224.871C105.554 224.054 105.971 223.366 106.512 222.809C107.054 222.257 107.705 221.83 108.471 221.538C109.231 221.246 110.085 221.101 111.033 221.101C111.919 221.101 112.7 221.226 113.367 221.476C114.033 221.715 114.601 222.048 115.075 222.476C115.544 222.892 115.929 223.382 116.221 223.934C116.512 224.476 116.726 225.038 116.867 225.621H113.533C113.294 225.153 112.981 224.778 112.596 224.496C112.221 224.22 111.7 224.08 111.033 224.08C110.2 224.08 109.512 224.382 108.971 224.976C108.439 225.559 108.179 226.449 108.179 227.642C108.179 228.84 108.439 229.736 108.971 230.33C109.512 230.929 110.2 231.226 111.033 231.226C111.7 231.226 112.221 231.09 112.596 230.809C112.981 230.533 113.294 230.153 113.533 229.663H116.867C116.726 230.278 116.512 230.851 116.221 231.392C115.929 231.923 115.544 232.403 115.075 232.83C114.601 233.246 114.033 233.58 113.367 233.83C112.7 234.064 111.919 234.184 111.033 234.184Z" fill="#EBE3D2"/>
<path d="M123.65 234.184C122.734 234.184 121.942 234.069 121.275 233.851C120.609 233.632 120.051 233.33 119.609 232.955C119.161 232.58 118.817 232.142 118.567 231.642C118.327 231.142 118.161 230.601 118.067 230.017H121.629C121.697 230.324 121.9 230.601 122.234 230.851C122.577 231.101 123.051 231.226 123.65 231.226C124.484 231.226 125.046 231.132 125.338 230.934C125.64 230.726 125.796 230.507 125.796 230.267C125.796 229.949 125.614 229.72 125.254 229.58C124.905 229.429 124.463 229.298 123.921 229.184C123.379 229.074 122.796 228.955 122.171 228.83C121.546 228.705 120.963 228.496 120.421 228.205C119.879 227.913 119.426 227.512 119.067 226.996C118.718 226.486 118.546 225.788 118.546 224.913C118.546 224.371 118.655 223.871 118.879 223.413C119.098 222.955 119.421 222.554 119.838 222.205C120.265 221.861 120.801 221.59 121.442 221.392C122.077 221.199 122.817 221.101 123.65 221.101C124.536 221.101 125.306 221.205 125.963 221.413C126.614 221.611 127.155 221.887 127.588 222.246C128.03 222.611 128.369 223.033 128.609 223.517C128.859 223.991 129.03 224.491 129.129 225.017H125.567C125.494 224.783 125.322 224.569 125.046 224.371C124.78 224.179 124.317 224.08 123.65 224.08C123.119 224.08 122.713 224.163 122.421 224.33C122.129 224.486 121.984 224.679 121.984 224.913C121.984 225.236 122.161 225.465 122.525 225.601C122.885 225.741 123.338 225.866 123.879 225.976C124.421 226.09 125.004 226.205 125.629 226.33C126.254 226.455 126.838 226.673 127.379 226.976C127.921 227.267 128.364 227.673 128.713 228.184C129.072 228.699 129.254 229.392 129.254 230.267C129.254 230.767 129.161 231.257 128.984 231.726C128.801 232.199 128.494 232.616 128.067 232.976C127.635 233.34 127.056 233.632 126.338 233.851C125.614 234.069 124.718 234.184 123.65 234.184Z" fill="#EBE3D2"/>
<path d="M141.164 234.184C140.315 234.184 139.57 234.069 138.935 233.851C138.294 233.632 137.748 233.319 137.289 232.913C136.841 232.512 136.503 232.033 136.268 231.476C136.044 230.923 135.935 230.319 135.935 229.663C135.935 228.887 136.112 228.158 136.477 227.476C136.836 226.798 137.404 226.22 138.185 225.746L139.143 225.142L138.435 224.434C138.018 224.017 137.669 223.538 137.393 222.996C137.128 222.444 136.998 221.809 136.998 221.101C136.998 220.559 137.107 220.048 137.331 219.559C137.565 219.074 137.893 218.642 138.31 218.267C138.727 217.892 139.227 217.595 139.81 217.371C140.393 217.153 141.044 217.038 141.768 217.038C143.32 217.038 144.503 217.423 145.31 218.184C146.112 218.934 146.518 219.908 146.518 221.101C146.518 221.767 146.373 222.413 146.081 223.038C145.8 223.653 145.274 224.194 144.498 224.663L143.539 225.267L146.289 227.996L147.956 226.33H151.998L148.31 230.017L152.248 233.955H148.081L146.289 232.163C146.008 232.371 145.706 232.595 145.373 232.83C145.039 233.069 144.664 233.288 144.248 233.496C143.841 233.694 143.383 233.851 142.873 233.976C142.357 234.111 141.789 234.184 141.164 234.184ZM141.393 231.226C141.935 231.226 142.435 231.121 142.893 230.913C143.362 230.694 143.779 230.392 144.143 230.017L141.164 227.059L140.456 227.517C139.732 228.007 139.373 228.642 139.373 229.434C139.373 229.976 139.539 230.413 139.873 230.746C140.216 231.069 140.727 231.226 141.393 231.226ZM142.352 222.767C142.586 222.59 142.8 222.392 142.998 222.184C143.206 221.976 143.31 221.694 143.31 221.33C143.31 220.913 143.169 220.574 142.893 220.309C142.612 220.048 142.237 219.913 141.768 219.913C141.279 219.913 140.899 220.054 140.623 220.33C140.341 220.611 140.206 220.986 140.206 221.455C140.206 221.762 140.279 222.017 140.435 222.226C140.602 222.423 140.8 222.642 141.039 222.892L141.518 223.351L142.352 222.767Z" fill="#EBE3D2"/>
<path d="M162.84 234.184C162.033 234.184 161.298 234.043 160.632 233.767C159.965 233.491 159.387 233.074 158.903 232.517C158.413 231.965 158.033 231.283 157.757 230.476C157.491 229.673 157.361 228.726 157.361 227.642C157.361 226.59 157.491 225.653 157.757 224.83C158.033 224.012 158.413 223.324 158.903 222.767C159.387 222.215 159.965 221.798 160.632 221.517C161.298 221.241 162.033 221.101 162.84 221.101C163.309 221.101 163.736 221.158 164.111 221.267C164.486 221.366 164.809 221.491 165.09 221.642C165.382 221.798 165.616 221.97 165.798 222.163C165.991 222.345 166.158 222.507 166.298 222.642H166.403V217.288H169.736V233.955H166.882L166.528 232.517H166.403C166.236 232.726 166.033 232.934 165.798 233.142C165.574 233.34 165.319 233.517 165.028 233.684C164.736 233.84 164.408 233.955 164.048 234.038C163.684 234.132 163.283 234.184 162.84 234.184ZM163.548 231.226C163.934 231.226 164.304 231.158 164.653 231.017C164.996 230.882 165.304 230.663 165.569 230.371C165.83 230.08 166.033 229.715 166.173 229.267C166.324 228.809 166.403 228.267 166.403 227.642C166.403 227.033 166.324 226.496 166.173 226.038C166.033 225.58 165.83 225.205 165.569 224.913C165.304 224.621 164.996 224.413 164.653 224.288C164.304 224.153 163.934 224.08 163.548 224.08C163.173 224.08 162.804 224.153 162.444 224.288C162.095 224.413 161.788 224.621 161.528 224.913C161.278 225.205 161.074 225.58 160.923 226.038C160.767 226.496 160.694 227.033 160.694 227.642C160.694 228.267 160.767 228.809 160.923 229.267C161.074 229.715 161.278 230.08 161.528 230.371C161.788 230.663 162.095 230.882 162.444 231.017C162.804 231.158 163.173 231.226 163.548 231.226Z" fill="#EBE3D2"/>
<path d="M178.314 234.184C177.367 234.184 176.512 234.038 175.752 233.746C174.986 233.455 174.335 233.033 173.794 232.476C173.252 231.923 172.835 231.241 172.544 230.434C172.262 229.632 172.127 228.699 172.127 227.642C172.127 226.601 172.262 225.679 172.544 224.871C172.835 224.054 173.252 223.366 173.794 222.809C174.335 222.257 174.986 221.83 175.752 221.538C176.512 221.246 177.367 221.101 178.314 221.101C179.231 221.101 180.064 221.257 180.814 221.559C181.564 221.866 182.2 222.304 182.731 222.871C183.273 223.444 183.679 224.111 183.96 224.871C184.252 225.637 184.398 226.486 184.398 227.413C184.398 227.58 184.382 227.746 184.356 227.913C184.34 228.069 184.325 228.205 184.314 228.33C184.299 228.486 184.283 228.616 184.273 228.726H175.585C175.71 229.434 175.986 230.033 176.419 230.517C176.846 230.991 177.481 231.226 178.314 231.226C178.965 231.226 179.445 231.121 179.752 230.913C180.07 230.694 180.346 230.392 180.585 230.017H184.148C184.007 230.559 183.794 231.08 183.502 231.58C183.21 232.08 182.825 232.528 182.356 232.913C181.882 233.304 181.314 233.616 180.648 233.851C179.981 234.069 179.2 234.184 178.314 234.184ZM180.939 226.226C180.867 225.949 180.762 225.684 180.627 225.434C180.502 225.184 180.325 224.955 180.106 224.746C179.898 224.538 179.637 224.382 179.335 224.267C179.044 224.142 178.7 224.08 178.314 224.08C177.533 224.08 176.924 224.288 176.481 224.705C176.049 225.111 175.752 225.616 175.585 226.226H180.939Z" fill="#EBE3D2"/>
<path d="M186.768 217.288H190.101V233.955H186.768V217.288Z" fill="#EBE3D2"/>
<path d="M193.094 221.33H196.427V233.955H193.094V221.33ZM194.76 220.017C194.219 220.017 193.76 219.84 193.385 219.475C193.021 219.116 192.844 218.663 192.844 218.121C192.844 217.58 193.021 217.132 193.385 216.767C193.76 216.392 194.219 216.205 194.76 216.205C195.286 216.205 195.729 216.392 196.094 216.767C196.469 217.132 196.656 217.58 196.656 218.121C196.656 218.663 196.469 219.116 196.094 219.475C195.729 219.84 195.286 220.017 194.76 220.017Z" fill="#EBE3D2"/>
<path d="M197.849 221.33H201.411L204.286 230.496H204.39L207.244 221.33H210.828L206.411 233.955H202.244L197.849 221.33Z" fill="#EBE3D2"/>
<path d="M217.85 234.184C216.902 234.184 216.048 234.038 215.287 233.746C214.521 233.455 213.87 233.033 213.329 232.476C212.787 231.923 212.37 231.241 212.079 230.434C211.798 229.632 211.662 228.699 211.662 227.642C211.662 226.601 211.798 225.679 212.079 224.871C212.37 224.054 212.787 223.366 213.329 222.809C213.87 222.257 214.521 221.83 215.287 221.538C216.048 221.246 216.902 221.101 217.85 221.101C218.766 221.101 219.6 221.257 220.35 221.559C221.1 221.866 221.735 222.304 222.266 222.871C222.808 223.444 223.214 224.111 223.495 224.871C223.787 225.637 223.933 226.486 223.933 227.413C223.933 227.58 223.917 227.746 223.891 227.913C223.876 228.069 223.86 228.205 223.85 228.33C223.834 228.486 223.818 228.616 223.808 228.726H215.12C215.245 229.434 215.521 230.033 215.954 230.517C216.381 230.991 217.016 231.226 217.85 231.226C218.501 231.226 218.98 231.121 219.287 230.913C219.605 230.694 219.881 230.392 220.12 230.017H223.683C223.542 230.559 223.329 231.08 223.037 231.58C222.745 232.08 222.36 232.528 221.891 232.913C221.417 233.304 220.85 233.616 220.183 233.851C219.516 234.069 218.735 234.184 217.85 234.184ZM220.475 226.226C220.402 225.949 220.298 225.684 220.162 225.434C220.037 225.184 219.86 224.955 219.641 224.746C219.433 224.538 219.173 224.382 218.87 224.267C218.579 224.142 218.235 224.08 217.85 224.08C217.068 224.08 216.459 224.288 216.016 224.705C215.584 225.111 215.287 225.616 215.12 226.226H220.475Z" fill="#EBE3D2"/>
<path d="M226.199 221.33H229.053L229.407 222.767H229.532C229.891 222.225 230.324 221.85 230.824 221.642C231.334 221.434 231.891 221.33 232.49 221.33H234.053V224.559H232.74C231.725 224.559 230.933 224.84 230.365 225.392C229.808 225.949 229.532 226.699 229.532 227.642V233.955H226.199V221.33Z" fill="#EBE3D2"/>
<path d="M239.428 233.955L234.282 221.33H237.969L241.073 229.559H241.178L244.178 221.33H247.865L240.948 238.725H237.511L239.428 233.955Z" fill="#EBE3D2"/>
<mask id="mask2_296_45" style="mask-type:luminance" maskUnits="userSpaceOnUse" x="53" y="65" width="164" height="119">
<path d="M53.7085 65.3333H216.333V183.339H53.7085V65.3333Z" fill="white"/>
</mask>
<g mask="url(#mask2_296_45)">
<path d="M122.568 127.677V159.646L134.5 147.734L146.5 159.708V127.677H156.089C156.849 127.677 157.453 128.276 157.453 129.036V172.125C157.453 172.88 156.849 173.479 156.089 173.479H112.948C112.188 173.479 111.583 172.88 111.583 172.125V129.036C111.583 128.276 112.188 127.677 112.948 127.677H122.568ZM143.526 127.677H125.542V152.443L134.469 143.536L143.49 152.536V127.677H143.526ZM114.339 93.6875H154.729C155.87 93.6875 156.693 92.5834 156.344 91.5104L155.427 88.3177C154.885 86.5156 153.557 81.9375 153.021 80.1979L152.167 77.2917C151.625 75.2396 148.969 74.1042 146.594 74.3229C146.026 90.2448 123.042 90.2448 122.474 74.3229C120.13 74.1042 117.443 75.2396 116.901 77.2917C116.49 78.6823 115.667 81.5261 115.255 82.9167L113.672 88.3177L112.724 91.5104C112.406 92.5834 113.198 93.6875 114.339 93.6875ZM116.172 96.8177L116.901 99.2813C117.406 101.016 119.339 102.25 121.557 102.25H147.479C149.698 102.25 151.625 101.016 152.167 99.2813L152.896 96.8177L152.958 96.6563H116.141L116.172 96.8177ZM112.63 81.2761L84.6458 90.2448V96.8177H113.073L112.948 96.4063C110.573 95.7396 109.115 92.9948 109.844 90.6563L112.63 81.2761ZM156.12 96.4063L155.995 96.8177H184.359V90.2448L156.469 81.3073L158.276 87.4636L159.193 90.6563C159.984 92.9948 158.526 95.7396 156.12 96.4063ZM81.6719 88.6667C81.6719 87.2136 80.4688 86.0104 79.0104 86.0104H73.6302C72.1719 86.0104 70.974 87.2136 70.974 88.6667V96.8177H81.6406V88.6667H81.6719ZM195.406 86.0104H190.026C188.568 86.0104 187.365 87.2136 187.365 88.6667V96.8177H198.031V88.6667C198.031 87.2136 196.859 86.0104 195.406 86.0104ZM98.9219 73.6927C98.7344 69.1771 53.8438 69.1771 53.7188 73.6927C53.9115 78.2396 98.7656 78.2084 98.9219 73.6927ZM192.714 70.2188C162.771 70.375 162.771 76.9792 192.714 77.1354C222.63 77.0104 222.63 70.4063 192.714 70.2188ZM74.6458 83.4531H77.9688V79.7604H74.6458V83.4531ZM191.036 79.724V83.4219H194.359V79.724H191.036ZM79.0729 105.219H90.849C94.3646 105.219 97.3698 102.943 98.4792 99.7865H71.4167C72.5208 102.943 75.5312 105.219 79.0729 105.219ZM178.25 105.219H190.026C193.568 105.219 196.578 102.943 197.651 99.7865H170.62C171.698 102.943 174.703 105.219 178.25 105.219ZM125.479 74.3229C125.859 62.3854 143.24 62.3854 143.62 74.3229C143.24 86.2656 125.828 86.2656 125.479 74.3229ZM132.13 74.3229C132.161 77.5156 136.938 77.5156 136.969 74.3229C136.906 71.1667 132.161 71.1667 132.13 74.3229ZM87.4635 108.219H79.0729C78.9167 108.219 78.7604 108.219 78.599 108.188L83.349 140.094L97.5938 148.75V141.672C94.9635 139.714 92.3385 137.755 89.7083 135.797C88.9531 126.604 88.224 117.411 87.4635 108.219ZM112.88 178.031H108.609C107.313 178.031 106.266 176.828 106.266 175.344V124.615C106.266 123.13 107.313 121.927 108.609 121.927H112.88C114.182 121.927 115.224 120.729 115.224 119.245V118.266C115.224 116.781 114.182 115.578 112.88 115.578H102.911C101.615 115.578 100.568 116.781 100.568 118.266V180.651C100.568 182.135 101.615 183.339 102.911 183.339H112.88C115.984 183.307 115.984 178.063 112.88 178.031ZM181.604 108.219C180.844 117.411 180.115 126.604 179.391 135.797C176.76 137.755 174.135 139.714 171.505 141.672V148.75L185.75 140.094L190.5 108.188C190.339 108.219 190.182 108.219 190.026 108.219H181.604ZM166.156 115.609H156.188C154.885 115.609 153.844 116.813 153.844 118.297C153.651 120.063 154.349 121.896 156.188 121.927H160.458C161.755 121.927 162.802 123.13 162.802 124.615V175.313C162.802 176.797 161.755 178 160.458 178H156.188C153.083 178.031 153.083 183.307 156.188 183.339H166.156C167.453 183.339 168.5 182.135 168.5 180.651V118.297C168.5 116.813 167.453 115.609 166.156 115.609Z" fill="#EBE3D2"/>
</g>
</svg>
