<svg width="271" height="271" viewBox="0 0 271 271" fill="none" xmlns="http://www.w3.org/2000/svg">
<mask id="mask0_296_46" style="mask-type:luminance" maskUnits="userSpaceOnUse" x="0" y="0" width="271" height="271">
<path d="M0.385254 0.401001H270.849V270.87H0.385254V0.401001Z" fill="white"/>
</mask>
<g mask="url(#mask0_296_46)">
<mask id="mask1_296_46" style="mask-type:luminance" maskUnits="userSpaceOnUse" x="0" y="0" width="271" height="271">
<path d="M40.3696 0.401001H230.864C241.474 0.401001 251.64 4.61454 259.141 12.1145C266.641 19.6145 270.849 29.7812 270.849 40.3854V230.885C270.849 241.49 266.641 251.656 259.141 259.156C251.64 266.656 241.474 270.87 230.864 270.87H40.3696C29.7655 270.87 19.5936 266.656 12.0988 259.156C4.5988 251.656 0.385254 241.49 0.385254 230.885V40.3854C0.385254 29.7812 4.5988 19.6145 12.0988 12.1145C19.5936 4.61454 29.7655 0.401001 40.3696 0.401001Z" fill="white"/>
</mask>
<g mask="url(#mask1_296_46)">
<path d="M0.385254 0.401001H270.849V270.87H0.385254V0.401001Z" fill="#112B3C"/>
</g>
</g>
<path d="M148.781 108.906L153.25 107.286C152.359 112.313 150.802 118.958 148.203 124.62H148.729C151.344 118.854 152.896 112.125 153.771 107.094L155.583 106.438L159.698 121.703L161.312 121.266L157.161 105.859L174.453 99.5781L173.88 97.9948L156.724 104.229L153.922 93.8229L152.302 94.2656L153.5 98.7136C152.734 100.391 151.312 103.359 149.354 106.911L141.932 109.609L142.5 111.193L148.083 109.161C145.922 112.901 143.26 117.068 140.203 120.974L140.438 121.453C143.703 117.302 146.531 112.844 148.781 108.906ZM154.089 105.188C154.255 104.125 154.385 103.172 154.49 102.37L155.146 104.807L154.089 105.188ZM153.698 99.4427L154.151 101.125C154.036 102.146 153.849 103.615 153.568 105.38L150.042 106.661C151.682 103.651 152.927 101.094 153.698 99.4427Z" fill="#EBE3D2"/>
<path d="M103.776 115.229L113.974 110.302L119.193 121.198L116.896 127.786H118.432L120.078 123.052L121.016 125.005C121.182 125.349 121.485 125.62 121.839 125.75L127.641 127.786H141.542L135.172 114.49C135.005 114.146 134.703 113.875 134.344 113.745L115.125 106.984C114.755 106.854 114.36 106.885 114.021 107.047L98.0835 114.755L99.3387 117.375L101.927 116.125L97.8647 127.786H99.4012L103.776 115.229Z" fill="#EBE3D2"/>
<path d="M105.135 122.609L106.156 119.688L109.062 120.714L108.047 123.635L105.135 122.609Z" fill="#EBE3D2"/>
<path d="M103.812 126.411L104.833 123.49L107.74 124.51L106.719 127.437L103.812 126.411Z" fill="#EBE3D2"/>
<path d="M108.615 124.823L107.599 127.745L107.724 127.786H110.844L111.526 125.844L108.615 124.823Z" fill="#EBE3D2"/>
<path d="M108.922 123.943L109.938 121.021L112.849 122.042L111.828 124.964L108.922 123.943Z" fill="#EBE3D2"/>
<mask id="mask2_296_46" style="mask-type:luminance" maskUnits="userSpaceOnUse" x="72" y="169" width="127" height="23">
<path d="M72.8335 169.333H198.125V191.115H72.8335V169.333Z" fill="white"/>
</mask>
<g mask="url(#mask2_296_46)">
<path d="M193.683 183.661L182.688 181.198H146.813L129.068 178.427L109.203 175.349L82.7816 174.891L72.1722 171.193L57.8962 173.042L46.9066 170.115L35.9118 170.271L23.3753 175.891L17.0107 183.661L9.65658 188.432L8.27637 192.125H198.047L193.683 183.661Z" fill="#EBE3D2"/>
</g>
<path d="M91.0156 126H94.8594V126.641H91.0156V126Z" fill="#EBE3D2"/>
<path d="M76.9844 126H79.0885V126.641H76.9844V126Z" fill="#EBE3D2"/>
<path d="M156.995 126H161.635V126.641H156.995V126Z" fill="#EBE3D2"/>
<path d="M166.604 126H171.239V126.641H166.604V126Z" fill="#EBE3D2"/>
<path d="M81.9478 126H85.7863V126.641H81.9478V126Z" fill="#EBE3D2"/>
<path d="M161 131.953H176.927V131.312H161V131.953Z" fill="#EBE3D2"/>
<path d="M139.51 130.844H155.437V131.484H139.51V130.844Z" fill="#EBE3D2"/>
<path d="M132.708 134.016H148.63V134.656H132.708V134.016Z" fill="#EBE3D2"/>
<path d="M152.708 134.016H166.651V134.656H152.708V134.016Z" fill="#EBE3D2"/>
<path d="M112.818 134.656H128.74V134.016H107.396V134.656H112.818Z" fill="#EBE3D2"/>
<path d="M104.625 134.656V134.016H99.7188L100.76 134.656H104.625Z" fill="#EBE3D2"/>
<path d="M123.156 130.87H127.792V131.51H123.156V130.87Z" fill="#EBE3D2"/>
<path d="M130.266 130.87H134.906V131.51H130.266V130.87Z" fill="#EBE3D2"/>
<path d="M106.224 131.51V131.484H108.271V131.51H112.11V131.484H119.568V130.844H103.641V130.87H102.38V131.51H106.224Z" fill="#EBE3D2"/>
<path d="M94.8387 131.021L95.6304 131.51H99.4793V130.87H94.5679C94.6616 130.922 94.7502 130.969 94.8387 131.021Z" fill="#EBE3D2"/>
<path d="M168.219 129.135H180.583V128.495H168.219V129.135Z" fill="#EBE3D2"/>
<path d="M152.234 128.495H164.604V129.135H152.234V128.495Z" fill="#EBE3D2"/>
<path d="M84.5679 128.495H94.8127V129.135H84.5679V128.495Z" fill="#EBE3D2"/>
<mask id="mask3_296_46" style="mask-type:luminance" maskUnits="userSpaceOnUse" x="72" y="129" width="37" height="15">
<path d="M72.8335 129.333H109V144H72.8335V129.333Z" fill="white"/>
</mask>
<g mask="url(#mask3_296_46)">
<path d="M75.7293 140.161C76.8179 138.12 79.3543 137.349 81.3908 138.443C83.1877 139.411 83.9897 141.521 83.4012 143.406H98.7918L96.2033 141.943L96.4845 141.438L99.2137 142.979L98.9741 143.406H101.953L96.3022 140.146L97.9377 135.635L103.208 138.87C104.141 139.443 104.912 140.234 105.453 141.182L106.719 143.406H107.724L106.208 140.75C105.594 139.672 104.719 138.771 103.667 138.125L94.0887 132.25C92.9168 131.526 91.5731 131.13 90.1929 131.104L83.4637 131.927C83.12 131.969 82.771 131.917 82.4585 131.776L77.3231 129.958C76.5314 129.646 75.6252 129.792 74.9793 130.349L74.1147 131.083C73.7502 131.396 73.495 131.807 73.3752 132.266L72.4429 135.891C71.547 136.042 70.9689 137.5 71.8804 138.063L71.87 138.104L74.797 139.682L74.5575 140.13L75.4793 140.625L75.7293 140.161ZM87.12 136.818L84.3908 135.271L84.6772 134.766L87.4012 136.313L87.12 136.818ZM84.672 132.661L90.2345 131.984C91.297 132.01 92.3439 132.292 93.2814 132.792C93.396 132.859 93.5158 132.927 93.6304 132.995L97.0575 135.094L94.9533 139.37L84.5314 133.354C84.2241 133.177 84.3179 132.708 84.672 132.661Z" fill="#EBE3D2"/>
</g>
<path d="M77.3279 141.021C77.3591 140.964 77.3956 140.901 77.4424 140.833C78.1195 139.802 79.4476 139.469 80.531 140.052C81.6143 140.635 82.0726 141.932 81.5935 143.068C81.5622 143.141 81.531 143.208 81.4997 143.271C81.4737 143.318 81.4424 143.359 81.4164 143.406H82.8331C83.4476 141.719 82.7549 139.792 81.1351 138.917C79.4581 138.016 77.4008 138.563 76.3747 140.125C76.3122 140.219 76.2549 140.318 76.2029 140.417C75.6924 141.375 75.6508 142.458 75.9945 143.406H77.4112C76.9737 142.708 76.9112 141.802 77.3279 141.021Z" fill="#EBE3D2"/>
<path d="M78.9009 143.109C79.4269 143.396 80.0884 143.193 80.3696 142.661C80.3853 142.635 80.4009 142.604 80.4165 142.568C80.6353 142.047 80.4269 141.453 79.9269 141.182C79.4269 140.917 78.8175 141.068 78.505 141.542C78.4842 141.573 78.4686 141.604 78.453 141.63C78.1717 142.161 78.3696 142.823 78.9009 143.109Z" fill="#EBE3D2"/>
<path d="M133.578 147.156H143.651V147.797H133.578V147.156Z" fill="#EBE3D2"/>
<path d="M106.24 146.682H116.531V147.323H106.24V146.682Z" fill="#EBE3D2"/>
<path d="M89.8804 146.714H94.521V147.354H89.8804V146.714Z" fill="#EBE3D2"/>
<path d="M96.9946 146.714H101.63V147.354H96.9946V146.714Z" fill="#EBE3D2"/>
<mask id="mask4_296_46" style="mask-type:luminance" maskUnits="userSpaceOnUse" x="72" y="146" width="15" height="2">
<path d="M72.8335 146.667H86.3335V148H72.8335V146.667Z" fill="white"/>
</mask>
<g mask="url(#mask4_296_46)">
<path d="M86.2972 147.323V146.682H70.3701V147.323H86.2972Z" fill="#EBE3D2"/>
</g>
<path d="M168.568 140.406H184.49V139.766H168.568V140.406Z" fill="#EBE3D2"/>
<path d="M147.078 139.297H163V139.938H147.078V139.297Z" fill="#EBE3D2"/>
<path d="M130.719 139.323H135.359V139.964H130.719V139.323Z" fill="#EBE3D2"/>
<path d="M137.833 139.323H142.469V139.964H137.833V139.323Z" fill="#EBE3D2"/>
<path d="M111.208 139.297H127.13V139.938H111.208V139.297Z" fill="#EBE3D2"/>
<path d="M172.661 159.844L175.312 157.604L173.948 155.969L169.562 159.667L169.354 159.844H172.661Z" fill="#EBE3D2"/>
<path d="M141.875 154.995C139.948 153.552 137.255 153.875 135.709 155.672L134.115 154.458C134.089 154.438 134.057 154.422 134.021 154.411H134.016C133.995 154.406 133.979 154.406 133.959 154.406C133.938 154.401 133.917 154.401 133.896 154.401C133.891 154.401 133.891 154.401 133.886 154.401L124.766 156.047L125.516 153.719C127.25 154.161 129.156 153.547 130.292 152.021C131.792 150 131.375 147.125 129.365 145.615C127.349 144.104 124.49 144.526 122.99 146.547C121.485 148.568 121.901 151.443 123.917 152.953C124.245 153.198 124.594 153.391 124.959 153.531L123.261 158.802L122.344 158.573C122.328 158.38 122.235 158.193 122.068 158.068C121.766 157.839 121.334 157.901 121.104 158.208C120.875 158.516 120.938 158.948 121.245 159.177C121.516 159.38 121.886 159.354 122.125 159.13L123.386 159.443C123.531 159.479 123.688 159.396 123.735 159.25L124.136 158.005L129.38 159.844H131.167L124.318 157.443L124.563 156.688L133.516 155.068L132.089 159.844H132.703L134.099 155.182L135.354 156.141C134.615 157.266 134.432 158.615 134.755 159.844H134.75H136.589L139.245 158.943C139.349 158.906 139.422 158.818 139.443 158.708C139.459 158.604 139.417 158.495 139.328 158.427L136.334 156.146C137.62 154.693 139.828 154.438 141.406 155.625C142.735 156.62 143.219 158.339 142.729 159.844H143.547C144.011 158.089 143.412 156.146 141.875 154.995ZM124.386 152.323C122.719 151.073 122.375 148.693 123.615 147.016C124.86 145.344 127.229 144.995 128.896 146.245C130.563 147.495 130.906 149.875 129.662 151.552C128.735 152.802 127.182 153.307 125.761 152.969L126.922 149.375C126.959 149.25 126.912 149.12 126.818 149.047C126.792 149.026 126.761 149.01 126.729 149.005C126.578 148.953 126.412 149.036 126.36 149.193L125.203 152.781C124.917 152.667 124.641 152.516 124.386 152.323ZM135.495 159.589C135.25 158.604 135.401 157.526 135.979 156.62L138.531 158.563L135.495 159.589Z" fill="#EBE3D2"/>
<path d="M168.438 155.818L167.537 155.099L165.599 157.552L157.177 159.349L162.495 150.094L156.422 146.573L148.802 159.844H160.386L164.474 158.969L163.787 159.844H165.25L166.24 158.594L169.563 157.885L171.333 157.505L171.094 156.375L169.563 156.703L167.365 157.172L168.438 155.818Z" fill="#EBE3D2"/>
<path d="M156.5 161.797V162.719H179.901V161.797H156.5Z" fill="#EBE3D2"/>
<path d="M132.469 161.839H139.286V162.755H132.469V161.839Z" fill="#EBE3D2"/>
<path d="M86.1875 161.839H93V162.755H86.1875V161.839Z" fill="#EBE3D2"/>
<path d="M142.922 161.839H149.734V162.755H142.922V161.839Z" fill="#EBE3D2"/>
<path d="M103.802 161.797H127.198V162.719H103.802V161.797Z" fill="#EBE3D2"/>
<mask id="mask5_296_46" style="mask-type:luminance" maskUnits="userSpaceOnUse" x="72" y="165" width="25" height="2">
<path d="M72.8335 165.333H97.0002V166.667H72.8335V165.333Z" fill="white"/>
</mask>
<g mask="url(#mask5_296_46)">
<path d="M96.12 165.609H68.2397V166.526H96.12V165.609Z" fill="#EBE3D2"/>
</g>
<path d="M116.635 165.568H124.75V166.49H116.635V165.568Z" fill="#EBE3D2"/>
<path d="M166.344 165.568H174.464V166.49H166.344V165.568Z" fill="#EBE3D2"/>
<path d="M104.182 165.568H112.302V166.49H104.182V165.568Z" fill="#EBE3D2"/>
<path d="M131.031 165.609H158.911V166.526H131.031V165.609Z" fill="#EBE3D2"/>
<mask id="mask6_296_46" style="mask-type:luminance" maskUnits="userSpaceOnUse" x="87" y="55" width="41" height="15">
<path d="M87.6665 55.1667H127.667V69.3334H87.6665V55.1667Z" fill="white"/>
</mask>
<g mask="url(#mask6_296_46)">
<path d="M121.318 56.1667C123.547 56.1667 126.963 56.0104 126.963 55.8177C126.963 55.7084 126.208 55.6094 123.979 55.6094C122.088 55.6094 119.745 55.6198 119.078 55.7396L119.062 55.5521C119.047 55.3334 118.911 55.1667 118.755 55.1667C118.599 55.1667 118.469 55.3334 118.453 55.5521L118.437 55.7604C118.177 55.6667 117.573 55.6094 116.198 55.6094C113.969 55.6094 110.552 55.7656 110.552 55.9584C110.552 56.0677 111.307 56.1667 113.536 56.1667C115.406 56.1667 117.713 56.1563 118.411 56.0417L118.328 57.0677H117.052C117.052 57.3229 117.073 57.5729 117.109 57.8125H110.974C110.76 57.4531 110.375 57.2136 109.932 57.2136H105.5C105.052 57.2136 104.667 57.4531 104.453 57.8125H98.3228C98.354 57.5729 98.3748 57.3229 98.3748 57.0677H97.0988L97.0155 56.0209C97.2863 56.1094 97.8905 56.1667 99.229 56.1667C101.463 56.1667 104.88 56.0104 104.88 55.8177C104.88 55.7084 104.125 55.6094 101.896 55.6094C99.9998 55.6094 97.6613 55.6198 96.9946 55.7396L96.979 55.5521C96.9582 55.3334 96.828 55.1667 96.6717 55.1667C96.5155 55.1667 96.3853 55.3334 96.3644 55.5521L96.3488 55.7604C96.0884 55.6667 95.4894 55.6094 94.1144 55.6094C91.88 55.6094 88.4634 55.7656 88.4634 55.9584C88.4634 56.0677 89.2186 56.1667 91.4478 56.1667C93.3228 56.1667 95.63 56.1563 96.328 56.0417L96.2446 57.0677H94.9686C94.9686 58.7344 95.729 60.0834 96.6717 60.0834C97.1144 60.0834 97.5103 59.7865 97.8123 59.3021L105.521 61.1459L104.224 61.7813C103.307 62.224 102.609 63.0417 102.307 64.0209L101.255 67.4375C101.203 67.6094 101.052 67.7188 100.875 67.7188H99.5832V68.7188H100.875C101.489 68.7188 102.021 68.3229 102.203 67.7344L103.255 64.3125C103.479 63.599 103.989 63.0052 104.656 62.6771L106.536 61.7656V61.9479C106.536 62.2865 106.807 62.5625 107.146 62.5625H107.515V62.9063H106.146C105.818 62.9063 105.557 63.1719 105.557 63.4948V65.0052C105.557 65.3334 105.818 65.599 106.146 65.599H107.515V66.0261H108.026V65.599H109.396C109.724 65.599 109.984 65.3334 109.984 65.0052V63.4948C109.984 63.1719 109.724 62.9063 109.396 62.9063H108.026V62.5625H108.281C108.62 62.5625 108.896 62.2865 108.896 61.9479V61.7656L110.771 62.6771C111.443 63.0052 111.953 63.599 112.172 64.3125L113.224 67.7344C113.406 68.3229 113.943 68.7188 114.557 68.7188H115.849V67.7188H114.557C114.38 67.7188 114.224 67.6094 114.172 67.4375L113.12 64.0209C112.823 63.0417 112.125 62.224 111.208 61.7813L109.906 61.1459L117.614 59.3021C117.917 59.7865 118.318 60.0834 118.755 60.0834C119.698 60.0834 120.463 58.7344 120.463 57.0677H119.187L119.099 56.0209C119.37 56.1094 119.974 56.1667 121.318 56.1667ZM108.568 64.25C108.568 64.6927 108.208 65.0521 107.771 65.0521C107.333 65.0521 106.974 64.6927 106.974 64.25C106.974 63.8125 107.333 63.4531 107.771 63.4531C108.208 63.4531 108.568 63.8125 108.568 64.25Z" fill="#EBE3D2"/>
</g>
<path d="M108.198 64.25C108.198 64.3698 108.156 64.4688 108.073 64.5521C107.99 64.6354 107.891 64.6771 107.771 64.6771C107.651 64.6771 107.552 64.6354 107.469 64.5521C107.385 64.4688 107.344 64.3698 107.344 64.25C107.344 64.1354 107.385 64.0313 107.469 63.9479C107.552 63.8646 107.651 63.8229 107.771 63.8229C107.891 63.8229 107.99 63.8646 108.073 63.9479C108.156 64.0313 108.198 64.1354 108.198 64.25Z" fill="#EBE3D2"/>
<path d="M86.625 62.4219H97.2396V62.7917H86.625V62.4219Z" fill="#EBE3D2"/>
<path d="M84.4165 64.6458H95.0259V65.0208H84.4165V64.6458Z" fill="#EBE3D2"/>
<path d="M77.8125 63.5312H93.0365V63.9062H77.8125V63.5312Z" fill="#EBE3D2"/>
<path d="M145.896 126H149.74V126.641H145.896V126Z" fill="#EBE3D2"/>
<path d="M52.4271 234.184C51.5104 234.184 50.6562 234.069 49.8646 233.851C49.0729 233.632 48.375 233.304 47.7812 232.871C47.1823 232.444 46.6979 231.903 46.3229 231.246C45.9583 230.58 45.7396 229.819 45.6562 228.955H49.2188C49.3438 229.621 49.6823 230.153 50.2396 230.538C50.7917 230.913 51.5208 231.101 52.4271 231.101C53.5521 231.101 54.349 230.913 54.8229 230.538C55.2917 230.163 55.5312 229.679 55.5312 229.08C55.5312 228.663 55.3906 228.34 55.1146 228.101C54.849 227.851 54.5 227.653 54.0729 227.496C53.6406 227.345 53.1458 227.22 52.5938 227.121C52.0365 227.012 51.4688 226.892 50.8854 226.767C50.3021 226.632 49.7292 226.455 49.1771 226.246C48.6198 226.038 48.125 225.757 47.6979 225.392C47.2656 225.033 46.9115 224.574 46.6354 224.017C46.3698 223.465 46.2396 222.767 46.2396 221.934C46.2396 221.116 46.3958 220.408 46.7188 219.809C47.0365 219.215 47.474 218.705 48.0312 218.288C48.599 217.871 49.2604 217.559 50.0104 217.351C50.7708 217.142 51.5781 217.038 52.4271 217.038C53.4375 217.038 54.3281 217.163 55.0938 217.413C55.8542 217.663 56.5 218.012 57.0312 218.455C57.5573 218.903 57.9688 219.423 58.2604 220.017C58.5625 220.616 58.7656 221.257 58.8646 221.934H55.2812C55.1562 221.392 54.8646 220.965 54.4062 220.642C53.9479 220.309 53.3281 220.142 52.5521 220.142C51.6458 220.142 50.9792 220.324 50.5521 220.684C50.1354 221.033 49.9271 221.449 49.9271 221.934C49.9271 222.366 50.0573 222.715 50.3229 222.976C50.599 223.226 50.9531 223.434 51.3854 223.601C51.8125 223.767 52.3073 223.913 52.8646 224.038C53.4167 224.163 53.9896 224.298 54.5729 224.434C55.1562 224.574 55.724 224.746 56.2812 224.955C56.849 225.163 57.3438 225.444 57.7604 225.788C58.1875 226.137 58.5365 226.574 58.8021 227.101C59.0781 227.632 59.2188 228.288 59.2188 229.08C59.2188 229.788 59.0729 230.455 58.7812 231.08C58.4896 231.694 58.0573 232.236 57.4896 232.705C56.9167 233.179 56.2031 233.548 55.3438 233.809C54.4948 234.059 53.5208 234.184 52.4271 234.184Z" fill="#EBE3D2"/>
<path d="M66.958 234.184C66.0101 234.184 65.1559 234.038 64.3955 233.746C63.6299 233.455 62.9788 233.033 62.4372 232.476C61.8955 231.923 61.4788 231.241 61.1872 230.434C60.9059 229.632 60.7705 228.699 60.7705 227.642C60.7705 226.601 60.9059 225.679 61.1872 224.871C61.4788 224.054 61.8955 223.366 62.4372 222.809C62.9788 222.257 63.6299 221.83 64.3955 221.538C65.1559 221.246 66.0101 221.101 66.958 221.101C67.8747 221.101 68.708 221.257 69.458 221.559C70.208 221.866 70.8434 222.304 71.3747 222.871C71.9163 223.444 72.3226 224.111 72.6038 224.871C72.8955 225.637 73.0413 226.486 73.0413 227.413C73.0413 227.58 73.0257 227.746 72.9997 227.913C72.984 228.069 72.9684 228.205 72.958 228.33C72.9424 228.486 72.9268 228.616 72.9163 228.726H64.2288C64.3538 229.434 64.6299 230.033 65.0622 230.517C65.4893 230.991 66.1247 231.226 66.958 231.226C67.609 231.226 68.0882 231.121 68.3955 230.913C68.7132 230.694 68.9893 230.392 69.2288 230.017H72.7913C72.6507 230.559 72.4372 231.08 72.1455 231.58C71.8538 232.08 71.4684 232.528 70.9997 232.913C70.5257 233.304 69.958 233.616 69.2913 233.851C68.6247 234.069 67.8434 234.184 66.958 234.184ZM69.583 226.226C69.5101 225.949 69.4059 225.684 69.2705 225.434C69.1455 225.184 68.9684 224.955 68.7497 224.746C68.5413 224.538 68.2809 224.382 67.9788 224.267C67.6872 224.142 67.3434 224.08 66.958 224.08C66.1768 224.08 65.5674 224.288 65.1247 224.705C64.6924 225.111 64.3955 225.616 64.2288 226.226H69.583Z" fill="#EBE3D2"/>
<path d="M78.9948 234.184C78.3125 234.184 77.6927 234.085 77.1406 233.892C76.599 233.699 76.1302 233.429 75.7448 233.08C75.3698 232.736 75.0781 232.324 74.8698 231.851C74.6719 231.366 74.5781 230.84 74.5781 230.267C74.5781 229.699 74.6823 229.179 74.8906 228.705C75.099 228.22 75.401 227.804 75.8073 227.455C76.224 227.111 76.7292 226.84 77.3281 226.642C77.9375 226.434 78.651 226.33 79.474 226.33H82.4323V225.746C82.4323 225.137 82.2448 224.684 81.8698 224.392C81.4948 224.101 80.974 223.955 80.3073 223.955C79.8177 223.955 79.4115 224.059 79.0781 224.267C78.7448 224.476 78.5156 224.726 78.3906 225.017H75.0573C75.1667 224.517 75.3594 224.033 75.6406 223.559C75.9167 223.09 76.2708 222.673 76.7031 222.309C77.1458 221.949 77.6719 221.658 78.2865 221.434C78.8958 221.215 79.6042 221.101 80.4115 221.101C82.0885 221.101 83.401 221.507 84.349 222.309C85.3073 223.116 85.7865 224.298 85.7865 225.851V233.955H82.9115L82.5573 232.517H82.4323C82.3073 232.699 82.1458 232.892 81.9531 233.101C81.7708 233.298 81.5365 233.476 81.2448 233.642C80.9635 233.809 80.6406 233.944 80.2656 234.038C79.8906 234.132 79.4635 234.184 78.9948 234.184ZM79.8281 231.455C80.6042 231.455 81.2292 231.241 81.7031 230.809C82.1875 230.366 82.4323 229.788 82.4323 229.08V228.726H79.5781C78.9792 228.726 78.5469 228.851 78.2865 229.101C78.0365 229.351 77.9115 229.658 77.9115 230.017C77.9115 230.434 78.0625 230.783 78.3698 231.059C78.6719 231.324 79.1615 231.455 79.8281 231.455Z" fill="#EBE3D2"/>
<path d="M88.5254 221.33H91.3796L91.7337 222.767H91.8587C92.2181 222.225 92.6504 221.85 93.1504 221.642C93.6608 221.434 94.2181 221.33 94.8171 221.33H96.3796V224.559H95.0671C94.0514 224.559 93.2598 224.84 92.6921 225.392C92.1348 225.949 91.8587 226.699 91.8587 227.642V233.955H88.5254V221.33Z" fill="#EBE3D2"/>
<path d="M103.754 234.184C102.806 234.184 101.952 234.038 101.192 233.746C100.426 233.455 99.7752 233.033 99.2336 232.476C98.6919 231.923 98.2752 231.241 97.9836 230.434C97.7023 229.632 97.5669 228.699 97.5669 227.642C97.5669 226.601 97.7023 225.679 97.9836 224.871C98.2752 224.054 98.6919 223.366 99.2336 222.809C99.7752 222.257 100.426 221.83 101.192 221.538C101.952 221.246 102.806 221.101 103.754 221.101C104.64 221.101 105.421 221.226 106.088 221.476C106.754 221.715 107.322 222.048 107.796 222.476C108.265 222.892 108.65 223.382 108.942 223.934C109.234 224.476 109.447 225.038 109.588 225.621H106.254C106.015 225.153 105.702 224.778 105.317 224.496C104.942 224.22 104.421 224.08 103.754 224.08C102.921 224.08 102.234 224.382 101.692 224.976C101.161 225.559 100.9 226.449 100.9 227.642C100.9 228.84 101.161 229.736 101.692 230.33C102.234 230.929 102.921 231.226 103.754 231.226C104.421 231.226 104.942 231.09 105.317 230.809C105.702 230.533 106.015 230.153 106.254 229.663H109.588C109.447 230.278 109.234 230.851 108.942 231.392C108.65 231.923 108.265 232.403 107.796 232.83C107.322 233.246 106.754 233.58 106.088 233.83C105.421 234.064 104.64 234.184 103.754 234.184Z" fill="#EBE3D2"/>
<path d="M111.851 217.288H115.184V222.642H115.309C115.726 222.173 116.184 221.798 116.684 221.517C117.194 221.241 117.809 221.101 118.517 221.101C119.194 221.101 119.819 221.22 120.392 221.455C120.976 221.679 121.465 222.012 121.871 222.455C122.272 222.903 122.585 223.434 122.809 224.059C123.043 224.684 123.163 225.408 123.163 226.226V233.955H119.83V226.684C119.83 225.851 119.627 225.215 119.226 224.767C118.835 224.309 118.288 224.08 117.58 224.08C116.856 224.08 116.272 224.324 115.83 224.809C115.397 225.283 115.184 225.908 115.184 226.684V233.955H111.851V217.288Z" fill="#EBE3D2"/>
<path d="M135.791 234.184C134.942 234.184 134.197 234.069 133.562 233.851C132.921 233.632 132.374 233.319 131.916 232.913C131.468 232.512 131.129 232.033 130.895 231.476C130.671 230.923 130.562 230.319 130.562 229.663C130.562 228.887 130.739 228.158 131.103 227.476C131.463 226.798 132.03 226.22 132.812 225.746L133.77 225.142L133.062 224.434C132.645 224.017 132.296 223.538 132.02 222.996C131.754 222.444 131.624 221.809 131.624 221.101C131.624 220.559 131.733 220.048 131.957 219.559C132.192 219.074 132.52 218.642 132.937 218.267C133.353 217.892 133.853 217.595 134.437 217.371C135.02 217.153 135.671 217.038 136.395 217.038C137.947 217.038 139.129 217.423 139.937 218.184C140.739 218.934 141.145 219.908 141.145 221.101C141.145 221.767 140.999 222.413 140.707 223.038C140.426 223.653 139.9 224.194 139.124 224.663L138.166 225.267L140.916 227.996L142.582 226.33H146.624L142.937 230.017L146.874 233.955H142.707L140.916 232.163C140.634 232.371 140.332 232.595 139.999 232.83C139.666 233.069 139.291 233.288 138.874 233.496C138.468 233.694 138.009 233.851 137.499 233.976C136.983 234.111 136.416 234.184 135.791 234.184ZM136.02 231.226C136.562 231.226 137.062 231.121 137.52 230.913C137.989 230.694 138.405 230.392 138.77 230.017L135.791 227.059L135.082 227.517C134.358 228.007 133.999 228.642 133.999 229.434C133.999 229.976 134.166 230.413 134.499 230.746C134.843 231.069 135.353 231.226 136.02 231.226ZM136.978 222.767C137.213 222.59 137.426 222.392 137.624 222.184C137.832 221.976 137.937 221.694 137.937 221.33C137.937 220.913 137.796 220.574 137.52 220.309C137.239 220.048 136.864 219.913 136.395 219.913C135.905 219.913 135.525 220.054 135.249 220.33C134.968 220.611 134.832 220.986 134.832 221.455C134.832 221.762 134.905 222.017 135.062 222.226C135.228 222.423 135.426 222.642 135.666 222.892L136.145 223.351L136.978 222.767Z" fill="#EBE3D2"/>
<path d="M152.82 217.288H159.966C160.784 217.288 161.539 217.423 162.237 217.684C162.93 217.949 163.518 218.319 164.008 218.788C164.508 219.262 164.888 219.84 165.154 220.517C165.43 221.184 165.57 221.934 165.57 222.767C165.57 223.809 165.383 224.673 165.008 225.351C164.643 226.017 164.247 226.554 163.82 226.955C163.32 227.413 162.747 227.762 162.112 227.996L166.154 233.955H162.112L158.299 228.246H156.383V233.955H152.82V217.288ZM159.716 225.017C160.383 225.017 160.924 224.824 161.341 224.434C161.768 224.033 161.987 223.476 161.987 222.767C161.987 222.048 161.768 221.491 161.341 221.101C160.924 220.699 160.383 220.496 159.716 220.496H156.383V225.017H159.716Z" fill="#EBE3D2"/>
<path d="M173.774 234.184C172.826 234.184 171.972 234.038 171.212 233.746C170.446 233.455 169.795 233.033 169.254 232.476C168.712 231.923 168.295 231.241 168.004 230.434C167.722 229.632 167.587 228.699 167.587 227.642C167.587 226.601 167.722 225.679 168.004 224.871C168.295 224.054 168.712 223.366 169.254 222.809C169.795 222.257 170.446 221.83 171.212 221.538C171.972 221.246 172.826 221.101 173.774 221.101C174.691 221.101 175.524 221.257 176.274 221.559C177.024 221.866 177.66 222.304 178.191 222.871C178.733 223.444 179.139 224.111 179.42 224.871C179.712 225.637 179.858 226.486 179.858 227.413C179.858 227.58 179.842 227.746 179.816 227.913C179.8 228.069 179.785 228.205 179.774 228.33C179.759 228.486 179.743 228.616 179.733 228.726H171.045C171.17 229.434 171.446 230.033 171.879 230.517C172.306 230.991 172.941 231.226 173.774 231.226C174.425 231.226 174.905 231.121 175.212 230.913C175.53 230.694 175.806 230.392 176.045 230.017H179.608C179.467 230.559 179.254 231.08 178.962 231.58C178.67 232.08 178.285 232.528 177.816 232.913C177.342 233.304 176.774 233.616 176.108 233.851C175.441 234.069 174.66 234.184 173.774 234.184ZM176.399 226.226C176.326 225.949 176.222 225.684 176.087 225.434C175.962 225.184 175.785 224.955 175.566 224.746C175.358 224.538 175.097 224.382 174.795 224.267C174.504 224.142 174.16 224.08 173.774 224.08C172.993 224.08 172.384 224.288 171.941 224.705C171.509 225.111 171.212 225.616 171.045 226.226H176.399Z" fill="#EBE3D2"/>
<path d="M186.748 234.184C185.832 234.184 185.04 234.069 184.373 233.851C183.707 233.632 183.149 233.33 182.707 232.955C182.259 232.58 181.915 232.142 181.665 231.642C181.425 231.142 181.259 230.601 181.165 230.017H184.728C184.795 230.324 184.998 230.601 185.332 230.851C185.675 231.101 186.149 231.226 186.748 231.226C187.582 231.226 188.144 231.132 188.436 230.934C188.738 230.726 188.894 230.507 188.894 230.267C188.894 229.949 188.712 229.72 188.353 229.58C188.004 229.429 187.561 229.298 187.019 229.184C186.478 229.074 185.894 228.955 185.269 228.83C184.644 228.705 184.061 228.496 183.519 228.205C182.978 227.913 182.524 227.512 182.165 226.996C181.816 226.486 181.644 225.788 181.644 224.913C181.644 224.371 181.754 223.871 181.978 223.413C182.196 222.955 182.519 222.554 182.936 222.205C183.363 221.861 183.899 221.59 184.54 221.392C185.175 221.199 185.915 221.101 186.748 221.101C187.634 221.101 188.405 221.205 189.061 221.413C189.712 221.611 190.254 221.887 190.686 222.246C191.129 222.611 191.467 223.033 191.707 223.517C191.957 223.991 192.129 224.491 192.228 225.017H188.665C188.592 224.783 188.42 224.569 188.144 224.371C187.879 224.179 187.415 224.08 186.748 224.08C186.217 224.08 185.811 224.163 185.519 224.33C185.228 224.486 185.082 224.679 185.082 224.913C185.082 225.236 185.259 225.465 185.623 225.601C185.983 225.741 186.436 225.866 186.978 225.976C187.519 226.09 188.103 226.205 188.728 226.33C189.353 226.455 189.936 226.673 190.478 226.976C191.019 227.267 191.462 227.673 191.811 228.184C192.17 228.699 192.353 229.392 192.353 230.267C192.353 230.767 192.259 231.257 192.082 231.726C191.899 232.199 191.592 232.616 191.165 232.976C190.733 233.34 190.155 233.632 189.436 233.851C188.712 234.069 187.816 234.184 186.748 234.184Z" fill="#EBE3D2"/>
<path d="M199.972 234.184C199.024 234.184 198.17 234.038 197.41 233.746C196.644 233.455 195.993 233.033 195.451 232.476C194.91 231.923 194.493 231.241 194.201 230.434C193.92 229.632 193.785 228.699 193.785 227.642C193.785 226.601 193.92 225.679 194.201 224.871C194.493 224.054 194.91 223.366 195.451 222.809C195.993 222.257 196.644 221.83 197.41 221.538C198.17 221.246 199.024 221.101 199.972 221.101C200.858 221.101 201.639 221.226 202.306 221.476C202.972 221.715 203.54 222.048 204.014 222.476C204.483 222.892 204.868 223.382 205.16 223.934C205.451 224.476 205.665 225.038 205.806 225.621H202.472C202.233 225.153 201.92 224.778 201.535 224.496C201.16 224.22 200.639 224.08 199.972 224.08C199.139 224.08 198.451 224.382 197.91 224.976C197.378 225.559 197.118 226.449 197.118 227.642C197.118 228.84 197.378 229.736 197.91 230.33C198.451 230.929 199.139 231.226 199.972 231.226C200.639 231.226 201.16 231.09 201.535 230.809C201.92 230.533 202.233 230.153 202.472 229.663H205.806C205.665 230.278 205.451 230.851 205.16 231.392C204.868 231.923 204.483 232.403 204.014 232.83C203.54 233.246 202.972 233.58 202.306 233.83C201.639 234.064 200.858 234.184 199.972 234.184Z" fill="#EBE3D2"/>
<path d="M212.589 234.184C211.907 234.184 211.282 234.069 210.714 233.85C210.141 233.616 209.657 233.278 209.256 232.83C208.849 232.387 208.532 231.85 208.297 231.225C208.073 230.6 207.964 229.887 207.964 229.08V221.33H211.297V228.6C211.297 229.434 211.49 230.08 211.881 230.538C212.282 230.996 212.839 231.225 213.547 231.225C214.266 231.225 214.844 230.986 215.276 230.496C215.703 230.012 215.922 229.382 215.922 228.6V221.33H219.276V233.955H216.401L216.047 232.517H215.922C215.516 233.059 215.026 233.475 214.443 233.767C213.87 234.043 213.256 234.184 212.589 234.184Z" fill="#EBE3D2"/>
<path d="M227.718 234.184C226.77 234.184 225.916 234.038 225.155 233.746C224.39 233.455 223.739 233.033 223.197 232.476C222.655 231.923 222.239 231.241 221.947 230.434C221.666 229.632 221.53 228.699 221.53 227.642C221.53 226.601 221.666 225.679 221.947 224.871C222.239 224.054 222.655 223.366 223.197 222.809C223.739 222.257 224.39 221.83 225.155 221.538C225.916 221.246 226.77 221.101 227.718 221.101C228.634 221.101 229.468 221.257 230.218 221.559C230.968 221.866 231.603 222.304 232.134 222.871C232.676 223.444 233.082 224.111 233.364 224.871C233.655 225.637 233.801 226.486 233.801 227.413C233.801 227.58 233.785 227.746 233.759 227.913C233.744 228.069 233.728 228.205 233.718 228.33C233.702 228.486 233.687 228.616 233.676 228.726H224.989C225.114 229.434 225.39 230.033 225.822 230.517C226.249 230.991 226.884 231.226 227.718 231.226C228.369 231.226 228.848 231.121 229.155 230.913C229.473 230.694 229.749 230.392 229.989 230.017H233.551C233.41 230.559 233.197 231.08 232.905 231.58C232.614 232.08 232.228 232.528 231.759 232.913C231.285 233.304 230.718 233.616 230.051 233.851C229.384 234.069 228.603 234.184 227.718 234.184ZM230.343 226.226C230.27 225.949 230.166 225.684 230.03 225.434C229.905 225.184 229.728 224.955 229.509 224.746C229.301 224.538 229.041 224.382 228.739 224.267C228.447 224.142 228.103 224.08 227.718 224.08C226.937 224.08 226.327 224.288 225.884 224.705C225.452 225.111 225.155 225.616 224.989 226.226H230.343Z" fill="#EBE3D2"/>
</svg>
