<svg width="128" height="127" viewBox="0 0 128 127" fill="none" xmlns="http://www.w3.org/2000/svg">
<mask id="mask0_86_4327" style="mask-type:luminance" maskUnits="userSpaceOnUse" x="0" y="0" width="128" height="127">
<path d="M0 0H128V126.815H0V0Z" fill="white"/>
</mask>
<g mask="url(#mask0_86_4327)">
<path d="M123.731 92.9964H117.333V61.2927H123.731V92.9964ZM100.375 99.2406C99.1317 100.478 97.0924 100.478 95.8431 99.2406C95.0084 98.4136 93.6583 98.4136 92.8235 99.2406C92.409 99.6513 92.2017 100.195 92.2017 100.734C92.2017 101.278 92.409 101.816 92.8235 102.227C93.4342 102.832 93.7759 103.631 93.7759 104.475C93.7759 105.324 93.4342 106.117 92.8347 106.711C91.5798 107.949 89.535 107.938 88.2801 106.711C87.4398 105.89 86.0896 105.901 85.2661 106.728C84.8571 107.139 84.6499 107.677 84.6499 108.21C84.6499 108.759 84.8571 109.303 85.2829 109.714C85.8824 110.308 86.2185 111.096 86.2185 111.945C86.2185 112.789 85.8824 113.577 85.2661 114.188C84.6723 114.782 83.8824 115.115 83.0308 115.115H83.0252C82.1737 115.115 81.3726 114.782 80.7563 114.182C79.9328 113.355 78.5826 113.355 77.7479 114.182C77.3221 114.593 77.1261 115.137 77.1261 115.675C77.1261 116.219 77.3221 116.758 77.7479 117.168C78.3473 117.773 78.6891 118.573 78.6891 119.416C78.6891 120.26 78.3473 121.059 77.7591 121.653C76.493 122.891 74.4594 122.885 73.1485 121.603C73.0812 121.536 71.5798 120.177 69.042 118.012C70.3978 115.015 69.6134 111.357 66.8852 109.203C65.6134 108.193 64.1008 107.699 62.5826 107.633C62.8684 105.185 61.9216 102.632 59.8151 100.972C58.549 99.9788 57.0588 99.4848 55.5518 99.4126C55.6134 98.8576 55.6303 98.297 55.5686 97.7253C55.3389 95.755 54.3417 93.9955 52.7843 92.78C51.2325 91.5533 49.2717 90.9927 47.2885 91.2314C46.7059 91.298 46.1513 91.4423 45.6134 91.6366C45.1989 90.199 44.3585 88.8669 43.098 87.8679C39.8768 85.3536 35.1597 85.8864 32.5882 89.0834L29.7423 92.6578C24.2969 90.4433 19.3333 89.1667 14.93 88.8503V65.5221H36.2633C37.2829 65.5221 38.2801 65.289 39.1261 64.8505L53.1821 57.8404C54.8179 57.0078 56.8571 56.8913 58.6835 57.4297L46.7339 69.8958C45.3333 71.4388 44.6499 73.5368 44.8683 75.6571C45.0756 77.7718 46.1569 79.6977 47.8319 80.9355C50.8515 83.1556 55.1092 82.8503 57.6639 80.275L68.409 70.3065C68.6499 70.4841 92.9972 88.3175 100.476 94.8558C101.014 95.322 101.322 96.0103 101.356 96.7762C101.384 97.692 101.025 98.5912 100.375 99.2406ZM64.7563 116.963L61.2437 121.375C60.1401 122.752 58.1064 122.985 56.7339 121.903C55.3501 120.82 55.1148 118.822 56.2017 117.457C56.2017 117.451 56.2017 117.451 56.2073 117.451L59.7423 113.044C60.3754 112.24 61.3165 111.829 62.2633 111.829C62.958 111.829 63.6471 112.051 64.2241 112.506C65.6134 113.605 65.8487 115.603 64.7563 116.957V116.963ZM48.3473 115.353C46.9748 114.265 46.7339 112.267 47.8151 110.902C47.8151 110.896 47.8151 110.896 47.8151 110.896L52.7059 104.785C53.3389 104.019 54.2745 103.614 55.2101 103.614C55.8992 103.614 56.5882 103.836 57.1653 104.28C58.5602 105.379 58.8011 107.377 57.7087 108.732C57.6975 108.743 57.6975 108.743 57.6975 108.743L52.8515 114.832C51.7479 116.186 49.7311 116.413 48.3473 115.353ZM39.9832 108.798C39.3165 108.271 38.8908 107.511 38.7899 106.667C38.6891 105.834 38.9244 105.007 39.4566 104.347C39.4566 104.347 45.6415 96.6097 45.6471 96.6042C46.7003 95.2887 48.7507 94.9946 50.1401 96.0935C51.5014 97.1647 51.7479 99.1795 50.6555 100.545L44.4762 108.277C43.3838 109.648 41.3726 109.881 39.9832 108.798ZM31.6247 102.249C30.2409 101.155 30 99.1462 31.098 97.7697L35.9328 91.7087C36.577 90.915 37.5182 90.5043 38.465 90.5043C39.1597 90.5043 39.8599 90.7263 40.4482 91.1814C41.8263 92.2693 42.056 94.2675 40.9748 95.6384L36.1176 101.716C35.014 103.087 32.9972 103.315 31.6247 102.249ZM49.4902 54.9542H42.6667V48.6101H53.3333V53.3113C52.605 53.5056 51.8992 53.7387 51.2437 54.0772L49.4902 54.9542ZM34.1345 59.178V8.45321C34.1345 6.12206 36.0504 4.22383 38.3978 4.22383H49.0644V22.7954C49.0644 24.5049 49.9552 26.0201 51.4566 26.8638C52.1905 27.2745 52.9916 27.4854 53.7815 27.4854C54.6162 27.4854 55.451 27.2523 56.2073 26.8083L64 22.1737L71.7927 26.8083C73.2661 27.6797 75.042 27.7074 76.5434 26.8638C78.0392 26.0201 78.93 24.5049 78.93 22.7954V4.22383H89.5966C91.9496 4.22383 93.8655 6.12206 93.8655 8.45321V59.178C93.8655 59.9329 93.6583 60.6544 93.2829 61.2927H88.3585C88.0336 61.2927 87.7087 61.2206 87.423 61.0763L73.4062 54.0939C71.8095 53.278 69.9832 52.8395 68.1401 52.8395C66.084 52.8395 64.0672 53.389 62.3081 54.3825C60.8684 53.5833 59.2493 53.1004 57.5966 52.945V48.6101C57.5966 46.2845 55.6807 44.3863 53.3333 44.3863H42.6667C40.3137 44.3863 38.3978 46.2845 38.3978 48.6101V54.9542C38.3978 56.8524 39.6751 58.4454 41.4174 58.9727L37.1821 61.0874C36.9244 61.2206 36.5994 61.2927 36.2633 61.2927H34.7171C34.3417 60.6544 34.1345 59.9329 34.1345 59.178ZM53.3333 4.22383H74.6667V22.7954C74.6667 22.9674 74.5882 23.1006 74.4426 23.1839C74.3305 23.2505 74.1681 23.2949 73.9832 23.1839L65.098 17.8999C64.4258 17.5003 63.5742 17.5003 62.902 17.8999L54.0168 23.1839C53.8263 23.2949 53.6639 23.2505 53.5574 23.1839C53.4062 23.1006 53.3333 22.9674 53.3333 22.7954V4.22383ZM70.9076 66.8819C69.2661 65.7275 67.014 65.8829 65.5574 67.2427L54.7003 77.2445C53.5518 78.3934 51.6975 78.5155 50.381 77.5386C49.6639 77.0114 49.2101 76.1677 49.1092 75.2352C49.014 74.3028 49.3053 73.387 49.8655 72.7709L62.7059 59.3667C64.9244 57.0744 68.6723 56.4306 71.4678 57.857L85.4846 64.8339C86.3473 65.289 87.3501 65.5221 88.3585 65.5221H113.064V88.8281C107.966 89.0834 104.174 90.1657 102.297 90.8318C93.8095 83.6496 71.9104 67.609 70.9076 66.8819ZM10.6667 92.9964H4.26331V61.2927H10.6667V92.9964ZM123.731 57.0633H117.333C114.98 57.0633 113.064 58.9616 113.064 61.2927H97.8263C98.0056 60.61 98.1345 59.9051 98.1345 59.178V8.45321C98.1345 3.7909 94.3081 0 89.5966 0H38.3978C33.6919 0 29.8655 3.7909 29.8655 8.45321V59.178C29.8655 59.9051 29.9888 60.61 30.1737 61.2927H14.93C14.93 58.9616 13.014 57.0633 10.6667 57.0633H4.26331C1.91597 57.0633 0 58.9616 0 61.2927V92.9964C0 95.322 1.91597 97.2258 4.26331 97.2258H10.6667C12.9804 97.2258 14.8683 95.3831 14.9244 93.0963C18.5266 93.3849 22.605 94.4062 27.1092 96.149C25.3557 99.2628 26.0672 103.265 28.9748 105.562C30.3417 106.628 31.9664 107.139 33.5798 107.139C33.9104 107.139 34.2241 107.072 34.549 107.033C34.5602 107.083 34.549 107.122 34.549 107.167C34.7843 109.12 35.7759 110.869 37.3389 112.112C38.7059 113.183 40.3417 113.705 41.9664 113.705C42.2913 113.705 42.605 113.638 42.9244 113.594C43.126 115.52 44.0672 117.368 45.7087 118.672C47.0756 119.727 48.7059 120.243 50.3249 120.243C50.6499 120.243 50.9804 120.177 51.3053 120.132C51.5014 122.058 52.4314 123.918 54.084 125.222C55.4398 126.288 57.0812 126.804 58.7003 126.804C60.9076 126.804 63.1092 125.849 64.5882 124.001L66.5826 121.498C68.8515 123.429 70.2017 124.661 70.2017 124.661C71.6583 126.088 73.5574 126.798 75.4734 126.798C77.3894 126.798 79.2997 126.088 80.7563 124.65C82.1737 123.246 82.958 121.387 82.958 119.416C82.958 119.394 82.958 119.366 82.958 119.344C82.9804 119.344 83.0084 119.333 83.042 119.344C85.0308 119.333 86.902 118.567 88.2801 117.179C89.6975 115.781 90.4818 113.927 90.4818 111.945C90.4818 111.912 90.4818 111.884 90.4818 111.851C90.5098 111.851 90.5322 111.851 90.5602 111.851C92.465 111.851 94.381 111.135 95.8431 109.709C97.2549 108.304 98.0392 106.445 98.0392 104.475C98.0392 104.447 98.0392 104.414 98.0392 104.391C98.056 104.391 98.084 104.391 98.1064 104.391C100.022 104.391 101.938 103.664 103.401 102.221C104.885 100.739 105.681 98.7077 105.613 96.6375C105.591 95.8382 105.406 95.0834 105.132 94.3729C106.913 93.8567 109.63 93.2628 113.076 93.0686C113.115 95.3664 115.008 97.2258 117.333 97.2258H123.731C126.084 97.2258 128 95.322 128 92.9964V61.2927C128 58.9616 126.084 57.0633 123.731 57.0633Z" fill="#EBE3D2"/>
</g>
</svg>
