<svg width="126" height="125" viewBox="0 0 126 125" fill="none" xmlns="http://www.w3.org/2000/svg">
<mask id="mask0_50_9962" style="mask-type:luminance" maskUnits="userSpaceOnUse" x="0" y="0" width="126" height="125">
<path d="M0.650391 0H125.65V125H0.650391V0Z" fill="white"/>
</mask>
<g mask="url(#mask0_50_9962)">
<path fill-rule="evenodd" clip-rule="evenodd" d="M12.959 65.9399C14.1858 51.6586 20.8654 38.6188 31.375 29.8299L28.4288 30.0386C27.3808 30.1116 26.4824 29.2614 26.41 28.1348C26.3424 27.0081 27.1296 26.0327 28.1777 25.9597L37.1466 25.3234C38.4362 25.2347 39.4359 26.5335 39.1075 27.8792L36.9486 36.7619C36.683 37.8677 35.6397 38.504 34.6351 38.2224C33.6209 37.9355 33.0123 36.8193 33.278 35.7292L34.0942 32.3857C24.0385 40.533 17.6439 52.8114 16.4896 66.2894C16.3978 67.343 15.5284 68.1045 14.5625 68.0106C13.5869 67.9115 12.8721 66.9883 12.959 65.9399ZM85.6571 113.801C86.0676 114.751 85.6861 115.888 84.8022 116.331C77.4706 120.024 70.7185 122.481 61.6047 122.481C55.2004 122.481 48.9989 121.171 43.1307 118.59L45.1206 121.85C45.9562 123.211 45.0385 125.016 43.5364 125.016C42.9231 125.016 42.3145 124.687 41.9523 124.092L36.794 115.658C36.0889 114.506 36.6347 112.936 37.8711 112.565L46.357 110.02C47.3665 109.717 48.4145 110.354 48.6947 111.439C48.9748 112.529 48.3856 113.65 47.3761 113.958L44.1595 114.923C49.6944 117.406 55.5481 118.673 61.6047 118.673C70.0665 118.673 76.3984 116.357 83.3002 112.878C84.1889 112.435 85.2418 112.847 85.6571 113.801ZM86.2657 28.938C86.8356 28.0826 87.9416 27.8792 88.7385 28.4894C99.1033 36.4177 106.077 48.3257 108.275 61.6315L109.734 58.4446C110.197 57.4327 111.332 57.0206 112.274 57.5161C113.216 58.0169 113.597 59.2374 113.139 60.2493L109.164 68.9338C108.589 70.1909 107.048 70.4621 106.131 69.4867L100.064 63.0294C99.3158 62.2366 99.311 60.943 100.045 60.1398C100.784 59.3417 101.987 59.3313 102.73 60.1241L104.793 62.32C102.759 49.9895 96.2972 38.9474 86.6859 31.5981C85.8889 30.9879 85.7006 29.7986 86.2657 28.938ZM68.5017 58.4759L61.0928 78.6146C60.7257 79.6057 59.6969 80.0699 58.7938 79.6891C57.8809 79.2979 57.4414 78.1921 57.7988 77.2115L65.2126 57.0728C65.57 56.0922 66.5987 55.6123 67.5116 56.0035C68.4196 56.3895 68.8639 57.4953 68.5017 58.4759ZM79.0499 67.8437C79.0499 68.4383 78.794 68.9964 78.3545 69.3615L72.5635 74.1237C71.7908 74.76 70.6799 74.6088 70.081 73.7638C69.4869 72.9293 69.6367 71.7348 70.4143 71.0932L74.365 67.8437L70.4143 64.5942C69.6367 63.9526 69.4869 62.7582 70.081 61.9236C70.6751 61.0839 71.7859 60.9274 72.5635 61.5637L78.3545 66.3311C78.794 66.691 79.0499 67.2491 79.0499 67.8437ZM55.8911 64.5942L51.9355 67.8437L55.8911 71.0932C57.2482 72.2147 56.4513 74.5149 54.814 74.5149C54.4373 74.5149 54.0606 74.3897 53.737 74.1237L47.946 69.3615C47.0236 68.5948 47.0187 67.0926 47.946 66.3311L53.737 61.5637C54.5146 60.9274 55.6254 61.0839 56.2195 61.9236C56.8136 62.7582 56.6638 63.9526 55.8911 64.5942ZM85.0872 81.0296V54.4961C85.0872 53.8233 84.5607 53.2547 83.9377 53.2547H42.3676C41.7398 53.2547 41.2133 53.8233 41.2133 54.4961V81.1078C41.2133 81.8276 41.7736 82.4327 42.4449 82.4327H83.7831C84.5028 82.4327 85.0872 81.8016 85.0872 81.0296ZM67.2507 90.7156H59.0498V86.2455H67.2507V90.7156ZM88.6323 54.4961C88.6323 51.7108 86.5265 49.4419 83.9377 49.4419H42.3676C39.7789 49.4419 37.6682 51.7108 37.6682 54.4961V81.1078C37.6682 83.9401 39.8127 86.2455 42.4449 86.2455H55.2584V90.7156H48.854C47.806 90.7156 46.9559 91.6284 46.9559 92.7603C46.9559 93.8869 47.806 94.7997 48.854 94.7997H77.4465C78.4945 94.7997 79.3446 93.8869 79.3446 92.7603C79.3446 91.6284 78.4945 90.7156 77.4465 90.7156H71.0421V86.2455H83.7831C86.454 86.2455 88.6323 83.9036 88.6323 81.0296V54.4961ZM29.2596 107.542V106.197C29.2596 102.17 27.1972 98.6595 24.1545 96.8078C27.7333 92.3169 24.763 85.3275 19.257 85.3275C13.7462 85.3275 10.7807 92.3169 14.3596 96.8078C11.312 98.6595 9.2497 102.17 9.2497 106.197V107.542C6.16829 104.574 4.22188 100.266 4.22188 95.4725C4.22188 86.5481 10.9643 79.2875 19.257 79.2875C27.545 79.2875 34.2874 86.5481 34.2874 95.4725C34.2874 100.266 32.341 104.574 29.2596 107.542ZM16.335 92.2804C16.335 94.0121 17.6439 95.4256 19.257 95.4256C20.8654 95.4256 22.1742 94.0121 22.1742 92.2804C22.1742 90.5487 20.8654 89.1404 19.257 89.1404C17.6439 89.1404 16.335 90.5487 16.335 92.2804ZM12.7948 110.088C16.8711 112.184 21.643 112.19 25.7193 110.088V106.197C25.7193 102.358 22.8214 99.2332 19.257 99.2332C15.6927 99.2332 12.7948 102.358 12.7948 106.197V110.088ZM19.257 75.4746C9.01304 75.4746 0.681641 84.446 0.681641 95.4725C0.681641 106.499 9.01304 115.476 19.257 115.476C29.4962 115.476 37.8325 106.499 37.8325 95.4725C37.8325 84.446 29.4962 75.4746 19.257 75.4746ZM117.051 107.542V106.197C117.051 102.17 114.988 98.6595 111.946 96.8078C115.529 92.3169 112.554 85.3275 107.048 85.3275C101.542 85.3275 98.5672 92.3169 102.146 96.8078C99.1081 98.6595 97.0409 102.17 97.0409 106.197V107.542C93.9595 104.574 92.0131 100.266 92.0131 95.4725C92.0131 86.5481 98.7555 79.2875 107.048 79.2875C115.336 79.2875 122.079 86.5481 122.079 95.4725C122.079 100.266 120.132 104.574 117.051 107.542ZM104.131 92.2804C104.131 94.0121 105.44 95.4256 107.048 95.4256C108.657 95.4256 109.965 94.0121 109.965 92.2804C109.965 90.5487 108.657 89.1404 107.048 89.1404C105.44 89.1404 104.131 90.5487 104.131 92.2804ZM100.581 110.088C104.662 112.184 109.429 112.19 113.511 110.088V106.197C113.511 102.358 110.613 99.2332 107.048 99.2332C103.484 99.2332 100.581 102.358 100.581 106.197V110.088ZM107.048 75.4746C117.287 75.4746 125.619 84.446 125.619 95.4725C125.619 106.499 117.287 115.476 107.048 115.476C96.8043 115.476 88.4729 106.499 88.4729 95.4725C88.4729 84.446 96.8043 75.4746 107.048 75.4746ZM63.1503 3.82848C71.4382 3.82848 78.1854 11.0891 78.1854 20.0135C78.1854 24.807 76.239 29.1206 73.1528 32.0832V30.7375C73.1528 26.7108 71.0953 23.2005 68.0477 21.3488C71.6265 16.8631 68.6659 9.86853 63.1503 9.86853C57.6395 9.86853 54.674 16.8631 58.2528 21.3488C55.2101 23.2005 53.1477 26.7108 53.1477 30.7375V32.0832C50.0615 29.1154 48.1199 24.807 48.1199 20.0135C48.1199 11.0891 54.8623 3.82848 63.1503 3.82848ZM60.2331 16.8214C60.2331 18.5531 61.5419 19.9666 63.1503 19.9666C64.7586 19.9666 66.0675 18.5531 66.0675 16.8214C66.0675 15.0897 64.7586 13.6814 63.1503 13.6814C61.5419 13.6814 60.2331 15.0897 60.2331 16.8214ZM56.688 34.6286C60.7692 36.7306 65.5313 36.7306 69.6125 34.6286V30.7375C69.6125 26.8986 66.7146 23.7794 63.1503 23.7794C59.5907 23.7794 56.688 26.8986 56.688 30.7375V34.6286ZM63.1503 40.0115C73.3943 40.0115 81.7257 31.0453 81.7257 20.0135C81.7257 8.98704 73.3943 0.015625 63.1503 0.015625C52.9111 0.015625 44.5797 8.98704 44.5797 20.0135C44.5797 31.0453 52.9111 40.0115 63.1503 40.0115Z" fill="#E9E2D1"/>
</g>
</svg>
