<svg width="125" height="125" viewBox="0 0 125 125" fill="none" xmlns="http://www.w3.org/2000/svg">
<mask id="mask0_665_251" style="mask-type:luminance" maskUnits="userSpaceOnUse" x="0" y="0" width="125" height="125">
<path d="M0 0H125V125H0V0Z" fill="white"/>
</mask>
<g mask="url(#mask0_665_251)">
<path d="M68.4639 49.9991C69.314 49.5809 70.1428 49.1177 70.9459 48.6006C71.749 48.088 72.5223 47.5259 73.2613 46.9188C74.0047 46.3117 74.7138 45.6642 75.3845 44.9717C76.0595 44.2837 76.6918 43.5553 77.2856 42.7863C77.8794 42.0219 78.4305 41.2215 78.9389 40.3941C79.4472 39.5622 79.9129 38.7033 80.3273 37.8174C80.7416 36.9316 81.109 36.0232 81.4294 35.0924C81.7498 34.1661 82.0147 33.2218 82.2326 32.2595C82.4505 31.2972 82.6171 30.3259 82.7281 29.3456C82.8435 28.3653 82.9033 27.3805 82.9076 26.3913C82.9161 25.4065 82.8691 24.4217 82.7709 23.4369C82.6726 22.4566 82.5231 21.4808 82.318 20.5185C82.113 19.5517 81.8609 18.6029 81.5533 17.6676C81.25 16.7323 80.8954 15.8194 80.4896 14.9291C80.088 14.0342 79.6395 13.1709 79.1396 12.33C78.6441 11.4936 78.1058 10.6842 77.5205 9.91075C76.9395 9.13731 76.3158 8.39985 75.6537 7.69836C74.9915 6.99687 74.2909 6.33585 73.5561 5.7153C72.8256 5.09925 72.0609 4.52367 71.2663 3.99756C70.4717 3.47144 69.6472 2.99029 68.8013 2.5586C67.9555 2.13141 67.0883 1.74919 66.1997 1.42093C65.3154 1.09717 64.4097 0.822866 63.4955 0.598031C62.577 0.377691 61.6543 0.211312 60.7187 0.10339C59.7831 -0.00902755 58.8433 -0.0629883 57.9034 -0.0629883C56.9636 -0.0629883 56.028 -0.00902755 55.0924 0.10339C54.1569 0.211312 53.2298 0.377691 52.3156 0.598031C51.3971 0.822866 50.4957 1.09717 49.6072 1.42093C48.7186 1.74919 47.8556 2.13141 47.0055 2.5586C46.1596 2.99029 45.3394 3.47144 44.5448 3.99756C43.7502 4.52367 42.9855 5.09925 42.2507 5.7153C41.5159 6.33585 40.8196 6.99687 40.1574 7.69836C39.4953 8.39985 38.8716 9.13731 38.2863 9.91075C37.7053 10.6842 37.1628 11.4936 36.6672 12.33C36.1716 13.1709 35.7231 14.0342 35.3172 14.9291C34.9157 15.8194 34.5611 16.7323 34.2535 17.6676C33.9502 18.6029 33.6939 19.5517 33.4931 20.5185C33.288 21.4808 33.1385 22.4566 33.036 23.4369C32.9377 24.4217 32.895 25.4065 32.8993 26.3913C32.9078 27.3805 32.9676 28.3653 33.0787 29.3456C33.194 30.3259 33.3564 31.2972 33.5743 32.2595C33.7921 33.2218 34.0613 34.1661 34.3774 35.0924C34.6978 36.0232 35.0652 36.9316 35.4838 37.8174C35.8982 38.7033 36.3596 39.5622 36.868 40.3941C37.3764 41.2215 37.9274 42.0219 38.5255 42.7863C39.1193 43.5553 39.7516 44.2837 40.4223 44.9717C41.0973 45.6642 41.8022 46.3117 42.5455 46.9188C43.2888 47.5259 44.0621 48.088 44.8652 48.6006C45.6684 49.1177 46.4929 49.5809 47.3473 49.9991C43.3743 51.2851 39.7174 53.2277 36.381 55.8358C33.0872 54.235 29.6269 53.4346 25.9957 53.4391C24.7483 53.4391 23.5094 53.5335 22.2748 53.7313C21.0401 53.9247 19.8269 54.2125 18.635 54.5992C17.4388 54.9859 16.2811 55.4581 15.1576 56.0292C14.034 56.5958 12.9532 57.2478 11.9194 57.9852C10.8898 58.7227 9.9158 59.5366 8.99732 60.4225C8.08311 61.3128 7.23725 62.2706 6.45547 63.2959C5.67796 64.3166 4.97308 65.3959 4.34936 66.529C3.72137 67.6667 3.17883 68.8403 2.72172 70.059C2.26461 71.2776 1.89295 72.5277 1.61527 73.8047C1.33331 75.0818 1.14534 76.3724 1.05136 77.6809C0.953103 78.9895 0.953103 80.2935 1.04282 81.6021C1.13253 82.9106 1.31622 84.2012 1.58963 85.4782C1.86304 86.7598 2.23044 88.0099 2.68327 89.2285C3.13611 90.4516 3.67011 91.6298 4.29382 92.7674C4.91327 93.9051 5.61388 94.9843 6.38711 96.0141C7.16035 97.0393 8.00621 98.0016 8.92042 98.8965V122.851C8.92042 123.219 9.01013 123.566 9.18956 123.885C9.36471 124.2 9.60822 124.451 9.91153 124.631C10.2148 124.843 10.5438 124.946 10.9069 124.942C11.2529 124.937 11.5733 124.847 11.8724 124.663L25.9957 116.339L40.1233 124.663C40.4223 124.852 40.7427 124.942 41.0887 124.942C41.4476 124.942 41.7808 124.843 42.0841 124.631C42.3832 124.451 42.6224 124.2 42.7976 123.88C42.9684 123.561 43.0539 123.219 43.0496 122.851V98.8965C43.7289 98.2265 44.3739 97.5205 44.9806 96.7785C45.5872 96.0321 46.1511 95.2541 46.6765 94.4447C47.1977 93.6353 47.6762 92.7989 48.1119 91.931C48.5477 91.0632 48.9322 90.1728 49.2739 89.26C49.6114 88.3516 49.9019 87.4208 50.1412 86.4765C50.3847 85.5277 50.5726 84.5699 50.7093 83.6031C50.846 82.6318 50.9358 81.6605 50.9699 80.6802C51.0041 79.7044 50.987 78.7242 50.9144 77.7484C50.846 76.7726 50.7222 75.8013 50.5513 74.839C50.3761 73.8767 50.154 72.9279 49.8763 71.9926C49.6029 71.0572 49.2782 70.1399 48.9065 69.2451C48.5349 68.3457 48.1162 67.4733 47.6506 66.6235C47.1849 65.7736 46.6765 64.9552 46.1255 64.1683C45.5701 63.3768 44.9763 62.6259 44.344 61.9064C43.7118 61.1869 43.0411 60.5079 42.3362 59.8694C41.6313 59.2263 40.8922 58.6283 40.1233 58.0752C42.7506 56.2495 45.5701 54.86 48.5904 53.9112C51.6107 52.9669 54.6951 52.4992 57.8479 52.5172C58.8604 52.5172 59.8728 52.5667 60.881 52.6611C61.8935 52.7601 62.8974 52.9084 63.8928 53.1108C64.8882 53.3087 65.875 53.556 66.849 53.8528C67.8231 54.145 68.7843 54.4913 69.7284 54.8825C70.6725 55.2737 71.5952 55.7099 72.4966 56.1956C73.4023 56.6767 74.2823 57.2028 75.141 57.7739C75.9954 58.345 76.8242 58.9565 77.6273 59.6131C78.4262 60.2651 79.1994 60.9576 79.9385 61.6861C80.6776 62.4145 81.3824 63.179 82.0532 63.9794C82.7239 64.7798 83.3561 65.6117 83.9499 66.4751C84.5437 67.3384 85.0991 68.2288 85.616 69.1461C86.1329 70.0635 86.6029 71.0033 87.0343 71.9701C87.4658 72.9324 87.8503 73.9172 88.192 74.9199C88.5338 75.9227 88.8328 76.9389 89.0806 77.9732C89.3327 79.0074 89.5335 80.0507 89.6915 81.1029C89.8453 82.1552 89.9564 83.2119 90.0162 84.2776H61.2399C60.975 84.2776 60.723 84.3271 60.4795 84.435C60.2359 84.5384 60.0181 84.6913 59.8344 84.8892C59.6464 85.0825 59.5012 85.3074 59.4029 85.5637C59.3004 85.82 59.2491 86.0853 59.2491 86.3641C59.2491 86.6429 59.3004 86.9082 59.4029 87.1645C59.5012 87.4208 59.6464 87.6457 59.8344 87.839C60.0181 88.0369 60.2359 88.1898 60.4795 88.2932C60.723 88.4011 60.975 88.4506 61.2399 88.4506H92.1223C92.3829 88.4506 92.6349 88.3921 92.8785 88.2842C93.122 88.1763 93.3356 88.0279 93.5193 87.83C93.7072 87.6367 93.8482 87.4118 93.9507 87.16C94.0533 86.9037 94.1045 86.6384 94.1088 86.3641C94.1088 84.3406 93.9507 82.3305 93.6432 80.334C93.3356 78.3374 92.8827 76.3769 92.2761 74.4568C91.6695 72.5367 90.9261 70.675 90.0376 68.8808C89.149 67.0821 88.1322 65.3734 86.9873 63.7456C85.8382 62.1222 84.5779 60.6023 83.2023 59.1859C81.8225 57.7739 80.3486 56.4788 78.7765 55.3142C77.2001 54.145 75.5511 53.1153 73.821 52.2249C72.0908 51.3346 70.3051 50.5926 68.4639 49.9991ZM36.8765 26.2563C36.8765 25.5369 36.9107 24.8129 36.9791 24.0934C37.0474 23.3739 37.1457 22.659 37.2824 21.9485C37.4148 21.2425 37.5814 20.541 37.7822 19.8485C37.983 19.156 38.2137 18.477 38.4785 17.807C38.7391 17.137 39.0339 16.485 39.3586 15.8464C39.6833 15.2124 40.0378 14.5918 40.4223 13.9893C40.8025 13.3867 41.2126 12.8066 41.6484 12.249C42.0884 11.6915 42.5498 11.1563 43.0368 10.6437C43.5238 10.1311 44.0322 9.64544 44.5662 9.18678C45.0959 8.72811 45.6513 8.30092 46.2237 7.89622C46.7962 7.49601 47.3857 7.12278 47.9923 6.78103C48.599 6.44378 49.2227 6.1335 49.8592 5.8547C50.4957 5.5804 51.1408 5.33758 51.7987 5.12624C52.4609 4.91489 53.1273 4.73952 53.8023 4.60012C54.4773 4.46072 55.1565 4.3528 55.8443 4.28085C56.5278 4.2089 57.2156 4.17742 57.9034 4.17742C58.5912 4.17742 59.279 4.2089 59.9668 4.28085C60.6503 4.3528 61.3296 4.46072 62.0088 4.60012C62.6838 4.73952 63.3502 4.91489 64.0081 5.12624C64.666 5.33758 65.3154 5.5804 65.9519 5.8547C66.5884 6.1335 67.2079 6.44378 67.8188 6.78103C68.4254 7.12278 69.0149 7.49601 69.5874 7.89622C70.1599 8.30092 70.7109 8.72811 71.2449 9.18678C71.7747 9.64544 72.2873 10.1311 72.7743 10.6437C73.2613 11.1563 73.7227 11.6915 74.1585 12.249C74.5942 12.8066 75.0043 13.3867 75.3888 13.9893C75.769 14.5918 76.1236 15.2124 76.4483 15.8464C76.7729 16.485 77.0677 17.137 77.3326 17.807C77.5932 18.477 77.8281 19.156 78.0246 19.8485C78.2254 20.541 78.392 21.2425 78.5287 21.9485C78.6612 22.659 78.7637 23.3739 78.832 24.0934C78.8961 24.8129 78.9303 25.5369 78.9303 26.2563C78.9303 26.9803 78.8961 27.7043 78.832 28.4238C78.7637 29.1432 78.6612 29.8582 78.5287 30.5642C78.392 31.2747 78.2254 31.9762 78.0246 32.6687C77.8281 33.3612 77.5932 34.0402 77.3326 34.7102C77.0677 35.3757 76.7729 36.0322 76.4483 36.6663C76.1236 37.3048 75.769 37.9254 75.3888 38.5279C75.0043 39.126 74.5942 39.7061 74.1585 40.2682C73.7227 40.8257 73.2613 41.3609 72.7743 41.8735C72.2873 42.3861 71.7747 42.8718 71.2449 43.3304C70.7109 43.7891 70.1599 44.2163 69.5874 44.621C69.0149 45.0212 68.4254 45.3944 67.8188 45.7317C67.2079 46.0734 66.5884 46.3837 65.9519 46.658C65.3154 46.9368 64.666 47.1796 64.0081 47.391C63.3502 47.5978 62.6838 47.7777 62.0088 47.9171C61.3296 48.0565 60.6503 48.1644 59.9668 48.2363C59.279 48.3038 58.5912 48.3398 57.9034 48.3398C57.2156 48.3398 56.5278 48.3038 55.8443 48.2318C55.1608 48.1599 54.4773 48.052 53.8023 47.9126C53.1273 47.7687 52.4609 47.5933 51.803 47.382C51.1451 47.1706 50.5 46.9278 49.8635 46.6535C49.2269 46.3747 48.6032 46.0644 47.9966 45.7227C47.39 45.3854 46.8004 45.0122 46.228 44.612C45.6555 44.2073 45.1044 43.7756 44.5747 43.3169C44.0407 42.8583 43.5323 42.3771 43.0453 41.8645C42.5583 41.3519 42.0969 40.8167 41.6569 40.2592C41.2212 39.7016 40.8111 39.1215 40.4309 38.5189C40.0464 37.9164 39.6918 37.3003 39.3671 36.6618C39.0424 36.0232 38.7477 35.3712 38.4871 34.7057C38.2222 34.0357 37.9915 33.3567 37.7907 32.6642C37.59 31.9717 37.4191 31.2747 37.2866 30.5642C37.1499 29.8537 37.0474 29.1432 36.9791 28.4238C36.9107 27.7043 36.8765 26.9803 36.8765 26.2563ZM38.9826 119.226L26.9612 112.103C26.6664 111.919 26.3417 111.829 25.9957 111.825C25.6497 111.82 25.3293 111.914 25.0345 112.103L12.8977 119.226V102.089L13.453 102.426L14.3288 102.948L15.9949 103.811L16.9006 104.176L18.0156 104.607L18.9212 104.913C19.5364 105.097 20.1473 105.282 20.7625 105.408H21.4075L23.0736 105.682H23.7443C24.5048 105.682 25.2395 105.682 25.9957 105.682C26.7561 105.682 27.4909 105.682 28.2214 105.682H28.8921C29.4646 105.624 30.0285 105.529 30.5881 105.408H31.2033C31.8185 105.408 32.4336 105.097 33.0445 104.913L33.9801 104.607L35.0951 104.176L35.9709 103.811L37.6669 102.948L38.4871 102.458L39.098 102.089L38.9826 119.226ZM38.0172 97.7588L36.9363 98.5277L36.381 98.865L35.2702 99.508L34.6551 99.8183L33.5145 100.308L32.8395 100.583C32.4593 100.583 32.0791 100.862 31.6988 100.951L30.8829 101.199L29.9473 101.352H28.8622C28.5717 101.383 28.277 101.383 27.9865 101.352C27.3243 101.401 26.6621 101.401 25.9957 101.352C25.325 101.397 24.6543 101.397 23.9793 101.352C23.6888 101.383 23.394 101.383 23.1035 101.352H22.0483L20.9675 101.077L20.1772 100.862L19.0067 100.493L18.5111 100.308L17.3406 99.7868L16.7852 99.508L15.5848 98.865L15.0892 98.5277L13.9486 97.7588L13.5086 97.3901C13.1284 97.1158 12.7781 96.8055 12.4278 96.4997C11.8852 96.0141 11.364 95.5014 10.8727 94.9573C10.3772 94.4177 9.91153 93.8511 9.47151 93.2576C9.0315 92.6685 8.62565 92.0524 8.24544 91.4184C7.86523 90.7844 7.51493 90.1323 7.1988 89.4578C6.88267 88.7878 6.60071 88.0998 6.34867 87.3938C6.10089 86.6924 5.88302 85.9819 5.70359 85.2534C5.51989 84.5294 5.37464 83.7965 5.26784 83.0545C5.15677 82.3125 5.08415 81.5706 5.0457 80.8196C5.00725 80.0732 5.00298 79.3222 5.03716 78.5713C5.07133 77.8248 5.14396 77.0783 5.25076 76.3364C5.35756 75.5944 5.49853 74.8615 5.67796 74.1375C5.85311 73.409 6.06671 72.694 6.31449 71.9926C6.55799 71.2866 6.83995 70.5986 7.15181 69.9241C7.46794 69.2495 7.8097 68.593 8.18564 67.959C8.56584 67.3205 8.97169 66.7044 9.40743 66.1108C9.84318 65.5173 10.3088 64.9507 10.8001 64.4066C11.2914 63.8625 11.804 63.3453 12.3466 62.8552C12.8891 62.3651 13.453 61.9064 14.0383 61.4792C14.6236 61.0475 15.2302 60.6518 15.8539 60.2876C16.4776 59.9233 17.1142 59.5951 17.7721 59.2983C18.4299 59.0015 19.0964 58.7407 19.7799 58.5159C20.4592 58.291 21.1512 58.1022 21.8476 57.9538C22.5482 57.8009 23.2531 57.6885 23.9622 57.612C24.6756 57.5356 25.3848 57.4951 26.0982 57.4951C26.8159 57.4951 27.5251 57.5356 28.2385 57.612C28.9477 57.6885 29.6525 57.8009 30.3532 57.9538C31.0495 58.1022 31.7416 58.291 32.4208 58.5159C33.1043 58.7407 33.7708 59.0015 34.4287 59.2983C35.0823 59.5951 35.7231 59.9233 36.3468 60.2876C36.9705 60.6518 37.5771 61.0475 38.1624 61.4792C38.7477 61.9064 39.3116 62.3651 39.8541 62.8552C40.3924 63.3453 40.9093 63.8625 41.4006 64.4066C41.8919 64.9507 42.3575 65.5173 42.7933 66.1108C43.229 66.7044 43.6349 67.3205 44.0108 67.959C44.391 68.593 44.7328 69.2495 45.0489 69.9241C45.3608 70.5986 45.6427 71.2866 45.8862 71.9926C46.134 72.694 46.3476 73.409 46.5228 74.1375C46.7022 74.8615 46.8432 75.5944 46.95 76.3364C47.0568 77.0783 47.1251 77.8248 47.1636 78.5713C47.1977 79.3222 47.1935 80.0732 47.155 80.8196C47.1166 81.5706 47.0439 82.3125 46.9329 83.0545C46.8261 83.7965 46.6765 84.5294 46.4971 85.2534C46.3177 85.9819 46.0998 86.6924 45.852 87.3938C45.6 88.0998 45.318 88.7878 45.0019 89.4578C44.6858 90.1323 44.3355 90.7844 43.9553 91.4184C43.5751 92.0524 43.1692 92.6685 42.7292 93.2576C42.2892 93.8511 41.8235 94.4177 41.328 94.9573C40.8367 95.5014 40.3155 96.0141 39.773 96.4997L38.7477 97.3901L38.0172 97.7588Z" fill="#E9E2D1"/>
</g>
<path d="M27.3625 62.0323C26.333 62.0323 25.312 62.1403 24.2995 62.3471C23.287 62.5585 22.3045 62.8732 21.3518 63.2869C20.3991 63.7006 19.4935 64.2088 18.6348 64.8068C17.7761 65.4094 16.9815 66.0929 16.251 66.8573C15.5248 67.6218 14.8711 68.4537 14.2944 69.3575C13.722 70.2569 13.235 71.2057 12.8419 72.2039C12.4446 73.2067 12.1413 74.2365 11.9405 75.2977C11.7355 76.3589 11.6329 77.4336 11.6329 78.5173C11.6287 79.6011 11.7269 80.6713 11.9234 81.737C12.1242 82.7982 12.419 83.8325 12.812 84.8308C13.2008 85.8335 13.6835 86.7868 14.2517 87.6907C14.8241 88.5945 15.4735 89.4264 16.1997 90.1953C16.926 90.9643 17.7163 91.6523 18.5707 92.2593C19.4251 92.8619 20.3308 93.3745 21.2792 93.7927C22.2318 94.2154 23.2144 94.5302 24.2226 94.746C25.2351 94.9619 26.2561 95.0743 27.2856 95.0788C28.3195 95.0833 29.3405 94.9844 30.3529 94.7775C31.3654 94.5752 32.348 94.2649 33.3049 93.8557C34.2618 93.4465 35.1675 92.9473 36.0305 92.3493C36.8891 91.7512 37.688 91.0722 38.4228 90.3123C39.1576 89.5523 39.8112 88.7204 40.3922 87.8256C40.9689 86.9307 41.4602 85.9819 41.8618 84.9836C42.2633 83.9854 42.5667 82.9556 42.776 81.8944C42.981 80.8332 43.0921 79.7629 43.1007 78.6792C43.1049 77.591 43.0109 76.5073 42.8144 75.4371C42.6222 74.3669 42.3274 73.3281 41.9344 72.3164C41.5414 71.3091 41.0586 70.3513 40.4862 69.4385C39.9137 68.5301 39.2644 67.6892 38.5339 66.9158C37.7991 66.1424 37.0045 65.4499 36.1415 64.8428C35.2829 64.2357 34.3729 63.7231 33.4117 63.3004C32.4548 62.8822 31.4679 62.5675 30.4469 62.3516C29.4302 62.1403 28.4006 62.0323 27.3625 62.0323ZM15.5803 78.6792C15.5803 77.8743 15.6529 77.0739 15.8024 76.2825C15.952 75.4911 16.1741 74.7221 16.4689 73.9757C16.7636 73.2337 17.1225 72.5232 17.5497 71.8532C17.9769 71.1832 18.4639 70.5626 19.0065 69.9916C19.549 69.4205 20.1385 68.9123 20.7793 68.4627C21.4159 68.0175 22.0909 67.6398 22.8 67.3295C23.5092 67.0192 24.2397 66.7854 24.9958 66.628C25.7477 66.4706 26.5081 66.3942 27.2771 66.3942C28.0461 66.3942 28.8065 66.4706 29.5583 66.628C30.3145 66.7854 31.045 67.0192 31.7542 67.3295C32.4633 67.6398 33.1383 68.0175 33.7748 68.4627C34.4156 68.9123 35.0052 69.4205 35.5477 69.9916C36.0903 70.5626 36.5773 71.1832 37.0045 71.8532C37.4317 72.5232 37.7905 73.2337 38.0853 73.9757C38.3801 74.7221 38.6022 75.4911 38.7517 76.2825C38.9013 77.0739 38.9739 77.8743 38.9739 78.6792C38.9739 79.4841 38.9013 80.2846 38.7517 81.076C38.6022 81.8674 38.3801 82.6364 38.0853 83.3828C37.7905 84.1248 37.4317 84.8352 37.0045 85.5053C36.5773 86.1753 36.0903 86.7958 35.5477 87.3669C35.0052 87.938 34.4156 88.4461 33.7748 88.8958C33.1383 89.341 32.4633 89.7187 31.7542 90.029C31.045 90.3392 30.3145 90.5731 29.5583 90.7305C28.8065 90.8878 28.0461 90.9643 27.2771 90.9643C26.5081 90.9643 25.7477 90.8878 24.9958 90.7305C24.2397 90.5731 23.5092 90.3392 22.8 90.029C22.0909 89.7187 21.4159 89.341 20.7793 88.8958C20.1385 88.4461 19.549 87.938 19.0065 87.3669C18.4639 86.7958 17.9769 86.1753 17.5497 85.5053C17.1225 84.8352 16.7636 84.1248 16.4689 83.3828C16.1741 82.6364 15.952 81.8674 15.8024 81.076C15.6529 80.2846 15.5803 79.4841 15.5803 78.6792Z" fill="#E9E2D1"/>
<path d="M32.1904 71.952C31.8828 71.7677 31.5496 71.6777 31.195 71.6777C30.8447 71.6867 30.5115 71.7812 30.2082 71.9655C29.9006 72.1544 29.6571 72.4017 29.4691 72.721L27.2477 76.8355C26.8589 76.3723 26.3719 76.1475 25.7867 76.161C25.6158 76.1655 25.4492 76.1924 25.2868 76.2374C25.1245 76.2869 24.9707 76.3588 24.8212 76.4488C24.6759 76.5387 24.5435 76.6511 24.4239 76.777C24.3085 76.9029 24.206 77.0423 24.1206 77.1997C24.0394 77.3526 23.9753 77.519 23.9283 77.6899C23.8856 77.8607 23.8643 78.0361 23.8643 78.216C23.8643 78.3913 23.8856 78.5667 23.9283 78.7421C23.9711 78.913 24.0351 79.0748 24.1206 79.2322L25.697 81.8134C25.8807 82.1101 26.1199 82.3395 26.4147 82.5103C26.7137 82.6812 27.0298 82.7622 27.363 82.7622C27.7176 82.7712 28.0508 82.6857 28.3584 82.5014C28.666 82.3215 28.9095 82.0697 29.0889 81.7504L32.9209 74.7175C33.0363 74.4792 33.1089 74.2319 33.1345 73.9666C33.1602 73.7013 33.1388 73.4405 33.0705 73.1841C33.0021 72.9278 32.891 72.694 32.7415 72.4826C32.5877 72.2713 32.404 72.0914 32.1904 71.952Z" fill="#E9E2D1"/>
</svg>
