<svg width="125" height="125" viewBox="0 0 125 125" fill="none" xmlns="http://www.w3.org/2000/svg">
<mask id="mask0_50_9967" style="mask-type:luminance" maskUnits="userSpaceOnUse" x="0" y="0" width="125" height="125">
<path d="M0 0H125V125H0V0Z" fill="white"/>
</mask>
<g mask="url(#mask0_50_9967)">
<path d="M87.3522 76.4775C89.4417 77.2288 91.3412 78.3945 92.9687 79.9635L97.0142 78.5381C97.5276 78.3669 98.0974 78.6265 98.3387 79.1514L101.568 85.1401C101.84 85.6041 101.732 86.2174 101.352 86.593L98.1796 89.6205C98.3952 90.7531 98.503 91.9132 98.503 93.1066C98.503 94.2722 98.3952 95.4324 98.1796 96.5981L101.352 99.6201C101.758 100.029 101.84 100.67 101.517 101.161L98.2874 107.15C98.0153 107.647 97.5019 107.852 97.0142 107.675L92.9687 106.25C91.3412 107.791 89.4417 108.984 87.3522 109.741L86.4846 114.188C86.3768 114.741 85.9404 115.117 85.427 115.117H78.8864C78.3422 115.117 77.8853 114.686 77.8032 114.1L76.9612 109.741C74.8717 108.984 72.9722 107.819 71.3447 106.25L67.33 107.675C66.7859 107.852 66.216 107.587 66.0004 107.067L62.7712 101.073C62.5247 100.581 62.6069 100.001 62.9868 99.6201L66.1339 96.5981C65.9182 95.4324 65.8104 94.2722 65.8104 93.1066C65.8104 91.9464 65.9182 90.7807 66.1339 89.6205L62.9868 86.593C62.5812 86.2174 62.4991 85.5765 62.7968 85.0848L66.0517 79.063C66.3238 78.5713 66.8423 78.3669 67.33 78.5381L71.3447 79.9635C72.9722 78.4221 74.8717 77.2288 76.9612 76.4775L77.8288 72.0246C77.9367 71.4722 78.3987 71.0965 78.8864 71.0965H85.4527C85.9969 71.0965 86.4589 71.5329 86.541 72.113L87.3522 76.4775ZM89.2517 79.9359C88.302 79.3558 87.2701 78.8586 86.1868 78.5381C85.8069 78.4221 85.4783 78.1017 85.3705 77.6376L84.5594 73.45H79.7541L78.9429 77.6376C78.8608 78.0464 78.5887 78.3945 78.1831 78.5105C76.1757 79.1514 73.8398 80.4883 72.4023 82.0573C72.1302 82.3777 71.6682 82.5214 71.2626 82.3777L67.4635 81.0408L65.0763 85.4881L68.0334 88.3388C68.3312 88.5985 68.4698 89.0349 68.362 89.4714C68.0899 90.6647 67.9512 91.8856 67.9512 93.0789C67.9512 94.2722 68.0899 95.4656 68.3312 96.6257C68.4698 97.0346 68.362 97.5263 68.0077 97.8467L65.0249 100.697L67.4122 105.145L71.2113 103.808C71.5912 103.692 71.9967 103.78 72.2945 104.067C73.8141 105.642 76.0114 107.067 78.0753 107.675C78.4552 107.791 78.8043 108.111 78.8864 108.575L79.7027 112.763H84.5029L85.3192 108.575C85.4013 108.172 85.6683 107.819 86.079 107.703C88.0863 107.067 90.4171 105.725 91.8546 104.156C92.1267 103.835 92.5888 103.692 92.9943 103.835L96.7934 105.172L99.1807 100.725L96.1979 97.8743C95.9001 97.6146 95.7615 97.1782 95.8745 96.7418C96.1414 95.5484 96.28 94.3606 96.28 93.1342C96.28 91.9464 96.1414 90.7531 95.9001 89.5874C95.7615 89.1841 95.8745 88.6869 96.2236 88.3664L99.2115 85.5157L96.8242 81.0684L93.0251 82.4054C92.6452 82.5545 92.2345 82.4385 91.9368 82.1457C91.1513 81.2728 90.2272 80.5436 89.2517 79.9359ZM82.1413 82.9302C87.3779 82.9302 91.6133 87.4659 91.6133 93.0789C91.6133 98.6919 87.3779 103.228 82.1413 103.228C76.9047 103.228 72.6744 98.6919 72.6744 93.0789C72.6744 87.4935 76.9355 82.9302 82.1413 82.9302ZM87.3265 87.5543C82.742 82.6374 74.8461 86.129 74.8461 93.0789C74.8461 100.029 82.742 103.548 87.3265 98.6035C90.1758 95.5816 90.1758 90.6094 87.3265 87.5543ZM82.1413 62.1135C82.9319 62.1135 83.7174 62.1411 84.4772 62.1963V53.821L78.9686 59.7268C78.5322 60.1909 77.8545 60.1909 77.4489 59.7268L75.4673 57.6054V62.9256C77.6132 62.4007 79.8619 62.1135 82.1413 62.1135ZM86.6745 62.4891C91.0691 63.246 95.1146 65.0194 98.6108 67.6049V38.7057L86.6745 51.4951V62.4891ZM100.782 69.3783C113.751 81.096 114.593 102.15 102.6 115.001C91.3156 127.1 72.9979 127.1 61.7136 115.001C59.2442 112.354 57.2368 109.244 55.7685 105.813C51.1326 116.835 40.9008 124.078 29.3958 124.078C13.4191 124.105 0.476562 110.205 0.476562 93.1066C0.476562 87.2063 2.02186 81.6816 4.68122 76.9968L1.28772 73.3339C0.85647 72.8699 0.85647 72.1406 1.28772 71.7042L7.47405 65.0746C7.91043 64.6106 8.58811 64.6106 8.99368 65.0746L12.0073 68.3065C15.6677 65.3675 19.9853 63.3344 24.7034 62.4891V59.0583C22.6447 59.0583 21.0429 59.2627 19.3847 57.517C16.2941 54.2022 18.5427 48.5892 22.8295 48.5892H35.885C36.9426 48.5892 37.9437 48.9704 38.76 49.6057L62.4169 24.2533C62.8533 23.7892 63.531 23.7892 63.9622 24.2533L78.2087 39.5178L101.029 15.0658L96.4135 10.0937C95.8437 9.48042 96.0336 8.3755 96.9834 8.14347L123.382 0.232215C124.198 0.000181749 124.958 0.784676 124.712 1.68519L117.308 30.0375C117.088 30.9104 116.087 31.1701 115.491 30.5624L110.85 25.5902L100.782 36.3798V69.3783ZM54.6288 102.648C53.7098 99.6477 53.2221 96.4213 53.2221 93.0789C53.2221 89.7365 53.7098 86.5378 54.6288 83.5103C53.9255 81.3888 53.0014 79.3558 51.8616 77.494C51.836 77.4664 51.8103 77.4056 51.7846 77.3448C50.265 74.8477 48.3655 72.6102 46.1938 70.7484C44.4586 69.2955 43.016 68.2458 40.9573 67.2016C30.6484 61.909 18.4657 64.2625 10.4876 72.7815C0.0401815 83.9799 0.0401815 102.123 10.4876 113.316C19.7389 123.232 34.3345 124.542 44.972 116.371C49.3922 113.028 52.7857 108.227 54.6288 102.648ZM55.7685 80.3723C56.6926 78.1901 57.8324 76.1239 59.1877 74.2676V48.8212L50.1521 58.5059V64.8426C50.532 64.699 50.994 64.7874 51.2918 65.1078L57.4781 71.7373C57.9145 72.2014 57.9145 72.9251 57.4781 73.3616L54.0897 76.9968C54.7418 78.0741 55.2808 79.2066 55.7685 80.3723ZM61.3593 71.5605C64.645 67.9253 68.7111 65.163 73.2956 63.5941V55.3071L63.2024 44.4899L61.3337 46.4954V71.5605H61.3593ZM101.08 72.8423L98.9907 70.8037C95.2225 67.522 90.5814 65.3398 85.5091 64.6713C81.4123 64.2018 78.6708 64.4393 74.6561 65.5995C70.2872 66.9696 66.3803 69.4943 63.2589 72.8423C52.8422 84.0075 52.7857 102.15 63.2589 113.376C73.7063 124.569 90.6379 124.569 101.08 113.376C111.528 102.178 111.528 84.0075 101.08 72.8423ZM30.4841 87.4935C33.6825 88.1952 35.5821 91.858 34.391 95.1728L37.7537 97.4986C38.9499 98.3107 37.7794 100.289 36.5883 99.4488L33.2256 97.1229C29.8321 100.786 24.0514 98.1947 24.0514 93.1066C24.0514 90.3719 25.8688 88.046 28.3125 87.4935V80.0243C28.3125 78.5105 30.4841 78.5105 30.4841 80.0243V87.4935ZM31.6495 90.6923C29.6678 88.5708 26.223 90.0846 26.223 93.1066C26.223 96.134 29.6422 97.6423 31.6495 95.5208C32.8714 94.1839 32.8714 92.0016 31.6495 90.6923ZM28.3125 74.5549C28.3125 73.0135 30.4841 73.0135 30.4841 74.5549V75.9802C30.4841 77.494 28.3125 77.494 28.3125 75.9802V74.5549ZM44.9155 101.366C46.1374 102.123 45.0541 104.156 43.8322 103.371L42.6668 102.648C41.445 101.891 42.5026 99.8853 43.7501 100.637L44.9155 101.366ZM46.6815 91.9464C48.0934 91.9464 48.0934 94.2722 46.6815 94.2722H45.3519C43.9144 94.2722 43.9144 91.9464 45.3519 91.9464H46.6815ZM43.8322 82.8142C45.0541 82.0573 46.1374 84.0628 44.9155 84.8196L43.7501 85.5157C42.5026 86.2726 41.445 84.2672 42.6668 83.5103L43.8322 82.8142ZM19.8211 77.6376C19.1126 76.3283 20.9864 75.1681 21.6949 76.4775L22.3418 77.726C23.0503 79.0354 21.1764 80.1955 20.4731 78.8862L19.8211 77.6376ZM13.876 84.8473C12.6285 84.0959 13.7169 82.0849 14.9644 82.8418L16.1298 83.5711C17.3517 84.3279 16.2941 86.3334 15.0465 85.5765L13.876 84.8473ZM12.1151 94.2722C10.6776 94.2722 10.6776 91.9464 12.1151 91.9464H13.4448C14.8822 91.9464 14.8822 94.2722 13.4448 94.2722H12.1151ZM14.9644 103.371C13.7425 104.128 12.6593 102.123 13.876 101.366L15.0465 100.67C16.2684 99.9129 17.3517 101.918 16.1298 102.675L14.9644 103.371ZM21.6949 109.714C20.9864 111.051 19.0869 109.885 19.8211 108.548L20.4731 107.299C21.1764 105.99 23.0759 107.15 22.3418 108.459L21.6949 109.714ZM30.4841 111.631C30.4841 113.172 28.3125 113.172 28.3125 111.631V110.205C28.3125 108.664 30.4841 108.664 30.4841 110.205V111.631ZM38.9756 108.548C39.6789 109.885 37.8102 111.051 37.1017 109.714L36.424 108.459C35.7207 107.15 37.5894 105.99 38.2979 107.299L38.9756 108.548ZM37.1017 76.4775C37.8102 75.135 39.6789 76.3007 38.9756 77.6376L38.3236 78.8862C37.6202 80.1955 35.7207 79.0354 36.4548 77.726L37.1017 76.4775ZM29.3958 69.6104C41.5015 69.6104 51.2918 80.1127 51.2918 93.0789C51.2918 106.045 41.5015 116.542 29.3958 116.542C17.2952 116.542 7.50485 106.045 7.50485 93.0789C7.50485 80.1403 17.2952 69.6104 29.3958 69.6104ZM43.3445 78.1348C35.6386 69.8755 23.1324 69.8755 15.4264 78.1348C7.72048 86.3886 7.72048 99.7637 15.4264 108.023C23.1324 116.282 35.6386 116.282 43.3445 108.023C51.0505 99.7969 51.0505 86.3886 43.3445 78.1348ZM5.90308 75.019C7.20195 73.1019 8.69592 71.3561 10.349 69.7871L8.25954 67.5497L3.59283 72.5495L5.90308 75.019ZM26.9007 62.1963C28.5589 62.0527 30.212 62.0527 31.896 62.1963V59.0583H26.9007V62.1963ZM34.0625 62.4891C36.5627 62.9256 38.9499 63.7101 41.1986 64.7874L62.4426 42.0204C62.879 41.5508 63.5566 41.5508 63.993 42.0204L78.2344 57.2849L110.09 23.1152C110.521 22.6511 111.204 22.6511 111.635 23.1152L115.732 27.5072L122.109 3.02767L99.2628 9.88925L103.36 14.2758C103.796 14.7454 103.796 15.4691 103.36 15.9332L79.025 42.0204C78.5887 42.4845 77.911 42.4845 77.5054 42.0204L63.2589 26.7504L40.2231 51.3791C41.9892 54.8431 39.6019 59.086 35.9363 59.086H34.0625V62.4891ZM43.2624 65.8923C44.4842 66.616 45.6496 67.4005 46.7637 68.3065L48.0112 66.9641V60.8041L43.2624 65.8923ZM48.4425 69.7871C50.1007 71.3561 51.5947 73.1019 52.8936 75.019L55.1987 72.5495L50.532 67.5497L48.4425 69.7871ZM35.9363 50.9427H22.886C20.4987 50.9427 19.2512 54.0586 20.9608 55.8872C21.4485 56.412 22.1262 56.7325 22.886 56.7325H35.9363C38.3236 56.7325 39.5711 53.6221 37.8615 51.7879C37.3481 51.2631 36.6705 50.9427 35.9363 50.9427Z" fill="#E9E2D1"/>
</g>
</svg>
