<svg width="126" height="125" viewBox="0 0 126 125" fill="none" xmlns="http://www.w3.org/2000/svg">
<mask id="mask0_50_9897" style="mask-type:luminance" maskUnits="userSpaceOnUse" x="0" y="0" width="126" height="125">
<path d="M0.648438 0H125.648V125H0.648438V0Z" fill="white"/>
</mask>
<g mask="url(#mask0_50_9897)">
<path fill-rule="evenodd" clip-rule="evenodd" d="M84.0104 50.3206H102.21C102.539 50.3206 102.851 50.2571 103.146 50.1301C103.44 50.0031 103.684 49.8224 103.883 49.5928C104.075 49.3681 104.2 49.1093 104.257 48.8308C104.308 48.5524 104.291 48.274 104.189 48.0054C103.82 46.9747 103.299 46.0076 102.624 45.0991C101.955 44.1905 101.161 43.3699 100.237 42.6421C99.3129 41.9192 98.298 41.3038 97.1867 40.8104C96.0812 40.3171 94.9132 39.9557 93.6885 39.7261C92.4696 39.4965 91.2336 39.4086 89.9862 39.4623C88.7389 39.516 87.5199 39.7065 86.3293 40.0387C85.1386 40.3708 84.0217 40.83 82.9728 41.421C81.9239 42.0072 80.9827 42.7008 80.1493 43.5018C81.9919 45.5436 83.279 47.8149 84.0104 50.3206ZM44.9914 81.9821C50.5137 86.8325 56.9148 84.6051 62.9984 82.4804C67.8687 80.7806 72.5746 79.1394 77.1387 80.2188C78.0515 80.4386 78.9133 80.7464 79.7354 81.1518L100.135 91.1748C100.951 91.5705 101.666 92.0736 102.284 92.6744L104.092 92.0247L93.9323 69.4436C89.8672 71.0115 86.2442 69.7366 82.162 68.3006C77.8644 66.7864 72.9261 65.0475 66.525 67.734C63.6108 68.9551 60.9063 70.8845 58.6441 72.8578C56.4272 74.7775 54.0516 76.5457 51.5286 78.1673C49.4478 79.5155 47.265 80.7854 44.9914 81.9821ZM18.4119 55.2345L1.99806 87.233C1.80529 87.6091 1.7089 87.9999 1.69756 88.4053C1.68623 88.8156 1.7656 89.2064 1.93569 89.5874C2.10578 89.9684 2.35525 90.3054 2.68409 90.6033C3.00727 90.8964 3.38714 91.126 3.81803 91.2921L10.9732 94.0176C11.4041 94.1788 11.8577 94.2667 12.3283 94.2765C12.8045 94.2814 13.2581 94.213 13.7003 94.0665C14.1426 93.9199 14.5338 93.705 14.874 93.4266C15.2198 93.1433 15.4863 92.816 15.6791 92.4448L32.0929 60.4463C32.2856 60.0701 32.382 59.6794 32.3934 59.274C32.4047 58.8686 32.3253 58.4729 32.1552 58.0919C31.9851 57.7109 31.7357 57.3739 31.4068 57.0808C31.0837 56.7829 30.7038 56.5533 30.2729 56.3872L23.1234 53.6665C22.6925 53.5005 22.2389 53.4125 21.7627 53.4077C21.2921 53.3979 20.8328 53.4663 20.3906 53.6128C19.954 53.7593 19.5571 53.9743 19.217 54.2527C18.8768 54.536 18.6046 54.8632 18.4119 55.2345ZM109.688 57.5058L124.362 90.1295C124.532 90.5105 124.611 90.9013 124.6 91.3116C124.588 91.717 124.486 92.1078 124.299 92.479C124.107 92.8551 123.84 93.1824 123.5 93.4657C123.16 93.7441 122.768 93.959 122.326 94.1104L115.041 96.5429C114.598 96.6895 114.139 96.7579 113.669 96.7481C113.192 96.7383 112.739 96.6504 112.308 96.4892C111.877 96.3231 111.497 96.0936 111.168 95.8005C110.839 95.5025 110.59 95.1655 110.42 94.7894L95.741 62.1656C95.5709 61.7846 95.4915 61.3939 95.5028 60.9836C95.5142 60.5781 95.6162 60.1874 95.809 59.8162C96.0018 59.44 96.2626 59.1128 96.6084 58.8295C96.9486 58.5511 97.3398 58.3361 97.7821 58.1847L105.068 55.7522C105.51 55.6057 105.969 55.5373 106.44 55.5471C106.91 55.5568 107.364 55.6448 107.8 55.806C108.231 55.972 108.611 56.2016 108.94 56.4947C109.263 56.7926 109.518 57.1297 109.688 57.5058ZM104.092 60.7979C103.769 60.7979 103.457 60.8517 103.163 60.9591C102.862 61.0666 102.601 61.218 102.375 61.4134C102.148 61.6088 101.972 61.8335 101.847 62.0923C101.723 62.3463 101.66 62.615 101.66 62.8934C101.66 63.1669 101.723 63.4356 101.847 63.6945C101.972 63.9485 102.148 64.1732 102.375 64.3734C102.601 64.5688 102.862 64.7202 103.163 64.8228C103.457 64.9303 103.769 64.984 104.092 64.984C104.41 64.984 104.722 64.9303 105.022 64.8228C105.317 64.7202 105.578 64.5688 105.81 64.3734C106.037 64.1732 106.213 63.9485 106.332 63.6945C106.457 63.4356 106.519 63.1669 106.519 62.8934C106.519 62.615 106.457 62.3463 106.332 62.0923C106.213 61.8335 106.037 61.6088 105.81 61.4134C105.578 61.218 105.317 61.0666 105.022 60.9591C104.722 60.8517 104.41 60.7979 104.092 60.7979ZM23.8264 58.7464C24.1496 58.7611 24.4558 58.8246 24.7449 58.9418C25.0397 59.0639 25.2949 59.2251 25.5103 59.4303C25.7258 59.6354 25.8902 59.865 25.9979 60.1288C26.1056 60.3876 26.1567 60.6563 26.1397 60.9347C26.1227 61.2131 26.049 61.4769 25.9129 61.726C25.7768 61.98 25.5897 62.1998 25.3516 62.3854C25.1134 62.571 24.8413 62.7127 24.5408 62.8055C24.2346 62.8983 23.9228 62.9423 23.5996 62.9276C23.2821 62.9129 22.976 62.8494 22.6811 62.7322C22.392 62.615 22.1369 62.4538 21.9214 62.2486C21.7003 62.0435 21.5415 61.809 21.4281 61.5502C21.3204 61.2864 21.2751 61.0177 21.2864 60.7393C21.3034 60.4658 21.3771 60.1971 21.5189 59.948C21.6549 59.6989 21.842 59.4791 22.0802 59.2935C22.3183 59.103 22.5848 58.9614 22.8909 58.8686C23.1914 58.7757 23.5033 58.7367 23.8264 58.7464ZM70.8169 116.643C70.6809 117.517 70.3747 118.343 69.8928 119.119L67.9311 122.28C68.6058 122.612 69.3258 122.973 69.9835 123.291C70.386 123.471 70.8169 123.579 71.2705 123.618C71.7241 123.652 72.1663 123.618 72.6029 123.506C73.0395 123.393 73.4364 123.217 73.7935 122.973C74.1507 122.734 74.4399 122.441 74.6667 122.099C74.8991 121.742 75.0465 121.361 75.1032 120.951C75.1599 120.546 75.1259 120.145 74.9955 119.749C74.8708 119.354 74.6553 118.992 74.3605 118.67C74.0657 118.347 73.7085 118.089 73.2946 117.888L70.8169 116.643ZM44.2827 117.029C44.2204 117.385 44.226 117.742 44.2997 118.093C44.3734 118.445 44.5152 118.777 44.7193 119.09C44.9234 119.403 45.1842 119.676 45.496 119.915C45.8079 120.15 46.1594 120.335 46.5449 120.472C46.9305 120.609 47.333 120.687 47.7469 120.702C48.1608 120.721 48.569 120.682 48.9716 120.585C49.3741 120.482 49.7426 120.331 50.0828 120.121C50.423 119.915 50.7122 119.666 50.956 119.373L55.6335 111.695C55.7412 111.348 55.7752 110.996 55.7412 110.64C55.7072 110.283 55.6108 109.941 55.4407 109.614C55.2763 109.287 55.0495 108.994 54.766 108.73C54.4882 108.466 54.165 108.251 53.7965 108.085C53.428 107.914 53.0424 107.802 52.6342 107.748C52.2203 107.689 51.8121 107.694 51.4039 107.753C50.9957 107.816 50.6101 107.934 50.2473 108.11C49.8844 108.28 49.5669 108.5 49.2891 108.769L44.2827 117.029ZM45.1162 107.289L39.849 115.768C39.6222 116.149 39.3217 116.477 38.9419 116.755C38.5677 117.034 38.1368 117.239 37.6662 117.366C37.1899 117.498 36.708 117.542 36.2091 117.502C35.7158 117.468 35.2452 117.346 34.8086 117.146C34.3664 116.946 33.9922 116.677 33.6747 116.35C33.3629 116.018 33.1304 115.646 32.9887 115.236C32.8469 114.821 32.8016 114.406 32.8583 113.981C32.9093 113.551 33.0567 113.15 33.3005 112.779L38.6754 104.119C40.0475 103.034 41.5783 102.453 43.3926 103.288C45.2239 104.133 45.5924 105.682 45.1162 107.289ZM35.3699 101.408C35.5741 101.032 35.6818 100.636 35.7045 100.221C35.7271 99.8058 35.6534 99.4004 35.4947 99.0096C35.3303 98.6189 35.0921 98.2721 34.7746 97.9594C34.4515 97.6517 34.0773 97.4026 33.6464 97.217C33.2155 97.0363 32.7562 96.9288 32.28 96.8946C31.798 96.8653 31.3274 96.9142 30.8682 97.0412C30.409 97.1682 29.9951 97.3635 29.6265 97.6273C29.258 97.8959 28.9575 98.2086 28.7307 98.5749L24.983 104.612C24.7789 104.944 24.6429 105.296 24.5805 105.667C24.5238 106.043 24.5351 106.415 24.6259 106.781C24.7166 107.152 24.881 107.494 25.1078 107.816C25.3402 108.134 25.6294 108.407 25.9752 108.642C26.3211 108.871 26.701 109.047 27.1205 109.16C27.5344 109.277 27.9596 109.326 28.4019 109.311C28.8384 109.296 29.258 109.218 29.6606 109.072C30.0688 108.93 30.4316 108.73 30.7548 108.476L35.3699 101.408ZM55.2139 120.917L59.693 113.566C59.9935 113.272 60.345 113.038 60.7475 112.857C61.1501 112.681 61.581 112.569 62.0289 112.525C62.4768 112.476 62.9247 112.506 63.3613 112.598C63.8035 112.696 64.2061 112.857 64.5803 113.082C64.9488 113.302 65.2606 113.575 65.5158 113.898C65.7709 114.225 65.9523 114.577 66.0601 114.953C66.1621 115.334 66.1848 115.72 66.1281 116.105C66.0714 116.491 65.9353 116.858 65.7199 117.2L62.131 122.988C61.9212 123.325 61.6547 123.618 61.3202 123.872C60.9913 124.126 60.6228 124.321 60.2089 124.458C59.8007 124.595 59.3755 124.668 58.9332 124.678C58.491 124.683 58.0601 124.624 57.6462 124.502C57.2267 124.375 56.8468 124.194 56.5066 123.95C56.1664 123.711 55.8829 123.423 55.6618 123.095C55.4407 122.768 55.2876 122.416 55.2139 122.04C55.1345 121.669 55.1345 121.293 55.2139 120.917ZM22.3126 89.6069L33.7711 67.2699L34.1056 67.4018C38.3012 69.4094 42.1566 68.6327 46.3408 67.7877C49.8844 67.0697 53.7228 66.2979 58.0374 67.7877C54.7944 70.1665 52.2317 72.6283 48.6994 74.9142C46.1934 76.5212 43.591 77.9964 40.8866 79.3445C40.5067 79.5399 40.1892 79.7939 39.9341 80.1016C39.6789 80.4142 39.5088 80.7561 39.4238 81.1322C39.3387 81.5083 39.3501 81.8796 39.4521 82.2508C39.5542 82.622 39.7413 82.9591 40.0078 83.257C47.9964 92.1175 56.6143 89.1087 64.773 86.261C69.4902 84.6149 74.026 83.0372 77.3995 84.6979L97.8047 94.7161C98.2186 94.9164 98.5702 95.1753 98.8593 95.4928C99.1541 95.8103 99.3696 96.1668 99.5 96.5527C99.6304 96.9435 99.6701 97.344 99.6191 97.7445C99.5737 98.1499 99.4376 98.5309 99.2108 98.8875C98.984 99.2343 98.6949 99.5323 98.332 99.7814C97.9748 100.026 97.5723 100.206 97.1357 100.319C96.6935 100.431 96.2399 100.47 95.7863 100.431C95.3271 100.392 94.8905 100.284 94.4823 100.099C89.8501 97.7738 85.0819 95.5563 80.4158 93.2556C80.1436 93.1238 79.8545 93.0358 79.5426 93.0016C79.2308 92.9675 78.9246 92.987 78.6185 93.0603C78.318 93.1286 78.0402 93.2459 77.7907 93.4119C77.5469 93.578 77.3428 93.7783 77.184 94.0127C77.0309 94.2472 76.9346 94.5012 76.8949 94.7698C76.8552 95.0385 76.8722 95.3023 76.9572 95.5611C77.0423 95.8249 77.1784 96.0594 77.3711 96.2743C77.5582 96.4892 77.7907 96.6602 78.0685 96.7969C82.7347 99.1024 87.4349 101.369 92.1294 103.635C92.5376 103.826 92.8834 104.08 93.1726 104.392C93.4674 104.705 93.6772 105.057 93.8076 105.438C93.938 105.824 93.9777 106.214 93.9323 106.615C93.8813 107.01 93.7509 107.387 93.5298 107.738C93.3087 108.095 93.0195 108.398 92.6623 108.652C92.2995 108.906 91.9026 109.091 91.4547 109.209C91.0124 109.326 90.5589 109.37 90.0939 109.331C89.629 109.296 89.1925 109.184 88.7842 108.998C82.7177 105.931 76.4129 103 70.2727 100.026C70.0005 99.8937 69.7057 99.8156 69.3995 99.7863C69.0877 99.757 68.7872 99.7814 68.4867 99.8546C68.1862 99.9279 67.9141 100.05 67.6703 100.216C67.4265 100.382 67.228 100.582 67.0749 100.817C66.9219 101.051 66.8255 101.3 66.7915 101.569C66.7518 101.833 66.7744 102.097 66.8595 102.356C66.9389 102.614 67.0749 102.849 67.2677 103.064C67.4605 103.274 67.6873 103.445 67.9594 103.582C72.9884 106.019 78.0061 108.5 83.0352 110.928C83.4434 111.118 83.8006 111.372 84.0954 111.685C84.3902 111.998 84.6057 112.349 84.7361 112.735C84.8721 113.126 84.9118 113.517 84.8665 113.922C84.8154 114.323 84.6794 114.699 84.4583 115.055C84.2315 115.412 83.9423 115.715 83.5738 115.969C83.2109 116.223 82.8027 116.408 82.3548 116.526C81.9069 116.638 81.4476 116.677 80.9827 116.633C80.5178 116.594 80.0756 116.477 79.6674 116.281L68.9459 111.06C68.4243 110.513 67.8177 110.044 67.1316 109.648C66.4456 109.257 65.7142 108.955 64.9261 108.749C64.138 108.539 63.3329 108.437 62.5108 108.432C61.6887 108.427 60.878 108.52 60.0899 108.72C59.9254 108.271 59.7157 107.841 59.4549 107.426C59.194 107.01 58.8879 106.625 58.542 106.263C58.1905 105.902 57.805 105.57 57.3797 105.272C56.9602 104.974 56.5066 104.715 56.0247 104.49C55.5428 104.27 55.0438 104.09 54.5165 103.953C53.9949 103.816 53.462 103.718 52.9234 103.669C52.3791 103.621 51.8348 103.621 51.2905 103.665C50.7462 103.704 50.2132 103.792 49.686 103.923C49.3855 103.093 48.9262 102.331 48.3025 101.647C47.6845 100.959 46.9418 100.382 46.0857 99.9279C45.2239 99.4688 44.2997 99.1513 43.3075 98.9803C42.3153 98.8094 41.3231 98.7947 40.3253 98.9315C40.2062 98.2867 39.9908 97.6664 39.6733 97.0705C39.3614 96.4794 38.9589 95.9275 38.4769 95.4244C37.9894 94.9262 37.4394 94.4865 36.8157 94.1153C36.1921 93.7392 35.523 93.4461 34.8086 93.2263C34.0943 93.0114 33.3572 92.8795 32.6031 92.8307C31.8434 92.7867 31.095 92.8258 30.3523 92.9528C29.6039 93.0798 28.8951 93.2947 28.2204 93.5878C27.5401 93.8809 26.9221 94.2423 26.3551 94.6819C25.8505 92.5816 25.0568 90.5936 22.3126 89.602V89.6069ZM113.045 29.3562C115.608 33.1515 117.552 37.1666 118.879 41.4064C120.206 45.6461 120.863 49.9641 120.852 54.3552C120.852 54.6239 120.914 54.8828 121.034 55.1368C121.153 55.3859 121.323 55.6057 121.549 55.7962C121.771 55.9867 122.026 56.1381 122.315 56.2407C122.604 56.3433 122.91 56.397 123.222 56.397C123.534 56.397 123.84 56.3433 124.129 56.2407C124.418 56.1381 124.673 55.9867 124.895 55.7962C125.121 55.6057 125.291 55.3859 125.411 55.1368C125.53 54.8828 125.592 54.6239 125.592 54.3552C125.598 49.6026 124.883 44.9379 123.449 40.3513C122.014 35.7647 119.911 31.4175 117.138 27.3145C116.98 27.08 116.776 26.8846 116.526 26.7186C116.277 26.5525 116.004 26.4353 115.698 26.3669C115.398 26.2985 115.092 26.2839 114.78 26.318C114.468 26.3522 114.179 26.4402 113.907 26.572C113.635 26.7088 113.402 26.8846 113.215 27.0996C113.022 27.3145 112.886 27.5489 112.807 27.8127C112.727 28.0716 112.705 28.3354 112.75 28.604C112.79 28.8727 112.886 29.1218 113.045 29.3562ZM8.62028 24.1786C8.32545 24.2519 8.01929 24.2665 7.70745 24.2323C7.40129 24.1982 7.11213 24.1151 6.83999 23.9832C6.56784 23.8514 6.34105 23.6804 6.14828 23.4704C5.95551 23.2603 5.81377 23.0259 5.72873 22.767C5.64368 22.5081 5.621 22.2492 5.65502 21.9806C5.68904 21.7168 5.77975 21.4628 5.93283 21.2284C6.08025 20.9939 6.27869 20.7936 6.51681 20.6227C6.76061 20.4566 7.03276 20.3345 7.32758 20.2563L17.3403 17.7945C18.6103 16.6125 19.9427 15.4793 21.3318 14.3998C22.7208 13.3154 24.1666 12.2946 25.6634 11.3225C27.1602 10.3554 28.708 9.44688 30.3012 8.59697C31.8944 7.74706 33.5273 6.96065 35.1999 6.23774C36.8781 5.51483 38.5847 4.8603 40.3309 4.26927C42.0715 3.68313 43.8405 3.16049 45.6378 2.70622C47.4351 2.25685 49.2551 1.87097 51.092 1.56324C52.929 1.25063 54.783 1.01129 56.6427 0.840334C58.508 0.674259 60.3733 0.57657 62.2444 0.552146C64.121 0.532608 65.9864 0.581454 67.8574 0.703567C69.7227 0.82568 71.5824 1.01618 73.4307 1.28483C75.2733 1.54859 77.1047 1.88562 78.919 2.29104C80.7276 2.70134 82.5192 3.18002 84.2768 3.72221C86.0401 4.26927 87.7694 4.88472 89.4703 5.56367C91.1712 6.24262 92.8267 6.98996 94.4483 7.7959C96.0698 8.60674 97.646 9.47618 99.1711 10.4091L98.1676 7.36607C98.0826 7.10719 98.0599 6.84342 98.0996 6.57966C98.1393 6.31101 98.2356 6.0619 98.3887 5.82744C98.5418 5.59298 98.7402 5.39272 98.984 5.22664C99.2278 5.06057 99.5 4.93845 99.8005 4.86519C100.101 4.79192 100.407 4.77238 100.719 4.80169C101.025 4.83099 101.32 4.90915 101.592 5.04103C101.864 5.17291 102.097 5.33899 102.295 5.54902C102.488 5.75906 102.63 5.99351 102.72 6.25239L105.759 15.4353C105.861 15.7479 105.878 16.0654 105.805 16.3829C105.731 16.7053 105.578 16.9935 105.345 17.2524C105.113 17.5064 104.824 17.7066 104.484 17.8434C104.138 17.9802 103.775 18.0436 103.401 18.0339L92.4922 18.3709C92.1804 18.3807 91.8742 18.3367 91.5851 18.2439C91.2903 18.1462 91.0294 18.0095 90.797 17.8238C90.5702 17.6382 90.3888 17.4233 90.2584 17.1791C90.128 16.9349 90.0599 16.676 90.0486 16.4073C90.0372 16.1387 90.0883 15.8749 90.196 15.6258C90.3037 15.3718 90.4681 15.1471 90.6836 14.9469C90.8934 14.7515 91.1428 14.5952 91.4263 14.4828C91.7155 14.3705 92.0103 14.3119 92.3278 14.3021L97.1187 14.1507C95.707 13.2715 94.2555 12.446 92.7644 11.6742C91.2676 10.9025 89.7368 10.1942 88.1662 9.54457C86.5957 8.89492 84.9969 8.3039 83.364 7.78125C81.7368 7.25372 80.0812 6.79458 78.3973 6.39893C76.7191 5.9984 75.0239 5.67113 73.3059 5.40737C71.5937 5.1436 69.8701 4.94822 68.1352 4.81634C66.4002 4.68934 64.6596 4.62584 62.919 4.63073C61.1784 4.63561 59.4378 4.71377 57.7086 4.85542C55.9737 4.99707 54.2501 5.20222 52.5378 5.48064C50.8256 5.75417 49.1303 6.09609 47.4578 6.50639C45.7795 6.91669 44.1296 7.3856 42.5024 7.9229C40.8752 8.4602 39.282 9.061 37.7172 9.72041C36.158 10.3847 34.6329 11.1027 33.1418 11.8843C31.6563 12.6658 30.2105 13.501 28.8158 14.3949C27.4154 15.2888 26.066 16.2315 24.7619 17.2328C23.4636 18.2293 22.2162 19.2746 21.0256 20.3687L21.3885 29.068C21.3998 29.3416 21.3544 29.6004 21.2467 29.8544C21.1333 30.1084 20.9746 30.3331 20.7591 30.5334C20.5493 30.7337 20.2999 30.8851 20.0107 30.9974C19.7272 31.1098 19.4267 31.1733 19.1149 31.183C18.7974 31.1928 18.4969 31.1488 18.2021 31.056C17.9073 30.9583 17.6464 30.8216 17.4197 30.636C17.1872 30.4504 17.0114 30.2354 16.881 29.9863C16.7506 29.7421 16.6826 29.4832 16.6713 29.2146L16.4955 25.0871C12.9009 29.3318 10.1568 33.9574 8.26308 38.9592C6.37507 43.961 5.43957 49.0946 5.44524 54.3552C5.44524 54.6239 5.38854 54.8828 5.26948 55.1368C5.14474 55.3859 4.97465 55.6057 4.75354 55.7962C4.53242 55.9867 4.27728 56.1381 3.98246 56.2407C3.6933 56.3433 3.39281 56.397 3.08097 56.397C2.76347 56.397 2.46298 56.3433 2.17382 56.2407C1.879 56.1381 1.62386 55.9867 1.40274 55.7962C1.18162 55.6057 1.01153 55.3859 0.892466 55.1368C0.767734 54.8828 0.711036 54.6239 0.711036 54.3552C0.699697 48.7967 1.66922 43.3651 3.61959 38.0653C5.56997 32.7705 8.4105 27.8518 12.1412 23.3141L8.62028 24.1786ZM63.1515 23.2408C62.5959 23.2408 62.0402 23.2896 61.496 23.3824C60.9517 23.4752 60.4187 23.612 59.9028 23.7976C59.3925 23.9784 58.8992 24.2079 58.44 24.4717C57.9751 24.7403 57.5442 25.0432 57.153 25.3802C56.7561 25.7221 56.4046 26.0885 56.0984 26.489C55.7866 26.8895 55.5258 27.3096 55.316 27.7541C55.1005 28.1937 54.9418 28.6528 54.8284 29.1218C54.7207 29.5956 54.6696 30.0694 54.6696 30.548C54.6696 31.0267 54.7207 31.5054 54.8284 31.9743C54.9418 32.4481 55.1005 32.9024 55.316 33.3469C55.5258 33.7914 55.7866 34.2114 56.0984 34.612C56.4046 35.0076 56.7561 35.3788 57.153 35.7159C57.5442 36.0578 57.9751 36.3606 58.44 36.6244C58.8992 36.8931 59.3868 37.1177 59.9028 37.3034C60.4187 37.4841 60.9517 37.6257 61.496 37.7185C62.0402 37.8113 62.5902 37.8602 63.1515 37.8602C63.7071 37.8602 64.2571 37.8113 64.8071 37.7185C65.3514 37.6257 65.8786 37.4841 66.3946 37.3034C66.9105 37.1177 67.3981 36.8931 67.863 36.6244C68.3279 36.3606 68.7532 36.0578 69.1501 35.7159C69.5413 35.3788 69.8928 35.0076 70.2046 34.612C70.5108 34.2114 70.7716 33.7914 70.987 33.3469C71.1968 32.9024 71.3612 32.4481 71.469 31.9743C71.5767 31.5054 71.6334 31.0316 71.6334 30.548C71.6334 30.0694 71.5767 29.5956 71.469 29.1218C71.3612 28.6528 71.1968 28.1937 70.987 27.7541C70.7716 27.3096 70.5108 26.8895 70.2046 26.489C69.8928 26.0885 69.5413 25.7221 69.1501 25.3802C68.7532 25.0432 68.3279 24.7403 67.863 24.4717C67.3981 24.2079 66.9105 23.9784 66.3946 23.7976C65.8843 23.612 65.3514 23.4752 64.8071 23.3824C64.2571 23.2896 63.7071 23.2408 63.1515 23.2408ZM48.9659 53.31H77.3371C77.6603 53.31 77.9664 53.2465 78.2556 53.1243C78.5448 53.0022 78.7886 52.8264 78.9813 52.6066C79.1798 52.3868 79.3102 52.1377 79.3725 51.8641C79.4292 51.5906 79.4179 51.322 79.3328 51.0533C79.0947 50.2913 78.7829 49.5586 78.403 48.8406C78.0231 48.1275 77.5752 47.4388 77.065 46.7891C76.5547 46.1346 75.9877 45.524 75.3584 44.9476C74.7347 44.3762 74.0543 43.8535 73.3286 43.3748C72.6029 42.8961 71.8375 42.4712 71.0324 42.1048C70.2216 41.7336 69.3882 41.421 68.5207 41.1719C67.6589 40.9179 66.7744 40.7274 65.873 40.6004C64.9715 40.4734 64.0643 40.4099 63.1515 40.4099C62.2387 40.4099 61.3315 40.4734 60.43 40.6004C59.5286 40.7274 58.6441 40.9179 57.7766 41.1719C56.9092 41.421 56.0757 41.7336 55.2706 42.1048C54.4598 42.4712 53.6944 42.8961 52.9687 43.3748C52.243 43.8535 51.5683 44.3762 50.939 44.9476C50.3153 45.524 49.7427 46.1346 49.2324 46.7891C48.7221 47.4388 48.2799 48.1275 47.9 48.8406C47.5145 49.5586 47.2083 50.2913 46.9645 51.0533C46.8794 51.322 46.8681 51.5906 46.9305 51.8641C46.9928 52.1377 47.1232 52.3868 47.316 52.6066C47.5145 52.8264 47.7583 53.0022 48.0474 53.1243C48.3366 53.2465 48.6427 53.31 48.9659 53.31ZM35.6137 24.5743C35.1432 24.5743 34.6782 24.6133 34.219 24.6915C33.7598 24.7696 33.3118 24.8869 32.8809 25.0432C32.4444 25.1946 32.0305 25.3851 31.6393 25.6098C31.2537 25.8345 30.8909 26.0885 30.5564 26.3767C30.2275 26.6648 29.9327 26.9726 29.6719 27.3096C29.4054 27.6466 29.19 28.0032 29.0085 28.3744C28.8271 28.7505 28.691 29.1364 28.6003 29.5321C28.5096 29.9277 28.4642 30.3282 28.4642 30.7337C28.4642 31.1391 28.5096 31.5396 28.6003 31.9353C28.691 32.3309 28.8271 32.7168 29.0085 33.0929C29.19 33.4641 29.4054 33.8207 29.6719 34.1577C29.9327 34.4947 30.2275 34.8025 30.5564 35.0907C30.8909 35.3788 31.2537 35.6328 31.6393 35.8575C32.0305 36.0822 32.4444 36.2727 32.8809 36.4241C33.3118 36.5804 33.7598 36.6977 34.219 36.7758C34.6782 36.854 35.1432 36.8931 35.6137 36.8931C36.0843 36.8931 36.5492 36.854 37.0085 36.7758C37.4677 36.6977 37.9156 36.5804 38.3522 36.4241C38.7831 36.2727 39.197 36.0822 39.5882 35.8575C39.9794 35.6328 40.3366 35.3788 40.6711 35.0907C41.0056 34.8025 41.3005 34.4947 41.5613 34.1577C41.8221 33.8207 42.0432 33.4641 42.219 33.0929C42.4004 32.7168 42.5365 32.3309 42.6272 31.9353C42.7179 31.5396 42.7632 31.1391 42.7632 30.7337C42.7632 30.3282 42.7179 29.9277 42.6272 29.5321C42.5365 29.1364 42.4004 28.7505 42.219 28.3744C42.0432 28.0032 41.8221 27.6466 41.5613 27.3096C41.3005 26.9726 41.0056 26.6648 40.6711 26.3767C40.3366 26.0885 39.9794 25.8345 39.5882 25.6098C39.197 25.3851 38.7831 25.1946 38.3522 25.0432C37.9156 24.8869 37.4677 24.7696 37.0085 24.6915C36.5492 24.6133 36.0843 24.5743 35.6137 24.5743ZM90.6836 24.5743C90.2187 24.5743 89.7538 24.6133 89.2888 24.6915C88.8296 24.7696 88.3817 24.8869 87.9508 25.0432C87.5142 25.1946 87.106 25.3851 86.7148 25.6098C86.3236 25.8345 85.9607 26.0885 85.6319 26.3767C85.2974 26.6648 85.0025 26.9726 84.7417 27.3096C84.4809 27.6466 84.2598 28.0032 84.0784 28.3744C83.897 28.7505 83.7666 29.1364 83.6702 29.5321C83.5795 29.9277 83.5341 30.3282 83.5341 30.7337C83.5341 31.1391 83.5795 31.5396 83.6702 31.9353C83.7666 32.3309 83.897 32.7168 84.0784 33.0929C84.2598 33.4641 84.4809 33.8207 84.7417 34.1577C85.0025 34.4947 85.2974 34.8025 85.6319 35.0907C85.9607 35.3788 86.3236 35.6328 86.7148 35.8575C87.106 36.0822 87.5142 36.2727 87.9508 36.4241C88.3817 36.5804 88.8296 36.6977 89.2888 36.7758C89.7538 36.854 90.2187 36.8931 90.6836 36.8931C91.1542 36.8931 91.6191 36.854 92.0783 36.7758C92.5433 36.6977 92.9912 36.5804 93.4221 36.4241C93.8586 36.2727 94.2668 36.0822 94.6581 35.8575C95.0493 35.6328 95.4121 35.3788 95.741 35.0907C96.0755 34.8025 96.3703 34.4947 96.6311 34.1577C96.8919 33.8207 97.113 33.4641 97.2945 33.0929C97.4702 32.7168 97.6063 32.3309 97.697 31.9353C97.7934 31.5396 97.8388 31.1391 97.8388 30.7337C97.8388 30.3282 97.7934 29.9277 97.697 29.5321C97.6063 29.1364 97.4702 28.7505 97.2945 28.3744C97.113 28.0032 96.8919 27.6466 96.6311 27.3096C96.3703 26.9726 96.0755 26.6648 95.741 26.3767C95.4121 26.0885 95.0493 25.8345 94.6581 25.6098C94.2668 25.3851 93.8586 25.1946 93.4221 25.0432C92.9912 24.8869 92.5433 24.7696 92.0783 24.6915C91.6191 24.6133 91.1542 24.5743 90.6836 24.5743ZM24.0872 50.3206H42.287C43.0184 47.8149 44.3054 45.5436 46.1481 43.5018C45.3146 42.7008 44.3734 42.0072 43.3245 41.421C42.2756 40.83 41.1587 40.3708 39.9681 40.0387C38.7831 39.7065 37.5641 39.516 36.3168 39.4623C35.0638 39.4086 33.8335 39.4965 32.6088 39.7261C31.3898 39.9557 30.2219 40.3171 29.1106 40.8104C27.9993 41.3038 26.9845 41.9192 26.066 42.6421C25.1418 43.3699 24.3424 44.1905 23.6733 45.0991C23.0043 46.0076 22.4827 46.9747 22.1085 48.0054C22.0121 48.274 21.9894 48.5524 22.0461 48.8308C22.0972 49.1093 22.2219 49.3681 22.4203 49.5928C22.6131 49.8224 22.8626 50.0031 23.1517 50.1301C23.4466 50.2571 23.7584 50.3206 24.0872 50.3206Z" fill="#E9E2D1"/>
</g>
</svg>
