<svg width="97" height="91" viewBox="0 0 97 91" fill="none" xmlns="http://www.w3.org/2000/svg">
<path d="M7.09797 33.834C6.9105 33.834 6.72939 33.8667 6.55781 33.9351C6.38305 34.0005 6.23054 34.0957 6.09708 34.2206C5.96363 34.3455 5.86196 34.4883 5.79205 34.6489C5.71897 34.8125 5.68402 34.979 5.68402 35.1545C5.68402 35.33 5.71897 35.4995 5.79205 35.6601C5.86196 35.8237 5.96363 35.9665 6.09708 36.0884C6.23054 36.2133 6.38305 36.3085 6.55781 36.3769C6.72939 36.4423 6.9105 36.478 7.09797 36.478H8.98535C9.17282 36.478 9.35393 36.4423 9.52869 36.3769C9.70027 36.3085 9.85596 36.2133 9.98624 36.0884C10.1197 35.9665 10.2214 35.8237 10.2944 35.6601C10.3675 35.4995 10.4025 35.33 10.4025 35.1545C10.4025 34.979 10.3675 34.8125 10.2944 34.6489C10.2214 34.4883 10.1197 34.3455 9.98624 34.2206C9.85596 34.0957 9.70027 34.0005 9.52869 33.9351C9.35393 33.8667 9.17282 33.834 8.98535 33.834H7.09797Z" fill="#E9E2D1"/>
<path d="M14.6482 33.834C14.4607 33.834 14.2796 33.8667 14.108 33.9351C13.9333 34.0005 13.7808 34.0957 13.6473 34.2206C13.517 34.3455 13.4122 34.4883 13.3423 34.6489C13.2692 34.8125 13.2343 34.979 13.2343 35.1545C13.2343 35.33 13.2692 35.4995 13.3423 35.6601C13.4122 35.8237 13.517 35.9665 13.6473 36.0884C13.7808 36.2133 13.9333 36.3085 14.108 36.3769C14.2796 36.4423 14.4607 36.478 14.6482 36.478H16.5356C16.723 36.478 16.9042 36.4423 17.0789 36.3769C17.2505 36.3085 17.4062 36.2133 17.5365 36.0884C17.6699 35.9665 17.7716 35.8237 17.8447 35.6601C17.9178 35.4995 17.9527 35.33 17.9527 35.1545C17.9527 34.979 17.9178 34.8125 17.8447 34.6489C17.7716 34.4883 17.6699 34.3455 17.5365 34.2206C17.4062 34.0957 17.2505 34.0005 17.0789 33.9351C16.9042 33.8667 16.723 33.834 16.5356 33.834H14.6482Z" fill="#E9E2D1"/>
<path d="M67.0243 61.5886C67.0243 61.4132 66.9894 61.2436 66.9163 61.083C66.8464 60.9195 66.7447 60.7767 66.6113 60.6518C66.4778 60.5298 66.3253 60.4347 66.1506 60.3663C65.979 60.3008 65.7979 60.2651 65.6104 60.2651H59.9483C59.7608 60.2651 59.5797 60.3008 59.4049 60.3663C59.2333 60.4347 59.0808 60.5298 58.9474 60.6518C58.8139 60.7767 58.7122 60.9195 58.6392 61.083C58.5693 61.2436 58.5311 61.4132 58.5311 61.5886V72.1617C58.5311 72.3372 58.5693 72.5038 58.6392 72.6674C58.7122 72.828 58.8139 72.9707 58.9474 73.0956C59.0808 73.2205 59.2333 73.3157 59.4049 73.3811C59.5797 73.4496 59.7608 73.4823 59.9483 73.4823H65.6104C65.7979 73.4823 65.979 73.4496 66.1506 73.3811C66.3253 73.3157 66.4778 73.2205 66.6113 73.0956C66.7447 72.9707 66.8464 72.828 66.9163 72.6674C66.9894 72.5038 67.0243 72.3372 67.0243 72.1617V61.5886ZM64.1933 70.8382H61.3622V62.9092H64.1933V70.8382Z" fill="#E9E2D1"/>
<path d="M54.378 72.1617V61.5886C54.378 61.4132 54.343 61.2436 54.2731 61.083C54.2 60.9195 54.0983 60.7767 53.9649 60.6518C53.8314 60.5298 53.6789 60.4347 53.5042 60.3663C53.3326 60.3008 53.1515 60.2651 52.964 60.2651H39.7523C39.5649 60.2651 39.3838 60.3008 39.209 60.3663C39.0374 60.4347 38.8849 60.5298 38.7514 60.6518C38.618 60.7767 38.5163 60.9195 38.4432 61.083C38.3733 61.2436 38.3352 61.4132 38.3352 61.5886V72.1617C38.3352 72.3372 38.3733 72.5038 38.4432 72.6674C38.5163 72.828 38.618 72.9707 38.7514 73.0956C38.8849 73.2205 39.0374 73.3157 39.209 73.3811C39.3838 73.4496 39.5649 73.4823 39.7523 73.4823H52.964C53.1515 73.4823 53.3326 73.4496 53.5042 73.3811C53.6789 73.3157 53.8314 73.2205 53.9649 73.0956C54.0983 72.9707 54.2 72.828 54.2731 72.6674C54.343 72.5038 54.378 72.3372 54.378 72.1617ZM51.5469 70.8382H41.1663V62.9092H51.5469V70.8382Z" fill="#E9E2D1"/>
<path d="M67.024 49.2522C67.024 49.0767 66.9891 48.9101 66.916 48.7466C66.8461 48.586 66.7444 48.4432 66.611 48.3183C66.4775 48.1934 66.325 48.0982 66.1503 48.0328C65.9787 47.9644 65.7976 47.9316 65.6101 47.9316H39.7523C39.5649 47.9316 39.3838 47.9644 39.209 48.0328C39.0374 48.0982 38.8849 48.1934 38.7514 48.3183C38.618 48.4432 38.5163 48.586 38.4432 48.7466C38.3733 48.9101 38.3352 49.0767 38.3352 49.2522V54.5402C38.3352 54.7157 38.3733 54.8822 38.4432 55.0458C38.5163 55.2064 38.618 55.3492 38.7514 55.4741C38.8849 55.599 39.0374 55.6942 39.209 55.7596C39.3838 55.828 39.5649 55.8607 39.7523 55.8607H65.6101C65.7976 55.8607 65.9787 55.828 66.1503 55.7596C66.325 55.6942 66.4775 55.599 66.611 55.4741C66.7444 55.3492 66.8461 55.2064 66.916 55.0458C66.9891 54.8822 67.024 54.7157 67.024 54.5402V49.2522ZM64.193 53.2167H41.1663V50.5757H64.193V53.2167Z" fill="#E9E2D1"/>
<path d="M47.3016 80.5312H65.6099C65.7974 80.5312 65.9785 80.4985 66.15 80.4301C66.3248 80.3647 66.4773 80.2695 66.6108 80.1446C66.7442 80.0197 66.8459 79.8769 66.9158 79.7163C66.9889 79.5527 67.0238 79.3862 67.0238 79.2107C67.0238 79.0352 66.9889 78.8657 66.9158 78.7051C66.8459 78.5415 66.7442 78.3988 66.6108 78.2738C66.4773 78.1519 66.3248 78.0567 66.15 77.9883C65.9785 77.9229 65.7974 77.8872 65.6099 77.8872H47.3016C47.1142 77.8872 46.9331 77.9229 46.7583 77.9883C46.5867 78.0567 46.4342 78.1519 46.3008 78.2738C46.1673 78.3988 46.0656 78.5415 45.9926 78.7051C45.9227 78.8657 45.8845 79.0352 45.8845 79.2107C45.8845 79.3862 45.9227 79.5527 45.9926 79.7163C46.0656 79.8769 46.1673 80.0197 46.3008 80.1446C46.4342 80.2695 46.5867 80.3647 46.7583 80.4301C46.9331 80.4985 47.1142 80.5312 47.3016 80.5312Z" fill="#E9E2D1"/>
<path d="M39.7523 77.8872C39.5649 77.8872 39.3838 77.9229 39.209 77.9883C39.0374 78.0567 38.8849 78.1519 38.7514 78.2738C38.618 78.3988 38.5163 78.5415 38.4432 78.7051C38.3733 78.8657 38.3352 79.0352 38.3352 79.2107C38.3352 79.3862 38.3733 79.5527 38.4432 79.7163C38.5163 79.8769 38.618 80.0197 38.7514 80.1446C38.8849 80.2695 39.0374 80.3647 39.209 80.4301C39.3838 80.4985 39.5649 80.5312 39.7523 80.5312H41.6397C41.8272 80.5312 42.0083 80.4985 42.1799 80.4301C42.3546 80.3647 42.5071 80.2695 42.6406 80.1446C42.774 80.0197 42.8757 79.8769 42.9456 79.7163C43.0187 79.5527 43.0537 79.3862 43.0537 79.2107C43.0537 79.0352 43.0187 78.8657 42.9456 78.7051C42.8757 78.5415 42.774 78.3988 42.6406 78.2738C42.5071 78.1519 42.3546 78.0567 42.1799 77.9883C42.0083 77.9229 41.8272 77.8872 41.6397 77.8872H39.7523Z" fill="#E9E2D1"/>
<mask id="mask0_80_2655" style="mask-type:luminance" maskUnits="userSpaceOnUse" x="0" y="29" width="75" height="62">
<path d="M0 29.3608H74.6215V90.2239H0V29.3608Z" fill="white"/>
</mask>
<g mask="url(#mask0_80_2655)">
<path d="M73.1601 44.4075C72.9726 44.4075 72.7915 44.4402 72.6168 44.5086C72.4452 44.5741 72.2927 44.6692 72.1592 44.7942C72.0258 44.9191 71.9241 45.0618 71.851 45.2224C71.7811 45.386 71.743 45.5526 71.743 45.728V87.5803H33.6172V40.8831H42.9715C43.159 40.8831 43.3369 40.8504 43.5117 40.782C43.6864 40.7136 43.839 40.6184 43.9724 40.4965C44.1027 40.3716 44.2075 40.2288 44.2774 40.0682C44.3505 39.9047 44.3855 39.7351 44.3855 39.5597C44.3855 39.3872 44.3505 39.2176 44.2774 39.054C44.2075 38.8934 44.1027 38.7507 43.9724 38.6258C43.839 38.5038 43.6864 38.4057 43.5117 38.3402C43.3369 38.2718 43.159 38.2391 42.9715 38.2391H2.85353V32.0707H45.1766C45.3641 32.0707 45.5452 32.038 45.7168 31.9726C45.8916 31.9042 46.0441 31.809 46.1775 31.6841C46.311 31.5622 46.4127 31.4164 46.4857 31.2558C46.5556 31.0952 46.5938 30.9257 46.5938 30.7502C46.5938 30.5747 46.5556 30.4052 46.4857 30.2446C46.4127 30.081 46.311 29.9383 46.1775 29.8163C46.0441 29.6914 45.8916 29.5962 45.7168 29.5278C45.5452 29.4624 45.3641 29.4297 45.1766 29.4297H1.43641C1.24894 29.4297 1.06783 29.4624 0.896249 29.5278C0.721492 29.5962 0.568976 29.6914 0.435524 29.8163C0.302073 29.9383 0.200396 30.081 0.130493 30.2446C0.0574123 30.4052 0.0224609 30.5747 0.0224609 30.7502V88.9008C0.0224609 89.0763 0.0574123 89.2458 0.130493 89.4094C0.200396 89.57 0.302073 89.7128 0.435524 89.8377C0.568976 89.9596 0.721492 90.0548 0.896249 90.1232C1.06783 90.1916 1.24894 90.2243 1.43641 90.2243H73.1601C73.3476 90.2243 73.5287 90.1916 73.7003 90.1232C73.875 90.0548 74.0275 89.9596 74.161 89.8377C74.2944 89.7128 74.3961 89.57 74.466 89.4094C74.5391 89.2458 74.5741 89.0763 74.5741 88.9008V45.728C74.5741 45.5526 74.5391 45.386 74.466 45.2224C74.3961 45.0618 74.2944 44.9191 74.161 44.7942C74.0275 44.6692 73.875 44.5741 73.7003 44.5086C73.5287 44.4402 73.3476 44.4075 73.1601 44.4075ZM30.7862 87.5803H2.85353V40.8831H30.7862V87.5803Z" fill="#E9E2D1"/>
</g>
<path d="M20.9205 56.5649C21.0444 56.6988 21.1874 56.8058 21.3558 56.8832C21.5242 56.9635 21.6989 57.0081 21.8864 57.0229C22.0739 57.0378 22.2582 57.017 22.4361 56.9605C22.614 56.9069 22.7729 56.8237 22.9159 56.7107L27.1768 53.2993C27.3357 53.1714 27.4564 53.0227 27.5422 52.8472C27.628 52.6718 27.6725 52.4874 27.6725 52.294C27.6725 52.1007 27.628 51.9163 27.5422 51.7408C27.4564 51.5683 27.3357 51.4167 27.1768 51.2917L22.9159 47.8804C22.7729 47.7674 22.614 47.6841 22.4361 47.6306C22.2582 47.577 22.0739 47.5562 21.8896 47.5711C21.7021 47.586 21.5274 47.6306 21.359 47.7109C21.1937 47.7912 21.0476 47.8953 20.9268 48.0291C20.8061 48.16 20.7171 48.3116 20.6567 48.4752C20.5996 48.6418 20.5773 48.8113 20.59 48.9868C20.6059 49.1593 20.6536 49.3258 20.7362 49.4805C20.822 49.6381 20.9332 49.772 21.073 49.8879L24.082 52.294L21.073 54.7001C20.93 54.8161 20.8156 54.95 20.733 55.1076C20.6472 55.2622 20.5964 55.4288 20.5837 55.6043C20.5678 55.7797 20.59 55.9493 20.6504 56.1158C20.7076 56.2824 20.7997 56.4311 20.9205 56.5649Z" fill="#E9E2D1"/>
<path d="M6.46272 53.2963L10.7236 56.7077C10.8666 56.8207 11.0255 56.904 11.2034 56.9575C11.3813 57.011 11.5656 57.0289 11.7499 57.017C11.9374 57.0021 12.1122 56.9545 12.2806 56.8772C12.4458 56.7969 12.5888 56.6898 12.7127 56.559C12.8334 56.4251 12.9224 56.2764 12.9828 56.1099C13.04 55.9463 13.0622 55.7768 13.0495 55.6013C13.0336 55.4288 12.9859 55.2622 12.9033 55.1076C12.8175 54.95 12.7063 54.8161 12.5665 54.7001L9.55752 52.294L12.5665 49.8879C12.7063 49.772 12.8175 49.6381 12.9033 49.4805C12.9859 49.3258 13.0336 49.1593 13.0495 48.9868C13.0622 48.8113 13.04 48.6418 12.9828 48.4752C12.9224 48.3116 12.8334 48.16 12.7127 48.0291C12.5888 47.8953 12.4458 47.7912 12.2806 47.7109C12.1122 47.6306 11.9374 47.586 11.7499 47.5711C11.5656 47.5562 11.3813 47.577 11.2034 47.6306C11.0255 47.6841 10.8666 47.7674 10.7236 47.8804L6.46272 51.2888C6.30385 51.4137 6.18311 51.5654 6.09731 51.7408C6.00835 51.9163 5.96704 52.1007 5.96704 52.294C5.96704 52.4844 6.00835 52.6688 6.09731 52.8443C6.18311 53.0197 6.30385 53.1714 6.46272 53.2963Z" fill="#E9E2D1"/>
<path d="M14.9564 59.2598C15.0676 59.2866 15.182 59.3014 15.2996 59.3014C15.6237 59.2985 15.9128 59.2063 16.1702 59.0189C16.4244 58.8345 16.5928 58.5936 16.6722 58.2991L19.7162 46.929C19.7638 46.7594 19.7765 46.5869 19.748 46.4115C19.7225 46.236 19.6622 46.0724 19.5668 45.9178C19.4715 45.7661 19.3476 45.6382 19.1951 45.5311C19.0426 45.427 18.8742 45.3527 18.6899 45.3081C18.5056 45.2664 18.3213 45.2575 18.1338 45.2843C17.9464 45.311 17.7716 45.3705 17.6096 45.4627C17.4475 45.5549 17.3109 45.6709 17.1997 45.8137C17.0885 45.9594 17.0122 46.117 16.9677 46.2895L13.9238 57.6567C13.8793 57.8292 13.8697 57.9988 13.8983 58.1742C13.9238 58.3467 13.9873 58.5073 14.0826 58.659C14.1811 58.8077 14.305 58.9356 14.4544 59.0397C14.6069 59.1438 14.7721 59.2182 14.9564 59.2598Z" fill="#E9E2D1"/>
<path d="M26.2583 63.7061H13.0434C12.856 63.7061 12.678 63.7388 12.5033 63.8072C12.3285 63.8726 12.176 63.9678 12.0425 64.0927C11.9123 64.2176 11.8074 64.3604 11.7375 64.521C11.6644 64.6846 11.6295 64.8511 11.6295 65.0266C11.6295 65.2021 11.6644 65.3716 11.7375 65.5322C11.8074 65.6958 11.9123 65.8385 12.0425 65.9605C12.176 66.0854 12.3285 66.1805 12.5033 66.249C12.678 66.3144 12.856 66.3501 13.0434 66.3501H26.2583C26.4458 66.3501 26.6237 66.3144 26.7984 66.249C26.9732 66.1805 27.1257 66.0854 27.2592 65.9605C27.3894 65.8385 27.4943 65.6958 27.5642 65.5322C27.6373 65.3716 27.6722 65.2021 27.6722 65.0266C27.6722 64.8511 27.6373 64.6846 27.5642 64.521C27.4943 64.3604 27.3894 64.2176 27.2592 64.0927C27.1257 63.9678 26.9732 63.8726 26.7984 63.8072C26.6237 63.7388 26.4458 63.7061 26.2583 63.7061Z" fill="#E9E2D1"/>
<path d="M7.38099 66.3501H8.32468C8.51215 66.3501 8.69326 66.3144 8.86802 66.249C9.0396 66.1805 9.19529 66.0854 9.32556 65.9605C9.45902 65.8385 9.56069 65.6958 9.63377 65.5322C9.70685 65.3716 9.74181 65.2021 9.74181 65.0266C9.74181 64.8511 9.70685 64.6846 9.63377 64.521C9.56069 64.3604 9.45902 64.2176 9.32556 64.0927C9.19529 63.9678 9.0396 63.8726 8.86802 63.8072C8.69326 63.7388 8.51215 63.7061 8.32468 63.7061H7.38099C7.19352 63.7061 7.01241 63.7388 6.84083 63.8072C6.66607 63.8726 6.51356 63.9678 6.3801 64.0927C6.24983 64.2176 6.14498 64.3604 6.07507 64.521C6.00199 64.6846 5.96704 64.8511 5.96704 65.0266C5.96704 65.2021 6.00199 65.3716 6.07507 65.5322C6.14498 65.6958 6.24983 65.8385 6.3801 65.9605C6.51356 66.0854 6.66607 66.1805 6.84083 66.249C7.01241 66.3144 7.19352 66.3501 7.38099 66.3501Z" fill="#E9E2D1"/>
<path d="M26.2583 74.9219H13.0434C12.856 74.9219 12.678 74.9546 12.5033 75.023C12.3285 75.0914 12.176 75.1866 12.0425 75.3085C11.9123 75.4334 11.8074 75.5762 11.7375 75.7368C11.6644 75.9004 11.6295 76.0699 11.6295 76.2454C11.6295 76.4179 11.6644 76.5874 11.7375 76.751C11.8074 76.9116 11.9123 77.0543 12.0425 77.1793C12.176 77.3012 12.3285 77.3993 12.5033 77.4648C12.678 77.5332 12.856 77.5659 13.0434 77.5659H26.2583C26.4458 77.5659 26.6237 77.5332 26.7984 77.4648C26.9732 77.3993 27.1257 77.3012 27.2592 77.1793C27.3894 77.0543 27.4943 76.9116 27.5642 76.751C27.6373 76.5874 27.6722 76.4179 27.6722 76.2454C27.6722 76.0699 27.6373 75.9004 27.5642 75.7368C27.4943 75.5762 27.3894 75.4334 27.2592 75.3085C27.1257 75.1866 26.9732 75.0914 26.7984 75.023C26.6237 74.9546 26.4458 74.9219 26.2583 74.9219Z" fill="#E9E2D1"/>
<path d="M7.38099 77.5659H8.32468C8.51215 77.5659 8.69326 77.5332 8.86802 77.4648C9.0396 77.3993 9.19529 77.3012 9.32556 77.1793C9.45902 77.0543 9.56069 76.9116 9.63377 76.751C9.70685 76.5874 9.74181 76.4179 9.74181 76.2454C9.74181 76.0699 9.70685 75.9004 9.63377 75.7368C9.56069 75.5762 9.45902 75.4334 9.32556 75.3085C9.19529 75.1866 9.0396 75.0914 8.86802 75.023C8.69326 74.9546 8.51215 74.9219 8.32468 74.9219H7.38099C7.19352 74.9219 7.01241 74.9546 6.84083 75.023C6.66607 75.0914 6.51356 75.1866 6.3801 75.3085C6.24983 75.4334 6.14498 75.5762 6.07507 75.7368C6.00199 75.9004 5.96704 76.0699 5.96704 76.2454C5.96704 76.4179 6.00199 76.5874 6.07507 76.751C6.14498 76.9116 6.24983 77.0543 6.3801 77.1793C6.51356 77.3012 6.66607 77.3993 6.84083 77.4648C7.01241 77.5332 7.19352 77.5659 7.38099 77.5659Z" fill="#E9E2D1"/>
<path d="M7.38099 71.9565H26.258C26.4455 71.9565 26.6234 71.9238 26.7981 71.8554C26.9729 71.79 27.1254 71.6918 27.2589 71.5699C27.3891 71.445 27.494 71.3022 27.5639 71.1416C27.637 70.978 27.6719 70.8115 27.6719 70.636C27.6719 70.4605 27.637 70.291 27.5639 70.1304C27.494 69.9668 27.3891 69.8241 27.2589 69.6991C27.1254 69.5772 26.9729 69.482 26.7981 69.4136C26.6234 69.3482 26.4455 69.3125 26.258 69.3125H7.38099C7.19352 69.3125 7.01241 69.3482 6.84083 69.4136C6.66607 69.482 6.51356 69.5772 6.3801 69.6991C6.24983 69.8241 6.14498 69.9668 6.07507 70.1304C6.00199 70.291 5.96704 70.4605 5.96704 70.636C5.96704 70.8115 6.00199 70.978 6.07507 71.1416C6.14498 71.3022 6.24983 71.445 6.3801 71.5699C6.51356 71.6948 6.66607 71.79 6.84083 71.8554C7.01241 71.9238 7.19352 71.9565 7.38099 71.9565Z" fill="#E9E2D1"/>
<path d="M7.38099 83.1753H26.258C26.4455 83.1753 26.6234 83.1426 26.7981 83.0742C26.9729 83.0057 27.1254 82.9106 27.2589 82.7886C27.3891 82.6637 27.494 82.521 27.5639 82.3604C27.637 82.1968 27.6719 82.0272 27.6719 81.8518C27.6719 81.6793 27.637 81.5097 27.5639 81.3462C27.494 81.1856 27.3891 81.0428 27.2589 80.9179C27.1254 80.7959 26.9729 80.6978 26.7981 80.6324C26.6234 80.564 26.4455 80.5312 26.258 80.5312H7.38099C7.19352 80.5312 7.01241 80.564 6.84083 80.6324C6.66607 80.6978 6.51356 80.7959 6.3801 80.9179C6.24983 81.0428 6.14498 81.1856 6.07507 81.3462C6.00199 81.5097 5.96704 81.6793 5.96704 81.8518C5.96704 82.0272 6.00199 82.1968 6.07507 82.3604C6.14498 82.521 6.24983 82.6637 6.3801 82.7886C6.51356 82.9106 6.66607 83.0057 6.84083 83.0742C7.01241 83.1426 7.19352 83.1753 7.38099 83.1753Z" fill="#E9E2D1"/>
<path d="M70.7105 32.2192H73.5416V34.8633H70.7105V32.2192Z" fill="#E9E2D1"/>
<path d="M72.1206 11.0728C71.9236 11.0728 71.7297 11.0936 71.5359 11.1322C71.3421 11.1679 71.1546 11.2274 70.9767 11.3018C70.7956 11.3761 70.624 11.4683 70.4651 11.5784C70.3063 11.6854 70.1601 11.8074 70.0298 11.9472C69.8964 12.084 69.782 12.2327 69.6835 12.3933C69.585 12.5509 69.5056 12.7204 69.4452 12.8959C69.3848 13.0714 69.3467 13.2498 69.3276 13.4342C69.3054 13.6186 69.3086 13.8001 69.3308 13.9844L70.5573 24.2899H73.687L74.9135 13.9844C74.9357 13.8001 74.9389 13.6186 74.9167 13.4342C74.8976 13.2498 74.8595 13.0714 74.7991 12.8959C74.7387 12.7204 74.6593 12.5509 74.5608 12.3903C74.4623 12.2327 74.3479 12.084 74.2145 11.9442C74.0842 11.8074 73.938 11.6854 73.7792 11.5754C73.6171 11.4683 73.4487 11.3761 73.2676 11.3018C73.0865 11.2244 72.899 11.1679 72.7084 11.1293C72.5146 11.0906 72.3176 11.0728 72.1206 11.0728Z" fill="#E9E2D1"/>
<mask id="mask1_80_2655" style="mask-type:luminance" maskUnits="userSpaceOnUse" x="46" y="0" width="51" height="42">
<path d="M46.9647 0H96.9994V41.543H46.9647V0Z" fill="white"/>
</mask>
<g mask="url(#mask1_80_2655)">
<path d="M95.6341 30.7676L78.5238 3.4292C78.3585 3.16747 78.1806 2.92062 77.9836 2.68269C77.7866 2.44475 77.5705 2.21872 77.3418 2.00755C77.113 1.79639 76.8715 1.59712 76.6141 1.4157C76.3599 1.23427 76.0899 1.06772 75.8103 0.916039C75.5338 0.767331 75.2447 0.636469 74.946 0.520477C74.6473 0.404484 74.3423 0.309311 74.0309 0.231984C73.7195 0.154656 73.405 0.0951727 73.084 0.0565089C72.7663 0.0178451 72.4454 0 72.1213 0C71.8004 0 71.4794 0.0178451 71.1585 0.0565089C70.8408 0.0951727 70.523 0.154656 70.2117 0.231984C69.9003 0.309311 69.5952 0.404484 69.2997 0.520477C69.0011 0.636469 68.7119 0.767331 68.4323 0.916039C68.1527 1.06772 67.8858 1.23427 67.6284 1.4157C67.371 1.59712 67.1296 1.79639 66.9008 2.00755C66.672 2.21872 66.4591 2.44475 66.2621 2.68269C66.0651 2.92062 65.884 3.16747 65.722 3.4292L48.6116 30.7676C48.2812 31.294 48.0301 31.8502 47.8586 32.4361C47.687 33.025 47.6012 33.6228 47.598 34.2325C47.5948 34.8422 47.6775 35.44 47.8459 36.0289C48.0111 36.6178 48.2557 37.1739 48.583 37.7033C48.9071 38.2327 49.2979 38.7116 49.7587 39.1428C50.2194 39.5741 50.7309 39.9429 51.2965 40.2492C51.8589 40.5526 52.4563 40.7845 53.0886 40.9422C53.7177 41.0998 54.3596 41.1801 55.0109 41.1801H89.2348C89.8862 41.1801 90.528 41.0998 91.1571 40.9422C91.7863 40.7845 92.3836 40.5526 92.9492 40.2492C93.5116 39.9429 94.0232 39.5741 94.4839 39.1428C94.9446 38.7116 95.3386 38.2327 95.6627 37.7033C95.9868 37.1739 96.2315 36.6178 96.3999 36.0289C96.5651 35.44 96.6477 34.8422 96.6445 34.2325C96.6445 33.6228 96.5556 33.025 96.384 32.4361C96.2124 31.8502 95.9614 31.294 95.6341 30.7676ZM76.3727 36.1835C76.3727 36.359 76.3377 36.5285 76.2646 36.6891C76.1915 36.8527 76.0899 36.9955 75.9564 37.1174C75.8261 37.2423 75.6704 37.3375 75.4989 37.4059C75.3241 37.4713 75.143 37.507 74.9555 37.507H69.2902C69.1027 37.507 68.9216 37.4713 68.75 37.4059C68.5753 37.3375 68.4228 37.2423 68.2893 37.1174C68.1559 36.9955 68.0542 36.8527 67.9843 36.6891C67.9112 36.5285 67.8763 36.359 67.8763 36.1835V30.8985C67.8763 30.723 67.9112 30.5535 67.9843 30.3929C68.0542 30.2293 68.1559 30.0865 68.2893 29.9646C68.4228 29.8397 68.5753 29.7445 68.75 29.6761C68.9216 29.6107 69.1027 29.575 69.2902 29.575H74.9524C75.1398 29.575 75.3209 29.6107 75.4957 29.6761C75.6673 29.7445 75.8198 29.8397 75.9532 29.9646C76.0867 30.0865 76.1884 30.2293 76.2614 30.3929C76.3313 30.5535 76.3695 30.723 76.3695 30.8985L76.3727 36.1835ZM77.7294 14.273L76.3631 25.7532C76.3441 25.9168 76.2932 26.0684 76.2138 26.2142C76.1343 26.3569 76.0295 26.4848 75.8992 26.5919C75.7721 26.7019 75.626 26.7852 75.4607 26.8417C75.2987 26.9012 75.1303 26.928 74.9555 26.928H69.2902C69.1154 26.928 68.947 26.9012 68.785 26.8417C68.6229 26.7852 68.4768 26.7019 68.3465 26.5919C68.2162 26.4848 68.1114 26.3569 68.0319 26.2142C67.9525 26.0684 67.9017 25.9168 67.8826 25.7532L66.5195 14.273C66.475 13.9042 66.475 13.5354 66.5131 13.1695C66.5513 12.8008 66.6307 12.4379 66.7515 12.087C66.8722 11.733 67.0311 11.397 67.2281 11.0757C67.4251 10.7516 67.657 10.4541 67.9207 10.1775C68.1845 9.90095 68.4768 9.6541 68.7977 9.43699C69.1186 9.2169 69.4586 9.0325 69.8208 8.88082C70.1831 8.72914 70.5612 8.61612 70.9488 8.53879C71.3365 8.46146 71.7273 8.4228 72.1245 8.4228C72.5216 8.4228 72.9125 8.46146 73.3033 8.53879C73.6909 8.61612 74.0659 8.72914 74.4281 8.88082C74.7903 9.0325 75.1303 9.2169 75.4512 9.43699C75.7721 9.6541 76.0644 9.90095 76.3282 10.1775C76.5919 10.4541 76.8238 10.7516 77.0208 11.0757C77.2178 11.397 77.3767 11.733 77.4975 12.087C77.6182 12.4379 77.6976 12.8008 77.7358 13.1695C77.7771 13.5354 77.7739 13.9042 77.7294 14.273Z" fill="#E9E2D1"/>
</g>
</svg>
