<svg width="78" height="91" viewBox="0 0 78 91" fill="none" xmlns="http://www.w3.org/2000/svg">
<mask id="mask0_80_2646" style="mask-type:luminance" maskUnits="userSpaceOnUse" x="0" y="0" width="78" height="91">
<path d="M0 0H77.9362V90.3802H0V0Z" fill="white"/>
</mask>
<g mask="url(#mask0_80_2646)">
<path fill-rule="evenodd" clip-rule="evenodd" d="M51.976 36.4487H63.3231C63.5276 36.4487 63.7228 36.4023 63.9056 36.3093C64.0916 36.2194 64.2434 36.0893 64.3642 35.9251C64.4851 35.7578 64.5657 35.5749 64.5997 35.3735C64.6338 35.1721 64.6183 34.9707 64.5564 34.7755C64.3271 34.0349 64.0017 33.3346 63.5834 32.6777C63.1651 32.0208 62.6693 31.429 62.093 30.9053C61.5166 30.3786 60.8845 29.9386 60.1935 29.5822C59.4994 29.2228 58.7744 28.9625 58.0121 28.7952C57.2498 28.631 56.4783 28.569 55.7005 28.6062C54.9228 28.6465 54.1636 28.7859 53.42 29.0245C52.6794 29.2631 51.9822 29.5946 51.3284 30.0191C50.6746 30.4436 50.089 30.9456 49.5684 31.5251C50.718 32.9969 51.5205 34.6392 51.976 36.4487ZM27.6457 59.3134C31.0883 62.8179 35.0793 61.2066 38.872 59.6728C41.9086 58.4458 44.8461 57.2621 47.6906 58.0398C48.2577 58.1979 48.7968 58.421 49.3081 58.7153L62.031 65.9506C62.5361 66.2388 62.9823 66.5982 63.3696 67.0351L64.4975 66.5641L58.1639 50.2561C55.6262 51.3933 53.3673 50.4699 50.8233 49.4319C48.143 48.3381 45.063 47.0832 41.072 49.0229C39.2531 49.906 37.5706 51.3004 36.1576 52.7226C34.7725 54.1077 33.2945 55.3874 31.7235 56.5556C30.4221 57.5317 29.0649 58.4489 27.6457 59.3134ZM11.0713 39.9998L0.836583 63.1061C0.718836 63.3756 0.656864 63.6576 0.647568 63.952C0.64137 64.2464 0.690948 64.5314 0.7994 64.8041C0.904753 65.0799 1.05968 65.3247 1.26419 65.5385C1.4656 65.7492 1.70419 65.9165 1.97377 66.0373L6.43267 68.0019C6.70225 68.1196 6.98422 68.1847 7.27859 68.1909C7.57296 68.1971 7.85803 68.1475 8.1338 68.039C8.40958 67.9337 8.65437 67.7788 8.86817 67.5774C9.08198 67.3728 9.24621 67.1374 9.36705 66.8678L19.6018 43.7584C19.7195 43.4888 19.7846 43.2068 19.7908 42.9124C19.797 42.6212 19.7474 42.3361 19.6389 42.0603C19.5336 41.7876 19.3787 41.5429 19.1741 41.3291C18.9727 41.1152 18.7372 40.9479 18.4677 40.8302L14.0088 38.8626C13.7392 38.7448 13.4572 38.6828 13.1628 38.6766C12.8654 38.6704 12.5803 38.72 12.3076 38.8254C12.0319 38.9307 11.7871 39.0857 11.5733 39.2902C11.3595 39.4916 11.1921 39.7271 11.0713 39.9967V39.9998ZM67.9865 41.6389L77.1367 65.1976C77.2421 65.4703 77.2916 65.7554 77.2854 66.0497C77.2792 66.3441 77.2142 66.6261 77.0964 66.8957C76.9756 67.1652 76.8113 67.4007 76.5975 67.6052C76.3837 67.8098 76.1421 67.9647 75.8663 68.07L71.3237 69.83C71.0479 69.9354 70.7629 69.985 70.4685 69.9757C70.171 69.9695 69.8891 69.9075 69.6195 69.7867C69.3499 69.6689 69.1144 69.5047 68.9099 69.2909C68.7054 69.0771 68.5505 68.8354 68.442 68.5596L59.2887 45.004C59.1834 44.7282 59.1338 44.4432 59.1431 44.1488C59.1493 43.8544 59.2113 43.5724 59.3321 43.3029C59.4498 43.0333 59.6172 42.7978 59.8279 42.5933C60.0417 42.3919 60.2865 42.2369 60.5622 42.1285L65.1048 40.3716C65.3806 40.2631 65.6657 40.2167 65.96 40.2229C66.2544 40.229 66.5395 40.291 66.809 40.4119C67.0786 40.5296 67.3141 40.6969 67.5186 40.9076C67.7231 41.1214 67.8781 41.3631 67.9865 41.6389ZM64.4944 44.0155C64.2961 44.0155 64.1009 44.0527 63.9149 44.1302C63.7321 44.2077 63.5679 44.3161 63.4254 44.4586C63.2828 44.6012 63.1744 44.7623 63.0969 44.9482C63.0194 45.1341 62.9823 45.3263 62.9823 45.5277C62.9823 45.726 63.0194 45.9212 63.0969 46.104C63.1744 46.2899 63.2828 46.4542 63.4254 46.5967C63.5679 46.7361 63.7321 46.8446 63.9149 46.922C64.1009 46.9995 64.2961 47.0367 64.4944 47.0367C64.6958 47.0367 64.891 46.9995 65.0738 46.922C65.2597 46.8446 65.424 46.7361 65.5665 46.5967C65.709 46.4542 65.8175 46.2899 65.895 46.104C65.9724 45.9212 66.0096 45.726 66.0096 45.5277C66.0096 45.3263 65.9724 45.1341 65.895 44.9482C65.8175 44.7623 65.709 44.6012 65.5665 44.4586C65.424 44.3161 65.2597 44.2077 65.0738 44.1302C64.891 44.0527 64.6958 44.0155 64.4944 44.0155ZM14.4488 42.5344C14.6502 42.5437 14.8392 42.5902 15.022 42.6769C15.2017 42.7606 15.3629 42.8784 15.4961 43.0271C15.6324 43.1727 15.7347 43.3431 15.8029 43.5291C15.871 43.7181 15.8989 43.9133 15.8896 44.1147C15.8803 44.313 15.8338 44.5051 15.7471 44.6848C15.6634 44.8677 15.5457 45.0257 15.3969 45.1589C15.2482 45.2953 15.0809 45.3975 14.8919 45.4657C14.7029 45.5339 14.5076 45.5618 14.3062 45.5525C14.1079 45.5432 13.9158 45.4967 13.733 45.4099C13.5533 45.3263 13.3952 45.2085 13.2589 45.0629C13.1226 44.9141 13.0203 44.7437 12.9521 44.5578C12.884 44.3688 12.8561 44.1736 12.8654 43.9722C12.8747 43.7739 12.9212 43.5817 13.0079 43.402C13.0916 43.2192 13.2093 43.0612 13.3581 42.9279C13.5068 42.7916 13.6741 42.6893 13.8631 42.6212C14.0521 42.553 14.2474 42.5251 14.4488 42.5344ZM43.7492 84.3439C43.6655 84.976 43.4734 85.571 43.1729 86.1318L41.9489 88.4155C42.3703 88.6541 42.8165 88.9175 43.2286 89.1437C43.4796 89.2738 43.7492 89.3513 44.0312 89.3792C44.3131 89.407 44.5889 89.3792 44.8616 89.2986C45.1343 89.218 45.3822 89.091 45.6022 88.9175C45.8253 88.7408 46.0081 88.5301 46.1475 88.2853C46.2963 88.0251 46.3861 87.7493 46.4233 87.4549C46.4574 87.1606 46.4357 86.8724 46.3551 86.5842C46.2746 86.2991 46.1413 86.042 45.9585 85.8096C45.7726 85.5772 45.5526 85.3882 45.2923 85.2425L43.7492 84.3439ZM27.2026 84.6228C27.1624 84.88 27.1655 85.1341 27.2119 85.3913C27.2584 85.6453 27.3483 85.8839 27.4753 86.1101C27.6024 86.3363 27.7666 86.5346 27.9618 86.7051C28.1539 86.8755 28.3739 87.0118 28.6125 87.1079C28.8542 87.207 29.1052 87.2628 29.3624 87.2752C29.6227 87.2907 29.8767 87.2597 30.1277 87.1884C30.3756 87.1172 30.608 87.0056 30.8187 86.8569C31.0325 86.7082 31.2122 86.5253 31.3641 86.3146L34.283 80.7712C34.348 80.5202 34.3697 80.2662 34.348 80.009C34.3263 79.7518 34.2644 79.5039 34.1621 79.2684C34.0568 79.0329 33.9173 78.8191 33.7407 78.6301C33.5641 78.4411 33.3627 78.283 33.1365 78.1622C32.9072 78.0414 32.6655 77.9577 32.4083 77.9174C32.1542 77.8771 31.9001 77.8802 31.6429 77.9236C31.3889 77.9701 31.1472 78.0537 30.921 78.1808C30.6948 78.3047 30.4965 78.4659 30.3229 78.658L27.2026 84.6228ZM27.7232 77.589L24.4387 83.7118C24.2992 83.9876 24.1102 84.2262 23.8747 84.4245C23.6361 84.6259 23.3728 84.7746 23.0753 84.8676C22.7809 84.9605 22.4773 84.9946 22.1705 84.9667C21.8606 84.9389 21.5694 84.8521 21.2936 84.7065C21.0209 84.5608 20.7854 84.3687 20.5902 84.1301C20.3919 83.8915 20.2494 83.6219 20.1626 83.3245C20.0727 83.0301 20.0449 82.7264 20.0789 82.4197C20.113 82.1129 20.2029 81.8217 20.3547 81.5521L23.7043 75.2991C24.5626 74.5151 25.517 74.0968 26.648 74.7011C27.7914 75.3084 28.0176 76.4301 27.7232 77.589ZM21.6468 73.3408C21.7708 73.0681 21.842 72.783 21.8544 72.4825C21.8668 72.185 21.8235 71.8937 21.7212 71.6117C21.622 71.3298 21.4733 71.0757 21.2719 70.8526C21.0736 70.6264 20.8381 70.4498 20.5685 70.3165C20.302 70.1833 20.017 70.1058 19.7164 70.0841C19.4189 70.0593 19.1246 70.0965 18.8395 70.1864C18.5544 70.2793 18.2941 70.4188 18.0648 70.6109C17.8324 70.803 17.6465 71.0323 17.5071 71.2957L15.1707 75.6554C15.0406 75.894 14.9569 76.1481 14.9198 76.4177C14.8795 76.6873 14.8888 76.9568 14.9476 77.2233C15.0034 77.4898 15.1026 77.7377 15.2482 77.967C15.3938 78.1994 15.5736 78.3977 15.7874 78.565C16.0043 78.7323 16.2398 78.8563 16.5 78.9399C16.7603 79.0236 17.0268 79.0608 17.2995 79.0484C17.5722 79.0391 17.8324 78.9802 18.0865 78.878C18.3375 78.7726 18.5637 78.6301 18.7651 78.4473L21.6468 73.3408ZM34.0196 87.4301L36.8114 82.1191C37.0004 81.9115 37.2204 81.7411 37.4714 81.6109C37.7224 81.4808 37.9889 81.4002 38.2678 81.3693C38.5497 81.3352 38.8255 81.3538 39.1013 81.425C39.374 81.4932 39.6281 81.6078 39.8574 81.769C40.0897 81.9332 40.285 82.1284 40.443 82.3639C40.6041 82.5963 40.7157 82.8504 40.7807 83.1231C40.8458 83.3988 40.8613 83.6746 40.8241 83.9535C40.79 84.2355 40.7033 84.4988 40.57 84.7467L38.3297 88.9268C38.2027 89.1684 38.0323 89.3823 37.8278 89.5651C37.6233 89.7448 37.3909 89.8873 37.1337 89.9865C36.8796 90.0856 36.6131 90.1383 36.3373 90.1445C36.0616 90.1507 35.7951 90.1073 35.5348 90.0175C35.2745 89.9276 35.039 89.7944 34.8252 89.6208C34.6145 89.4473 34.4379 89.2397 34.2985 89.0042C34.159 88.7656 34.0661 88.5115 34.0165 88.242C33.97 87.9724 33.97 87.7028 34.0196 87.4301ZM13.5068 64.8165L20.6491 48.6882L20.8598 48.7843C23.475 50.2314 25.8764 49.6705 28.4886 49.0601C30.6948 48.5457 33.09 47.9849 35.7796 49.0601C33.7593 50.7829 32.1604 52.5584 29.9573 54.21C28.3925 55.3688 26.7688 56.4379 25.0863 57.4108C24.8477 57.5503 24.6494 57.7331 24.4914 57.9562C24.3302 58.1824 24.2249 58.4303 24.1722 58.6998C24.1195 58.9694 24.1257 59.239 24.1908 59.5055C24.2528 59.7751 24.3705 60.0168 24.5378 60.2337C29.5204 66.6292 34.8903 64.4602 39.9782 62.4058C42.9219 61.2159 45.7478 60.0756 47.8549 61.2717L60.5777 68.51C60.8318 68.6526 61.0518 68.8385 61.2346 69.0709C61.4175 69.3002 61.5507 69.5543 61.6313 69.8362C61.7149 70.1182 61.7397 70.4064 61.7087 70.6977C61.6777 70.9889 61.5941 71.2647 61.4546 71.5219C61.3121 71.7729 61.1324 71.9867 60.9062 72.1664C60.6831 72.343 60.4321 72.4732 60.1563 72.5568C59.8837 72.6374 59.6017 72.6653 59.3166 72.6374C59.0315 72.6095 58.7589 72.5289 58.5048 72.3957C55.6138 70.7162 52.6422 69.1143 49.7326 67.4534C49.5653 67.3574 49.3825 67.2954 49.1873 67.2706C48.992 67.2458 48.803 67.2613 48.614 67.3109C48.425 67.3636 48.2515 67.4472 48.0965 67.5681C47.9416 67.6858 47.8177 67.8314 47.7185 68.0019C47.6225 68.1723 47.5605 68.352 47.5357 68.5472C47.5109 68.7393 47.5264 68.9314 47.576 69.1205C47.6287 69.3095 47.7154 69.4799 47.8332 69.6348C47.954 69.7898 48.0996 69.9137 48.267 70.0098C51.1797 71.6737 54.1078 73.3129 57.036 74.9489C57.2901 75.0884 57.507 75.2712 57.6898 75.4974C57.8696 75.7236 58.0028 75.9746 58.0834 76.2535C58.1639 76.5292 58.1918 76.8112 58.1608 77.0994C58.1298 77.3876 58.0462 77.6602 57.9098 77.9143C57.7735 78.1684 57.5938 78.3884 57.3676 78.5712C57.1445 78.7571 56.8935 78.8904 56.6177 78.974C56.3388 79.0608 56.0569 79.0887 55.7687 79.0639C55.4805 79.036 55.2079 78.9554 54.9507 78.8222C51.1673 76.6098 47.2382 74.4934 43.4084 72.343C43.2379 72.2501 43.0582 72.1912 42.863 72.1695C42.6709 72.1509 42.4819 72.1664 42.2929 72.2191C42.1069 72.2717 41.9365 72.3585 41.7847 72.4794C41.6329 72.6002 41.5089 72.7458 41.416 72.9132C41.3199 73.0836 41.261 73.2633 41.2362 73.4554C41.2145 73.6506 41.2269 73.8396 41.2796 74.0256C41.3323 74.2115 41.416 74.3819 41.5368 74.5368C41.6545 74.6887 41.7971 74.8126 41.9675 74.9118C45.1033 76.6718 48.2298 78.4628 51.3656 80.2166C51.6228 80.356 51.8428 80.5388 52.0256 80.765C52.2115 80.9912 52.3447 81.2422 52.4284 81.5242C52.5121 81.8031 52.5369 82.0881 52.5059 82.3763C52.478 82.6676 52.3912 82.9403 52.2518 83.1974C52.1123 83.4546 51.9295 83.6746 51.7033 83.8574C51.4771 84.0403 51.223 84.1735 50.9442 84.2572C50.6622 84.3408 50.3771 84.3687 50.0859 84.3377C49.7946 84.3067 49.5219 84.2231 49.2647 84.0836L42.5841 80.3095C42.2557 79.916 41.8776 79.5783 41.45 79.2932C41.0224 79.0112 40.5638 78.7943 40.0743 78.6425C39.5847 78.4938 39.0827 78.4163 38.5683 78.4132C38.054 78.4101 37.552 78.4783 37.0593 78.6208C36.9571 78.2985 36.8269 77.9856 36.6627 77.6881C36.4985 77.3876 36.3094 77.1087 36.0925 76.8484C35.8756 76.585 35.6339 76.3464 35.3706 76.1326C35.1072 75.9157 34.8252 75.7298 34.5246 75.5687C34.2241 75.4075 33.9111 75.2774 33.5858 75.1782C33.2604 75.0791 32.9289 75.0109 32.588 74.9768C32.2503 74.9396 31.9125 74.9396 31.5717 74.9706C31.2339 74.9985 30.8993 75.0636 30.5739 75.1596C30.4779 74.8591 30.3601 74.574 30.2145 74.2982C30.0689 74.0194 29.9015 73.7591 29.7094 73.5112C29.5173 73.2664 29.3066 73.0371 29.0742 72.8295C28.8418 72.6219 28.5908 72.436 28.3274 72.2717C28.061 72.1075 27.7821 71.9681 27.4908 71.8534C27.1995 71.7388 26.9021 71.652 26.5953 71.59C26.2885 71.5281 25.9787 71.494 25.6657 71.4878C25.3528 71.4816 25.0429 71.5033 24.733 71.5529C24.6587 71.0881 24.5254 70.6388 24.3302 70.2112C24.135 69.7805 23.884 69.3838 23.5835 69.0213C23.2798 68.6588 22.9328 68.3427 22.5454 68.0731C22.1581 67.8036 21.7398 67.5898 21.2936 67.4348C20.8505 67.2768 20.3888 67.1807 19.9178 67.1467C19.4468 67.1157 18.9789 67.1436 18.5141 67.2365C18.0524 67.3295 17.6093 67.4813 17.1848 67.692C16.7634 67.9058 16.3761 68.1692 16.026 68.4852C15.7099 66.9669 15.2141 65.5292 13.5068 64.8165ZM70.0781 21.309C71.6801 24.0512 72.8916 26.9515 73.7158 30.0129C74.5432 33.0744 74.9522 36.1916 74.9491 39.3614C74.9491 39.5567 74.9863 39.7457 75.0606 39.9254C75.135 40.1051 75.2435 40.2662 75.3798 40.4026C75.5192 40.542 75.6773 40.6474 75.8601 40.7217C76.0398 40.7961 76.2288 40.8364 76.424 40.8364C76.6223 40.8364 76.8083 40.7961 76.9911 40.7217C77.1708 40.6474 77.3319 40.542 77.4683 40.4026C77.6077 40.2662 77.7161 40.1051 77.7905 39.9254C77.8649 39.7457 77.9021 39.5567 77.9021 39.3614C77.9052 35.9313 77.4621 32.56 76.5666 29.2476C75.6711 25.9352 74.3604 22.7994 72.6313 19.834C72.5322 19.6667 72.4051 19.5242 72.2502 19.4033C72.0953 19.2856 71.9217 19.2019 71.7358 19.1523C71.5468 19.0996 71.3547 19.0873 71.1595 19.1151C70.9674 19.1399 70.7846 19.2019 70.6172 19.298C70.4468 19.3971 70.3043 19.5242 70.1834 19.6791C70.0657 19.834 69.982 20.0044 69.9293 20.1935C69.8798 20.3825 69.8674 20.5715 69.8953 20.7667C69.92 20.9588 69.982 21.1416 70.0781 21.309ZM4.96703 17.572C4.78111 17.6216 4.589 17.634 4.39688 17.6092C4.20477 17.5844 4.02505 17.5256 3.85463 17.4295C3.6873 17.3334 3.54167 17.2126 3.42392 17.0577C3.30307 16.9058 3.21631 16.7385 3.16364 16.5526C3.11096 16.3667 3.09547 16.1746 3.11716 15.9824C3.13885 15.7903 3.19462 15.6106 3.28758 15.4402C3.38364 15.2698 3.50448 15.1241 3.65632 15.0033C3.80505 14.8824 3.97547 14.7926 4.16139 14.7368L10.402 12.9613C11.1952 12.1061 12.0257 11.2881 12.8933 10.5072C13.7609 9.72636 14.6595 8.98579 15.5953 8.28551C16.5279 7.58522 17.4916 6.93141 18.4832 6.31789C19.4778 5.70437 20.4972 5.13732 21.5415 4.61366C22.5857 4.09309 23.6516 3.619 24.7361 3.19449C25.8238 2.76689 26.93 2.39196 28.0486 2.0635C29.1703 1.73815 30.3043 1.46237 31.4508 1.23618C32.5942 1.00998 33.75 0.839553 34.912 0.715609C36.0709 0.594763 37.2359 0.526594 38.4041 0.508002C39.5723 0.49251 40.7374 0.526593 41.9024 0.616454C43.0675 0.703215 44.2264 0.842652 45.376 1.03477C46.5287 1.22688 47.6689 1.47167 48.7999 1.76604C49.9309 2.0604 51.0433 2.40435 52.1433 2.79787C53.2402 3.1914 54.3217 3.6345 55.3783 4.12718C56.438 4.61985 57.4729 5.15591 58.4831 5.74155C59.4932 6.32409 60.4755 6.95311 61.4299 7.6255L60.8008 5.42859C60.7513 5.24267 60.7358 5.05366 60.7606 4.85845C60.7853 4.66633 60.8442 4.48661 60.9403 4.31619C61.0332 4.14887 61.1572 4.00323 61.3121 3.88239C61.4639 3.76154 61.6344 3.67478 61.8203 3.6221C62.0093 3.56943 62.1983 3.55393 62.3904 3.57562C62.5856 3.59731 62.7685 3.65619 62.9389 3.74915C63.1093 3.8421 63.2549 3.96605 63.3758 4.11788C63.4966 4.26971 63.5865 4.43704 63.6423 4.62295L65.5355 11.254C65.5696 11.3655 65.5882 11.4802 65.5913 11.5979C65.5975 11.7126 65.5882 11.8272 65.5665 11.9419C65.5417 12.0565 65.5076 12.165 65.458 12.2703C65.4116 12.3757 65.3496 12.4748 65.2783 12.5678C65.2071 12.6576 65.1265 12.7382 65.0335 12.8126C64.9437 12.8838 64.8445 12.9458 64.7392 12.9954C64.6338 13.0419 64.5254 13.0791 64.4107 13.1007C64.2961 13.1255 64.1814 13.1348 64.0637 13.1317L57.2622 13.3734C57.067 13.3827 56.878 13.3517 56.6952 13.2836C56.5124 13.2154 56.3512 13.1131 56.2087 12.9799C56.0662 12.8498 55.9515 12.6917 55.871 12.5151C55.7904 12.3385 55.747 12.1526 55.7408 11.9574C55.7346 11.7621 55.7625 11.5731 55.8307 11.3934C55.9019 11.2106 56.0011 11.0464 56.1343 10.9038C56.2676 10.7613 56.4225 10.6497 56.5991 10.5692C56.7789 10.4886 56.9648 10.4452 57.16 10.439L60.147 10.3306C59.2701 9.69227 58.3653 9.09424 57.4327 8.53959C56.5 7.98494 55.5456 7.47057 54.5664 6.99958C53.5873 6.53169 52.5895 6.10719 51.5732 5.72606C50.5568 5.34803 49.5219 5.01648 48.4746 4.72831C47.4272 4.44323 46.3706 4.20464 45.3016 4.01253C44.2326 3.82351 43.1574 3.68098 42.076 3.58802C40.9945 3.49506 39.91 3.44858 38.8224 3.45478C37.7379 3.45788 36.6534 3.51055 35.572 3.61281C34.4937 3.71506 33.4184 3.86689 32.3494 4.0652C31.2835 4.26661 30.2269 4.5114 29.1826 4.80887C28.1384 5.10324 27.1066 5.44408 26.0933 5.83141C25.0801 6.21874 24.0854 6.65254 23.1094 7.12973C22.1364 7.60691 21.1851 8.12748 20.2587 8.69142C19.3291 9.25537 18.4305 9.8596 17.5567 10.5041C16.6829 11.1486 15.8431 11.8303 15.0313 12.5523C14.2195 13.2743 13.4448 14.0303 12.7012 14.8205L12.9274 21.1013C12.9366 21.2966 12.9057 21.4856 12.8375 21.6684C12.7693 21.8512 12.6702 22.0154 12.5369 22.158C12.4037 22.3005 12.2488 22.4152 12.069 22.4957C11.8924 22.5763 11.7034 22.6197 11.5082 22.629C11.313 22.6352 11.124 22.6042 10.9411 22.536C10.7583 22.4678 10.5941 22.3656 10.4516 22.2323C10.309 22.0991 10.1975 21.9442 10.1169 21.7644C10.0363 21.5878 9.99297 21.4019 9.98677 21.2067L9.87832 18.2227C7.63493 21.2935 5.9214 24.6307 4.74393 28.2436C3.56646 31.8566 2.98082 35.5625 2.98702 39.3614C2.98702 39.5567 2.94983 39.7457 2.87547 39.9254C2.8011 40.1051 2.69265 40.2662 2.55631 40.4026C2.41687 40.542 2.25575 40.6474 2.07603 40.7217C1.89321 40.7961 1.70729 40.8364 1.50898 40.8364C1.31377 40.8364 1.12475 40.7961 0.945034 40.7217C0.765315 40.6474 0.604188 40.542 0.46475 40.4026C0.328412 40.2662 0.21996 40.1051 0.145594 39.9254C0.0712271 39.7457 0.0340438 39.5567 0.0340438 39.3614C0.0278462 35.3456 0.632075 31.4259 1.84983 27.5991C3.06448 23.7723 4.83689 20.2213 7.16084 16.9461L4.96703 17.5689V17.572ZM38.9681 16.8934C38.621 16.8934 38.2771 16.9275 37.9362 16.9926C37.5954 17.0608 37.2638 17.163 36.9447 17.2932C36.6224 17.4264 36.3187 17.5906 36.0306 17.7827C35.7393 17.9749 35.4728 18.1918 35.228 18.4396C34.9832 18.6844 34.7632 18.9509 34.5711 19.2391C34.3759 19.5273 34.2148 19.8309 34.0815 20.1501C33.9483 20.4723 33.8492 20.8008 33.781 21.1416C33.7128 21.4794 33.6787 21.8233 33.6787 22.1704C33.6787 22.5174 33.7128 22.8614 33.781 23.1991C33.8492 23.54 33.9483 23.8715 34.0815 24.1907C34.2148 24.5098 34.3759 24.8135 34.5711 25.1016C34.7632 25.3898 34.9832 25.6563 35.228 25.9042C35.4728 26.149 35.7393 26.3659 36.0306 26.558C36.3187 26.7501 36.6224 26.9143 36.9447 27.0476C37.2638 27.1808 37.5954 27.28 37.9362 27.3481C38.2771 27.4163 38.621 27.4473 38.9681 27.4473C39.3151 27.4473 39.659 27.4163 39.9999 27.3481C40.3407 27.28 40.6692 27.1808 40.9914 27.0476C41.3137 26.9143 41.6174 26.7501 41.9055 26.558C42.1937 26.3659 42.4602 26.149 42.7081 25.9042C42.9529 25.6563 43.1729 25.3898 43.365 25.1016C43.5571 24.8135 43.7213 24.5098 43.8546 24.1907C43.9878 23.8715 44.087 23.54 44.1551 23.1991C44.2233 22.8614 44.2574 22.5174 44.2574 22.1704C44.2574 21.8233 44.2233 21.4794 44.1551 21.1416C44.087 20.8008 43.9878 20.4723 43.8546 20.1501C43.7213 19.8309 43.5571 19.5273 43.365 19.2391C43.1729 18.9509 42.9529 18.6844 42.7081 18.4396C42.4633 18.1949 42.1937 17.9749 41.9055 17.7827C41.6174 17.5906 41.3137 17.4264 40.9914 17.2932C40.6723 17.163 40.3407 17.0608 39.9999 16.9926C39.659 16.9275 39.3151 16.8934 38.9681 16.8934ZM30.1215 38.6054H47.8115C48.0129 38.6054 48.205 38.562 48.3847 38.4721C48.5675 38.3854 48.7163 38.2583 48.8402 38.1003C48.9611 37.9392 49.0416 37.7626 49.0819 37.5642C49.1191 37.3659 49.1129 37.1707 49.0602 36.9786C48.9084 36.4302 48.7163 35.8972 48.4777 35.3797C48.2391 34.8623 47.9633 34.3696 47.6442 33.8986C47.325 33.4276 46.9718 32.9845 46.5813 32.5693C46.1909 32.1572 45.7695 31.776 45.314 31.4321C44.8616 31.0882 44.3844 30.7814 43.8824 30.5149C43.3774 30.2484 42.8568 30.0222 42.3176 29.8425C41.7785 29.6597 41.2269 29.5234 40.6661 29.4304C40.1021 29.3374 39.5382 29.291 38.9681 29.291C38.3979 29.291 37.8309 29.3374 37.27 29.4304C36.7092 29.5234 36.1576 29.6597 35.6185 29.8425C35.0762 30.0222 34.5556 30.2484 34.0537 30.5149C33.5517 30.7814 33.0714 31.0882 32.619 31.4321C32.1666 31.776 31.7452 32.1572 31.3548 32.5693C30.9643 32.9845 30.608 33.4276 30.292 33.8986C29.9728 34.3696 29.6939 34.8623 29.4584 35.3797C29.2198 35.8972 29.0246 36.4302 28.8759 36.9786C28.8232 37.1707 28.8139 37.3659 28.8542 37.5642C28.8914 37.7626 28.9719 37.9392 29.0959 38.1003C29.2167 38.2583 29.3686 38.3823 29.5483 38.4721C29.7311 38.562 29.9201 38.6054 30.1215 38.6054ZM21.7987 17.854C21.5043 17.854 21.2161 17.8819 20.928 17.9408C20.6398 17.9965 20.3609 18.0802 20.0913 18.1918C19.8218 18.3033 19.5646 18.4427 19.3198 18.6039C19.0781 18.765 18.8519 18.9509 18.6443 19.1585C18.4367 19.363 18.2539 19.5892 18.0896 19.8309C17.9285 20.0757 17.7922 20.3298 17.6775 20.5994C17.566 20.872 17.4823 21.1478 17.4234 21.436C17.3677 21.7211 17.3398 22.0123 17.3398 22.3036C17.3398 22.5949 17.3677 22.8861 17.4234 23.1712C17.4823 23.4594 17.566 23.7352 17.6775 24.0078C17.7922 24.2774 17.9285 24.5315 18.0896 24.7763C18.2539 25.018 18.4367 25.2442 18.6443 25.4487C18.8519 25.6563 19.0781 25.8422 19.3198 26.0033C19.5646 26.1645 19.8218 26.3039 20.0913 26.4155C20.3609 26.527 20.6398 26.6107 20.928 26.6664C21.2161 26.7253 21.5043 26.7532 21.7987 26.7532C22.0899 26.7532 22.3812 26.7253 22.6694 26.6664C22.9544 26.6107 23.2333 26.527 23.5029 26.4155C23.7756 26.3039 24.0328 26.1645 24.2745 26.0033C24.5192 25.8422 24.7454 25.6563 24.9499 25.4487C25.1576 25.2442 25.3435 25.018 25.5046 24.7763C25.6688 24.5315 25.8052 24.2774 25.9167 24.0078C26.0283 23.7352 26.115 23.4594 26.1708 23.1712C26.2297 22.8861 26.2576 22.5949 26.2576 22.3036C26.2576 22.0123 26.2297 21.7211 26.1708 21.436C26.115 21.1478 26.0283 20.872 25.9167 20.5994C25.8052 20.3298 25.6688 20.0757 25.5046 19.8309C25.3435 19.5892 25.1576 19.363 24.9499 19.1585C24.7454 18.9509 24.5192 18.765 24.2745 18.6039C24.0328 18.4427 23.7756 18.3033 23.5029 18.1918C23.2333 18.0802 22.9544 17.9965 22.6694 17.9408C22.3812 17.8819 22.0899 17.854 21.7987 17.854ZM56.1374 17.854C55.8431 17.854 55.5549 17.8819 55.2667 17.9408C54.9817 17.9965 54.7028 18.0802 54.4301 18.1918C54.1605 18.3033 53.9033 18.4427 53.6616 18.6039C53.4169 18.765 53.1907 18.9509 52.9831 19.1585C52.7785 19.363 52.5926 19.5892 52.4284 19.8309C52.2673 20.0757 52.1309 20.3298 52.0163 20.5994C51.9047 20.872 51.8211 21.1478 51.7653 21.436C51.7064 21.7211 51.6785 22.0123 51.6785 22.3036C51.6785 22.5949 51.7064 22.8861 51.7653 23.1712C51.8211 23.4594 51.9047 23.7352 52.0163 24.0078C52.1309 24.2774 52.2673 24.5315 52.4284 24.7763C52.5926 25.018 52.7785 25.2442 52.9831 25.4487C53.1907 25.6563 53.4169 25.8422 53.6586 26.0033C53.9033 26.1645 54.1605 26.3039 54.4301 26.4155C54.7028 26.527 54.9817 26.6107 55.2667 26.6664C55.5549 26.7253 55.8431 26.7532 56.1374 26.7532C56.4287 26.7532 56.72 26.7253 57.0081 26.6664C57.2932 26.6107 57.5721 26.527 57.8448 26.4155C58.1143 26.3039 58.3715 26.1645 58.6132 26.0033C58.858 25.8422 59.0842 25.6563 59.2887 25.4487C59.4963 25.2442 59.6822 25.018 59.8434 24.7763C60.0076 24.5315 60.1439 24.2774 60.2555 24.0078C60.3701 23.7352 60.4538 23.4594 60.5096 23.1712C60.5684 22.8861 60.5963 22.5949 60.5963 22.3036C60.5963 22.0123 60.5684 21.7211 60.5096 21.436C60.4538 21.1478 60.3701 20.872 60.2555 20.5994C60.1439 20.3298 60.0076 20.0757 59.8434 19.8309C59.6822 19.5892 59.4963 19.363 59.2887 19.1585C59.0842 18.9509 58.858 18.765 58.6132 18.6039C58.3715 18.4427 58.1143 18.3033 57.8448 18.1918C57.5721 18.0802 57.2932 17.9965 57.0081 17.9408C56.72 17.8819 56.4287 17.854 56.1374 17.854ZM14.613 36.4487H25.9601C26.4156 34.6392 27.2181 32.9969 28.3677 31.5251C27.8471 30.9456 27.2584 30.4436 26.6077 30.0191C25.9539 29.5946 25.2567 29.2631 24.513 29.0245C23.7725 28.7859 23.0133 28.6465 22.2356 28.6062C21.4547 28.569 20.6863 28.631 19.924 28.7952C19.1617 28.9625 18.4367 29.2228 17.7426 29.5822C17.0516 29.9386 16.4164 30.3786 15.8431 30.9053C15.2668 31.429 14.771 32.0208 14.3527 32.6777C13.9344 33.3346 13.609 34.0349 13.3766 34.7755C13.3178 34.9707 13.3023 35.1721 13.3364 35.3735C13.3705 35.5749 13.4479 35.7578 13.5719 35.9251C13.6927 36.0893 13.8445 36.2194 14.0274 36.3093C14.2133 36.4023 14.4054 36.4487 14.613 36.4487Z" fill="#E9E2D1"/>
</g>
</svg>
