<svg width="74" height="94" viewBox="0 0 74 94" fill="none" xmlns="http://www.w3.org/2000/svg">
<mask id="mask0_80_2607" style="mask-type:luminance" maskUnits="userSpaceOnUse" x="0" y="0" width="74" height="94">
<path d="M0 0H74V93.1383H0V0Z" fill="white"/>
</mask>
<g mask="url(#mask0_80_2607)">
<path d="M53.6957 37.2547C54.3624 36.9431 55.0124 36.598 55.6423 36.2127C56.2722 35.8307 56.8787 35.4119 57.4583 34.9596C58.0413 34.5072 58.5975 34.0248 59.1235 33.5088C59.6529 32.9961 60.1488 32.4534 60.6145 31.8804C61.0803 31.3108 61.5125 30.7144 61.9112 30.0979C62.3099 29.4781 62.6751 28.8381 63.0001 28.1781C63.3251 27.518 63.6133 26.8412 63.8646 26.1476C64.1158 25.4574 64.3236 24.7538 64.4945 24.0368C64.6653 23.3198 64.796 22.5961 64.8831 21.8656C64.9736 21.1352 65.0205 20.4015 65.0238 19.6643C65.0305 18.9306 64.9937 18.1968 64.9166 17.463C64.8396 16.7326 64.7223 16.0056 64.5615 15.2885C64.4006 14.5682 64.203 13.8612 63.9617 13.1643C63.7238 12.4674 63.4457 11.7872 63.1274 11.1238C62.8125 10.4571 62.4607 9.81376 62.0687 9.18721C61.68 8.56401 61.2578 7.96091 60.7988 7.38462C60.3431 6.80833 59.854 6.25884 59.3346 5.73616C58.8153 5.21347 58.2658 4.72094 57.6895 4.25857C57.1166 3.79954 56.5168 3.37067 55.8936 2.97866C55.2704 2.58665 54.6238 2.22814 53.9604 1.90649C53.297 1.58819 52.6168 1.30339 51.9199 1.0588C51.2263 0.817564 50.516 0.613181 49.799 0.445654C49.0786 0.281478 48.3549 0.157508 47.6211 0.0770947C46.8874 -0.00666852 46.1503 -0.046875 45.4131 -0.046875C44.676 -0.046875 43.9423 -0.00666852 43.2085 0.0770947C42.4747 0.157508 41.7477 0.281478 41.0306 0.445654C40.3103 0.613181 39.6033 0.817564 38.9064 1.0588C38.2095 1.30339 37.5327 1.58819 36.8659 1.90649C36.2025 2.22814 35.5592 2.58665 34.936 2.97866C34.3128 3.37067 33.7131 3.79954 33.1368 4.25857C32.5605 4.72094 32.0143 5.21347 31.495 5.73616C30.9757 6.25884 30.4865 6.80833 30.0275 7.38462C29.5718 7.96091 29.1463 8.56401 28.7576 9.18721C28.3689 9.81376 28.0171 10.4571 27.6988 11.1238C27.3839 11.7872 27.1058 12.4674 26.8646 13.1643C26.6267 13.8612 26.4256 14.5682 26.2682 15.2885C26.1073 16.0056 25.9901 16.7326 25.9097 17.463C25.8326 18.1968 25.7991 18.9306 25.8024 19.6643C25.8091 20.4015 25.856 21.1352 25.9432 21.8656C26.0336 22.5961 26.1609 23.3198 26.3318 24.0368C26.5027 24.7538 26.7138 25.4574 26.9617 26.1476C27.213 26.8412 27.5012 27.518 27.8295 28.1781C28.1545 28.8381 28.5164 29.4781 28.9151 30.0979C29.3138 30.7144 29.746 31.3108 30.2151 31.8804C30.6808 32.4534 31.1767 32.9961 31.7027 33.5088C32.2321 34.0248 32.785 34.5072 33.368 34.9596C33.9509 35.4119 34.5574 35.8307 35.1873 36.2127C35.8172 36.598 36.4638 36.9431 37.134 37.2547C34.018 38.2129 31.1499 39.6604 28.5331 41.6037C25.9499 40.4109 23.2359 39.8145 20.388 39.8178C19.4096 39.8178 18.4379 39.8882 17.4696 40.0356C16.5013 40.1797 15.5498 40.3941 14.615 40.6823C13.6768 40.9704 12.7688 41.3222 11.8876 41.7477C11.0065 42.1699 10.1588 42.6557 9.34794 43.2052C8.54046 43.7547 7.77653 44.3612 7.05617 45.0212C6.33915 45.6846 5.67575 46.3983 5.0626 47.1622C4.4528 47.9228 3.89996 48.7269 3.41078 49.5713C2.91825 50.4189 2.49273 51.2934 2.13423 52.2014C1.77572 53.1094 1.48422 54.0409 1.26644 54.9924C1.0453 55.944 0.897877 56.9056 0.824166 57.8806C0.747103 58.8556 0.747104 59.8273 0.817465 60.8023C0.887826 61.7773 1.0319 62.7389 1.24633 63.6904C1.46077 64.6453 1.74891 65.5768 2.10407 66.4848C2.45923 67.3961 2.87805 68.274 3.36722 69.1216C3.85305 69.9693 4.40254 70.7735 5.00899 71.5407C5.61544 72.3047 6.27884 73.0217 6.99586 73.6884V91.5368C6.99586 91.8115 7.06622 92.0695 7.20694 92.3074C7.34431 92.5419 7.5353 92.7295 7.77318 92.8636C8.01107 93.021 8.26906 93.0981 8.55386 93.0947C8.82525 93.0914 9.07654 93.0244 9.31108 92.887L20.388 86.6852L31.4682 92.887C31.7027 93.0277 31.954 93.0947 32.2254 93.0947C32.5069 93.0947 32.7682 93.021 33.0061 92.8636C33.2406 92.7295 33.4283 92.5419 33.5656 92.304C33.6997 92.0661 33.7667 91.8115 33.7633 91.5368V73.6884C34.2961 73.1892 34.802 72.6632 35.2778 72.1103C35.7535 71.5541 36.1958 70.9745 36.6079 70.3714C37.0167 69.7683 37.3919 69.1451 37.7337 68.4984C38.0755 67.8518 38.377 67.1884 38.6451 66.5082C38.9097 65.8314 39.1376 65.1379 39.3252 64.4342C39.5162 63.7273 39.6636 63.0136 39.7708 62.2932C39.878 61.5695 39.9484 60.8458 39.9752 60.1154C40.002 59.3883 39.9886 58.6579 39.9317 57.9308C39.878 57.2038 39.7809 56.4801 39.6469 55.763C39.5095 55.046 39.3353 54.3391 39.1175 53.6422C38.903 52.9452 38.6484 52.2617 38.3569 51.595C38.0654 50.9249 37.7371 50.2749 37.3718 49.6416C37.0066 49.0084 36.6079 48.3986 36.1757 47.8122C35.7401 47.2225 35.2744 46.663 34.7785 46.1269C34.2826 45.5908 33.7566 45.0849 33.2038 44.6091C32.6509 44.13 32.0713 43.6844 31.4682 43.2722C33.5288 41.9119 35.7401 40.8766 38.109 40.1696C40.4778 39.466 42.8969 39.1176 45.3696 39.131C46.1637 39.131 46.9577 39.1678 47.7485 39.2382C48.5425 39.3119 49.3299 39.4225 50.1106 39.5732C50.8913 39.7207 51.6652 39.9049 52.4292 40.1261C53.1931 40.3439 53.947 40.6019 54.6874 40.8934C55.4279 41.1849 56.1516 41.5099 56.8586 41.8717C57.5689 42.2302 58.2591 42.6222 58.9326 43.0478C59.6027 43.4733 60.2527 43.9289 60.8826 44.4181C61.5091 44.9039 62.1156 45.4199 62.6952 45.9627C63.2749 46.5055 63.8277 47.0751 64.3537 47.6715C64.8798 48.2679 65.3756 48.8877 65.8414 49.531C66.3071 50.1744 66.7427 50.8378 67.1481 51.5213C67.5535 52.2048 67.9221 52.905 68.2605 53.6254C68.5989 54.3424 68.9004 55.0762 69.1685 55.8234C69.4365 56.5705 69.671 57.3277 69.8654 58.0984C70.063 58.869 70.2205 59.6463 70.3445 60.4303C70.4651 61.2144 70.5522 62.0018 70.5991 62.7958H48.0299C47.8222 62.7958 47.6245 62.8327 47.4335 62.9131C47.2425 62.9902 47.0717 63.1041 46.9276 63.2515C46.7802 63.3956 46.6662 63.5631 46.5892 63.7541C46.5088 63.9451 46.4686 64.1427 46.4686 64.3505C46.4686 64.5582 46.5088 64.7559 46.5892 64.9469C46.6662 65.1379 46.7802 65.3054 46.9276 65.4495C47.0717 65.5969 47.2425 65.7108 47.4335 65.7879C47.6245 65.8683 47.8222 65.9051 48.0299 65.9051H72.251C72.4553 65.9051 72.653 65.8616 72.844 65.7812C73.035 65.7007 73.2025 65.5902 73.3466 65.4428C73.494 65.2987 73.6046 65.1312 73.685 64.9435C73.7654 64.7525 73.8056 64.5549 73.809 64.3505C73.809 62.8427 73.685 61.345 73.4437 59.8574C73.2025 58.3698 72.8474 56.9089 72.3716 55.4783C71.8958 54.0476 71.3128 52.6604 70.6159 51.3236C69.919 49.9834 69.1216 48.7102 68.2236 47.4973C67.3223 46.2877 66.3339 45.1552 65.255 44.0998C64.1728 43.0478 63.0169 42.0828 61.7839 41.215C60.5475 40.3439 59.2542 39.5766 57.8972 38.9132C56.5403 38.2498 55.1398 37.6969 53.6957 37.2547ZM28.9218 19.5638C28.9218 19.0277 28.9486 18.4883 29.0022 17.9522C29.0558 17.4161 29.1329 16.8834 29.2401 16.354C29.344 15.828 29.4746 15.3053 29.6321 14.7893C29.7896 14.2733 29.9705 13.7674 30.1782 13.2682C30.3826 12.7689 30.6138 12.2831 30.8684 11.8073C31.1231 11.3349 31.4012 10.8725 31.7027 10.4236C32.0009 9.97459 32.3226 9.54237 32.6643 9.1269C33.0094 8.71143 33.3713 8.31272 33.7533 7.93076C34.1352 7.5488 34.5339 7.18694 34.9528 6.84518C35.3682 6.50343 35.8038 6.18513 36.2528 5.88358C36.7017 5.58538 37.1641 5.30729 37.6399 5.05265C38.1157 4.80135 38.6048 4.57017 39.1041 4.36243C39.6033 4.15805 40.1092 3.97712 40.6252 3.81965C41.1446 3.66217 41.6672 3.5315 42.1966 3.42763C42.726 3.32377 43.2587 3.24335 43.7982 3.18975C44.3343 3.13614 44.8737 3.11268 45.4131 3.11268C45.9526 3.11268 46.492 3.13614 47.0314 3.18975C47.5675 3.24335 48.1003 3.32377 48.633 3.42763C49.1624 3.5315 49.6851 3.66217 50.2011 3.81965C50.717 3.97712 51.2263 4.15805 51.7256 4.36243C52.2248 4.57017 52.7106 4.80135 53.1897 5.05265C53.6655 5.30729 54.1279 5.58538 54.5769 5.88358C55.0258 6.18513 55.458 6.50343 55.8769 6.84518C56.2923 7.18694 56.6944 7.5488 57.0764 7.93076C57.4583 8.31272 57.8202 8.71143 58.1619 9.1269C58.5037 9.54237 58.8253 9.97459 59.1269 10.4236C59.4251 10.8725 59.7032 11.3349 59.9578 11.8073C60.2125 12.2831 60.4437 12.7689 60.6514 13.2682C60.8558 13.7674 61.04 14.2733 61.1942 14.7893C61.3517 15.3053 61.4823 15.828 61.5895 16.354C61.6934 16.8834 61.7738 17.4161 61.8274 17.9522C61.8777 18.4883 61.9045 19.0277 61.9045 19.5638C61.9045 20.1033 61.8777 20.6427 61.8274 21.1788C61.7738 21.7149 61.6934 22.2476 61.5895 22.7736C61.4823 23.303 61.3517 23.8257 61.1942 24.3417C61.04 24.8577 60.8558 25.3636 60.6514 25.8628C60.4437 26.3587 60.2125 26.8479 59.9578 27.3203C59.7032 27.7961 59.4251 28.2585 59.1269 28.7074C58.8253 29.1531 58.5037 29.5853 58.1619 30.0041C57.8202 30.4196 57.4583 30.8183 57.0764 31.2002C56.6944 31.5822 56.2923 31.9441 55.8769 32.2858C55.458 32.6276 55.0258 32.9459 54.5769 33.2474C54.1279 33.5456 53.6655 33.8237 53.1897 34.075C52.7106 34.3297 52.2248 34.5608 51.7256 34.7652C51.2263 34.973 50.717 35.1539 50.2011 35.3114C49.6851 35.4655 49.1624 35.5995 48.633 35.7034C48.1003 35.8072 47.5675 35.8877 47.0314 35.9413C46.492 35.9915 45.9526 36.0183 45.4131 36.0183C44.8737 36.0183 44.3343 35.9915 43.7982 35.9379C43.2621 35.8843 42.726 35.8039 42.1966 35.7C41.6672 35.5928 41.1446 35.4621 40.6286 35.3047C40.1126 35.1472 39.6067 34.9663 39.1074 34.7619C38.6082 34.5541 38.119 34.323 37.6432 34.0683C37.1675 33.817 36.7051 33.5389 36.2561 33.2407C35.8071 32.9392 35.3749 32.6175 34.9595 32.2758C34.5406 31.934 34.1419 31.5755 33.76 31.1935C33.378 30.8116 33.0161 30.4129 32.671 29.9974C32.3293 29.5819 32.0076 29.1497 31.7094 28.7007C31.4079 28.2518 31.1298 27.7928 30.8752 27.317C30.6205 26.8412 30.3893 26.3554 30.1849 25.8595C29.9772 25.3603 29.7963 24.8543 29.6388 24.3383C29.4813 23.8224 29.3473 23.303 29.2434 22.7736C29.1362 22.2443 29.0558 21.7149 29.0022 21.1788C28.9486 20.6427 28.9218 20.1033 28.9218 19.5638ZM30.5736 88.8362L21.1452 83.529C20.914 83.3916 20.6594 83.3246 20.388 83.3212C20.1166 83.3179 19.8653 83.3882 19.6341 83.529L10.1152 88.8362V76.0673L10.5508 76.3186L11.2376 76.7073L12.5444 77.3506L13.2547 77.622L14.1292 77.9436L14.8395 78.1714C15.3219 78.3088 15.8011 78.4462 16.2836 78.54H16.7895L18.0962 78.7444H18.6222C19.2186 78.7444 19.7949 78.7444 20.388 78.7444C20.9844 78.7444 21.5606 78.7444 22.1336 78.7444H22.6596C23.1086 78.7008 23.5509 78.6305 23.9898 78.54H24.4723C24.9547 78.54 25.4372 78.3088 25.9164 78.1714L26.6501 77.9436L27.5246 77.622L28.2115 77.3506L29.5416 76.7073L30.1849 76.3421L30.6641 76.0673L30.5736 88.8362ZM29.8164 72.8407L28.9687 73.4137L28.5331 73.665L27.662 74.1441L27.1795 74.3753L26.2849 74.7405L25.7555 74.9449C25.4573 74.9449 25.1591 75.1526 24.8609 75.2196L24.221 75.4039L23.4872 75.5178H22.6362C22.4083 75.5413 22.1771 75.5413 21.9493 75.5178C21.43 75.5547 20.9106 75.5547 20.388 75.5178C19.8619 75.5513 19.3359 75.5513 18.8065 75.5178C18.5787 75.5413 18.3475 75.5413 18.1196 75.5178H17.2921L16.4444 75.3134L15.8245 75.1526L14.9065 74.8779L14.5178 74.7405L13.5998 74.3518L13.1642 74.1441L12.2227 73.665L11.834 73.4137L10.9394 72.8407L10.5943 72.566C10.2961 72.3616 10.0214 72.1304 9.74665 71.9026C9.32113 71.5407 8.91237 71.1588 8.52705 70.7534C8.13839 70.3513 7.77318 69.9291 7.42808 69.4869C7.08297 69.0479 6.76467 68.5889 6.46647 68.1165C6.16828 67.6441 5.89353 67.1582 5.64559 66.6556C5.39765 66.1564 5.17652 65.6438 4.97883 65.1178C4.7845 64.5951 4.61363 64.0657 4.4729 63.5229C4.32883 62.9835 4.21491 62.4373 4.13115 61.8845C4.04403 61.3316 3.98708 60.7788 3.95692 60.2193C3.92677 59.6631 3.92341 59.1035 3.95022 58.544C3.97702 57.9878 4.03398 57.4316 4.11775 56.8788C4.20151 56.3259 4.31208 55.7798 4.4528 55.2404C4.59017 54.6976 4.7577 54.1648 4.95203 53.6422C5.14301 53.1161 5.36415 52.6035 5.60874 52.1009C5.85668 51.5983 6.12472 51.1091 6.41957 50.6367C6.71776 50.1609 7.03607 49.7019 7.37782 49.2597C7.71958 48.8174 8.08478 48.3952 8.4701 47.9898C8.85541 47.5844 9.25747 47.1991 9.68299 46.8339C10.1085 46.4687 10.5508 46.1269 11.0098 45.8086C11.4688 45.4869 11.9446 45.1921 12.4338 44.9207C12.923 44.6493 13.4222 44.4047 13.9382 44.1836C14.4542 43.9624 14.9768 43.7681 15.5129 43.6006C16.0457 43.4331 16.5885 43.2923 17.1346 43.1818C17.6841 43.0679 18.2369 42.9841 18.7931 42.9271C19.3526 42.8702 19.9088 42.84 20.4684 42.84C21.0313 42.84 21.5875 42.8702 22.147 42.9271C22.7032 42.9841 23.256 43.0679 23.8055 43.1818C24.3517 43.2923 24.8944 43.4331 25.4272 43.6006C25.9633 43.7681 26.4859 43.9624 27.0019 44.1836C27.5146 44.4047 28.0171 44.6493 28.5063 44.9207C28.9955 45.1921 29.4713 45.4869 29.9303 45.8086C30.3893 46.1269 30.8316 46.4687 31.2571 46.8339C31.6793 47.1991 32.0847 47.5844 32.47 47.9898C32.8553 48.3952 33.2205 48.8174 33.5623 49.2597C33.904 49.7019 34.2223 50.1609 34.5172 50.6367C34.8154 51.1091 35.0834 51.5983 35.3314 52.1009C35.576 52.6035 35.7971 53.1161 35.9881 53.6422C36.1824 54.1648 36.3499 54.6976 36.4873 55.2404C36.628 55.7798 36.7386 56.3259 36.8224 56.8788C36.9061 57.4316 36.9597 57.9878 36.9899 58.544C37.0167 59.1035 37.0133 59.6631 36.9832 60.2193C36.953 60.7788 36.8961 61.3316 36.809 61.8845C36.7252 62.4373 36.6079 62.9835 36.4672 63.5229C36.3265 64.0657 36.1556 64.5951 35.9613 65.1178C35.7636 65.6438 35.5424 66.1564 35.2945 66.6556C35.0466 67.1582 34.7718 67.6441 34.4736 68.1165C34.1754 68.5889 33.8571 69.0479 33.512 69.4869C33.1669 69.9291 32.8017 70.3513 32.413 70.7534C32.0277 71.1588 31.619 71.5407 31.1935 71.9026L30.3893 72.566L29.8164 72.8407Z" fill="#E9E2D1"/>
</g>
</svg>
