<svg width="110" height="97" viewBox="0 0 110 97" fill="none" xmlns="http://www.w3.org/2000/svg">
<path d="M106.331 71.1325H100.833V46.8825H106.331V71.1325ZM86.2601 75.9086C85.1913 76.8553 83.4388 76.8553 82.3652 75.9086C81.6479 75.276 80.4876 75.276 79.7702 75.9086C79.414 76.2228 79.2358 76.6388 79.2358 77.0506C79.2358 77.4667 79.414 77.8785 79.7702 78.1927C80.295 78.6554 80.5887 79.2668 80.5887 79.9121C80.5887 80.5616 80.295 81.1687 79.7799 81.623C78.7014 82.5697 76.9442 82.5612 75.8657 81.623C75.1436 80.9947 73.9833 81.0031 73.2756 81.6357C72.9241 81.9499 72.746 82.3617 72.746 82.7692C72.746 83.1896 72.9241 83.6056 73.29 83.9198C73.8051 84.374 74.094 84.9769 74.094 85.6264C74.094 86.2717 73.8052 86.8746 73.2756 87.3416C72.7652 87.7959 72.0864 88.0506 71.3546 88.0506H71.3498C70.618 88.0506 69.9295 87.7959 69.3999 87.3374C68.6922 86.7048 67.532 86.7048 66.8146 87.3374C66.4487 87.6515 66.2802 88.0676 66.2802 88.4794C66.2802 88.8954 66.4487 89.3072 66.8146 89.6214C67.3297 90.0842 67.6234 90.6955 67.6234 91.3408C67.6234 91.9861 67.3298 92.5975 66.8242 93.0517C65.7362 93.9985 63.9885 93.9942 62.862 93.0135C62.8042 92.9626 61.5139 91.9224 59.333 90.2667C60.4981 87.9742 59.8241 85.1764 57.4794 83.5292C56.3866 82.7565 55.0867 82.3787 53.782 82.3277C54.0275 80.4555 53.2138 78.5026 51.4036 77.2332C50.3156 76.4733 49.0349 76.0954 47.7398 76.0402C47.7928 75.6157 47.8072 75.1869 47.7543 74.7496C47.5569 73.2425 46.6999 71.8967 45.3615 70.9669C44.0279 70.0287 42.3429 69.5999 40.6386 69.7824C40.1379 69.8334 39.6612 69.9438 39.1991 70.0923C38.8428 68.9928 38.1206 67.9739 37.0374 67.2097C34.2691 65.2865 30.2153 65.6941 28.0055 68.1394L25.5598 70.8735C20.8802 69.1796 16.6146 68.2031 12.8304 67.9611V50.1175H31.1638C32.04 50.1175 32.897 49.9392 33.624 49.6038L45.7033 44.2418C47.1092 43.605 48.8616 43.5158 50.4311 43.9277L40.1619 53.4629C38.9583 54.6432 38.371 56.2479 38.5587 57.8697C38.7369 59.4872 39.6661 60.9604 41.1056 61.9071C43.7005 63.6053 47.3595 63.3718 49.5549 61.4019L58.789 53.7771C58.996 53.9129 79.9195 67.5536 86.3467 72.5547C86.8089 72.9113 87.0737 73.4378 87.1026 74.0236C87.1267 74.7241 86.8185 75.4119 86.2601 75.9086ZM55.6499 89.4643L52.6313 92.8395C51.6829 93.8923 49.9352 94.0706 48.7557 93.2428C47.5665 92.4149 47.3643 90.8866 48.2983 89.8422C48.2983 89.8379 48.2983 89.8379 48.3031 89.8379L51.341 86.467C51.8851 85.8514 52.6939 85.5373 53.5075 85.5373C54.1045 85.5373 54.6967 85.7071 55.1926 86.0552C56.3866 86.8958 56.5888 88.4242 55.6499 89.4601V89.4643ZM41.5485 88.2331C40.369 87.401 40.1619 85.8727 41.0911 84.8283C41.0911 84.8241 41.0911 84.8241 41.0911 84.8241L45.2941 80.1498C45.8382 79.5639 46.6422 79.254 47.4462 79.254C48.0383 79.254 48.6305 79.4238 49.1264 79.7635C50.3252 80.6041 50.5322 82.1324 49.5934 83.1683C49.5838 83.1768 49.5838 83.1768 49.5838 83.1768L45.4193 87.8341C44.4709 88.87 42.7377 89.044 41.5485 88.2331ZM34.3606 83.2193C33.7876 82.816 33.4217 82.2343 33.3351 81.589C33.2484 80.9522 33.4506 80.3196 33.908 79.8144C33.908 79.8144 39.2231 73.8963 39.2279 73.892C40.1331 72.8858 41.8951 72.6608 43.0891 73.5014C44.259 74.3208 44.4709 75.8619 43.532 76.9063L38.2217 82.8202C37.2829 83.8688 35.5545 84.0471 34.3606 83.2193ZM27.1774 78.2096C25.9883 77.3733 25.7813 75.8364 26.7249 74.7836L30.8797 70.1475C31.4334 69.5404 32.2422 69.2263 33.0558 69.2263C33.6528 69.2263 34.2546 69.3961 34.7602 69.7442C35.9445 70.5763 36.1419 72.1047 35.2127 73.1533L31.0386 77.8021C30.0902 78.8507 28.357 79.0248 27.1774 78.2096ZM42.5306 42.0342H36.6667V37.1816H45.8333V40.7775C45.2075 40.9261 44.6008 41.1044 44.0376 41.3634L42.5306 42.0342ZM29.3343 45.265V6.46582C29.3343 4.68273 30.9808 3.23079 32.9981 3.23079H42.1647V17.4361C42.1647 18.7437 42.9302 19.9027 44.2205 20.548C44.8512 20.8621 45.5397 21.0235 46.2185 21.0235C46.9358 21.0235 47.6532 20.8451 48.3031 20.5055L55 16.9606L61.6969 20.5055C62.9631 21.1721 64.4892 21.1933 65.7795 20.548C67.0649 19.9027 67.8304 18.7437 67.8304 17.4361V3.23079H76.9971C79.0192 3.23079 80.6657 4.68273 80.6657 6.46582V45.265C80.6657 45.8423 80.4876 46.3943 80.165 46.8825H75.9331C75.6539 46.8825 75.3747 46.8273 75.1291 46.7169L63.0834 41.3761C61.7113 40.7521 60.1418 40.4167 58.5579 40.4167C56.791 40.4167 55.0578 40.837 53.546 41.5969C52.3087 40.9856 50.9174 40.6162 49.4971 40.4973V37.1816C49.4971 35.4028 47.8506 33.9508 45.8333 33.9508H36.6667C34.6446 33.9508 32.9981 35.4028 32.9981 37.1816V42.0342C32.9981 43.4861 34.0958 44.7046 35.5931 45.1079L31.9533 46.7254C31.7319 46.8273 31.4526 46.8825 31.1638 46.8825H29.835C29.5124 46.3943 29.3343 45.8423 29.3343 45.265ZM45.8333 3.23079H64.1667V17.4361C64.1667 17.5677 64.0993 17.6696 63.9741 17.7332C63.8778 17.7842 63.7382 17.8181 63.5793 17.7332L55.9436 13.6916C55.3659 13.3859 54.6341 13.3859 54.0564 13.6916L46.4207 17.7332C46.257 17.8181 46.1174 17.7842 46.0259 17.7332C45.8959 17.6696 45.8333 17.5677 45.8333 17.4361V3.23079ZM60.9362 51.1576C59.5256 50.2746 57.5902 50.3935 56.3384 51.4336L47.0081 59.0839C46.0211 59.9627 44.4275 60.0561 43.2961 59.3089C42.6799 58.9056 42.2899 58.2603 42.2033 57.547C42.1214 56.8338 42.3718 56.1333 42.8532 55.6621L53.8879 45.4093C55.7944 43.6559 59.0152 43.1635 61.4176 44.2546L73.4633 49.5911C74.2048 49.9392 75.0665 50.1175 75.9331 50.1175H97.1647V67.9441C92.7836 68.1394 89.5243 68.9673 87.9114 69.4768C80.6176 63.9831 61.798 51.7138 60.9362 51.1576ZM9.16667 71.1325H3.66378V46.8825H9.16667V71.1325ZM106.331 43.6474H100.833C98.8113 43.6474 97.1647 45.0994 97.1647 46.8825H84.0695C84.2236 46.3603 84.3343 45.8211 84.3343 45.265V6.46582C84.3343 2.89964 81.046 0 76.9971 0H32.9981C28.954 0 25.6657 2.89964 25.6657 6.46582V45.265C25.6657 45.8211 25.7716 46.3603 25.9305 46.8825H12.8304C12.8304 45.0994 11.1839 43.6474 9.16667 43.6474H3.66378C1.64653 43.6474 0 45.0994 0 46.8825V71.1325C0 72.9113 1.64653 74.3675 3.66378 74.3675H9.16667C11.155 74.3675 12.7775 72.958 12.8256 71.2089C15.9213 71.4297 19.4262 72.2108 23.297 73.5439C21.7901 75.9256 22.4015 78.9866 24.9002 80.7442C26.0749 81.5593 27.4711 81.9499 28.8577 81.9499C29.1417 81.9499 29.4113 81.8989 29.6906 81.8692C29.7002 81.9074 29.6906 81.9371 29.6906 81.9711C29.8928 83.4655 30.7449 84.8028 32.0882 85.7538C33.2629 86.5732 34.6687 86.9722 36.0649 86.9722C36.3441 86.9722 36.6137 86.9213 36.8881 86.8873C37.0615 88.3605 37.8703 89.7742 39.2809 90.7719C40.4556 91.5786 41.8566 91.9734 43.248 91.9734C43.5272 91.9734 43.8113 91.9224 44.0905 91.8885C44.259 93.3616 45.0582 94.7839 46.4785 95.7815C47.6436 96.5967 49.0542 96.9915 50.4456 96.9915C52.3424 96.9915 54.2345 96.2613 55.5055 94.8475L57.2195 92.9329C59.1693 94.4103 60.3296 95.3528 60.3296 95.3528C61.5813 96.4438 63.2134 96.9873 64.8599 96.9873C66.5065 96.9873 68.1482 96.4438 69.3999 95.3443C70.618 94.2702 71.292 92.8479 71.292 91.3408C71.292 91.3238 71.292 91.3026 71.292 91.2856C71.3113 91.2856 71.3354 91.2771 71.3642 91.2856C73.0734 91.2771 74.6814 90.6913 75.8657 89.6299C77.0838 88.56 77.7578 87.1421 77.7578 85.6264C77.7578 85.601 77.7578 85.5797 77.7578 85.5543C77.7819 85.5543 77.8011 85.5543 77.8252 85.5543C79.4621 85.5543 81.1086 85.0066 82.3652 83.9155C83.5784 82.8414 84.2525 81.4192 84.2525 79.9121C84.2525 79.8908 84.2525 79.8654 84.2525 79.8484C84.2669 79.8484 84.291 79.8484 84.3102 79.8484C85.9568 79.8484 87.6033 79.2922 88.8599 78.1884C90.1357 77.0549 90.8193 75.501 90.7616 73.9175C90.7423 73.3062 90.5834 72.7288 90.3475 72.1853C91.8785 71.7905 94.2135 71.3363 97.1744 71.1877C97.2081 72.9453 98.8354 74.3675 100.833 74.3675H106.331C108.353 74.3675 110 72.9113 110 71.1325V46.8825C110 45.0994 108.353 43.6474 106.331 43.6474Z" fill="#EBE3D2"/>
</svg>
