<svg width="125" height="99" viewBox="0 0 125 99" fill="none" xmlns="http://www.w3.org/2000/svg">
<mask id="mask0_80_2737" style="mask-type:luminance" maskUnits="userSpaceOnUse" x="0" y="0" width="125" height="99">
<path d="M0.826355 0.571777H124.397V98.3085H0.826355V0.571777Z" fill="white"/>
</mask>
<g mask="url(#mask0_80_2737)">
<path d="M105.637 62.1108L90.6717 44.0103V36.7726L79.447 25.913H75.7065V22.2911H60.7413L42.0324 7.81256L30.8078 0.571777L15.8426 7.81256L19.5831 11.4314V15.0534H12.1021L8.35838 22.2911H4.61788L0.87738 29.5318H4.61788L19.5831 54.87H23.3268L27.0673 62.1108V69.3515L30.8078 76.5892L38.292 80.2112L42.0324 91.0708H45.7729L49.5166 98.3085L53.2571 91.0708L75.7065 98.3085L83.1907 87.4489H98.1559L120.605 80.2112L124.346 65.7296L105.637 62.1108ZM117.473 77.4037L97.5505 83.83H81.1866L74.1804 94.0017L51.3646 86.6467L49.5166 90.2162L48.0861 87.4489H44.7311L41.3506 77.6444L33.5956 73.8928L30.8078 68.497V61.2562L25.6367 51.2511H21.7528L6.86728 26.0395L6.931 25.913H10.6715L14.412 18.6722H23.3268V9.93204L22.1575 8.80289L30.5401 4.74904L39.9551 10.8236L59.4255 25.913H71.966V29.5318H77.8986L86.9312 38.2689V45.2814L103.569 65.4057L119.767 68.5402L117.473 77.4037Z" fill="#E9E2D1"/>
</g>
<mask id="mask1_80_2737" style="mask-type:luminance" maskUnits="userSpaceOnUse" x="35" y="30" width="37" height="39">
<path d="M35.6348 30.4663H71.1154V68.1604H35.6348V30.4663Z" fill="white"/>
</mask>
<g mask="url(#mask1_80_2737)">
<path d="M66.2596 65.8743C65.5268 68.1326 62.2642 68.3794 60.4003 66.9757L58.1764 65.2974L57.0772 67.5063C56.1724 66.8245 55.8824 65.6182 56.3795 64.6186L56.6248 64.1281L53.375 61.6785L50.1251 64.1281L50.3673 64.6186C50.8675 65.6182 50.5775 66.8245 49.6695 67.5063L48.5735 65.2974L46.3496 66.9757C44.4857 68.3794 41.2231 68.1326 40.4903 65.8743C39.7129 63.4833 42.5453 63.0637 42.934 64.7852C43.1443 65.7015 44.1894 66.1735 45.2089 65.4146C46.1361 64.7297 47.6973 63.5388 47.6973 63.5388L47.4551 63.0514C46.9549 62.0487 47.248 60.8424 48.1529 60.1606L49.2489 62.3696L51.7691 60.4691L35.6474 48.3168C35.6474 48.3168 37.9605 47.9497 39.92 48.9154C44.5972 51.223 53.375 59.2598 53.375 59.2598C53.375 59.2598 62.1527 51.223 66.8267 48.9154C68.7894 47.9497 71.0993 48.3168 71.0993 48.3168L54.9776 60.4691L57.4978 62.3696L58.597 60.1606C59.5019 60.8455 59.7918 62.0487 59.2948 63.0514L59.0526 63.5388C59.0526 63.5388 60.6138 64.7297 61.5378 65.4146C62.5605 66.1735 63.6056 65.7015 63.8127 64.7852C64.2014 63.0637 67.037 63.4833 66.2596 65.8743ZM43.9982 38.7314C45.3141 38.0218 46.8625 37.7256 48.3664 37.9107C46.853 38.7067 45.6518 40.0518 45.056 41.6221C44.5399 42.9734 44.4793 44.4789 44.8457 45.8673C44.9031 46.0894 45.2185 46.1079 45.3109 45.9012C46.066 44.2414 47.3627 42.8161 49.0163 41.906C47.9617 44.0316 48.1051 46.6632 49.3509 48.684C49.4688 48.8783 49.7746 48.8105 49.8065 48.5883C50.0901 46.5306 51.014 44.6733 52.349 43.0721L51.801 54.6475L53.3686 55.6841V55.6934L53.375 55.6872L53.3813 55.6934V55.6841L54.9457 54.6475L54.4009 43.0721C55.7327 44.6733 56.6598 46.5306 56.9434 48.5883C56.9721 48.8105 57.2779 48.8783 57.399 48.684C58.6448 46.6632 58.785 44.0316 57.7336 41.906C59.384 42.8161 60.6839 44.2414 61.4358 45.9012C61.5314 46.1079 61.8436 46.0894 61.9042 45.8673C62.2674 44.4789 62.2069 42.9734 61.6939 41.6221C61.0981 40.0518 59.8969 38.7067 58.3803 37.9107C59.8842 37.7256 61.4358 38.0218 62.7485 38.7314C62.962 38.8455 63.2009 38.6388 63.1022 38.4228C62.6529 37.4418 61.9456 36.5502 61.0439 35.9023C59.9415 35.1063 58.5619 34.6837 57.1855 34.7176C58.2593 34.2024 59.505 34.0265 60.6871 34.2209C60.926 34.261 61.0822 33.9895 60.9165 33.8198C60.2251 33.1164 59.3011 32.6166 58.3102 32.4346C57.074 32.2063 55.7486 32.4747 54.7067 33.1627C54.4423 32.2341 53.4928 30.6668 53.3813 30.4848V30.4663C53.3813 30.4663 53.3781 30.4725 53.375 30.4756C53.3718 30.4725 53.3686 30.4663 53.3686 30.4663V30.4848C53.2571 30.6668 52.3044 32.2341 52.04 33.1627C51.0013 32.4747 49.6727 32.2063 48.4365 32.4346C47.4488 32.6166 46.5248 33.1164 45.8334 33.8198C45.6677 33.9895 45.8239 34.261 46.0596 34.2209C47.2449 34.0265 48.4906 34.2024 49.5644 34.7176C48.188 34.6837 46.8084 35.1063 45.7028 35.9023C44.8043 36.5502 44.097 37.4418 43.6477 38.4228C43.549 38.6388 43.7879 38.8455 43.9982 38.7314Z" fill="#E9E2D1"/>
</g>
</svg>
