<svg width="95" height="104" viewBox="0 0 95 104" fill="none" xmlns="http://www.w3.org/2000/svg">
<mask id="mask0_80_2696" style="mask-type:luminance" maskUnits="userSpaceOnUse" x="7" y="29" width="89" height="75">
<path d="M7.61122 29.4312H95.0005V103.99H7.61122V29.4312Z" fill="white"/>
</mask>
<g mask="url(#mask0_80_2696)">
<path d="M87.5605 31.1207C89.0093 34.3703 90.1021 37.7503 90.8425 41.2682C91.5793 44.7823 91.946 48.3424 91.9353 51.9484C91.9389 54.2516 91.7858 56.5394 91.4868 58.8157C91.1842 61.092 90.7321 63.3338 90.1306 65.5373C89.5325 67.7446 88.7886 69.8945 87.9058 71.983C87.0194 74.0753 86.0014 76.0872 84.8481 78.0186C83.6947 79.9501 82.4239 81.7857 81.0286 83.5216C79.6296 85.2538 78.1274 86.8709 76.5185 88.3731C74.906 89.8753 73.2045 91.2434 71.414 92.4812C69.6199 93.719 67.7582 94.8112 65.8182 95.7577C63.8818 96.7043 61.8919 97.4975 59.8487 98.1337C57.809 98.7736 55.7337 99.2488 53.6264 99.5669C51.5227 99.8811 49.4082 100.031 47.2796 100.019C45.1545 100.008 43.04 99.8275 40.9399 99.4864C38.8361 99.1453 36.768 98.6433 34.7318 97.9804C32.6957 97.3174 30.7166 96.5012 28.7872 95.5316C26.8615 94.5583 25.0069 93.4469 23.2271 92.1861C21.4508 90.9292 19.7635 89.5381 18.1688 88.0167L21.4971 84.4222C21.6964 84.2076 21.8317 83.9508 21.8993 83.6558C21.9705 83.3568 21.9634 83.0656 21.8815 82.7705C21.7996 82.4793 21.6537 82.2302 21.4437 82.0232C21.2372 81.8163 20.9916 81.686 20.714 81.6247L9.88552 79.2756C9.76093 79.2488 9.63634 79.2373 9.5082 79.2449C9.38361 79.2526 9.25902 79.2756 9.14155 79.3139C9.02053 79.3522 8.90306 79.4097 8.79627 79.4787C8.68948 79.5477 8.58981 79.632 8.50082 79.7278C8.41183 79.8236 8.33351 79.9309 8.26944 80.0497C8.20537 80.1646 8.15553 80.2873 8.11638 80.4176C8.08078 80.5517 8.05942 80.682 8.0523 80.82C8.04518 80.9541 8.05586 81.092 8.08078 81.2262L10.2379 92.9411C10.2913 93.24 10.4159 93.5044 10.6046 93.7305C10.7932 93.9566 11.0246 94.1137 11.2916 94.2019C11.5621 94.29 11.8362 94.2977 12.1103 94.2248C12.3844 94.152 12.6193 94.0064 12.8187 93.7918L15.9974 90.362C17.6989 91.9984 19.5001 93.4967 21.401 94.8495C23.2983 96.2061 25.281 97.4094 27.342 98.4556C29.3995 99.5056 31.521 100.387 33.696 101.104C35.8745 101.824 38.0886 102.368 40.3383 102.74C42.588 103.115 44.8519 103.311 47.1301 103.334C49.4047 103.353 51.6722 103.2 53.929 102.866C56.1822 102.533 58.407 102.031 60.5962 101.353C62.7818 100.674 64.9176 99.8313 66.9929 98.8196C69.0682 97.8118 71.0687 96.6468 72.9909 95.3247C74.9095 94.0064 76.7356 92.5425 78.4621 90.9369C80.1885 89.3312 81.801 87.6029 83.296 85.7481C84.7947 83.8933 86.1616 81.9313 87.3968 79.8619C88.632 77.7925 89.7248 75.6389 90.6752 73.4009C91.6256 71.1629 92.4194 68.8636 93.0637 66.4992C93.708 64.1386 94.1921 61.7396 94.516 59.3024C94.84 56.8651 95.0037 54.4125 95.0002 51.9484C95.0108 48.0933 94.6193 44.288 93.829 40.5286C93.0424 36.7693 91.8712 33.1555 90.3228 29.6836L87.5605 31.1207ZM12.6834 89.2545L11.5336 83.0158L17.3038 84.2651L12.6834 89.2545Z" fill="#E9E2D1"/>
</g>
<mask id="mask1_80_2696" style="mask-type:luminance" maskUnits="userSpaceOnUse" x="0" y="0" width="88" height="75">
<path d="M0 0H87.8022V74.5585H0V0Z" fill="white"/>
</mask>
<g mask="url(#mask1_80_2696)">
<path d="M7.43987 72.7807C5.99109 69.5311 4.89828 66.1511 4.16144 62.6332C3.42103 59.1191 3.05795 55.5552 3.06507 51.9491C3.06507 49.6498 3.21813 47.362 3.5207 45.0857C3.82327 42.8094 4.27534 40.5714 4.87336 38.3641C5.47494 36.1568 6.21891 34.0107 7.10526 31.9184C7.99161 29.8299 9.00967 27.818 10.163 25.8866C11.3128 23.9513 12.5871 22.1196 13.9825 20.3836C15.3814 18.6514 16.8836 17.0304 18.4926 15.5321C20.1051 14.0299 21.8066 12.6618 23.5971 11.424C25.3912 10.1862 27.2528 9.09404 29.1929 8.14749C31.1293 7.20095 33.1191 6.40769 35.1588 5.77155C37.202 5.13158 39.2773 4.65256 41.3811 4.33833C43.4884 4.02026 45.6028 3.8708 47.7279 3.8823C49.8566 3.8938 51.9675 4.07008 54.0712 4.41114C56.175 4.7522 58.2431 5.25421 60.2792 5.91334C62.3153 6.57631 64.2981 7.39256 66.2238 8.3621C68.1532 9.33163 70.0042 10.4468 71.784 11.7037C73.5638 12.9607 75.2511 14.3479 76.8494 15.8693L73.5069 19.4792C73.3075 19.6938 73.1723 19.9506 73.1011 20.2456C73.0334 20.5445 73.0406 20.8358 73.1189 21.1309C73.2007 21.4221 73.3467 21.6712 73.5567 21.8781C73.7667 22.0851 74.0088 22.2154 74.2864 22.2767L85.1184 24.6258C85.243 24.6526 85.3676 24.6641 85.4922 24.6564C85.6168 24.6488 85.7414 24.6258 85.8624 24.5875C85.9834 24.5491 86.0973 24.4917 86.2041 24.4227C86.3145 24.3537 86.4106 24.2694 86.5031 24.1736C86.5921 24.0778 86.6669 23.9705 86.7309 23.8517C86.7986 23.7367 86.8484 23.6141 86.884 23.48C86.9196 23.3497 86.941 23.2194 86.9481 23.0814C86.9552 22.9435 86.9445 22.8093 86.9196 22.6752L84.766 10.9603C84.7091 10.6614 84.588 10.397 84.3994 10.1709C84.2072 9.94478 83.9793 9.78766 83.7088 9.69952C83.4383 9.61138 83.1677 9.60372 82.8936 9.67653C82.6196 9.74934 82.3811 9.89496 82.1817 10.1096L79.0208 13.524C77.3157 11.8877 75.5145 10.3931 73.6136 9.04039C71.7128 7.6838 69.7336 6.48434 67.6726 5.43816C65.6116 4.39198 63.49 3.50675 61.3115 2.79013C59.1366 2.07352 56.9225 1.52935 54.6692 1.15763C52.4195 0.785912 50.1556 0.590472 47.881 0.56748C45.6028 0.548319 43.3389 0.705438 41.0821 1.03884C38.8252 1.3684 36.604 1.87425 34.4148 2.55254C32.2292 3.23083 30.0934 4.07391 28.0182 5.0856C25.9429 6.09346 23.9424 7.25843 22.0202 8.58053C20.1015 9.89879 18.2754 11.3627 16.549 12.9684C14.8226 14.574 13.2101 16.3023 11.7114 18.1571C10.2164 20.0119 8.84949 21.9739 7.61429 24.0433C6.37554 26.1088 5.28272 28.2625 4.3323 30.5005C3.38543 32.7385 2.58807 35.0378 1.94378 37.4022C1.29948 39.7628 0.811811 42.1618 0.487884 44.599C0.163956 47.0363 0.000212651 49.4888 0.000212651 51.9491C-0.0104665 55.8042 0.381094 59.6134 1.17134 63.3728C1.96158 67.1321 3.1327 70.7458 4.68114 74.2178L7.43987 72.7807ZM82.3205 14.6468L83.4667 20.8856L77.6966 19.6287L82.3205 14.6468Z" fill="#E9E2D1"/>
</g>
<path d="M67.8365 82.0815C67.9112 82.0815 67.9895 82.0815 68.0607 82.0815C68.8047 82.0815 69.5273 81.9627 70.2357 81.7212C70.9405 81.4836 71.599 81.1349 72.2077 80.6789C72.82 80.2267 73.3504 79.6825 73.8096 79.0502C74.2652 78.4179 74.6247 77.7281 74.8881 76.9808C75.148 76.2297 75.3011 75.4556 75.3473 74.6547C75.39 73.8538 75.326 73.0682 75.148 72.2864C74.97 71.5085 74.6888 70.7766 74.3079 70.0906C73.9235 69.4047 73.4536 68.7992 72.8983 68.2665L59.062 54.9919C59.3467 53.8269 59.4784 52.639 59.4642 51.4357C59.45 50.2285 59.2827 49.0482 58.9694 47.8909C58.6562 46.7374 58.2041 45.6453 57.6167 44.6221C57.0294 43.5989 56.3246 42.6792 55.5023 41.8668C54.68 41.0505 53.7759 40.3684 52.7827 39.8242C51.7896 39.2762 50.7466 38.8815 49.6538 38.6439C48.561 38.4063 47.4611 38.3297 46.3469 38.414C45.2363 38.5021 44.1577 38.7474 43.1076 39.1536C42.9866 39.1996 42.8727 39.2647 42.7659 39.3414C42.6591 39.4218 42.5594 39.5138 42.474 39.6173C42.3886 39.7207 42.3174 39.8357 42.2569 39.9583C42.1999 40.0848 42.1572 40.2151 42.1287 40.3531C42.1003 40.4872 42.086 40.6251 42.0896 40.7669C42.0931 40.9049 42.1145 41.0428 42.1501 41.177C42.1857 41.3111 42.2355 41.4376 42.3032 41.5602C42.3672 41.679 42.4455 41.7901 42.5381 41.8898L46.1298 45.7756L41.7977 50.4623L38.206 46.5765C38.1135 46.4768 38.0138 46.3925 37.8999 46.3236C37.7895 46.2507 37.6721 46.1971 37.5475 46.1549C37.4229 46.1166 37.2947 46.0975 37.1666 46.0898C37.0384 46.086 36.9103 46.1013 36.7821 46.132C36.6576 46.1626 36.5365 46.2086 36.4226 46.2737C36.3052 46.3389 36.2019 46.4155 36.1023 46.5075C36.0061 46.5995 35.9207 46.7068 35.8495 46.8217C35.7783 46.9367 35.7214 47.0632 35.6751 47.1935C35.3013 48.3278 35.0735 49.4966 34.9952 50.6999C34.9133 51.9032 34.9845 53.095 35.2052 54.2753C35.4259 55.4556 35.789 56.5823 36.2945 57.6591C36.7999 58.7321 37.43 59.7131 38.1811 60.6022C38.9357 61.4913 39.7865 62.2539 40.7298 62.89C41.6767 63.5261 42.684 64.0166 43.7519 64.3539C44.8234 64.6949 45.9126 64.8712 47.0268 64.8904C48.141 64.9057 49.2373 64.7601 50.3159 64.4535L62.5896 79.4219C63.2552 80.242 64.0419 80.882 64.9567 81.3457C65.868 81.8094 66.8291 82.0546 67.8365 82.0815ZM50.8107 60.9011C50.6327 60.9011 50.4619 60.9356 50.2946 60.9969C49.9421 61.1349 49.5791 61.2498 49.2124 61.338C48.8422 61.4261 48.472 61.4913 48.0983 61.5334C47.7209 61.5717 47.3436 61.5871 46.9698 61.5756C46.5925 61.5679 46.2152 61.5334 45.845 61.4721C45.4712 61.4108 45.101 61.3265 44.7379 61.2153C44.3749 61.108 44.0189 60.9739 43.6701 60.8168C43.3248 60.6597 42.9866 60.4796 42.6591 60.2765C42.3316 60.0772 42.0148 59.8511 41.7123 59.6097C41.4132 59.3644 41.1249 59.1 40.8508 58.8202C40.5803 58.5367 40.324 58.2377 40.0891 57.9197C39.8506 57.6016 39.6299 57.272 39.4305 56.9271C39.2312 56.5823 39.0496 56.222 38.893 55.8541C38.7328 55.4824 38.594 55.103 38.4801 54.716C38.3626 54.3289 38.2701 53.9342 38.1989 53.5319C38.1277 53.1333 38.0814 52.7271 38.0565 52.3209C38.0316 51.9147 38.028 51.5046 38.0494 51.0984L40.7156 53.984C40.8615 54.1335 41.0288 54.2485 41.2139 54.3289C41.4026 54.4094 41.5948 54.4477 41.7977 54.4477C42.0006 54.4477 42.1928 54.4094 42.3815 54.3289C42.5666 54.2485 42.7339 54.1335 42.8798 53.984L49.3833 46.9482C49.5257 46.7949 49.636 46.6148 49.7143 46.4117C49.7926 46.2086 49.8318 45.9978 49.8318 45.7794C49.8318 45.5571 49.7926 45.3464 49.7143 45.1433C49.636 44.9402 49.5257 44.76 49.3833 44.6068L46.7171 41.725C47.0944 41.702 47.4682 41.702 47.8455 41.7288C48.2228 41.7556 48.5966 41.8093 48.9668 41.8859C49.337 41.9626 49.7001 42.0622 50.0596 42.1887C50.4191 42.3113 50.768 42.4607 51.1097 42.6332C51.4514 42.8056 51.7825 43.0011 52.1029 43.2157C52.4232 43.4341 52.7294 43.6717 53.0212 43.9285C53.3131 44.1852 53.5908 44.4611 53.8506 44.7562C54.1141 45.0513 54.3561 45.3617 54.5839 45.6874C54.8082 46.0132 55.0146 46.3542 55.2033 46.7106C55.3884 47.0632 55.5557 47.4272 55.6981 47.8066C55.844 48.1822 55.9686 48.5654 56.0683 48.9601C56.1715 49.351 56.2498 49.7495 56.3032 50.1557C56.3602 50.5581 56.3922 50.9643 56.4029 51.3705C56.41 51.7806 56.3993 52.1868 56.3602 52.593C56.3246 52.9992 56.2641 53.4016 56.1822 53.7963C56.0968 54.1948 55.9935 54.5857 55.8654 54.9727C55.7622 55.2908 55.7479 55.6127 55.8262 55.9385C55.9046 56.268 56.0576 56.5439 56.2926 56.7662L70.8693 70.7498C71.0829 70.9567 71.2787 71.1828 71.4531 71.4357C71.6239 71.6848 71.7734 71.953 71.8945 72.2366C72.0191 72.5202 72.1116 72.8115 72.1792 73.118C72.2469 73.4208 72.286 73.7312 72.2932 74.0416C72.3003 74.3558 72.2825 74.6662 72.2326 74.9728C72.1792 75.2832 72.1009 75.5821 71.9941 75.8734C71.8874 76.1646 71.7556 76.4405 71.5955 76.7011C71.4388 76.9617 71.2573 77.2031 71.0508 77.4254C70.6415 77.8776 70.1645 78.2186 69.6199 78.4524C69.0752 78.6862 68.5093 78.7896 67.9255 78.7666C67.3417 78.7475 66.7828 78.6057 66.256 78.3374C65.7256 78.0692 65.2664 77.6975 64.882 77.2223L51.9569 61.4606C51.6508 61.0889 51.2699 60.9011 50.8107 60.9011Z" fill="#E9E2D1"/>
<path d="M69.1424 60.2378C69.4343 59.3564 69.6799 58.4597 69.8757 57.5476C70.075 56.6356 70.2245 55.7159 70.3242 54.7846C70.4274 53.8534 70.4808 52.9184 70.4844 51.9833C70.4879 51.0483 70.4452 50.1132 70.3527 49.182C70.2601 48.2508 70.1177 47.3273 69.9291 46.4114C69.7404 45.4993 69.5055 44.5988 69.2243 43.7135C68.9431 42.8283 68.6156 41.9622 68.2418 41.1153C67.8716 40.2722 67.4551 39.4522 66.9959 38.6551C66.5403 37.8618 66.0419 37.0954 65.5044 36.3596C64.9669 35.6277 64.3938 34.9264 63.7851 34.2634C63.1729 33.5966 62.5321 32.972 61.8558 32.3857C61.1795 31.7993 60.4782 31.2552 59.7449 30.757C59.0116 30.255 58.257 29.799 57.4774 29.3927C56.7014 28.9827 55.9005 28.6225 55.0854 28.3121C54.2702 27.9978 53.4372 27.7372 52.5936 27.5265C51.75 27.3157 50.8992 27.1586 50.0378 27.0513C49.1799 26.944 48.3149 26.8903 47.4499 26.8903C46.5849 26.8865 45.7199 26.9363 44.8585 27.0398C44.0006 27.1433 43.1463 27.3004 42.3027 27.5073C41.459 27.7143 40.6261 27.971 39.8109 28.2814C38.9922 28.588 38.1913 28.9482 37.4117 29.3544C36.6322 29.7568 35.874 30.209 35.1407 30.7072C34.4074 31.2054 33.7026 31.7457 33.0262 32.332C32.3499 32.9145 31.7056 33.5391 31.0934 34.2021C30.4811 34.8612 29.9044 35.5587 29.3634 36.2906C28.8259 37.0264 28.324 37.789 27.8648 38.5823C27.4056 39.3755 26.9855 40.1918 26.6118 41.0387C26.2344 41.8818 25.907 42.7478 25.6222 43.6292C25.3339 44.5145 25.0954 45.415 24.9067 46.3271C24.7145 47.243 24.5685 48.1627 24.476 49.0939C24.3799 50.0251 24.3336 50.9601 24.3336 51.8952C24.3336 52.8341 24.3834 53.7653 24.4831 54.6965C24.5828 55.6277 24.7287 56.5474 24.9245 57.4633C25.1167 58.3754 25.3588 59.2721 25.6471 60.1573C25.9354 61.0387 26.27 61.901 26.6474 62.744C27.0247 63.5871 27.4447 64.4034 27.9075 65.1966C28.3702 65.9899 28.8721 66.7486 29.4132 67.4806C29.9578 68.2087 30.5345 68.9062 31.1503 69.5653C31.7626 70.2244 32.4104 70.8452 33.0903 71.4277C33.7702 72.0102 34.475 72.5467 35.2119 73.0411C35.9452 73.5354 36.7034 73.9876 37.4865 74.39C38.266 74.7924 39.067 75.1449 39.8857 75.4515C40.7044 75.7581 41.5374 76.011 42.381 76.2141C43.2282 76.421 44.0789 76.5705 44.9404 76.6701C45.8018 76.7736 46.6668 76.8196 47.5318 76.8157C48.3968 76.8081 49.2582 76.7506 50.1197 76.6433C50.9811 76.5322 51.8318 76.3712 52.6755 76.1566C53.5156 75.942 54.345 75.6776 55.1601 75.3633L52.946 72.6617C52.2412 72.8801 51.5293 73.0564 50.8067 73.1905C50.0841 73.3208 49.3579 73.4128 48.6282 73.4588C47.8949 73.5086 47.1652 73.5124 46.4354 73.4703C45.7021 73.4319 44.976 73.3515 44.2534 73.225C43.5272 73.0985 42.8153 72.9299 42.1069 72.7192C41.4021 72.5084 40.708 72.2555 40.0281 71.9604C39.3482 71.6691 38.6861 71.3357 38.0382 70.9602C37.3939 70.5885 36.7674 70.1784 36.1623 69.7339C35.5572 69.2855 34.9769 68.8065 34.4216 68.2892C33.8628 67.7718 33.3359 67.2277 32.8376 66.649C32.3357 66.0704 31.8658 65.461 31.428 64.8287C30.9901 64.1926 30.5843 63.5335 30.2106 62.8513C29.8404 62.1692 29.5022 61.4679 29.2032 60.7437C28.9042 60.0232 28.6408 59.2836 28.4129 58.5287C28.1887 57.7776 28.0036 57.0111 27.8541 56.2332C27.7081 55.4591 27.6013 54.6773 27.5302 53.8879C27.4625 53.0985 27.434 52.3091 27.4483 51.5158C27.459 50.7226 27.5124 49.9331 27.6049 49.1475C27.6975 48.3619 27.8292 47.584 28 46.8137C28.1709 46.0435 28.3809 45.2847 28.6301 44.5413C28.8793 43.794 29.164 43.0659 29.488 42.3569C29.8083 41.6442 30.1679 40.9544 30.5594 40.2837C30.951 39.6169 31.3781 38.9731 31.8338 38.3523C32.293 37.7354 32.7806 37.1452 33.3003 36.5857C33.8165 36.0262 34.3611 35.4974 34.9342 35.003C35.5038 34.5087 36.0982 34.0488 36.7176 33.6234C37.337 33.1981 37.9742 32.811 38.6327 32.4623C39.2912 32.1136 39.964 31.8032 40.651 31.5349C41.3416 31.2667 42.0428 31.0406 42.7548 30.8528C43.4667 30.6689 44.1857 30.5271 44.9119 30.4274C45.6381 30.3278 46.3678 30.2703 47.1011 30.255C47.8308 30.2435 48.5641 30.2741 49.2938 30.347C50.02 30.4198 50.7462 30.5386 51.4616 30.6957C52.1807 30.8566 52.8855 31.0597 53.5832 31.3012C54.2809 31.5464 54.9643 31.83 55.63 32.1557C56.2992 32.4815 56.9471 32.8455 57.5807 33.2479C58.2107 33.6464 58.8194 34.0871 59.4068 34.5623C59.9941 35.0375 60.553 35.5434 61.0869 36.0837C61.6244 36.6279 62.1299 37.1989 62.6069 37.8005C63.0839 38.4022 63.5288 39.0268 63.9418 39.6821C64.3547 40.3374 64.732 41.0157 65.0773 41.7131C65.419 42.4144 65.7287 43.131 65.9992 43.8668C66.2698 44.6026 66.5047 45.3537 66.7005 46.1163C66.8927 46.8789 67.0493 47.653 67.1668 48.4348C67.2843 49.2165 67.359 50.0021 67.3946 50.7954C67.4338 51.5848 67.4302 52.378 67.3839 53.1675C67.3412 53.9607 67.2593 54.7463 67.1348 55.5281C67.0102 56.306 66.8464 57.0801 66.6471 57.8389L69.1424 60.2378Z" fill="#E9E2D1"/>
<path d="M68.8868 75.0835C69.0292 74.9264 69.1396 74.7501 69.2179 74.547C69.2962 74.3439 69.3353 74.1331 69.3353 73.9109C69.3318 73.6924 69.2962 73.4817 69.2179 73.2786C69.1396 73.0755 69.0292 72.8953 68.8833 72.7382C68.7409 72.5849 68.5736 72.4661 68.3885 72.3818C68.1998 72.2975 68.004 72.2554 67.8011 72.2554C67.5982 72.2554 67.4025 72.2975 67.2138 72.3818C67.0287 72.4661 66.8614 72.5849 66.719 72.7382C66.5731 72.8953 66.4627 73.0755 66.3844 73.2786C66.3096 73.4817 66.2705 73.6924 66.2705 73.9109C66.2705 74.1331 66.3061 74.3439 66.3844 74.547C66.4627 74.7501 66.5731 74.9264 66.719 75.0835C66.8614 75.2406 67.0251 75.3594 67.2138 75.4437C67.4025 75.528 67.5982 75.5702 67.8011 75.5702C68.004 75.5702 68.1998 75.528 68.3885 75.4437C68.5771 75.3594 68.7409 75.2406 68.8868 75.0835Z" fill="#E9E2D1"/>
<path d="M76.7074 60.2373C77.0028 60.2373 77.2947 60.2067 77.5866 60.1415C77.8749 60.0802 78.1561 59.9882 78.4302 59.8656C78.7043 59.743 78.9642 59.5935 79.2098 59.4134C79.4554 59.2371 79.6832 59.034 79.8897 58.8079C80.0997 58.5818 80.2848 58.3366 80.4521 58.0722C80.6158 57.8039 80.7547 57.5242 80.8686 57.2291C80.9789 56.934 81.0644 56.6274 81.1249 56.3132C81.1818 56.0028 81.2103 55.6847 81.2103 55.3666V48.5339C81.2103 48.2158 81.1818 47.8978 81.1249 47.5835C81.0644 47.2731 80.9789 46.9666 80.8686 46.6715C80.7547 46.3764 80.6158 46.0967 80.4521 45.8284C80.2848 45.564 80.0997 45.3187 79.8897 45.0926C79.6832 44.8665 79.4554 44.6634 79.2098 44.4871C78.9642 44.307 78.7043 44.1576 78.4302 44.035C78.1561 43.9123 77.8749 43.8204 77.5866 43.7552C77.2947 43.6939 77.0028 43.6632 76.7074 43.6632C76.3834 43.6671 76.0915 43.5713 75.8281 43.3682C75.5647 43.1689 75.3796 42.9006 75.2764 42.5711C74.7531 40.7661 74.0839 39.0225 73.2723 37.3478C73.1264 37.0336 73.0836 36.704 73.137 36.3591C73.1904 36.0142 73.3364 35.7192 73.5677 35.4739L73.5962 35.4394C73.8027 35.2133 73.9878 34.9681 74.148 34.6998C74.3082 34.4354 74.4434 34.1556 74.5573 33.8606C74.6677 33.5655 74.7495 33.2627 74.8065 32.9485C74.8599 32.6381 74.8884 32.32 74.8884 32.002C74.8848 31.6839 74.8563 31.3697 74.7958 31.0593C74.7389 30.745 74.6534 30.4423 74.5395 30.151C74.4292 29.856 74.2904 29.5762 74.1266 29.3118C73.9629 29.0474 73.7778 28.8021 73.5677 28.5798L69.1075 23.7475C68.8939 23.5291 68.6626 23.3336 68.4169 23.1612C68.1678 22.9887 67.9079 22.8431 67.6338 22.7243C67.3633 22.6055 67.0821 22.5174 66.7937 22.4561C66.5054 22.3947 66.2135 22.3641 65.9181 22.3641C65.6226 22.3641 65.3307 22.3947 65.0424 22.4561C64.7541 22.5174 64.4729 22.6055 64.2023 22.7243C63.9282 22.8431 63.6684 22.9887 63.4192 23.1612C63.1736 23.3336 62.9422 23.5291 62.7286 23.7475C62.5044 24.0004 62.2338 24.1537 61.9135 24.2112C61.5931 24.2687 61.2905 24.2227 60.9986 24.0656C59.4502 23.1842 57.8377 22.4637 56.1682 21.8966C55.8656 21.7854 55.62 21.5862 55.4349 21.3026C55.2498 21.019 55.1608 20.7048 55.1608 20.356C55.1608 20.038 55.1324 19.7199 55.0754 19.4057C55.0184 19.0914 54.933 18.7887 54.8191 18.4936C54.7052 18.1985 54.5664 17.9188 54.4026 17.6505C54.2389 17.3861 54.0502 17.1408 53.8438 16.9147C53.6337 16.6886 53.4059 16.4855 53.1603 16.3054C52.9147 16.1292 52.6548 15.9797 52.3807 15.8571C52.1102 15.7344 51.829 15.6425 51.5371 15.5773C51.2488 15.516 50.9533 15.4854 50.6579 15.4854H44.3431C44.0441 15.4854 43.7486 15.5198 43.4567 15.5812C43.1648 15.6463 42.8836 15.7421 42.6095 15.8686C42.3319 15.9912 42.072 16.1445 41.8264 16.3246C41.5808 16.5047 41.353 16.7116 41.1429 16.9416C40.9329 17.1715 40.7478 17.4206 40.5841 17.6888C40.4203 17.9609 40.2815 18.2445 40.1712 18.5434C40.0573 18.8423 39.9754 19.1489 39.9184 19.467C39.865 19.7812 39.8366 20.1031 39.8401 20.425C39.8437 20.7507 39.7618 21.0496 39.5874 21.3179C39.4165 21.5862 39.1851 21.7739 38.9004 21.8812C37.206 22.4484 35.5721 23.1803 34.0023 24.0732C33.7104 24.2265 33.4043 24.2763 33.0839 24.215C32.7671 24.1537 32.493 23.9966 32.2688 23.7398C32.0552 23.5214 31.8238 23.326 31.5782 23.1535C31.3326 22.9811 31.0692 22.8354 30.7986 22.7166C30.5245 22.6017 30.2433 22.5097 29.955 22.4522C29.6667 22.3909 29.3748 22.3602 29.0829 22.3602C28.7874 22.3602 28.4955 22.3909 28.2072 22.4522C27.9189 22.5097 27.6377 22.6017 27.3671 22.7166C27.093 22.8354 26.8332 22.9811 26.5876 23.1535C26.3384 23.326 26.1106 23.5214 25.897 23.7398L21.4332 28.5798C21.2267 28.8021 21.0416 29.0474 20.8779 29.3118C20.7141 29.5762 20.5753 29.856 20.4614 30.151C20.3511 30.4423 20.2656 30.745 20.2051 31.0593C20.1482 31.3697 20.1161 31.6839 20.1161 32.002C20.1161 32.32 20.141 32.6343 20.198 32.9485C20.255 33.2589 20.3368 33.5617 20.4472 33.8567C20.5575 34.1518 20.6928 34.4316 20.853 34.6998C21.0167 34.9642 21.1983 35.2133 21.4047 35.4394L21.4368 35.4739C21.6681 35.7192 21.8105 36.0142 21.8639 36.3591C21.9209 36.704 21.8746 37.0336 21.7322 37.3478C20.917 39.0225 20.2478 40.7661 19.7246 42.5749C19.6213 42.9045 19.4362 43.1689 19.1728 43.3682C18.9094 43.5713 18.6175 43.6671 18.2936 43.6632C17.9981 43.6632 17.7063 43.6939 17.4179 43.7552C17.126 43.8204 16.8448 43.9123 16.5707 44.035C16.3002 44.1576 16.0403 44.307 15.7947 44.4871C15.5491 44.6634 15.3213 44.8665 15.1113 45.0926C14.9013 45.3187 14.7161 45.564 14.5524 45.8284C14.3887 46.0967 14.2498 46.3764 14.1359 46.6715C14.022 46.9666 13.9366 47.2731 13.8796 47.5835C13.8227 47.8978 13.7906 48.2158 13.7906 48.5339V55.3666C13.7906 55.6847 13.8227 56.0028 13.8796 56.3132C13.9366 56.6274 14.022 56.934 14.1359 57.2291C14.2498 57.5242 14.3887 57.8039 14.5524 58.0722C14.7161 58.3366 14.9013 58.5818 15.1113 58.8079C15.3213 59.034 15.5491 59.2371 15.7947 59.4134C16.0403 59.5935 16.3002 59.743 16.5707 59.8656C16.8448 59.9882 17.126 60.0802 17.4179 60.1415C17.7063 60.2067 17.9981 60.2373 18.2936 60.2373C18.6175 60.2335 18.9094 60.3293 19.1728 60.5324C19.4362 60.7317 19.6213 60.9999 19.7246 61.3295C20.2478 63.1344 20.917 64.8781 21.7322 66.5527C21.8746 66.867 21.9209 67.1965 21.8639 67.5414C21.8105 67.8863 21.6681 68.1814 21.4368 68.4267L21.4047 68.4611C21.1983 68.6872 21.0167 68.9325 20.853 69.2008C20.6928 69.4652 20.5575 69.7449 20.4472 70.04C20.3368 70.3351 20.255 70.6378 20.198 70.952C20.141 71.2625 20.1161 71.5805 20.1161 71.8986C20.1161 72.2167 20.1482 72.5309 20.2051 72.8413C20.2621 73.1517 20.3475 73.4583 20.4614 73.7495C20.5753 74.0446 20.7141 74.3244 20.8779 74.5888C21.0381 74.8532 21.2267 75.0984 21.4332 75.3207L25.897 80.1531C26.1106 80.3715 26.3384 80.5669 26.5876 80.7394C26.8332 80.9118 27.093 81.0575 27.3671 81.1763C27.6412 81.2951 27.9224 81.3832 28.2108 81.4445C28.4991 81.5058 28.791 81.5365 29.0829 81.5365C29.3783 81.5365 29.6702 81.5058 29.9585 81.4445C30.2469 81.3832 30.5281 81.2951 30.8022 81.1763C31.0763 81.0575 31.3361 80.9118 31.5817 80.7394C31.8309 80.5669 32.0587 80.3715 32.2723 80.1531C32.5001 79.904 32.7707 79.7469 33.091 79.6894C33.4078 79.6319 33.714 79.6779 34.0023 79.835C35.5507 80.7164 37.1633 81.4368 38.8363 82.004C39.1389 82.1151 39.3809 82.3144 39.566 82.598C39.7511 82.8816 39.8437 83.1958 39.8401 83.5445C39.8401 83.8626 39.8686 84.1807 39.9256 84.4949C39.9861 84.8091 40.0715 85.1119 40.1854 85.407C40.2958 85.702 40.4346 85.9818 40.6019 86.25C40.7656 86.5145 40.9507 86.7597 41.1607 86.9858C41.3708 87.2119 41.595 87.415 41.8406 87.5951C42.0898 87.7714 42.3461 87.9209 42.6202 88.0435C42.8943 88.1661 43.1755 88.2581 43.4638 88.3232C43.7557 88.3846 44.0476 88.4152 44.3431 88.4152H50.6579C50.9533 88.4152 51.2488 88.3846 51.5371 88.3232C51.829 88.2581 52.1102 88.1661 52.3807 88.0435C52.6548 87.9209 52.9147 87.7714 53.1603 87.5951C53.4059 87.415 53.6337 87.2119 53.8438 86.9858C54.0502 86.7597 54.2389 86.5145 54.4026 86.25C54.5664 85.9818 54.7052 85.702 54.8191 85.407C54.933 85.1119 55.0184 84.8091 55.0754 84.4949C55.1324 84.1807 55.1608 83.8626 55.1608 83.5445C55.1573 83.1958 55.2498 82.8777 55.4349 82.5942C55.62 82.3106 55.8621 82.1113 56.1682 81.9963C57.2931 81.6055 58.3894 81.1418 59.4609 80.6091L57.3358 78.0147C56.6523 78.3175 55.9546 78.5972 55.2569 78.831C54.7942 78.9919 54.367 79.2219 53.9755 79.5284C53.5803 79.835 53.2422 80.1991 52.9574 80.6244C52.6762 81.0498 52.4591 81.5097 52.3131 82.0078C52.1636 82.5098 52.0924 83.0195 52.0995 83.5445C52.0995 83.7515 52.0604 83.9469 51.9892 84.1385C51.9144 84.3301 51.8112 84.4987 51.6759 84.6444C51.5407 84.79 51.3876 84.9011 51.2096 84.9816C51.0352 85.0621 50.8501 85.1004 50.6579 85.1004H44.3431C44.1508 85.1004 43.9693 85.0621 43.7913 84.9816C43.6169 84.9011 43.4603 84.79 43.325 84.6444C43.1897 84.4987 43.0865 84.3301 43.0153 84.1385C42.9406 83.9469 42.905 83.7515 42.905 83.5445C42.9085 83.0195 42.8373 82.5098 42.6914 82.0078C42.5454 81.5097 42.3283 81.0498 42.0435 80.6244C41.7588 80.1991 41.4206 79.835 41.029 79.5284C40.6339 79.2219 40.2068 78.9919 39.7476 78.831C38.2525 78.329 36.8144 77.6813 35.4297 76.8919C34.7783 76.5202 34.0806 76.3362 33.3438 76.3362C32.7351 76.3362 32.1477 76.4665 31.5889 76.7195C31.0264 76.9762 30.5281 77.3364 30.1009 77.8078C29.9621 77.9496 29.8055 78.0569 29.6311 78.1335C29.4531 78.2102 29.2715 78.2485 29.0829 78.2485C28.8907 78.2485 28.7091 78.2102 28.5347 78.1335C28.3567 78.0569 28.2001 77.9496 28.0648 77.8078L23.5975 72.9793C23.4622 72.8298 23.359 72.6612 23.2878 72.4734C23.213 72.2818 23.1774 72.0825 23.1774 71.8756C23.1774 71.6687 23.213 71.4694 23.2878 71.2778C23.359 71.09 23.4622 70.9214 23.5975 70.7719C23.6081 70.7643 23.6188 70.7528 23.6295 70.7374C23.9712 70.3696 24.2489 69.9557 24.4696 69.4882C24.6867 69.0245 24.8327 68.534 24.9039 68.0166C24.9786 67.5031 24.975 66.9896 24.8967 66.4723C24.8184 65.9587 24.6654 65.4721 24.4411 65.0084C23.7149 63.51 23.1169 61.9541 22.6506 60.3408C22.5047 59.8388 22.2875 59.3789 22.0063 58.9536C21.7215 58.5282 21.3869 58.1603 20.9918 57.8537C20.6002 57.5471 20.1731 57.3134 19.7139 57.1524C19.2511 56.9953 18.7777 56.9187 18.2936 56.9225C18.1049 56.9225 17.9198 56.8842 17.7454 56.8037C17.5674 56.7232 17.4144 56.6121 17.2791 56.4665C17.1438 56.3209 17.0406 56.1522 16.9658 55.9606C16.8947 55.769 16.8555 55.5698 16.8555 55.3666V48.5339C16.8555 48.3308 16.8947 48.1315 16.9658 47.9399C17.0406 47.7483 17.1438 47.5797 17.2791 47.4341C17.4144 47.2885 17.5674 47.1773 17.7454 47.0968C17.9198 47.0164 18.1049 46.9781 18.2936 46.9781C18.7777 46.9819 19.2511 46.9052 19.7139 46.7481C20.1731 46.5872 20.6002 46.3534 20.9918 46.0468C21.3834 45.7403 21.7215 45.3724 22.0063 44.9508C22.2875 44.5255 22.5047 44.0618 22.6506 43.5636C23.1169 41.9464 23.7149 40.3906 24.4447 38.8884C24.6689 38.4285 24.8184 37.9418 24.8967 37.4245C24.975 36.911 24.9786 36.3975 24.9074 35.8839C24.8327 35.3666 24.6867 34.8761 24.4696 34.4124C24.2524 33.9487 23.9748 33.531 23.6331 33.1631L23.601 33.1286C23.4658 32.9792 23.3625 32.8106 23.2878 32.6189C23.2166 32.4312 23.1774 32.2319 23.1774 32.025C23.1774 31.818 23.2166 31.6187 23.2878 31.4271C23.3625 31.2355 23.4658 31.0669 23.601 30.9213L28.0648 26.0928C28.2001 25.951 28.3567 25.8399 28.5347 25.7632C28.7091 25.6866 28.8942 25.6482 29.0829 25.6482C29.2751 25.6482 29.4566 25.6866 29.6346 25.7632C29.809 25.8399 29.9657 25.951 30.1045 26.0928C30.4427 26.4683 30.8307 26.7749 31.2614 27.0125C31.6921 27.2539 32.1477 27.4149 32.6283 27.4953C33.1088 27.5797 33.5858 27.5758 34.0664 27.4915C34.5469 27.4072 34.999 27.2424 35.4297 27.001C36.8322 26.2039 38.2917 25.5486 39.8045 25.0428C40.2637 24.8856 40.6873 24.6519 41.0753 24.3491C41.4633 24.0426 41.7979 23.6785 42.0756 23.257C42.3532 22.8354 42.5668 22.3756 42.7056 21.8812C42.848 21.383 42.9157 20.8772 42.905 20.356C42.905 20.1491 42.9406 19.9537 43.0153 19.762C43.0865 19.5704 43.1897 19.4018 43.325 19.2562C43.4603 19.1106 43.6169 18.9994 43.7913 18.919C43.9693 18.8385 44.1508 18.8002 44.3431 18.8002H50.6579C50.8501 18.8002 51.0352 18.8385 51.2096 18.919C51.3876 18.9994 51.5407 19.1106 51.6759 19.2562C51.8112 19.4018 51.9144 19.5704 51.9892 19.762C52.0604 19.9537 52.0995 20.1491 52.0995 20.356C52.0924 20.881 52.1636 21.3907 52.3131 21.8927C52.4591 22.3909 52.6762 22.8508 52.9574 23.2761C53.2422 23.7015 53.5803 24.0656 53.9755 24.3721C54.367 24.6787 54.7942 24.9086 55.2569 25.0696C56.7484 25.5716 58.1901 26.2192 59.5748 27.0087C60.0055 27.2501 60.4611 27.4149 60.9381 27.4992C61.4187 27.5835 61.8992 27.5835 62.3762 27.503C62.8568 27.4187 63.3124 27.2578 63.7431 27.0163C64.1774 26.7787 64.5618 26.4683 64.9 26.0928C65.0388 25.951 65.1955 25.8437 65.3734 25.767C65.5479 25.6904 65.7294 25.6521 65.9216 25.6521C66.1103 25.6521 66.2918 25.6904 66.4698 25.767C66.6442 25.8437 66.8009 25.951 66.9397 26.0928L71.4035 30.9213C71.5388 31.0669 71.642 31.2355 71.7167 31.4271C71.7879 31.6187 71.8235 31.818 71.8235 32.025C71.8235 32.2319 71.7879 32.4312 71.7167 32.6189C71.642 32.8106 71.5388 32.9792 71.4035 33.1286C71.3928 33.1363 71.3821 33.1478 71.375 33.1631C71.0333 33.531 70.7521 33.9449 70.5349 34.4124C70.3178 34.8761 70.1718 35.3666 70.0971 35.8839C70.0259 36.3975 70.0259 36.911 70.1078 37.4283C70.1861 37.9418 70.3356 38.4285 70.5598 38.8922C71.2896 40.3906 71.8876 41.9464 72.3539 43.5598C72.4999 44.0618 72.7134 44.5216 72.9982 44.947C73.2794 45.3724 73.6176 45.7403 74.0091 46.0468C74.4007 46.3534 74.8279 46.5872 75.2906 46.7481C75.7498 46.9052 76.2232 46.9819 76.7074 46.9781C76.8996 46.9781 77.0811 47.0164 77.2591 47.0968C77.4335 47.1773 77.5901 47.2885 77.7254 47.4341C77.8607 47.5797 77.9639 47.7483 78.0351 47.9399C78.1099 48.1315 78.1455 48.3308 78.1455 48.5339V55.3666C78.1455 55.5774 78.1027 55.7805 78.028 55.976C77.9497 56.1676 77.8393 56.34 77.6969 56.4856C77.5546 56.6313 77.3944 56.7424 77.2128 56.819C77.0277 56.8957 76.8391 56.9302 76.6433 56.9225C76.1698 56.9225 75.7071 56.9991 75.255 57.1601C74.8029 57.3172 74.3865 57.5471 74.002 57.8461C73.6176 58.1488 73.2865 58.5052 73.0053 58.9229C72.7277 59.3368 72.5141 59.789 72.3681 60.2757C72.1474 61.0574 71.884 61.8277 71.6028 62.5903L73.9913 64.8781C74.4968 63.6978 74.9311 62.4906 75.2977 61.249C75.4045 60.9309 75.5861 60.678 75.8459 60.4941C76.1093 60.3063 76.3941 60.222 76.7074 60.2373Z" fill="#E9E2D1"/>
</svg>
