<svg width="95" height="80" viewBox="0 0 95 80" fill="none" xmlns="http://www.w3.org/2000/svg">
<mask id="mask0_80_2714" style="mask-type:luminance" maskUnits="userSpaceOnUse" x="16" y="10" width="79" height="70">
<path d="M16.3915 10.0928H94.0134V79.8295H16.3915V10.0928Z" fill="white"/>
</mask>
<g mask="url(#mask0_80_2714)">
<path d="M55.211 21.4024L92.7466 10.2027C93.369 9.99046 94.0127 10.5022 94.0127 11.2291V67.4575C94.0207 67.9372 93.732 68.3791 93.2896 68.5129L55.4998 79.7882C55.3117 79.8522 55.1077 79.8522 54.9197 79.7882L24.4277 70.6877C25.4025 70.3097 26.3402 69.8416 27.2329 69.295L54.2336 77.3517V23.3389L18.3669 12.6363V31.6543H18.3457C17.6914 31.6543 17.0451 31.6921 16.4093 31.7677V11.2291C16.4093 10.5022 17.053 9.99046 17.6755 10.2027L55.211 21.4024ZM92.0552 12.6363L56.1911 23.3389V77.3517L92.0552 66.6492V12.6363Z" fill="#E9E2D1"/>
</g>
<mask id="mask1_80_2714" style="mask-type:luminance" maskUnits="userSpaceOnUse" x="16" y="0" width="79" height="18">
<path d="M16.3915 0H94.0134V17.9394H16.3915V0Z" fill="white"/>
</mask>
<g mask="url(#mask1_80_2714)">
<path d="M17.1561 10.1889C16.6316 10.3284 16.3111 10.907 16.4382 11.4827C16.5654 12.0584 17.0925 12.4131 17.6144 12.2736L55.2081 2.18449L70.0819 6.17651L36.2391 15.7829C35.7199 15.9283 35.4046 16.5127 35.5371 17.0855C35.6695 17.6583 36.1993 18.0043 36.7212 17.8589L74.0898 7.24938L92.8019 12.2736C93.3264 12.4131 93.8536 12.0584 93.9807 11.4827C94.1052 10.907 93.7847 10.3284 93.2602 10.1889L74.315 5.10364L55.5181 0.0561951C55.3432 -0.00777057 55.1552 -0.013585 54.9777 0.0358425L17.1561 10.1889Z" fill="#E9E2D1"/>
</g>
<path d="M85.8673 55.4731L77.3165 58.337V63.0297L85.8673 60.1658V55.4731ZM76.1404 56.4907L86.5614 52.9988V52.9959C87.0779 52.8214 87.6236 53.1412 87.7799 53.7111C87.8117 53.8216 87.8249 53.935 87.8223 54.0455V60.9595C87.8223 61.48 87.4885 61.9132 87.0435 62.0121L76.6225 65.504L76.6252 65.5098C76.106 65.6813 75.5603 65.3615 75.404 64.7945C75.3722 64.6812 75.359 64.5707 75.359 64.4602V57.5461C75.359 57.0257 75.6954 56.5925 76.1404 56.4907Z" fill="#E9E2D1"/>
<mask id="mask2_80_2714" style="mask-type:luminance" maskUnits="userSpaceOnUse" x="0" y="31" width="37" height="41">
<path d="M0 31.0181H36.8892V71.9558H0V31.0181Z" fill="white"/>
</mask>
<g mask="url(#mask2_80_2714)">
<path d="M29.8734 39.0641C26.9225 35.8164 22.8457 33.8102 18.3452 33.8102C13.842 33.8102 9.76526 35.8164 6.81434 39.0641C3.86606 42.3089 2.04094 46.7923 2.04094 51.7438C2.04094 56.6982 3.86606 61.1816 6.81434 64.4263C9.76526 67.674 13.842 69.6802 18.3452 69.6802C22.8457 69.6802 26.9225 67.674 29.8734 64.4263C32.8217 61.1816 34.6468 56.6982 34.6468 51.7438C34.6468 46.7923 32.8217 42.3089 29.8734 39.0641ZM18.3452 31.6558C23.3861 31.6558 27.9529 33.9062 31.2561 37.5406C34.5594 41.175 36.6043 46.1962 36.6043 51.7438C36.6043 57.2913 34.5594 62.3126 31.2561 65.9499C27.9529 69.5843 23.3861 71.8318 18.3452 71.8318C13.3016 71.8318 8.73482 69.5843 5.43159 65.9499C2.12571 62.3126 0.083374 57.2913 0.083374 51.7438C0.083374 46.1962 2.12836 41.175 5.43159 37.5406C8.73482 33.9062 13.3016 31.6558 18.3452 31.6558Z" fill="#E9E2D1"/>
</g>
<path d="M11.165 52.1177C10.7411 51.7542 10.1292 51.8357 9.7981 52.3038C9.46698 52.769 9.54115 53.4435 9.96498 53.807L15.1781 58.2758C15.5781 58.6073 16.1291 58.5811 16.4814 58.1799L26.8096 46.8173C27.1911 46.3986 27.1911 45.7153 26.8096 45.2967C26.4282 44.8751 25.8083 44.8751 25.4269 45.2967L15.6973 55.9992L11.165 52.1177Z" fill="#E9E2D1"/>
</svg>
