<svg width="93" height="88" viewBox="0 0 93 88" fill="none" xmlns="http://www.w3.org/2000/svg">
<mask id="mask0_80_2687" style="mask-type:luminance" maskUnits="userSpaceOnUse" x="0" y="0" width="93" height="88">
<path d="M0 0H92.2179V87.396H0V0Z" fill="white"/>
</mask>
<g mask="url(#mask0_80_2687)">
<path d="M90.8649 67.6757C90.6012 67.2174 90.1083 66.9349 89.5778 66.9349H73.3135V49.9579L76.7164 52.1805C77.407 52.6325 78.2829 52.6106 78.9515 52.1271C79.617 51.6437 79.909 50.8181 79.6924 50.0238L78.1604 44.3952L82.7155 40.7443C83.359 40.2295 83.6101 39.3881 83.3559 38.6065C83.0984 37.8248 82.4015 37.2911 81.5791 37.2535L75.7401 36.9678L73.6651 31.5181C73.5803 31.2952 73.461 31.0975 73.3135 30.9279V26.7685L76.7164 28.991C77.407 29.4431 78.2829 29.4211 78.9515 28.9377C79.617 28.4542 79.909 27.6286 79.6924 26.8344L78.1604 21.2057L82.7155 17.5548C83.359 17.04 83.6101 16.1987 83.3559 15.417C83.0984 14.6353 82.4015 14.1017 81.5791 14.064L75.7401 13.7783L73.6651 8.32865C73.4485 7.75731 72.9964 7.33979 72.4408 7.16085C70.8272 2.94173 67.305 0.182354 63.359 0.169797L10.146 0.00655719C10.1209 0.00341817 10.0958 0.00341797 10.0706 0.00341797C4.51735 0.00341797 3.8147e-06 4.51135 3.8147e-06 10.0521C3.8147e-06 11.8195 0.467749 13.5586 1.34987 15.0811C1.6167 15.5394 2.10642 15.822 2.63695 15.822H18.9044L4.45457 22C3.90834 22.2354 3.55361 22.7691 3.55361 23.3624V36.3588C3.55361 43.8113 7.78528 50.6674 14.409 54.0923V61.5228C11.3828 61.6735 9.12573 63.4409 8.38801 66.0904C8.37546 66.1375 8.3629 66.1877 8.35348 66.2379C8.33779 66.2882 8.32523 66.3415 8.31267 66.3918C8.29384 66.4797 8.275 66.5676 8.25931 66.6523C8.25617 66.6712 8.25303 66.6869 8.24989 66.7057C8.20908 66.916 8.18083 67.1326 8.16199 67.3524C8.16199 67.3555 8.16199 67.3555 8.16199 67.3587C8.15257 67.4591 8.14629 67.5596 8.14002 67.6632C8.14002 67.6726 8.14002 67.6851 8.14002 67.6945C8.13374 67.8076 8.1306 67.9237 8.1306 68.0399C8.1306 68.0838 8.13374 68.1278 8.13688 68.1717L8.61718 73.5649C8.82751 75.935 10.237 77.9912 12.582 79.3536L15.715 81.1744C16.0634 81.3784 16.2424 81.6861 16.2424 82.091V85.8895C16.2424 86.7088 16.9079 87.3744 17.7304 87.3744H37.451C38.2734 87.3744 38.939 86.7088 38.939 85.8895V82.6247L82.1441 82.7503C87.6974 82.7503 92.2179 78.2455 92.2179 72.7048C92.2179 70.9374 91.7502 69.1982 90.8649 67.6757ZM74.9365 39.8998L78.7852 40.0882L75.7841 42.496C75.1719 42.9826 74.9114 43.7862 75.1154 44.5396L76.1262 48.2502L72.9022 46.1438C72.6385 45.9711 72.3403 45.8707 72.039 45.8393C71.9699 45.8298 71.8977 45.8204 71.8255 45.8204C71.7533 45.8204 71.6811 45.8298 71.612 45.8393C71.3075 45.8707 71.0124 45.9711 70.7487 46.1438L67.5248 48.2502L68.5356 44.5396C68.7396 43.7862 68.4791 42.9857 67.8669 42.496L64.8658 40.0882L68.7145 39.8998C69.4962 39.8622 70.1805 39.3662 70.4568 38.6347L71.8255 35.0435L73.1942 38.6347C73.4704 39.3662 74.1548 39.8622 74.9365 39.8998ZM73.1942 15.4453C73.4704 16.1767 74.1548 16.6727 74.9365 16.7104L78.7852 16.8987L75.7841 19.3065C75.1719 19.7931 74.9114 20.5967 75.1154 21.3502L76.1262 25.0607L72.9022 22.9543C72.6385 22.7816 72.3403 22.6812 72.0358 22.6498C71.9668 22.6404 71.8977 22.6341 71.8255 22.6341C71.7533 22.6341 71.6842 22.6404 71.6152 22.6498C71.3107 22.6812 71.0124 22.7816 70.7487 22.9543L67.5248 25.0607L68.5356 21.3502C68.7396 20.5967 68.4791 19.7962 67.8701 19.3065L64.8658 16.8987L68.7145 16.7104C69.4962 16.6727 70.1805 16.1767 70.4568 15.4453L71.8255 11.854L73.1942 15.4453ZM63.3496 3.13637C66.6018 3.14892 68.9029 5.87691 69.8384 8.71477L67.9109 13.7783L62.0719 14.064C61.2494 14.1017 60.5525 14.6353 60.2951 15.417C60.0408 16.1987 60.292 17.04 60.9355 17.5548L65.4905 21.2057L63.9586 26.8344C63.742 27.6286 64.0339 28.4542 64.6994 28.9377C65.0479 29.1888 65.4529 29.3144 65.8547 29.3144C66.2283 29.3144 66.605 29.2076 66.9346 28.991L70.3375 26.7685V30.9279C70.19 31.0975 70.0707 31.2952 69.9859 31.5181L67.9109 36.9678L62.0719 37.2535C61.2494 37.2911 60.5525 37.8248 60.2951 38.6065C60.0408 39.3881 60.292 40.2295 60.9355 40.7443L65.4905 44.3952L63.9586 50.0238C63.742 50.8181 64.0339 51.6437 64.6994 52.1271C65.0479 52.3783 65.4497 52.5038 65.8547 52.5038C66.2283 52.5038 66.605 52.3971 66.9346 52.1805L70.3375 49.9579V66.9349H40.2041V64.3387C40.2041 63.7737 40.0942 63.2368 39.8933 62.744H61.3624C62.1849 62.744 62.8504 62.0785 62.8504 61.2591C62.8504 60.4398 62.1849 59.7774 61.3624 59.7774H34.4279C33.6462 58.6379 32.3309 57.8876 30.846 57.8876C30.1617 57.8876 29.4993 58.054 28.9029 58.3522C28.0584 57.1813 26.6803 56.4122 25.1421 56.4122C24.5896 56.4122 24.0528 56.5126 23.5536 56.6947V55.282C25.6883 54.5694 27.644 53.5147 29.3706 52.1931C29.424 52.9653 30.0675 53.5743 30.8523 53.5743H61.3624C62.1849 53.5743 62.8504 52.9088 62.8504 52.0895C62.8504 51.2701 62.1849 50.6046 61.3624 50.6046H31.2039C33.0184 48.8309 34.4875 46.7277 35.5172 44.4046H55.941C56.7635 44.4046 57.429 43.7391 57.429 42.9198C57.429 42.1004 56.7635 41.4349 55.941 41.4349H36.5626C36.9958 39.8057 37.2281 38.1011 37.2281 36.3588V35.235H61.3624C62.1849 35.235 62.8504 34.5694 62.8504 33.7501C62.8504 32.9308 62.1849 32.2652 61.3624 32.2652H37.2281V26.0653H61.3624C62.1849 26.0653 62.8504 25.3998 62.8504 24.5804C62.8504 23.7611 62.1849 23.0956 61.3624 23.0956H37.1998C37.1119 22.6153 36.7886 22.1977 36.3271 22L21.8773 15.822V11.7849C21.8773 8.29411 20.3485 5.15489 17.925 2.99824L63.3496 3.13637ZM3.55047 12.8523C3.17062 11.9733 2.97285 11.019 2.97285 10.0521C2.97285 6.14688 6.15603 2.97313 10.0706 2.97313H10.1303C14.9741 3.00452 18.9044 6.94425 18.9044 11.7849V12.8523H3.55047ZM6.52959 36.3588V24.3418L20.3893 18.415L34.2521 24.3418V36.3588C34.2521 38.4432 33.866 40.4586 33.1565 42.3296C33.1345 42.383 33.1126 42.4363 33.0969 42.4897C31.408 46.8156 27.9799 50.3472 23.5536 52.124V48.3538C23.5536 45.8361 21.5037 43.7893 18.9829 43.7893C16.459 43.7893 14.409 45.8361 14.409 48.3538V50.6705C9.55581 47.5658 6.52959 42.1758 6.52959 36.3588ZM35.963 84.4078H19.2183V82.091C19.2183 80.6407 18.4681 79.3411 17.2124 78.6096L14.0794 76.7889C13.0278 76.1767 11.7376 75.0749 11.5806 73.3043L11.1066 67.9771C11.1097 67.8452 11.116 67.7165 11.1286 67.5941C11.1286 67.5753 11.1317 67.5564 11.1348 67.5376C11.1474 67.4309 11.16 67.3241 11.1788 67.2205C11.1819 67.2142 11.1819 67.2111 11.1851 67.2048C11.4802 65.6635 12.6354 64.6935 14.409 64.5082V69.5624C14.409 70.3849 15.0746 71.0472 15.897 71.0472C16.7164 71.0472 17.385 70.3849 17.385 69.5624V48.3538C17.385 47.4717 18.1008 46.759 18.9829 46.759C19.8619 46.759 20.5808 47.4717 20.5808 48.3538V60.3739C20.5808 61.1304 21.1552 61.7677 21.9087 61.8493C22.6684 61.9278 23.3621 61.4255 23.5222 60.6847C23.6855 59.9281 24.3667 59.3787 25.1421 59.3787C26.0367 59.3787 26.7776 60.107 26.7964 60.9986C26.809 61.6829 27.2893 62.27 27.9611 62.4175C28.6297 62.5682 29.3141 62.2386 29.6186 61.6233C29.8478 61.1587 30.3312 60.8542 30.846 60.8542C31.5995 60.8542 32.2116 61.4663 32.2116 62.2166V62.6781C32.2116 63.3153 32.6197 63.8835 33.2287 64.0844C33.8377 64.2885 34.5064 64.0782 34.8894 63.5665C35.1405 63.2337 35.5203 63.0422 35.9316 63.0422C36.6473 63.0422 37.2312 63.623 37.2312 64.3356V68.4166C37.2312 68.4197 37.2312 68.4197 37.2312 68.4197V77.2315C37.2312 78.2957 36.9958 79.1841 36.4747 80.1102C36.3962 80.2483 36.3303 80.3896 36.2675 80.534C36.2455 80.5905 36.2235 80.6439 36.2047 80.7004C36.0477 81.1399 35.963 81.6107 35.963 82.091V84.4078ZM82.1504 79.7837L39.8713 79.6613C40.0942 78.889 40.2041 78.0917 40.2041 77.2315V69.9014H88.6643C89.0441 70.7835 89.2419 71.7379 89.2419 72.7048C89.2419 76.6068 86.0587 79.7837 82.1504 79.7837ZM29.3675 15.4107C29.3675 14.5914 30.033 13.929 30.8523 13.929H55.3351C56.1576 13.929 56.8231 14.5914 56.8231 15.4107C56.8231 16.2301 56.1576 16.8956 55.3351 16.8956H30.8523C30.033 16.8956 29.3675 16.2301 29.3675 15.4107ZM17.9878 40.7317L14.1642 36.9176C13.5834 36.34 13.5834 35.3982 14.1642 34.8206C14.7449 34.2398 15.6867 34.2398 16.2675 34.8206L19.0896 37.6365L27.3301 30.1745C27.9391 29.6252 28.8777 29.6722 29.4302 30.2781C29.9827 30.884 29.9388 31.8226 29.3298 32.3751L20.0408 40.782C19.7552 41.0394 19.3973 41.1681 19.0394 41.1681C18.6596 41.1681 18.2797 41.0237 17.9878 40.7317Z" fill="#E9E2D1"/>
</g>
</svg>
