<svg width="271" height="271" viewBox="0 0 271 271" fill="none" xmlns="http://www.w3.org/2000/svg">
<mask id="mask0_52_1912" style="mask-type:luminance" maskUnits="userSpaceOnUse" x="0" y="0" width="271" height="271">
<path d="M0 0H270.464V270.464H0V0Z" fill="white"/>
</mask>
<g mask="url(#mask0_52_1912)">
<mask id="mask1_52_1912" style="mask-type:luminance" maskUnits="userSpaceOnUse" x="0" y="0" width="271" height="271">
<path d="M39.9844 0H230.479C241.083 0 251.255 4.21354 258.75 11.7083C266.25 19.2083 270.464 29.3802 270.464 39.9844V230.479C270.464 241.083 266.25 251.255 258.75 258.755C251.255 266.25 241.083 270.464 230.479 270.464H39.9844C29.3802 270.464 19.2083 266.25 11.7083 258.755C4.21354 251.255 0 241.083 0 230.479V39.9844C0 29.3802 4.21354 19.2083 11.7083 11.7083C19.2083 4.21354 29.3802 0 39.9844 0Z" fill="white"/>
</mask>
<g mask="url(#mask1_52_1912)">
<path d="M0 0H270.464V270.464H0V0Z" fill="#112B3C"/>
</g>
</g>
<path d="M125.052 177.823L115.459 147.885L101.823 50.0103L125.141 47.3228L144.693 72.1509L153.75 76.8071L156.709 77.078C156.709 77.078 173.479 141.344 174.104 160.167L171.417 156.667L143.438 158.911L147.292 171.547L125.052 177.823Z" fill="#D3CFCC"/>
<path d="M125.052 178.271C124.875 178.271 124.693 178.182 124.604 178L115.01 148.063L101.375 50.0104C101.375 49.9219 101.375 49.7396 101.469 49.651C101.557 49.5625 101.646 49.474 101.734 49.474L125.052 46.7812C125.229 46.7812 125.323 46.875 125.5 46.9635L144.958 71.7031L153.839 76.2708L156.708 76.5417C156.885 76.5417 157.068 76.7188 157.068 76.901C157.245 77.526 173.839 141.432 174.464 160.073C174.464 160.255 174.375 160.432 174.198 160.521C174.016 160.615 173.839 160.521 173.656 160.344L171.146 157.026L143.974 159.177L147.651 171.276C147.651 171.37 147.651 171.547 147.651 171.635C147.651 171.729 147.474 171.818 147.38 171.818L125.052 178.089C125.141 178.271 125.052 178.271 125.052 178.271ZM102.365 50.3698L115.812 147.885L125.323 177.281L146.755 171.276L143.078 159.089C143.078 159 143.078 158.818 143.167 158.729C143.255 158.641 143.349 158.552 143.526 158.552L171.505 156.313C171.688 156.313 171.776 156.401 171.865 156.49L173.656 158.818C172.312 139.281 157.693 82.276 156.438 77.526L153.75 77.2552C153.661 77.2552 153.661 77.2552 153.568 77.1667L144.51 72.5052C144.422 72.5052 144.422 72.4167 144.333 72.4167L124.964 47.7708L102.365 50.3698Z" fill="#2B2D48"/>
<mask id="mask2_52_1912" style="mask-type:luminance" maskUnits="userSpaceOnUse" x="99" y="45" width="58" height="162">
<path d="M99.6201 45.7134H156.953V206.14H99.6201V45.7134Z" fill="white"/>
</mask>
<g mask="url(#mask2_52_1912)">
<path d="M130.615 205.963C127.745 187.411 114.292 148.693 114.11 148.333L114.021 148.062C113.933 147.349 102.094 70.5363 99.943 52.88C99.7607 51.7134 100.12 50.4582 100.927 49.5623C101.735 48.578 102.813 48.0363 103.979 47.9477L123.438 46.1561C124.964 45.979 126.396 46.604 127.386 47.8592L144.245 69.6405C147.292 73.4946 151.776 75.7342 156.709 75.7342V78.4217C150.969 78.4217 145.677 75.8227 142.089 71.2498L125.141 49.4738C124.781 49.0259 124.245 48.755 123.615 48.8436L104.156 50.6353C103.709 50.6353 103.261 50.9061 102.901 51.2655C102.63 51.6248 102.453 52.0728 102.542 52.6092C104.604 69.9061 116.084 144.208 116.62 147.614C117.427 150.036 130.344 187.323 133.214 205.604L130.615 205.963Z" fill="#2B2D48"/>
</g>
<mask id="mask3_52_1912" style="mask-type:luminance" maskUnits="userSpaceOnUse" x="79" y="137" width="117" height="25">
<path d="M79.583 137.713H195.541V161.713H79.583V137.713Z" fill="white"/>
</mask>
<g mask="url(#mask3_52_1912)">
<path d="M142.63 160.88C139.489 160.88 136.349 160.167 133.479 158.818L118.416 151.739C116.083 150.661 113.484 150.125 110.88 150.125L98.057 150.307C90.6143 150.396 83.5309 146.63 79.583 140.354L83.3486 137.937C86.4893 142.864 92.1403 145.911 97.9684 145.823L110.791 145.646C114.021 145.557 117.338 146.271 120.297 147.708L135.364 154.786C137.786 155.953 140.567 156.489 143.255 156.401L195.359 154.338L195.541 158.818L143.437 160.88C143.255 160.88 142.989 160.88 142.63 160.88Z" fill="#2B2D48"/>
</g>
<mask id="mask4_52_1912" style="mask-type:luminance" maskUnits="userSpaceOnUse" x="138" y="30" width="41" height="140">
<path d="M138.286 30.2085H178.286V169.714H138.286V30.2085Z" fill="white"/>
</mask>
<g mask="url(#mask4_52_1912)">
<path d="M172.849 169.125C166.213 102.083 139.312 32.7137 139.042 31.995L143.255 30.3804C143.526 31.0991 170.609 101.011 177.333 168.677L172.849 169.125Z" fill="#2B2D48"/>
</g>
<path d="M159.755 85.4113C159.13 85.4113 158.5 84.8748 158.411 84.2498C158.323 83.5311 158.859 82.8123 159.578 82.7238L181.729 79.8592C182.448 79.7655 183.161 80.3071 183.255 81.0207C183.344 81.7394 182.807 82.4582 182.089 82.5467L159.937 85.4113C159.849 85.4113 159.755 85.4113 159.755 85.4113Z" fill="#2B2D48"/>
<path d="M151.417 202.828C151.24 202.828 151.057 202.739 150.969 202.469L137.25 158.104C137.156 157.833 137.339 157.656 137.516 157.567C137.787 157.474 137.964 157.656 138.057 157.833L151.776 202.203C151.865 202.469 151.688 202.651 151.505 202.739C151.505 202.828 151.505 202.828 151.417 202.828Z" fill="#2B2D48"/>
<path d="M156.708 203.724C156.172 203.724 155.63 203.365 155.453 202.74L142.089 159C141.912 158.281 142.271 157.568 142.99 157.297C143.703 157.115 144.422 157.474 144.693 158.193L158.052 201.932C158.234 202.651 157.875 203.365 157.156 203.635C156.979 203.724 156.885 203.724 156.708 203.724Z" fill="#2B2D48"/>
<path d="M132.943 175.672C132.765 175.672 132.583 175.49 132.495 175.313L127.745 153.979C127.651 153.714 127.833 153.531 128.099 153.443C128.37 153.354 128.547 153.531 128.64 153.802L133.39 175.13C133.479 175.401 133.302 175.584 133.031 175.672C132.943 175.672 132.943 175.672 132.943 175.672Z" fill="#2B2D48"/>
<path d="M120.208 159.088C120.031 159.088 119.849 159 119.76 158.817C119.672 158.552 119.849 158.37 120.031 158.281L128.458 155.505C128.729 155.416 128.906 155.594 129 155.771C129.088 156.041 128.906 156.219 128.729 156.312L120.297 159.088C120.297 159.088 120.297 159.088 120.208 159.088Z" fill="#2B2D48"/>
<path d="M121.286 164.198C121.104 164.198 120.927 164.109 120.838 163.838C120.745 163.573 120.927 163.39 121.104 163.302L129.625 160.614C129.896 160.521 130.073 160.703 130.161 160.88C130.255 161.151 130.073 161.328 129.896 161.422L121.375 164.109C121.375 164.198 121.375 164.198 121.286 164.198Z" fill="#2B2D48"/>
<path d="M157.787 81.1092C157.604 81.1092 157.339 80.9321 157.339 80.755C157.339 80.4842 157.516 80.3071 157.693 80.2134L181.907 76.8071C182.177 76.8071 182.354 76.9894 182.448 77.1665C182.448 77.4373 182.266 77.6144 182.089 77.7082L157.787 81.1092Z" fill="#2B2D48"/>
<path d="M143.526 157.745C143.255 157.745 143.078 157.568 143.078 157.297V86.2188L128.818 81.8282C128.641 81.7397 128.547 81.6511 128.458 81.3803L127.563 63.0053L106.938 50.3699C106.755 50.2813 106.667 49.9219 106.755 49.7397C106.849 49.5626 107.208 49.474 107.386 49.5626L128.281 62.2917C128.37 62.3803 128.458 62.4688 128.458 62.6459L129.354 81.0209L143.615 85.4115C143.797 85.5053 143.974 85.6824 143.974 85.8647V157.297C143.974 157.568 143.703 157.745 143.526 157.745Z" fill="#2B2D48"/>
<path d="M138.057 157.115C137.786 157.115 137.609 156.938 137.609 156.667L140.026 66.8595C140.026 66.5939 140.208 66.4116 140.479 66.4116C140.745 66.4116 140.927 66.5939 140.927 66.8595L138.505 156.667C138.505 156.938 138.234 157.115 138.057 157.115Z" fill="#2B2D48"/>
<path d="M120.209 159.089C119.943 159.089 119.761 158.818 119.761 158.552L122.631 135.787L123.349 128.438C123.349 128.167 123.526 127.99 123.797 127.99L168.818 130.589C169.084 130.589 169.266 130.854 169.266 131.037C169.266 131.302 169.084 131.485 168.818 131.485L124.157 128.886L123.526 135.787L120.657 158.552C120.657 158.912 120.479 159.089 120.209 159.089Z" fill="#2B2D48"/>
<path d="M166.844 126.104H134.828C134.74 126.104 134.558 126.016 134.469 125.927L130.703 121.536H110.526C110.256 121.536 110.073 121.354 110.073 121.089C110.073 120.818 110.256 120.641 110.526 120.641H130.969C131.063 120.641 131.24 120.729 131.328 120.818L135.094 125.208H166.933C167.203 125.208 167.381 125.391 167.381 125.656C167.381 125.927 167.11 126.104 166.844 126.104Z" fill="#2B2D48"/>
<path d="M168.01 122.792H132.047C131.776 122.792 131.599 122.609 131.599 122.339C131.599 122.073 131.776 121.891 132.047 121.891H168.01C168.276 121.891 168.458 122.073 168.458 122.339C168.458 122.609 168.276 122.792 168.01 122.792Z" fill="#2B2D48"/>
<path d="M134.739 129.693C134.468 129.693 134.286 129.51 134.286 129.245L135.276 101.276C135.276 101.099 135.364 101.01 135.453 100.922L143.255 96.3488C143.349 96.3488 143.437 96.2603 143.526 96.2603H162.625C162.896 96.2603 163.078 96.4373 163.078 96.7082C163.078 96.9738 162.896 97.1561 162.625 97.1561H143.614L136.172 101.547L135.187 129.245C135.187 129.422 134.916 129.693 134.739 129.693Z" fill="#2B2D48"/>
<path d="M147.021 113.828H135.276C135.005 113.828 134.828 113.646 134.828 113.38C134.828 113.109 135.005 112.932 135.276 112.932H146.573L146.125 96.7082C146.125 96.4373 146.307 96.2603 146.573 96.2603C146.844 96.2603 147.021 96.4373 147.021 96.7082L147.474 113.38C147.474 113.469 147.474 113.646 147.38 113.734C147.292 113.828 147.203 113.828 147.021 113.828Z" fill="#2B2D48"/>
<path d="M135.724 111.135L110.167 109.792C109.896 109.792 109.719 109.614 109.719 109.344C109.719 109.078 109.984 108.896 110.167 108.896L135.635 110.151L146.755 108.359L157.693 107.193L157.156 80.6613C157.156 80.3957 157.339 80.2134 157.604 80.2134C157.875 80.2134 158.052 80.3957 158.052 80.6613L158.594 107.64C158.594 107.911 158.411 108.088 158.234 108.088L146.932 109.255L135.724 111.135Z" fill="#2B2D48"/>
<path d="M133.125 122.792C132.854 122.792 132.677 122.61 132.677 122.339V110.688C132.677 110.422 132.854 110.24 133.125 110.24C133.39 110.24 133.573 110.422 133.573 110.688V122.432C133.573 122.61 133.39 122.792 133.125 122.792Z" fill="#2B2D48"/>
<path d="M130.968 121.537C130.88 121.537 130.88 121.537 130.968 121.537C130.703 121.537 130.521 121.354 130.521 121.089L130.703 110.422C130.703 110.151 130.88 109.974 131.151 109.974C131.416 109.974 131.599 110.151 131.599 110.422L131.416 121.089C131.328 121.354 131.151 121.537 130.968 121.537Z" fill="#2B2D48"/>
<path d="M111.51 119.115C111.24 119.115 111.062 118.938 111.062 118.667C111.062 118.396 111.24 118.219 111.51 118.219L128.547 117.5C128.818 117.5 129 117.682 129 117.948C129 118.219 128.818 118.396 128.547 118.396L111.51 119.115Z" fill="#2B2D48"/>
<path d="M123.797 129.062L112.047 127.359C111.781 127.359 111.599 127.094 111.688 126.823C111.688 126.552 111.958 126.375 112.229 126.463L123.615 128.078L128.099 120.906L128.641 110.239L127.386 101.276L119.49 86.9374C119.401 86.7603 119.49 86.4895 119.672 86.3124C119.849 86.2186 120.12 86.3124 120.297 86.4895L128.193 100.922C128.193 101.01 128.193 101.01 128.281 101.099L129.537 110.239L129 121.088C129 121.177 129 121.265 128.906 121.265L124.156 128.703C124.156 128.974 123.974 129.062 123.797 129.062Z" fill="#2B2D48"/>
<path d="M109 106.479C108.729 106.479 108.552 106.297 108.552 106.026C108.552 105.76 108.729 105.578 109 105.578L128.01 104.682C128.281 104.682 128.458 104.864 128.458 105.13C128.458 105.401 128.281 105.578 128.01 105.578L109 106.479Z" fill="#2B2D48"/>
<path d="M122.901 118.578C122.63 118.578 122.453 118.396 122.453 118.13L122.63 109.974C122.63 109.703 122.812 109.526 123.078 109.526C123.349 109.526 123.526 109.703 123.526 109.974L123.349 118.219C123.349 118.396 123.167 118.578 122.901 118.578Z" fill="#2B2D48"/>
<path d="M128.906 81.828L104.787 78.7811C104.516 78.7811 104.339 78.5103 104.427 78.2447C104.427 77.9738 104.693 77.7968 104.964 77.8853L129 80.9322C129.266 80.9322 129.448 81.203 129.354 81.4686C129.354 81.6509 129.177 81.828 128.906 81.828Z" fill="#2B2D48"/>
<path d="M137.25 63.724L102.276 60.9427C102.006 60.9427 101.823 60.6771 101.823 60.4948C101.823 60.2292 102.094 60.0469 102.276 60.0469L137.25 62.8281C137.516 62.8281 137.698 63.0937 137.698 63.276C137.698 63.5469 137.516 63.724 137.25 63.724Z" fill="#2B2D48"/>
<path d="M144.693 73.9425H121.464C121.198 73.9425 121.016 73.7603 121.016 73.4946V48.0363C121.016 47.7707 121.198 47.5884 121.464 47.5884C121.734 47.5884 121.911 47.7707 121.911 48.0363V72.953H144.693C144.958 72.953 145.141 73.1353 145.141 73.4009C145.141 73.6717 144.958 73.9425 144.693 73.9425Z" fill="#2B2D48"/>
<path d="M121.463 70.9844L103.26 68.474C102.989 68.474 102.812 68.2032 102.901 67.9376C102.901 67.6667 103.172 67.4896 103.437 67.5782L121.552 70.0886C121.823 70.0886 122.005 70.3542 121.911 70.6251C121.911 70.8021 121.734 70.9844 121.463 70.9844Z" fill="#2B2D48"/>
<path d="M108.729 104.594H108.641C108.37 104.505 108.281 104.234 108.37 104.057L115.813 79.4998L111.959 61.3957V61.3019V48.755C111.959 48.4842 112.141 48.3071 112.406 48.3071C112.677 48.3071 112.854 48.4842 112.854 48.755V61.3019L116.62 79.4998C116.62 79.5884 116.62 79.6769 116.62 79.6769L109.177 104.328C109.089 104.505 108.912 104.594 108.729 104.594Z" fill="#2B2D48"/>
<path d="M119.943 87.2082C119.761 87.2082 119.584 87.1144 119.584 86.9373L115.813 79.7655C115.724 79.5884 115.724 79.4061 115.906 79.229L121.198 73.1353C121.375 72.953 121.646 72.953 121.823 73.1353C122.005 73.3123 122.005 73.5832 121.823 73.7603L116.714 79.5884L120.391 86.4894C120.479 86.6665 120.391 86.9373 120.209 87.1144C120.12 87.2082 120.031 87.2082 119.943 87.2082Z" fill="#2B2D48"/>
<path d="M125.052 178.271C124.875 178.271 124.693 178.182 124.604 177.911C124.516 177.64 124.693 177.463 124.875 177.375L147.203 171.099C147.474 171.01 147.651 171.187 147.74 171.37C147.828 171.547 147.651 171.817 147.474 171.906L125.141 178.182C125.141 178.271 125.052 178.271 125.052 178.271Z" fill="#2B2D48"/>
<path d="M18.5124 232.783C17.3874 232.783 16.3665 232.601 15.4499 232.242C14.5436 231.882 13.7676 231.361 13.1165 230.679C12.4759 229.986 11.9759 229.137 11.6165 228.137C11.2676 227.127 11.0957 225.971 11.0957 224.679C11.0957 223.403 11.2676 222.262 11.6165 221.262C11.9759 220.252 12.4759 219.403 13.1165 218.721C13.7676 218.028 14.5436 217.502 15.4499 217.137C16.3665 216.778 17.3874 216.596 18.5124 216.596C19.4967 216.596 20.3665 216.731 21.1165 216.992C21.877 217.242 22.5384 217.596 23.0957 218.054C23.6634 218.502 24.1374 219.044 24.5124 219.679C24.8874 220.304 25.1686 221.002 25.3665 221.762H21.8874C21.7467 221.445 21.5801 221.158 21.3874 220.908C21.1895 220.658 20.9603 220.439 20.6999 220.242C20.4499 220.049 20.1426 219.903 19.7832 219.804C19.4186 219.695 18.9967 219.637 18.5124 219.637C17.929 219.637 17.3874 219.742 16.8874 219.95C16.3978 220.158 15.9759 220.471 15.6165 220.887C15.252 221.304 14.9707 221.835 14.7624 222.471C14.5645 223.111 14.4707 223.846 14.4707 224.679C14.4707 225.528 14.5645 226.273 14.7624 226.908C14.9707 227.533 15.252 228.064 15.6165 228.492C15.9759 228.908 16.3978 229.221 16.8874 229.429C17.3874 229.637 17.929 229.742 18.5124 229.742C18.9967 229.742 19.4186 229.695 19.7832 229.596C20.1426 229.486 20.4499 229.335 20.6999 229.137C20.9603 228.945 21.1895 228.721 21.3874 228.471C21.5801 228.21 21.7467 227.924 21.8874 227.617H25.3665C25.1686 228.382 24.8874 229.075 24.5124 229.7C24.1374 230.325 23.6634 230.867 23.0957 231.325C22.5384 231.783 21.877 232.148 21.1165 232.408C20.3665 232.658 19.4967 232.783 18.5124 232.783Z" fill="#EBE3D2"/>
<path d="M32.6702 232.783C31.7796 232.783 30.9723 232.643 30.2536 232.367C29.5296 232.09 28.9098 231.689 28.3994 231.158C27.8994 230.632 27.5088 229.986 27.2327 229.221C26.9671 228.46 26.8369 227.585 26.8369 226.596C26.8369 225.611 26.9671 224.736 27.2327 223.971C27.5088 223.21 27.8994 222.564 28.3994 222.033C28.9098 221.507 29.5296 221.106 30.2536 220.825C30.9723 220.549 31.7796 220.408 32.6702 220.408C33.5713 220.408 34.3838 220.549 35.1077 220.825C35.8265 221.106 36.4411 221.507 36.9411 222.033C37.4515 222.564 37.8421 223.21 38.1077 223.971C38.3838 224.736 38.5244 225.611 38.5244 226.596C38.5244 227.585 38.3838 228.46 38.1077 229.221C37.8421 229.986 37.4515 230.632 36.9411 231.158C36.4411 231.689 35.8265 232.09 35.1077 232.367C34.3838 232.643 33.5713 232.783 32.6702 232.783ZM32.6702 229.971C33.0296 229.971 33.3786 229.908 33.7119 229.783C34.0452 229.658 34.3265 229.46 34.5661 229.179C34.8161 228.903 35.0088 228.549 35.1494 228.117C35.3005 227.689 35.3786 227.179 35.3786 226.596C35.3786 226.012 35.3005 225.507 35.1494 225.075C35.0088 224.648 34.8161 224.299 34.5661 224.033C34.3265 223.757 34.0452 223.554 33.7119 223.429C33.3786 223.294 33.0296 223.221 32.6702 223.221C32.3057 223.221 31.9619 223.294 31.6286 223.429C31.3057 223.554 31.0244 223.757 30.7744 224.033C30.5244 224.299 30.3265 224.648 30.1911 225.075C30.0505 225.507 29.9827 226.012 29.9827 226.596C29.9827 227.179 30.0505 227.689 30.1911 228.117C30.3265 228.549 30.5244 228.903 30.7744 229.179C31.0244 229.46 31.3057 229.658 31.6286 229.783C31.9619 229.908 32.3057 229.971 32.6702 229.971Z" fill="#EBE3D2"/>
<path d="M40.6602 220.637H43.3477L43.681 221.992H43.806C44.1914 221.481 44.6602 221.09 45.2018 220.825C45.7435 220.549 46.3268 220.408 46.9518 220.408C47.5872 220.408 48.181 220.523 48.7227 220.742C49.2643 220.965 49.7227 221.283 50.0977 221.7C50.4831 222.117 50.7852 222.627 50.9935 223.221C51.2122 223.804 51.3268 224.481 51.3268 225.242V232.554H48.181V225.7C48.181 224.908 47.9935 224.299 47.6185 223.867C47.2435 223.439 46.7227 223.221 46.056 223.221C45.3737 223.221 44.8268 223.45 44.4102 223.908C44.0039 224.367 43.806 224.965 43.806 225.7V232.554H40.6602V220.637Z" fill="#EBE3D2"/>
<path d="M58.2952 232.783C57.4307 232.783 56.6807 232.679 56.0452 232.471C55.4202 232.262 54.8994 231.981 54.4827 231.617C54.0661 231.257 53.738 230.84 53.5036 230.367C53.264 229.898 53.1077 229.387 53.0244 228.846H56.3786C56.4463 229.127 56.639 229.382 56.9619 229.617C57.2796 229.856 57.7223 229.971 58.2952 229.971C59.0713 229.971 59.5973 229.882 59.8786 229.7C60.1702 229.507 60.3161 229.299 60.3161 229.075C60.3161 228.773 60.1494 228.554 59.8161 228.429C59.4827 228.294 59.0557 228.174 58.5452 228.075C58.0296 227.965 57.4723 227.846 56.8786 227.721C56.2952 227.596 55.7432 227.398 55.2327 227.117C54.7327 226.84 54.3057 226.46 53.9619 225.971C53.6286 225.486 53.4619 224.835 53.4619 224.012C53.4619 223.502 53.5661 223.028 53.7744 222.596C53.9827 222.169 54.2848 221.794 54.6911 221.471C55.1077 221.137 55.613 220.882 56.2119 220.7C56.8057 220.507 57.5036 220.408 58.2952 220.408C59.139 220.408 59.8682 220.507 60.4827 220.7C61.0921 220.898 61.5973 221.169 62.0036 221.512C62.4202 221.846 62.7432 222.242 62.9827 222.7C63.2171 223.148 63.3786 223.617 63.4619 224.117H60.0869C60.0296 223.898 59.8682 223.695 59.6077 223.512C59.3577 223.32 58.9202 223.221 58.2952 223.221C57.7796 223.221 57.389 223.299 57.1286 223.45C56.863 223.606 56.7327 223.794 56.7327 224.012C56.7327 224.32 56.8994 224.544 57.2327 224.679C57.5661 224.804 57.988 224.924 58.5036 225.033C59.014 225.132 59.5661 225.242 60.1494 225.367C60.7432 225.481 61.2952 225.674 61.7952 225.95C62.3057 226.231 62.7327 226.611 63.0661 227.096C63.4098 227.585 63.5869 228.242 63.5869 229.075C63.5869 229.549 63.4932 230.007 63.3161 230.45C63.1494 230.898 62.863 231.294 62.4619 231.637C62.0557 231.986 61.5088 232.262 60.8161 232.471C60.1338 232.679 59.2952 232.783 58.2952 232.783Z" fill="#EBE3D2"/>
<path d="M70.2038 232.554C68.9642 232.554 68.0371 232.257 67.4121 231.658C66.7975 231.065 66.4954 230.2 66.4954 229.075V223.554H64.5996V220.638H66.4954L66.9538 217.492H69.6413V220.638H72.4538V223.554H69.6413V228.513C69.6413 228.861 69.735 229.138 69.9329 229.346C70.1413 229.544 70.4173 229.638 70.7663 229.638H72.4538V232.554H70.2038Z" fill="#EBE3D2"/>
<path d="M74.7104 220.638H77.3979L77.7313 221.992H77.8563C78.2 221.481 78.6115 221.127 79.0854 220.929C79.5698 220.737 80.0959 220.638 80.6688 220.638H82.1271V223.679H80.8771C79.9188 223.679 79.174 223.945 78.6479 224.471C78.1167 224.987 77.8563 225.695 77.8563 226.596V232.554H74.7104V220.638Z" fill="#EBE3D2"/>
<path d="M88.188 232.784C87.5474 232.784 86.9588 232.669 86.4172 232.45C85.8755 232.231 85.4067 231.909 85.0213 231.492C84.6463 231.075 84.3442 230.575 84.1255 229.992C83.9172 229.398 83.813 228.716 83.813 227.95V220.638H86.9588V227.492C86.9588 228.284 87.1463 228.898 87.5213 229.325C87.8963 229.757 88.4172 229.971 89.0838 229.971C89.7609 229.971 90.3026 229.742 90.7088 229.284C91.1255 228.825 91.3338 228.231 91.3338 227.492V220.638H94.4797V232.554H91.7922L91.4588 231.2H91.3338C90.9432 231.716 90.4797 232.112 89.938 232.388C89.3963 232.648 88.813 232.784 88.188 232.784Z" fill="#EBE3D2"/>
<path d="M102.457 232.783C101.566 232.783 100.759 232.643 100.04 232.367C99.3162 232.09 98.6965 231.689 98.186 231.158C97.686 230.632 97.2954 229.986 97.0194 229.221C96.7537 228.46 96.6235 227.585 96.6235 226.596C96.6235 225.611 96.7537 224.736 97.0194 223.971C97.2954 223.21 97.686 222.564 98.186 222.033C98.6965 221.507 99.3162 221.106 100.04 220.825C100.759 220.549 101.566 220.408 102.457 220.408C103.301 220.408 104.04 220.528 104.665 220.762C105.29 221.002 105.821 221.32 106.269 221.721C106.712 222.111 107.071 222.564 107.353 223.075C107.629 223.59 107.837 224.127 107.978 224.679H104.832C104.592 224.236 104.295 223.882 103.936 223.617C103.587 223.356 103.092 223.221 102.457 223.221C101.665 223.221 101.019 223.507 100.519 224.075C100.019 224.632 99.7694 225.471 99.7694 226.596C99.7694 227.721 100.019 228.57 100.519 229.137C101.019 229.695 101.665 229.971 102.457 229.971C103.092 229.971 103.587 229.84 103.936 229.575C104.295 229.314 104.592 228.96 104.832 228.512H107.978C107.837 229.085 107.629 229.627 107.353 230.137C107.071 230.637 106.712 231.09 106.269 231.492C105.821 231.882 105.29 232.195 104.665 232.429C104.04 232.663 103.301 232.783 102.457 232.783Z" fill="#EBE3D2"/>
<path d="M114.706 232.554C113.466 232.554 112.539 232.257 111.914 231.658C111.299 231.065 110.997 230.2 110.997 229.075V223.554H109.102V220.638H110.997L111.456 217.492H114.143V220.638H116.956V223.554H114.143V228.513C114.143 228.861 114.237 229.138 114.435 229.346C114.643 229.544 114.919 229.638 115.268 229.638H116.956V232.554H114.706Z" fill="#EBE3D2"/>
<path d="M119.212 220.638H122.358V232.554H119.212V220.638ZM120.775 219.408C120.275 219.408 119.847 219.236 119.504 218.888C119.155 218.544 118.983 218.111 118.983 217.596C118.983 217.096 119.155 216.674 119.504 216.325C119.847 215.981 120.275 215.804 120.775 215.804C121.285 215.804 121.717 215.981 122.066 216.325C122.41 216.674 122.587 217.096 122.587 217.596C122.587 218.111 122.41 218.544 122.066 218.888C121.717 219.236 121.285 219.408 120.775 219.408Z" fill="#EBE3D2"/>
<path d="M130.326 232.783C129.436 232.783 128.629 232.643 127.91 232.367C127.186 232.09 126.566 231.689 126.056 231.158C125.556 230.632 125.165 229.986 124.889 229.221C124.623 228.46 124.493 227.585 124.493 226.596C124.493 225.611 124.623 224.736 124.889 223.971C125.165 223.21 125.556 222.564 126.056 222.033C126.566 221.507 127.186 221.106 127.91 220.825C128.629 220.549 129.436 220.408 130.326 220.408C131.228 220.408 132.04 220.549 132.764 220.825C133.483 221.106 134.097 221.507 134.597 222.033C135.108 222.564 135.498 223.21 135.764 223.971C136.04 224.736 136.181 225.611 136.181 226.596C136.181 227.585 136.04 228.46 135.764 229.221C135.498 229.986 135.108 230.632 134.597 231.158C134.097 231.689 133.483 232.09 132.764 232.367C132.04 232.643 131.228 232.783 130.326 232.783ZM130.326 229.971C130.686 229.971 131.035 229.908 131.368 229.783C131.701 229.658 131.983 229.46 132.222 229.179C132.472 228.903 132.665 228.549 132.806 228.117C132.957 227.689 133.035 227.179 133.035 226.596C133.035 226.012 132.957 225.507 132.806 225.075C132.665 224.648 132.472 224.299 132.222 224.033C131.983 223.757 131.701 223.554 131.368 223.429C131.035 223.294 130.686 223.221 130.326 223.221C129.962 223.221 129.618 223.294 129.285 223.429C128.962 223.554 128.681 223.757 128.431 224.033C128.181 224.299 127.983 224.648 127.847 225.075C127.707 225.507 127.639 226.012 127.639 226.596C127.639 227.179 127.707 227.689 127.847 228.117C127.983 228.549 128.181 228.903 128.431 229.179C128.681 229.46 128.962 229.658 129.285 229.783C129.618 229.908 129.962 229.971 130.326 229.971Z" fill="#EBE3D2"/>
<path d="M138.316 220.637H141.004L141.337 221.992H141.462C141.848 221.481 142.316 221.09 142.858 220.825C143.4 220.549 143.983 220.408 144.608 220.408C145.243 220.408 145.837 220.523 146.379 220.742C146.921 220.965 147.379 221.283 147.754 221.7C148.139 222.117 148.441 222.627 148.65 223.221C148.868 223.804 148.983 224.481 148.983 225.242V232.554H145.837V225.7C145.837 224.908 145.65 224.299 145.275 223.867C144.9 223.439 144.379 223.221 143.712 223.221C143.03 223.221 142.483 223.45 142.066 223.908C141.66 224.367 141.462 224.965 141.462 225.7V232.554H138.316V220.637Z" fill="#EBE3D2"/>
<path d="M156.746 220.637H159.434L159.767 221.992H159.892C160.236 221.481 160.632 221.09 161.079 220.825C161.522 220.549 162.064 220.408 162.704 220.408C163.204 220.408 163.632 220.481 163.996 220.617C164.371 220.757 164.689 220.924 164.954 221.117C165.215 221.314 165.423 221.523 165.579 221.742C165.746 221.965 165.871 222.158 165.954 222.325H166.079C166.163 222.158 166.293 221.965 166.475 221.742C166.652 221.523 166.892 221.314 167.184 221.117C167.486 220.924 167.84 220.757 168.246 220.617C168.647 220.481 169.121 220.408 169.663 220.408C170.314 220.408 170.902 220.523 171.434 220.742C171.975 220.965 172.434 221.278 172.809 221.679C173.194 222.085 173.501 222.575 173.725 223.158C173.944 223.742 174.059 224.403 174.059 225.137V232.554H170.913V225.596C170.913 225.169 170.855 224.804 170.746 224.512C170.632 224.21 170.486 223.965 170.309 223.783C170.142 223.59 169.934 223.45 169.684 223.367C169.434 223.273 169.163 223.221 168.871 223.221C168.371 223.221 167.923 223.419 167.538 223.804C167.163 224.195 166.975 224.794 166.975 225.596V232.554H163.829V225.596C163.829 225.169 163.772 224.804 163.663 224.512C163.564 224.21 163.423 223.965 163.246 223.783C163.064 223.59 162.85 223.45 162.6 223.367C162.35 223.273 162.085 223.221 161.809 223.221C161.293 223.221 160.84 223.439 160.454 223.867C160.079 224.283 159.892 224.861 159.892 225.596V232.554H156.746V220.637Z" fill="#EBE3D2"/>
<path d="M180.116 232.783C179.476 232.783 178.892 232.689 178.366 232.512C177.851 232.32 177.413 232.054 177.054 231.721C176.689 231.387 176.413 231.002 176.221 230.554C176.038 230.111 175.95 229.617 175.95 229.075C175.95 228.533 176.043 228.044 176.241 227.596C176.434 227.137 176.726 226.752 177.116 226.429C177.517 226.096 178.002 225.84 178.575 225.658C179.142 225.465 179.809 225.367 180.575 225.367H183.366V224.804C183.366 224.236 183.184 223.814 182.825 223.533C182.476 223.257 181.981 223.117 181.346 223.117C180.898 223.117 180.517 223.215 180.2 223.408C179.892 223.606 179.679 223.84 179.554 224.117H176.408C176.517 223.648 176.7 223.189 176.95 222.742C177.21 222.299 177.554 221.908 177.971 221.575C178.387 221.231 178.877 220.95 179.45 220.742C180.033 220.523 180.705 220.408 181.471 220.408C183.054 220.408 184.288 220.794 185.179 221.554C186.064 222.32 186.512 223.439 186.512 224.908V232.554H183.825L183.491 231.2H183.366C183.252 231.367 183.106 231.549 182.929 231.742C182.747 231.924 182.517 232.096 182.241 232.262C181.976 232.419 181.663 232.544 181.304 232.637C180.955 232.731 180.559 232.783 180.116 232.783ZM180.908 230.2C181.642 230.2 182.231 229.992 182.679 229.575C183.137 229.158 183.366 228.617 183.366 227.95V227.617H180.679C180.106 227.617 179.7 227.736 179.45 227.971C179.21 228.21 179.096 228.502 179.096 228.846C179.096 229.236 179.231 229.564 179.512 229.825C179.804 230.075 180.267 230.2 180.908 230.2Z" fill="#EBE3D2"/>
<path d="M189.111 220.637H191.799L192.132 221.992H192.257C192.59 221.606 193.018 221.242 193.549 220.908C194.09 220.575 194.783 220.408 195.632 220.408C196.393 220.408 197.09 220.544 197.715 220.804C198.34 221.07 198.882 221.465 199.34 221.992C199.799 222.523 200.153 223.174 200.403 223.95C200.663 224.715 200.799 225.596 200.799 226.596C200.799 227.611 200.663 228.502 200.403 229.262C200.153 230.028 199.799 230.674 199.34 231.2C198.882 231.731 198.34 232.127 197.715 232.387C197.09 232.648 196.393 232.783 195.632 232.783C195.174 232.783 194.768 232.731 194.424 232.637C194.075 232.544 193.762 232.419 193.486 232.262C193.221 232.111 192.992 231.95 192.799 231.783C192.617 231.606 192.471 231.45 192.361 231.325H192.257V237.054H189.111V220.637ZM194.945 229.971C195.304 229.971 195.653 229.908 195.986 229.783C196.32 229.658 196.601 229.46 196.84 229.179C197.09 228.903 197.283 228.549 197.424 228.117C197.575 227.689 197.653 227.179 197.653 226.596C197.653 226.012 197.575 225.507 197.424 225.075C197.283 224.648 197.09 224.299 196.84 224.033C196.601 223.757 196.32 223.554 195.986 223.429C195.653 223.294 195.304 223.221 194.945 223.221C194.58 223.221 194.236 223.294 193.903 223.429C193.58 223.554 193.299 223.757 193.049 224.033C192.799 224.299 192.601 224.648 192.465 225.075C192.325 225.507 192.257 226.012 192.257 226.596C192.257 227.179 192.325 227.689 192.465 228.117C192.601 228.549 192.799 228.903 193.049 229.179C193.299 229.46 193.58 229.658 193.903 229.783C194.236 229.908 194.58 229.971 194.945 229.971Z" fill="#EBE3D2"/>
<path d="M202.934 220.637H205.621L205.954 221.992H206.079C206.413 221.606 206.84 221.242 207.371 220.908C207.913 220.575 208.605 220.408 209.454 220.408C210.215 220.408 210.913 220.544 211.538 220.804C212.163 221.07 212.704 221.465 213.163 221.992C213.621 222.523 213.975 223.174 214.225 223.95C214.486 224.715 214.621 225.596 214.621 226.596C214.621 227.611 214.486 228.502 214.225 229.262C213.975 230.028 213.621 230.674 213.163 231.2C212.704 231.731 212.163 232.127 211.538 232.387C210.913 232.648 210.215 232.783 209.454 232.783C208.996 232.783 208.59 232.731 208.246 232.637C207.897 232.544 207.585 232.419 207.309 232.262C207.043 232.111 206.814 231.95 206.621 231.783C206.439 231.606 206.293 231.45 206.184 231.325H206.079V237.054H202.934V220.637ZM208.767 229.971C209.126 229.971 209.475 229.908 209.809 229.783C210.142 229.658 210.423 229.46 210.663 229.179C210.913 228.903 211.105 228.549 211.246 228.117C211.397 227.689 211.475 227.179 211.475 226.596C211.475 226.012 211.397 225.507 211.246 225.075C211.105 224.648 210.913 224.299 210.663 224.033C210.423 223.757 210.142 223.554 209.809 223.429C209.475 223.294 209.126 223.221 208.767 223.221C208.402 223.221 208.059 223.294 207.725 223.429C207.402 223.554 207.121 223.757 206.871 224.033C206.621 224.299 206.423 224.648 206.288 225.075C206.147 225.507 206.079 226.012 206.079 226.596C206.079 227.179 206.147 227.689 206.288 228.117C206.423 228.549 206.621 228.903 206.871 229.179C207.121 229.46 207.402 229.658 207.725 229.783C208.059 229.908 208.402 229.971 208.767 229.971Z" fill="#EBE3D2"/>
<path d="M216.756 220.638H219.902V232.554H216.756V220.638ZM218.319 219.408C217.819 219.408 217.391 219.236 217.048 218.888C216.699 218.544 216.527 218.111 216.527 217.596C216.527 217.096 216.699 216.674 217.048 216.325C217.391 215.981 217.819 215.804 218.319 215.804C218.829 215.804 219.261 215.981 219.61 216.325C219.954 216.674 220.131 217.096 220.131 217.596C220.131 218.111 219.954 218.544 219.61 218.888C219.261 219.236 218.829 219.408 218.319 219.408Z" fill="#EBE3D2"/>
<path d="M222.6 220.637H225.287L225.62 221.992H225.745C226.131 221.481 226.6 221.09 227.141 220.825C227.683 220.549 228.266 220.408 228.891 220.408C229.527 220.408 230.12 220.523 230.662 220.742C231.204 220.965 231.662 221.283 232.037 221.7C232.423 222.117 232.725 222.627 232.933 223.221C233.152 223.804 233.266 224.481 233.266 225.242V232.554H230.12V225.7C230.12 224.908 229.933 224.299 229.558 223.867C229.183 223.439 228.662 223.221 227.995 223.221C227.313 223.221 226.766 223.45 226.35 223.908C225.943 224.367 225.745 224.965 225.745 225.7V232.554H222.6V220.637Z" fill="#EBE3D2"/>
<path d="M241.131 237.054C240.241 237.054 239.47 236.95 238.819 236.742C238.178 236.533 237.636 236.242 237.194 235.867C236.746 235.502 236.386 235.08 236.11 234.596C235.845 234.106 235.652 233.58 235.527 233.012H238.777C238.902 233.398 239.162 233.7 239.569 233.908C239.985 234.127 240.506 234.242 241.131 234.242C241.923 234.242 242.532 234.054 242.965 233.679C243.392 233.304 243.61 232.773 243.61 232.096V230.408H243.506C243.381 230.549 243.22 230.71 243.027 230.887C242.845 231.054 242.616 231.215 242.34 231.367C242.074 231.523 241.777 231.648 241.444 231.742C241.11 231.84 240.746 231.887 240.36 231.887C239.595 231.887 238.902 231.762 238.277 231.512C237.652 231.262 237.116 230.898 236.673 230.408C236.225 229.924 235.886 229.325 235.652 228.617C235.412 227.898 235.298 227.07 235.298 226.137C235.298 225.221 235.412 224.408 235.652 223.7C235.886 222.981 236.225 222.377 236.673 221.887C237.116 221.403 237.652 221.033 238.277 220.783C238.902 220.533 239.595 220.408 240.36 220.408C241.079 220.408 241.715 220.575 242.256 220.908C242.808 221.242 243.261 221.606 243.61 221.992H243.715L244.069 220.637H246.756V232.096C246.756 233.689 246.298 234.913 245.381 235.762C244.465 236.622 243.048 237.054 241.131 237.054ZM241.027 229.075C241.819 229.075 242.444 228.814 242.902 228.283C243.371 227.757 243.61 227.044 243.61 226.137C243.61 225.252 243.371 224.544 242.902 224.012C242.444 223.486 241.819 223.221 241.027 223.221C240.235 223.221 239.6 223.486 239.131 224.012C238.673 224.544 238.444 225.252 238.444 226.137C238.444 227.044 238.673 227.757 239.131 228.283C239.6 228.814 240.235 229.075 241.027 229.075Z" fill="#EBE3D2"/>
</svg>
