<svg width="272" height="272" viewBox="0 0 272 272" fill="none" xmlns="http://www.w3.org/2000/svg">
<mask id="mask0_52_1559" style="mask-type:luminance" maskUnits="userSpaceOnUse" x="0" y="0" width="272" height="272">
<path d="M0.71875 0.953125H271.182V271.417H0.71875V0.953125Z" fill="white"/>
</mask>
<g mask="url(#mask0_52_1559)">
<mask id="mask1_52_1559" style="mask-type:luminance" maskUnits="userSpaceOnUse" x="0" y="0" width="272" height="272">
<path d="M40.7031 0.953125H231.198C241.802 0.953125 251.974 5.16667 259.474 12.6615C266.974 20.1615 271.182 30.3333 271.182 40.9375V231.432C271.182 242.036 266.974 252.208 259.474 259.708C251.974 267.203 241.802 271.417 231.198 271.417H40.7031C30.099 271.417 19.9271 267.203 12.4323 259.708C4.93229 252.208 0.71875 242.036 0.71875 231.432V40.9375C0.71875 30.3333 4.93229 20.1615 12.4323 12.6615C19.9271 5.16667 30.099 0.953125 40.7031 0.953125Z" fill="white"/>
</mask>
<g mask="url(#mask1_52_1559)">
<path d="M0.71875 0.953125H271.182V271.417H0.71875V0.953125Z" fill="#112B3C"/>
</g>
</g>
<path d="M159.625 97.3906C159.625 99.1406 158.729 100.604 157.521 100.995C157.729 101.062 157.943 101.099 158.167 101.099C159.682 101.099 160.912 99.4427 160.912 97.3906C160.912 95.3437 159.682 93.6875 158.167 93.6875C157.943 93.6875 157.729 93.724 157.521 93.7917C158.729 94.1823 159.625 95.6458 159.625 97.3906Z" fill="#EBE3D2"/>
<path d="M147.354 105.662C147.354 103.12 145.927 101.026 144.099 100.771C143.974 100.75 143.844 100.74 143.719 100.74C141.708 100.74 140.078 102.943 140.078 105.662C140.078 108.375 141.708 110.578 143.719 110.578C143.844 110.578 143.974 110.568 144.099 110.552C145.927 110.292 147.354 108.203 147.354 105.662Z" fill="#EBE3D2"/>
<path d="M145.886 126.396C145.886 124.083 144.469 122.177 142.656 121.943C142.531 121.927 142.406 121.917 142.281 121.917C140.287 121.917 138.677 123.922 138.677 126.396C138.677 128.87 140.287 130.875 142.281 130.875C142.406 130.875 142.531 130.864 142.656 130.849C144.469 130.614 145.886 128.713 145.886 126.396Z" fill="#EBE3D2"/>
<path d="M145.016 144.448C145.016 141.682 143.031 139.412 140.49 139.13C140.318 139.11 140.141 139.099 139.958 139.099C137.167 139.099 134.906 141.495 134.906 144.448C134.906 147.401 137.167 149.797 139.958 149.797C140.141 149.797 140.318 149.787 140.49 149.766C143.031 149.49 145.016 147.214 145.016 144.448Z" fill="#EBE3D2"/>
<path d="M156.688 129.031C156.688 131.797 158.24 134.073 160.229 134.354C160.365 134.375 160.505 134.385 160.646 134.385C162.828 134.385 164.604 131.989 164.604 129.031C164.604 126.078 162.828 123.682 160.646 123.682C160.505 123.682 160.365 123.693 160.229 123.713C158.24 123.995 156.688 126.271 156.688 129.031Z" fill="#EBE3D2"/>
<path d="M155.208 154.49C155.208 157.323 157.349 159.635 160.057 159.818C160.172 159.828 160.281 159.839 160.396 159.839C163.266 159.839 165.589 157.443 165.589 154.49C165.589 151.531 163.266 149.141 160.396 149.141C160.281 149.141 160.172 149.151 160.057 149.156C157.349 149.339 155.208 151.651 155.208 154.49Z" fill="#EBE3D2"/>
<mask id="mask2_52_1559" style="mask-type:luminance" maskUnits="userSpaceOnUse" x="69" y="61" width="141" height="111">
<path d="M69.729 61.2241H209.031V171.182H69.729V61.2241Z" fill="white"/>
</mask>
<g mask="url(#mask2_52_1559)">
<path d="M192.927 226.037L183.401 223.849L177.682 219.604L173.312 213.167L164.552 210.88L160.927 210.969L158.437 159.667C156.187 159.084 154.521 156.99 154.521 154.49C154.521 152.177 155.948 150.209 157.943 149.464L157.187 133.839C157.432 133.906 157.687 133.948 157.948 133.948C158.042 133.948 158.13 133.938 158.219 133.927C156.828 133.099 155.854 131.224 155.854 129.031C155.854 126.844 156.828 124.969 158.219 124.141C158.13 124.13 158.042 124.12 157.948 124.12C157.521 124.12 157.109 124.224 156.729 124.412L156.265 114.906C155.89 114.813 155.542 114.63 155.224 114.38C155.542 114.537 155.88 114.625 156.234 114.625C157.901 114.625 159.25 112.797 159.25 110.547C159.25 108.297 157.901 106.469 156.234 106.469C155.88 106.469 155.542 106.557 155.224 106.714C155.422 106.557 155.63 106.427 155.849 106.328L155.578 100.656L155.573 100.63C155.818 100.74 156.078 100.797 156.349 100.797C157.745 100.797 158.87 99.2762 158.87 97.3908C158.87 95.5106 157.745 93.9898 156.349 93.9898C156.052 93.9898 155.771 94.0627 155.505 94.1877C155.427 94.2294 155.344 94.271 155.265 94.3231L155.14 91.6669C155.078 90.3908 154.213 89.3335 153.047 88.9794V80.9116H152.406V88.8648C152.333 88.8596 152.265 88.8544 152.193 88.8544H150.875V61.2658H149.594V88.8544H148.552C148.479 88.8544 148.411 88.8596 148.344 88.8648V68.6148H147.703V88.9794C146.531 89.3283 145.667 90.3856 145.604 91.6669L145.156 100.828C146.844 101.261 148.12 103.255 148.12 105.662C148.12 108.281 146.599 110.417 144.687 110.563L144.125 122.125C145.583 122.703 146.64 124.396 146.64 126.396C146.64 128.589 145.375 130.406 143.703 130.797L143.281 139.542C143.203 139.542 143.13 139.547 143.057 139.552C144.833 140.38 146.078 142.261 146.078 144.448C146.078 146.74 144.713 148.688 142.797 149.453L139.896 209.219L138.219 208.818L134.802 212.016L128.151 214.938L122.297 223.281L112.489 225.334L110.292 227.948H61.9009V230.495H209.01V227.948H194.062L192.927 226.037ZM148.489 211.255L141.588 209.62L141.963 201.891L148.489 195.406V211.255ZM148.489 193.594L142.057 199.99L142.739 185.948L148.489 191.662V193.594ZM148.489 189.854L142.823 184.219V184.182L148.489 178.505V189.854ZM148.489 176.693L142.917 182.276L143.526 169.755L148.489 174.735V176.693ZM148.489 172.917L144.021 168.438L148.489 163.74V172.917ZM148.489 161.88L143.661 166.953L144.224 155.302L148.489 159.781V161.88ZM148.489 157.922L144.37 153.589L148.489 149.245V157.922ZM148.489 147.38L144.401 151.693L144.521 149.214C146.443 148.709 147.89 146.938 148.031 144.787L148.489 145.271V147.38ZM148.489 143.401L147.687 142.557C147.219 141.36 146.307 140.406 145.177 139.906L145.13 139.854L148.489 136.422V143.401ZM148.489 134.584L145.062 138.089L145.432 130.417C145.672 130.354 145.896 130.255 146.109 130.136L148.489 132.568V134.584ZM148.489 130.735L147.083 129.297C147.677 128.552 148.047 127.526 148.047 126.396C148.047 125.766 147.927 125.177 147.724 124.641L148.489 123.86V130.735ZM148.489 122.026L147.068 123.479C146.719 123.047 146.292 122.719 145.818 122.511L146.057 117.516L148.489 120.005V122.026ZM148.489 118.167L146.146 115.766L146.156 115.552L148.489 112.943V118.167ZM148.489 111.021L146.255 113.516L146.417 110.162C147.219 110.089 147.937 109.641 148.489 108.938V111.021ZM148.489 100.875L147.776 101.682C147.489 101.474 147.177 101.318 146.849 101.229L147.062 96.896L148.489 98.5262V100.875ZM148.489 96.5783L147.151 95.0523L147.312 91.7502C147.338 91.1096 147.854 90.6043 148.489 90.5731V96.5783ZM148.917 99.1929H149.073L149.515 99.6981L148.917 100.386V99.1929ZM148.917 109.214L149.51 109.875L148.917 110.542V109.214ZM148.917 120.755H149.224L149.474 121.016L148.917 121.589V120.755ZM148.917 133.005L149.474 133.578L148.917 134.146V133.005ZM148.917 145.719L149.489 146.323L149.146 146.682H148.917V145.719ZM148.917 160.229L149.484 160.828L149.271 161.057H148.917V160.229ZM148.917 175.162L149.187 175.432H148.917V175.162ZM149.036 173.464H151.703L150.37 174.802L149.036 173.464ZM151.578 177.828H149.167L150.37 176.62L151.578 177.828ZM148.917 175.865H149.312L148.917 176.261V175.865ZM148.917 192.089L149.036 192.203H148.917V192.089ZM148.917 192.636H149.458L148.917 193.172V192.636ZM150.37 193.537L151.443 194.599H149.297L150.37 193.537ZM151.828 211.198L148.917 211.276V209.406H151.828V211.198ZM151.828 208.974H148.917V207.011H151.828V208.974ZM151.828 206.578H148.917V204.615H151.828V206.578ZM151.828 204.182H148.917V202.219H151.828V204.182ZM151.828 201.787H148.917V199.823H151.828V201.787ZM151.828 199.391H148.917V197.427H151.828V199.391ZM151.828 196.995H148.917V195.031H151.828V196.995ZM151.828 193.172L151.286 192.636H151.828V193.172ZM151.828 192.203H151.708L151.828 192.089V192.203ZM151.828 190.276L150.37 191.724L148.917 190.276V190.24H151.828V190.276ZM151.828 189.807H148.917V187.844H151.828V189.807ZM151.828 187.412H148.917V185.448H151.828V187.412ZM151.828 185.016H148.917V183.052H151.828V185.016ZM151.828 182.62H148.917V180.656H151.828V182.62ZM151.828 180.224H148.917V178.261H151.828V180.224ZM151.828 176.261L151.427 175.865H151.828V176.261ZM151.828 175.432H151.557L151.828 175.162V175.432ZM151.828 173.037H148.917V171.068H151.828V173.037ZM151.828 170.641H148.917V168.672H151.828V170.641ZM151.828 168.245H148.917V166.276H151.828V168.245ZM151.828 165.849H148.917V163.886H151.828V165.849ZM151.828 163.453H148.917V163.292L150.37 161.761L151.828 163.292V163.453ZM149.604 159.094H151.14L150.37 159.901L149.604 159.094ZM151.828 161.057H151.474L151.255 160.828L151.828 160.229V161.057ZM151.828 158.37L151.547 158.662H149.193L148.917 158.37V156.698H151.828V158.37ZM151.828 156.266H148.917V154.297H151.828V156.266ZM151.828 153.87H148.917V151.901H151.828V153.87ZM151.828 151.474H148.917V149.505H151.828V151.474ZM151.828 149.078H148.917V148.792L150.37 147.255L151.828 148.792V149.078ZM149.734 144.714H151.01L150.37 145.391L149.734 144.714ZM151.828 146.682H151.599L151.255 146.323L151.828 145.719V146.682ZM151.828 143.854L151.417 144.287H149.328L148.917 143.854V142.318H151.828V143.854ZM151.828 141.891H148.917V139.922H151.828V141.891ZM151.828 139.495H148.917V137.526H151.828V139.495ZM151.828 137.099H148.917V135.985L149.745 135.13H150.995L151.828 135.985V137.099ZM150.167 134.703L150.37 134.495L150.578 134.703H150.167ZM151.828 134.146L151.271 133.578L151.828 133.005V134.146ZM151.828 131.167L150.713 132.307H150.031L148.917 131.172V130.339H151.828V131.167ZM151.828 129.912H148.917V127.943H151.828V129.912ZM151.828 127.516H148.917V125.547H151.828V127.516ZM151.828 125.12H148.917V123.422L149.177 123.151H151.562L151.828 123.422V125.12ZM149.599 122.724L150.37 121.932L151.146 122.724H149.599ZM151.828 121.589L151.265 121.016L151.515 120.755H151.828V121.589ZM151.828 118.604L150.37 120.094L148.917 118.604V118.36H151.828V118.604ZM151.828 117.932H148.917V115.964H151.828V117.932ZM151.828 115.537H148.917V113.568H151.828V115.537ZM151.828 113.141H148.917V112.469L150.073 111.172H150.672L151.828 112.469V113.141ZM150.25 108.776H150.495L150.37 108.917L150.25 108.776ZM151.828 110.542L151.234 109.875L151.828 109.214V110.542ZM151.828 107.287L150.875 108.349H149.864L149.203 107.61C149.344 107.229 149.437 106.818 149.489 106.38H151.828V107.287ZM151.828 105.953H149.526C149.531 105.854 149.536 105.761 149.536 105.662C149.536 105.068 149.448 104.505 149.297 103.985H151.828V105.953ZM151.828 103.557H149.151C149.083 103.38 149 103.209 148.917 103.042V102.334L149.568 101.589H151.177L151.828 102.334V103.557ZM149.943 101.162L150.37 100.672L150.802 101.162H149.943ZM151.828 100.386L151.224 99.6981L151.667 99.1929H151.828V100.386ZM151.828 97.0679L150.37 98.7241L148.917 97.0679V96.7971H151.828V97.0679ZM151.828 96.37H148.917V94.4012H151.828V96.37ZM151.828 93.9741H148.917V92.0054H151.828V93.9741ZM151.828 91.5783H148.917V90.5679H151.828V91.5783ZM152.255 90.5731C152.89 90.6043 153.401 91.1096 153.432 91.7502L153.594 95.0523L152.255 96.5783V90.5731ZM152.255 98.5262L153.682 96.896L153.969 102.828L152.255 100.875V98.5262ZM152.255 102.818L154.021 104.834L152.255 106.807V102.818ZM152.255 108.735L154.151 106.61L154.198 107.547C153.599 108.292 153.219 109.36 153.219 110.547C153.219 111.266 153.359 111.938 153.599 112.521L152.255 111.021V108.735ZM152.255 112.943L154.588 115.552L154.599 115.766L152.255 118.167V112.943ZM152.255 120.005L154.682 117.516L155.042 124.88L152.255 122.026V120.005ZM152.255 123.86L154.833 126.505C154.557 127.13 154.38 127.844 154.328 128.61L152.255 130.735V123.86ZM152.255 132.568L154.443 130.328C154.62 131.182 154.953 131.948 155.411 132.552L155.682 138.089L152.255 134.584V132.568ZM152.255 136.422L155.614 139.854L152.255 143.401V136.422ZM152.255 145.271L155.844 141.479L156.265 150.115C155.958 150.276 155.667 150.469 155.401 150.698L152.255 147.38V145.271ZM152.255 149.245L154.542 151.656C153.989 152.459 153.661 153.432 153.661 154.49C153.661 155.068 153.765 155.625 153.948 156.141L152.255 157.922V149.245ZM152.255 159.781L154.562 157.354C155.099 158.115 155.838 158.714 156.698 159.063L157.083 166.953L152.255 161.88V159.781ZM152.255 163.74L156.724 168.438L152.255 172.917V163.74ZM152.255 174.735L157.219 169.755L157.828 182.276L152.255 176.693V174.735ZM152.255 178.505L157.917 184.188L157.922 184.219L152.255 189.854V178.505ZM152.255 191.662L158.005 185.948L158.687 199.99L152.255 193.599V191.662ZM152.255 211.188V195.406L158.776 201.891L159.219 211.016L152.255 211.188Z" fill="#EBE3D2"/>
</g>
<path d="M160.151 110.547C160.151 112.641 159.078 114.391 157.641 114.859C157.885 114.938 158.141 114.984 158.406 114.984C160.219 114.984 161.693 113 161.693 110.547C161.693 108.094 160.224 106.109 158.406 106.109C158.141 106.109 157.885 106.156 157.641 106.24C159.078 106.703 160.151 108.453 160.151 110.547Z" fill="#EBE3D2"/>
<mask id="mask3_52_1559" style="mask-type:luminance" maskUnits="userSpaceOnUse" x="69" y="100" width="57" height="20">
<path d="M69.729 100H125.167V120H69.729V100Z" fill="white"/>
</mask>
<g mask="url(#mask3_52_1559)">
<path d="M124.203 101.099C124.203 100.948 123.125 100.802 119.932 100.802C117.224 100.802 113.869 100.818 112.916 100.995L112.896 100.724C112.869 100.411 112.682 100.177 112.458 100.177C112.234 100.177 112.047 100.411 112.021 100.724L111.994 101.021C111.625 100.891 110.76 100.802 108.797 100.802C105.604 100.802 100.713 101.031 100.713 101.307C100.713 101.458 101.791 101.604 104.984 101.604C107.661 101.604 110.963 101.589 111.963 101.422L111.843 102.891H110.021C110.021 103.255 110.047 103.609 110.099 103.948H101.411C101.166 103.443 100.656 103.094 100.057 103.094H93.2497C92.6507 103.094 92.1403 103.443 91.8903 103.948H83.208C83.2549 103.609 83.2861 103.255 83.2861 102.891H81.458L81.3382 101.396C81.7236 101.521 82.5934 101.604 84.5101 101.604C87.7028 101.604 92.5934 101.38 92.5934 101.099C92.5934 100.948 91.5101 100.802 88.3226 100.802C85.609 100.802 82.2601 100.818 81.307 100.995L81.2861 100.724C81.2601 100.411 81.0726 100.177 80.8486 100.177C80.6247 100.177 80.4372 100.411 80.4111 100.724L80.3851 101.021C80.0153 100.891 79.1507 100.802 77.182 100.802C73.9893 100.802 69.0986 101.031 69.0986 101.307C69.0986 101.458 70.182 101.604 73.3747 101.604C76.0518 101.604 79.3538 101.589 80.3538 101.422L80.234 102.891H78.4059C78.4059 105.266 79.4997 107.193 80.8486 107.193C81.4788 107.193 82.0518 106.766 82.484 106.073L93.5153 108.708L91.6559 109.615C90.3434 110.25 89.3434 111.417 88.9111 112.812L87.4059 117.693C87.333 117.932 87.1143 118.094 86.8643 118.094H85.0153V119.521H86.8643C87.7393 119.521 88.5049 118.953 88.7653 118.115L90.2705 113.234C90.5882 112.214 91.3174 111.365 92.2757 110.896L94.9632 109.594V109.979C94.9632 110.396 95.3018 110.734 95.7184 110.734H96.3695V111.219H94.2861C93.8851 111.219 93.5622 111.547 93.5622 111.948V114.344C93.5622 114.74 93.8851 115.068 94.2861 115.068H96.3695V115.672H97.0986V115.068H99.182C99.5778 115.068 99.9059 114.74 99.9059 114.344V111.948C99.9059 111.547 99.5778 111.219 99.182 111.219H97.0986V110.734H97.5882C98.0049 110.734 98.3382 110.396 98.3382 109.979V109.594L101.031 110.896C101.989 111.365 102.718 112.214 103.031 113.234L104.536 118.115C104.797 118.953 105.562 119.521 106.442 119.521H108.291V118.094H106.442C106.192 118.094 105.974 117.932 105.896 117.693L104.39 112.812C103.963 111.417 102.963 110.25 101.651 109.615L99.7913 108.708L110.823 106.073C111.255 106.766 111.828 107.193 112.458 107.193C113.807 107.193 114.896 105.266 114.896 102.891H113.073L112.948 101.396C113.338 101.521 114.203 101.604 116.119 101.604C119.312 101.604 124.203 101.38 124.203 101.099ZM97.8747 113.146C97.8747 113.776 97.3643 114.286 96.7341 114.286C96.1038 114.286 95.5934 113.776 95.5934 113.146C95.5934 112.51 96.1038 112 96.7341 112C97.3643 112 97.8747 112.51 97.8747 113.146Z" fill="#EBE3D2"/>
</g>
<path d="M96.125 113.146C96.125 113.479 96.3958 113.755 96.7344 113.755C97.0677 113.755 97.3438 113.479 97.3438 113.146C97.3438 112.807 97.0677 112.531 96.7344 112.531C96.3958 112.531 96.125 112.807 96.125 113.146Z" fill="#EBE3D2"/>
<path d="M94.8125 121.781H95.2604V142.521H94.8125V121.781Z" fill="#EBE3D2"/>
<path d="M97.4946 126.099H97.9373V146.844H97.4946V126.099Z" fill="#EBE3D2"/>
<path d="M96.1509 129.99H96.5988V159.75H96.1509V129.99Z" fill="#EBE3D2"/>
<path d="M12.3281 206.685H15.8906V223.351H12.3281V206.685Z" fill="#EBE3D2"/>
<path d="M19.0044 210.726H21.8586L22.2127 212.164H22.3377C22.7388 211.622 23.2231 211.216 23.7961 210.935C24.3794 210.643 25.0044 210.497 25.6711 210.497C26.3481 210.497 26.9731 210.617 27.5461 210.851C28.1138 211.075 28.5981 211.409 29.0044 211.851C29.4054 212.299 29.7231 212.83 29.9627 213.455C30.1971 214.08 30.3169 214.804 30.3169 215.622V223.351H26.9627V216.08C26.9627 215.247 26.7596 214.612 26.3586 214.164C25.9679 213.705 25.4211 213.476 24.7127 213.476C23.9888 213.476 23.4106 213.721 22.9836 214.205C22.5513 214.679 22.3377 215.304 22.3377 216.08V223.351H19.0044V210.726Z" fill="#EBE3D2"/>
<path d="M37.9279 223.58C37.1206 223.58 36.3862 223.44 35.7196 223.164C35.0529 222.888 34.4748 222.471 33.9904 221.914C33.5008 221.362 33.1206 220.679 32.8446 219.872C32.5789 219.07 32.4487 218.122 32.4487 217.039C32.4487 215.987 32.5789 215.049 32.8446 214.226C33.1206 213.409 33.5008 212.721 33.9904 212.164C34.4748 211.612 35.0529 211.195 35.7196 210.914C36.3862 210.638 37.1206 210.497 37.9279 210.497C38.3966 210.497 38.8237 210.554 39.1987 210.664C39.5737 210.763 39.8966 210.888 40.1779 211.039C40.4696 211.195 40.7039 211.367 40.8862 211.56C41.0789 211.742 41.2456 211.903 41.3862 212.039H41.4904V206.685H44.8237V223.351H41.9696L41.6154 221.914H41.4904C41.3237 222.122 41.1206 222.33 40.8862 222.539C40.6623 222.737 40.4071 222.914 40.1154 223.08C39.8237 223.237 39.4956 223.351 39.1362 223.435C38.7716 223.528 38.3706 223.58 37.9279 223.58ZM38.6362 220.622C39.0216 220.622 39.3914 220.554 39.7404 220.414C40.0841 220.278 40.3914 220.06 40.6571 219.768C40.9175 219.476 41.1206 219.112 41.2612 218.664C41.4123 218.205 41.4904 217.664 41.4904 217.039C41.4904 216.429 41.4123 215.893 41.2612 215.435C41.1206 214.976 40.9175 214.601 40.6571 214.31C40.3914 214.018 40.0841 213.81 39.7404 213.685C39.3914 213.549 39.0216 213.476 38.6362 213.476C38.2612 213.476 37.8914 213.549 37.5321 213.685C37.1831 213.81 36.8758 214.018 36.6154 214.31C36.3654 214.601 36.1623 214.976 36.0112 215.435C35.855 215.893 35.7821 216.429 35.7821 217.039C35.7821 217.664 35.855 218.205 36.0112 218.664C36.1623 219.112 36.3654 219.476 36.6154 219.768C36.8758 220.06 37.1831 220.278 37.5321 220.414C37.8914 220.554 38.2612 220.622 38.6362 220.622Z" fill="#EBE3D2"/>
<path d="M52.4409 223.581C51.7586 223.581 51.1336 223.466 50.5659 223.247C49.993 223.013 49.5086 222.674 49.1076 222.227C48.7013 221.784 48.3836 221.247 48.1493 220.622C47.9253 219.997 47.8159 219.284 47.8159 218.477V210.727H51.1493V217.997C51.1493 218.831 51.342 219.477 51.7326 219.935C52.1336 220.393 52.6909 220.622 53.3993 220.622C54.118 220.622 54.6961 220.383 55.1284 219.893C55.5555 219.409 55.7743 218.779 55.7743 217.997V210.727H59.1284V223.352H56.2534L55.8993 221.914H55.7743C55.368 222.456 54.8784 222.872 54.2951 223.164C53.7222 223.44 53.1076 223.581 52.4409 223.581Z" fill="#EBE3D2"/>
<path d="M66.6082 223.58C65.6916 223.58 64.8999 223.466 64.2332 223.247C63.5666 223.028 63.0093 222.726 62.5666 222.351C62.1187 221.976 61.7749 221.539 61.5249 221.039C61.2853 220.539 61.1187 219.997 61.0249 219.414H64.5874C64.6551 219.721 64.8582 219.997 65.1916 220.247C65.5353 220.497 66.0093 220.622 66.6082 220.622C67.4416 220.622 68.0041 220.528 68.2957 220.33C68.5978 220.122 68.7541 219.903 68.7541 219.664C68.7541 219.346 68.5718 219.117 68.2124 218.976C67.8634 218.825 67.4207 218.695 66.8791 218.58C66.3374 218.471 65.7541 218.351 65.1291 218.226C64.5041 218.101 63.9207 217.893 63.3791 217.601C62.8374 217.31 62.3843 216.909 62.0249 216.393C61.6759 215.882 61.5041 215.185 61.5041 214.31C61.5041 213.768 61.6134 213.268 61.8374 212.81C62.0562 212.351 62.3791 211.95 62.7957 211.601C63.2228 211.257 63.7593 210.987 64.3999 210.789C65.0353 210.596 65.7749 210.497 66.6082 210.497C67.4937 210.497 68.2645 210.601 68.9207 210.81C69.5718 211.007 70.1134 211.284 70.5457 211.643C70.9884 212.007 71.327 212.429 71.5666 212.914C71.8166 213.388 71.9884 213.888 72.0874 214.414H68.5249C68.452 214.179 68.2801 213.966 68.0041 213.768C67.7384 213.575 67.2749 213.476 66.6082 213.476C66.077 213.476 65.6707 213.56 65.3791 213.726C65.0874 213.882 64.9416 214.075 64.9416 214.31C64.9416 214.632 65.1187 214.862 65.4832 214.997C65.8426 215.138 66.2957 215.263 66.8374 215.372C67.3791 215.487 67.9624 215.601 68.5874 215.726C69.2124 215.851 69.7957 216.07 70.3374 216.372C70.8791 216.664 71.3218 217.07 71.6707 217.58C72.0301 218.096 72.2124 218.789 72.2124 219.664C72.2124 220.164 72.1187 220.653 71.9416 221.122C71.7593 221.596 71.452 222.013 71.0249 222.372C70.5926 222.737 70.0145 223.028 69.2957 223.247C68.5718 223.466 67.6759 223.58 66.6082 223.58Z" fill="#EBE3D2"/>
<path d="M79.2459 223.351C77.923 223.351 76.9386 223.039 76.2876 222.414C75.6313 221.778 75.3084 220.862 75.3084 219.664V213.831H73.2876V210.726H75.3084L75.7876 207.393H78.6418V210.726H81.6209V213.831H78.6418V219.06C78.6418 219.435 78.7459 219.726 78.9543 219.935C79.173 220.143 79.4647 220.247 79.8293 220.247H81.6209V223.351H79.2459Z" fill="#EBE3D2"/>
<path d="M84.0083 210.727H86.8625L87.2166 212.164H87.3416C87.701 211.622 88.1333 211.247 88.6333 211.039C89.1437 210.831 89.701 210.727 90.3 210.727H91.8625V213.956H90.55C89.5343 213.956 88.7427 214.237 88.175 214.789C87.6177 215.346 87.3416 216.096 87.3416 217.039V223.352H84.0083V210.727Z" fill="#EBE3D2"/>
<path d="M93.6519 210.727H96.9852V223.352H93.6519V210.727ZM95.3185 209.414C94.7769 209.414 94.3185 209.237 93.9435 208.872C93.5789 208.513 93.4019 208.06 93.4019 207.518C93.4019 206.977 93.5789 206.529 93.9435 206.164C94.3185 205.789 94.7769 205.602 95.3185 205.602C95.8446 205.602 96.2873 205.789 96.6519 206.164C97.0269 206.529 97.2144 206.977 97.2144 207.518C97.2144 208.06 97.0269 208.513 96.6519 208.872C96.2873 209.237 95.8446 209.414 95.3185 209.414Z" fill="#EBE3D2"/>
<path d="M103.53 223.58C102.848 223.58 102.228 223.481 101.676 223.289C101.134 223.096 100.665 222.825 100.28 222.476C99.9049 222.132 99.6133 221.721 99.4049 221.247C99.207 220.763 99.1133 220.237 99.1133 219.664C99.1133 219.096 99.2174 218.575 99.4258 218.101C99.6341 217.617 99.9362 217.2 100.342 216.851C100.759 216.507 101.264 216.237 101.863 216.039C102.473 215.83 103.186 215.726 104.009 215.726H106.967V215.143C106.967 214.534 106.78 214.08 106.405 213.789C106.03 213.497 105.509 213.351 104.842 213.351C104.353 213.351 103.947 213.455 103.613 213.664C103.28 213.872 103.051 214.122 102.926 214.414H99.5924C99.7018 213.914 99.8945 213.429 100.176 212.955C100.452 212.487 100.806 212.07 101.238 211.705C101.681 211.346 102.207 211.054 102.822 210.83C103.431 210.612 104.139 210.497 104.947 210.497C106.624 210.497 107.936 210.903 108.884 211.705C109.842 212.513 110.322 213.695 110.322 215.247V223.351H107.447L107.092 221.914H106.967C106.842 222.096 106.681 222.289 106.488 222.497C106.306 222.695 106.072 222.872 105.78 223.039C105.499 223.205 105.176 223.341 104.801 223.435C104.426 223.528 103.999 223.58 103.53 223.58ZM104.363 220.851C105.139 220.851 105.764 220.638 106.238 220.205C106.723 219.763 106.967 219.185 106.967 218.476V218.122H104.113C103.514 218.122 103.082 218.247 102.822 218.497C102.572 218.747 102.447 219.054 102.447 219.414C102.447 219.83 102.598 220.179 102.905 220.455C103.207 220.721 103.697 220.851 104.363 220.851Z" fill="#EBE3D2"/>
<path d="M113.162 206.685H116.495V223.351H113.162V206.685Z" fill="#EBE3D2"/>
<path d="M124.963 210.727H128.297V223.352H124.963V210.727ZM126.63 209.414C126.088 209.414 125.63 209.237 125.255 208.872C124.89 208.513 124.713 208.06 124.713 207.518C124.713 206.977 124.89 206.529 125.255 206.164C125.63 205.789 126.088 205.602 126.63 205.602C127.156 205.602 127.599 205.789 127.963 206.164C128.338 206.529 128.526 206.977 128.526 207.518C128.526 208.06 128.338 208.513 127.963 208.872C127.599 209.237 127.156 209.414 126.63 209.414Z" fill="#EBE3D2"/>
<path d="M131.154 210.726H134.008L134.363 212.164H134.488C134.889 211.622 135.373 211.216 135.946 210.935C136.529 210.643 137.154 210.497 137.821 210.497C138.498 210.497 139.123 210.617 139.696 210.851C140.264 211.075 140.748 211.409 141.154 211.851C141.555 212.299 141.873 212.83 142.113 213.455C142.347 214.08 142.467 214.804 142.467 215.622V223.351H139.113V216.08C139.113 215.247 138.91 214.612 138.508 214.164C138.118 213.705 137.571 213.476 136.863 213.476C136.139 213.476 135.561 213.721 135.133 214.205C134.701 214.679 134.488 215.304 134.488 216.08V223.351H131.154V210.726Z" fill="#EBE3D2"/>
<path d="M149.827 223.58C148.911 223.58 148.119 223.466 147.452 223.247C146.786 223.028 146.229 222.726 145.786 222.351C145.338 221.976 144.994 221.539 144.744 221.039C144.505 220.539 144.338 219.997 144.244 219.414H147.807C147.874 219.721 148.077 219.997 148.411 220.247C148.755 220.497 149.229 220.622 149.827 220.622C150.661 220.622 151.223 220.528 151.515 220.33C151.817 220.122 151.973 219.903 151.973 219.664C151.973 219.346 151.791 219.117 151.432 218.976C151.083 218.825 150.64 218.695 150.098 218.58C149.557 218.471 148.973 218.351 148.348 218.226C147.723 218.101 147.14 217.893 146.598 217.601C146.057 217.31 145.604 216.909 145.244 216.393C144.895 215.882 144.723 215.185 144.723 214.31C144.723 213.768 144.833 213.268 145.057 212.81C145.275 212.351 145.598 211.95 146.015 211.601C146.442 211.257 146.979 210.987 147.619 210.789C148.255 210.596 148.994 210.497 149.827 210.497C150.713 210.497 151.484 210.601 152.14 210.81C152.791 211.007 153.333 211.284 153.765 211.643C154.208 212.007 154.546 212.429 154.786 212.914C155.036 213.388 155.208 213.888 155.307 214.414H151.744C151.671 214.179 151.499 213.966 151.223 213.768C150.958 213.575 150.494 213.476 149.827 213.476C149.296 213.476 148.89 213.56 148.598 213.726C148.307 213.882 148.161 214.075 148.161 214.31C148.161 214.632 148.338 214.862 148.702 214.997C149.062 215.138 149.515 215.263 150.057 215.372C150.598 215.487 151.182 215.601 151.807 215.726C152.432 215.851 153.015 216.07 153.557 216.372C154.098 216.664 154.541 217.07 154.89 217.58C155.249 218.096 155.432 218.789 155.432 219.664C155.432 220.164 155.338 220.653 155.161 221.122C154.979 221.596 154.671 222.013 154.244 222.372C153.812 222.737 153.234 223.028 152.515 223.247C151.791 223.466 150.895 223.58 149.827 223.58Z" fill="#EBE3D2"/>
<path d="M157.465 210.726H160.319L160.674 212.164H160.799C161.142 211.747 161.601 211.367 162.174 211.018C162.741 210.674 163.471 210.497 164.361 210.497C165.163 210.497 165.903 210.638 166.569 210.914C167.236 211.195 167.809 211.612 168.299 212.164C168.783 212.721 169.158 213.409 169.424 214.226C169.7 215.049 169.84 215.987 169.84 217.039C169.84 218.122 169.7 219.07 169.424 219.872C169.158 220.679 168.783 221.362 168.299 221.914C167.809 222.471 167.236 222.888 166.569 223.164C165.903 223.44 165.163 223.58 164.361 223.58C163.887 223.58 163.465 223.528 163.09 223.435C162.715 223.341 162.382 223.216 162.09 223.06C161.809 222.893 161.569 222.721 161.361 222.539C161.163 222.346 161.012 222.179 160.903 222.039H160.799V228.122H157.465V210.726ZM163.653 220.622C164.028 220.622 164.387 220.554 164.736 220.414C165.08 220.278 165.387 220.06 165.653 219.768C165.913 219.476 166.122 219.112 166.278 218.664C166.429 218.205 166.507 217.664 166.507 217.039C166.507 216.429 166.429 215.893 166.278 215.435C166.122 214.976 165.913 214.601 165.653 214.31C165.387 214.018 165.08 213.81 164.736 213.685C164.387 213.549 164.028 213.476 163.653 213.476C163.262 213.476 162.892 213.549 162.549 213.685C162.2 213.81 161.892 214.018 161.632 214.31C161.366 214.601 161.158 214.976 161.007 215.435C160.866 215.893 160.799 216.429 160.799 217.039C160.799 217.664 160.866 218.205 161.007 218.664C161.158 219.112 161.366 219.476 161.632 219.768C161.892 220.06 162.2 220.278 162.549 220.414C162.892 220.554 163.262 220.622 163.653 220.622Z" fill="#EBE3D2"/>
<path d="M177.692 223.58C176.744 223.58 175.89 223.435 175.13 223.143C174.364 222.851 173.713 222.429 173.172 221.872C172.63 221.32 172.213 220.638 171.922 219.83C171.64 219.028 171.505 218.096 171.505 217.039C171.505 215.997 171.64 215.075 171.922 214.268C172.213 213.45 172.63 212.763 173.172 212.205C173.713 211.653 174.364 211.226 175.13 210.935C175.89 210.643 176.744 210.497 177.692 210.497C178.609 210.497 179.442 210.653 180.192 210.955C180.942 211.263 181.578 211.7 182.109 212.268C182.651 212.841 183.057 213.507 183.338 214.268C183.63 215.034 183.776 215.882 183.776 216.81C183.776 216.976 183.76 217.143 183.734 217.31C183.718 217.466 183.703 217.601 183.692 217.726C183.677 217.882 183.661 218.013 183.651 218.122H174.963C175.088 218.83 175.364 219.429 175.797 219.914C176.224 220.388 176.859 220.622 177.692 220.622C178.343 220.622 178.823 220.518 179.13 220.31C179.448 220.091 179.724 219.789 179.963 219.414H183.526C183.385 219.955 183.172 220.476 182.88 220.976C182.588 221.476 182.203 221.924 181.734 222.31C181.26 222.7 180.692 223.013 180.026 223.247C179.359 223.466 178.578 223.58 177.692 223.58ZM180.317 215.622C180.244 215.346 180.14 215.08 180.005 214.83C179.88 214.58 179.703 214.351 179.484 214.143C179.276 213.935 179.015 213.778 178.713 213.664C178.422 213.539 178.078 213.476 177.692 213.476C176.911 213.476 176.302 213.685 175.859 214.101C175.427 214.507 175.13 215.013 174.963 215.622H180.317Z" fill="#EBE3D2"/>
<path d="M191.622 223.58C190.674 223.58 189.82 223.435 189.06 223.143C188.294 222.851 187.643 222.429 187.101 221.872C186.56 221.32 186.143 220.638 185.851 219.83C185.57 219.028 185.435 218.096 185.435 217.039C185.435 215.997 185.57 215.075 185.851 214.268C186.143 213.45 186.56 212.763 187.101 212.205C187.643 211.653 188.294 211.226 189.06 210.935C189.82 210.643 190.674 210.497 191.622 210.497C192.507 210.497 193.289 210.622 193.955 210.872C194.622 211.112 195.19 211.445 195.664 211.872C196.132 212.289 196.518 212.778 196.81 213.33C197.101 213.872 197.315 214.435 197.455 215.018H194.122C193.882 214.549 193.57 214.174 193.185 213.893C192.81 213.617 192.289 213.476 191.622 213.476C190.789 213.476 190.101 213.778 189.56 214.372C189.028 214.955 188.768 215.846 188.768 217.039C188.768 218.237 189.028 219.132 189.56 219.726C190.101 220.325 190.789 220.622 191.622 220.622C192.289 220.622 192.81 220.487 193.185 220.205C193.57 219.929 193.882 219.549 194.122 219.06H197.455C197.315 219.674 197.101 220.247 196.81 220.789C196.518 221.32 196.132 221.799 195.664 222.226C195.19 222.643 194.622 222.976 193.955 223.226C193.289 223.461 192.507 223.58 191.622 223.58Z" fill="#EBE3D2"/>
<path d="M204.611 223.351C203.288 223.351 202.303 223.039 201.652 222.414C200.996 221.778 200.673 220.862 200.673 219.664V213.831H198.652V210.726H200.673L201.152 207.393H204.007V210.726H206.986V213.831H204.007V219.06C204.007 219.435 204.111 219.726 204.319 219.935C204.538 220.143 204.829 220.247 205.194 220.247H206.986V223.351H204.611Z" fill="#EBE3D2"/>
<path d="M209.373 210.727H212.706V223.352H209.373V210.727ZM211.04 209.414C210.498 209.414 210.04 209.237 209.665 208.872C209.3 208.513 209.123 208.06 209.123 207.518C209.123 206.977 209.3 206.529 209.665 206.164C210.04 205.789 210.498 205.602 211.04 205.602C211.566 205.602 212.008 205.789 212.373 206.164C212.748 206.529 212.936 206.977 212.936 207.518C212.936 208.06 212.748 208.513 212.373 208.872C212.008 209.237 211.566 209.414 211.04 209.414Z" fill="#EBE3D2"/>
<path d="M221.147 223.58C220.2 223.58 219.345 223.435 218.585 223.143C217.819 222.851 217.168 222.429 216.627 221.872C216.085 221.32 215.668 220.638 215.377 219.83C215.095 219.028 214.96 218.096 214.96 217.039C214.96 215.997 215.095 215.075 215.377 214.268C215.668 213.45 216.085 212.763 216.627 212.205C217.168 211.653 217.819 211.226 218.585 210.935C219.345 210.643 220.2 210.497 221.147 210.497C222.106 210.497 222.96 210.643 223.71 210.935C224.47 211.226 225.127 211.653 225.668 212.205C226.21 212.763 226.616 213.45 226.897 214.268C227.189 215.075 227.335 215.997 227.335 217.039C227.335 218.096 227.189 219.028 226.897 219.83C226.616 220.638 226.21 221.32 225.668 221.872C225.127 222.429 224.47 222.851 223.71 223.143C222.96 223.435 222.106 223.58 221.147 223.58ZM221.147 220.622C221.533 220.622 221.903 220.554 222.252 220.414C222.595 220.278 222.903 220.06 223.168 219.768C223.429 219.476 223.632 219.112 223.772 218.664C223.924 218.205 224.002 217.664 224.002 217.039C224.002 216.429 223.924 215.893 223.772 215.435C223.632 214.976 223.429 214.601 223.168 214.31C222.903 214.018 222.595 213.81 222.252 213.685C221.903 213.549 221.533 213.476 221.147 213.476C220.772 213.476 220.403 213.549 220.043 213.685C219.694 213.81 219.387 214.018 219.127 214.31C218.877 214.601 218.674 214.976 218.522 215.435C218.366 215.893 218.293 216.429 218.293 217.039C218.293 217.664 218.366 218.205 218.522 218.664C218.674 219.112 218.877 219.476 219.127 219.768C219.387 220.06 219.694 220.278 220.043 220.414C220.403 220.554 220.772 220.622 221.147 220.622Z" fill="#EBE3D2"/>
<path d="M229.612 210.726H232.466L232.821 212.164H232.946C233.347 211.622 233.831 211.216 234.404 210.935C234.987 210.643 235.612 210.497 236.279 210.497C236.956 210.497 237.581 210.617 238.154 210.851C238.722 211.075 239.206 211.409 239.612 211.851C240.013 212.299 240.331 212.83 240.571 213.455C240.805 214.08 240.925 214.804 240.925 215.622V223.351H237.571V216.08C237.571 215.247 237.368 214.612 236.966 214.164C236.576 213.705 236.029 213.476 235.321 213.476C234.597 213.476 234.019 213.721 233.591 214.205C233.159 214.679 232.946 215.304 232.946 216.08V223.351H229.612V210.726Z" fill="#EBE3D2"/>
<path d="M253.533 223.58C252.684 223.58 251.94 223.466 251.304 223.247C250.664 223.028 250.117 222.716 249.658 222.31C249.21 221.909 248.872 221.429 248.638 220.872C248.414 220.32 248.304 219.716 248.304 219.06C248.304 218.284 248.481 217.554 248.846 216.872C249.205 216.195 249.773 215.617 250.554 215.143L251.513 214.539L250.804 213.83C250.388 213.414 250.039 212.935 249.763 212.393C249.497 211.841 249.367 211.205 249.367 210.497C249.367 209.955 249.476 209.445 249.7 208.955C249.934 208.471 250.263 208.039 250.679 207.664C251.096 207.289 251.596 206.992 252.179 206.768C252.763 206.549 253.414 206.435 254.138 206.435C255.69 206.435 256.872 206.82 257.679 207.58C258.481 208.33 258.888 209.304 258.888 210.497C258.888 211.164 258.742 211.81 258.45 212.435C258.169 213.049 257.643 213.591 256.867 214.06L255.908 214.664L258.658 217.393L260.325 215.726H264.367L260.679 219.414L264.617 223.351H260.45L258.658 221.56C258.377 221.768 258.075 221.992 257.742 222.226C257.408 222.466 257.033 222.685 256.617 222.893C256.21 223.091 255.752 223.247 255.242 223.372C254.726 223.507 254.158 223.58 253.533 223.58ZM253.763 220.622C254.304 220.622 254.804 220.518 255.263 220.31C255.731 220.091 256.148 219.789 256.513 219.414L253.533 216.455L252.825 216.914C252.101 217.403 251.742 218.039 251.742 218.83C251.742 219.372 251.908 219.81 252.242 220.143C252.585 220.466 253.096 220.622 253.763 220.622ZM254.721 212.164C254.955 211.987 255.169 211.789 255.367 211.58C255.575 211.372 255.679 211.091 255.679 210.726C255.679 210.31 255.539 209.971 255.263 209.705C254.981 209.445 254.606 209.31 254.138 209.31C253.648 209.31 253.268 209.45 252.992 209.726C252.71 210.007 252.575 210.382 252.575 210.851C252.575 211.159 252.648 211.414 252.804 211.622C252.971 211.82 253.169 212.039 253.408 212.289L253.888 212.747L254.721 212.164Z" fill="#EBE3D2"/>
<path d="M74.0112 240.694H76.8654L77.2196 242.132H77.3446C77.7039 241.59 78.1206 241.184 78.5946 240.902C79.0633 240.611 79.6362 240.465 80.3029 240.465C80.8446 240.465 81.3081 240.538 81.6987 240.673C82.0841 240.814 82.4175 240.986 82.6987 241.194C82.9748 241.402 83.1987 241.626 83.3654 241.861C83.5321 242.1 83.6623 242.309 83.7612 242.486H83.8862C83.98 242.309 84.1206 242.1 84.3029 241.861C84.4956 241.626 84.7508 241.402 85.0737 241.194C85.3914 240.986 85.7664 240.814 86.1987 240.673C86.6258 240.538 87.1258 240.465 87.6987 240.465C88.3758 240.465 89.0008 240.585 89.5737 240.819C90.1414 241.043 90.6258 241.371 91.0321 241.798C91.4487 242.23 91.7664 242.757 91.9904 243.382C92.2248 243.996 92.3446 244.689 92.3446 245.465V253.319H89.0112V245.944C89.0112 245.501 88.9539 245.121 88.8446 244.798C88.73 244.48 88.5789 244.225 88.3862 244.027C88.1883 243.819 87.9591 243.673 87.6987 243.59C87.4487 243.496 87.1675 243.444 86.8654 243.444C86.3237 243.444 85.8498 243.652 85.4487 244.069C85.0425 244.475 84.8446 245.1 84.8446 245.944V253.319H81.5112V245.944C81.5112 245.501 81.4539 245.121 81.3446 244.798C81.23 244.48 81.0789 244.225 80.8862 244.027C80.6883 243.819 80.4591 243.673 80.1987 243.59C79.9331 243.496 79.6571 243.444 79.3654 243.444C78.8237 243.444 78.3498 243.668 77.9487 244.111C77.5425 244.559 77.3446 245.168 77.3446 245.944V253.319H74.0112V240.694Z" fill="#EBE3D2"/>
<path d="M100.667 253.548C99.7196 253.548 98.8654 253.402 98.105 253.111C97.3394 252.819 96.6883 252.397 96.1466 251.84C95.605 251.288 95.1883 250.605 94.8966 249.798C94.6154 248.996 94.48 248.064 94.48 247.007C94.48 245.965 94.6154 245.043 94.8966 244.236C95.1883 243.418 95.605 242.73 96.1466 242.173C96.6883 241.621 97.3394 241.194 98.105 240.902C98.8654 240.611 99.7196 240.465 100.667 240.465C101.626 240.465 102.48 240.611 103.23 240.902C103.99 241.194 104.647 241.621 105.188 242.173C105.73 242.73 106.136 243.418 106.417 244.236C106.709 245.043 106.855 245.965 106.855 247.007C106.855 248.064 106.709 248.996 106.417 249.798C106.136 250.605 105.73 251.288 105.188 251.84C104.647 252.397 103.99 252.819 103.23 253.111C102.48 253.402 101.626 253.548 100.667 253.548ZM100.667 250.59C101.053 250.59 101.423 250.522 101.772 250.382C102.115 250.246 102.423 250.027 102.688 249.736C102.949 249.444 103.152 249.079 103.292 248.632C103.444 248.173 103.522 247.632 103.522 247.007C103.522 246.397 103.444 245.861 103.292 245.402C103.152 244.944 102.949 244.569 102.688 244.277C102.423 243.986 102.115 243.777 101.772 243.652C101.423 243.517 101.053 243.444 100.667 243.444C100.292 243.444 99.9227 243.517 99.5633 243.652C99.2144 243.777 98.9071 243.986 98.6466 244.277C98.3966 244.569 98.1935 244.944 98.0425 245.402C97.8862 245.861 97.8133 246.397 97.8133 247.007C97.8133 247.632 97.8862 248.173 98.0425 248.632C98.1935 249.079 98.3966 249.444 98.6466 249.736C98.9071 250.027 99.2144 250.246 99.5633 250.382C99.9227 250.522 100.292 250.59 100.667 250.59Z" fill="#EBE3D2"/>
<path d="M109.132 240.694H111.986L112.341 242.132H112.466C112.867 241.59 113.351 241.184 113.924 240.902C114.507 240.611 115.132 240.465 115.799 240.465C116.476 240.465 117.101 240.585 117.674 240.819C118.242 241.043 118.726 241.376 119.132 241.819C119.533 242.267 119.851 242.798 120.091 243.423C120.325 244.048 120.445 244.772 120.445 245.59V253.319H117.091V246.048C117.091 245.215 116.888 244.579 116.486 244.132C116.096 243.673 115.549 243.444 114.841 243.444C114.117 243.444 113.539 243.689 113.111 244.173C112.679 244.647 112.466 245.272 112.466 246.048V253.319H109.132V240.694Z" fill="#EBE3D2"/>
<path d="M123.181 240.694H126.514V253.319H123.181V240.694ZM124.847 239.381C124.306 239.381 123.847 239.204 123.472 238.84C123.108 238.48 122.931 238.027 122.931 237.486C122.931 236.944 123.108 236.496 123.472 236.131C123.847 235.756 124.306 235.569 124.847 235.569C125.373 235.569 125.816 235.756 126.181 236.131C126.556 236.496 126.743 236.944 126.743 237.486C126.743 238.027 126.556 238.48 126.181 238.84C125.816 239.204 125.373 239.381 124.847 239.381Z" fill="#EBE3D2"/>
<path d="M134.372 253.319C133.049 253.319 132.065 253.006 131.414 252.381C130.757 251.746 130.434 250.829 130.434 249.631V243.798H128.414V240.694H130.434L130.914 237.36H133.768V240.694H136.747V243.798H133.768V249.027C133.768 249.402 133.872 249.694 134.08 249.902C134.299 250.11 134.591 250.215 134.955 250.215H136.747V253.319H134.372Z" fill="#EBE3D2"/>
<path d="M144.718 253.548C143.77 253.548 142.916 253.402 142.155 253.111C141.39 252.819 140.739 252.397 140.197 251.84C139.655 251.288 139.239 250.605 138.947 249.798C138.666 248.996 138.53 248.064 138.53 247.007C138.53 245.965 138.666 245.043 138.947 244.236C139.239 243.418 139.655 242.73 140.197 242.173C140.739 241.621 141.39 241.194 142.155 240.902C142.916 240.611 143.77 240.465 144.718 240.465C145.676 240.465 146.53 240.611 147.28 240.902C148.041 241.194 148.697 241.621 149.239 242.173C149.78 242.73 150.187 243.418 150.468 244.236C150.759 245.043 150.905 245.965 150.905 247.007C150.905 248.064 150.759 248.996 150.468 249.798C150.187 250.605 149.78 251.288 149.239 251.84C148.697 252.397 148.041 252.819 147.28 253.111C146.53 253.402 145.676 253.548 144.718 253.548ZM144.718 250.59C145.103 250.59 145.473 250.522 145.822 250.382C146.166 250.246 146.473 250.027 146.739 249.736C146.999 249.444 147.202 249.079 147.343 248.632C147.494 248.173 147.572 247.632 147.572 247.007C147.572 246.397 147.494 245.861 147.343 245.402C147.202 244.944 146.999 244.569 146.739 244.277C146.473 243.986 146.166 243.777 145.822 243.652C145.473 243.517 145.103 243.444 144.718 243.444C144.343 243.444 143.973 243.517 143.614 243.652C143.265 243.777 142.957 243.986 142.697 244.277C142.447 244.569 142.244 244.944 142.093 245.402C141.937 245.861 141.864 246.397 141.864 247.007C141.864 247.632 141.937 248.173 142.093 248.632C142.244 249.079 142.447 249.444 142.697 249.736C142.957 250.027 143.265 250.246 143.614 250.382C143.973 250.522 144.343 250.59 144.718 250.59Z" fill="#EBE3D2"/>
<path d="M153.183 240.694H156.037L156.391 242.131H156.516C156.875 241.59 157.308 241.215 157.808 241.006C158.318 240.798 158.875 240.694 159.474 240.694H161.037V243.923H159.724C158.709 243.923 157.917 244.204 157.349 244.756C156.792 245.314 156.516 246.064 156.516 247.006V253.319H153.183V240.694Z" fill="#EBE3D2"/>
<path d="M162.826 240.694H166.16V253.319H162.826V240.694ZM164.493 239.381C163.951 239.381 163.493 239.204 163.118 238.84C162.753 238.48 162.576 238.027 162.576 237.486C162.576 236.944 162.753 236.496 163.118 236.131C163.493 235.756 163.951 235.569 164.493 235.569C165.019 235.569 165.462 235.756 165.826 236.131C166.201 236.496 166.389 236.944 166.389 237.486C166.389 238.027 166.201 238.48 165.826 238.84C165.462 239.204 165.019 239.381 164.493 239.381Z" fill="#EBE3D2"/>
<path d="M169.017 240.694H171.871L172.225 242.132H172.35C172.751 241.59 173.236 241.184 173.809 240.902C174.392 240.611 175.017 240.465 175.684 240.465C176.361 240.465 176.986 240.585 177.559 240.819C178.126 241.043 178.611 241.376 179.017 241.819C179.418 242.267 179.736 242.798 179.975 243.423C180.21 244.048 180.33 244.772 180.33 245.59V253.319H176.975V246.048C176.975 245.215 176.772 244.579 176.371 244.132C175.981 243.673 175.434 243.444 174.725 243.444C174.001 243.444 173.423 243.689 172.996 244.173C172.564 244.647 172.35 245.272 172.35 246.048V253.319H169.017V240.694Z" fill="#EBE3D2"/>
<path d="M188.649 258.09C187.701 258.09 186.883 257.975 186.191 257.757C185.508 257.533 184.93 257.225 184.461 256.84C184.003 256.449 183.628 255.991 183.336 255.465C183.055 254.949 182.842 254.392 182.691 253.798H186.149C186.274 254.215 186.55 254.533 186.982 254.757C187.425 254.991 187.982 255.111 188.649 255.111C189.493 255.111 190.139 254.908 190.586 254.507C191.045 254.116 191.274 253.559 191.274 252.84V251.048H191.149C191.024 251.204 190.857 251.371 190.649 251.548C190.451 251.73 190.211 251.902 189.92 252.069C189.639 252.225 189.321 252.355 188.961 252.465C188.612 252.564 188.232 252.611 187.816 252.611C187.008 252.611 186.274 252.48 185.607 252.215C184.951 251.954 184.389 251.564 183.92 251.048C183.461 250.538 183.097 249.902 182.836 249.152C182.586 248.392 182.461 247.517 182.461 246.527C182.461 245.543 182.586 244.673 182.836 243.923C183.097 243.173 183.461 242.543 183.92 242.027C184.389 241.501 184.951 241.111 185.607 240.861C186.274 240.6 187.008 240.465 187.816 240.465C188.592 240.465 189.274 240.642 189.857 240.986C190.441 241.335 190.909 241.715 191.274 242.132H191.399L191.753 240.694H194.607V252.84C194.607 254.517 194.118 255.809 193.149 256.715C192.175 257.632 190.675 258.09 188.649 258.09ZM188.524 249.632C189.368 249.632 190.034 249.355 190.524 248.798C191.024 248.246 191.274 247.486 191.274 246.527C191.274 245.585 191.024 244.835 190.524 244.277C190.034 243.725 189.368 243.444 188.524 243.444C187.691 243.444 187.024 243.725 186.524 244.277C186.034 244.835 185.795 245.585 185.795 246.527C185.795 247.486 186.034 248.246 186.524 248.798C187.024 249.355 187.691 249.632 188.524 249.632Z" fill="#EBE3D2"/>
</svg>
