<svg width="91" height="75" viewBox="0 0 91 75" fill="none" xmlns="http://www.w3.org/2000/svg">
<mask id="mask0_80_2615" style="mask-type:luminance" maskUnits="userSpaceOnUse" x="17" y="0" width="69" height="45">
<path d="M17.589 0H85.8339V44.4704H17.589V0Z" fill="white"/>
</mask>
<g mask="url(#mask0_80_2615)">
<path d="M19.5498 1.18385H84.0464V43.1022H25.5674V44.2888H85.2298V0.000488281H18.3665V9.04802H19.5498V1.18385Z" fill="#E9E2D1"/>
</g>
<path d="M29.2329 7.87451H36.5282V9.14565H29.2329V7.87451Z" fill="#E9E2D1"/>
<path d="M67.6985 4.4541H74.9937V5.72849H67.6985V4.4541Z" fill="#E9E2D1"/>
<path d="M67.6985 35.2998H80.9008V36.5742H67.6985V35.2998Z" fill="#E9E2D1"/>
<path d="M67.6985 38.3232H80.9008V39.5944H67.6985V38.3232Z" fill="#E9E2D1"/>
<path d="M32.9387 9.89648L32.5063 10.0915L34.6845 15.0006H38.7515V14.5259H34.9901L32.9387 9.89648Z" fill="#E9E2D1"/>
<path d="M64.7628 10.1764H69.5775L71.6289 6.72381L71.2225 6.47998L69.3077 9.70497H64.7628V10.1764Z" fill="#E9E2D1"/>
<path d="M33.947 54.6301C33.947 57.2765 35.8748 59.4709 38.3976 59.887H40.1304C42.6532 59.4709 44.581 57.2765 44.581 54.6301C44.581 51.688 42.2013 49.3018 39.2624 49.3018C36.3267 49.3018 33.947 51.688 33.947 54.6301Z" fill="#E9E2D1"/>
<path d="M53.9117 54.6301C53.9117 57.2765 55.8362 59.4709 58.3623 59.887H60.0951C62.6178 59.4709 64.5424 57.2765 64.5424 54.6301C64.5424 51.688 62.1627 49.3018 59.227 49.3018C56.2914 49.3018 53.9117 51.688 53.9117 54.6301Z" fill="#E9E2D1"/>
<mask id="mask1_80_2615" style="mask-type:luminance" maskUnits="userSpaceOnUse" x="26" y="61" width="66" height="14">
<path d="M26.7444 61.1162H91.0004V74.7932H26.7444V61.1162Z" fill="white"/>
</mask>
<g mask="url(#mask1_80_2615)">
<path d="M85.7806 61.818C84.9744 61.4084 84.2657 61.3174 83.8398 61.3109C83.8105 61.3109 83.7845 61.3076 83.7553 61.3076H74.6265C74.594 61.3076 74.5647 61.3109 74.5322 61.3141C74.1063 61.3174 73.4008 61.4116 72.6011 61.818C71.4177 62.4065 70.1498 63.6418 69.207 65.7842C68.9372 65.1796 68.6479 64.6464 68.339 64.175C67.5653 62.9949 66.655 62.2374 65.8163 61.818C65.01 61.4084 64.3013 61.3174 63.8754 61.3109C63.8461 61.3109 63.8201 61.3076 63.7909 61.3076H54.6621C54.6328 61.3076 54.6003 61.3109 54.5711 61.3109C54.1419 61.3174 53.4365 61.4116 52.6367 61.818C51.4533 62.4032 50.1855 63.6418 49.2427 65.7842C48.9728 65.1796 48.6835 64.6464 48.3746 64.175C47.6009 62.9949 46.6906 62.2374 45.8519 61.818C45.0456 61.4084 44.3369 61.3174 43.911 61.3109C43.8818 61.3109 43.8558 61.3076 43.8265 61.3076H34.6977C34.6684 61.3076 34.6359 61.3109 34.6067 61.3109C34.1775 61.3174 33.4721 61.4116 32.6723 61.818C31.4012 62.4487 30.0325 63.8304 29.0735 66.2784C28.2867 68.268 27.7113 70.9761 27.5162 74.7798H31.3004C31.5215 70.807 32.2009 68.3948 32.8739 67.0196V74.7798H45.6536V67.0294C45.7934 67.3187 45.9331 67.6471 46.0729 68.0339C46.5931 69.4774 47.0482 71.649 47.2205 74.7798H51.2648C51.4859 70.807 52.1653 68.3948 52.8383 67.0196V74.7798H65.6179V67.0294C65.7577 67.3187 65.8975 67.6471 66.0373 68.0339C66.5575 69.4774 67.0094 71.649 67.1849 74.7798H71.2292C71.4502 70.807 72.1297 68.3948 72.7994 67.0196V74.7798H85.5791V67.0294C85.7189 67.3187 85.8619 67.6471 86.0017 68.0339C86.5219 69.4774 86.9738 71.6458 87.1493 74.7798H90.9335C90.6604 69.4124 89.6331 66.2134 88.3034 64.175C87.5297 62.9949 86.6194 62.2374 85.7806 61.818Z" fill="#E9E2D1"/>
</g>
<path d="M84.507 54.6301C84.507 54.978 84.4745 55.3259 84.4063 55.6705C84.338 56.0118 84.2372 56.3467 84.1039 56.6685C83.9706 56.9936 83.8048 57.2992 83.613 57.5918C83.418 57.8811 83.1969 58.151 82.9498 58.3981C82.7027 58.6451 82.4362 58.8662 82.1468 59.0613C81.8542 59.2563 81.5486 59.4189 81.2268 59.5522C80.9049 59.6855 80.5701 59.7862 80.2287 59.8545C79.8874 59.9228 79.5395 59.9585 79.1917 59.9585C78.8438 59.9585 78.496 59.9228 78.1546 59.8545C77.8132 59.7862 77.4816 59.6855 77.1565 59.5522C76.8347 59.4189 76.5291 59.2563 76.2398 59.0613C75.9472 58.8662 75.6806 58.6451 75.4335 58.3981C75.1864 58.151 74.9654 57.8811 74.7736 57.5918C74.5785 57.2992 74.4159 56.9936 74.2794 56.6685C74.1461 56.3467 74.0453 56.0118 73.9771 55.6705C73.9088 55.3259 73.8763 54.978 73.8763 54.6301C73.8763 54.279 73.9088 53.9344 73.9771 53.5898C74.0453 53.2485 74.1461 52.9136 74.2794 52.5918C74.4159 52.2667 74.5785 51.9611 74.7736 51.6685C74.9654 51.3791 75.1864 51.1093 75.4335 50.8622C75.6806 50.6152 75.9472 50.3941 76.2398 50.199C76.5291 50.004 76.8347 49.8414 77.1565 49.7081C77.4816 49.5716 77.8132 49.4708 78.1546 49.4025C78.496 49.3343 78.8438 49.3018 79.1917 49.3018C79.5395 49.3018 79.8874 49.3343 80.2287 49.4025C80.5701 49.4708 80.9049 49.5716 81.2268 49.7081C81.5486 49.8414 81.8542 50.004 82.1468 50.199C82.4362 50.3941 82.7027 50.6152 82.9498 50.8622C83.1969 51.1093 83.418 51.3791 83.613 51.6685C83.8048 51.9611 83.9706 52.2667 84.1039 52.5918C84.2372 52.9136 84.338 53.2485 84.4063 53.5898C84.4745 53.9344 84.507 54.279 84.507 54.6301Z" fill="#E9E2D1"/>
<mask id="mask2_80_2615" style="mask-type:luminance" maskUnits="userSpaceOnUse" x="0" y="19" width="39" height="49">
<path d="M0 19.5034H38.3943V67.7743H0V19.5034Z" fill="white"/>
</mask>
<g mask="url(#mask2_80_2615)">
<path d="M37.8981 21.405C37.547 20.4199 36.4644 19.9095 35.4793 20.2639C30.294 22.1365 21.1424 22.8224 19.7998 22.9134H10.684C10.6612 22.9134 10.6352 22.9167 10.6092 22.9167C9.38682 22.933 5.82698 23.5994 4.23724 30.6086C4.12996 31.0897 4.02918 31.6001 3.93815 32.1398C3.93815 32.143 3.93815 32.143 3.93815 32.143C3.6228 34.0774 3.43425 36.4148 3.43425 39.266C3.43425 40.6509 3.47976 42.1594 3.57404 43.8011C3.63256 44.8089 4.46806 45.5859 5.45962 45.5859C5.49863 45.5859 5.53439 45.5859 5.5734 45.5827C6.61372 45.5209 7.41022 44.6236 7.34845 43.58C7.25417 42.0066 7.21516 40.5696 7.21516 39.266C7.21516 36.5839 7.39071 34.4512 7.66705 32.764C7.66705 32.764 7.6703 32.7607 7.6703 32.7575C7.75157 32.2471 7.84585 31.7822 7.94663 31.3498C8.21321 30.1924 8.53181 29.3049 8.86016 28.6352V34.0774L7.91737 34.9519C7.88486 35.29 7.85886 35.6379 7.8361 35.9955L9.38032 34.5618L15.0501 40.7029L6.72751 48.424L4.32177 45.8167C3.85362 45.5632 3.47651 45.16 3.25869 44.6659L1.05777 42.2829L2.92709 40.5469C2.92059 40.225 2.91734 39.9064 2.91734 39.5911L0.0564575 42.2439L6.6885 49.4286L6.94858 49.188L8.86016 47.413V64.1524C8.86016 65.7681 10.1671 67.0783 11.7796 67.0783C13.3921 67.0783 14.7022 65.7681 14.7022 64.1524V42.7738H15.7978V64.1524C15.7978 65.7681 17.1047 67.0783 18.7172 67.0783C20.3297 67.0783 21.6398 65.7681 21.6398 64.1524V26.5741C24.9494 26.288 32.1048 25.511 36.7602 23.8302C37.742 23.4759 38.2524 22.39 37.8981 21.405ZM17.4948 37.2861L15.3589 39.9909L13.8472 38.3524L13.0052 37.2861L14.2991 27.7379C14.6047 27.8517 14.9265 27.9135 15.2484 27.9135H15.2516C15.5735 27.9135 15.8953 27.8517 16.2009 27.7379L17.4948 37.2861ZM14.3511 24.851H16.1457L16.5943 26.6293L16.526 26.7366C16.1587 27.0455 15.7035 27.2015 15.2484 27.2015C14.7932 27.2015 14.3413 27.0455 13.9707 26.7366L13.9025 26.6293L14.3511 24.851Z" fill="#E9E2D1"/>
</g>
<path d="M20.5629 16.2356C20.5629 16.5867 20.5304 16.9313 20.4621 17.2759C20.3938 17.6173 20.2931 17.9521 20.1598 18.274C20.0265 18.5991 19.8639 18.9047 19.6689 19.1973C19.4738 19.4866 19.2527 19.7564 19.0089 20.0035C18.7618 20.2506 18.492 20.4717 18.2027 20.6667C17.9101 20.8618 17.6045 21.0243 17.2826 21.1576C16.9608 21.2942 16.6292 21.395 16.2846 21.4632C15.9432 21.5315 15.5986 21.564 15.2475 21.564C14.8997 21.564 14.555 21.5315 14.2104 21.4632C13.8691 21.395 13.5375 21.2942 13.2156 21.1576C12.8905 21.0243 12.5849 20.8618 12.2956 20.6667C12.0063 20.4717 11.7364 20.2506 11.4894 20.0035C11.2423 19.7564 11.0212 19.4866 10.8294 19.1973C10.6343 18.9047 10.4718 18.5991 10.3385 18.274C10.2052 17.9521 10.1044 17.6173 10.0362 17.2759C9.96789 16.9313 9.93213 16.5867 9.93213 16.2356C9.93213 15.8845 9.96789 15.5399 10.0362 15.1953C10.1044 14.8539 10.2052 14.5191 10.3385 14.1972C10.4718 13.8721 10.6343 13.5665 10.8294 13.274C11.0212 12.9846 11.2423 12.7148 11.4894 12.4677C11.7364 12.2206 12.0063 11.9996 12.2956 11.8045C12.5849 11.6094 12.8905 11.4469 13.2156 11.3136C13.5375 11.1803 13.8691 11.0763 14.2104 11.008C14.555 10.9397 14.8997 10.9072 15.2475 10.9072C15.5986 10.9072 15.9432 10.9397 16.2846 11.008C16.6292 11.0763 16.9608 11.1803 17.2826 11.3136C17.6045 11.4469 17.9101 11.6094 18.2027 11.8045C18.492 11.9996 18.7618 12.2206 19.0089 12.4677C19.2527 12.7148 19.4738 12.9846 19.6689 13.274C19.8639 13.5665 20.0265 13.8721 20.1598 14.1972C20.2931 14.5191 20.3938 14.8539 20.4621 15.1953C20.5304 15.5399 20.5629 15.8845 20.5629 16.2356Z" fill="#E9E2D1"/>
<path d="M40.0526 19.6272V23.5121H42.2113C42.3186 24.1201 42.4746 24.7118 42.6795 25.2807L40.8134 26.3633L42.751 29.7248L44.6203 28.6422C45.0137 29.1104 45.4461 29.5427 45.9109 29.9361L44.8316 31.8119L48.1866 33.7528L49.266 31.8835C49.8349 32.0883 50.4233 32.2443 51.0313 32.3548V34.5168H54.9065V32.3548C55.5111 32.2443 56.1028 32.0883 56.6718 31.8835L57.7478 33.7528L61.1029 31.8119L60.0235 29.9361C60.4884 29.5427 60.9208 29.1104 61.3142 28.6422L63.1835 29.7248L65.1211 26.3633L63.255 25.2807C63.4598 24.7118 63.6159 24.1201 63.7264 23.5121H65.8851V19.6272H63.7264C63.6159 19.0193 63.4598 18.4276 63.255 17.8586L65.1211 16.7793L63.1835 13.4145L61.3142 14.4971C60.9208 14.029 60.4884 13.5966 60.0235 13.2032L61.1029 11.3274L57.7478 9.38654L56.6718 11.2559C56.1028 11.0511 55.5111 10.895 54.9065 10.7845V8.62256H51.0313V10.7845C50.4233 10.895 49.8349 11.0511 49.266 11.2559L48.1866 9.38654L44.8316 11.3274L45.9109 13.2032C45.4461 13.5966 45.0137 14.029 44.6203 14.4971L42.751 13.4145L40.8134 16.7793L42.6795 17.8586C42.4746 18.4276 42.3186 19.0193 42.2113 19.6272H40.0526ZM46.8342 21.5713C46.8342 18.174 49.5813 15.4204 52.9689 15.4204C56.3564 15.4204 59.1035 18.174 59.1035 21.5713C59.1035 24.9653 56.3564 27.7189 52.9689 27.7189C49.5813 27.7189 46.8342 24.9653 46.8342 21.5713Z" fill="#E9E2D1"/>
<path d="M56.2551 21.5709C56.2551 21.7855 56.2324 22.0001 56.1901 22.2114C56.1478 22.4259 56.0861 22.6308 56.0048 22.8291C55.9203 23.0306 55.8195 23.2192 55.6992 23.4012C55.5789 23.58 55.4456 23.7458 55.2928 23.8986C55.14 24.0514 54.9742 24.188 54.7922 24.3083C54.6134 24.4286 54.4248 24.5293 54.2265 24.6139C54.0249 24.6951 53.8201 24.7602 53.6088 24.8024C53.3975 24.8447 53.1829 24.8642 52.9684 24.8642C52.7506 24.8642 52.5392 24.8447 52.3247 24.8024C52.1134 24.7602 51.9085 24.6951 51.7102 24.6139C51.5119 24.5293 51.3201 24.4286 51.1413 24.3083C50.9625 24.188 50.7967 24.0514 50.6439 23.8986C50.4911 23.7458 50.3546 23.58 50.2343 23.4012C50.114 23.2192 50.0132 23.0306 49.9319 22.8291C49.8474 22.6308 49.7856 22.4259 49.7434 22.2114C49.7011 22.0001 49.6816 21.7855 49.6816 21.5709C49.6816 21.3531 49.7011 21.1385 49.7434 20.9272C49.7856 20.7159 49.8474 20.5079 49.9319 20.3095C50.0132 20.108 50.114 19.9194 50.2343 19.7406C50.3546 19.5586 50.4911 19.3928 50.6439 19.24C50.7967 19.0872 50.9625 18.9506 51.1413 18.8303C51.3201 18.71 51.5119 18.6093 51.7102 18.5247C51.9085 18.4435 52.1134 18.3817 52.3247 18.3394C52.5392 18.2972 52.7506 18.2744 52.9684 18.2744C53.1829 18.2744 53.3975 18.2972 53.6088 18.3394C53.8201 18.3817 54.0249 18.4435 54.2265 18.5247C54.4248 18.6093 54.6134 18.71 54.7922 18.8303C54.9742 18.9506 55.14 19.0872 55.2928 19.24C55.4456 19.3928 55.5789 19.5586 55.6992 19.7406C55.8195 19.9194 55.9203 20.108 56.0048 20.3095C56.0861 20.5079 56.1478 20.7159 56.1901 20.9272C56.2324 21.1385 56.2551 21.3531 56.2551 21.5709Z" fill="#E9E2D1"/>
</svg>
